G04 #@! TF.FileFunction,Copper,L4,Bot,Signal*
%FSLAX46Y46*%
G04 Gerber Fmt 4.6, Leading zero omitted, Abs format (unit mm)*
G04 Created by KiCad (PCBNEW 4.0.7) date Mon Feb 19 16:48:59 2018*
%MOMM*%
%LPD*%
G01*
G04 APERTURE LIST*
%ADD10C,0.100000*%
%ADD11C,1.600000*%
%ADD12R,1.600000X1.600000*%
%ADD13C,2.800000*%
%ADD14C,0.600000*%
%ADD15C,2.032000*%
%ADD16C,0.508000*%
%ADD17C,0.254000*%
G04 APERTURE END LIST*
D10*
D11*
X401320000Y-66040000D03*
X401320000Y-68580000D03*
D12*
X401320000Y-71120000D03*
D11*
X401320000Y-73660000D03*
X401320000Y-76200000D03*
X401320000Y-78740000D03*
X401320000Y-81280000D03*
X401320000Y-83820000D03*
X401320000Y-86360000D03*
X401320000Y-88900000D03*
X401320000Y-91440000D03*
X401320000Y-93980000D03*
D12*
X401320000Y-96520000D03*
D11*
X401320000Y-99060000D03*
X401320000Y-101600000D03*
X401320000Y-104140000D03*
X401320000Y-106680000D03*
X401320000Y-109220000D03*
X401320000Y-111760000D03*
X401320000Y-114300000D03*
X401320000Y-116840000D03*
X401320000Y-119380000D03*
D12*
X401320000Y-121920000D03*
D11*
X401320000Y-124460000D03*
X401320000Y-127000000D03*
X401320000Y-129540000D03*
X401320000Y-132080000D03*
X401320000Y-134620000D03*
X401320000Y-137160000D03*
X401320000Y-139700000D03*
X401320000Y-142240000D03*
D12*
X401320000Y-144780000D03*
D11*
X403860000Y-66040000D03*
X403860000Y-68580000D03*
D12*
X403860000Y-71120000D03*
D11*
X403860000Y-73660000D03*
X403860000Y-76200000D03*
X403860000Y-78740000D03*
X403860000Y-81280000D03*
X403860000Y-83820000D03*
X403860000Y-86360000D03*
X403860000Y-88900000D03*
X403860000Y-91440000D03*
X403860000Y-93980000D03*
D12*
X403860000Y-96520000D03*
D11*
X403860000Y-99060000D03*
X403860000Y-101600000D03*
X403860000Y-104140000D03*
X403860000Y-106680000D03*
X403860000Y-109220000D03*
X403860000Y-111760000D03*
X403860000Y-114300000D03*
X403860000Y-116840000D03*
X403860000Y-119380000D03*
D12*
X403860000Y-121920000D03*
D11*
X403860000Y-124460000D03*
X403860000Y-127000000D03*
X403860000Y-129540000D03*
X403860000Y-132080000D03*
X403860000Y-134620000D03*
X403860000Y-137160000D03*
X403860000Y-139700000D03*
X403860000Y-142240000D03*
D12*
X403860000Y-144780000D03*
D11*
X406400000Y-66040000D03*
X406400000Y-68580000D03*
D12*
X406400000Y-71120000D03*
D11*
X406400000Y-73660000D03*
X406400000Y-76200000D03*
X406400000Y-78740000D03*
X406400000Y-81280000D03*
X406400000Y-83820000D03*
X406400000Y-86360000D03*
X406400000Y-88900000D03*
X406400000Y-91440000D03*
X406400000Y-93980000D03*
D12*
X406400000Y-96520000D03*
D11*
X406400000Y-99060000D03*
X406400000Y-101600000D03*
X406400000Y-104140000D03*
X406400000Y-106680000D03*
X406400000Y-109220000D03*
X406400000Y-111760000D03*
D12*
X406400000Y-114300000D03*
D11*
X406400000Y-116840000D03*
X406400000Y-119380000D03*
D12*
X406400000Y-121920000D03*
D11*
X406400000Y-124460000D03*
X406400000Y-127000000D03*
X406400000Y-129540000D03*
X406400000Y-132080000D03*
X406400000Y-134620000D03*
X406400000Y-137160000D03*
X406400000Y-139700000D03*
X406400000Y-142240000D03*
D12*
X406400000Y-144780000D03*
D13*
X398780000Y-60960000D03*
X398780000Y-149860000D03*
D11*
X401320000Y-167640000D03*
X401320000Y-170180000D03*
D12*
X401320000Y-172720000D03*
D11*
X401320000Y-175260000D03*
X401320000Y-177800000D03*
X401320000Y-180340000D03*
X401320000Y-182880000D03*
X401320000Y-185420000D03*
X401320000Y-187960000D03*
X401320000Y-190500000D03*
X401320000Y-193040000D03*
X401320000Y-195580000D03*
D12*
X401320000Y-198120000D03*
D11*
X401320000Y-200660000D03*
X401320000Y-203200000D03*
X401320000Y-205740000D03*
X401320000Y-208280000D03*
X401320000Y-210820000D03*
X401320000Y-213360000D03*
X401320000Y-215900000D03*
X401320000Y-218440000D03*
X401320000Y-220980000D03*
D12*
X401320000Y-223520000D03*
D11*
X401320000Y-226060000D03*
X401320000Y-228600000D03*
X401320000Y-231140000D03*
X401320000Y-233680000D03*
X401320000Y-236220000D03*
X401320000Y-238760000D03*
X401320000Y-241300000D03*
X401320000Y-243840000D03*
D12*
X401320000Y-246380000D03*
D11*
X403860000Y-167640000D03*
X403860000Y-170180000D03*
D12*
X403860000Y-172720000D03*
D11*
X403860000Y-175260000D03*
X403860000Y-177800000D03*
X403860000Y-180340000D03*
X403860000Y-182880000D03*
X403860000Y-185420000D03*
X403860000Y-187960000D03*
X403860000Y-190500000D03*
X403860000Y-193040000D03*
X403860000Y-195580000D03*
D12*
X403860000Y-198120000D03*
D11*
X403860000Y-200660000D03*
X403860000Y-203200000D03*
X403860000Y-205740000D03*
X403860000Y-208280000D03*
X403860000Y-210820000D03*
X403860000Y-213360000D03*
X403860000Y-215900000D03*
X403860000Y-218440000D03*
X403860000Y-220980000D03*
D12*
X403860000Y-223520000D03*
D11*
X403860000Y-226060000D03*
X403860000Y-228600000D03*
X403860000Y-231140000D03*
X403860000Y-233680000D03*
X403860000Y-236220000D03*
X403860000Y-238760000D03*
X403860000Y-241300000D03*
X403860000Y-243840000D03*
D12*
X403860000Y-246380000D03*
D11*
X406400000Y-167640000D03*
X406400000Y-170180000D03*
D12*
X406400000Y-172720000D03*
D11*
X406400000Y-175260000D03*
X406400000Y-177800000D03*
X406400000Y-180340000D03*
X406400000Y-182880000D03*
X406400000Y-185420000D03*
X406400000Y-187960000D03*
X406400000Y-190500000D03*
X406400000Y-193040000D03*
X406400000Y-195580000D03*
D12*
X406400000Y-198120000D03*
D11*
X406400000Y-200660000D03*
X406400000Y-203200000D03*
X406400000Y-205740000D03*
X406400000Y-208280000D03*
X406400000Y-210820000D03*
X406400000Y-213360000D03*
D12*
X406400000Y-215900000D03*
D11*
X406400000Y-218440000D03*
X406400000Y-220980000D03*
D12*
X406400000Y-223520000D03*
D11*
X406400000Y-226060000D03*
X406400000Y-228600000D03*
X406400000Y-231140000D03*
X406400000Y-233680000D03*
X406400000Y-236220000D03*
X406400000Y-238760000D03*
X406400000Y-241300000D03*
X406400000Y-243840000D03*
D12*
X406400000Y-246380000D03*
D13*
X398780000Y-162560000D03*
X398780000Y-251460000D03*
D11*
X401320000Y-269240000D03*
X401320000Y-271780000D03*
D12*
X401320000Y-274320000D03*
D11*
X401320000Y-276860000D03*
X401320000Y-279400000D03*
X401320000Y-281940000D03*
X401320000Y-284480000D03*
X401320000Y-287020000D03*
X401320000Y-289560000D03*
X401320000Y-292100000D03*
X401320000Y-294640000D03*
X401320000Y-297180000D03*
D12*
X401320000Y-299720000D03*
D11*
X401320000Y-302260000D03*
X401320000Y-304800000D03*
X401320000Y-307340000D03*
X401320000Y-309880000D03*
X401320000Y-312420000D03*
X401320000Y-314960000D03*
X401320000Y-317500000D03*
X401320000Y-320040000D03*
X401320000Y-322580000D03*
D12*
X401320000Y-325120000D03*
D11*
X401320000Y-327660000D03*
X401320000Y-330200000D03*
X401320000Y-332740000D03*
X401320000Y-335280000D03*
X401320000Y-337820000D03*
X401320000Y-340360000D03*
X401320000Y-342900000D03*
X401320000Y-345440000D03*
D12*
X401320000Y-347980000D03*
D11*
X403860000Y-269240000D03*
X403860000Y-271780000D03*
D12*
X403860000Y-274320000D03*
D11*
X403860000Y-276860000D03*
X403860000Y-279400000D03*
X403860000Y-281940000D03*
X403860000Y-284480000D03*
X403860000Y-287020000D03*
X403860000Y-289560000D03*
X403860000Y-292100000D03*
X403860000Y-294640000D03*
X403860000Y-297180000D03*
D12*
X403860000Y-299720000D03*
D11*
X403860000Y-302260000D03*
X403860000Y-304800000D03*
X403860000Y-307340000D03*
X403860000Y-309880000D03*
X403860000Y-312420000D03*
X403860000Y-314960000D03*
X403860000Y-317500000D03*
X403860000Y-320040000D03*
X403860000Y-322580000D03*
D12*
X403860000Y-325120000D03*
D11*
X403860000Y-327660000D03*
X403860000Y-330200000D03*
X403860000Y-332740000D03*
X403860000Y-335280000D03*
X403860000Y-337820000D03*
X403860000Y-340360000D03*
X403860000Y-342900000D03*
X403860000Y-345440000D03*
D12*
X403860000Y-347980000D03*
D11*
X406400000Y-269240000D03*
X406400000Y-271780000D03*
D12*
X406400000Y-274320000D03*
D11*
X406400000Y-276860000D03*
X406400000Y-279400000D03*
X406400000Y-281940000D03*
X406400000Y-284480000D03*
X406400000Y-287020000D03*
X406400000Y-289560000D03*
X406400000Y-292100000D03*
X406400000Y-294640000D03*
X406400000Y-297180000D03*
D12*
X406400000Y-299720000D03*
D11*
X406400000Y-302260000D03*
X406400000Y-304800000D03*
X406400000Y-307340000D03*
X406400000Y-309880000D03*
X406400000Y-312420000D03*
X406400000Y-314960000D03*
D12*
X406400000Y-317500000D03*
D11*
X406400000Y-320040000D03*
X406400000Y-322580000D03*
D12*
X406400000Y-325120000D03*
D11*
X406400000Y-327660000D03*
X406400000Y-330200000D03*
X406400000Y-332740000D03*
X406400000Y-335280000D03*
X406400000Y-337820000D03*
X406400000Y-340360000D03*
X406400000Y-342900000D03*
X406400000Y-345440000D03*
D12*
X406400000Y-347980000D03*
D13*
X398780000Y-264160000D03*
X398780000Y-353060000D03*
D14*
X133350000Y-133985000D03*
X132080000Y-106680000D03*
X142875000Y-144145000D03*
X144145000Y-144145000D03*
X148590000Y-101200000D03*
X129540000Y-101200000D03*
X130810000Y-101200000D03*
X149860000Y-101200000D03*
X142240000Y-81280000D03*
X139700000Y-81280000D03*
X137160000Y-81280000D03*
X137160000Y-78740000D03*
X142240000Y-78740000D03*
X142240000Y-76200000D03*
X139700000Y-76200000D03*
X137160000Y-76200000D03*
X137160000Y-73660000D03*
X139700000Y-73660000D03*
X142240000Y-73660000D03*
X142240000Y-71120000D03*
X139700000Y-71120000D03*
X137160000Y-71120000D03*
X130810000Y-98200000D03*
X148590000Y-98200000D03*
X149919759Y-98200000D03*
X129540000Y-98200000D03*
X170815000Y-144145000D03*
X172085000Y-144145000D03*
X198755000Y-144145000D03*
X200025000Y-144145000D03*
X142875000Y-245745000D03*
X144145000Y-245745000D03*
X170815000Y-245745000D03*
X172085000Y-245745000D03*
X198755000Y-245745000D03*
X200025000Y-245745000D03*
X142875000Y-347345000D03*
X144145000Y-347345000D03*
X170815000Y-347345000D03*
X172085000Y-347345000D03*
X198755000Y-347345000D03*
X200025000Y-347345000D03*
X158750000Y-98200000D03*
X176530000Y-98200000D03*
X157480000Y-98200000D03*
X177800000Y-98200000D03*
X176530000Y-101200000D03*
X177800000Y-101200000D03*
X158750000Y-101200000D03*
X157480000Y-101200000D03*
X170180000Y-81280000D03*
X167640000Y-81280000D03*
X165100000Y-81280000D03*
X165100000Y-78740000D03*
X170180000Y-78740000D03*
X170180000Y-76200000D03*
X167640000Y-76200000D03*
X165100000Y-76200000D03*
X165100000Y-73660000D03*
X167640000Y-73660000D03*
X170180000Y-73660000D03*
X170180000Y-71120000D03*
X167640000Y-71120000D03*
X165100000Y-71120000D03*
X161290000Y-133985000D03*
X160020000Y-106680000D03*
X204470000Y-98200000D03*
X186690000Y-98200000D03*
X185420000Y-98200000D03*
X205799759Y-98200000D03*
X205740000Y-101200000D03*
X204529759Y-101200000D03*
X186690000Y-101200000D03*
X185420000Y-101200000D03*
X198120000Y-81280000D03*
X195580000Y-81280000D03*
X193040000Y-81280000D03*
X193040000Y-78740000D03*
X198120000Y-78740000D03*
X198120000Y-76200000D03*
X195580000Y-76200000D03*
X193040000Y-76200000D03*
X193040000Y-73660000D03*
X195580000Y-73660000D03*
X198120000Y-73660000D03*
X198120000Y-71120000D03*
X195580000Y-71120000D03*
X193040000Y-71120000D03*
X189230000Y-133985000D03*
X189230000Y-105410000D03*
X129540000Y-199800000D03*
X149919759Y-199800000D03*
X148590000Y-199800000D03*
X130810000Y-199800000D03*
X137160000Y-172720000D03*
X139700000Y-172720000D03*
X142240000Y-172720000D03*
X142240000Y-175260000D03*
X139700000Y-175260000D03*
X137160000Y-175260000D03*
X137160000Y-177800000D03*
X139700000Y-177800000D03*
X142240000Y-177800000D03*
X142240000Y-180340000D03*
X137160000Y-180340000D03*
X137160000Y-182880000D03*
X139700000Y-182880000D03*
X142240000Y-182880000D03*
X149860000Y-202800000D03*
X130810000Y-202800000D03*
X129540000Y-202800000D03*
X148590000Y-202800000D03*
X133350000Y-235585000D03*
X132080000Y-208280000D03*
X177800000Y-199800000D03*
X157480000Y-199800000D03*
X176530000Y-199800000D03*
X158750000Y-199800000D03*
X165100000Y-172720000D03*
X167640000Y-172720000D03*
X170180000Y-172720000D03*
X170180000Y-175260000D03*
X167640000Y-175260000D03*
X165100000Y-175260000D03*
X165100000Y-177800000D03*
X167640000Y-177800000D03*
X170180000Y-177800000D03*
X170180000Y-180340000D03*
X165100000Y-180340000D03*
X165100000Y-182880000D03*
X167640000Y-182880000D03*
X170180000Y-182880000D03*
X157480000Y-202800000D03*
X158750000Y-202800000D03*
X177800000Y-202800000D03*
X176530000Y-202800000D03*
X161290000Y-235585000D03*
X160020000Y-208280000D03*
X205799759Y-199800000D03*
X185420000Y-199800000D03*
X186690000Y-199800000D03*
X204470000Y-199800000D03*
X193040000Y-172720000D03*
X195580000Y-172720000D03*
X198120000Y-172720000D03*
X198120000Y-175260000D03*
X195580000Y-175260000D03*
X193040000Y-175260000D03*
X193040000Y-177800000D03*
X195580000Y-177800000D03*
X198120000Y-177800000D03*
X198120000Y-180340000D03*
X193040000Y-180340000D03*
X193040000Y-182880000D03*
X195580000Y-182880000D03*
X198120000Y-182880000D03*
X185420000Y-202800000D03*
X186690000Y-202800000D03*
X204529759Y-202800000D03*
X205740000Y-202800000D03*
X189230000Y-235585000D03*
X189230000Y-207010000D03*
X129540000Y-301400000D03*
X149919759Y-301400000D03*
X148590000Y-301400000D03*
X130810000Y-301400000D03*
X137160000Y-274320000D03*
X139700000Y-274320000D03*
X142240000Y-274320000D03*
X142240000Y-276860000D03*
X139700000Y-276860000D03*
X137160000Y-276860000D03*
X137160000Y-279400000D03*
X139700000Y-279400000D03*
X142240000Y-279400000D03*
X142240000Y-281940000D03*
X137160000Y-281940000D03*
X137160000Y-284480000D03*
X139700000Y-284480000D03*
X142240000Y-284480000D03*
X149860000Y-304400000D03*
X130810000Y-304400000D03*
X129540000Y-304400000D03*
X148590000Y-304400000D03*
X133350000Y-337185000D03*
X132080000Y-309880000D03*
X177800000Y-301400000D03*
X157480000Y-301400000D03*
X176530000Y-301400000D03*
X158750000Y-301400000D03*
X165100000Y-274320000D03*
X167640000Y-274320000D03*
X170180000Y-274320000D03*
X170180000Y-276860000D03*
X167640000Y-276860000D03*
X165100000Y-276860000D03*
X165100000Y-279400000D03*
X167640000Y-279400000D03*
X170180000Y-279400000D03*
X170180000Y-281940000D03*
X165100000Y-281940000D03*
X165100000Y-284480000D03*
X167640000Y-284480000D03*
X170180000Y-284480000D03*
X157480000Y-304400000D03*
X158750000Y-304400000D03*
X177800000Y-304400000D03*
X176530000Y-304400000D03*
X161290000Y-337185000D03*
X160020000Y-309880000D03*
X205799759Y-301400000D03*
X185420000Y-301400000D03*
X186690000Y-301400000D03*
X204470000Y-301400000D03*
X193040000Y-274320000D03*
X195580000Y-274320000D03*
X198120000Y-274320000D03*
X198120000Y-276860000D03*
X195580000Y-276860000D03*
X193040000Y-276860000D03*
X193040000Y-279400000D03*
X195580000Y-279400000D03*
X198120000Y-279400000D03*
X198120000Y-281940000D03*
X193040000Y-281940000D03*
X193040000Y-284480000D03*
X195580000Y-284480000D03*
X198120000Y-284480000D03*
X185420000Y-304400000D03*
X186690000Y-304400000D03*
X204529759Y-304400000D03*
X205740000Y-304400000D03*
X189230000Y-337185000D03*
X189230000Y-308610000D03*
X214630000Y-98200000D03*
X232410000Y-98200000D03*
X213360000Y-98200000D03*
X233739759Y-98200000D03*
X232410000Y-101200000D03*
X214630000Y-101200000D03*
X233680000Y-101200000D03*
X213360000Y-101200000D03*
X226060000Y-81280000D03*
X223520000Y-81280000D03*
X220980000Y-81280000D03*
X220980000Y-78740000D03*
X226060000Y-78740000D03*
X226060000Y-76200000D03*
X223520000Y-76200000D03*
X220980000Y-76200000D03*
X220980000Y-73660000D03*
X223520000Y-73660000D03*
X226060000Y-73660000D03*
X226060000Y-71120000D03*
X223520000Y-71120000D03*
X220980000Y-71120000D03*
X242570000Y-98200000D03*
X260350000Y-98200000D03*
X241300000Y-98200000D03*
X261679759Y-98200000D03*
X242570000Y-101200000D03*
X260350000Y-101200000D03*
X261620000Y-101200000D03*
X241300000Y-101200000D03*
X254000000Y-81280000D03*
X251460000Y-81280000D03*
X248920000Y-81280000D03*
X248920000Y-78740000D03*
X254000000Y-78740000D03*
X254000000Y-76200000D03*
X251460000Y-76200000D03*
X248920000Y-76200000D03*
X248920000Y-73660000D03*
X251460000Y-73660000D03*
X254000000Y-73660000D03*
X254000000Y-71120000D03*
X251460000Y-71120000D03*
X248920000Y-71120000D03*
X270510000Y-98200000D03*
X288290000Y-98200000D03*
X269240000Y-98200000D03*
X289619759Y-98200000D03*
X289560000Y-101200000D03*
X288290000Y-101200000D03*
X270510000Y-101200000D03*
X269240000Y-101200000D03*
X281940000Y-81280000D03*
X279400000Y-81280000D03*
X276860000Y-81280000D03*
X276860000Y-78740000D03*
X281940000Y-78740000D03*
X281940000Y-76200000D03*
X279400000Y-76200000D03*
X276860000Y-76200000D03*
X276860000Y-73660000D03*
X279400000Y-73660000D03*
X281940000Y-73660000D03*
X281940000Y-71120000D03*
X279400000Y-71120000D03*
X276860000Y-71120000D03*
X298450000Y-98200000D03*
X316230000Y-98200000D03*
X297180000Y-98200000D03*
X317559759Y-98200000D03*
X316230000Y-101200000D03*
X298450000Y-101200000D03*
X317559759Y-101200000D03*
X297180000Y-101200000D03*
X309880000Y-81280000D03*
X307340000Y-81280000D03*
X304800000Y-81280000D03*
X304800000Y-78740000D03*
X309880000Y-78740000D03*
X309880000Y-76200000D03*
X307340000Y-76200000D03*
X304800000Y-76200000D03*
X304800000Y-73660000D03*
X307340000Y-73660000D03*
X309880000Y-73660000D03*
X309880000Y-71120000D03*
X307340000Y-71120000D03*
X304800000Y-71120000D03*
X344170000Y-98200000D03*
X326390000Y-98200000D03*
X325120000Y-98200000D03*
X345440000Y-98200000D03*
X325120000Y-101200000D03*
X344170000Y-101200000D03*
X345440000Y-101200000D03*
X326390000Y-101200000D03*
X337820000Y-81280000D03*
X335280000Y-81280000D03*
X332740000Y-81280000D03*
X332740000Y-78740000D03*
X337820000Y-78740000D03*
X337820000Y-76200000D03*
X335280000Y-76200000D03*
X332740000Y-76200000D03*
X332740000Y-73660000D03*
X335280000Y-73660000D03*
X337820000Y-73660000D03*
X337820000Y-71120000D03*
X335280000Y-71120000D03*
X332740000Y-71120000D03*
X354330000Y-98200000D03*
X372110000Y-98200000D03*
X353060000Y-98200000D03*
X373439759Y-98200000D03*
X365760000Y-71120000D03*
X363220000Y-71120000D03*
X360680000Y-71120000D03*
X360680000Y-73660000D03*
X363220000Y-73660000D03*
X365760000Y-73660000D03*
X365760000Y-76200000D03*
X363220000Y-76200000D03*
X360680000Y-76200000D03*
X360680000Y-78740000D03*
X365760000Y-78740000D03*
X365760000Y-81280000D03*
X363220000Y-81280000D03*
X360680000Y-81280000D03*
X372110000Y-101200000D03*
X354330000Y-101200000D03*
X373439759Y-101200000D03*
X353060000Y-101200000D03*
X232410000Y-146050000D03*
X204470000Y-146050000D03*
X176530000Y-146050000D03*
X372110000Y-146050000D03*
X344170000Y-146050000D03*
X316230000Y-146050000D03*
X288290000Y-146050000D03*
X148590000Y-146050000D03*
X260350000Y-146050000D03*
X368300000Y-144780000D03*
X340360000Y-144780000D03*
X312420000Y-144780000D03*
X284480000Y-144780000D03*
X256540000Y-144780000D03*
X228600000Y-144780000D03*
X200660000Y-144780000D03*
X172720000Y-144780000D03*
X144780000Y-144780000D03*
X217170000Y-133985000D03*
X245110000Y-133985000D03*
X273050000Y-133985000D03*
X300990000Y-133985000D03*
X328930000Y-130810000D03*
X356870000Y-133350000D03*
X217170000Y-110490000D03*
X273050000Y-120650000D03*
X245110000Y-115570000D03*
X328930000Y-129540000D03*
X300990000Y-125730000D03*
X356870000Y-132080000D03*
X226695000Y-144145000D03*
X227965000Y-144145000D03*
X254635000Y-144145000D03*
X255905000Y-144145000D03*
X282575000Y-144145000D03*
X283845000Y-144145000D03*
X310515000Y-144145000D03*
X311785000Y-144145000D03*
X338455000Y-144145000D03*
X339725000Y-144145000D03*
X366395000Y-144145000D03*
X367665000Y-144145000D03*
X233739759Y-199800000D03*
X213360000Y-199800000D03*
X232410000Y-199800000D03*
X214630000Y-199800000D03*
X220980000Y-172720000D03*
X223520000Y-172720000D03*
X226060000Y-172720000D03*
X226060000Y-175260000D03*
X223520000Y-175260000D03*
X220980000Y-175260000D03*
X220980000Y-177800000D03*
X223520000Y-177800000D03*
X226060000Y-177800000D03*
X226060000Y-180340000D03*
X220980000Y-180340000D03*
X220980000Y-182880000D03*
X223520000Y-182880000D03*
X226060000Y-182880000D03*
X213360000Y-202800000D03*
X233680000Y-202800000D03*
X214630000Y-202800000D03*
X232410000Y-202800000D03*
X261679759Y-199800000D03*
X241300000Y-199800000D03*
X260350000Y-199800000D03*
X242570000Y-199800000D03*
X248920000Y-172720000D03*
X251460000Y-172720000D03*
X254000000Y-172720000D03*
X254000000Y-175260000D03*
X251460000Y-175260000D03*
X248920000Y-175260000D03*
X248920000Y-177800000D03*
X251460000Y-177800000D03*
X254000000Y-177800000D03*
X254000000Y-180340000D03*
X248920000Y-180340000D03*
X248920000Y-182880000D03*
X251460000Y-182880000D03*
X254000000Y-182880000D03*
X241300000Y-202800000D03*
X261620000Y-202800000D03*
X260350000Y-202800000D03*
X242570000Y-202800000D03*
X289619759Y-199800000D03*
X269240000Y-199800000D03*
X288290000Y-199800000D03*
X270510000Y-199800000D03*
X276860000Y-172720000D03*
X279400000Y-172720000D03*
X281940000Y-172720000D03*
X281940000Y-175260000D03*
X279400000Y-175260000D03*
X276860000Y-175260000D03*
X276860000Y-177800000D03*
X279400000Y-177800000D03*
X281940000Y-177800000D03*
X281940000Y-180340000D03*
X276860000Y-180340000D03*
X276860000Y-182880000D03*
X279400000Y-182880000D03*
X281940000Y-182880000D03*
X269240000Y-202800000D03*
X270510000Y-202800000D03*
X288290000Y-202800000D03*
X289560000Y-202800000D03*
X317559759Y-199800000D03*
X297180000Y-199800000D03*
X316230000Y-199800000D03*
X298450000Y-199800000D03*
X304800000Y-172720000D03*
X307340000Y-172720000D03*
X309880000Y-172720000D03*
X309880000Y-175260000D03*
X307340000Y-175260000D03*
X304800000Y-175260000D03*
X304800000Y-177800000D03*
X307340000Y-177800000D03*
X309880000Y-177800000D03*
X309880000Y-180340000D03*
X304800000Y-180340000D03*
X304800000Y-182880000D03*
X307340000Y-182880000D03*
X309880000Y-182880000D03*
X297180000Y-202800000D03*
X317559759Y-202800000D03*
X298450000Y-202800000D03*
X316230000Y-202800000D03*
X345440000Y-199800000D03*
X325120000Y-199800000D03*
X326390000Y-199800000D03*
X344170000Y-199800000D03*
X332740000Y-172720000D03*
X335280000Y-172720000D03*
X337820000Y-172720000D03*
X337820000Y-175260000D03*
X335280000Y-175260000D03*
X332740000Y-175260000D03*
X332740000Y-177800000D03*
X335280000Y-177800000D03*
X337820000Y-177800000D03*
X337820000Y-180340000D03*
X332740000Y-180340000D03*
X332740000Y-182880000D03*
X335280000Y-182880000D03*
X337820000Y-182880000D03*
X326390000Y-202800000D03*
X345440000Y-202800000D03*
X344170000Y-202800000D03*
X325120000Y-202800000D03*
X373439759Y-199800000D03*
X353060000Y-199800000D03*
X372110000Y-199800000D03*
X354330000Y-199800000D03*
X353060000Y-202800000D03*
X373439759Y-202800000D03*
X354330000Y-202800000D03*
X372110000Y-202800000D03*
X360680000Y-182880000D03*
X363220000Y-182880000D03*
X365760000Y-182880000D03*
X365760000Y-180340000D03*
X360680000Y-180340000D03*
X360680000Y-177800000D03*
X363220000Y-177800000D03*
X365760000Y-177800000D03*
X365760000Y-175260000D03*
X363220000Y-175260000D03*
X360680000Y-175260000D03*
X360680000Y-172720000D03*
X363220000Y-172720000D03*
X365760000Y-172720000D03*
X260350000Y-247650000D03*
X148590000Y-247650000D03*
X288290000Y-247650000D03*
X316230000Y-247650000D03*
X344170000Y-247650000D03*
X372110000Y-247650000D03*
X176530000Y-247650000D03*
X204470000Y-247650000D03*
X232410000Y-247650000D03*
X144780000Y-246380000D03*
X172720000Y-246380000D03*
X200660000Y-246380000D03*
X228600000Y-246380000D03*
X256540000Y-246380000D03*
X284480000Y-246380000D03*
X312420000Y-246380000D03*
X340360000Y-246380000D03*
X368300000Y-246380000D03*
X217170000Y-235585000D03*
X245110000Y-235585000D03*
X273050000Y-235585000D03*
X300990000Y-235585000D03*
X328930000Y-232410000D03*
X356870000Y-234950000D03*
X217170000Y-212090000D03*
X273050000Y-222250000D03*
X245110000Y-217170000D03*
X328930000Y-231140000D03*
X300990000Y-227330000D03*
X356870000Y-233680000D03*
X226695000Y-245745000D03*
X227965000Y-245745000D03*
X254635000Y-245745000D03*
X255905000Y-245745000D03*
X282575000Y-245745000D03*
X283845000Y-245745000D03*
X310515000Y-245745000D03*
X311785000Y-245745000D03*
X338455000Y-245745000D03*
X339725000Y-245745000D03*
X366395000Y-245745000D03*
X367665000Y-245745000D03*
X233739759Y-301400000D03*
X213360000Y-301400000D03*
X232410000Y-301400000D03*
X214630000Y-301400000D03*
X220980000Y-274320000D03*
X223520000Y-274320000D03*
X226060000Y-274320000D03*
X226060000Y-276860000D03*
X223520000Y-276860000D03*
X220980000Y-276860000D03*
X220980000Y-279400000D03*
X223520000Y-279400000D03*
X226060000Y-279400000D03*
X226060000Y-281940000D03*
X220980000Y-281940000D03*
X220980000Y-284480000D03*
X223520000Y-284480000D03*
X226060000Y-284480000D03*
X213360000Y-304400000D03*
X233680000Y-304400000D03*
X214630000Y-304400000D03*
X232410000Y-304400000D03*
X261679759Y-301400000D03*
X241300000Y-301400000D03*
X260350000Y-301400000D03*
X242570000Y-301400000D03*
X248920000Y-274320000D03*
X251460000Y-274320000D03*
X254000000Y-274320000D03*
X254000000Y-276860000D03*
X251460000Y-276860000D03*
X248920000Y-276860000D03*
X248920000Y-279400000D03*
X251460000Y-279400000D03*
X254000000Y-279400000D03*
X254000000Y-281940000D03*
X248920000Y-281940000D03*
X248920000Y-284480000D03*
X251460000Y-284480000D03*
X254000000Y-284480000D03*
X241300000Y-304400000D03*
X261620000Y-304400000D03*
X260350000Y-304400000D03*
X242570000Y-304400000D03*
X289619759Y-301400000D03*
X269240000Y-301400000D03*
X288290000Y-301400000D03*
X270510000Y-301400000D03*
X276860000Y-274320000D03*
X279400000Y-274320000D03*
X281940000Y-274320000D03*
X281940000Y-276860000D03*
X279400000Y-276860000D03*
X276860000Y-276860000D03*
X276860000Y-279400000D03*
X279400000Y-279400000D03*
X281940000Y-279400000D03*
X281940000Y-281940000D03*
X276860000Y-281940000D03*
X276860000Y-284480000D03*
X279400000Y-284480000D03*
X281940000Y-284480000D03*
X269240000Y-304400000D03*
X270510000Y-304400000D03*
X288290000Y-304400000D03*
X289560000Y-304400000D03*
X317559759Y-301400000D03*
X297180000Y-301400000D03*
X316230000Y-301400000D03*
X298450000Y-301400000D03*
X304800000Y-274320000D03*
X307340000Y-274320000D03*
X309880000Y-274320000D03*
X309880000Y-276860000D03*
X307340000Y-276860000D03*
X304800000Y-276860000D03*
X304800000Y-279400000D03*
X307340000Y-279400000D03*
X309880000Y-279400000D03*
X309880000Y-281940000D03*
X304800000Y-281940000D03*
X304800000Y-284480000D03*
X307340000Y-284480000D03*
X309880000Y-284480000D03*
X297180000Y-304400000D03*
X317559759Y-304400000D03*
X298450000Y-304400000D03*
X316230000Y-304400000D03*
X345440000Y-301400000D03*
X325120000Y-301400000D03*
X326390000Y-301400000D03*
X344170000Y-301400000D03*
X332740000Y-274320000D03*
X335280000Y-274320000D03*
X337820000Y-274320000D03*
X337820000Y-276860000D03*
X335280000Y-276860000D03*
X332740000Y-276860000D03*
X332740000Y-279400000D03*
X335280000Y-279400000D03*
X337820000Y-279400000D03*
X337820000Y-281940000D03*
X332740000Y-281940000D03*
X332740000Y-284480000D03*
X335280000Y-284480000D03*
X337820000Y-284480000D03*
X326390000Y-304400000D03*
X345440000Y-304400000D03*
X344170000Y-304400000D03*
X325120000Y-304400000D03*
X373439759Y-301400000D03*
X353060000Y-301400000D03*
X372110000Y-301400000D03*
X354330000Y-301400000D03*
X353060000Y-304400000D03*
X373439759Y-304400000D03*
X354330000Y-304400000D03*
X372110000Y-304400000D03*
X360680000Y-284480000D03*
X363220000Y-284480000D03*
X365760000Y-284480000D03*
X365760000Y-281940000D03*
X360680000Y-281940000D03*
X360680000Y-279400000D03*
X363220000Y-279400000D03*
X365760000Y-279400000D03*
X365760000Y-276860000D03*
X363220000Y-276860000D03*
X360680000Y-276860000D03*
X360680000Y-274320000D03*
X363220000Y-274320000D03*
X365760000Y-274320000D03*
X260350000Y-349250000D03*
X148590000Y-349250000D03*
X288290000Y-349250000D03*
X316230000Y-349250000D03*
X344170000Y-349250000D03*
X372110000Y-349250000D03*
X176530000Y-349250000D03*
X204470000Y-349250000D03*
X232410000Y-349250000D03*
X144780000Y-347980000D03*
X172720000Y-347980000D03*
X200660000Y-347980000D03*
X228600000Y-347980000D03*
X256540000Y-347980000D03*
X284480000Y-347980000D03*
X312420000Y-347980000D03*
X340360000Y-347980000D03*
X368300000Y-347980000D03*
X217170000Y-337185000D03*
X245110000Y-337185000D03*
X273050000Y-337185000D03*
X300990000Y-337185000D03*
X328930000Y-334010000D03*
X356870000Y-336550000D03*
X217170000Y-313690000D03*
X273050000Y-323850000D03*
X245110000Y-318770000D03*
X328930000Y-332740000D03*
X300990000Y-328930000D03*
X356870000Y-335280000D03*
X226695000Y-347345000D03*
X227965000Y-347345000D03*
X254635000Y-347345000D03*
X255905000Y-347345000D03*
X282575000Y-347345000D03*
X283845000Y-347345000D03*
X310515000Y-347345000D03*
X311785000Y-347345000D03*
X338455000Y-347345000D03*
X339725000Y-347345000D03*
X366395000Y-347345000D03*
X367665000Y-347345000D03*
X139065000Y-83185000D03*
X167005000Y-83185000D03*
X194945000Y-83185000D03*
X222885000Y-83185000D03*
X250825000Y-83185000D03*
X278765000Y-83185000D03*
X306705000Y-83185000D03*
X334645000Y-83185000D03*
X362585000Y-83185000D03*
X148590000Y-83185000D03*
X176530000Y-83185000D03*
X204470000Y-83185000D03*
X232410000Y-83185000D03*
X260350000Y-83185000D03*
X288290000Y-83185000D03*
X316230000Y-83185000D03*
X344170000Y-83185000D03*
X372110000Y-83185000D03*
X372110000Y-184785000D03*
X344170000Y-184785000D03*
X316230000Y-184785000D03*
X288290000Y-184785000D03*
X260350000Y-184785000D03*
X232410000Y-184785000D03*
X204470000Y-184785000D03*
X176530000Y-184785000D03*
X148590000Y-184785000D03*
X362585000Y-184785000D03*
X334645000Y-184785000D03*
X306705000Y-184785000D03*
X278765000Y-184785000D03*
X250825000Y-184785000D03*
X222885000Y-184785000D03*
X194945000Y-184785000D03*
X167005000Y-184785000D03*
X139065000Y-184785000D03*
X372110000Y-286385000D03*
X344170000Y-286385000D03*
X316230000Y-286385000D03*
X288290000Y-286385000D03*
X260350000Y-286385000D03*
X232410000Y-286385000D03*
X204470000Y-286385000D03*
X176530000Y-286385000D03*
X148590000Y-286385000D03*
X362585000Y-286385000D03*
X334645000Y-286385000D03*
X306705000Y-286385000D03*
X278765000Y-286385000D03*
X250825000Y-286385000D03*
X222885000Y-286385000D03*
X194945000Y-286385000D03*
X167005000Y-286385000D03*
X139065000Y-286385000D03*
D15*
X148590000Y-101200000D02*
X129540000Y-101200000D01*
X149860000Y-101200000D02*
X148590000Y-101200000D01*
X149860000Y-148590000D02*
X150033001Y-148416999D01*
X150033001Y-148416999D02*
X150033001Y-147146999D01*
X154940000Y-153670000D02*
X149860000Y-148590000D01*
X374650000Y-153670000D02*
X154940000Y-153670000D01*
X149860000Y-101200000D02*
X149860000Y-145184358D01*
X149860000Y-145184358D02*
X150033001Y-145357359D01*
X150033001Y-145357359D02*
X150033001Y-147146999D01*
X386080000Y-142240000D02*
X374650000Y-153670000D01*
X401320000Y-142240000D02*
X386080000Y-142240000D01*
X130810000Y-101200000D02*
X129540000Y-101200000D01*
D16*
X139700000Y-73660000D02*
X137160000Y-73660000D01*
X137160000Y-71120000D02*
X139700000Y-71120000D01*
X142240000Y-71120000D02*
X142240000Y-73660000D01*
X142240000Y-76200000D02*
X142240000Y-73660000D01*
X137160000Y-81280000D02*
X139700000Y-81280000D01*
X142240000Y-81280000D02*
X142240000Y-78740000D01*
X137160000Y-76200000D02*
X139700000Y-76200000D01*
X137160000Y-81280000D02*
X137160000Y-78740000D01*
X137160000Y-95250000D02*
X137160000Y-81280000D01*
X129436699Y-95250000D02*
X137160000Y-95250000D01*
X127380990Y-97305709D02*
X129436699Y-95250000D01*
X127380990Y-99094291D02*
X127380990Y-97305709D01*
X129186700Y-100900001D02*
X127380990Y-99094291D01*
D15*
X401320000Y-139700000D02*
X384810000Y-139700000D01*
X384810000Y-139700000D02*
X373380000Y-151130000D01*
X151540000Y-98200000D02*
X150092760Y-98200000D01*
X373380000Y-151130000D02*
X156210000Y-151130000D01*
X156210000Y-151130000D02*
X153670000Y-148590000D01*
X153670000Y-148590000D02*
X153670000Y-100330000D01*
X153670000Y-100330000D02*
X151540000Y-98200000D01*
X130810000Y-98200000D02*
X148590000Y-98200000D01*
X129540000Y-98200000D02*
X130810000Y-98200000D01*
X148590000Y-98200000D02*
X149919759Y-98200000D01*
X184150000Y-144606999D02*
X183976999Y-144606999D01*
X183976999Y-144606999D02*
X181610000Y-142240000D01*
X181610000Y-142240000D02*
X181610000Y-100330000D01*
X179480000Y-98200000D02*
X178032760Y-98200000D01*
X181610000Y-100330000D02*
X179480000Y-98200000D01*
X192866999Y-144606999D02*
X184150000Y-144606999D01*
X176530000Y-98200000D02*
X157480000Y-98200000D01*
X201352641Y-146223001D02*
X194483001Y-146223001D01*
X229292641Y-146223001D02*
X222423001Y-146223001D01*
X257232641Y-146223001D02*
X250363001Y-146223001D01*
X285172641Y-146223001D02*
X278303001Y-146223001D01*
X313112641Y-146223001D02*
X306243001Y-146223001D01*
X341052641Y-146223001D02*
X334183001Y-146223001D01*
X220806999Y-144606999D02*
X202968643Y-144606999D01*
X248746999Y-144606999D02*
X230908643Y-144606999D01*
X276686999Y-144606999D02*
X258848643Y-144606999D01*
X304626999Y-144606999D02*
X286788643Y-144606999D01*
X332566999Y-144606999D02*
X314728643Y-144606999D01*
X194483001Y-146223001D02*
X192866999Y-144606999D01*
X222423001Y-146223001D02*
X220806999Y-144606999D01*
X250363001Y-146223001D02*
X248746999Y-144606999D01*
X278303001Y-146223001D02*
X276686999Y-144606999D01*
X306243001Y-146223001D02*
X304626999Y-144606999D01*
X334183001Y-146223001D02*
X332566999Y-144606999D01*
X401320000Y-134620000D02*
X382270000Y-134620000D01*
X382270000Y-134620000D02*
X372283001Y-144606999D01*
X372283001Y-144606999D02*
X370608643Y-144606999D01*
X370608643Y-144606999D02*
X368992641Y-146223001D01*
X342668643Y-144606999D02*
X341052641Y-146223001D01*
X368992641Y-146223001D02*
X362123001Y-146223001D01*
X362123001Y-146223001D02*
X360506999Y-144606999D01*
X360506999Y-144606999D02*
X342668643Y-144606999D01*
X341052641Y-146223001D02*
X339263001Y-146223001D01*
X201352641Y-146223001D02*
X199563001Y-146223001D01*
X229292641Y-146223001D02*
X227503001Y-146223001D01*
X257232641Y-146223001D02*
X255443001Y-146223001D01*
X285172641Y-146223001D02*
X283383001Y-146223001D01*
X313112641Y-146223001D02*
X311323001Y-146223001D01*
X202968643Y-144606999D02*
X201352641Y-146223001D01*
X230908643Y-144606999D02*
X229292641Y-146223001D01*
X258848643Y-144606999D02*
X257232641Y-146223001D01*
X286788643Y-144606999D02*
X285172641Y-146223001D01*
X314728643Y-144606999D02*
X313112641Y-146223001D01*
X204643001Y-144606999D02*
X202968643Y-144606999D01*
X232583001Y-144606999D02*
X230908643Y-144606999D01*
X260523001Y-144606999D02*
X258848643Y-144606999D01*
X288463001Y-144606999D02*
X286788643Y-144606999D01*
X316403001Y-144606999D02*
X314728643Y-144606999D01*
X157480000Y-98200000D02*
X158750000Y-98200000D01*
X176530000Y-98200000D02*
X177859759Y-98200000D01*
X401320000Y-137160000D02*
X383540000Y-137160000D01*
X383540000Y-137160000D02*
X372110000Y-148590000D01*
X372110000Y-148590000D02*
X182880000Y-148590000D01*
X182880000Y-148590000D02*
X177800000Y-143510000D01*
X177800000Y-143510000D02*
X177800000Y-101200000D01*
X177800000Y-101200000D02*
X157480000Y-101200000D01*
X158750000Y-101200000D02*
X157480000Y-101200000D01*
D16*
X167640000Y-73660000D02*
X165100000Y-73660000D01*
X165100000Y-71120000D02*
X167640000Y-71120000D01*
X170180000Y-71120000D02*
X170180000Y-73660000D01*
X170180000Y-76200000D02*
X170180000Y-73660000D01*
X165100000Y-81280000D02*
X167640000Y-81280000D01*
X170180000Y-81280000D02*
X170180000Y-78740000D01*
X165100000Y-76200000D02*
X167640000Y-76200000D01*
X165100000Y-81280000D02*
X165100000Y-78740000D01*
X165100000Y-95250000D02*
X165100000Y-81280000D01*
X157376699Y-95250000D02*
X165100000Y-95250000D01*
X155320990Y-97305709D02*
X157376699Y-95250000D01*
X155320990Y-99094291D02*
X155320990Y-97305709D01*
X157126700Y-100900001D02*
X155320990Y-99094291D01*
D15*
X401320000Y-129540000D02*
X379730000Y-129540000D01*
X379730000Y-129540000D02*
X369570000Y-139700000D01*
X369570000Y-139700000D02*
X212090000Y-139700000D01*
X212090000Y-139700000D02*
X209550000Y-137160000D01*
X209550000Y-137160000D02*
X209550000Y-100330000D01*
X209550000Y-100330000D02*
X207420000Y-98200000D01*
X207420000Y-98200000D02*
X205972760Y-98200000D01*
X185420000Y-98200000D02*
X205972760Y-98200000D01*
X205972760Y-98200000D02*
X205799759Y-98200000D01*
X205740000Y-101200000D02*
X205740000Y-138430000D01*
X205740000Y-138430000D02*
X209550000Y-142240000D01*
X209550000Y-142240000D02*
X370840000Y-142240000D01*
X381000000Y-132080000D02*
X401320000Y-132080000D01*
X370840000Y-142240000D02*
X381000000Y-132080000D01*
X205740000Y-101200000D02*
X185420000Y-101200000D01*
X186690000Y-101200000D02*
X185420000Y-101200000D01*
D16*
X195580000Y-73660000D02*
X193040000Y-73660000D01*
X193040000Y-71120000D02*
X195580000Y-71120000D01*
X198120000Y-71120000D02*
X198120000Y-73660000D01*
X198120000Y-76200000D02*
X198120000Y-73660000D01*
X193040000Y-81280000D02*
X195580000Y-81280000D01*
X198120000Y-81280000D02*
X198120000Y-78740000D01*
X193040000Y-76200000D02*
X195580000Y-76200000D01*
X193040000Y-81280000D02*
X193040000Y-78740000D01*
X193040000Y-95250000D02*
X193040000Y-81280000D01*
X185316699Y-95250000D02*
X193040000Y-95250000D01*
X183260990Y-97305709D02*
X185316699Y-95250000D01*
X183260990Y-99094291D02*
X183260990Y-97305709D01*
X185066700Y-100900001D02*
X183260990Y-99094291D01*
D15*
X148590000Y-199800000D02*
X149919759Y-199800000D01*
X129540000Y-199800000D02*
X130810000Y-199800000D01*
X130810000Y-199800000D02*
X148590000Y-199800000D01*
X153670000Y-201930000D02*
X151540000Y-199800000D01*
X153670000Y-250190000D02*
X153670000Y-201930000D01*
X156210000Y-252730000D02*
X153670000Y-250190000D01*
X373380000Y-252730000D02*
X156210000Y-252730000D01*
X151540000Y-199800000D02*
X150092760Y-199800000D01*
X384810000Y-241300000D02*
X373380000Y-252730000D01*
X401320000Y-241300000D02*
X384810000Y-241300000D01*
D16*
X129186700Y-202500001D02*
X127380990Y-200694291D01*
X127380990Y-200694291D02*
X127380990Y-198905709D01*
X127380990Y-198905709D02*
X129436699Y-196850000D01*
X129436699Y-196850000D02*
X137160000Y-196850000D01*
X137160000Y-196850000D02*
X137160000Y-182880000D01*
X137160000Y-182880000D02*
X137160000Y-180340000D01*
X137160000Y-177800000D02*
X139700000Y-177800000D01*
X142240000Y-182880000D02*
X142240000Y-180340000D01*
X137160000Y-182880000D02*
X139700000Y-182880000D01*
X142240000Y-177800000D02*
X142240000Y-175260000D01*
X142240000Y-172720000D02*
X142240000Y-175260000D01*
X137160000Y-172720000D02*
X139700000Y-172720000D01*
X139700000Y-175260000D02*
X137160000Y-175260000D01*
D15*
X130810000Y-202800000D02*
X129540000Y-202800000D01*
X401320000Y-243840000D02*
X386080000Y-243840000D01*
X386080000Y-243840000D02*
X374650000Y-255270000D01*
X150033001Y-246957359D02*
X150033001Y-248746999D01*
X149860000Y-246784358D02*
X150033001Y-246957359D01*
X149860000Y-202800000D02*
X149860000Y-246784358D01*
X374650000Y-255270000D02*
X154940000Y-255270000D01*
X154940000Y-255270000D02*
X149860000Y-250190000D01*
X150033001Y-250016999D02*
X150033001Y-248746999D01*
X149860000Y-250190000D02*
X150033001Y-250016999D01*
X149860000Y-202800000D02*
X148590000Y-202800000D01*
X148590000Y-202800000D02*
X129540000Y-202800000D01*
X176530000Y-199800000D02*
X177859759Y-199800000D01*
X157480000Y-199800000D02*
X158750000Y-199800000D01*
X316403001Y-246206999D02*
X314728643Y-246206999D01*
X288463001Y-246206999D02*
X286788643Y-246206999D01*
X260523001Y-246206999D02*
X258848643Y-246206999D01*
X232583001Y-246206999D02*
X230908643Y-246206999D01*
X204643001Y-246206999D02*
X202968643Y-246206999D01*
X314728643Y-246206999D02*
X313112641Y-247823001D01*
X286788643Y-246206999D02*
X285172641Y-247823001D01*
X258848643Y-246206999D02*
X257232641Y-247823001D01*
X230908643Y-246206999D02*
X229292641Y-247823001D01*
X202968643Y-246206999D02*
X201352641Y-247823001D01*
X313112641Y-247823001D02*
X311323001Y-247823001D01*
X285172641Y-247823001D02*
X283383001Y-247823001D01*
X257232641Y-247823001D02*
X255443001Y-247823001D01*
X229292641Y-247823001D02*
X227503001Y-247823001D01*
X201352641Y-247823001D02*
X199563001Y-247823001D01*
X341052641Y-247823001D02*
X339263001Y-247823001D01*
X360506999Y-246206999D02*
X342668643Y-246206999D01*
X362123001Y-247823001D02*
X360506999Y-246206999D01*
X368992641Y-247823001D02*
X362123001Y-247823001D01*
X342668643Y-246206999D02*
X341052641Y-247823001D01*
X370608643Y-246206999D02*
X368992641Y-247823001D01*
X372283001Y-246206999D02*
X370608643Y-246206999D01*
X382270000Y-236220000D02*
X372283001Y-246206999D01*
X401320000Y-236220000D02*
X382270000Y-236220000D01*
X334183001Y-247823001D02*
X332566999Y-246206999D01*
X306243001Y-247823001D02*
X304626999Y-246206999D01*
X278303001Y-247823001D02*
X276686999Y-246206999D01*
X250363001Y-247823001D02*
X248746999Y-246206999D01*
X222423001Y-247823001D02*
X220806999Y-246206999D01*
X194483001Y-247823001D02*
X192866999Y-246206999D01*
X332566999Y-246206999D02*
X314728643Y-246206999D01*
X304626999Y-246206999D02*
X286788643Y-246206999D01*
X276686999Y-246206999D02*
X258848643Y-246206999D01*
X248746999Y-246206999D02*
X230908643Y-246206999D01*
X220806999Y-246206999D02*
X202968643Y-246206999D01*
X341052641Y-247823001D02*
X334183001Y-247823001D01*
X313112641Y-247823001D02*
X306243001Y-247823001D01*
X285172641Y-247823001D02*
X278303001Y-247823001D01*
X257232641Y-247823001D02*
X250363001Y-247823001D01*
X229292641Y-247823001D02*
X222423001Y-247823001D01*
X201352641Y-247823001D02*
X194483001Y-247823001D01*
X176530000Y-199800000D02*
X157480000Y-199800000D01*
X192866999Y-246206999D02*
X184150000Y-246206999D01*
X181610000Y-201930000D02*
X179480000Y-199800000D01*
X179480000Y-199800000D02*
X178032760Y-199800000D01*
X181610000Y-243840000D02*
X181610000Y-201930000D01*
X183976999Y-246206999D02*
X181610000Y-243840000D01*
X184150000Y-246206999D02*
X183976999Y-246206999D01*
D16*
X157126700Y-202500001D02*
X155320990Y-200694291D01*
X155320990Y-200694291D02*
X155320990Y-198905709D01*
X155320990Y-198905709D02*
X157376699Y-196850000D01*
X157376699Y-196850000D02*
X165100000Y-196850000D01*
X165100000Y-196850000D02*
X165100000Y-182880000D01*
X165100000Y-182880000D02*
X165100000Y-180340000D01*
X165100000Y-177800000D02*
X167640000Y-177800000D01*
X170180000Y-182880000D02*
X170180000Y-180340000D01*
X165100000Y-182880000D02*
X167640000Y-182880000D01*
X170180000Y-177800000D02*
X170180000Y-175260000D01*
X170180000Y-172720000D02*
X170180000Y-175260000D01*
X165100000Y-172720000D02*
X167640000Y-172720000D01*
X167640000Y-175260000D02*
X165100000Y-175260000D01*
D15*
X158750000Y-202800000D02*
X157480000Y-202800000D01*
X177800000Y-202800000D02*
X157480000Y-202800000D01*
X177800000Y-245110000D02*
X177800000Y-202800000D01*
X182880000Y-250190000D02*
X177800000Y-245110000D01*
X372110000Y-250190000D02*
X182880000Y-250190000D01*
X383540000Y-238760000D02*
X372110000Y-250190000D01*
X401320000Y-238760000D02*
X383540000Y-238760000D01*
X205972760Y-199800000D02*
X205799759Y-199800000D01*
X185420000Y-199800000D02*
X205972760Y-199800000D01*
X207420000Y-199800000D02*
X205972760Y-199800000D01*
X209550000Y-201930000D02*
X207420000Y-199800000D01*
X209550000Y-238760000D02*
X209550000Y-201930000D01*
X212090000Y-241300000D02*
X209550000Y-238760000D01*
X369570000Y-241300000D02*
X212090000Y-241300000D01*
X379730000Y-231140000D02*
X369570000Y-241300000D01*
X401320000Y-231140000D02*
X379730000Y-231140000D01*
D16*
X185066700Y-202500001D02*
X183260990Y-200694291D01*
X183260990Y-200694291D02*
X183260990Y-198905709D01*
X183260990Y-198905709D02*
X185316699Y-196850000D01*
X185316699Y-196850000D02*
X193040000Y-196850000D01*
X193040000Y-196850000D02*
X193040000Y-182880000D01*
X193040000Y-182880000D02*
X193040000Y-180340000D01*
X193040000Y-177800000D02*
X195580000Y-177800000D01*
X198120000Y-182880000D02*
X198120000Y-180340000D01*
X193040000Y-182880000D02*
X195580000Y-182880000D01*
X198120000Y-177800000D02*
X198120000Y-175260000D01*
X198120000Y-172720000D02*
X198120000Y-175260000D01*
X193040000Y-172720000D02*
X195580000Y-172720000D01*
X195580000Y-175260000D02*
X193040000Y-175260000D01*
D15*
X186690000Y-202800000D02*
X185420000Y-202800000D01*
X205740000Y-202800000D02*
X185420000Y-202800000D01*
X370840000Y-243840000D02*
X381000000Y-233680000D01*
X381000000Y-233680000D02*
X401320000Y-233680000D01*
X209550000Y-243840000D02*
X370840000Y-243840000D01*
X205740000Y-240030000D02*
X209550000Y-243840000D01*
X205740000Y-202800000D02*
X205740000Y-240030000D01*
X148590000Y-301400000D02*
X149919759Y-301400000D01*
X129540000Y-301400000D02*
X130810000Y-301400000D01*
X130810000Y-301400000D02*
X148590000Y-301400000D01*
X153670000Y-303530000D02*
X151540000Y-301400000D01*
X153670000Y-351790000D02*
X153670000Y-303530000D01*
X156210000Y-354330000D02*
X153670000Y-351790000D01*
X373380000Y-354330000D02*
X156210000Y-354330000D01*
X151540000Y-301400000D02*
X150092760Y-301400000D01*
X384810000Y-342900000D02*
X373380000Y-354330000D01*
X401320000Y-342900000D02*
X384810000Y-342900000D01*
D16*
X129186700Y-304100001D02*
X127380990Y-302294291D01*
X127380990Y-302294291D02*
X127380990Y-300505709D01*
X127380990Y-300505709D02*
X129436699Y-298450000D01*
X129436699Y-298450000D02*
X137160000Y-298450000D01*
X137160000Y-298450000D02*
X137160000Y-284480000D01*
X137160000Y-284480000D02*
X137160000Y-281940000D01*
X137160000Y-279400000D02*
X139700000Y-279400000D01*
X142240000Y-284480000D02*
X142240000Y-281940000D01*
X137160000Y-284480000D02*
X139700000Y-284480000D01*
X142240000Y-279400000D02*
X142240000Y-276860000D01*
X142240000Y-274320000D02*
X142240000Y-276860000D01*
X137160000Y-274320000D02*
X139700000Y-274320000D01*
X139700000Y-276860000D02*
X137160000Y-276860000D01*
D15*
X130810000Y-304400000D02*
X129540000Y-304400000D01*
X401320000Y-345440000D02*
X386080000Y-345440000D01*
X386080000Y-345440000D02*
X374650000Y-356870000D01*
X150033001Y-348557359D02*
X150033001Y-350346999D01*
X149860000Y-348384358D02*
X150033001Y-348557359D01*
X149860000Y-304400000D02*
X149860000Y-348384358D01*
X374650000Y-356870000D02*
X154940000Y-356870000D01*
X154940000Y-356870000D02*
X149860000Y-351790000D01*
X150033001Y-351616999D02*
X150033001Y-350346999D01*
X149860000Y-351790000D02*
X150033001Y-351616999D01*
X149860000Y-304400000D02*
X148590000Y-304400000D01*
X148590000Y-304400000D02*
X129540000Y-304400000D01*
X176530000Y-301400000D02*
X177859759Y-301400000D01*
X157480000Y-301400000D02*
X158750000Y-301400000D01*
X316403001Y-347806999D02*
X314728643Y-347806999D01*
X288463001Y-347806999D02*
X286788643Y-347806999D01*
X260523001Y-347806999D02*
X258848643Y-347806999D01*
X232583001Y-347806999D02*
X230908643Y-347806999D01*
X204643001Y-347806999D02*
X202968643Y-347806999D01*
X314728643Y-347806999D02*
X313112641Y-349423001D01*
X286788643Y-347806999D02*
X285172641Y-349423001D01*
X258848643Y-347806999D02*
X257232641Y-349423001D01*
X230908643Y-347806999D02*
X229292641Y-349423001D01*
X202968643Y-347806999D02*
X201352641Y-349423001D01*
X313112641Y-349423001D02*
X311323001Y-349423001D01*
X285172641Y-349423001D02*
X283383001Y-349423001D01*
X257232641Y-349423001D02*
X255443001Y-349423001D01*
X229292641Y-349423001D02*
X227503001Y-349423001D01*
X201352641Y-349423001D02*
X199563001Y-349423001D01*
X341052641Y-349423001D02*
X339263001Y-349423001D01*
X360506999Y-347806999D02*
X342668643Y-347806999D01*
X362123001Y-349423001D02*
X360506999Y-347806999D01*
X368992641Y-349423001D02*
X362123001Y-349423001D01*
X342668643Y-347806999D02*
X341052641Y-349423001D01*
X370608643Y-347806999D02*
X368992641Y-349423001D01*
X372283001Y-347806999D02*
X370608643Y-347806999D01*
X382270000Y-337820000D02*
X372283001Y-347806999D01*
X401320000Y-337820000D02*
X382270000Y-337820000D01*
X334183001Y-349423001D02*
X332566999Y-347806999D01*
X306243001Y-349423001D02*
X304626999Y-347806999D01*
X278303001Y-349423001D02*
X276686999Y-347806999D01*
X250363001Y-349423001D02*
X248746999Y-347806999D01*
X222423001Y-349423001D02*
X220806999Y-347806999D01*
X194483001Y-349423001D02*
X192866999Y-347806999D01*
X332566999Y-347806999D02*
X314728643Y-347806999D01*
X304626999Y-347806999D02*
X286788643Y-347806999D01*
X276686999Y-347806999D02*
X258848643Y-347806999D01*
X248746999Y-347806999D02*
X230908643Y-347806999D01*
X220806999Y-347806999D02*
X202968643Y-347806999D01*
X341052641Y-349423001D02*
X334183001Y-349423001D01*
X313112641Y-349423001D02*
X306243001Y-349423001D01*
X285172641Y-349423001D02*
X278303001Y-349423001D01*
X257232641Y-349423001D02*
X250363001Y-349423001D01*
X229292641Y-349423001D02*
X222423001Y-349423001D01*
X201352641Y-349423001D02*
X194483001Y-349423001D01*
X176530000Y-301400000D02*
X157480000Y-301400000D01*
X192866999Y-347806999D02*
X184150000Y-347806999D01*
X181610000Y-303530000D02*
X179480000Y-301400000D01*
X179480000Y-301400000D02*
X178032760Y-301400000D01*
X181610000Y-345440000D02*
X181610000Y-303530000D01*
X183976999Y-347806999D02*
X181610000Y-345440000D01*
X184150000Y-347806999D02*
X183976999Y-347806999D01*
D16*
X157126700Y-304100001D02*
X155320990Y-302294291D01*
X155320990Y-302294291D02*
X155320990Y-300505709D01*
X155320990Y-300505709D02*
X157376699Y-298450000D01*
X157376699Y-298450000D02*
X165100000Y-298450000D01*
X165100000Y-298450000D02*
X165100000Y-284480000D01*
X165100000Y-284480000D02*
X165100000Y-281940000D01*
X165100000Y-279400000D02*
X167640000Y-279400000D01*
X170180000Y-284480000D02*
X170180000Y-281940000D01*
X165100000Y-284480000D02*
X167640000Y-284480000D01*
X170180000Y-279400000D02*
X170180000Y-276860000D01*
X170180000Y-274320000D02*
X170180000Y-276860000D01*
X165100000Y-274320000D02*
X167640000Y-274320000D01*
X167640000Y-276860000D02*
X165100000Y-276860000D01*
D15*
X158750000Y-304400000D02*
X157480000Y-304400000D01*
X177800000Y-304400000D02*
X157480000Y-304400000D01*
X177800000Y-346710000D02*
X177800000Y-304400000D01*
X182880000Y-351790000D02*
X177800000Y-346710000D01*
X372110000Y-351790000D02*
X182880000Y-351790000D01*
X383540000Y-340360000D02*
X372110000Y-351790000D01*
X401320000Y-340360000D02*
X383540000Y-340360000D01*
X205972760Y-301400000D02*
X205799759Y-301400000D01*
X185420000Y-301400000D02*
X205972760Y-301400000D01*
X207420000Y-301400000D02*
X205972760Y-301400000D01*
X209550000Y-303530000D02*
X207420000Y-301400000D01*
X209550000Y-340360000D02*
X209550000Y-303530000D01*
X212090000Y-342900000D02*
X209550000Y-340360000D01*
X369570000Y-342900000D02*
X212090000Y-342900000D01*
X379730000Y-332740000D02*
X369570000Y-342900000D01*
X401320000Y-332740000D02*
X379730000Y-332740000D01*
D16*
X185066700Y-304100001D02*
X183260990Y-302294291D01*
X183260990Y-302294291D02*
X183260990Y-300505709D01*
X183260990Y-300505709D02*
X185316699Y-298450000D01*
X185316699Y-298450000D02*
X193040000Y-298450000D01*
X193040000Y-298450000D02*
X193040000Y-284480000D01*
X193040000Y-284480000D02*
X193040000Y-281940000D01*
X193040000Y-279400000D02*
X195580000Y-279400000D01*
X198120000Y-284480000D02*
X198120000Y-281940000D01*
X193040000Y-284480000D02*
X195580000Y-284480000D01*
X198120000Y-279400000D02*
X198120000Y-276860000D01*
X198120000Y-274320000D02*
X198120000Y-276860000D01*
X193040000Y-274320000D02*
X195580000Y-274320000D01*
X195580000Y-276860000D02*
X193040000Y-276860000D01*
D15*
X186690000Y-304400000D02*
X185420000Y-304400000D01*
X205740000Y-304400000D02*
X185420000Y-304400000D01*
X370840000Y-345440000D02*
X381000000Y-335280000D01*
X381000000Y-335280000D02*
X401320000Y-335280000D01*
X209550000Y-345440000D02*
X370840000Y-345440000D01*
X205740000Y-341630000D02*
X209550000Y-345440000D01*
X205740000Y-304400000D02*
X205740000Y-341630000D01*
X334010000Y-129540000D02*
X330200000Y-133350000D01*
X330200000Y-133350000D02*
X327660000Y-133350000D01*
X235360000Y-98200000D02*
X233912760Y-98200000D01*
X327660000Y-133350000D02*
X323850000Y-129540000D01*
X323850000Y-129540000D02*
X240030000Y-129540000D01*
X237490000Y-100330000D02*
X235360000Y-98200000D01*
X240030000Y-129540000D02*
X237490000Y-127000000D01*
X237490000Y-127000000D02*
X237490000Y-100330000D01*
X334010000Y-129540000D02*
X372110000Y-129540000D01*
X372110000Y-129540000D02*
X377190000Y-124460000D01*
X377190000Y-124460000D02*
X401320000Y-124460000D01*
X213360000Y-98200000D02*
X233739759Y-98200000D01*
X368300000Y-137160000D02*
X240030000Y-137160000D01*
X373380000Y-132080000D02*
X368300000Y-137160000D01*
X240030000Y-137160000D02*
X233680000Y-130810000D01*
X233680000Y-130810000D02*
X233680000Y-104140000D01*
X233680000Y-104140000D02*
X233680000Y-101200000D01*
X233680000Y-101200000D02*
X213360000Y-101200000D01*
X378460000Y-127000000D02*
X373380000Y-132080000D01*
X401320000Y-127000000D02*
X378460000Y-127000000D01*
D16*
X223520000Y-73660000D02*
X220980000Y-73660000D01*
X220980000Y-71120000D02*
X223520000Y-71120000D01*
X226060000Y-71120000D02*
X226060000Y-73660000D01*
X226060000Y-76200000D02*
X226060000Y-73660000D01*
X220980000Y-81280000D02*
X223520000Y-81280000D01*
X226060000Y-81280000D02*
X226060000Y-78740000D01*
X220980000Y-76200000D02*
X223520000Y-76200000D01*
X220980000Y-81280000D02*
X220980000Y-78740000D01*
X220980000Y-95250000D02*
X220980000Y-81280000D01*
X213256699Y-95250000D02*
X220980000Y-95250000D01*
X211200990Y-97305709D02*
X213256699Y-95250000D01*
X211200990Y-99094291D02*
X211200990Y-97305709D01*
X213006700Y-100900001D02*
X211200990Y-99094291D01*
D15*
X401320000Y-119380000D02*
X374650000Y-119380000D01*
X374650000Y-119380000D02*
X369570000Y-124460000D01*
X265430000Y-100330000D02*
X263300000Y-98200000D01*
X369570000Y-124460000D02*
X301855642Y-124460000D01*
X301855642Y-124460000D02*
X301682641Y-124286999D01*
X301682641Y-124286999D02*
X299893001Y-124286999D01*
X299893001Y-124286999D02*
X299720000Y-124460000D01*
X267970000Y-124460000D02*
X265430000Y-121920000D01*
X299720000Y-124460000D02*
X267970000Y-124460000D01*
X265430000Y-121920000D02*
X265430000Y-100330000D01*
X263300000Y-98200000D02*
X261852760Y-98200000D01*
X261679759Y-98200000D02*
X241300000Y-98200000D01*
X401320000Y-121920000D02*
X375920000Y-121920000D01*
X375920000Y-121920000D02*
X370840000Y-127000000D01*
X370840000Y-127000000D02*
X301855642Y-127000000D01*
X301855642Y-127000000D02*
X301682641Y-127173001D01*
X301682641Y-127173001D02*
X299893001Y-127173001D01*
X299893001Y-127173001D02*
X299720000Y-127000000D01*
X265430000Y-127000000D02*
X261620000Y-123190000D01*
X299720000Y-127000000D02*
X265430000Y-127000000D01*
X261620000Y-120650000D02*
X261620000Y-101200000D01*
X261620000Y-123190000D02*
X261620000Y-120650000D01*
X261620000Y-101200000D02*
X260350000Y-101200000D01*
X260350000Y-101200000D02*
X241300000Y-101200000D01*
D16*
X251460000Y-73660000D02*
X248920000Y-73660000D01*
X248920000Y-71120000D02*
X251460000Y-71120000D01*
X254000000Y-71120000D02*
X254000000Y-73660000D01*
X254000000Y-76200000D02*
X254000000Y-73660000D01*
X248920000Y-81280000D02*
X251460000Y-81280000D01*
X254000000Y-81280000D02*
X254000000Y-78740000D01*
X248920000Y-76200000D02*
X251460000Y-76200000D01*
X248920000Y-81280000D02*
X248920000Y-78740000D01*
X248920000Y-95250000D02*
X248920000Y-81280000D01*
X241196699Y-95250000D02*
X248920000Y-95250000D01*
X239140990Y-97305709D02*
X241196699Y-95250000D01*
X239140990Y-99094291D02*
X239140990Y-97305709D01*
X240946700Y-100900001D02*
X239140990Y-99094291D01*
D15*
X401320000Y-114300000D02*
X372110000Y-114300000D01*
X291240000Y-98200000D02*
X289792760Y-98200000D01*
X372110000Y-114300000D02*
X369570000Y-116840000D01*
X293370000Y-114300000D02*
X293370000Y-100330000D01*
X369570000Y-116840000D02*
X295910000Y-116840000D01*
X295910000Y-116840000D02*
X293370000Y-114300000D01*
X293370000Y-100330000D02*
X291240000Y-98200000D01*
X289619759Y-98200000D02*
X269240000Y-98200000D01*
X289560000Y-104140000D02*
X289560000Y-101200000D01*
X289560000Y-101200000D02*
X269240000Y-101200000D01*
X289560000Y-116840000D02*
X289560000Y-104140000D01*
X294640000Y-121920000D02*
X289560000Y-116840000D01*
X270510000Y-101200000D02*
X269240000Y-101200000D01*
X294640000Y-121920000D02*
X368300000Y-121920000D01*
X368300000Y-121920000D02*
X373380000Y-116840000D01*
X373380000Y-116840000D02*
X401320000Y-116840000D01*
D16*
X279400000Y-73660000D02*
X276860000Y-73660000D01*
X276860000Y-71120000D02*
X279400000Y-71120000D01*
X281940000Y-71120000D02*
X281940000Y-73660000D01*
X281940000Y-76200000D02*
X281940000Y-73660000D01*
X276860000Y-81280000D02*
X279400000Y-81280000D01*
X281940000Y-81280000D02*
X281940000Y-78740000D01*
X276860000Y-76200000D02*
X279400000Y-76200000D01*
X276860000Y-81280000D02*
X276860000Y-78740000D01*
X276860000Y-95250000D02*
X276860000Y-81280000D01*
X269136699Y-95250000D02*
X276860000Y-95250000D01*
X267080990Y-97305709D02*
X269136699Y-95250000D01*
X267080990Y-99094291D02*
X267080990Y-97305709D01*
X268886700Y-100900001D02*
X267080990Y-99094291D01*
D15*
X297180000Y-98200000D02*
X317559759Y-98200000D01*
X321310000Y-104140000D02*
X321310000Y-100330000D01*
X319180000Y-98200000D02*
X317732760Y-98200000D01*
X321310000Y-100330000D02*
X319180000Y-98200000D01*
X321310000Y-109220000D02*
X321310000Y-101896940D01*
X323850000Y-111760000D02*
X321310000Y-109220000D01*
X349250000Y-111760000D02*
X323850000Y-111760000D01*
X367030000Y-111760000D02*
X349250000Y-111760000D01*
X369570000Y-109220000D02*
X367030000Y-111760000D01*
X401320000Y-109220000D02*
X369570000Y-109220000D01*
X317500000Y-109220000D02*
X317559759Y-109160241D01*
X317559759Y-109160241D02*
X317559759Y-101200000D01*
X316230000Y-101200000D02*
X297180000Y-101200000D01*
X317559759Y-101200000D02*
X316230000Y-101200000D01*
X322580000Y-114300000D02*
X317500000Y-109220000D01*
X368300000Y-114300000D02*
X322580000Y-114300000D01*
X370840000Y-111760000D02*
X368300000Y-114300000D01*
X401320000Y-111760000D02*
X370840000Y-111760000D01*
D16*
X307340000Y-73660000D02*
X304800000Y-73660000D01*
X304800000Y-71120000D02*
X307340000Y-71120000D01*
X309880000Y-71120000D02*
X309880000Y-73660000D01*
X309880000Y-76200000D02*
X309880000Y-73660000D01*
X304800000Y-81280000D02*
X307340000Y-81280000D01*
X309880000Y-81280000D02*
X309880000Y-78740000D01*
X304800000Y-76200000D02*
X307340000Y-76200000D01*
X304800000Y-81280000D02*
X304800000Y-78740000D01*
X304800000Y-95250000D02*
X304800000Y-81280000D01*
X297076699Y-95250000D02*
X304800000Y-95250000D01*
X295020990Y-97305709D02*
X297076699Y-95250000D01*
X295020990Y-99094291D02*
X295020990Y-97305709D01*
X296826700Y-100900001D02*
X295020990Y-99094291D01*
D15*
X326390000Y-98200000D02*
X344170000Y-98200000D01*
X349250000Y-100330000D02*
X347120000Y-98200000D01*
X347120000Y-98200000D02*
X345672760Y-98200000D01*
X349250000Y-104140000D02*
X349250000Y-100330000D01*
X351790000Y-106680000D02*
X349250000Y-104140000D01*
X364490000Y-106680000D02*
X351790000Y-106680000D01*
X367030000Y-104140000D02*
X364490000Y-106680000D01*
X401320000Y-104140000D02*
X367030000Y-104140000D01*
X401320000Y-106680000D02*
X368300000Y-106680000D01*
X368300000Y-106680000D02*
X365760000Y-109220000D01*
X345672760Y-101892641D02*
X345672760Y-101200000D01*
X365760000Y-109220000D02*
X350520000Y-109220000D01*
X350520000Y-109220000D02*
X345672760Y-104372760D01*
X345672760Y-104372760D02*
X345672760Y-101892641D01*
X345499759Y-101200000D02*
X325120000Y-101200000D01*
D16*
X335280000Y-73660000D02*
X332740000Y-73660000D01*
X332740000Y-71120000D02*
X335280000Y-71120000D01*
X337820000Y-71120000D02*
X337820000Y-73660000D01*
X337820000Y-76200000D02*
X337820000Y-73660000D01*
X332740000Y-81280000D02*
X335280000Y-81280000D01*
X337820000Y-81280000D02*
X337820000Y-78740000D01*
X332740000Y-76200000D02*
X335280000Y-76200000D01*
X332740000Y-81280000D02*
X332740000Y-78740000D01*
X332740000Y-95250000D02*
X332740000Y-81280000D01*
X325016699Y-95250000D02*
X332740000Y-95250000D01*
X322960990Y-97305709D02*
X325016699Y-95250000D01*
X322960990Y-99094291D02*
X322960990Y-97305709D01*
X324766700Y-100900001D02*
X322960990Y-99094291D01*
D15*
X401320000Y-99060000D02*
X374299759Y-99060000D01*
X374299759Y-99060000D02*
X373439759Y-98200000D01*
X353060000Y-98200000D02*
X373439759Y-98200000D01*
X353060000Y-98200000D02*
X354330000Y-98200000D01*
D16*
X360680000Y-81280000D02*
X360680000Y-78740000D01*
X360680000Y-95250000D02*
X360680000Y-81280000D01*
X352956699Y-95250000D02*
X360680000Y-95250000D01*
X352706700Y-100900001D02*
X350900990Y-99094291D01*
X350900990Y-99094291D02*
X350900990Y-97305709D01*
X350900990Y-97305709D02*
X352956699Y-95250000D01*
X365760000Y-71120000D02*
X365760000Y-73660000D01*
X360680000Y-71120000D02*
X363220000Y-71120000D01*
X363220000Y-73660000D02*
X360680000Y-73660000D01*
X365760000Y-76200000D02*
X365760000Y-73660000D01*
X360680000Y-76200000D02*
X363220000Y-76200000D01*
X365760000Y-81280000D02*
X365760000Y-78740000D01*
X360680000Y-81280000D02*
X363220000Y-81280000D01*
D15*
X401320000Y-101600000D02*
X373953001Y-101600000D01*
X373953001Y-101600000D02*
X373553001Y-101200000D01*
X353060000Y-101200000D02*
X373439759Y-101200000D01*
X213360000Y-199800000D02*
X233739759Y-199800000D01*
X377190000Y-226060000D02*
X401320000Y-226060000D01*
X372110000Y-231140000D02*
X377190000Y-226060000D01*
X334010000Y-231140000D02*
X372110000Y-231140000D01*
X237490000Y-228600000D02*
X237490000Y-201930000D01*
X240030000Y-231140000D02*
X237490000Y-228600000D01*
X237490000Y-201930000D02*
X235360000Y-199800000D01*
X323850000Y-231140000D02*
X240030000Y-231140000D01*
X327660000Y-234950000D02*
X323850000Y-231140000D01*
X235360000Y-199800000D02*
X233912760Y-199800000D01*
X330200000Y-234950000D02*
X327660000Y-234950000D01*
X334010000Y-231140000D02*
X330200000Y-234950000D01*
D16*
X213006700Y-202500001D02*
X211200990Y-200694291D01*
X211200990Y-200694291D02*
X211200990Y-198905709D01*
X211200990Y-198905709D02*
X213256699Y-196850000D01*
X213256699Y-196850000D02*
X220980000Y-196850000D01*
X220980000Y-196850000D02*
X220980000Y-182880000D01*
X220980000Y-182880000D02*
X220980000Y-180340000D01*
X220980000Y-177800000D02*
X223520000Y-177800000D01*
X226060000Y-182880000D02*
X226060000Y-180340000D01*
X220980000Y-182880000D02*
X223520000Y-182880000D01*
X226060000Y-177800000D02*
X226060000Y-175260000D01*
X226060000Y-172720000D02*
X226060000Y-175260000D01*
X220980000Y-172720000D02*
X223520000Y-172720000D01*
X223520000Y-175260000D02*
X220980000Y-175260000D01*
D15*
X401320000Y-228600000D02*
X378460000Y-228600000D01*
X378460000Y-228600000D02*
X373380000Y-233680000D01*
X233680000Y-202800000D02*
X213360000Y-202800000D01*
X233680000Y-205740000D02*
X233680000Y-202800000D01*
X233680000Y-232410000D02*
X233680000Y-205740000D01*
X240030000Y-238760000D02*
X233680000Y-232410000D01*
X373380000Y-233680000D02*
X368300000Y-238760000D01*
X368300000Y-238760000D02*
X240030000Y-238760000D01*
X261679759Y-199800000D02*
X241300000Y-199800000D01*
X263300000Y-199800000D02*
X261852760Y-199800000D01*
X265430000Y-223520000D02*
X265430000Y-201930000D01*
X299720000Y-226060000D02*
X267970000Y-226060000D01*
X267970000Y-226060000D02*
X265430000Y-223520000D01*
X299893001Y-225886999D02*
X299720000Y-226060000D01*
X301682641Y-225886999D02*
X299893001Y-225886999D01*
X301855642Y-226060000D02*
X301682641Y-225886999D01*
X369570000Y-226060000D02*
X301855642Y-226060000D01*
X265430000Y-201930000D02*
X263300000Y-199800000D01*
X374650000Y-220980000D02*
X369570000Y-226060000D01*
X401320000Y-220980000D02*
X374650000Y-220980000D01*
D16*
X240946700Y-202500001D02*
X239140990Y-200694291D01*
X239140990Y-200694291D02*
X239140990Y-198905709D01*
X239140990Y-198905709D02*
X241196699Y-196850000D01*
X241196699Y-196850000D02*
X248920000Y-196850000D01*
X248920000Y-196850000D02*
X248920000Y-182880000D01*
X248920000Y-182880000D02*
X248920000Y-180340000D01*
X248920000Y-177800000D02*
X251460000Y-177800000D01*
X254000000Y-182880000D02*
X254000000Y-180340000D01*
X248920000Y-182880000D02*
X251460000Y-182880000D01*
X254000000Y-177800000D02*
X254000000Y-175260000D01*
X254000000Y-172720000D02*
X254000000Y-175260000D01*
X248920000Y-172720000D02*
X251460000Y-172720000D01*
X251460000Y-175260000D02*
X248920000Y-175260000D01*
D15*
X260350000Y-202800000D02*
X241300000Y-202800000D01*
X261620000Y-202800000D02*
X260350000Y-202800000D01*
X261620000Y-224790000D02*
X261620000Y-222250000D01*
X261620000Y-222250000D02*
X261620000Y-202800000D01*
X299720000Y-228600000D02*
X265430000Y-228600000D01*
X265430000Y-228600000D02*
X261620000Y-224790000D01*
X299893001Y-228773001D02*
X299720000Y-228600000D01*
X301682641Y-228773001D02*
X299893001Y-228773001D01*
X301855642Y-228600000D02*
X301682641Y-228773001D01*
X370840000Y-228600000D02*
X301855642Y-228600000D01*
X375920000Y-223520000D02*
X370840000Y-228600000D01*
X401320000Y-223520000D02*
X375920000Y-223520000D01*
X289619759Y-199800000D02*
X269240000Y-199800000D01*
X293370000Y-201930000D02*
X291240000Y-199800000D01*
X295910000Y-218440000D02*
X293370000Y-215900000D01*
X369570000Y-218440000D02*
X295910000Y-218440000D01*
X293370000Y-215900000D02*
X293370000Y-201930000D01*
X372110000Y-215900000D02*
X369570000Y-218440000D01*
X291240000Y-199800000D02*
X289792760Y-199800000D01*
X401320000Y-215900000D02*
X372110000Y-215900000D01*
D16*
X268886700Y-202500001D02*
X267080990Y-200694291D01*
X267080990Y-200694291D02*
X267080990Y-198905709D01*
X267080990Y-198905709D02*
X269136699Y-196850000D01*
X269136699Y-196850000D02*
X276860000Y-196850000D01*
X276860000Y-196850000D02*
X276860000Y-182880000D01*
X276860000Y-182880000D02*
X276860000Y-180340000D01*
X276860000Y-177800000D02*
X279400000Y-177800000D01*
X281940000Y-182880000D02*
X281940000Y-180340000D01*
X276860000Y-182880000D02*
X279400000Y-182880000D01*
X281940000Y-177800000D02*
X281940000Y-175260000D01*
X281940000Y-172720000D02*
X281940000Y-175260000D01*
X276860000Y-172720000D02*
X279400000Y-172720000D01*
X279400000Y-175260000D02*
X276860000Y-175260000D01*
D15*
X373380000Y-218440000D02*
X401320000Y-218440000D01*
X368300000Y-223520000D02*
X373380000Y-218440000D01*
X294640000Y-223520000D02*
X368300000Y-223520000D01*
X270510000Y-202800000D02*
X269240000Y-202800000D01*
X294640000Y-223520000D02*
X289560000Y-218440000D01*
X289560000Y-218440000D02*
X289560000Y-205740000D01*
X289560000Y-202800000D02*
X269240000Y-202800000D01*
X289560000Y-205740000D02*
X289560000Y-202800000D01*
X401320000Y-210820000D02*
X369570000Y-210820000D01*
X369570000Y-210820000D02*
X367030000Y-213360000D01*
X367030000Y-213360000D02*
X349250000Y-213360000D01*
X349250000Y-213360000D02*
X323850000Y-213360000D01*
X323850000Y-213360000D02*
X321310000Y-210820000D01*
X321310000Y-210820000D02*
X321310000Y-203496940D01*
X321310000Y-201930000D02*
X319180000Y-199800000D01*
X319180000Y-199800000D02*
X317732760Y-199800000D01*
X321310000Y-205740000D02*
X321310000Y-201930000D01*
X297180000Y-199800000D02*
X317559759Y-199800000D01*
D16*
X296826700Y-202500001D02*
X295020990Y-200694291D01*
X295020990Y-200694291D02*
X295020990Y-198905709D01*
X295020990Y-198905709D02*
X297076699Y-196850000D01*
X297076699Y-196850000D02*
X304800000Y-196850000D01*
X304800000Y-196850000D02*
X304800000Y-182880000D01*
X304800000Y-182880000D02*
X304800000Y-180340000D01*
X304800000Y-177800000D02*
X307340000Y-177800000D01*
X309880000Y-182880000D02*
X309880000Y-180340000D01*
X304800000Y-182880000D02*
X307340000Y-182880000D01*
X309880000Y-177800000D02*
X309880000Y-175260000D01*
X309880000Y-172720000D02*
X309880000Y-175260000D01*
X304800000Y-172720000D02*
X307340000Y-172720000D01*
X307340000Y-175260000D02*
X304800000Y-175260000D01*
D15*
X401320000Y-213360000D02*
X370840000Y-213360000D01*
X370840000Y-213360000D02*
X368300000Y-215900000D01*
X368300000Y-215900000D02*
X322580000Y-215900000D01*
X322580000Y-215900000D02*
X317500000Y-210820000D01*
X317559759Y-202800000D02*
X316230000Y-202800000D01*
X316230000Y-202800000D02*
X297180000Y-202800000D01*
X317559759Y-210760241D02*
X317559759Y-202800000D01*
X317500000Y-210820000D02*
X317559759Y-210760241D01*
X401320000Y-205740000D02*
X367030000Y-205740000D01*
X367030000Y-205740000D02*
X364490000Y-208280000D01*
X364490000Y-208280000D02*
X351790000Y-208280000D01*
X351790000Y-208280000D02*
X349250000Y-205740000D01*
X349250000Y-205740000D02*
X349250000Y-201930000D01*
X347120000Y-199800000D02*
X345672760Y-199800000D01*
X349250000Y-201930000D02*
X347120000Y-199800000D01*
X326390000Y-199800000D02*
X344170000Y-199800000D01*
D16*
X324766700Y-202500001D02*
X322960990Y-200694291D01*
X322960990Y-200694291D02*
X322960990Y-198905709D01*
X322960990Y-198905709D02*
X325016699Y-196850000D01*
X325016699Y-196850000D02*
X332740000Y-196850000D01*
X332740000Y-196850000D02*
X332740000Y-182880000D01*
X332740000Y-182880000D02*
X332740000Y-180340000D01*
X332740000Y-177800000D02*
X335280000Y-177800000D01*
X337820000Y-182880000D02*
X337820000Y-180340000D01*
X332740000Y-182880000D02*
X335280000Y-182880000D01*
X337820000Y-177800000D02*
X337820000Y-175260000D01*
X337820000Y-172720000D02*
X337820000Y-175260000D01*
X332740000Y-172720000D02*
X335280000Y-172720000D01*
X335280000Y-175260000D02*
X332740000Y-175260000D01*
D15*
X345499759Y-202800000D02*
X325120000Y-202800000D01*
X345672760Y-205972760D02*
X345672760Y-203492641D01*
X350520000Y-210820000D02*
X345672760Y-205972760D01*
X365760000Y-210820000D02*
X350520000Y-210820000D01*
X345672760Y-203492641D02*
X345672760Y-202800000D01*
X368300000Y-208280000D02*
X365760000Y-210820000D01*
X401320000Y-208280000D02*
X368300000Y-208280000D01*
X353060000Y-199800000D02*
X354330000Y-199800000D01*
X353060000Y-199800000D02*
X373439759Y-199800000D01*
X374299759Y-200660000D02*
X373439759Y-199800000D01*
X401320000Y-200660000D02*
X374299759Y-200660000D01*
X353060000Y-202800000D02*
X373439759Y-202800000D01*
X373953001Y-203200000D02*
X373553001Y-202800000D01*
X401320000Y-203200000D02*
X373953001Y-203200000D01*
D16*
X360680000Y-182880000D02*
X363220000Y-182880000D01*
X365760000Y-182880000D02*
X365760000Y-180340000D01*
X360680000Y-177800000D02*
X363220000Y-177800000D01*
X365760000Y-177800000D02*
X365760000Y-175260000D01*
X363220000Y-175260000D02*
X360680000Y-175260000D01*
X360680000Y-172720000D02*
X363220000Y-172720000D01*
X365760000Y-172720000D02*
X365760000Y-175260000D01*
X350900990Y-198905709D02*
X352956699Y-196850000D01*
X350900990Y-200694291D02*
X350900990Y-198905709D01*
X352706700Y-202500001D02*
X350900990Y-200694291D01*
X352956699Y-196850000D02*
X360680000Y-196850000D01*
X360680000Y-196850000D02*
X360680000Y-182880000D01*
X360680000Y-182880000D02*
X360680000Y-180340000D01*
D15*
X213360000Y-301400000D02*
X233739759Y-301400000D01*
X377190000Y-327660000D02*
X401320000Y-327660000D01*
X372110000Y-332740000D02*
X377190000Y-327660000D01*
X334010000Y-332740000D02*
X372110000Y-332740000D01*
X237490000Y-330200000D02*
X237490000Y-303530000D01*
X240030000Y-332740000D02*
X237490000Y-330200000D01*
X237490000Y-303530000D02*
X235360000Y-301400000D01*
X323850000Y-332740000D02*
X240030000Y-332740000D01*
X327660000Y-336550000D02*
X323850000Y-332740000D01*
X235360000Y-301400000D02*
X233912760Y-301400000D01*
X330200000Y-336550000D02*
X327660000Y-336550000D01*
X334010000Y-332740000D02*
X330200000Y-336550000D01*
D16*
X213006700Y-304100001D02*
X211200990Y-302294291D01*
X211200990Y-302294291D02*
X211200990Y-300505709D01*
X211200990Y-300505709D02*
X213256699Y-298450000D01*
X213256699Y-298450000D02*
X220980000Y-298450000D01*
X220980000Y-298450000D02*
X220980000Y-284480000D01*
X220980000Y-284480000D02*
X220980000Y-281940000D01*
X220980000Y-279400000D02*
X223520000Y-279400000D01*
X226060000Y-284480000D02*
X226060000Y-281940000D01*
X220980000Y-284480000D02*
X223520000Y-284480000D01*
X226060000Y-279400000D02*
X226060000Y-276860000D01*
X226060000Y-274320000D02*
X226060000Y-276860000D01*
X220980000Y-274320000D02*
X223520000Y-274320000D01*
X223520000Y-276860000D02*
X220980000Y-276860000D01*
D15*
X401320000Y-330200000D02*
X378460000Y-330200000D01*
X378460000Y-330200000D02*
X373380000Y-335280000D01*
X233680000Y-304400000D02*
X213360000Y-304400000D01*
X233680000Y-307340000D02*
X233680000Y-304400000D01*
X233680000Y-334010000D02*
X233680000Y-307340000D01*
X240030000Y-340360000D02*
X233680000Y-334010000D01*
X373380000Y-335280000D02*
X368300000Y-340360000D01*
X368300000Y-340360000D02*
X240030000Y-340360000D01*
X261679759Y-301400000D02*
X241300000Y-301400000D01*
X263300000Y-301400000D02*
X261852760Y-301400000D01*
X265430000Y-325120000D02*
X265430000Y-303530000D01*
X299720000Y-327660000D02*
X267970000Y-327660000D01*
X267970000Y-327660000D02*
X265430000Y-325120000D01*
X299893001Y-327486999D02*
X299720000Y-327660000D01*
X301682641Y-327486999D02*
X299893001Y-327486999D01*
X301855642Y-327660000D02*
X301682641Y-327486999D01*
X369570000Y-327660000D02*
X301855642Y-327660000D01*
X265430000Y-303530000D02*
X263300000Y-301400000D01*
X374650000Y-322580000D02*
X369570000Y-327660000D01*
X401320000Y-322580000D02*
X374650000Y-322580000D01*
D16*
X240946700Y-304100001D02*
X239140990Y-302294291D01*
X239140990Y-302294291D02*
X239140990Y-300505709D01*
X239140990Y-300505709D02*
X241196699Y-298450000D01*
X241196699Y-298450000D02*
X248920000Y-298450000D01*
X248920000Y-298450000D02*
X248920000Y-284480000D01*
X248920000Y-284480000D02*
X248920000Y-281940000D01*
X248920000Y-279400000D02*
X251460000Y-279400000D01*
X254000000Y-284480000D02*
X254000000Y-281940000D01*
X248920000Y-284480000D02*
X251460000Y-284480000D01*
X254000000Y-279400000D02*
X254000000Y-276860000D01*
X254000000Y-274320000D02*
X254000000Y-276860000D01*
X248920000Y-274320000D02*
X251460000Y-274320000D01*
X251460000Y-276860000D02*
X248920000Y-276860000D01*
D15*
X260350000Y-304400000D02*
X241300000Y-304400000D01*
X261620000Y-304400000D02*
X260350000Y-304400000D01*
X261620000Y-326390000D02*
X261620000Y-323850000D01*
X261620000Y-323850000D02*
X261620000Y-304400000D01*
X299720000Y-330200000D02*
X265430000Y-330200000D01*
X265430000Y-330200000D02*
X261620000Y-326390000D01*
X299893001Y-330373001D02*
X299720000Y-330200000D01*
X301682641Y-330373001D02*
X299893001Y-330373001D01*
X301855642Y-330200000D02*
X301682641Y-330373001D01*
X370840000Y-330200000D02*
X301855642Y-330200000D01*
X375920000Y-325120000D02*
X370840000Y-330200000D01*
X401320000Y-325120000D02*
X375920000Y-325120000D01*
X289619759Y-301400000D02*
X269240000Y-301400000D01*
X293370000Y-303530000D02*
X291240000Y-301400000D01*
X295910000Y-320040000D02*
X293370000Y-317500000D01*
X369570000Y-320040000D02*
X295910000Y-320040000D01*
X293370000Y-317500000D02*
X293370000Y-303530000D01*
X372110000Y-317500000D02*
X369570000Y-320040000D01*
X291240000Y-301400000D02*
X289792760Y-301400000D01*
X401320000Y-317500000D02*
X372110000Y-317500000D01*
D16*
X268886700Y-304100001D02*
X267080990Y-302294291D01*
X267080990Y-302294291D02*
X267080990Y-300505709D01*
X267080990Y-300505709D02*
X269136699Y-298450000D01*
X269136699Y-298450000D02*
X276860000Y-298450000D01*
X276860000Y-298450000D02*
X276860000Y-284480000D01*
X276860000Y-284480000D02*
X276860000Y-281940000D01*
X276860000Y-279400000D02*
X279400000Y-279400000D01*
X281940000Y-284480000D02*
X281940000Y-281940000D01*
X276860000Y-284480000D02*
X279400000Y-284480000D01*
X281940000Y-279400000D02*
X281940000Y-276860000D01*
X281940000Y-274320000D02*
X281940000Y-276860000D01*
X276860000Y-274320000D02*
X279400000Y-274320000D01*
X279400000Y-276860000D02*
X276860000Y-276860000D01*
D15*
X373380000Y-320040000D02*
X401320000Y-320040000D01*
X368300000Y-325120000D02*
X373380000Y-320040000D01*
X294640000Y-325120000D02*
X368300000Y-325120000D01*
X270510000Y-304400000D02*
X269240000Y-304400000D01*
X294640000Y-325120000D02*
X289560000Y-320040000D01*
X289560000Y-320040000D02*
X289560000Y-307340000D01*
X289560000Y-304400000D02*
X269240000Y-304400000D01*
X289560000Y-307340000D02*
X289560000Y-304400000D01*
X401320000Y-312420000D02*
X369570000Y-312420000D01*
X369570000Y-312420000D02*
X367030000Y-314960000D01*
X367030000Y-314960000D02*
X349250000Y-314960000D01*
X349250000Y-314960000D02*
X323850000Y-314960000D01*
X323850000Y-314960000D02*
X321310000Y-312420000D01*
X321310000Y-312420000D02*
X321310000Y-305096940D01*
X321310000Y-303530000D02*
X319180000Y-301400000D01*
X319180000Y-301400000D02*
X317732760Y-301400000D01*
X321310000Y-307340000D02*
X321310000Y-303530000D01*
X297180000Y-301400000D02*
X317559759Y-301400000D01*
D16*
X296826700Y-304100001D02*
X295020990Y-302294291D01*
X295020990Y-302294291D02*
X295020990Y-300505709D01*
X295020990Y-300505709D02*
X297076699Y-298450000D01*
X297076699Y-298450000D02*
X304800000Y-298450000D01*
X304800000Y-298450000D02*
X304800000Y-284480000D01*
X304800000Y-284480000D02*
X304800000Y-281940000D01*
X304800000Y-279400000D02*
X307340000Y-279400000D01*
X309880000Y-284480000D02*
X309880000Y-281940000D01*
X304800000Y-284480000D02*
X307340000Y-284480000D01*
X309880000Y-279400000D02*
X309880000Y-276860000D01*
X309880000Y-274320000D02*
X309880000Y-276860000D01*
X304800000Y-274320000D02*
X307340000Y-274320000D01*
X307340000Y-276860000D02*
X304800000Y-276860000D01*
D15*
X401320000Y-314960000D02*
X370840000Y-314960000D01*
X370840000Y-314960000D02*
X368300000Y-317500000D01*
X368300000Y-317500000D02*
X322580000Y-317500000D01*
X322580000Y-317500000D02*
X317500000Y-312420000D01*
X317559759Y-304400000D02*
X316230000Y-304400000D01*
X316230000Y-304400000D02*
X297180000Y-304400000D01*
X317559759Y-312360241D02*
X317559759Y-304400000D01*
X317500000Y-312420000D02*
X317559759Y-312360241D01*
X401320000Y-307340000D02*
X367030000Y-307340000D01*
X367030000Y-307340000D02*
X364490000Y-309880000D01*
X364490000Y-309880000D02*
X351790000Y-309880000D01*
X351790000Y-309880000D02*
X349250000Y-307340000D01*
X349250000Y-307340000D02*
X349250000Y-303530000D01*
X347120000Y-301400000D02*
X345672760Y-301400000D01*
X349250000Y-303530000D02*
X347120000Y-301400000D01*
X326390000Y-301400000D02*
X344170000Y-301400000D01*
D16*
X324766700Y-304100001D02*
X322960990Y-302294291D01*
X322960990Y-302294291D02*
X322960990Y-300505709D01*
X322960990Y-300505709D02*
X325016699Y-298450000D01*
X325016699Y-298450000D02*
X332740000Y-298450000D01*
X332740000Y-298450000D02*
X332740000Y-284480000D01*
X332740000Y-284480000D02*
X332740000Y-281940000D01*
X332740000Y-279400000D02*
X335280000Y-279400000D01*
X337820000Y-284480000D02*
X337820000Y-281940000D01*
X332740000Y-284480000D02*
X335280000Y-284480000D01*
X337820000Y-279400000D02*
X337820000Y-276860000D01*
X337820000Y-274320000D02*
X337820000Y-276860000D01*
X332740000Y-274320000D02*
X335280000Y-274320000D01*
X335280000Y-276860000D02*
X332740000Y-276860000D01*
D15*
X345499759Y-304400000D02*
X325120000Y-304400000D01*
X345672760Y-307572760D02*
X345672760Y-305092641D01*
X350520000Y-312420000D02*
X345672760Y-307572760D01*
X365760000Y-312420000D02*
X350520000Y-312420000D01*
X345672760Y-305092641D02*
X345672760Y-304400000D01*
X368300000Y-309880000D02*
X365760000Y-312420000D01*
X401320000Y-309880000D02*
X368300000Y-309880000D01*
X353060000Y-301400000D02*
X354330000Y-301400000D01*
X353060000Y-301400000D02*
X373439759Y-301400000D01*
X374299759Y-302260000D02*
X373439759Y-301400000D01*
X401320000Y-302260000D02*
X374299759Y-302260000D01*
X353060000Y-304400000D02*
X373439759Y-304400000D01*
X373953001Y-304800000D02*
X373553001Y-304400000D01*
X401320000Y-304800000D02*
X373953001Y-304800000D01*
D16*
X360680000Y-284480000D02*
X363220000Y-284480000D01*
X365760000Y-284480000D02*
X365760000Y-281940000D01*
X360680000Y-279400000D02*
X363220000Y-279400000D01*
X365760000Y-279400000D02*
X365760000Y-276860000D01*
X363220000Y-276860000D02*
X360680000Y-276860000D01*
X360680000Y-274320000D02*
X363220000Y-274320000D01*
X365760000Y-274320000D02*
X365760000Y-276860000D01*
X350900990Y-300505709D02*
X352956699Y-298450000D01*
X350900990Y-302294291D02*
X350900990Y-300505709D01*
X352706700Y-304100001D02*
X350900990Y-302294291D01*
X352956699Y-298450000D02*
X360680000Y-298450000D01*
X360680000Y-298450000D02*
X360680000Y-284480000D01*
X360680000Y-284480000D02*
X360680000Y-281940000D01*
D17*
G36*
X143383000Y-82423000D02*
X139625466Y-82423000D01*
X139595327Y-82392808D01*
X139251799Y-82250162D01*
X138879833Y-82249838D01*
X138536057Y-82391883D01*
X138504886Y-82423000D01*
X136017000Y-82423000D01*
X136017000Y-78964775D01*
X138564803Y-78964775D01*
X138737233Y-79382086D01*
X139056235Y-79701645D01*
X139473244Y-79874803D01*
X139924775Y-79875197D01*
X140342086Y-79702767D01*
X140661645Y-79383765D01*
X140834803Y-78966756D01*
X140835197Y-78515225D01*
X140662767Y-78097914D01*
X140343765Y-77778355D01*
X139926756Y-77605197D01*
X139475225Y-77604803D01*
X139057914Y-77777233D01*
X138738355Y-78096235D01*
X138565197Y-78513244D01*
X138564803Y-78964775D01*
X136017000Y-78964775D01*
X136017000Y-69977000D01*
X143383000Y-69977000D01*
X143383000Y-82423000D01*
X143383000Y-82423000D01*
G37*
X143383000Y-82423000D02*
X139625466Y-82423000D01*
X139595327Y-82392808D01*
X139251799Y-82250162D01*
X138879833Y-82249838D01*
X138536057Y-82391883D01*
X138504886Y-82423000D01*
X136017000Y-82423000D01*
X136017000Y-78964775D01*
X138564803Y-78964775D01*
X138737233Y-79382086D01*
X139056235Y-79701645D01*
X139473244Y-79874803D01*
X139924775Y-79875197D01*
X140342086Y-79702767D01*
X140661645Y-79383765D01*
X140834803Y-78966756D01*
X140835197Y-78515225D01*
X140662767Y-78097914D01*
X140343765Y-77778355D01*
X139926756Y-77605197D01*
X139475225Y-77604803D01*
X139057914Y-77777233D01*
X138738355Y-78096235D01*
X138565197Y-78513244D01*
X138564803Y-78964775D01*
X136017000Y-78964775D01*
X136017000Y-69977000D01*
X143383000Y-69977000D01*
X143383000Y-82423000D01*
G36*
X171323000Y-82423000D02*
X167565466Y-82423000D01*
X167535327Y-82392808D01*
X167191799Y-82250162D01*
X166819833Y-82249838D01*
X166476057Y-82391883D01*
X166444886Y-82423000D01*
X163957000Y-82423000D01*
X163957000Y-78964775D01*
X166504803Y-78964775D01*
X166677233Y-79382086D01*
X166996235Y-79701645D01*
X167413244Y-79874803D01*
X167864775Y-79875197D01*
X168282086Y-79702767D01*
X168601645Y-79383765D01*
X168774803Y-78966756D01*
X168775197Y-78515225D01*
X168602767Y-78097914D01*
X168283765Y-77778355D01*
X167866756Y-77605197D01*
X167415225Y-77604803D01*
X166997914Y-77777233D01*
X166678355Y-78096235D01*
X166505197Y-78513244D01*
X166504803Y-78964775D01*
X163957000Y-78964775D01*
X163957000Y-69977000D01*
X171323000Y-69977000D01*
X171323000Y-82423000D01*
X171323000Y-82423000D01*
G37*
X171323000Y-82423000D02*
X167565466Y-82423000D01*
X167535327Y-82392808D01*
X167191799Y-82250162D01*
X166819833Y-82249838D01*
X166476057Y-82391883D01*
X166444886Y-82423000D01*
X163957000Y-82423000D01*
X163957000Y-78964775D01*
X166504803Y-78964775D01*
X166677233Y-79382086D01*
X166996235Y-79701645D01*
X167413244Y-79874803D01*
X167864775Y-79875197D01*
X168282086Y-79702767D01*
X168601645Y-79383765D01*
X168774803Y-78966756D01*
X168775197Y-78515225D01*
X168602767Y-78097914D01*
X168283765Y-77778355D01*
X167866756Y-77605197D01*
X167415225Y-77604803D01*
X166997914Y-77777233D01*
X166678355Y-78096235D01*
X166505197Y-78513244D01*
X166504803Y-78964775D01*
X163957000Y-78964775D01*
X163957000Y-69977000D01*
X171323000Y-69977000D01*
X171323000Y-82423000D01*
G36*
X199263000Y-82423000D02*
X195505466Y-82423000D01*
X195475327Y-82392808D01*
X195131799Y-82250162D01*
X194759833Y-82249838D01*
X194416057Y-82391883D01*
X194384886Y-82423000D01*
X191897000Y-82423000D01*
X191897000Y-78964775D01*
X194444803Y-78964775D01*
X194617233Y-79382086D01*
X194936235Y-79701645D01*
X195353244Y-79874803D01*
X195804775Y-79875197D01*
X196222086Y-79702767D01*
X196541645Y-79383765D01*
X196714803Y-78966756D01*
X196715197Y-78515225D01*
X196542767Y-78097914D01*
X196223765Y-77778355D01*
X195806756Y-77605197D01*
X195355225Y-77604803D01*
X194937914Y-77777233D01*
X194618355Y-78096235D01*
X194445197Y-78513244D01*
X194444803Y-78964775D01*
X191897000Y-78964775D01*
X191897000Y-69977000D01*
X199263000Y-69977000D01*
X199263000Y-82423000D01*
X199263000Y-82423000D01*
G37*
X199263000Y-82423000D02*
X195505466Y-82423000D01*
X195475327Y-82392808D01*
X195131799Y-82250162D01*
X194759833Y-82249838D01*
X194416057Y-82391883D01*
X194384886Y-82423000D01*
X191897000Y-82423000D01*
X191897000Y-78964775D01*
X194444803Y-78964775D01*
X194617233Y-79382086D01*
X194936235Y-79701645D01*
X195353244Y-79874803D01*
X195804775Y-79875197D01*
X196222086Y-79702767D01*
X196541645Y-79383765D01*
X196714803Y-78966756D01*
X196715197Y-78515225D01*
X196542767Y-78097914D01*
X196223765Y-77778355D01*
X195806756Y-77605197D01*
X195355225Y-77604803D01*
X194937914Y-77777233D01*
X194618355Y-78096235D01*
X194445197Y-78513244D01*
X194444803Y-78964775D01*
X191897000Y-78964775D01*
X191897000Y-69977000D01*
X199263000Y-69977000D01*
X199263000Y-82423000D01*
G36*
X227203000Y-82423000D02*
X223445466Y-82423000D01*
X223415327Y-82392808D01*
X223071799Y-82250162D01*
X222699833Y-82249838D01*
X222356057Y-82391883D01*
X222324886Y-82423000D01*
X219837000Y-82423000D01*
X219837000Y-78964775D01*
X222384803Y-78964775D01*
X222557233Y-79382086D01*
X222876235Y-79701645D01*
X223293244Y-79874803D01*
X223744775Y-79875197D01*
X224162086Y-79702767D01*
X224481645Y-79383765D01*
X224654803Y-78966756D01*
X224655197Y-78515225D01*
X224482767Y-78097914D01*
X224163765Y-77778355D01*
X223746756Y-77605197D01*
X223295225Y-77604803D01*
X222877914Y-77777233D01*
X222558355Y-78096235D01*
X222385197Y-78513244D01*
X222384803Y-78964775D01*
X219837000Y-78964775D01*
X219837000Y-69977000D01*
X227203000Y-69977000D01*
X227203000Y-82423000D01*
X227203000Y-82423000D01*
G37*
X227203000Y-82423000D02*
X223445466Y-82423000D01*
X223415327Y-82392808D01*
X223071799Y-82250162D01*
X222699833Y-82249838D01*
X222356057Y-82391883D01*
X222324886Y-82423000D01*
X219837000Y-82423000D01*
X219837000Y-78964775D01*
X222384803Y-78964775D01*
X222557233Y-79382086D01*
X222876235Y-79701645D01*
X223293244Y-79874803D01*
X223744775Y-79875197D01*
X224162086Y-79702767D01*
X224481645Y-79383765D01*
X224654803Y-78966756D01*
X224655197Y-78515225D01*
X224482767Y-78097914D01*
X224163765Y-77778355D01*
X223746756Y-77605197D01*
X223295225Y-77604803D01*
X222877914Y-77777233D01*
X222558355Y-78096235D01*
X222385197Y-78513244D01*
X222384803Y-78964775D01*
X219837000Y-78964775D01*
X219837000Y-69977000D01*
X227203000Y-69977000D01*
X227203000Y-82423000D01*
G36*
X255143000Y-82423000D02*
X251385466Y-82423000D01*
X251355327Y-82392808D01*
X251011799Y-82250162D01*
X250639833Y-82249838D01*
X250296057Y-82391883D01*
X250264886Y-82423000D01*
X247777000Y-82423000D01*
X247777000Y-78964775D01*
X250324803Y-78964775D01*
X250497233Y-79382086D01*
X250816235Y-79701645D01*
X251233244Y-79874803D01*
X251684775Y-79875197D01*
X252102086Y-79702767D01*
X252421645Y-79383765D01*
X252594803Y-78966756D01*
X252595197Y-78515225D01*
X252422767Y-78097914D01*
X252103765Y-77778355D01*
X251686756Y-77605197D01*
X251235225Y-77604803D01*
X250817914Y-77777233D01*
X250498355Y-78096235D01*
X250325197Y-78513244D01*
X250324803Y-78964775D01*
X247777000Y-78964775D01*
X247777000Y-69977000D01*
X255143000Y-69977000D01*
X255143000Y-82423000D01*
X255143000Y-82423000D01*
G37*
X255143000Y-82423000D02*
X251385466Y-82423000D01*
X251355327Y-82392808D01*
X251011799Y-82250162D01*
X250639833Y-82249838D01*
X250296057Y-82391883D01*
X250264886Y-82423000D01*
X247777000Y-82423000D01*
X247777000Y-78964775D01*
X250324803Y-78964775D01*
X250497233Y-79382086D01*
X250816235Y-79701645D01*
X251233244Y-79874803D01*
X251684775Y-79875197D01*
X252102086Y-79702767D01*
X252421645Y-79383765D01*
X252594803Y-78966756D01*
X252595197Y-78515225D01*
X252422767Y-78097914D01*
X252103765Y-77778355D01*
X251686756Y-77605197D01*
X251235225Y-77604803D01*
X250817914Y-77777233D01*
X250498355Y-78096235D01*
X250325197Y-78513244D01*
X250324803Y-78964775D01*
X247777000Y-78964775D01*
X247777000Y-69977000D01*
X255143000Y-69977000D01*
X255143000Y-82423000D01*
G36*
X283083000Y-82423000D02*
X279325466Y-82423000D01*
X279295327Y-82392808D01*
X278951799Y-82250162D01*
X278579833Y-82249838D01*
X278236057Y-82391883D01*
X278204886Y-82423000D01*
X275717000Y-82423000D01*
X275717000Y-78964775D01*
X278264803Y-78964775D01*
X278437233Y-79382086D01*
X278756235Y-79701645D01*
X279173244Y-79874803D01*
X279624775Y-79875197D01*
X280042086Y-79702767D01*
X280361645Y-79383765D01*
X280534803Y-78966756D01*
X280535197Y-78515225D01*
X280362767Y-78097914D01*
X280043765Y-77778355D01*
X279626756Y-77605197D01*
X279175225Y-77604803D01*
X278757914Y-77777233D01*
X278438355Y-78096235D01*
X278265197Y-78513244D01*
X278264803Y-78964775D01*
X275717000Y-78964775D01*
X275717000Y-69977000D01*
X283083000Y-69977000D01*
X283083000Y-82423000D01*
X283083000Y-82423000D01*
G37*
X283083000Y-82423000D02*
X279325466Y-82423000D01*
X279295327Y-82392808D01*
X278951799Y-82250162D01*
X278579833Y-82249838D01*
X278236057Y-82391883D01*
X278204886Y-82423000D01*
X275717000Y-82423000D01*
X275717000Y-78964775D01*
X278264803Y-78964775D01*
X278437233Y-79382086D01*
X278756235Y-79701645D01*
X279173244Y-79874803D01*
X279624775Y-79875197D01*
X280042086Y-79702767D01*
X280361645Y-79383765D01*
X280534803Y-78966756D01*
X280535197Y-78515225D01*
X280362767Y-78097914D01*
X280043765Y-77778355D01*
X279626756Y-77605197D01*
X279175225Y-77604803D01*
X278757914Y-77777233D01*
X278438355Y-78096235D01*
X278265197Y-78513244D01*
X278264803Y-78964775D01*
X275717000Y-78964775D01*
X275717000Y-69977000D01*
X283083000Y-69977000D01*
X283083000Y-82423000D01*
G36*
X311023000Y-82423000D02*
X307265466Y-82423000D01*
X307235327Y-82392808D01*
X306891799Y-82250162D01*
X306519833Y-82249838D01*
X306176057Y-82391883D01*
X306144886Y-82423000D01*
X303657000Y-82423000D01*
X303657000Y-78964775D01*
X306204803Y-78964775D01*
X306377233Y-79382086D01*
X306696235Y-79701645D01*
X307113244Y-79874803D01*
X307564775Y-79875197D01*
X307982086Y-79702767D01*
X308301645Y-79383765D01*
X308474803Y-78966756D01*
X308475197Y-78515225D01*
X308302767Y-78097914D01*
X307983765Y-77778355D01*
X307566756Y-77605197D01*
X307115225Y-77604803D01*
X306697914Y-77777233D01*
X306378355Y-78096235D01*
X306205197Y-78513244D01*
X306204803Y-78964775D01*
X303657000Y-78964775D01*
X303657000Y-69977000D01*
X311023000Y-69977000D01*
X311023000Y-82423000D01*
X311023000Y-82423000D01*
G37*
X311023000Y-82423000D02*
X307265466Y-82423000D01*
X307235327Y-82392808D01*
X306891799Y-82250162D01*
X306519833Y-82249838D01*
X306176057Y-82391883D01*
X306144886Y-82423000D01*
X303657000Y-82423000D01*
X303657000Y-78964775D01*
X306204803Y-78964775D01*
X306377233Y-79382086D01*
X306696235Y-79701645D01*
X307113244Y-79874803D01*
X307564775Y-79875197D01*
X307982086Y-79702767D01*
X308301645Y-79383765D01*
X308474803Y-78966756D01*
X308475197Y-78515225D01*
X308302767Y-78097914D01*
X307983765Y-77778355D01*
X307566756Y-77605197D01*
X307115225Y-77604803D01*
X306697914Y-77777233D01*
X306378355Y-78096235D01*
X306205197Y-78513244D01*
X306204803Y-78964775D01*
X303657000Y-78964775D01*
X303657000Y-69977000D01*
X311023000Y-69977000D01*
X311023000Y-82423000D01*
G36*
X338963000Y-82423000D02*
X335205466Y-82423000D01*
X335175327Y-82392808D01*
X334831799Y-82250162D01*
X334459833Y-82249838D01*
X334116057Y-82391883D01*
X334084886Y-82423000D01*
X331597000Y-82423000D01*
X331597000Y-78964775D01*
X334144803Y-78964775D01*
X334317233Y-79382086D01*
X334636235Y-79701645D01*
X335053244Y-79874803D01*
X335504775Y-79875197D01*
X335922086Y-79702767D01*
X336241645Y-79383765D01*
X336414803Y-78966756D01*
X336415197Y-78515225D01*
X336242767Y-78097914D01*
X335923765Y-77778355D01*
X335506756Y-77605197D01*
X335055225Y-77604803D01*
X334637914Y-77777233D01*
X334318355Y-78096235D01*
X334145197Y-78513244D01*
X334144803Y-78964775D01*
X331597000Y-78964775D01*
X331597000Y-69977000D01*
X338963000Y-69977000D01*
X338963000Y-82423000D01*
X338963000Y-82423000D01*
G37*
X338963000Y-82423000D02*
X335205466Y-82423000D01*
X335175327Y-82392808D01*
X334831799Y-82250162D01*
X334459833Y-82249838D01*
X334116057Y-82391883D01*
X334084886Y-82423000D01*
X331597000Y-82423000D01*
X331597000Y-78964775D01*
X334144803Y-78964775D01*
X334317233Y-79382086D01*
X334636235Y-79701645D01*
X335053244Y-79874803D01*
X335504775Y-79875197D01*
X335922086Y-79702767D01*
X336241645Y-79383765D01*
X336414803Y-78966756D01*
X336415197Y-78515225D01*
X336242767Y-78097914D01*
X335923765Y-77778355D01*
X335506756Y-77605197D01*
X335055225Y-77604803D01*
X334637914Y-77777233D01*
X334318355Y-78096235D01*
X334145197Y-78513244D01*
X334144803Y-78964775D01*
X331597000Y-78964775D01*
X331597000Y-69977000D01*
X338963000Y-69977000D01*
X338963000Y-82423000D01*
G36*
X366903000Y-82423000D02*
X363145466Y-82423000D01*
X363115327Y-82392808D01*
X362771799Y-82250162D01*
X362399833Y-82249838D01*
X362056057Y-82391883D01*
X362024886Y-82423000D01*
X359537000Y-82423000D01*
X359537000Y-78964775D01*
X362084803Y-78964775D01*
X362257233Y-79382086D01*
X362576235Y-79701645D01*
X362993244Y-79874803D01*
X363444775Y-79875197D01*
X363862086Y-79702767D01*
X364181645Y-79383765D01*
X364354803Y-78966756D01*
X364355197Y-78515225D01*
X364182767Y-78097914D01*
X363863765Y-77778355D01*
X363446756Y-77605197D01*
X362995225Y-77604803D01*
X362577914Y-77777233D01*
X362258355Y-78096235D01*
X362085197Y-78513244D01*
X362084803Y-78964775D01*
X359537000Y-78964775D01*
X359537000Y-69977000D01*
X366903000Y-69977000D01*
X366903000Y-82423000D01*
X366903000Y-82423000D01*
G37*
X366903000Y-82423000D02*
X363145466Y-82423000D01*
X363115327Y-82392808D01*
X362771799Y-82250162D01*
X362399833Y-82249838D01*
X362056057Y-82391883D01*
X362024886Y-82423000D01*
X359537000Y-82423000D01*
X359537000Y-78964775D01*
X362084803Y-78964775D01*
X362257233Y-79382086D01*
X362576235Y-79701645D01*
X362993244Y-79874803D01*
X363444775Y-79875197D01*
X363862086Y-79702767D01*
X364181645Y-79383765D01*
X364354803Y-78966756D01*
X364355197Y-78515225D01*
X364182767Y-78097914D01*
X363863765Y-77778355D01*
X363446756Y-77605197D01*
X362995225Y-77604803D01*
X362577914Y-77777233D01*
X362258355Y-78096235D01*
X362085197Y-78513244D01*
X362084803Y-78964775D01*
X359537000Y-78964775D01*
X359537000Y-69977000D01*
X366903000Y-69977000D01*
X366903000Y-82423000D01*
G36*
X143383000Y-184023000D02*
X139625466Y-184023000D01*
X139595327Y-183992808D01*
X139251799Y-183850162D01*
X138879833Y-183849838D01*
X138536057Y-183991883D01*
X138504886Y-184023000D01*
X136017000Y-184023000D01*
X136017000Y-180564775D01*
X138564803Y-180564775D01*
X138737233Y-180982086D01*
X139056235Y-181301645D01*
X139473244Y-181474803D01*
X139924775Y-181475197D01*
X140342086Y-181302767D01*
X140661645Y-180983765D01*
X140834803Y-180566756D01*
X140835197Y-180115225D01*
X140662767Y-179697914D01*
X140343765Y-179378355D01*
X139926756Y-179205197D01*
X139475225Y-179204803D01*
X139057914Y-179377233D01*
X138738355Y-179696235D01*
X138565197Y-180113244D01*
X138564803Y-180564775D01*
X136017000Y-180564775D01*
X136017000Y-171577000D01*
X143383000Y-171577000D01*
X143383000Y-184023000D01*
X143383000Y-184023000D01*
G37*
X143383000Y-184023000D02*
X139625466Y-184023000D01*
X139595327Y-183992808D01*
X139251799Y-183850162D01*
X138879833Y-183849838D01*
X138536057Y-183991883D01*
X138504886Y-184023000D01*
X136017000Y-184023000D01*
X136017000Y-180564775D01*
X138564803Y-180564775D01*
X138737233Y-180982086D01*
X139056235Y-181301645D01*
X139473244Y-181474803D01*
X139924775Y-181475197D01*
X140342086Y-181302767D01*
X140661645Y-180983765D01*
X140834803Y-180566756D01*
X140835197Y-180115225D01*
X140662767Y-179697914D01*
X140343765Y-179378355D01*
X139926756Y-179205197D01*
X139475225Y-179204803D01*
X139057914Y-179377233D01*
X138738355Y-179696235D01*
X138565197Y-180113244D01*
X138564803Y-180564775D01*
X136017000Y-180564775D01*
X136017000Y-171577000D01*
X143383000Y-171577000D01*
X143383000Y-184023000D01*
G36*
X171323000Y-184023000D02*
X167565466Y-184023000D01*
X167535327Y-183992808D01*
X167191799Y-183850162D01*
X166819833Y-183849838D01*
X166476057Y-183991883D01*
X166444886Y-184023000D01*
X163957000Y-184023000D01*
X163957000Y-180564775D01*
X166504803Y-180564775D01*
X166677233Y-180982086D01*
X166996235Y-181301645D01*
X167413244Y-181474803D01*
X167864775Y-181475197D01*
X168282086Y-181302767D01*
X168601645Y-180983765D01*
X168774803Y-180566756D01*
X168775197Y-180115225D01*
X168602767Y-179697914D01*
X168283765Y-179378355D01*
X167866756Y-179205197D01*
X167415225Y-179204803D01*
X166997914Y-179377233D01*
X166678355Y-179696235D01*
X166505197Y-180113244D01*
X166504803Y-180564775D01*
X163957000Y-180564775D01*
X163957000Y-171577000D01*
X171323000Y-171577000D01*
X171323000Y-184023000D01*
X171323000Y-184023000D01*
G37*
X171323000Y-184023000D02*
X167565466Y-184023000D01*
X167535327Y-183992808D01*
X167191799Y-183850162D01*
X166819833Y-183849838D01*
X166476057Y-183991883D01*
X166444886Y-184023000D01*
X163957000Y-184023000D01*
X163957000Y-180564775D01*
X166504803Y-180564775D01*
X166677233Y-180982086D01*
X166996235Y-181301645D01*
X167413244Y-181474803D01*
X167864775Y-181475197D01*
X168282086Y-181302767D01*
X168601645Y-180983765D01*
X168774803Y-180566756D01*
X168775197Y-180115225D01*
X168602767Y-179697914D01*
X168283765Y-179378355D01*
X167866756Y-179205197D01*
X167415225Y-179204803D01*
X166997914Y-179377233D01*
X166678355Y-179696235D01*
X166505197Y-180113244D01*
X166504803Y-180564775D01*
X163957000Y-180564775D01*
X163957000Y-171577000D01*
X171323000Y-171577000D01*
X171323000Y-184023000D01*
G36*
X199263000Y-184023000D02*
X195505466Y-184023000D01*
X195475327Y-183992808D01*
X195131799Y-183850162D01*
X194759833Y-183849838D01*
X194416057Y-183991883D01*
X194384886Y-184023000D01*
X191897000Y-184023000D01*
X191897000Y-180564775D01*
X194444803Y-180564775D01*
X194617233Y-180982086D01*
X194936235Y-181301645D01*
X195353244Y-181474803D01*
X195804775Y-181475197D01*
X196222086Y-181302767D01*
X196541645Y-180983765D01*
X196714803Y-180566756D01*
X196715197Y-180115225D01*
X196542767Y-179697914D01*
X196223765Y-179378355D01*
X195806756Y-179205197D01*
X195355225Y-179204803D01*
X194937914Y-179377233D01*
X194618355Y-179696235D01*
X194445197Y-180113244D01*
X194444803Y-180564775D01*
X191897000Y-180564775D01*
X191897000Y-171577000D01*
X199263000Y-171577000D01*
X199263000Y-184023000D01*
X199263000Y-184023000D01*
G37*
X199263000Y-184023000D02*
X195505466Y-184023000D01*
X195475327Y-183992808D01*
X195131799Y-183850162D01*
X194759833Y-183849838D01*
X194416057Y-183991883D01*
X194384886Y-184023000D01*
X191897000Y-184023000D01*
X191897000Y-180564775D01*
X194444803Y-180564775D01*
X194617233Y-180982086D01*
X194936235Y-181301645D01*
X195353244Y-181474803D01*
X195804775Y-181475197D01*
X196222086Y-181302767D01*
X196541645Y-180983765D01*
X196714803Y-180566756D01*
X196715197Y-180115225D01*
X196542767Y-179697914D01*
X196223765Y-179378355D01*
X195806756Y-179205197D01*
X195355225Y-179204803D01*
X194937914Y-179377233D01*
X194618355Y-179696235D01*
X194445197Y-180113244D01*
X194444803Y-180564775D01*
X191897000Y-180564775D01*
X191897000Y-171577000D01*
X199263000Y-171577000D01*
X199263000Y-184023000D01*
G36*
X227203000Y-184023000D02*
X223445466Y-184023000D01*
X223415327Y-183992808D01*
X223071799Y-183850162D01*
X222699833Y-183849838D01*
X222356057Y-183991883D01*
X222324886Y-184023000D01*
X219837000Y-184023000D01*
X219837000Y-180564775D01*
X222384803Y-180564775D01*
X222557233Y-180982086D01*
X222876235Y-181301645D01*
X223293244Y-181474803D01*
X223744775Y-181475197D01*
X224162086Y-181302767D01*
X224481645Y-180983765D01*
X224654803Y-180566756D01*
X224655197Y-180115225D01*
X224482767Y-179697914D01*
X224163765Y-179378355D01*
X223746756Y-179205197D01*
X223295225Y-179204803D01*
X222877914Y-179377233D01*
X222558355Y-179696235D01*
X222385197Y-180113244D01*
X222384803Y-180564775D01*
X219837000Y-180564775D01*
X219837000Y-171577000D01*
X227203000Y-171577000D01*
X227203000Y-184023000D01*
X227203000Y-184023000D01*
G37*
X227203000Y-184023000D02*
X223445466Y-184023000D01*
X223415327Y-183992808D01*
X223071799Y-183850162D01*
X222699833Y-183849838D01*
X222356057Y-183991883D01*
X222324886Y-184023000D01*
X219837000Y-184023000D01*
X219837000Y-180564775D01*
X222384803Y-180564775D01*
X222557233Y-180982086D01*
X222876235Y-181301645D01*
X223293244Y-181474803D01*
X223744775Y-181475197D01*
X224162086Y-181302767D01*
X224481645Y-180983765D01*
X224654803Y-180566756D01*
X224655197Y-180115225D01*
X224482767Y-179697914D01*
X224163765Y-179378355D01*
X223746756Y-179205197D01*
X223295225Y-179204803D01*
X222877914Y-179377233D01*
X222558355Y-179696235D01*
X222385197Y-180113244D01*
X222384803Y-180564775D01*
X219837000Y-180564775D01*
X219837000Y-171577000D01*
X227203000Y-171577000D01*
X227203000Y-184023000D01*
G36*
X255143000Y-184023000D02*
X251385466Y-184023000D01*
X251355327Y-183992808D01*
X251011799Y-183850162D01*
X250639833Y-183849838D01*
X250296057Y-183991883D01*
X250264886Y-184023000D01*
X247777000Y-184023000D01*
X247777000Y-180564775D01*
X250324803Y-180564775D01*
X250497233Y-180982086D01*
X250816235Y-181301645D01*
X251233244Y-181474803D01*
X251684775Y-181475197D01*
X252102086Y-181302767D01*
X252421645Y-180983765D01*
X252594803Y-180566756D01*
X252595197Y-180115225D01*
X252422767Y-179697914D01*
X252103765Y-179378355D01*
X251686756Y-179205197D01*
X251235225Y-179204803D01*
X250817914Y-179377233D01*
X250498355Y-179696235D01*
X250325197Y-180113244D01*
X250324803Y-180564775D01*
X247777000Y-180564775D01*
X247777000Y-171577000D01*
X255143000Y-171577000D01*
X255143000Y-184023000D01*
X255143000Y-184023000D01*
G37*
X255143000Y-184023000D02*
X251385466Y-184023000D01*
X251355327Y-183992808D01*
X251011799Y-183850162D01*
X250639833Y-183849838D01*
X250296057Y-183991883D01*
X250264886Y-184023000D01*
X247777000Y-184023000D01*
X247777000Y-180564775D01*
X250324803Y-180564775D01*
X250497233Y-180982086D01*
X250816235Y-181301645D01*
X251233244Y-181474803D01*
X251684775Y-181475197D01*
X252102086Y-181302767D01*
X252421645Y-180983765D01*
X252594803Y-180566756D01*
X252595197Y-180115225D01*
X252422767Y-179697914D01*
X252103765Y-179378355D01*
X251686756Y-179205197D01*
X251235225Y-179204803D01*
X250817914Y-179377233D01*
X250498355Y-179696235D01*
X250325197Y-180113244D01*
X250324803Y-180564775D01*
X247777000Y-180564775D01*
X247777000Y-171577000D01*
X255143000Y-171577000D01*
X255143000Y-184023000D01*
G36*
X283083000Y-184023000D02*
X279325466Y-184023000D01*
X279295327Y-183992808D01*
X278951799Y-183850162D01*
X278579833Y-183849838D01*
X278236057Y-183991883D01*
X278204886Y-184023000D01*
X275717000Y-184023000D01*
X275717000Y-180564775D01*
X278264803Y-180564775D01*
X278437233Y-180982086D01*
X278756235Y-181301645D01*
X279173244Y-181474803D01*
X279624775Y-181475197D01*
X280042086Y-181302767D01*
X280361645Y-180983765D01*
X280534803Y-180566756D01*
X280535197Y-180115225D01*
X280362767Y-179697914D01*
X280043765Y-179378355D01*
X279626756Y-179205197D01*
X279175225Y-179204803D01*
X278757914Y-179377233D01*
X278438355Y-179696235D01*
X278265197Y-180113244D01*
X278264803Y-180564775D01*
X275717000Y-180564775D01*
X275717000Y-171577000D01*
X283083000Y-171577000D01*
X283083000Y-184023000D01*
X283083000Y-184023000D01*
G37*
X283083000Y-184023000D02*
X279325466Y-184023000D01*
X279295327Y-183992808D01*
X278951799Y-183850162D01*
X278579833Y-183849838D01*
X278236057Y-183991883D01*
X278204886Y-184023000D01*
X275717000Y-184023000D01*
X275717000Y-180564775D01*
X278264803Y-180564775D01*
X278437233Y-180982086D01*
X278756235Y-181301645D01*
X279173244Y-181474803D01*
X279624775Y-181475197D01*
X280042086Y-181302767D01*
X280361645Y-180983765D01*
X280534803Y-180566756D01*
X280535197Y-180115225D01*
X280362767Y-179697914D01*
X280043765Y-179378355D01*
X279626756Y-179205197D01*
X279175225Y-179204803D01*
X278757914Y-179377233D01*
X278438355Y-179696235D01*
X278265197Y-180113244D01*
X278264803Y-180564775D01*
X275717000Y-180564775D01*
X275717000Y-171577000D01*
X283083000Y-171577000D01*
X283083000Y-184023000D01*
G36*
X311023000Y-184023000D02*
X307265466Y-184023000D01*
X307235327Y-183992808D01*
X306891799Y-183850162D01*
X306519833Y-183849838D01*
X306176057Y-183991883D01*
X306144886Y-184023000D01*
X303657000Y-184023000D01*
X303657000Y-180564775D01*
X306204803Y-180564775D01*
X306377233Y-180982086D01*
X306696235Y-181301645D01*
X307113244Y-181474803D01*
X307564775Y-181475197D01*
X307982086Y-181302767D01*
X308301645Y-180983765D01*
X308474803Y-180566756D01*
X308475197Y-180115225D01*
X308302767Y-179697914D01*
X307983765Y-179378355D01*
X307566756Y-179205197D01*
X307115225Y-179204803D01*
X306697914Y-179377233D01*
X306378355Y-179696235D01*
X306205197Y-180113244D01*
X306204803Y-180564775D01*
X303657000Y-180564775D01*
X303657000Y-171577000D01*
X311023000Y-171577000D01*
X311023000Y-184023000D01*
X311023000Y-184023000D01*
G37*
X311023000Y-184023000D02*
X307265466Y-184023000D01*
X307235327Y-183992808D01*
X306891799Y-183850162D01*
X306519833Y-183849838D01*
X306176057Y-183991883D01*
X306144886Y-184023000D01*
X303657000Y-184023000D01*
X303657000Y-180564775D01*
X306204803Y-180564775D01*
X306377233Y-180982086D01*
X306696235Y-181301645D01*
X307113244Y-181474803D01*
X307564775Y-181475197D01*
X307982086Y-181302767D01*
X308301645Y-180983765D01*
X308474803Y-180566756D01*
X308475197Y-180115225D01*
X308302767Y-179697914D01*
X307983765Y-179378355D01*
X307566756Y-179205197D01*
X307115225Y-179204803D01*
X306697914Y-179377233D01*
X306378355Y-179696235D01*
X306205197Y-180113244D01*
X306204803Y-180564775D01*
X303657000Y-180564775D01*
X303657000Y-171577000D01*
X311023000Y-171577000D01*
X311023000Y-184023000D01*
G36*
X338963000Y-184023000D02*
X335205466Y-184023000D01*
X335175327Y-183992808D01*
X334831799Y-183850162D01*
X334459833Y-183849838D01*
X334116057Y-183991883D01*
X334084886Y-184023000D01*
X331597000Y-184023000D01*
X331597000Y-180564775D01*
X334144803Y-180564775D01*
X334317233Y-180982086D01*
X334636235Y-181301645D01*
X335053244Y-181474803D01*
X335504775Y-181475197D01*
X335922086Y-181302767D01*
X336241645Y-180983765D01*
X336414803Y-180566756D01*
X336415197Y-180115225D01*
X336242767Y-179697914D01*
X335923765Y-179378355D01*
X335506756Y-179205197D01*
X335055225Y-179204803D01*
X334637914Y-179377233D01*
X334318355Y-179696235D01*
X334145197Y-180113244D01*
X334144803Y-180564775D01*
X331597000Y-180564775D01*
X331597000Y-171577000D01*
X338963000Y-171577000D01*
X338963000Y-184023000D01*
X338963000Y-184023000D01*
G37*
X338963000Y-184023000D02*
X335205466Y-184023000D01*
X335175327Y-183992808D01*
X334831799Y-183850162D01*
X334459833Y-183849838D01*
X334116057Y-183991883D01*
X334084886Y-184023000D01*
X331597000Y-184023000D01*
X331597000Y-180564775D01*
X334144803Y-180564775D01*
X334317233Y-180982086D01*
X334636235Y-181301645D01*
X335053244Y-181474803D01*
X335504775Y-181475197D01*
X335922086Y-181302767D01*
X336241645Y-180983765D01*
X336414803Y-180566756D01*
X336415197Y-180115225D01*
X336242767Y-179697914D01*
X335923765Y-179378355D01*
X335506756Y-179205197D01*
X335055225Y-179204803D01*
X334637914Y-179377233D01*
X334318355Y-179696235D01*
X334145197Y-180113244D01*
X334144803Y-180564775D01*
X331597000Y-180564775D01*
X331597000Y-171577000D01*
X338963000Y-171577000D01*
X338963000Y-184023000D01*
G36*
X366903000Y-184023000D02*
X363145466Y-184023000D01*
X363115327Y-183992808D01*
X362771799Y-183850162D01*
X362399833Y-183849838D01*
X362056057Y-183991883D01*
X362024886Y-184023000D01*
X359537000Y-184023000D01*
X359537000Y-180564775D01*
X362084803Y-180564775D01*
X362257233Y-180982086D01*
X362576235Y-181301645D01*
X362993244Y-181474803D01*
X363444775Y-181475197D01*
X363862086Y-181302767D01*
X364181645Y-180983765D01*
X364354803Y-180566756D01*
X364355197Y-180115225D01*
X364182767Y-179697914D01*
X363863765Y-179378355D01*
X363446756Y-179205197D01*
X362995225Y-179204803D01*
X362577914Y-179377233D01*
X362258355Y-179696235D01*
X362085197Y-180113244D01*
X362084803Y-180564775D01*
X359537000Y-180564775D01*
X359537000Y-171577000D01*
X366903000Y-171577000D01*
X366903000Y-184023000D01*
X366903000Y-184023000D01*
G37*
X366903000Y-184023000D02*
X363145466Y-184023000D01*
X363115327Y-183992808D01*
X362771799Y-183850162D01*
X362399833Y-183849838D01*
X362056057Y-183991883D01*
X362024886Y-184023000D01*
X359537000Y-184023000D01*
X359537000Y-180564775D01*
X362084803Y-180564775D01*
X362257233Y-180982086D01*
X362576235Y-181301645D01*
X362993244Y-181474803D01*
X363444775Y-181475197D01*
X363862086Y-181302767D01*
X364181645Y-180983765D01*
X364354803Y-180566756D01*
X364355197Y-180115225D01*
X364182767Y-179697914D01*
X363863765Y-179378355D01*
X363446756Y-179205197D01*
X362995225Y-179204803D01*
X362577914Y-179377233D01*
X362258355Y-179696235D01*
X362085197Y-180113244D01*
X362084803Y-180564775D01*
X359537000Y-180564775D01*
X359537000Y-171577000D01*
X366903000Y-171577000D01*
X366903000Y-184023000D01*
G36*
X143383000Y-285623000D02*
X139625466Y-285623000D01*
X139595327Y-285592808D01*
X139251799Y-285450162D01*
X138879833Y-285449838D01*
X138536057Y-285591883D01*
X138504886Y-285623000D01*
X136017000Y-285623000D01*
X136017000Y-282164775D01*
X138564803Y-282164775D01*
X138737233Y-282582086D01*
X139056235Y-282901645D01*
X139473244Y-283074803D01*
X139924775Y-283075197D01*
X140342086Y-282902767D01*
X140661645Y-282583765D01*
X140834803Y-282166756D01*
X140835197Y-281715225D01*
X140662767Y-281297914D01*
X140343765Y-280978355D01*
X139926756Y-280805197D01*
X139475225Y-280804803D01*
X139057914Y-280977233D01*
X138738355Y-281296235D01*
X138565197Y-281713244D01*
X138564803Y-282164775D01*
X136017000Y-282164775D01*
X136017000Y-273177000D01*
X143383000Y-273177000D01*
X143383000Y-285623000D01*
X143383000Y-285623000D01*
G37*
X143383000Y-285623000D02*
X139625466Y-285623000D01*
X139595327Y-285592808D01*
X139251799Y-285450162D01*
X138879833Y-285449838D01*
X138536057Y-285591883D01*
X138504886Y-285623000D01*
X136017000Y-285623000D01*
X136017000Y-282164775D01*
X138564803Y-282164775D01*
X138737233Y-282582086D01*
X139056235Y-282901645D01*
X139473244Y-283074803D01*
X139924775Y-283075197D01*
X140342086Y-282902767D01*
X140661645Y-282583765D01*
X140834803Y-282166756D01*
X140835197Y-281715225D01*
X140662767Y-281297914D01*
X140343765Y-280978355D01*
X139926756Y-280805197D01*
X139475225Y-280804803D01*
X139057914Y-280977233D01*
X138738355Y-281296235D01*
X138565197Y-281713244D01*
X138564803Y-282164775D01*
X136017000Y-282164775D01*
X136017000Y-273177000D01*
X143383000Y-273177000D01*
X143383000Y-285623000D01*
G36*
X171323000Y-285623000D02*
X167565466Y-285623000D01*
X167535327Y-285592808D01*
X167191799Y-285450162D01*
X166819833Y-285449838D01*
X166476057Y-285591883D01*
X166444886Y-285623000D01*
X163957000Y-285623000D01*
X163957000Y-282164775D01*
X166504803Y-282164775D01*
X166677233Y-282582086D01*
X166996235Y-282901645D01*
X167413244Y-283074803D01*
X167864775Y-283075197D01*
X168282086Y-282902767D01*
X168601645Y-282583765D01*
X168774803Y-282166756D01*
X168775197Y-281715225D01*
X168602767Y-281297914D01*
X168283765Y-280978355D01*
X167866756Y-280805197D01*
X167415225Y-280804803D01*
X166997914Y-280977233D01*
X166678355Y-281296235D01*
X166505197Y-281713244D01*
X166504803Y-282164775D01*
X163957000Y-282164775D01*
X163957000Y-273177000D01*
X171323000Y-273177000D01*
X171323000Y-285623000D01*
X171323000Y-285623000D01*
G37*
X171323000Y-285623000D02*
X167565466Y-285623000D01*
X167535327Y-285592808D01*
X167191799Y-285450162D01*
X166819833Y-285449838D01*
X166476057Y-285591883D01*
X166444886Y-285623000D01*
X163957000Y-285623000D01*
X163957000Y-282164775D01*
X166504803Y-282164775D01*
X166677233Y-282582086D01*
X166996235Y-282901645D01*
X167413244Y-283074803D01*
X167864775Y-283075197D01*
X168282086Y-282902767D01*
X168601645Y-282583765D01*
X168774803Y-282166756D01*
X168775197Y-281715225D01*
X168602767Y-281297914D01*
X168283765Y-280978355D01*
X167866756Y-280805197D01*
X167415225Y-280804803D01*
X166997914Y-280977233D01*
X166678355Y-281296235D01*
X166505197Y-281713244D01*
X166504803Y-282164775D01*
X163957000Y-282164775D01*
X163957000Y-273177000D01*
X171323000Y-273177000D01*
X171323000Y-285623000D01*
G36*
X199263000Y-285623000D02*
X195505466Y-285623000D01*
X195475327Y-285592808D01*
X195131799Y-285450162D01*
X194759833Y-285449838D01*
X194416057Y-285591883D01*
X194384886Y-285623000D01*
X191897000Y-285623000D01*
X191897000Y-282164775D01*
X194444803Y-282164775D01*
X194617233Y-282582086D01*
X194936235Y-282901645D01*
X195353244Y-283074803D01*
X195804775Y-283075197D01*
X196222086Y-282902767D01*
X196541645Y-282583765D01*
X196714803Y-282166756D01*
X196715197Y-281715225D01*
X196542767Y-281297914D01*
X196223765Y-280978355D01*
X195806756Y-280805197D01*
X195355225Y-280804803D01*
X194937914Y-280977233D01*
X194618355Y-281296235D01*
X194445197Y-281713244D01*
X194444803Y-282164775D01*
X191897000Y-282164775D01*
X191897000Y-273177000D01*
X199263000Y-273177000D01*
X199263000Y-285623000D01*
X199263000Y-285623000D01*
G37*
X199263000Y-285623000D02*
X195505466Y-285623000D01*
X195475327Y-285592808D01*
X195131799Y-285450162D01*
X194759833Y-285449838D01*
X194416057Y-285591883D01*
X194384886Y-285623000D01*
X191897000Y-285623000D01*
X191897000Y-282164775D01*
X194444803Y-282164775D01*
X194617233Y-282582086D01*
X194936235Y-282901645D01*
X195353244Y-283074803D01*
X195804775Y-283075197D01*
X196222086Y-282902767D01*
X196541645Y-282583765D01*
X196714803Y-282166756D01*
X196715197Y-281715225D01*
X196542767Y-281297914D01*
X196223765Y-280978355D01*
X195806756Y-280805197D01*
X195355225Y-280804803D01*
X194937914Y-280977233D01*
X194618355Y-281296235D01*
X194445197Y-281713244D01*
X194444803Y-282164775D01*
X191897000Y-282164775D01*
X191897000Y-273177000D01*
X199263000Y-273177000D01*
X199263000Y-285623000D01*
G36*
X227203000Y-285623000D02*
X223445466Y-285623000D01*
X223415327Y-285592808D01*
X223071799Y-285450162D01*
X222699833Y-285449838D01*
X222356057Y-285591883D01*
X222324886Y-285623000D01*
X219837000Y-285623000D01*
X219837000Y-282164775D01*
X222384803Y-282164775D01*
X222557233Y-282582086D01*
X222876235Y-282901645D01*
X223293244Y-283074803D01*
X223744775Y-283075197D01*
X224162086Y-282902767D01*
X224481645Y-282583765D01*
X224654803Y-282166756D01*
X224655197Y-281715225D01*
X224482767Y-281297914D01*
X224163765Y-280978355D01*
X223746756Y-280805197D01*
X223295225Y-280804803D01*
X222877914Y-280977233D01*
X222558355Y-281296235D01*
X222385197Y-281713244D01*
X222384803Y-282164775D01*
X219837000Y-282164775D01*
X219837000Y-273177000D01*
X227203000Y-273177000D01*
X227203000Y-285623000D01*
X227203000Y-285623000D01*
G37*
X227203000Y-285623000D02*
X223445466Y-285623000D01*
X223415327Y-285592808D01*
X223071799Y-285450162D01*
X222699833Y-285449838D01*
X222356057Y-285591883D01*
X222324886Y-285623000D01*
X219837000Y-285623000D01*
X219837000Y-282164775D01*
X222384803Y-282164775D01*
X222557233Y-282582086D01*
X222876235Y-282901645D01*
X223293244Y-283074803D01*
X223744775Y-283075197D01*
X224162086Y-282902767D01*
X224481645Y-282583765D01*
X224654803Y-282166756D01*
X224655197Y-281715225D01*
X224482767Y-281297914D01*
X224163765Y-280978355D01*
X223746756Y-280805197D01*
X223295225Y-280804803D01*
X222877914Y-280977233D01*
X222558355Y-281296235D01*
X222385197Y-281713244D01*
X222384803Y-282164775D01*
X219837000Y-282164775D01*
X219837000Y-273177000D01*
X227203000Y-273177000D01*
X227203000Y-285623000D01*
G36*
X255143000Y-285623000D02*
X251385466Y-285623000D01*
X251355327Y-285592808D01*
X251011799Y-285450162D01*
X250639833Y-285449838D01*
X250296057Y-285591883D01*
X250264886Y-285623000D01*
X247777000Y-285623000D01*
X247777000Y-282164775D01*
X250324803Y-282164775D01*
X250497233Y-282582086D01*
X250816235Y-282901645D01*
X251233244Y-283074803D01*
X251684775Y-283075197D01*
X252102086Y-282902767D01*
X252421645Y-282583765D01*
X252594803Y-282166756D01*
X252595197Y-281715225D01*
X252422767Y-281297914D01*
X252103765Y-280978355D01*
X251686756Y-280805197D01*
X251235225Y-280804803D01*
X250817914Y-280977233D01*
X250498355Y-281296235D01*
X250325197Y-281713244D01*
X250324803Y-282164775D01*
X247777000Y-282164775D01*
X247777000Y-273177000D01*
X255143000Y-273177000D01*
X255143000Y-285623000D01*
X255143000Y-285623000D01*
G37*
X255143000Y-285623000D02*
X251385466Y-285623000D01*
X251355327Y-285592808D01*
X251011799Y-285450162D01*
X250639833Y-285449838D01*
X250296057Y-285591883D01*
X250264886Y-285623000D01*
X247777000Y-285623000D01*
X247777000Y-282164775D01*
X250324803Y-282164775D01*
X250497233Y-282582086D01*
X250816235Y-282901645D01*
X251233244Y-283074803D01*
X251684775Y-283075197D01*
X252102086Y-282902767D01*
X252421645Y-282583765D01*
X252594803Y-282166756D01*
X252595197Y-281715225D01*
X252422767Y-281297914D01*
X252103765Y-280978355D01*
X251686756Y-280805197D01*
X251235225Y-280804803D01*
X250817914Y-280977233D01*
X250498355Y-281296235D01*
X250325197Y-281713244D01*
X250324803Y-282164775D01*
X247777000Y-282164775D01*
X247777000Y-273177000D01*
X255143000Y-273177000D01*
X255143000Y-285623000D01*
G36*
X283083000Y-285623000D02*
X279325466Y-285623000D01*
X279295327Y-285592808D01*
X278951799Y-285450162D01*
X278579833Y-285449838D01*
X278236057Y-285591883D01*
X278204886Y-285623000D01*
X275717000Y-285623000D01*
X275717000Y-282164775D01*
X278264803Y-282164775D01*
X278437233Y-282582086D01*
X278756235Y-282901645D01*
X279173244Y-283074803D01*
X279624775Y-283075197D01*
X280042086Y-282902767D01*
X280361645Y-282583765D01*
X280534803Y-282166756D01*
X280535197Y-281715225D01*
X280362767Y-281297914D01*
X280043765Y-280978355D01*
X279626756Y-280805197D01*
X279175225Y-280804803D01*
X278757914Y-280977233D01*
X278438355Y-281296235D01*
X278265197Y-281713244D01*
X278264803Y-282164775D01*
X275717000Y-282164775D01*
X275717000Y-273177000D01*
X283083000Y-273177000D01*
X283083000Y-285623000D01*
X283083000Y-285623000D01*
G37*
X283083000Y-285623000D02*
X279325466Y-285623000D01*
X279295327Y-285592808D01*
X278951799Y-285450162D01*
X278579833Y-285449838D01*
X278236057Y-285591883D01*
X278204886Y-285623000D01*
X275717000Y-285623000D01*
X275717000Y-282164775D01*
X278264803Y-282164775D01*
X278437233Y-282582086D01*
X278756235Y-282901645D01*
X279173244Y-283074803D01*
X279624775Y-283075197D01*
X280042086Y-282902767D01*
X280361645Y-282583765D01*
X280534803Y-282166756D01*
X280535197Y-281715225D01*
X280362767Y-281297914D01*
X280043765Y-280978355D01*
X279626756Y-280805197D01*
X279175225Y-280804803D01*
X278757914Y-280977233D01*
X278438355Y-281296235D01*
X278265197Y-281713244D01*
X278264803Y-282164775D01*
X275717000Y-282164775D01*
X275717000Y-273177000D01*
X283083000Y-273177000D01*
X283083000Y-285623000D01*
G36*
X311023000Y-285623000D02*
X307265466Y-285623000D01*
X307235327Y-285592808D01*
X306891799Y-285450162D01*
X306519833Y-285449838D01*
X306176057Y-285591883D01*
X306144886Y-285623000D01*
X303657000Y-285623000D01*
X303657000Y-282164775D01*
X306204803Y-282164775D01*
X306377233Y-282582086D01*
X306696235Y-282901645D01*
X307113244Y-283074803D01*
X307564775Y-283075197D01*
X307982086Y-282902767D01*
X308301645Y-282583765D01*
X308474803Y-282166756D01*
X308475197Y-281715225D01*
X308302767Y-281297914D01*
X307983765Y-280978355D01*
X307566756Y-280805197D01*
X307115225Y-280804803D01*
X306697914Y-280977233D01*
X306378355Y-281296235D01*
X306205197Y-281713244D01*
X306204803Y-282164775D01*
X303657000Y-282164775D01*
X303657000Y-273177000D01*
X311023000Y-273177000D01*
X311023000Y-285623000D01*
X311023000Y-285623000D01*
G37*
X311023000Y-285623000D02*
X307265466Y-285623000D01*
X307235327Y-285592808D01*
X306891799Y-285450162D01*
X306519833Y-285449838D01*
X306176057Y-285591883D01*
X306144886Y-285623000D01*
X303657000Y-285623000D01*
X303657000Y-282164775D01*
X306204803Y-282164775D01*
X306377233Y-282582086D01*
X306696235Y-282901645D01*
X307113244Y-283074803D01*
X307564775Y-283075197D01*
X307982086Y-282902767D01*
X308301645Y-282583765D01*
X308474803Y-282166756D01*
X308475197Y-281715225D01*
X308302767Y-281297914D01*
X307983765Y-280978355D01*
X307566756Y-280805197D01*
X307115225Y-280804803D01*
X306697914Y-280977233D01*
X306378355Y-281296235D01*
X306205197Y-281713244D01*
X306204803Y-282164775D01*
X303657000Y-282164775D01*
X303657000Y-273177000D01*
X311023000Y-273177000D01*
X311023000Y-285623000D01*
G36*
X338963000Y-285623000D02*
X335205466Y-285623000D01*
X335175327Y-285592808D01*
X334831799Y-285450162D01*
X334459833Y-285449838D01*
X334116057Y-285591883D01*
X334084886Y-285623000D01*
X331597000Y-285623000D01*
X331597000Y-282164775D01*
X334144803Y-282164775D01*
X334317233Y-282582086D01*
X334636235Y-282901645D01*
X335053244Y-283074803D01*
X335504775Y-283075197D01*
X335922086Y-282902767D01*
X336241645Y-282583765D01*
X336414803Y-282166756D01*
X336415197Y-281715225D01*
X336242767Y-281297914D01*
X335923765Y-280978355D01*
X335506756Y-280805197D01*
X335055225Y-280804803D01*
X334637914Y-280977233D01*
X334318355Y-281296235D01*
X334145197Y-281713244D01*
X334144803Y-282164775D01*
X331597000Y-282164775D01*
X331597000Y-273177000D01*
X338963000Y-273177000D01*
X338963000Y-285623000D01*
X338963000Y-285623000D01*
G37*
X338963000Y-285623000D02*
X335205466Y-285623000D01*
X335175327Y-285592808D01*
X334831799Y-285450162D01*
X334459833Y-285449838D01*
X334116057Y-285591883D01*
X334084886Y-285623000D01*
X331597000Y-285623000D01*
X331597000Y-282164775D01*
X334144803Y-282164775D01*
X334317233Y-282582086D01*
X334636235Y-282901645D01*
X335053244Y-283074803D01*
X335504775Y-283075197D01*
X335922086Y-282902767D01*
X336241645Y-282583765D01*
X336414803Y-282166756D01*
X336415197Y-281715225D01*
X336242767Y-281297914D01*
X335923765Y-280978355D01*
X335506756Y-280805197D01*
X335055225Y-280804803D01*
X334637914Y-280977233D01*
X334318355Y-281296235D01*
X334145197Y-281713244D01*
X334144803Y-282164775D01*
X331597000Y-282164775D01*
X331597000Y-273177000D01*
X338963000Y-273177000D01*
X338963000Y-285623000D01*
G36*
X366903000Y-285623000D02*
X363145466Y-285623000D01*
X363115327Y-285592808D01*
X362771799Y-285450162D01*
X362399833Y-285449838D01*
X362056057Y-285591883D01*
X362024886Y-285623000D01*
X359537000Y-285623000D01*
X359537000Y-282164775D01*
X362084803Y-282164775D01*
X362257233Y-282582086D01*
X362576235Y-282901645D01*
X362993244Y-283074803D01*
X363444775Y-283075197D01*
X363862086Y-282902767D01*
X364181645Y-282583765D01*
X364354803Y-282166756D01*
X364355197Y-281715225D01*
X364182767Y-281297914D01*
X363863765Y-280978355D01*
X363446756Y-280805197D01*
X362995225Y-280804803D01*
X362577914Y-280977233D01*
X362258355Y-281296235D01*
X362085197Y-281713244D01*
X362084803Y-282164775D01*
X359537000Y-282164775D01*
X359537000Y-273177000D01*
X366903000Y-273177000D01*
X366903000Y-285623000D01*
X366903000Y-285623000D01*
G37*
X366903000Y-285623000D02*
X363145466Y-285623000D01*
X363115327Y-285592808D01*
X362771799Y-285450162D01*
X362399833Y-285449838D01*
X362056057Y-285591883D01*
X362024886Y-285623000D01*
X359537000Y-285623000D01*
X359537000Y-282164775D01*
X362084803Y-282164775D01*
X362257233Y-282582086D01*
X362576235Y-282901645D01*
X362993244Y-283074803D01*
X363444775Y-283075197D01*
X363862086Y-282902767D01*
X364181645Y-282583765D01*
X364354803Y-282166756D01*
X364355197Y-281715225D01*
X364182767Y-281297914D01*
X363863765Y-280978355D01*
X363446756Y-280805197D01*
X362995225Y-280804803D01*
X362577914Y-280977233D01*
X362258355Y-281296235D01*
X362085197Y-281713244D01*
X362084803Y-282164775D01*
X359537000Y-282164775D01*
X359537000Y-273177000D01*
X366903000Y-273177000D01*
X366903000Y-285623000D01*
M02*
