G04 #@! TF.FileFunction,Copper,L2,Inr,Signal*
%FSLAX46Y46*%
G04 Gerber Fmt 4.6, Leading zero omitted, Abs format (unit mm)*
G04 Created by KiCad (PCBNEW 4.0.7) date Tue Feb 20 14:11:54 2018*
%MOMM*%
%LPD*%
G01*
G04 APERTURE LIST*
%ADD10C,0.100000*%
%ADD11C,1.600000*%
%ADD12R,1.600000X1.600000*%
%ADD13C,0.600000*%
%ADD14C,0.250000*%
G04 APERTURE END LIST*
D10*
D11*
X401320000Y-66040000D03*
X401320000Y-68580000D03*
D12*
X401320000Y-71120000D03*
D11*
X401320000Y-73660000D03*
X401320000Y-76200000D03*
X401320000Y-78740000D03*
X401320000Y-81280000D03*
X401320000Y-83820000D03*
X401320000Y-86360000D03*
X401320000Y-88900000D03*
X401320000Y-91440000D03*
X401320000Y-93980000D03*
D12*
X401320000Y-96520000D03*
D11*
X401320000Y-99060000D03*
X401320000Y-101600000D03*
X401320000Y-104140000D03*
X401320000Y-106680000D03*
X401320000Y-109220000D03*
X401320000Y-111760000D03*
X401320000Y-114300000D03*
X401320000Y-116840000D03*
X401320000Y-119380000D03*
D12*
X401320000Y-121920000D03*
D11*
X401320000Y-124460000D03*
X401320000Y-127000000D03*
X401320000Y-129540000D03*
X401320000Y-132080000D03*
X401320000Y-134620000D03*
X401320000Y-137160000D03*
X401320000Y-139700000D03*
X401320000Y-142240000D03*
D12*
X401320000Y-144780000D03*
D11*
X403860000Y-66040000D03*
X403860000Y-68580000D03*
D12*
X403860000Y-71120000D03*
D11*
X403860000Y-73660000D03*
X403860000Y-76200000D03*
X403860000Y-78740000D03*
X403860000Y-81280000D03*
X403860000Y-83820000D03*
X403860000Y-86360000D03*
X403860000Y-88900000D03*
X403860000Y-91440000D03*
X403860000Y-93980000D03*
D12*
X403860000Y-96520000D03*
D11*
X403860000Y-99060000D03*
X403860000Y-101600000D03*
X403860000Y-104140000D03*
X403860000Y-106680000D03*
X403860000Y-109220000D03*
X403860000Y-111760000D03*
X403860000Y-114300000D03*
X403860000Y-116840000D03*
X403860000Y-119380000D03*
D12*
X403860000Y-121920000D03*
D11*
X403860000Y-124460000D03*
X403860000Y-127000000D03*
X403860000Y-129540000D03*
X403860000Y-132080000D03*
X403860000Y-134620000D03*
X403860000Y-137160000D03*
X403860000Y-139700000D03*
X406400000Y-66040000D03*
X406400000Y-68580000D03*
D12*
X406400000Y-71120000D03*
D11*
X406400000Y-73660000D03*
X406400000Y-76200000D03*
X406400000Y-78740000D03*
X406400000Y-81280000D03*
X406400000Y-83820000D03*
X406400000Y-86360000D03*
X406400000Y-88900000D03*
X406400000Y-91440000D03*
X406400000Y-93980000D03*
D12*
X406400000Y-96520000D03*
D11*
X406400000Y-99060000D03*
X406400000Y-101600000D03*
X406400000Y-104140000D03*
X406400000Y-106680000D03*
X406400000Y-109220000D03*
X406400000Y-111760000D03*
D12*
X406400000Y-114300000D03*
D11*
X406400000Y-116840000D03*
X406400000Y-119380000D03*
D12*
X406400000Y-121920000D03*
D11*
X406400000Y-124460000D03*
X406400000Y-127000000D03*
X406400000Y-129540000D03*
X406400000Y-132080000D03*
X406400000Y-134620000D03*
X406400000Y-137160000D03*
X406400000Y-139700000D03*
D12*
X406400000Y-144780000D03*
D13*
X133350000Y-127000000D03*
X132080000Y-106680000D03*
X142875000Y-144145000D03*
X144145000Y-144145000D03*
X148590000Y-101200000D03*
X129540000Y-101200000D03*
X130810000Y-101200000D03*
X149860000Y-101200000D03*
X130810000Y-98200000D03*
X148590000Y-98200000D03*
X149919759Y-98200000D03*
X129540000Y-98200000D03*
X170815000Y-144145000D03*
X172085000Y-144145000D03*
X198755000Y-144145000D03*
X200025000Y-144145000D03*
X158750000Y-98200000D03*
X176530000Y-98200000D03*
X157480000Y-98200000D03*
X177800000Y-98200000D03*
X176530000Y-101200000D03*
X177800000Y-101200000D03*
X158750000Y-101200000D03*
X157480000Y-101200000D03*
X161290000Y-127000000D03*
X160020000Y-106680000D03*
X204470000Y-98200000D03*
X186690000Y-98200000D03*
X185420000Y-98200000D03*
X205799759Y-98200000D03*
X205740000Y-101200000D03*
X204529759Y-101200000D03*
X186690000Y-101200000D03*
X185420000Y-101200000D03*
X189230000Y-127000000D03*
X189230000Y-105410000D03*
X167640000Y-73660000D03*
X195580000Y-73660000D03*
X223520000Y-73660000D03*
X251460000Y-73660000D03*
X279400000Y-73660000D03*
X307340000Y-73660000D03*
X170180000Y-71120000D03*
X198120000Y-71120000D03*
X226060000Y-71120000D03*
X254000000Y-71120000D03*
X281940000Y-71120000D03*
X309880000Y-71120000D03*
X167640000Y-71120000D03*
X195580000Y-71120000D03*
X223520000Y-71120000D03*
X251460000Y-71120000D03*
X279400000Y-71120000D03*
X307340000Y-71120000D03*
X165100000Y-71120000D03*
X193040000Y-71120000D03*
X220980000Y-71120000D03*
X248920000Y-71120000D03*
X276860000Y-71120000D03*
X304800000Y-71120000D03*
X170180000Y-73660000D03*
X198120000Y-73660000D03*
X226060000Y-73660000D03*
X254000000Y-73660000D03*
X281940000Y-73660000D03*
X309880000Y-73660000D03*
X165100000Y-73660000D03*
X193040000Y-73660000D03*
X220980000Y-73660000D03*
X248920000Y-73660000D03*
X276860000Y-73660000D03*
X304800000Y-73660000D03*
X170180000Y-76200000D03*
X198120000Y-76200000D03*
X226060000Y-76200000D03*
X254000000Y-76200000D03*
X281940000Y-76200000D03*
X309880000Y-76200000D03*
X167640000Y-76200000D03*
X195580000Y-76200000D03*
X223520000Y-76200000D03*
X251460000Y-76200000D03*
X279400000Y-76200000D03*
X307340000Y-76200000D03*
X165100000Y-76200000D03*
X193040000Y-76200000D03*
X220980000Y-76200000D03*
X248920000Y-76200000D03*
X276860000Y-76200000D03*
X304800000Y-76200000D03*
X170180000Y-78740000D03*
X198120000Y-78740000D03*
X226060000Y-78740000D03*
X254000000Y-78740000D03*
X281940000Y-78740000D03*
X309880000Y-78740000D03*
X165100000Y-78740000D03*
X193040000Y-78740000D03*
X220980000Y-78740000D03*
X248920000Y-78740000D03*
X276860000Y-78740000D03*
X304800000Y-78740000D03*
X170180000Y-81280000D03*
X198120000Y-81280000D03*
X226060000Y-81280000D03*
X254000000Y-81280000D03*
X281940000Y-81280000D03*
X309880000Y-81280000D03*
X167640000Y-81280000D03*
X195580000Y-81280000D03*
X223520000Y-81280000D03*
X251460000Y-81280000D03*
X279400000Y-81280000D03*
X307340000Y-81280000D03*
X165100000Y-81280000D03*
X193040000Y-81280000D03*
X220980000Y-81280000D03*
X248920000Y-81280000D03*
X276860000Y-81280000D03*
X304800000Y-81280000D03*
X139700000Y-73660000D03*
X142240000Y-71120000D03*
X139700000Y-71120000D03*
X137160000Y-71120000D03*
X142240000Y-73660000D03*
X137160000Y-73660000D03*
X142240000Y-76200000D03*
X139700000Y-76200000D03*
X137160000Y-76200000D03*
X142240000Y-78740000D03*
X137160000Y-78740000D03*
X142240000Y-81280000D03*
X139700000Y-81280000D03*
X137160000Y-81280000D03*
X335280000Y-73660000D03*
X337820000Y-71120000D03*
X335280000Y-71120000D03*
X332740000Y-71120000D03*
X337820000Y-73660000D03*
X332740000Y-73660000D03*
X337820000Y-76200000D03*
X335280000Y-76200000D03*
X332740000Y-76200000D03*
X337820000Y-78740000D03*
X332740000Y-78740000D03*
X337820000Y-81280000D03*
X335280000Y-81280000D03*
X332740000Y-81280000D03*
X363220000Y-76200000D03*
X363220000Y-73660000D03*
X363220000Y-71120000D03*
X360680000Y-71120000D03*
X360680000Y-73660000D03*
X360680000Y-76200000D03*
X360680000Y-78740000D03*
X360680000Y-81280000D03*
X363220000Y-81280000D03*
X365760000Y-81280000D03*
X365760000Y-78740000D03*
X365760000Y-76200000D03*
X365760000Y-73660000D03*
X365760000Y-71120000D03*
X363220000Y-71120000D03*
X214630000Y-98200000D03*
X232410000Y-98200000D03*
X213360000Y-98200000D03*
X233739759Y-98200000D03*
X232410000Y-101200000D03*
X214630000Y-101200000D03*
X233680000Y-101200000D03*
X213360000Y-101200000D03*
X242570000Y-98200000D03*
X260350000Y-98200000D03*
X241300000Y-98200000D03*
X261679759Y-98200000D03*
X242570000Y-101200000D03*
X260350000Y-101200000D03*
X261620000Y-101200000D03*
X241300000Y-101200000D03*
X270510000Y-98200000D03*
X288290000Y-98200000D03*
X269240000Y-98200000D03*
X289619759Y-98200000D03*
X289560000Y-101200000D03*
X288290000Y-101200000D03*
X270510000Y-101200000D03*
X269240000Y-101200000D03*
X298450000Y-98200000D03*
X316230000Y-98200000D03*
X297180000Y-98200000D03*
X317559759Y-98200000D03*
X316230000Y-101200000D03*
X298450000Y-101200000D03*
X317559759Y-101200000D03*
X297180000Y-101200000D03*
X344170000Y-98200000D03*
X326390000Y-98200000D03*
X325120000Y-98200000D03*
X345440000Y-98200000D03*
X325120000Y-101200000D03*
X344170000Y-101200000D03*
X345440000Y-101200000D03*
X326390000Y-101200000D03*
X354330000Y-98200000D03*
X372110000Y-98200000D03*
X353060000Y-98200000D03*
X373439759Y-98200000D03*
X372110000Y-101200000D03*
X354330000Y-101200000D03*
X373439759Y-101200000D03*
X353060000Y-101200000D03*
X175260000Y-147320000D03*
X203200000Y-147320000D03*
X231140000Y-147320000D03*
X259080000Y-147320000D03*
X287020000Y-147320000D03*
X314960000Y-147320000D03*
X342900000Y-147320000D03*
X370840000Y-147320000D03*
X147320000Y-147320000D03*
X140970000Y-144145000D03*
X168910000Y-144145000D03*
X196850000Y-144145000D03*
X224790000Y-144145000D03*
X252730000Y-144145000D03*
X280670000Y-144145000D03*
X308610000Y-144145000D03*
X336550000Y-144145000D03*
X364490000Y-144145000D03*
X217170000Y-127000000D03*
X245110000Y-127000000D03*
X273050000Y-121920000D03*
X299720000Y-134620000D03*
X327660000Y-134620000D03*
X355600000Y-134620000D03*
X217170000Y-110490000D03*
X273050000Y-120650000D03*
X245110000Y-115570000D03*
X326390000Y-132080000D03*
X298450000Y-132080000D03*
X354330000Y-132080000D03*
X226695000Y-144145000D03*
X227965000Y-144145000D03*
X254635000Y-144145000D03*
X255905000Y-144145000D03*
X282575000Y-144145000D03*
X283845000Y-144145000D03*
X310515000Y-144145000D03*
X311785000Y-144145000D03*
X338455000Y-144145000D03*
X339725000Y-144145000D03*
X366395000Y-144145000D03*
X367665000Y-144145000D03*
X139065000Y-83185000D03*
X167005000Y-83185000D03*
X194945000Y-83185000D03*
X222885000Y-83185000D03*
X250825000Y-83185000D03*
X278765000Y-83185000D03*
X306705000Y-83185000D03*
X334645000Y-83185000D03*
X362585000Y-83185000D03*
X148590000Y-83185000D03*
X176530000Y-83185000D03*
X204470000Y-83185000D03*
X232410000Y-83185000D03*
X260350000Y-83185000D03*
X288290000Y-83185000D03*
X316230000Y-83185000D03*
X344170000Y-83185000D03*
X372110000Y-83185000D03*
D14*
X141605000Y-142875000D02*
X141605000Y-89535000D01*
X406400000Y-66040000D02*
X405130000Y-64770000D01*
X375920000Y-88900000D02*
X142240000Y-88900000D01*
X405130000Y-64770000D02*
X378460000Y-64770000D01*
X377190000Y-66040000D02*
X377190000Y-87630000D01*
X378460000Y-64770000D02*
X377190000Y-66040000D01*
X377190000Y-87630000D02*
X375920000Y-88900000D01*
X142240000Y-88900000D02*
X141605000Y-89535000D01*
X142875000Y-144145000D02*
X141605000Y-142875000D01*
X377190000Y-90170000D02*
X144780000Y-90170000D01*
X144145000Y-90805000D02*
X144145000Y-144145000D01*
X144780000Y-90170000D02*
X144145000Y-90805000D01*
X378460000Y-88900000D02*
X377190000Y-90170000D01*
X378460000Y-67310000D02*
X378460000Y-88900000D01*
X379730000Y-66040000D02*
X378460000Y-67310000D01*
X401320000Y-66040000D02*
X379730000Y-66040000D01*
X169545000Y-142875000D02*
X169545000Y-92075000D01*
X170180000Y-91440000D02*
X169545000Y-92075000D01*
X378460000Y-91440000D02*
X170180000Y-91440000D01*
X379730000Y-90170000D02*
X378460000Y-91440000D01*
X379730000Y-68580000D02*
X379730000Y-90170000D01*
X381000000Y-67310000D02*
X379730000Y-68580000D01*
X405130000Y-67310000D02*
X381000000Y-67310000D01*
X170815000Y-144145000D02*
X169545000Y-142875000D01*
X405130000Y-67310000D02*
X406400000Y-68580000D01*
X172085000Y-93345000D02*
X172085000Y-144145000D01*
X172720000Y-92710000D02*
X172085000Y-93345000D01*
X379730000Y-92710000D02*
X172720000Y-92710000D01*
X381000000Y-91440000D02*
X379730000Y-92710000D01*
X381000000Y-69850000D02*
X381000000Y-91440000D01*
X401320000Y-68580000D02*
X382270000Y-68580000D01*
X382270000Y-68580000D02*
X381000000Y-69850000D01*
X383540000Y-69850000D02*
X405130000Y-69850000D01*
X374650000Y-93980000D02*
X381000000Y-93980000D01*
X197485000Y-142875000D02*
X197485000Y-94615000D01*
X198120000Y-93980000D02*
X197485000Y-94615000D01*
X382270000Y-82550000D02*
X382270000Y-78740000D01*
X382270000Y-92710000D02*
X382270000Y-82550000D01*
X382270000Y-78740000D02*
X382270000Y-71120000D01*
X198755000Y-144145000D02*
X197485000Y-142875000D01*
X198120000Y-93980000D02*
X374650000Y-93980000D01*
X381000000Y-93980000D02*
X382270000Y-92710000D01*
X405130000Y-69850000D02*
X406400000Y-71120000D01*
X382270000Y-71120000D02*
X383540000Y-69850000D01*
X401320000Y-71120000D02*
X384810000Y-71120000D01*
X375920000Y-95250000D02*
X373380000Y-95250000D01*
X382270000Y-95250000D02*
X373380000Y-95250000D01*
X373380000Y-95250000D02*
X200660000Y-95250000D01*
X200025000Y-144145000D02*
X200025000Y-95885000D01*
X383540000Y-93980000D02*
X382270000Y-95250000D01*
X384810000Y-71120000D02*
X383540000Y-72390000D01*
X383540000Y-72390000D02*
X383540000Y-93980000D01*
X200660000Y-95250000D02*
X200025000Y-95885000D01*
X226695000Y-144145000D02*
X225425000Y-142875000D01*
X225425000Y-142875000D02*
X225425000Y-97155000D01*
X405130000Y-72390000D02*
X406400000Y-73660000D01*
X225425000Y-97155000D02*
X226060000Y-96520000D01*
X226060000Y-96520000D02*
X383540000Y-96520000D01*
X384810000Y-73660000D02*
X386080000Y-72390000D01*
X383540000Y-96520000D02*
X384810000Y-95250000D01*
X384810000Y-95250000D02*
X384810000Y-73660000D01*
X386080000Y-72390000D02*
X405130000Y-72390000D01*
X321310000Y-100330000D02*
X228600000Y-100330000D01*
X375920000Y-100330000D02*
X321310000Y-100330000D01*
X255352999Y-144409961D02*
X255640039Y-144697001D01*
X255527990Y-105888838D02*
X255527990Y-143705048D01*
X321310000Y-100330000D02*
X256006828Y-100330000D01*
X255352999Y-143880039D02*
X255352999Y-144409961D01*
X256006828Y-100330000D02*
X252987990Y-103348838D01*
X252987990Y-103348838D02*
X252987990Y-143314952D01*
X252987990Y-143314952D02*
X254370039Y-144697001D01*
X254899961Y-144697001D02*
X255187001Y-144409961D01*
X254370039Y-144697001D02*
X254899961Y-144697001D01*
X255187001Y-144409961D02*
X255187001Y-143880039D01*
X255187001Y-143880039D02*
X253742010Y-142435048D01*
X253742010Y-142435048D02*
X253742010Y-107674818D01*
X253742010Y-107674818D02*
X255527990Y-105888838D01*
X255527990Y-143705048D02*
X255352999Y-143880039D01*
X255640039Y-144697001D02*
X310779961Y-144697001D01*
X310779961Y-144697001D02*
X311067001Y-144409961D01*
X311067001Y-144409961D02*
X311067001Y-143880039D01*
X311067001Y-143880039D02*
X309622010Y-142435048D01*
X309622010Y-142435048D02*
X309622010Y-110011162D01*
X309622010Y-110011162D02*
X310036162Y-109597010D01*
X401320000Y-73660000D02*
X387350000Y-73660000D01*
X378460000Y-100330000D02*
X375920000Y-100330000D01*
X384810000Y-100330000D02*
X375920000Y-100330000D01*
X227965000Y-144145000D02*
X227965000Y-100965000D01*
X386080000Y-74930000D02*
X386080000Y-99060000D01*
X387350000Y-73660000D02*
X386080000Y-74930000D01*
X386080000Y-99060000D02*
X384810000Y-100330000D01*
X228600000Y-100330000D02*
X227965000Y-100965000D01*
X388620000Y-74930000D02*
X405130000Y-74930000D01*
X379730000Y-102870000D02*
X375920000Y-102870000D01*
X375920000Y-102870000D02*
X254000000Y-102870000D01*
X388620000Y-74930000D02*
X387350000Y-76200000D01*
X387350000Y-76200000D02*
X387350000Y-101600000D01*
X387350000Y-101600000D02*
X386080000Y-102870000D01*
X386080000Y-102870000D02*
X375920000Y-102870000D01*
X253365000Y-142875000D02*
X253365000Y-103505000D01*
X254000000Y-102870000D02*
X253365000Y-103505000D01*
X254635000Y-144145000D02*
X253365000Y-142875000D01*
X405130000Y-74930000D02*
X406400000Y-76200000D01*
X389890000Y-76200000D02*
X401320000Y-76200000D01*
X381000000Y-105410000D02*
X375920000Y-105410000D01*
X375920000Y-105410000D02*
X256540000Y-105410000D01*
X389890000Y-76200000D02*
X388620000Y-77470000D01*
X388620000Y-77470000D02*
X388620000Y-104140000D01*
X388620000Y-104140000D02*
X387350000Y-105410000D01*
X387350000Y-105410000D02*
X375920000Y-105410000D01*
X255905000Y-144145000D02*
X255905000Y-106045000D01*
X256540000Y-105410000D02*
X255905000Y-106045000D01*
X405130000Y-77470000D02*
X391160000Y-77470000D01*
X382270000Y-106680000D02*
X373380000Y-106680000D01*
X373380000Y-106680000D02*
X281940000Y-106680000D01*
X388620000Y-106680000D02*
X373380000Y-106680000D01*
X281305000Y-142875000D02*
X281305000Y-107315000D01*
X389890000Y-87630000D02*
X389890000Y-105410000D01*
X389890000Y-105410000D02*
X388620000Y-106680000D01*
X281940000Y-106680000D02*
X281305000Y-107315000D01*
X405130000Y-77470000D02*
X406400000Y-78740000D01*
X282575000Y-144145000D02*
X281305000Y-142875000D01*
X389890000Y-78740000D02*
X391160000Y-77470000D01*
X389890000Y-91440000D02*
X389890000Y-78740000D01*
X401320000Y-78740000D02*
X392430000Y-78740000D01*
X378460000Y-107950000D02*
X284480000Y-107950000D01*
X383540000Y-107950000D02*
X378460000Y-107950000D01*
X391160000Y-80010000D02*
X392430000Y-78740000D01*
X378460000Y-107950000D02*
X389890000Y-107950000D01*
X389890000Y-107950000D02*
X391160000Y-106680000D01*
X391160000Y-106680000D02*
X391160000Y-80010000D01*
X283845000Y-144145000D02*
X283845000Y-108585000D01*
X284480000Y-107950000D02*
X283845000Y-108585000D01*
X393700000Y-80010000D02*
X405130000Y-80010000D01*
X391160000Y-109220000D02*
X378460000Y-109220000D01*
X309245000Y-142875000D02*
X309245000Y-109855000D01*
X406400000Y-81280000D02*
X405130000Y-80010000D01*
X393700000Y-80010000D02*
X392430000Y-81280000D01*
X392430000Y-81280000D02*
X392430000Y-107950000D01*
X392430000Y-107950000D02*
X391160000Y-109220000D01*
X384810000Y-109220000D02*
X309880000Y-109220000D01*
X309880000Y-109220000D02*
X309245000Y-109855000D01*
X310515000Y-144145000D02*
X309245000Y-142875000D01*
X394970000Y-81280000D02*
X401320000Y-81280000D01*
X386080000Y-110490000D02*
X382270000Y-110490000D01*
X393700000Y-109220000D02*
X392430000Y-110490000D01*
X382270000Y-110490000D02*
X312420000Y-110490000D01*
X394970000Y-81280000D02*
X393700000Y-82550000D01*
X393700000Y-82550000D02*
X393700000Y-109220000D01*
X392430000Y-110490000D02*
X382270000Y-110490000D01*
X311785000Y-144145000D02*
X311785000Y-111125000D01*
X312420000Y-110490000D02*
X311785000Y-111125000D01*
X406400000Y-83820000D02*
X405130000Y-82550000D01*
X396240000Y-82550000D02*
X394970000Y-83820000D01*
X393700000Y-111760000D02*
X382270000Y-111760000D01*
X405130000Y-82550000D02*
X396240000Y-82550000D01*
X394970000Y-83820000D02*
X394970000Y-110490000D01*
X394970000Y-110490000D02*
X393700000Y-111760000D01*
X337185000Y-142875000D02*
X337185000Y-112395000D01*
X337820000Y-111760000D02*
X337185000Y-112395000D01*
X337820000Y-111760000D02*
X387350000Y-111760000D01*
X338455000Y-144145000D02*
X337185000Y-142875000D01*
X397510000Y-83820000D02*
X401320000Y-83820000D01*
X340360000Y-113030000D02*
X381000000Y-113030000D01*
X381000000Y-113030000D02*
X388620000Y-113030000D01*
X394970000Y-113030000D02*
X381000000Y-113030000D01*
X339725000Y-113665000D02*
X339725000Y-144145000D01*
X339725000Y-113665000D02*
X340360000Y-113030000D01*
X394970000Y-113030000D02*
X396240000Y-111760000D01*
X396240000Y-111760000D02*
X396240000Y-85090000D01*
X396240000Y-85090000D02*
X397510000Y-83820000D01*
X405130000Y-85090000D02*
X398780000Y-85090000D01*
X396240000Y-114300000D02*
X382270000Y-114300000D01*
X406400000Y-86360000D02*
X405130000Y-85090000D01*
X398780000Y-85090000D02*
X397510000Y-86360000D01*
X397510000Y-86360000D02*
X397510000Y-113030000D01*
X389890000Y-114300000D02*
X365760000Y-114300000D01*
X397510000Y-113030000D02*
X396240000Y-114300000D01*
X365760000Y-114300000D02*
X365125000Y-114935000D01*
X365125000Y-114935000D02*
X365125000Y-142875000D01*
X365125000Y-142875000D02*
X366395000Y-144145000D01*
X401320000Y-86360000D02*
X400050000Y-86360000D01*
X391160000Y-115570000D02*
X386080000Y-115570000D01*
X386080000Y-115570000D02*
X368300000Y-115570000D01*
X397510000Y-115570000D02*
X386080000Y-115570000D01*
X400050000Y-86360000D02*
X398780000Y-87630000D01*
X398780000Y-87630000D02*
X398780000Y-114300000D01*
X398780000Y-114300000D02*
X397510000Y-115570000D01*
X368300000Y-115570000D02*
X367665000Y-116205000D01*
X367665000Y-116205000D02*
X367665000Y-134161962D01*
X367665000Y-134161962D02*
X367665000Y-144145000D01*
X367665000Y-143600000D02*
X367665000Y-144145000D01*
M02*
