M48
;DRILL file {KiCad 4.0.6} date Wed Aug 16 17:30:34 2017
;FORMAT={-:-/ absolute / metric / decimal}
FMAT,2
METRIC,TZ
T1C0.400
T2C1.000
T3C1.270
T4C1.524
T5C1.800
%
G90
G05
M71
T1
X101.5Y-165.5
X102.Y-175.92
X102.Y-178.46
X103.Y-155.
X103.Y-260.
X104.Y-154.
X104.Y-178.46
X104.Y-259.
X105.Y-153.
X105.Y-175.92
X105.Y-258.
X106.5Y-151.5
X106.5Y-165.5
X106.5Y-256.5
X115.5Y-101.1
X115.5Y-104.7
X115.5Y-206.1
X115.5Y-209.7
X115.5Y-311.1
X115.5Y-314.7
X116.5Y-101.1
X116.5Y-104.7
X116.5Y-206.1
X116.5Y-209.7
X116.5Y-311.1
X116.5Y-314.7
X119.5Y-120.7
X119.5Y-151.5
X119.5Y-225.7
X119.5Y-256.5
X119.5Y-330.7
X119.5Y-361.5
X122.Y-107.5
X122.Y-111.5
X122.Y-115.5
X122.Y-119.5
X122.Y-212.5
X122.Y-216.5
X122.Y-220.5
X122.Y-224.5
X122.Y-317.5
X122.Y-321.5
X122.Y-325.5
X122.Y-329.5
X122.25Y-145.47
X122.25Y-146.59
X122.25Y-250.47
X122.25Y-251.59
X122.25Y-355.47
X122.25Y-356.59
X122.5Y-74.5
X122.5Y-78.5
X122.5Y-82.5
X122.5Y-86.5
X122.5Y-90.5
X122.5Y-94.5
X122.5Y-98.5
X122.5Y-123.5
X122.5Y-127.5
X122.5Y-131.5
X122.5Y-135.5
X122.5Y-139.5
X122.5Y-179.5
X122.5Y-183.5
X122.5Y-187.5
X122.5Y-191.5
X122.5Y-195.5
X122.5Y-199.5
X122.5Y-203.5
X122.5Y-228.5
X122.5Y-232.5
X122.5Y-236.5
X122.5Y-240.5
X122.5Y-244.5
X122.5Y-284.5
X122.5Y-288.5
X122.5Y-292.5
X122.5Y-296.5
X122.5Y-300.5
X122.5Y-304.5
X122.5Y-308.5
X122.5Y-333.5
X122.5Y-337.5
X122.5Y-341.5
X122.5Y-345.5
X122.5Y-349.5
X126.5Y-74.5
X126.5Y-78.5
X126.5Y-82.5
X126.5Y-86.5
X126.5Y-90.5
X126.5Y-94.5
X126.5Y-98.5
X126.5Y-107.5
X126.5Y-111.5
X126.5Y-115.5
X126.5Y-119.5
X126.5Y-123.5
X126.5Y-127.5
X126.5Y-131.5
X126.5Y-139.5
X126.5Y-147.
X126.5Y-153.
X126.5Y-179.5
X126.5Y-183.5
X126.5Y-187.5
X126.5Y-191.5
X126.5Y-195.5
X126.5Y-199.5
X126.5Y-203.5
X126.5Y-212.5
X126.5Y-216.5
X126.5Y-220.5
X126.5Y-224.5
X126.5Y-228.5
X126.5Y-232.5
X126.5Y-236.5
X126.5Y-244.5
X126.5Y-252.
X126.5Y-258.
X126.5Y-284.5
X126.5Y-288.5
X126.5Y-292.5
X126.5Y-296.5
X126.5Y-300.5
X126.5Y-304.5
X126.5Y-308.5
X126.5Y-317.5
X126.5Y-321.5
X126.5Y-325.5
X126.5Y-329.5
X126.5Y-333.5
X126.5Y-337.5
X126.5Y-341.5
X126.5Y-349.5
X126.5Y-357.
X126.5Y-363.
X127.5Y-147.
X127.5Y-154.
X127.5Y-252.
X127.5Y-259.
X127.5Y-357.
X127.5Y-364.
X128.5Y-147.
X128.5Y-155.
X128.5Y-252.
X128.5Y-260.
X128.5Y-357.
X128.5Y-365.
X132.5Y-101.1
X132.5Y-104.7
X132.5Y-206.1
X132.5Y-209.7
X132.5Y-311.1
X132.5Y-314.7
X133.5Y-101.1
X133.5Y-104.7
X133.5Y-206.1
X133.5Y-209.7
X133.5Y-311.1
X133.5Y-314.7
X145.5Y-101.1
X145.5Y-104.7
X145.5Y-206.1
X145.5Y-209.7
X145.5Y-311.1
X145.5Y-314.7
X146.5Y-101.1
X146.5Y-104.7
X146.5Y-206.1
X146.5Y-209.7
X146.5Y-311.1
X146.5Y-314.7
X149.5Y-120.7
X149.5Y-151.5
X149.5Y-225.7
X149.5Y-256.5
X149.5Y-330.7
X149.5Y-361.5
X152.Y-107.5
X152.Y-111.5
X152.Y-115.5
X152.Y-119.5
X152.Y-212.5
X152.Y-216.5
X152.Y-220.5
X152.Y-224.5
X152.Y-317.5
X152.Y-321.5
X152.Y-325.5
X152.Y-329.5
X152.25Y-145.47
X152.25Y-146.59
X152.25Y-250.47
X152.25Y-251.59
X152.25Y-355.47
X152.25Y-356.59
X152.5Y-74.5
X152.5Y-78.5
X152.5Y-82.5
X152.5Y-86.5
X152.5Y-90.5
X152.5Y-94.5
X152.5Y-98.5
X152.5Y-123.5
X152.5Y-127.5
X152.5Y-131.5
X152.5Y-135.5
X152.5Y-139.5
X152.5Y-179.5
X152.5Y-183.5
X152.5Y-187.5
X152.5Y-191.5
X152.5Y-195.5
X152.5Y-199.5
X152.5Y-203.5
X152.5Y-228.5
X152.5Y-232.5
X152.5Y-236.5
X152.5Y-240.5
X152.5Y-244.5
X152.5Y-284.5
X152.5Y-288.5
X152.5Y-292.5
X152.5Y-296.5
X152.5Y-300.5
X152.5Y-304.5
X152.5Y-308.5
X152.5Y-333.5
X152.5Y-337.5
X152.5Y-341.5
X152.5Y-345.5
X152.5Y-349.5
X156.5Y-74.5
X156.5Y-78.5
X156.5Y-82.5
X156.5Y-86.5
X156.5Y-90.5
X156.5Y-94.5
X156.5Y-98.5
X156.5Y-107.5
X156.5Y-111.5
X156.5Y-115.5
X156.5Y-119.5
X156.5Y-123.5
X156.5Y-127.5
X156.5Y-131.5
X156.5Y-139.5
X156.5Y-147.
X156.5Y-153.
X156.5Y-179.5
X156.5Y-183.5
X156.5Y-187.5
X156.5Y-191.5
X156.5Y-195.5
X156.5Y-199.5
X156.5Y-203.5
X156.5Y-212.5
X156.5Y-216.5
X156.5Y-220.5
X156.5Y-224.5
X156.5Y-228.5
X156.5Y-232.5
X156.5Y-236.5
X156.5Y-244.5
X156.5Y-252.
X156.5Y-258.
X156.5Y-284.5
X156.5Y-288.5
X156.5Y-292.5
X156.5Y-296.5
X156.5Y-300.5
X156.5Y-304.5
X156.5Y-308.5
X156.5Y-317.5
X156.5Y-321.5
X156.5Y-325.5
X156.5Y-329.5
X156.5Y-333.5
X156.5Y-337.5
X156.5Y-341.5
X156.5Y-349.5
X156.5Y-357.
X156.5Y-363.
X157.5Y-147.
X157.5Y-154.
X157.5Y-252.
X157.5Y-259.
X157.5Y-357.
X157.5Y-364.
X158.5Y-147.
X158.5Y-155.
X158.5Y-252.
X158.5Y-260.
X158.5Y-357.
X158.5Y-365.
X162.5Y-101.1
X162.5Y-104.7
X162.5Y-206.1
X162.5Y-209.7
X162.5Y-311.1
X162.5Y-314.7
X163.5Y-101.1
X163.5Y-104.7
X163.5Y-206.1
X163.5Y-209.7
X163.5Y-311.1
X163.5Y-314.7
X175.5Y-101.1
X175.5Y-104.7
X175.5Y-206.1
X175.5Y-209.7
X175.5Y-311.1
X175.5Y-314.7
X176.5Y-101.1
X176.5Y-104.7
X176.5Y-206.1
X176.5Y-209.7
X176.5Y-311.1
X176.5Y-314.7
X179.5Y-120.7
X179.5Y-151.5
X179.5Y-225.7
X179.5Y-256.5
X179.5Y-330.7
X179.5Y-361.5
X182.Y-107.5
X182.Y-111.5
X182.Y-115.5
X182.Y-119.5
X182.Y-212.5
X182.Y-216.5
X182.Y-220.5
X182.Y-224.5
X182.Y-317.5
X182.Y-321.5
X182.Y-325.5
X182.Y-329.5
X182.25Y-145.47
X182.25Y-146.59
X182.25Y-250.47
X182.25Y-251.59
X182.25Y-355.47
X182.25Y-356.59
X182.5Y-74.5
X182.5Y-78.5
X182.5Y-82.5
X182.5Y-86.5
X182.5Y-90.5
X182.5Y-94.5
X182.5Y-98.5
X182.5Y-123.5
X182.5Y-127.5
X182.5Y-131.5
X182.5Y-135.5
X182.5Y-139.5
X182.5Y-179.5
X182.5Y-183.5
X182.5Y-187.5
X182.5Y-191.5
X182.5Y-195.5
X182.5Y-199.5
X182.5Y-203.5
X182.5Y-228.5
X182.5Y-232.5
X182.5Y-236.5
X182.5Y-240.5
X182.5Y-244.5
X182.5Y-284.5
X182.5Y-288.5
X182.5Y-292.5
X182.5Y-296.5
X182.5Y-300.5
X182.5Y-304.5
X182.5Y-308.5
X182.5Y-333.5
X182.5Y-337.5
X182.5Y-341.5
X182.5Y-345.5
X182.5Y-349.5
X186.5Y-74.5
X186.5Y-78.5
X186.5Y-82.5
X186.5Y-86.5
X186.5Y-90.5
X186.5Y-94.5
X186.5Y-98.5
X186.5Y-107.5
X186.5Y-111.5
X186.5Y-115.5
X186.5Y-119.5
X186.5Y-123.5
X186.5Y-127.5
X186.5Y-131.5
X186.5Y-139.5
X186.5Y-147.
X186.5Y-153.
X186.5Y-179.5
X186.5Y-183.5
X186.5Y-187.5
X186.5Y-191.5
X186.5Y-195.5
X186.5Y-199.5
X186.5Y-203.5
X186.5Y-212.5
X186.5Y-216.5
X186.5Y-220.5
X186.5Y-224.5
X186.5Y-228.5
X186.5Y-232.5
X186.5Y-236.5
X186.5Y-244.5
X186.5Y-252.
X186.5Y-258.
X186.5Y-284.5
X186.5Y-288.5
X186.5Y-292.5
X186.5Y-296.5
X186.5Y-300.5
X186.5Y-304.5
X186.5Y-308.5
X186.5Y-317.5
X186.5Y-321.5
X186.5Y-325.5
X186.5Y-329.5
X186.5Y-333.5
X186.5Y-337.5
X186.5Y-341.5
X186.5Y-349.5
X186.5Y-357.
X186.5Y-363.
X187.5Y-147.
X187.5Y-154.
X187.5Y-252.
X187.5Y-259.
X187.5Y-357.
X187.5Y-364.
X188.5Y-147.
X188.5Y-155.
X188.5Y-252.
X188.5Y-260.
X188.5Y-357.
X188.5Y-365.
X192.5Y-101.1
X192.5Y-104.7
X192.5Y-206.1
X192.5Y-209.7
X192.5Y-311.1
X192.5Y-314.7
X193.5Y-101.1
X193.5Y-104.7
X193.5Y-206.1
X193.5Y-209.7
X193.5Y-311.1
X193.5Y-314.7
X205.5Y-101.1
X205.5Y-104.7
X205.5Y-206.1
X205.5Y-209.7
X205.5Y-311.1
X205.5Y-314.7
X206.5Y-101.1
X206.5Y-104.7
X206.5Y-206.1
X206.5Y-209.7
X206.5Y-311.1
X206.5Y-314.7
X209.5Y-120.7
X209.5Y-151.5
X209.5Y-225.7
X209.5Y-256.5
X209.5Y-330.7
X209.5Y-361.5
X212.Y-107.5
X212.Y-111.5
X212.Y-115.5
X212.Y-119.5
X212.Y-212.5
X212.Y-216.5
X212.Y-220.5
X212.Y-224.5
X212.Y-317.5
X212.Y-321.5
X212.Y-325.5
X212.Y-329.5
X212.25Y-145.47
X212.25Y-146.59
X212.25Y-250.47
X212.25Y-251.59
X212.25Y-355.47
X212.25Y-356.59
X212.5Y-74.5
X212.5Y-78.5
X212.5Y-82.5
X212.5Y-86.5
X212.5Y-90.5
X212.5Y-94.5
X212.5Y-98.5
X212.5Y-123.5
X212.5Y-127.5
X212.5Y-131.5
X212.5Y-135.5
X212.5Y-139.5
X212.5Y-179.5
X212.5Y-183.5
X212.5Y-187.5
X212.5Y-191.5
X212.5Y-195.5
X212.5Y-199.5
X212.5Y-203.5
X212.5Y-228.5
X212.5Y-232.5
X212.5Y-236.5
X212.5Y-240.5
X212.5Y-244.5
X212.5Y-284.5
X212.5Y-288.5
X212.5Y-292.5
X212.5Y-296.5
X212.5Y-300.5
X212.5Y-304.5
X212.5Y-308.5
X212.5Y-333.5
X212.5Y-337.5
X212.5Y-341.5
X212.5Y-345.5
X212.5Y-349.5
X216.5Y-74.5
X216.5Y-78.5
X216.5Y-82.5
X216.5Y-86.5
X216.5Y-90.5
X216.5Y-94.5
X216.5Y-98.5
X216.5Y-107.5
X216.5Y-111.5
X216.5Y-115.5
X216.5Y-119.5
X216.5Y-123.5
X216.5Y-127.5
X216.5Y-131.5
X216.5Y-139.5
X216.5Y-147.
X216.5Y-153.
X216.5Y-179.5
X216.5Y-183.5
X216.5Y-187.5
X216.5Y-191.5
X216.5Y-195.5
X216.5Y-199.5
X216.5Y-203.5
X216.5Y-212.5
X216.5Y-216.5
X216.5Y-220.5
X216.5Y-224.5
X216.5Y-228.5
X216.5Y-232.5
X216.5Y-236.5
X216.5Y-244.5
X216.5Y-252.
X216.5Y-258.
X216.5Y-284.5
X216.5Y-288.5
X216.5Y-292.5
X216.5Y-296.5
X216.5Y-300.5
X216.5Y-304.5
X216.5Y-308.5
X216.5Y-317.5
X216.5Y-321.5
X216.5Y-325.5
X216.5Y-329.5
X216.5Y-333.5
X216.5Y-337.5
X216.5Y-341.5
X216.5Y-349.5
X216.5Y-357.
X216.5Y-363.
X217.5Y-147.
X217.5Y-154.
X217.5Y-252.
X217.5Y-259.
X217.5Y-357.
X217.5Y-364.
X218.5Y-147.
X218.5Y-155.
X218.5Y-252.
X218.5Y-260.
X218.5Y-357.
X218.5Y-365.
X222.5Y-101.1
X222.5Y-104.7
X222.5Y-206.1
X222.5Y-209.7
X222.5Y-311.1
X222.5Y-314.7
X223.5Y-101.1
X223.5Y-104.7
X223.5Y-206.1
X223.5Y-209.7
X223.5Y-311.1
X223.5Y-314.7
X235.5Y-101.1
X235.5Y-104.7
X235.5Y-206.1
X235.5Y-209.7
X235.5Y-311.1
X235.5Y-314.7
X236.5Y-101.1
X236.5Y-104.7
X236.5Y-206.1
X236.5Y-209.7
X236.5Y-311.1
X236.5Y-314.7
X239.5Y-120.7
X239.5Y-151.5
X239.5Y-225.7
X239.5Y-256.5
X239.5Y-330.7
X239.5Y-361.5
X242.Y-107.5
X242.Y-111.5
X242.Y-115.5
X242.Y-119.5
X242.Y-212.5
X242.Y-216.5
X242.Y-220.5
X242.Y-224.5
X242.Y-317.5
X242.Y-321.5
X242.Y-325.5
X242.Y-329.5
X242.25Y-145.47
X242.25Y-146.59
X242.25Y-250.47
X242.25Y-251.59
X242.25Y-355.47
X242.25Y-356.59
X242.5Y-74.5
X242.5Y-78.5
X242.5Y-82.5
X242.5Y-86.5
X242.5Y-90.5
X242.5Y-94.5
X242.5Y-98.5
X242.5Y-123.5
X242.5Y-127.5
X242.5Y-131.5
X242.5Y-135.5
X242.5Y-139.5
X242.5Y-179.5
X242.5Y-183.5
X242.5Y-187.5
X242.5Y-191.5
X242.5Y-195.5
X242.5Y-199.5
X242.5Y-203.5
X242.5Y-228.5
X242.5Y-232.5
X242.5Y-236.5
X242.5Y-240.5
X242.5Y-244.5
X242.5Y-284.5
X242.5Y-288.5
X242.5Y-292.5
X242.5Y-296.5
X242.5Y-300.5
X242.5Y-304.5
X242.5Y-308.5
X242.5Y-333.5
X242.5Y-337.5
X242.5Y-341.5
X242.5Y-345.5
X242.5Y-349.5
X246.5Y-74.5
X246.5Y-78.5
X246.5Y-82.5
X246.5Y-86.5
X246.5Y-90.5
X246.5Y-94.5
X246.5Y-98.5
X246.5Y-107.5
X246.5Y-111.5
X246.5Y-115.5
X246.5Y-119.5
X246.5Y-123.5
X246.5Y-127.5
X246.5Y-131.5
X246.5Y-139.5
X246.5Y-147.
X246.5Y-153.
X246.5Y-179.5
X246.5Y-183.5
X246.5Y-187.5
X246.5Y-191.5
X246.5Y-195.5
X246.5Y-199.5
X246.5Y-203.5
X246.5Y-212.5
X246.5Y-216.5
X246.5Y-220.5
X246.5Y-224.5
X246.5Y-228.5
X246.5Y-232.5
X246.5Y-236.5
X246.5Y-244.5
X246.5Y-252.
X246.5Y-258.
X246.5Y-284.5
X246.5Y-288.5
X246.5Y-292.5
X246.5Y-296.5
X246.5Y-300.5
X246.5Y-304.5
X246.5Y-308.5
X246.5Y-317.5
X246.5Y-321.5
X246.5Y-325.5
X246.5Y-329.5
X246.5Y-333.5
X246.5Y-337.5
X246.5Y-341.5
X246.5Y-349.5
X246.5Y-357.
X246.5Y-363.
X247.5Y-147.
X247.5Y-154.
X247.5Y-252.
X247.5Y-259.
X247.5Y-357.
X247.5Y-364.
X248.5Y-147.
X248.5Y-155.
X248.5Y-252.
X248.5Y-260.
X248.5Y-357.
X248.5Y-365.
X252.5Y-101.1
X252.5Y-104.7
X252.5Y-206.1
X252.5Y-209.7
X252.5Y-311.1
X252.5Y-314.7
X253.5Y-101.1
X253.5Y-104.7
X253.5Y-206.1
X253.5Y-209.7
X253.5Y-311.1
X253.5Y-314.7
X265.5Y-101.1
X265.5Y-104.7
X265.5Y-206.1
X265.5Y-209.7
X265.5Y-311.1
X265.5Y-314.7
X266.5Y-101.1
X266.5Y-104.7
X266.5Y-206.1
X266.5Y-209.7
X266.5Y-311.1
X266.5Y-314.7
X269.5Y-120.7
X269.5Y-151.5
X269.5Y-225.7
X269.5Y-256.5
X269.5Y-330.7
X269.5Y-361.5
X272.Y-107.5
X272.Y-111.5
X272.Y-115.5
X272.Y-119.5
X272.Y-212.5
X272.Y-216.5
X272.Y-220.5
X272.Y-224.5
X272.Y-317.5
X272.Y-321.5
X272.Y-325.5
X272.Y-329.5
X272.25Y-145.47
X272.25Y-146.59
X272.25Y-250.47
X272.25Y-251.59
X272.25Y-355.47
X272.25Y-356.59
X272.5Y-74.5
X272.5Y-78.5
X272.5Y-82.5
X272.5Y-86.5
X272.5Y-90.5
X272.5Y-94.5
X272.5Y-98.5
X272.5Y-123.5
X272.5Y-127.5
X272.5Y-131.5
X272.5Y-135.5
X272.5Y-139.5
X272.5Y-179.5
X272.5Y-183.5
X272.5Y-187.5
X272.5Y-191.5
X272.5Y-195.5
X272.5Y-199.5
X272.5Y-203.5
X272.5Y-228.5
X272.5Y-232.5
X272.5Y-236.5
X272.5Y-240.5
X272.5Y-244.5
X272.5Y-284.5
X272.5Y-288.5
X272.5Y-292.5
X272.5Y-296.5
X272.5Y-300.5
X272.5Y-304.5
X272.5Y-308.5
X272.5Y-333.5
X272.5Y-337.5
X272.5Y-341.5
X272.5Y-345.5
X272.5Y-349.5
X276.5Y-74.5
X276.5Y-78.5
X276.5Y-82.5
X276.5Y-86.5
X276.5Y-90.5
X276.5Y-94.5
X276.5Y-98.5
X276.5Y-107.5
X276.5Y-111.5
X276.5Y-115.5
X276.5Y-119.5
X276.5Y-123.5
X276.5Y-127.5
X276.5Y-131.5
X276.5Y-139.5
X276.5Y-147.
X276.5Y-153.
X276.5Y-179.5
X276.5Y-183.5
X276.5Y-187.5
X276.5Y-191.5
X276.5Y-195.5
X276.5Y-199.5
X276.5Y-203.5
X276.5Y-212.5
X276.5Y-216.5
X276.5Y-220.5
X276.5Y-224.5
X276.5Y-228.5
X276.5Y-232.5
X276.5Y-236.5
X276.5Y-244.5
X276.5Y-252.
X276.5Y-258.
X276.5Y-284.5
X276.5Y-288.5
X276.5Y-292.5
X276.5Y-296.5
X276.5Y-300.5
X276.5Y-304.5
X276.5Y-308.5
X276.5Y-317.5
X276.5Y-321.5
X276.5Y-325.5
X276.5Y-329.5
X276.5Y-333.5
X276.5Y-337.5
X276.5Y-341.5
X276.5Y-349.5
X276.5Y-357.
X276.5Y-363.
X277.5Y-147.
X277.5Y-154.
X277.5Y-252.
X277.5Y-259.
X277.5Y-357.
X277.5Y-364.
X278.5Y-147.
X278.5Y-155.
X278.5Y-252.
X278.5Y-260.
X278.5Y-357.
X278.5Y-365.
X282.5Y-101.1
X282.5Y-104.7
X282.5Y-206.1
X282.5Y-209.7
X282.5Y-311.1
X282.5Y-314.7
X283.5Y-101.1
X283.5Y-104.7
X283.5Y-206.1
X283.5Y-209.7
X283.5Y-311.1
X283.5Y-314.7
X295.5Y-101.1
X295.5Y-104.7
X295.5Y-206.1
X295.5Y-209.7
X295.5Y-311.1
X295.5Y-314.7
X296.5Y-101.1
X296.5Y-104.7
X296.5Y-206.1
X296.5Y-209.7
X296.5Y-311.1
X296.5Y-314.7
X299.5Y-120.7
X299.5Y-151.5
X299.5Y-225.7
X299.5Y-256.5
X299.5Y-330.7
X299.5Y-361.5
X302.Y-107.5
X302.Y-111.5
X302.Y-115.5
X302.Y-119.5
X302.Y-212.5
X302.Y-216.5
X302.Y-220.5
X302.Y-224.5
X302.Y-317.5
X302.Y-321.5
X302.Y-325.5
X302.Y-329.5
X302.25Y-145.47
X302.25Y-146.59
X302.25Y-250.47
X302.25Y-251.59
X302.25Y-355.47
X302.25Y-356.59
X302.5Y-74.5
X302.5Y-78.5
X302.5Y-82.5
X302.5Y-86.5
X302.5Y-90.5
X302.5Y-94.5
X302.5Y-98.5
X302.5Y-123.5
X302.5Y-127.5
X302.5Y-131.5
X302.5Y-135.5
X302.5Y-139.5
X302.5Y-179.5
X302.5Y-183.5
X302.5Y-187.5
X302.5Y-191.5
X302.5Y-195.5
X302.5Y-199.5
X302.5Y-203.5
X302.5Y-228.5
X302.5Y-232.5
X302.5Y-236.5
X302.5Y-240.5
X302.5Y-244.5
X302.5Y-284.5
X302.5Y-288.5
X302.5Y-292.5
X302.5Y-296.5
X302.5Y-300.5
X302.5Y-304.5
X302.5Y-308.5
X302.5Y-333.5
X302.5Y-337.5
X302.5Y-341.5
X302.5Y-345.5
X302.5Y-349.5
X306.5Y-74.5
X306.5Y-78.5
X306.5Y-82.5
X306.5Y-86.5
X306.5Y-90.5
X306.5Y-94.5
X306.5Y-98.5
X306.5Y-107.5
X306.5Y-111.5
X306.5Y-115.5
X306.5Y-119.5
X306.5Y-123.5
X306.5Y-127.5
X306.5Y-131.5
X306.5Y-139.5
X306.5Y-179.5
X306.5Y-183.5
X306.5Y-187.5
X306.5Y-191.5
X306.5Y-195.5
X306.5Y-199.5
X306.5Y-203.5
X306.5Y-212.5
X306.5Y-216.5
X306.5Y-220.5
X306.5Y-224.5
X306.5Y-228.5
X306.5Y-232.5
X306.5Y-236.5
X306.5Y-244.5
X306.5Y-284.5
X306.5Y-288.5
X306.5Y-292.5
X306.5Y-296.5
X306.5Y-300.5
X306.5Y-304.5
X306.5Y-308.5
X306.5Y-317.5
X306.5Y-321.5
X306.5Y-325.5
X306.5Y-329.5
X306.5Y-333.5
X306.5Y-337.5
X306.5Y-341.5
X306.5Y-349.5
X312.5Y-101.1
X312.5Y-104.7
X312.5Y-206.1
X312.5Y-209.7
X312.5Y-311.1
X312.5Y-314.7
X313.5Y-101.1
X313.5Y-104.7
X313.5Y-206.1
X313.5Y-209.7
X313.5Y-311.1
X313.5Y-314.7
T2
X81.5Y-175.92
X81.5Y-178.46
X81.5Y-181.
X81.5Y-183.54
T3
X85.525Y-165.525
T4
X82.35Y-162.35
X82.35Y-168.7
X88.7Y-162.35
X88.7Y-168.7
T5
X82.3Y-146.3
X82.3Y-152.
X87.8Y-146.3
X87.8Y-152.
X118.6Y-56.3
X118.6Y-62.
X118.6Y-161.3
X118.6Y-167.
X118.6Y-266.3
X118.6Y-272.
X124.3Y-56.3
X124.3Y-161.3
X124.3Y-167.
X124.3Y-266.3
X124.3Y-272.
X124.5Y-62.
X130.Y-56.3
X130.Y-62.
X130.Y-161.3
X130.Y-167.
X130.Y-266.3
X130.Y-272.
X148.6Y-56.3
X148.6Y-62.
X148.6Y-161.3
X148.6Y-167.
X148.6Y-266.3
X148.6Y-272.
X154.3Y-56.3
X154.3Y-62.
X154.3Y-161.3
X154.3Y-167.
X154.3Y-266.3
X154.3Y-272.
X160.Y-56.3
X160.Y-62.
X160.Y-161.3
X160.Y-167.
X160.Y-266.3
X160.Y-272.
X178.6Y-56.3
X178.6Y-62.
X178.6Y-161.3
X178.6Y-167.
X178.6Y-266.3
X178.6Y-272.
X184.3Y-56.3
X184.3Y-62.
X184.3Y-161.3
X184.3Y-167.
X184.3Y-266.3
X184.3Y-272.
X190.Y-56.3
X190.Y-62.
X190.Y-161.3
X190.Y-167.
X190.Y-266.3
X190.Y-272.
X208.6Y-56.3
X208.6Y-62.
X208.6Y-161.3
X208.6Y-167.
X208.6Y-266.3
X208.6Y-272.
X214.3Y-56.3
X214.3Y-62.
X214.3Y-161.3
X214.3Y-167.
X214.3Y-266.3
X214.3Y-272.
X220.Y-56.3
X220.Y-62.
X220.Y-161.3
X220.Y-167.
X220.Y-266.3
X220.Y-272.
X238.6Y-56.3
X238.6Y-62.
X238.6Y-161.3
X238.6Y-167.
X238.6Y-266.3
X238.6Y-272.
X244.3Y-56.3
X244.3Y-62.
X244.3Y-161.3
X244.3Y-167.
X244.3Y-266.3
X244.3Y-272.
X250.Y-56.3
X250.Y-62.
X250.Y-161.3
X250.Y-167.
X250.Y-266.3
X250.Y-272.
X268.6Y-56.3
X268.6Y-62.
X268.6Y-161.3
X268.6Y-167.
X268.6Y-266.3
X268.6Y-272.
X274.3Y-56.3
X274.3Y-62.
X274.3Y-161.3
X274.3Y-167.
X274.3Y-266.3
X274.3Y-272.
X280.Y-56.3
X280.Y-62.
X280.Y-161.3
X280.Y-167.
X280.Y-266.3
X280.Y-272.
X298.6Y-56.3
X298.6Y-62.
X298.6Y-161.3
X298.6Y-167.
X298.6Y-266.3
X298.6Y-272.
X304.3Y-56.3
X304.3Y-62.
X304.3Y-161.3
X304.3Y-167.
X304.3Y-266.3
X304.3Y-272.
X310.Y-56.3
X310.Y-62.
X310.Y-161.3
X310.Y-167.
X310.Y-266.3
X310.Y-272.
T0
M30
