M48
;DRILL file {KiCad 4.0.6} date Wed Aug 16 17:30:34 2017
;FORMAT={-:-/ absolute / metric / decimal}
FMAT,2
METRIC,TZ
T1C1.000
T2C3.000
%
G90
G05
M71
T1
X127.73Y-136.564
X127.73Y-241.564
X127.73Y-346.564
X128.086Y-70.905
X128.086Y-175.905
X128.086Y-280.905
X157.73Y-136.564
X157.73Y-241.564
X157.73Y-346.564
X158.086Y-70.905
X158.086Y-175.905
X158.086Y-280.905
X187.73Y-136.564
X187.73Y-241.564
X187.73Y-346.564
X188.086Y-70.905
X188.086Y-175.905
X188.086Y-280.905
X217.73Y-136.564
X217.73Y-241.564
X217.73Y-346.564
X218.086Y-70.905
X218.086Y-175.905
X218.086Y-280.905
X247.73Y-136.564
X247.73Y-241.564
X247.73Y-346.564
X248.086Y-70.905
X248.086Y-175.905
X248.086Y-280.905
X277.73Y-136.564
X277.73Y-241.564
X277.73Y-346.564
X278.086Y-70.905
X278.086Y-175.905
X278.086Y-280.905
X307.73Y-136.564
X307.73Y-241.564
X307.73Y-346.564
X308.086Y-70.905
X308.086Y-175.905
X308.086Y-280.905
T2
X75.Y-149.15
X113.425Y-55.97
X113.425Y-160.97
X113.425Y-265.97
X135.175Y-55.97
X135.175Y-160.97
X135.175Y-265.97
X143.425Y-55.97
X143.425Y-160.97
X143.425Y-265.97
X165.175Y-55.97
X165.175Y-160.97
X165.175Y-265.97
X173.425Y-55.97
X173.425Y-160.97
X173.425Y-265.97
X195.175Y-55.97
X195.175Y-160.97
X195.175Y-265.97
X203.425Y-55.97
X203.425Y-160.97
X203.425Y-265.97
X225.175Y-55.97
X225.175Y-160.97
X225.175Y-265.97
X233.425Y-55.97
X233.425Y-160.97
X233.425Y-265.97
X255.175Y-55.97
X255.175Y-160.97
X255.175Y-265.97
X263.425Y-55.97
X263.425Y-160.97
X263.425Y-265.97
X285.175Y-55.97
X285.175Y-160.97
X285.175Y-265.97
X293.425Y-55.97
X293.425Y-160.97
X293.425Y-265.97
X315.175Y-55.97
X315.175Y-160.97
X315.175Y-265.97
T0
M30
