M48
;DRILL file {KiCad 4.0.6} date Thu Aug 17 12:11:58 2017
;FORMAT={-:-/ absolute / inch / decimal}
FMAT,2
INCH,TZ
T1C0.039
T2C0.118
%
G90
G05
M72
T1
X4.9016Y-3.1693
X4.9016Y-4.0551
X4.9016Y-4.7835
X4.9016Y-5.4134
X4.9016Y-7.3031
X4.9016Y-8.189
X4.9016Y-8.9173
X4.9016Y-9.5472
X4.9016Y-11.437
X4.9016Y-12.3228
X4.9016Y-13.0512
X4.9016Y-13.6811
X5.0287Y-5.3766
X5.0287Y-9.5104
X5.0287Y-13.6443
X5.0427Y-2.7916
X5.0427Y-6.9254
X5.0427Y-11.0593
X6.0827Y-3.1693
X6.0827Y-4.0551
X6.0827Y-4.7835
X6.0827Y-5.4134
X6.0827Y-7.3031
X6.0827Y-8.189
X6.0827Y-8.9173
X6.0827Y-9.5472
X6.0827Y-11.437
X6.0827Y-12.3228
X6.0827Y-13.0512
X6.0827Y-13.6811
X6.2098Y-5.3766
X6.2098Y-9.5104
X6.2098Y-13.6443
X6.2238Y-2.7916
X6.2238Y-6.9254
X6.2238Y-11.0593
X7.2638Y-3.1693
X7.2638Y-4.0551
X7.2638Y-4.7835
X7.2638Y-5.4134
X7.2638Y-7.3031
X7.2638Y-8.189
X7.2638Y-8.9173
X7.2638Y-9.5472
X7.2638Y-11.437
X7.2638Y-12.3228
X7.2638Y-13.0512
X7.2638Y-13.6811
X7.3909Y-5.3766
X7.3909Y-9.5104
X7.3909Y-13.6443
X7.4049Y-2.7916
X7.4049Y-6.9254
X7.4049Y-11.0593
X8.4449Y-3.1693
X8.4449Y-4.0551
X8.4449Y-4.7835
X8.4449Y-5.4134
X8.4449Y-7.3031
X8.4449Y-8.189
X8.4449Y-8.9173
X8.4449Y-9.5472
X8.4449Y-11.437
X8.4449Y-12.3228
X8.4449Y-13.0512
X8.4449Y-13.6811
X8.572Y-5.3766
X8.572Y-9.5104
X8.572Y-13.6443
X8.586Y-2.7916
X8.586Y-6.9254
X8.586Y-11.0593
X9.626Y-3.1693
X9.626Y-4.0551
X9.626Y-4.7835
X9.626Y-5.4134
X9.626Y-7.3031
X9.626Y-8.189
X9.626Y-8.9173
X9.626Y-9.5472
X9.626Y-11.437
X9.626Y-12.3228
X9.626Y-13.0512
X9.626Y-13.6811
X9.7531Y-5.3766
X9.7531Y-9.5104
X9.7531Y-13.6443
X9.7671Y-2.7916
X9.7671Y-6.9254
X9.7671Y-11.0593
X10.8071Y-3.1693
X10.8071Y-4.0551
X10.8071Y-4.7835
X10.8071Y-5.4134
X10.8071Y-7.3031
X10.8071Y-8.189
X10.8071Y-8.9173
X10.8071Y-9.5472
X10.8071Y-11.437
X10.8071Y-12.3228
X10.8071Y-13.0512
X10.8071Y-13.6811
X10.9343Y-5.3766
X10.9343Y-9.5104
X10.9343Y-13.6443
X10.9483Y-2.7916
X10.9483Y-6.9254
X10.9483Y-11.0593
X11.9882Y-3.1693
X11.9882Y-4.0551
X11.9882Y-4.7835
X11.9882Y-5.4134
X11.9882Y-7.3031
X11.9882Y-8.189
X11.9882Y-8.9173
X11.9882Y-9.5472
X11.9882Y-11.437
X11.9882Y-12.3228
X11.9882Y-13.0512
X11.9882Y-13.6811
X12.1154Y-5.3766
X12.1154Y-9.5104
X12.1154Y-13.6443
X12.1294Y-2.7916
X12.1294Y-6.9254
X12.1294Y-11.0593
T2
X2.9528Y-5.872
X4.4656Y-2.2035
X4.4656Y-6.3374
X4.4656Y-10.4713
X5.3219Y-2.2035
X5.3219Y-6.3374
X5.3219Y-10.4713
X5.6467Y-2.2035
X5.6467Y-6.3374
X5.6467Y-10.4713
X6.503Y-2.2035
X6.503Y-6.3374
X6.503Y-10.4713
X6.8278Y-2.2035
X6.8278Y-6.3374
X6.8278Y-10.4713
X7.6841Y-2.2035
X7.6841Y-6.3374
X7.6841Y-10.4713
X8.0089Y-2.2035
X8.0089Y-6.3374
X8.0089Y-10.4713
X8.8652Y-2.2035
X8.8652Y-6.3374
X8.8652Y-10.4713
X9.19Y-2.2035
X9.19Y-6.3374
X9.19Y-10.4713
X10.0463Y-2.2035
X10.0463Y-6.3374
X10.0463Y-10.4713
X10.3711Y-2.2035
X10.3711Y-6.3374
X10.3711Y-10.4713
X11.2274Y-2.2035
X11.2274Y-6.3374
X11.2274Y-10.4713
X11.5522Y-2.2035
X11.5522Y-6.3374
X11.5522Y-10.4713
X12.4085Y-2.2035
X12.4085Y-6.3374
X12.4085Y-10.4713
T0
M30
