G04 #@! TF.FileFunction,Soldermask,Top*
%FSLAX46Y46*%
G04 Gerber Fmt 4.6, Leading zero omitted, Abs format (unit mm)*
G04 Created by KiCad (PCBNEW 4.0.6) date Thu Aug 17 12:11:53 2017*
%MOMM*%
%LPD*%
G01*
G04 APERTURE LIST*
%ADD10C,0.100000*%
%ADD11C,1.400000*%
%ADD12R,2.900000X2.400000*%
%ADD13R,2.100000X2.100000*%
%ADD14O,2.100000X2.100000*%
%ADD15R,1.900000X1.700000*%
%ADD16C,4.210000*%
%ADD17C,3.956000*%
%ADD18R,1.924000X2.432000*%
%ADD19R,2.432000X1.924000*%
%ADD20R,0.908000X1.924000*%
%ADD21R,1.924000X0.908000*%
%ADD22R,4.150000X4.150000*%
%ADD23C,4.150000*%
%ADD24C,3.400000*%
%ADD25C,0.254000*%
G04 APERTURE END LIST*
D10*
D11*
X304500000Y-347500000D03*
X274500000Y-347500000D03*
X244500000Y-347500000D03*
X214500000Y-347500000D03*
X184500000Y-347500000D03*
X154500000Y-347500000D03*
X124500000Y-347500000D03*
X304500000Y-242500000D03*
X274500000Y-242500000D03*
X244500000Y-242500000D03*
X214500000Y-242500000D03*
X184500000Y-242500000D03*
X154500000Y-242500000D03*
X124500000Y-242500000D03*
X304500000Y-137500000D03*
X274500000Y-137500000D03*
X244500000Y-137500000D03*
X214500000Y-137500000D03*
X184500000Y-137500000D03*
X154500000Y-137500000D03*
X304500000Y-331500000D03*
X274500000Y-331500000D03*
X244500000Y-331500000D03*
X214500000Y-331500000D03*
X184500000Y-331500000D03*
X154500000Y-331500000D03*
X124500000Y-331500000D03*
X304500000Y-226500000D03*
X274500000Y-226500000D03*
X244500000Y-226500000D03*
X214500000Y-226500000D03*
X184500000Y-226500000D03*
X154500000Y-226500000D03*
X124500000Y-226500000D03*
X304500000Y-121500000D03*
X274500000Y-121500000D03*
X244500000Y-121500000D03*
X214500000Y-121500000D03*
X184500000Y-121500000D03*
X154500000Y-121500000D03*
X304500000Y-313000000D03*
X274500000Y-313000000D03*
X244500000Y-313000000D03*
X214500000Y-313000000D03*
X184500000Y-313000000D03*
X154500000Y-313000000D03*
X124500000Y-313000000D03*
X304500000Y-208000000D03*
X274500000Y-208000000D03*
X244500000Y-208000000D03*
X214500000Y-208000000D03*
X184500000Y-208000000D03*
X154500000Y-208000000D03*
X124500000Y-208000000D03*
X304500000Y-103000000D03*
X274500000Y-103000000D03*
X244500000Y-103000000D03*
X214500000Y-103000000D03*
X184500000Y-103000000D03*
X154500000Y-103000000D03*
X304500000Y-290500000D03*
X274500000Y-290500000D03*
X244500000Y-290500000D03*
X214500000Y-290500000D03*
X184500000Y-290500000D03*
X154500000Y-290500000D03*
X124500000Y-290500000D03*
X304500000Y-185500000D03*
X274500000Y-185500000D03*
X244500000Y-185500000D03*
X214500000Y-185500000D03*
X184500000Y-185500000D03*
X154500000Y-185500000D03*
X124500000Y-185500000D03*
X304500000Y-80500000D03*
X274500000Y-80500000D03*
X244500000Y-80500000D03*
X214500000Y-80500000D03*
X184500000Y-80500000D03*
X154500000Y-80500000D03*
X307730000Y-346564400D03*
X277730000Y-346564400D03*
X247730000Y-346564400D03*
X217730000Y-346564400D03*
X187730000Y-346564400D03*
X157730000Y-346564400D03*
X127730000Y-346564400D03*
X307730000Y-241564400D03*
X277730000Y-241564400D03*
X247730000Y-241564400D03*
X217730000Y-241564400D03*
X187730000Y-241564400D03*
X157730000Y-241564400D03*
X127730000Y-241564400D03*
X307730000Y-136564400D03*
X277730000Y-136564400D03*
X247730000Y-136564400D03*
X217730000Y-136564400D03*
X187730000Y-136564400D03*
X157730000Y-136564400D03*
X308085600Y-280905400D03*
X278085600Y-280905400D03*
X248085600Y-280905400D03*
X218085600Y-280905400D03*
X188085600Y-280905400D03*
X158085600Y-280905400D03*
X128085600Y-280905400D03*
X308085600Y-175905400D03*
X278085600Y-175905400D03*
X248085600Y-175905400D03*
X218085600Y-175905400D03*
X188085600Y-175905400D03*
X158085600Y-175905400D03*
X128085600Y-175905400D03*
X308085600Y-70905400D03*
X278085600Y-70905400D03*
X248085600Y-70905400D03*
X218085600Y-70905400D03*
X188085600Y-70905400D03*
X158085600Y-70905400D03*
X127730000Y-136564400D03*
D12*
X115500000Y-131500000D03*
X115500000Y-135500000D03*
D13*
X81500000Y-183540000D03*
D14*
X81500000Y-181000000D03*
X81500000Y-178460000D03*
X81500000Y-175920000D03*
D15*
X88200000Y-181000000D03*
X85500000Y-181000000D03*
X88200000Y-173500000D03*
X85500000Y-173500000D03*
D12*
X295500000Y-131500000D03*
X295500000Y-135500000D03*
X205500000Y-131500000D03*
X205500000Y-135500000D03*
X265500000Y-131500000D03*
X265500000Y-135500000D03*
X175500000Y-131500000D03*
X175500000Y-135500000D03*
X235500000Y-131500000D03*
X235500000Y-135500000D03*
X145500000Y-131500000D03*
X145500000Y-135500000D03*
X115500000Y-341500000D03*
X115500000Y-345500000D03*
X295500000Y-341500000D03*
X295500000Y-345500000D03*
X205500000Y-341500000D03*
X205500000Y-345500000D03*
X265500000Y-341500000D03*
X265500000Y-345500000D03*
X175500000Y-341500000D03*
X175500000Y-345500000D03*
X235500000Y-341500000D03*
X235500000Y-345500000D03*
X145500000Y-341500000D03*
X145500000Y-345500000D03*
X115500000Y-236500000D03*
X115500000Y-240500000D03*
X295500000Y-236500000D03*
X295500000Y-240500000D03*
X205500000Y-236500000D03*
X205500000Y-240500000D03*
X265500000Y-236500000D03*
X265500000Y-240500000D03*
X175500000Y-236500000D03*
X175500000Y-240500000D03*
X235500000Y-236500000D03*
X235500000Y-240500000D03*
X145500000Y-236500000D03*
X145500000Y-240500000D03*
X115500000Y-123500000D03*
X115500000Y-127500000D03*
X295500000Y-123500000D03*
X295500000Y-127500000D03*
X205500000Y-123500000D03*
X205500000Y-127500000D03*
X265500000Y-123500000D03*
X265500000Y-127500000D03*
X175500000Y-123500000D03*
X175500000Y-127500000D03*
X235500000Y-123500000D03*
X235500000Y-127500000D03*
X145500000Y-123500000D03*
X145500000Y-127500000D03*
X115500000Y-333500000D03*
X115500000Y-337500000D03*
X295500000Y-333500000D03*
X295500000Y-337500000D03*
X205500000Y-333500000D03*
X205500000Y-337500000D03*
X265500000Y-333500000D03*
X265500000Y-337500000D03*
X175500000Y-333500000D03*
X175500000Y-337500000D03*
X235500000Y-333500000D03*
X235500000Y-337500000D03*
X145500000Y-333500000D03*
X145500000Y-337500000D03*
X115500000Y-228500000D03*
X115500000Y-232500000D03*
X295500000Y-228500000D03*
X295500000Y-232500000D03*
X205500000Y-228500000D03*
X205500000Y-232500000D03*
X265500000Y-228500000D03*
X265500000Y-232500000D03*
X175500000Y-228500000D03*
X175500000Y-232500000D03*
X235500000Y-228500000D03*
X235500000Y-232500000D03*
X145500000Y-228500000D03*
X145500000Y-232500000D03*
D16*
X82350000Y-162350000D03*
D17*
X85525000Y-165525000D03*
D16*
X88700000Y-162350000D03*
X82350000Y-168700000D03*
X88700000Y-168700000D03*
D18*
X161000000Y-206100000D03*
X148000000Y-206100000D03*
X161000000Y-209700000D03*
X148000000Y-209700000D03*
D19*
X152250000Y-249000000D03*
X154750000Y-249000000D03*
D18*
X251000000Y-206100000D03*
X238000000Y-206100000D03*
X251000000Y-209700000D03*
X238000000Y-209700000D03*
D19*
X242250000Y-249000000D03*
X244750000Y-249000000D03*
D18*
X191000000Y-206100000D03*
X178000000Y-206100000D03*
X191000000Y-209700000D03*
X178000000Y-209700000D03*
D19*
X182250000Y-249000000D03*
X184750000Y-249000000D03*
D18*
X281000000Y-206100000D03*
X268000000Y-206100000D03*
X281000000Y-209700000D03*
X268000000Y-209700000D03*
D19*
X272250000Y-249000000D03*
X274750000Y-249000000D03*
D18*
X221000000Y-206100000D03*
X208000000Y-206100000D03*
X221000000Y-209700000D03*
X208000000Y-209700000D03*
D19*
X212250000Y-249000000D03*
X214750000Y-249000000D03*
D18*
X311000000Y-206100000D03*
X298000000Y-206100000D03*
X311000000Y-209700000D03*
X298000000Y-209700000D03*
D19*
X302250000Y-249000000D03*
X304750000Y-249000000D03*
D18*
X131000000Y-206100000D03*
X118000000Y-206100000D03*
X131000000Y-209700000D03*
X118000000Y-209700000D03*
D19*
X122250000Y-249000000D03*
X124750000Y-249000000D03*
D18*
X161000000Y-311100000D03*
X148000000Y-311100000D03*
X161000000Y-314700000D03*
X148000000Y-314700000D03*
D19*
X152250000Y-354000000D03*
X154750000Y-354000000D03*
D18*
X251000000Y-311100000D03*
X238000000Y-311100000D03*
X251000000Y-314700000D03*
X238000000Y-314700000D03*
D19*
X242250000Y-354000000D03*
X244750000Y-354000000D03*
D18*
X191000000Y-311100000D03*
X178000000Y-311100000D03*
X191000000Y-314700000D03*
X178000000Y-314700000D03*
D19*
X182250000Y-354000000D03*
X184750000Y-354000000D03*
D18*
X281000000Y-311100000D03*
X268000000Y-311100000D03*
X281000000Y-314700000D03*
X268000000Y-314700000D03*
D19*
X272250000Y-354000000D03*
X274750000Y-354000000D03*
D18*
X221000000Y-311100000D03*
X208000000Y-311100000D03*
X221000000Y-314700000D03*
X208000000Y-314700000D03*
D19*
X212250000Y-354000000D03*
X214750000Y-354000000D03*
D18*
X311000000Y-311100000D03*
X298000000Y-311100000D03*
X311000000Y-314700000D03*
X298000000Y-314700000D03*
D19*
X302250000Y-354000000D03*
X304750000Y-354000000D03*
D18*
X131000000Y-311100000D03*
X118000000Y-311100000D03*
X131000000Y-314700000D03*
X118000000Y-314700000D03*
D19*
X122250000Y-354000000D03*
X124750000Y-354000000D03*
D18*
X161000000Y-101100000D03*
X148000000Y-101100000D03*
X161000000Y-104700000D03*
X148000000Y-104700000D03*
D19*
X152250000Y-144000000D03*
X154750000Y-144000000D03*
D18*
X251000000Y-101100000D03*
X238000000Y-101100000D03*
X251000000Y-104700000D03*
X238000000Y-104700000D03*
D19*
X242250000Y-144000000D03*
X244750000Y-144000000D03*
D18*
X191000000Y-101100000D03*
X178000000Y-101100000D03*
X191000000Y-104700000D03*
X178000000Y-104700000D03*
D19*
X182250000Y-144000000D03*
X184750000Y-144000000D03*
D18*
X281000000Y-101100000D03*
X268000000Y-101100000D03*
X281000000Y-104700000D03*
X268000000Y-104700000D03*
D19*
X272250000Y-144000000D03*
X274750000Y-144000000D03*
D18*
X221000000Y-101100000D03*
X208000000Y-101100000D03*
X221000000Y-104700000D03*
X208000000Y-104700000D03*
D19*
X212250000Y-144000000D03*
X214750000Y-144000000D03*
D18*
X311000000Y-101100000D03*
X298000000Y-101100000D03*
X311000000Y-104700000D03*
X298000000Y-104700000D03*
D19*
X302250000Y-144000000D03*
X304750000Y-144000000D03*
D18*
X131000000Y-101100000D03*
X118000000Y-101100000D03*
X131000000Y-104700000D03*
X118000000Y-104700000D03*
D19*
X122250000Y-144000000D03*
X124750000Y-144000000D03*
D20*
X119500000Y-144000000D03*
D21*
X148000000Y-214700000D03*
D20*
X149500000Y-249000000D03*
D21*
X148000000Y-213000000D03*
D20*
X158500000Y-249000000D03*
D21*
X148000000Y-225700000D03*
D20*
X157500000Y-249000000D03*
X156500000Y-249000000D03*
D21*
X238000000Y-214700000D03*
D20*
X239500000Y-249000000D03*
D21*
X238000000Y-213000000D03*
D20*
X248500000Y-249000000D03*
D21*
X238000000Y-225700000D03*
D20*
X247500000Y-249000000D03*
X246500000Y-249000000D03*
D21*
X178000000Y-214700000D03*
D20*
X179500000Y-249000000D03*
D21*
X178000000Y-213000000D03*
D20*
X188500000Y-249000000D03*
D21*
X178000000Y-225700000D03*
D20*
X187500000Y-249000000D03*
X186500000Y-249000000D03*
D21*
X268000000Y-214700000D03*
D20*
X269500000Y-249000000D03*
D21*
X268000000Y-213000000D03*
D20*
X278500000Y-249000000D03*
D21*
X268000000Y-225700000D03*
D20*
X277500000Y-249000000D03*
X276500000Y-249000000D03*
D21*
X208000000Y-214700000D03*
D20*
X209500000Y-249000000D03*
D21*
X208000000Y-213000000D03*
D20*
X218500000Y-249000000D03*
D21*
X208000000Y-225700000D03*
D20*
X217500000Y-249000000D03*
X216500000Y-249000000D03*
D21*
X298000000Y-214700000D03*
D20*
X299500000Y-249000000D03*
D21*
X298000000Y-213000000D03*
D20*
X308500000Y-249000000D03*
D21*
X298000000Y-225700000D03*
D20*
X307500000Y-249000000D03*
X306500000Y-249000000D03*
D21*
X118000000Y-214700000D03*
D20*
X119500000Y-249000000D03*
D21*
X118000000Y-213000000D03*
D20*
X128500000Y-249000000D03*
D21*
X118000000Y-225700000D03*
D20*
X127500000Y-249000000D03*
X126500000Y-249000000D03*
D21*
X148000000Y-319700000D03*
D20*
X149500000Y-354000000D03*
D21*
X148000000Y-318000000D03*
D20*
X158500000Y-354000000D03*
D21*
X148000000Y-330700000D03*
D20*
X157500000Y-354000000D03*
X156500000Y-354000000D03*
D21*
X238000000Y-319700000D03*
D20*
X239500000Y-354000000D03*
D21*
X238000000Y-318000000D03*
D20*
X248500000Y-354000000D03*
D21*
X238000000Y-330700000D03*
D20*
X247500000Y-354000000D03*
X246500000Y-354000000D03*
D21*
X178000000Y-319700000D03*
D20*
X179500000Y-354000000D03*
D21*
X178000000Y-318000000D03*
D20*
X188500000Y-354000000D03*
D21*
X178000000Y-330700000D03*
D20*
X187500000Y-354000000D03*
X186500000Y-354000000D03*
D21*
X268000000Y-319700000D03*
D20*
X269500000Y-354000000D03*
D21*
X268000000Y-318000000D03*
D20*
X278500000Y-354000000D03*
D21*
X268000000Y-330700000D03*
D20*
X277500000Y-354000000D03*
X276500000Y-354000000D03*
D21*
X208000000Y-319700000D03*
D20*
X209500000Y-354000000D03*
D21*
X208000000Y-318000000D03*
D20*
X218500000Y-354000000D03*
D21*
X208000000Y-330700000D03*
D20*
X217500000Y-354000000D03*
X216500000Y-354000000D03*
D21*
X298000000Y-319700000D03*
D20*
X299500000Y-354000000D03*
D21*
X298000000Y-318000000D03*
D20*
X308500000Y-354000000D03*
D21*
X298000000Y-330700000D03*
D20*
X307500000Y-354000000D03*
X306500000Y-354000000D03*
D21*
X118000000Y-319700000D03*
D20*
X119500000Y-354000000D03*
D21*
X118000000Y-318000000D03*
D20*
X128500000Y-354000000D03*
D21*
X118000000Y-330700000D03*
D20*
X127500000Y-354000000D03*
X126500000Y-354000000D03*
D21*
X148000000Y-109700000D03*
D20*
X149500000Y-144000000D03*
D21*
X148000000Y-108000000D03*
D20*
X158500000Y-144000000D03*
D21*
X148000000Y-120700000D03*
D20*
X157500000Y-144000000D03*
X156500000Y-144000000D03*
D21*
X238000000Y-109700000D03*
D20*
X239500000Y-144000000D03*
D21*
X238000000Y-108000000D03*
D20*
X248500000Y-144000000D03*
D21*
X238000000Y-120700000D03*
D20*
X247500000Y-144000000D03*
X246500000Y-144000000D03*
D21*
X178000000Y-109700000D03*
D20*
X179500000Y-144000000D03*
D21*
X178000000Y-108000000D03*
D20*
X188500000Y-144000000D03*
D21*
X178000000Y-120700000D03*
D20*
X187500000Y-144000000D03*
X186500000Y-144000000D03*
D21*
X268000000Y-109700000D03*
D20*
X269500000Y-144000000D03*
D21*
X268000000Y-108000000D03*
D20*
X278500000Y-144000000D03*
D21*
X268000000Y-120700000D03*
D20*
X277500000Y-144000000D03*
X276500000Y-144000000D03*
D21*
X208000000Y-109700000D03*
D20*
X209500000Y-144000000D03*
D21*
X208000000Y-108000000D03*
D20*
X218500000Y-144000000D03*
D21*
X208000000Y-120700000D03*
D20*
X217500000Y-144000000D03*
X216500000Y-144000000D03*
D21*
X298000000Y-109700000D03*
D20*
X299500000Y-144000000D03*
D21*
X298000000Y-108000000D03*
D20*
X308500000Y-144000000D03*
D21*
X298000000Y-120700000D03*
D20*
X307500000Y-144000000D03*
X306500000Y-144000000D03*
D21*
X118000000Y-109700000D03*
X118000000Y-108000000D03*
D20*
X128500000Y-144000000D03*
D21*
X118000000Y-120700000D03*
D20*
X127500000Y-144000000D03*
X126500000Y-144000000D03*
D22*
X82300000Y-152000000D03*
D23*
X82300000Y-146300000D03*
X87800000Y-152000000D03*
X87800000Y-146300000D03*
D24*
X75000000Y-149150000D03*
D22*
X130000000Y-62000000D03*
D23*
X124500000Y-62000000D03*
X118600000Y-62000000D03*
X130000000Y-56300000D03*
X124300000Y-56300000D03*
X118600000Y-56300000D03*
D24*
X135175000Y-55970000D03*
X113425000Y-55970000D03*
D22*
X160000000Y-62000000D03*
D23*
X154300000Y-62000000D03*
X148600000Y-62000000D03*
X160000000Y-56300000D03*
X154300000Y-56300000D03*
X148600000Y-56300000D03*
D24*
X165175000Y-55970000D03*
X143425000Y-55970000D03*
D22*
X190000000Y-62000000D03*
D23*
X184300000Y-62000000D03*
X178600000Y-62000000D03*
X190000000Y-56300000D03*
X184300000Y-56300000D03*
X178600000Y-56300000D03*
D24*
X195175000Y-55970000D03*
X173425000Y-55970000D03*
D22*
X220000000Y-62000000D03*
D23*
X214300000Y-62000000D03*
X208600000Y-62000000D03*
X220000000Y-56300000D03*
X214300000Y-56300000D03*
X208600000Y-56300000D03*
D24*
X225175000Y-55970000D03*
X203425000Y-55970000D03*
D22*
X250000000Y-62000000D03*
D23*
X244300000Y-62000000D03*
X238600000Y-62000000D03*
X250000000Y-56300000D03*
X244300000Y-56300000D03*
X238600000Y-56300000D03*
D24*
X255175000Y-55970000D03*
X233425000Y-55970000D03*
D22*
X280000000Y-62000000D03*
D23*
X274300000Y-62000000D03*
X268600000Y-62000000D03*
X280000000Y-56300000D03*
X274300000Y-56300000D03*
X268600000Y-56300000D03*
D24*
X285175000Y-55970000D03*
X263425000Y-55970000D03*
D22*
X310000000Y-62000000D03*
D23*
X304300000Y-62000000D03*
X298600000Y-62000000D03*
X310000000Y-56300000D03*
X304300000Y-56300000D03*
X298600000Y-56300000D03*
D24*
X315175000Y-55970000D03*
X293425000Y-55970000D03*
D22*
X130000000Y-167000000D03*
D23*
X124300000Y-167000000D03*
X118600000Y-167000000D03*
X130000000Y-161300000D03*
X124300000Y-161300000D03*
X118600000Y-161300000D03*
D24*
X135175000Y-160970000D03*
X113425000Y-160970000D03*
D22*
X160000000Y-167000000D03*
D23*
X154300000Y-167000000D03*
X148600000Y-167000000D03*
X160000000Y-161300000D03*
X154300000Y-161300000D03*
X148600000Y-161300000D03*
D24*
X165175000Y-160970000D03*
X143425000Y-160970000D03*
D22*
X190000000Y-167000000D03*
D23*
X184300000Y-167000000D03*
X178600000Y-167000000D03*
X190000000Y-161300000D03*
X184300000Y-161300000D03*
X178600000Y-161300000D03*
D24*
X195175000Y-160970000D03*
X173425000Y-160970000D03*
D22*
X220000000Y-167000000D03*
D23*
X214300000Y-167000000D03*
X208600000Y-167000000D03*
X220000000Y-161300000D03*
X214300000Y-161300000D03*
X208600000Y-161300000D03*
D24*
X225175000Y-160970000D03*
X203425000Y-160970000D03*
D22*
X250000000Y-167000000D03*
D23*
X244300000Y-167000000D03*
X238600000Y-167000000D03*
X250000000Y-161300000D03*
X244300000Y-161300000D03*
X238600000Y-161300000D03*
D24*
X255175000Y-160970000D03*
X233425000Y-160970000D03*
D22*
X280000000Y-167000000D03*
D23*
X274300000Y-167000000D03*
X268600000Y-167000000D03*
X280000000Y-161300000D03*
X274300000Y-161300000D03*
X268600000Y-161300000D03*
D24*
X285175000Y-160970000D03*
X263425000Y-160970000D03*
D22*
X310000000Y-167000000D03*
D23*
X304300000Y-167000000D03*
X298600000Y-167000000D03*
X310000000Y-161300000D03*
X304300000Y-161300000D03*
X298600000Y-161300000D03*
D24*
X315175000Y-160970000D03*
X293425000Y-160970000D03*
D22*
X130000000Y-272000000D03*
D23*
X124300000Y-272000000D03*
X118600000Y-272000000D03*
X130000000Y-266300000D03*
X124300000Y-266300000D03*
X118600000Y-266300000D03*
D24*
X135175000Y-265970000D03*
X113425000Y-265970000D03*
D22*
X160000000Y-272000000D03*
D23*
X154300000Y-272000000D03*
X148600000Y-272000000D03*
X160000000Y-266300000D03*
X154300000Y-266300000D03*
X148600000Y-266300000D03*
D24*
X165175000Y-265970000D03*
X143425000Y-265970000D03*
D22*
X190000000Y-272000000D03*
D23*
X184300000Y-272000000D03*
X178600000Y-272000000D03*
X190000000Y-266300000D03*
X184300000Y-266300000D03*
X178600000Y-266300000D03*
D24*
X195175000Y-265970000D03*
X173425000Y-265970000D03*
D22*
X220000000Y-272000000D03*
D23*
X214300000Y-272000000D03*
X208600000Y-272000000D03*
X220000000Y-266300000D03*
X214300000Y-266300000D03*
X208600000Y-266300000D03*
D24*
X225175000Y-265970000D03*
X203425000Y-265970000D03*
D22*
X250000000Y-272000000D03*
D23*
X244300000Y-272000000D03*
X238600000Y-272000000D03*
X250000000Y-266300000D03*
X244300000Y-266300000D03*
X238600000Y-266300000D03*
D24*
X255175000Y-265970000D03*
X233425000Y-265970000D03*
D22*
X280000000Y-272000000D03*
D23*
X274300000Y-272000000D03*
X268600000Y-272000000D03*
X280000000Y-266300000D03*
X274300000Y-266300000D03*
X268600000Y-266300000D03*
D24*
X285175000Y-265970000D03*
X263425000Y-265970000D03*
D22*
X310000000Y-272000000D03*
D23*
X304300000Y-272000000D03*
X298600000Y-272000000D03*
X310000000Y-266300000D03*
X304300000Y-266300000D03*
X298600000Y-266300000D03*
D24*
X315175000Y-265970000D03*
X293425000Y-265970000D03*
D11*
X128085600Y-70905400D03*
X124500000Y-103000000D03*
X124500000Y-80500000D03*
X124500000Y-137500000D03*
X124500000Y-121500000D03*
D25*
G36*
X127873000Y-140873000D02*
X121127000Y-140873000D01*
X121127000Y-71127000D01*
X127873000Y-71127000D01*
X127873000Y-140873000D01*
X127873000Y-140873000D01*
G37*
X127873000Y-140873000D02*
X121127000Y-140873000D01*
X121127000Y-71127000D01*
X127873000Y-71127000D01*
X127873000Y-140873000D01*
G36*
X157873000Y-140873000D02*
X151127000Y-140873000D01*
X151127000Y-71127000D01*
X157873000Y-71127000D01*
X157873000Y-140873000D01*
X157873000Y-140873000D01*
G37*
X157873000Y-140873000D02*
X151127000Y-140873000D01*
X151127000Y-71127000D01*
X157873000Y-71127000D01*
X157873000Y-140873000D01*
G36*
X187873000Y-140873000D02*
X181127000Y-140873000D01*
X181127000Y-71127000D01*
X187873000Y-71127000D01*
X187873000Y-140873000D01*
X187873000Y-140873000D01*
G37*
X187873000Y-140873000D02*
X181127000Y-140873000D01*
X181127000Y-71127000D01*
X187873000Y-71127000D01*
X187873000Y-140873000D01*
G36*
X217873000Y-140873000D02*
X211127000Y-140873000D01*
X211127000Y-71127000D01*
X217873000Y-71127000D01*
X217873000Y-140873000D01*
X217873000Y-140873000D01*
G37*
X217873000Y-140873000D02*
X211127000Y-140873000D01*
X211127000Y-71127000D01*
X217873000Y-71127000D01*
X217873000Y-140873000D01*
G36*
X247873000Y-140873000D02*
X241127000Y-140873000D01*
X241127000Y-71127000D01*
X247873000Y-71127000D01*
X247873000Y-140873000D01*
X247873000Y-140873000D01*
G37*
X247873000Y-140873000D02*
X241127000Y-140873000D01*
X241127000Y-71127000D01*
X247873000Y-71127000D01*
X247873000Y-140873000D01*
G36*
X277873000Y-140873000D02*
X271127000Y-140873000D01*
X271127000Y-71127000D01*
X277873000Y-71127000D01*
X277873000Y-140873000D01*
X277873000Y-140873000D01*
G37*
X277873000Y-140873000D02*
X271127000Y-140873000D01*
X271127000Y-71127000D01*
X277873000Y-71127000D01*
X277873000Y-140873000D01*
G36*
X307873000Y-140873000D02*
X301127000Y-140873000D01*
X301127000Y-71127000D01*
X307873000Y-71127000D01*
X307873000Y-140873000D01*
X307873000Y-140873000D01*
G37*
X307873000Y-140873000D02*
X301127000Y-140873000D01*
X301127000Y-71127000D01*
X307873000Y-71127000D01*
X307873000Y-140873000D01*
G36*
X127873000Y-245873000D02*
X121127000Y-245873000D01*
X121127000Y-176127000D01*
X127873000Y-176127000D01*
X127873000Y-245873000D01*
X127873000Y-245873000D01*
G37*
X127873000Y-245873000D02*
X121127000Y-245873000D01*
X121127000Y-176127000D01*
X127873000Y-176127000D01*
X127873000Y-245873000D01*
G36*
X157873000Y-245873000D02*
X151127000Y-245873000D01*
X151127000Y-176127000D01*
X157873000Y-176127000D01*
X157873000Y-245873000D01*
X157873000Y-245873000D01*
G37*
X157873000Y-245873000D02*
X151127000Y-245873000D01*
X151127000Y-176127000D01*
X157873000Y-176127000D01*
X157873000Y-245873000D01*
G36*
X187873000Y-245873000D02*
X181127000Y-245873000D01*
X181127000Y-176127000D01*
X187873000Y-176127000D01*
X187873000Y-245873000D01*
X187873000Y-245873000D01*
G37*
X187873000Y-245873000D02*
X181127000Y-245873000D01*
X181127000Y-176127000D01*
X187873000Y-176127000D01*
X187873000Y-245873000D01*
G36*
X217873000Y-245873000D02*
X211127000Y-245873000D01*
X211127000Y-176127000D01*
X217873000Y-176127000D01*
X217873000Y-245873000D01*
X217873000Y-245873000D01*
G37*
X217873000Y-245873000D02*
X211127000Y-245873000D01*
X211127000Y-176127000D01*
X217873000Y-176127000D01*
X217873000Y-245873000D01*
G36*
X247873000Y-245873000D02*
X241127000Y-245873000D01*
X241127000Y-176127000D01*
X247873000Y-176127000D01*
X247873000Y-245873000D01*
X247873000Y-245873000D01*
G37*
X247873000Y-245873000D02*
X241127000Y-245873000D01*
X241127000Y-176127000D01*
X247873000Y-176127000D01*
X247873000Y-245873000D01*
G36*
X277873000Y-245873000D02*
X271127000Y-245873000D01*
X271127000Y-176127000D01*
X277873000Y-176127000D01*
X277873000Y-245873000D01*
X277873000Y-245873000D01*
G37*
X277873000Y-245873000D02*
X271127000Y-245873000D01*
X271127000Y-176127000D01*
X277873000Y-176127000D01*
X277873000Y-245873000D01*
G36*
X307873000Y-245873000D02*
X301127000Y-245873000D01*
X301127000Y-176127000D01*
X307873000Y-176127000D01*
X307873000Y-245873000D01*
X307873000Y-245873000D01*
G37*
X307873000Y-245873000D02*
X301127000Y-245873000D01*
X301127000Y-176127000D01*
X307873000Y-176127000D01*
X307873000Y-245873000D01*
G36*
X127873000Y-350873000D02*
X121127000Y-350873000D01*
X121127000Y-281127000D01*
X127873000Y-281127000D01*
X127873000Y-350873000D01*
X127873000Y-350873000D01*
G37*
X127873000Y-350873000D02*
X121127000Y-350873000D01*
X121127000Y-281127000D01*
X127873000Y-281127000D01*
X127873000Y-350873000D01*
G36*
X157873000Y-350873000D02*
X151127000Y-350873000D01*
X151127000Y-281127000D01*
X157873000Y-281127000D01*
X157873000Y-350873000D01*
X157873000Y-350873000D01*
G37*
X157873000Y-350873000D02*
X151127000Y-350873000D01*
X151127000Y-281127000D01*
X157873000Y-281127000D01*
X157873000Y-350873000D01*
G36*
X187873000Y-350873000D02*
X181127000Y-350873000D01*
X181127000Y-281127000D01*
X187873000Y-281127000D01*
X187873000Y-350873000D01*
X187873000Y-350873000D01*
G37*
X187873000Y-350873000D02*
X181127000Y-350873000D01*
X181127000Y-281127000D01*
X187873000Y-281127000D01*
X187873000Y-350873000D01*
G36*
X217873000Y-350873000D02*
X211127000Y-350873000D01*
X211127000Y-281127000D01*
X217873000Y-281127000D01*
X217873000Y-350873000D01*
X217873000Y-350873000D01*
G37*
X217873000Y-350873000D02*
X211127000Y-350873000D01*
X211127000Y-281127000D01*
X217873000Y-281127000D01*
X217873000Y-350873000D01*
G36*
X247873000Y-350873000D02*
X241127000Y-350873000D01*
X241127000Y-281127000D01*
X247873000Y-281127000D01*
X247873000Y-350873000D01*
X247873000Y-350873000D01*
G37*
X247873000Y-350873000D02*
X241127000Y-350873000D01*
X241127000Y-281127000D01*
X247873000Y-281127000D01*
X247873000Y-350873000D01*
G36*
X277873000Y-350873000D02*
X271127000Y-350873000D01*
X271127000Y-281127000D01*
X277873000Y-281127000D01*
X277873000Y-350873000D01*
X277873000Y-350873000D01*
G37*
X277873000Y-350873000D02*
X271127000Y-350873000D01*
X271127000Y-281127000D01*
X277873000Y-281127000D01*
X277873000Y-350873000D01*
G36*
X307873000Y-350873000D02*
X301127000Y-350873000D01*
X301127000Y-281127000D01*
X307873000Y-281127000D01*
X307873000Y-350873000D01*
X307873000Y-350873000D01*
G37*
X307873000Y-350873000D02*
X301127000Y-350873000D01*
X301127000Y-281127000D01*
X307873000Y-281127000D01*
X307873000Y-350873000D01*
M02*
