G04 #@! TF.FileFunction,Copper,L1,Top,Signal*
%FSLAX46Y46*%
G04 Gerber Fmt 4.6, Leading zero omitted, Abs format (unit mm)*
G04 Created by KiCad (PCBNEW 4.0.6) date Wed Aug 16 17:31:40 2017*
%MOMM*%
%LPD*%
G01*
G04 APERTURE LIST*
%ADD10C,0.100000*%
%ADD11R,2.500000X2.000000*%
%ADD12R,1.700000X1.700000*%
%ADD13O,1.700000X1.700000*%
%ADD14R,1.500000X1.300000*%
%ADD15C,3.810000*%
%ADD16C,3.556000*%
%ADD17R,1.524000X2.032000*%
%ADD18R,2.032000X1.524000*%
%ADD19R,0.508000X1.524000*%
%ADD20R,1.524000X0.508000*%
%ADD21R,3.750000X3.750000*%
%ADD22C,3.750000*%
%ADD23C,0.600000*%
%ADD24C,0.250000*%
%ADD25C,2.000000*%
%ADD26C,0.254000*%
G04 APERTURE END LIST*
D10*
D11*
X115500000Y-131500000D03*
X115500000Y-135500000D03*
D12*
X81500000Y-183540000D03*
D13*
X81500000Y-181000000D03*
X81500000Y-178460000D03*
X81500000Y-175920000D03*
D14*
X88200000Y-181000000D03*
X85500000Y-181000000D03*
X88200000Y-173500000D03*
X85500000Y-173500000D03*
D11*
X295500000Y-131500000D03*
X295500000Y-135500000D03*
X205500000Y-131500000D03*
X205500000Y-135500000D03*
X265500000Y-131500000D03*
X265500000Y-135500000D03*
X175500000Y-131500000D03*
X175500000Y-135500000D03*
X235500000Y-131500000D03*
X235500000Y-135500000D03*
X145500000Y-131500000D03*
X145500000Y-135500000D03*
X115500000Y-341500000D03*
X115500000Y-345500000D03*
X295500000Y-341500000D03*
X295500000Y-345500000D03*
X205500000Y-341500000D03*
X205500000Y-345500000D03*
X265500000Y-341500000D03*
X265500000Y-345500000D03*
X175500000Y-341500000D03*
X175500000Y-345500000D03*
X235500000Y-341500000D03*
X235500000Y-345500000D03*
X145500000Y-341500000D03*
X145500000Y-345500000D03*
X115500000Y-236500000D03*
X115500000Y-240500000D03*
X295500000Y-236500000D03*
X295500000Y-240500000D03*
X205500000Y-236500000D03*
X205500000Y-240500000D03*
X265500000Y-236500000D03*
X265500000Y-240500000D03*
X175500000Y-236500000D03*
X175500000Y-240500000D03*
X235500000Y-236500000D03*
X235500000Y-240500000D03*
X145500000Y-236500000D03*
X145500000Y-240500000D03*
X115500000Y-123500000D03*
X115500000Y-127500000D03*
X295500000Y-123500000D03*
X295500000Y-127500000D03*
X205500000Y-123500000D03*
X205500000Y-127500000D03*
X265500000Y-123500000D03*
X265500000Y-127500000D03*
X175500000Y-123500000D03*
X175500000Y-127500000D03*
X235500000Y-123500000D03*
X235500000Y-127500000D03*
X145500000Y-123500000D03*
X145500000Y-127500000D03*
X115500000Y-333500000D03*
X115500000Y-337500000D03*
X295500000Y-333500000D03*
X295500000Y-337500000D03*
X205500000Y-333500000D03*
X205500000Y-337500000D03*
X265500000Y-333500000D03*
X265500000Y-337500000D03*
X175500000Y-333500000D03*
X175500000Y-337500000D03*
X235500000Y-333500000D03*
X235500000Y-337500000D03*
X145500000Y-333500000D03*
X145500000Y-337500000D03*
X115500000Y-228500000D03*
X115500000Y-232500000D03*
X295500000Y-228500000D03*
X295500000Y-232500000D03*
X205500000Y-228500000D03*
X205500000Y-232500000D03*
X265500000Y-228500000D03*
X265500000Y-232500000D03*
X175500000Y-228500000D03*
X175500000Y-232500000D03*
X235500000Y-228500000D03*
X235500000Y-232500000D03*
X145500000Y-228500000D03*
X145500000Y-232500000D03*
D15*
X82350000Y-162350000D03*
D16*
X85525000Y-165525000D03*
D15*
X88700000Y-162350000D03*
X82350000Y-168700000D03*
X88700000Y-168700000D03*
D17*
X161000000Y-206100000D03*
X148000000Y-206100000D03*
X161000000Y-209700000D03*
X148000000Y-209700000D03*
D18*
X152250000Y-249000000D03*
X154750000Y-249000000D03*
D17*
X251000000Y-206100000D03*
X238000000Y-206100000D03*
X251000000Y-209700000D03*
X238000000Y-209700000D03*
D18*
X242250000Y-249000000D03*
X244750000Y-249000000D03*
D17*
X191000000Y-206100000D03*
X178000000Y-206100000D03*
X191000000Y-209700000D03*
X178000000Y-209700000D03*
D18*
X182250000Y-249000000D03*
X184750000Y-249000000D03*
D17*
X281000000Y-206100000D03*
X268000000Y-206100000D03*
X281000000Y-209700000D03*
X268000000Y-209700000D03*
D18*
X272250000Y-249000000D03*
X274750000Y-249000000D03*
D17*
X221000000Y-206100000D03*
X208000000Y-206100000D03*
X221000000Y-209700000D03*
X208000000Y-209700000D03*
D18*
X212250000Y-249000000D03*
X214750000Y-249000000D03*
D17*
X311000000Y-206100000D03*
X298000000Y-206100000D03*
X311000000Y-209700000D03*
X298000000Y-209700000D03*
D18*
X302250000Y-249000000D03*
X304750000Y-249000000D03*
D17*
X131000000Y-206100000D03*
X118000000Y-206100000D03*
X131000000Y-209700000D03*
X118000000Y-209700000D03*
D18*
X122250000Y-249000000D03*
X124750000Y-249000000D03*
D17*
X161000000Y-311100000D03*
X148000000Y-311100000D03*
X161000000Y-314700000D03*
X148000000Y-314700000D03*
D18*
X152250000Y-354000000D03*
X154750000Y-354000000D03*
D17*
X251000000Y-311100000D03*
X238000000Y-311100000D03*
X251000000Y-314700000D03*
X238000000Y-314700000D03*
D18*
X242250000Y-354000000D03*
X244750000Y-354000000D03*
D17*
X191000000Y-311100000D03*
X178000000Y-311100000D03*
X191000000Y-314700000D03*
X178000000Y-314700000D03*
D18*
X182250000Y-354000000D03*
X184750000Y-354000000D03*
D17*
X281000000Y-311100000D03*
X268000000Y-311100000D03*
X281000000Y-314700000D03*
X268000000Y-314700000D03*
D18*
X272250000Y-354000000D03*
X274750000Y-354000000D03*
D17*
X221000000Y-311100000D03*
X208000000Y-311100000D03*
X221000000Y-314700000D03*
X208000000Y-314700000D03*
D18*
X212250000Y-354000000D03*
X214750000Y-354000000D03*
D17*
X311000000Y-311100000D03*
X298000000Y-311100000D03*
X311000000Y-314700000D03*
X298000000Y-314700000D03*
D18*
X302250000Y-354000000D03*
X304750000Y-354000000D03*
D17*
X131000000Y-311100000D03*
X118000000Y-311100000D03*
X131000000Y-314700000D03*
X118000000Y-314700000D03*
D18*
X122250000Y-354000000D03*
X124750000Y-354000000D03*
D17*
X161000000Y-101100000D03*
X148000000Y-101100000D03*
X161000000Y-104700000D03*
X148000000Y-104700000D03*
D18*
X152250000Y-144000000D03*
X154750000Y-144000000D03*
D17*
X251000000Y-101100000D03*
X238000000Y-101100000D03*
X251000000Y-104700000D03*
X238000000Y-104700000D03*
D18*
X242250000Y-144000000D03*
X244750000Y-144000000D03*
D17*
X191000000Y-101100000D03*
X178000000Y-101100000D03*
X191000000Y-104700000D03*
X178000000Y-104700000D03*
D18*
X182250000Y-144000000D03*
X184750000Y-144000000D03*
D17*
X281000000Y-101100000D03*
X268000000Y-101100000D03*
X281000000Y-104700000D03*
X268000000Y-104700000D03*
D18*
X272250000Y-144000000D03*
X274750000Y-144000000D03*
D17*
X221000000Y-101100000D03*
X208000000Y-101100000D03*
X221000000Y-104700000D03*
X208000000Y-104700000D03*
D18*
X212250000Y-144000000D03*
X214750000Y-144000000D03*
D17*
X311000000Y-101100000D03*
X298000000Y-101100000D03*
X311000000Y-104700000D03*
X298000000Y-104700000D03*
D18*
X302250000Y-144000000D03*
X304750000Y-144000000D03*
D17*
X131000000Y-101100000D03*
X118000000Y-101100000D03*
X131000000Y-104700000D03*
X118000000Y-104700000D03*
D18*
X122250000Y-144000000D03*
X124750000Y-144000000D03*
D19*
X119500000Y-144000000D03*
D20*
X148000000Y-214700000D03*
D19*
X149500000Y-249000000D03*
D20*
X148000000Y-213000000D03*
D19*
X158500000Y-249000000D03*
D20*
X148000000Y-225700000D03*
D19*
X157500000Y-249000000D03*
X156500000Y-249000000D03*
D20*
X238000000Y-214700000D03*
D19*
X239500000Y-249000000D03*
D20*
X238000000Y-213000000D03*
D19*
X248500000Y-249000000D03*
D20*
X238000000Y-225700000D03*
D19*
X247500000Y-249000000D03*
X246500000Y-249000000D03*
D20*
X178000000Y-214700000D03*
D19*
X179500000Y-249000000D03*
D20*
X178000000Y-213000000D03*
D19*
X188500000Y-249000000D03*
D20*
X178000000Y-225700000D03*
D19*
X187500000Y-249000000D03*
X186500000Y-249000000D03*
D20*
X268000000Y-214700000D03*
D19*
X269500000Y-249000000D03*
D20*
X268000000Y-213000000D03*
D19*
X278500000Y-249000000D03*
D20*
X268000000Y-225700000D03*
D19*
X277500000Y-249000000D03*
X276500000Y-249000000D03*
D20*
X208000000Y-214700000D03*
D19*
X209500000Y-249000000D03*
D20*
X208000000Y-213000000D03*
D19*
X218500000Y-249000000D03*
D20*
X208000000Y-225700000D03*
D19*
X217500000Y-249000000D03*
X216500000Y-249000000D03*
D20*
X298000000Y-214700000D03*
D19*
X299500000Y-249000000D03*
D20*
X298000000Y-213000000D03*
D19*
X308500000Y-249000000D03*
D20*
X298000000Y-225700000D03*
D19*
X307500000Y-249000000D03*
X306500000Y-249000000D03*
D20*
X118000000Y-214700000D03*
D19*
X119500000Y-249000000D03*
D20*
X118000000Y-213000000D03*
D19*
X128500000Y-249000000D03*
D20*
X118000000Y-225700000D03*
D19*
X127500000Y-249000000D03*
X126500000Y-249000000D03*
D20*
X148000000Y-319700000D03*
D19*
X149500000Y-354000000D03*
D20*
X148000000Y-318000000D03*
D19*
X158500000Y-354000000D03*
D20*
X148000000Y-330700000D03*
D19*
X157500000Y-354000000D03*
X156500000Y-354000000D03*
D20*
X238000000Y-319700000D03*
D19*
X239500000Y-354000000D03*
D20*
X238000000Y-318000000D03*
D19*
X248500000Y-354000000D03*
D20*
X238000000Y-330700000D03*
D19*
X247500000Y-354000000D03*
X246500000Y-354000000D03*
D20*
X178000000Y-319700000D03*
D19*
X179500000Y-354000000D03*
D20*
X178000000Y-318000000D03*
D19*
X188500000Y-354000000D03*
D20*
X178000000Y-330700000D03*
D19*
X187500000Y-354000000D03*
X186500000Y-354000000D03*
D20*
X268000000Y-319700000D03*
D19*
X269500000Y-354000000D03*
D20*
X268000000Y-318000000D03*
D19*
X278500000Y-354000000D03*
D20*
X268000000Y-330700000D03*
D19*
X277500000Y-354000000D03*
X276500000Y-354000000D03*
D20*
X208000000Y-319700000D03*
D19*
X209500000Y-354000000D03*
D20*
X208000000Y-318000000D03*
D19*
X218500000Y-354000000D03*
D20*
X208000000Y-330700000D03*
D19*
X217500000Y-354000000D03*
X216500000Y-354000000D03*
D20*
X298000000Y-319700000D03*
D19*
X299500000Y-354000000D03*
D20*
X298000000Y-318000000D03*
D19*
X308500000Y-354000000D03*
D20*
X298000000Y-330700000D03*
D19*
X307500000Y-354000000D03*
X306500000Y-354000000D03*
D20*
X118000000Y-319700000D03*
D19*
X119500000Y-354000000D03*
D20*
X118000000Y-318000000D03*
D19*
X128500000Y-354000000D03*
D20*
X118000000Y-330700000D03*
D19*
X127500000Y-354000000D03*
X126500000Y-354000000D03*
D20*
X148000000Y-109700000D03*
D19*
X149500000Y-144000000D03*
D20*
X148000000Y-108000000D03*
D19*
X158500000Y-144000000D03*
D20*
X148000000Y-120700000D03*
D19*
X157500000Y-144000000D03*
X156500000Y-144000000D03*
D20*
X238000000Y-109700000D03*
D19*
X239500000Y-144000000D03*
D20*
X238000000Y-108000000D03*
D19*
X248500000Y-144000000D03*
D20*
X238000000Y-120700000D03*
D19*
X247500000Y-144000000D03*
X246500000Y-144000000D03*
D20*
X178000000Y-109700000D03*
D19*
X179500000Y-144000000D03*
D20*
X178000000Y-108000000D03*
D19*
X188500000Y-144000000D03*
D20*
X178000000Y-120700000D03*
D19*
X187500000Y-144000000D03*
X186500000Y-144000000D03*
D20*
X268000000Y-109700000D03*
D19*
X269500000Y-144000000D03*
D20*
X268000000Y-108000000D03*
D19*
X278500000Y-144000000D03*
D20*
X268000000Y-120700000D03*
D19*
X277500000Y-144000000D03*
X276500000Y-144000000D03*
D20*
X208000000Y-109700000D03*
D19*
X209500000Y-144000000D03*
D20*
X208000000Y-108000000D03*
D19*
X218500000Y-144000000D03*
D20*
X208000000Y-120700000D03*
D19*
X217500000Y-144000000D03*
X216500000Y-144000000D03*
D20*
X298000000Y-109700000D03*
D19*
X299500000Y-144000000D03*
D20*
X298000000Y-108000000D03*
D19*
X308500000Y-144000000D03*
D20*
X298000000Y-120700000D03*
D19*
X307500000Y-144000000D03*
X306500000Y-144000000D03*
D20*
X118000000Y-109700000D03*
X118000000Y-108000000D03*
D19*
X128500000Y-144000000D03*
D20*
X118000000Y-120700000D03*
D19*
X127500000Y-144000000D03*
X126500000Y-144000000D03*
D21*
X82300000Y-152000000D03*
D22*
X82300000Y-146300000D03*
X87800000Y-152000000D03*
X87800000Y-146300000D03*
D21*
X130000000Y-62000000D03*
D22*
X124500000Y-62000000D03*
X118600000Y-62000000D03*
X130000000Y-56300000D03*
X124300000Y-56300000D03*
X118600000Y-56300000D03*
D21*
X160000000Y-62000000D03*
D22*
X154300000Y-62000000D03*
X148600000Y-62000000D03*
X160000000Y-56300000D03*
X154300000Y-56300000D03*
X148600000Y-56300000D03*
D21*
X190000000Y-62000000D03*
D22*
X184300000Y-62000000D03*
X178600000Y-62000000D03*
X190000000Y-56300000D03*
X184300000Y-56300000D03*
X178600000Y-56300000D03*
D21*
X220000000Y-62000000D03*
D22*
X214300000Y-62000000D03*
X208600000Y-62000000D03*
X220000000Y-56300000D03*
X214300000Y-56300000D03*
X208600000Y-56300000D03*
D21*
X250000000Y-62000000D03*
D22*
X244300000Y-62000000D03*
X238600000Y-62000000D03*
X250000000Y-56300000D03*
X244300000Y-56300000D03*
X238600000Y-56300000D03*
D21*
X280000000Y-62000000D03*
D22*
X274300000Y-62000000D03*
X268600000Y-62000000D03*
X280000000Y-56300000D03*
X274300000Y-56300000D03*
X268600000Y-56300000D03*
D21*
X310000000Y-62000000D03*
D22*
X304300000Y-62000000D03*
X298600000Y-62000000D03*
X310000000Y-56300000D03*
X304300000Y-56300000D03*
X298600000Y-56300000D03*
D21*
X130000000Y-167000000D03*
D22*
X124300000Y-167000000D03*
X118600000Y-167000000D03*
X130000000Y-161300000D03*
X124300000Y-161300000D03*
X118600000Y-161300000D03*
D21*
X160000000Y-167000000D03*
D22*
X154300000Y-167000000D03*
X148600000Y-167000000D03*
X160000000Y-161300000D03*
X154300000Y-161300000D03*
X148600000Y-161300000D03*
D21*
X190000000Y-167000000D03*
D22*
X184300000Y-167000000D03*
X178600000Y-167000000D03*
X190000000Y-161300000D03*
X184300000Y-161300000D03*
X178600000Y-161300000D03*
D21*
X220000000Y-167000000D03*
D22*
X214300000Y-167000000D03*
X208600000Y-167000000D03*
X220000000Y-161300000D03*
X214300000Y-161300000D03*
X208600000Y-161300000D03*
D21*
X250000000Y-167000000D03*
D22*
X244300000Y-167000000D03*
X238600000Y-167000000D03*
X250000000Y-161300000D03*
X244300000Y-161300000D03*
X238600000Y-161300000D03*
D21*
X280000000Y-167000000D03*
D22*
X274300000Y-167000000D03*
X268600000Y-167000000D03*
X280000000Y-161300000D03*
X274300000Y-161300000D03*
X268600000Y-161300000D03*
D21*
X310000000Y-167000000D03*
D22*
X304300000Y-167000000D03*
X298600000Y-167000000D03*
X310000000Y-161300000D03*
X304300000Y-161300000D03*
X298600000Y-161300000D03*
D21*
X130000000Y-272000000D03*
D22*
X124300000Y-272000000D03*
X118600000Y-272000000D03*
X130000000Y-266300000D03*
X124300000Y-266300000D03*
X118600000Y-266300000D03*
D21*
X160000000Y-272000000D03*
D22*
X154300000Y-272000000D03*
X148600000Y-272000000D03*
X160000000Y-266300000D03*
X154300000Y-266300000D03*
X148600000Y-266300000D03*
D21*
X190000000Y-272000000D03*
D22*
X184300000Y-272000000D03*
X178600000Y-272000000D03*
X190000000Y-266300000D03*
X184300000Y-266300000D03*
X178600000Y-266300000D03*
D21*
X220000000Y-272000000D03*
D22*
X214300000Y-272000000D03*
X208600000Y-272000000D03*
X220000000Y-266300000D03*
X214300000Y-266300000D03*
X208600000Y-266300000D03*
D21*
X250000000Y-272000000D03*
D22*
X244300000Y-272000000D03*
X238600000Y-272000000D03*
X250000000Y-266300000D03*
X244300000Y-266300000D03*
X238600000Y-266300000D03*
D21*
X280000000Y-272000000D03*
D22*
X274300000Y-272000000D03*
X268600000Y-272000000D03*
X280000000Y-266300000D03*
X274300000Y-266300000D03*
X268600000Y-266300000D03*
D21*
X310000000Y-272000000D03*
D22*
X304300000Y-272000000D03*
X298600000Y-272000000D03*
X310000000Y-266300000D03*
X304300000Y-266300000D03*
X298600000Y-266300000D03*
D23*
X104000000Y-259000000D03*
X104000000Y-178460000D03*
X102000000Y-178460000D03*
X277500000Y-357000000D03*
X247500000Y-357000000D03*
X217500000Y-357000000D03*
X187500000Y-357000000D03*
X157500000Y-357000000D03*
X127500000Y-357000000D03*
X277500000Y-252000000D03*
X247500000Y-252000000D03*
X217500000Y-252000000D03*
X187500000Y-252000000D03*
X157500000Y-252000000D03*
X127500000Y-252000000D03*
X277500000Y-147000000D03*
X247500000Y-147000000D03*
X217500000Y-147000000D03*
X187500000Y-147000000D03*
X157500000Y-147000000D03*
X277500000Y-364000000D03*
X247500000Y-364000000D03*
X217500000Y-364000000D03*
X187500000Y-364000000D03*
X157500000Y-364000000D03*
X127500000Y-364000000D03*
X277500000Y-259000000D03*
X247500000Y-259000000D03*
X217500000Y-259000000D03*
X187500000Y-259000000D03*
X157500000Y-259000000D03*
X127500000Y-259000000D03*
X277500000Y-154000000D03*
X247500000Y-154000000D03*
X217500000Y-154000000D03*
X187500000Y-154000000D03*
X157500000Y-154000000D03*
X104000000Y-154000000D03*
X127500000Y-147000000D03*
X127500000Y-154000000D03*
X105000000Y-258000000D03*
X105000000Y-175920000D03*
X102000000Y-175920000D03*
X105000000Y-153000000D03*
X276500000Y-357000000D03*
X246500000Y-357000000D03*
X216500000Y-357000000D03*
X186500000Y-357000000D03*
X156500000Y-357000000D03*
X126500000Y-357000000D03*
X276500000Y-252000000D03*
X246500000Y-252000000D03*
X216500000Y-252000000D03*
X186500000Y-252000000D03*
X156500000Y-252000000D03*
X126500000Y-252000000D03*
X276500000Y-147000000D03*
X246500000Y-147000000D03*
X216500000Y-147000000D03*
X186500000Y-147000000D03*
X156500000Y-147000000D03*
X276500000Y-363000000D03*
X246500000Y-363000000D03*
X216500000Y-363000000D03*
X186500000Y-363000000D03*
X156500000Y-363000000D03*
X126500000Y-363000000D03*
X276500000Y-258000000D03*
X246500000Y-258000000D03*
X216500000Y-258000000D03*
X186500000Y-258000000D03*
X156500000Y-258000000D03*
X126500000Y-258000000D03*
X276500000Y-153000000D03*
X246500000Y-153000000D03*
X216500000Y-153000000D03*
X186500000Y-153000000D03*
X156500000Y-153000000D03*
X126500000Y-147000000D03*
X126500000Y-153000000D03*
X302500000Y-349500000D03*
X272500000Y-349500000D03*
X242500000Y-349500000D03*
X212500000Y-349500000D03*
X182500000Y-349500000D03*
X152500000Y-349500000D03*
X122500000Y-349500000D03*
X302500000Y-244500000D03*
X272500000Y-244500000D03*
X242500000Y-244500000D03*
X212500000Y-244500000D03*
X182500000Y-244500000D03*
X152500000Y-244500000D03*
X122500000Y-244500000D03*
X302500000Y-139500000D03*
X272500000Y-139500000D03*
X242500000Y-139500000D03*
X212500000Y-139500000D03*
X182500000Y-139500000D03*
X152500000Y-139500000D03*
X306500000Y-349500000D03*
X276500000Y-349500000D03*
X246500000Y-349500000D03*
X216500000Y-349500000D03*
X186500000Y-349500000D03*
X156500000Y-349500000D03*
X126500000Y-349500000D03*
X306500000Y-244500000D03*
X276500000Y-244500000D03*
X246500000Y-244500000D03*
X216500000Y-244500000D03*
X186500000Y-244500000D03*
X156500000Y-244500000D03*
X126500000Y-244500000D03*
X306500000Y-139500000D03*
X276500000Y-139500000D03*
X246500000Y-139500000D03*
X216500000Y-139500000D03*
X186500000Y-139500000D03*
X156500000Y-139500000D03*
X302500000Y-345500000D03*
X272500000Y-345500000D03*
X242500000Y-345500000D03*
X212500000Y-345500000D03*
X182500000Y-345500000D03*
X152500000Y-345500000D03*
X122500000Y-345500000D03*
X302500000Y-240500000D03*
X272500000Y-240500000D03*
X242500000Y-240500000D03*
X212500000Y-240500000D03*
X182500000Y-240500000D03*
X152500000Y-240500000D03*
X122500000Y-240500000D03*
X302500000Y-135500000D03*
X272500000Y-135500000D03*
X242500000Y-135500000D03*
X212500000Y-135500000D03*
X182500000Y-135500000D03*
X152500000Y-135500000D03*
X302500000Y-341500000D03*
X272500000Y-341500000D03*
X242500000Y-341500000D03*
X212500000Y-341500000D03*
X182500000Y-341500000D03*
X152500000Y-341500000D03*
X122500000Y-341500000D03*
X302500000Y-236500000D03*
X272500000Y-236500000D03*
X242500000Y-236500000D03*
X212500000Y-236500000D03*
X182500000Y-236500000D03*
X152500000Y-236500000D03*
X122500000Y-236500000D03*
X302500000Y-131500000D03*
X272500000Y-131500000D03*
X242500000Y-131500000D03*
X212500000Y-131500000D03*
X182500000Y-131500000D03*
X152500000Y-131500000D03*
X306500000Y-341500000D03*
X276500000Y-341500000D03*
X246500000Y-341500000D03*
X216500000Y-341500000D03*
X186500000Y-341500000D03*
X156500000Y-341500000D03*
X126500000Y-341500000D03*
X306500000Y-236500000D03*
X276500000Y-236500000D03*
X246500000Y-236500000D03*
X216500000Y-236500000D03*
X186500000Y-236500000D03*
X156500000Y-236500000D03*
X126500000Y-236500000D03*
X306500000Y-131500000D03*
X276500000Y-131500000D03*
X246500000Y-131500000D03*
X216500000Y-131500000D03*
X186500000Y-131500000D03*
X156500000Y-131500000D03*
X306500000Y-337500000D03*
X276500000Y-337500000D03*
X246500000Y-337500000D03*
X216500000Y-337500000D03*
X186500000Y-337500000D03*
X156500000Y-337500000D03*
X126500000Y-337500000D03*
X306500000Y-232500000D03*
X276500000Y-232500000D03*
X246500000Y-232500000D03*
X216500000Y-232500000D03*
X186500000Y-232500000D03*
X156500000Y-232500000D03*
X126500000Y-232500000D03*
X306500000Y-127500000D03*
X276500000Y-127500000D03*
X246500000Y-127500000D03*
X216500000Y-127500000D03*
X186500000Y-127500000D03*
X156500000Y-127500000D03*
X302500000Y-337500000D03*
X272500000Y-337500000D03*
X242500000Y-337500000D03*
X212500000Y-337500000D03*
X182500000Y-337500000D03*
X152500000Y-337500000D03*
X122500000Y-337500000D03*
X302500000Y-232500000D03*
X272500000Y-232500000D03*
X242500000Y-232500000D03*
X212500000Y-232500000D03*
X182500000Y-232500000D03*
X152500000Y-232500000D03*
X122500000Y-232500000D03*
X302500000Y-127500000D03*
X272500000Y-127500000D03*
X242500000Y-127500000D03*
X212500000Y-127500000D03*
X182500000Y-127500000D03*
X152500000Y-127500000D03*
X302500000Y-333500000D03*
X272500000Y-333500000D03*
X242500000Y-333500000D03*
X212500000Y-333500000D03*
X182500000Y-333500000D03*
X152500000Y-333500000D03*
X122500000Y-333500000D03*
X302500000Y-228500000D03*
X272500000Y-228500000D03*
X242500000Y-228500000D03*
X212500000Y-228500000D03*
X182500000Y-228500000D03*
X152500000Y-228500000D03*
X122500000Y-228500000D03*
X302500000Y-123500000D03*
X272500000Y-123500000D03*
X242500000Y-123500000D03*
X212500000Y-123500000D03*
X182500000Y-123500000D03*
X152500000Y-123500000D03*
X306500000Y-333500000D03*
X276500000Y-333500000D03*
X246500000Y-333500000D03*
X216500000Y-333500000D03*
X186500000Y-333500000D03*
X156500000Y-333500000D03*
X126500000Y-333500000D03*
X306500000Y-228500000D03*
X276500000Y-228500000D03*
X246500000Y-228500000D03*
X216500000Y-228500000D03*
X186500000Y-228500000D03*
X156500000Y-228500000D03*
X126500000Y-228500000D03*
X306500000Y-123500000D03*
X276500000Y-123500000D03*
X246500000Y-123500000D03*
X216500000Y-123500000D03*
X186500000Y-123500000D03*
X156500000Y-123500000D03*
X306500000Y-329500000D03*
X276500000Y-329500000D03*
X246500000Y-329500000D03*
X216500000Y-329500000D03*
X186500000Y-329500000D03*
X156500000Y-329500000D03*
X126500000Y-329500000D03*
X306500000Y-224500000D03*
X276500000Y-224500000D03*
X246500000Y-224500000D03*
X216500000Y-224500000D03*
X186500000Y-224500000D03*
X156500000Y-224500000D03*
X126500000Y-224500000D03*
X306500000Y-119500000D03*
X276500000Y-119500000D03*
X246500000Y-119500000D03*
X216500000Y-119500000D03*
X186500000Y-119500000D03*
X156500000Y-119500000D03*
X302000000Y-329500000D03*
X272000000Y-329500000D03*
X242000000Y-329500000D03*
X212000000Y-329500000D03*
X182000000Y-329500000D03*
X152000000Y-329500000D03*
X122000000Y-329500000D03*
X302000000Y-224500000D03*
X272000000Y-224500000D03*
X242000000Y-224500000D03*
X212000000Y-224500000D03*
X182000000Y-224500000D03*
X152000000Y-224500000D03*
X122000000Y-224500000D03*
X302000000Y-119500000D03*
X272000000Y-119500000D03*
X242000000Y-119500000D03*
X212000000Y-119500000D03*
X182000000Y-119500000D03*
X152000000Y-119500000D03*
X302000000Y-325500000D03*
X272000000Y-325500000D03*
X242000000Y-325500000D03*
X212000000Y-325500000D03*
X182000000Y-325500000D03*
X152000000Y-325500000D03*
X122000000Y-325500000D03*
X302000000Y-220500000D03*
X272000000Y-220500000D03*
X242000000Y-220500000D03*
X212000000Y-220500000D03*
X182000000Y-220500000D03*
X152000000Y-220500000D03*
X122000000Y-220500000D03*
X302000000Y-115500000D03*
X272000000Y-115500000D03*
X242000000Y-115500000D03*
X212000000Y-115500000D03*
X182000000Y-115500000D03*
X152000000Y-115500000D03*
X306500000Y-325500000D03*
X276500000Y-325500000D03*
X246500000Y-325500000D03*
X216500000Y-325500000D03*
X186500000Y-325500000D03*
X156500000Y-325500000D03*
X126500000Y-325500000D03*
X306500000Y-220500000D03*
X276500000Y-220500000D03*
X246500000Y-220500000D03*
X216500000Y-220500000D03*
X186500000Y-220500000D03*
X156500000Y-220500000D03*
X126500000Y-220500000D03*
X306500000Y-115500000D03*
X276500000Y-115500000D03*
X246500000Y-115500000D03*
X216500000Y-115500000D03*
X186500000Y-115500000D03*
X156500000Y-115500000D03*
X302000000Y-321500000D03*
X272000000Y-321500000D03*
X242000000Y-321500000D03*
X212000000Y-321500000D03*
X182000000Y-321500000D03*
X152000000Y-321500000D03*
X122000000Y-321500000D03*
X302000000Y-216500000D03*
X272000000Y-216500000D03*
X242000000Y-216500000D03*
X212000000Y-216500000D03*
X182000000Y-216500000D03*
X152000000Y-216500000D03*
X122000000Y-216500000D03*
X302000000Y-111500000D03*
X272000000Y-111500000D03*
X242000000Y-111500000D03*
X212000000Y-111500000D03*
X182000000Y-111500000D03*
X152000000Y-111500000D03*
X302000000Y-317500000D03*
X272000000Y-317500000D03*
X242000000Y-317500000D03*
X212000000Y-317500000D03*
X182000000Y-317500000D03*
X152000000Y-317500000D03*
X122000000Y-317500000D03*
X302000000Y-212500000D03*
X272000000Y-212500000D03*
X242000000Y-212500000D03*
X212000000Y-212500000D03*
X182000000Y-212500000D03*
X152000000Y-212500000D03*
X122000000Y-212500000D03*
X302000000Y-107500000D03*
X272000000Y-107500000D03*
X242000000Y-107500000D03*
X212000000Y-107500000D03*
X182000000Y-107500000D03*
X152000000Y-107500000D03*
X306500000Y-317500000D03*
X276500000Y-317500000D03*
X246500000Y-317500000D03*
X216500000Y-317500000D03*
X186500000Y-317500000D03*
X156500000Y-317500000D03*
X126500000Y-317500000D03*
X306500000Y-212500000D03*
X276500000Y-212500000D03*
X246500000Y-212500000D03*
X216500000Y-212500000D03*
X186500000Y-212500000D03*
X156500000Y-212500000D03*
X126500000Y-212500000D03*
X306500000Y-107500000D03*
X276500000Y-107500000D03*
X246500000Y-107500000D03*
X216500000Y-107500000D03*
X186500000Y-107500000D03*
X156500000Y-107500000D03*
X306500000Y-308500000D03*
X276500000Y-308500000D03*
X246500000Y-308500000D03*
X216500000Y-308500000D03*
X186500000Y-308500000D03*
X156500000Y-308500000D03*
X126500000Y-308500000D03*
X306500000Y-203500000D03*
X276500000Y-203500000D03*
X246500000Y-203500000D03*
X216500000Y-203500000D03*
X186500000Y-203500000D03*
X156500000Y-203500000D03*
X126500000Y-203500000D03*
X306500000Y-98500000D03*
X276500000Y-98500000D03*
X246500000Y-98500000D03*
X216500000Y-98500000D03*
X186500000Y-98500000D03*
X156500000Y-98500000D03*
X302500000Y-308500000D03*
X272500000Y-308500000D03*
X242500000Y-308500000D03*
X212500000Y-308500000D03*
X182500000Y-308500000D03*
X152500000Y-308500000D03*
X122500000Y-308500000D03*
X302500000Y-203500000D03*
X272500000Y-203500000D03*
X242500000Y-203500000D03*
X212500000Y-203500000D03*
X182500000Y-203500000D03*
X152500000Y-203500000D03*
X122500000Y-203500000D03*
X302500000Y-98500000D03*
X272500000Y-98500000D03*
X242500000Y-98500000D03*
X212500000Y-98500000D03*
X182500000Y-98500000D03*
X152500000Y-98500000D03*
X302500000Y-304500000D03*
X272500000Y-304500000D03*
X242500000Y-304500000D03*
X212500000Y-304500000D03*
X182500000Y-304500000D03*
X152500000Y-304500000D03*
X122500000Y-304500000D03*
X302500000Y-199500000D03*
X272500000Y-199500000D03*
X242500000Y-199500000D03*
X212500000Y-199500000D03*
X182500000Y-199500000D03*
X152500000Y-199500000D03*
X122500000Y-199500000D03*
X302500000Y-94500000D03*
X272500000Y-94500000D03*
X242500000Y-94500000D03*
X212500000Y-94500000D03*
X182500000Y-94500000D03*
X152500000Y-94500000D03*
X306500000Y-304500000D03*
X276500000Y-304500000D03*
X246500000Y-304500000D03*
X216500000Y-304500000D03*
X186500000Y-304500000D03*
X156500000Y-304500000D03*
X126500000Y-304500000D03*
X306500000Y-199500000D03*
X276500000Y-199500000D03*
X246500000Y-199500000D03*
X216500000Y-199500000D03*
X186500000Y-199500000D03*
X156500000Y-199500000D03*
X126500000Y-199500000D03*
X306500000Y-94500000D03*
X276500000Y-94500000D03*
X246500000Y-94500000D03*
X216500000Y-94500000D03*
X186500000Y-94500000D03*
X156500000Y-94500000D03*
X306500000Y-300500000D03*
X276500000Y-300500000D03*
X246500000Y-300500000D03*
X216500000Y-300500000D03*
X186500000Y-300500000D03*
X156500000Y-300500000D03*
X126500000Y-300500000D03*
X306500000Y-195500000D03*
X276500000Y-195500000D03*
X246500000Y-195500000D03*
X216500000Y-195500000D03*
X186500000Y-195500000D03*
X156500000Y-195500000D03*
X126500000Y-195500000D03*
X306500000Y-90500000D03*
X276500000Y-90500000D03*
X246500000Y-90500000D03*
X216500000Y-90500000D03*
X186500000Y-90500000D03*
X156500000Y-90500000D03*
X302500000Y-300500000D03*
X272500000Y-300500000D03*
X242500000Y-300500000D03*
X212500000Y-300500000D03*
X182500000Y-300500000D03*
X152500000Y-300500000D03*
X122500000Y-300500000D03*
X302500000Y-195500000D03*
X272500000Y-195500000D03*
X242500000Y-195500000D03*
X212500000Y-195500000D03*
X182500000Y-195500000D03*
X152500000Y-195500000D03*
X122500000Y-195500000D03*
X302500000Y-90500000D03*
X272500000Y-90500000D03*
X242500000Y-90500000D03*
X212500000Y-90500000D03*
X182500000Y-90500000D03*
X152500000Y-90500000D03*
X302500000Y-296500000D03*
X272500000Y-296500000D03*
X242500000Y-296500000D03*
X212500000Y-296500000D03*
X182500000Y-296500000D03*
X152500000Y-296500000D03*
X122500000Y-296500000D03*
X302500000Y-191500000D03*
X272500000Y-191500000D03*
X242500000Y-191500000D03*
X212500000Y-191500000D03*
X182500000Y-191500000D03*
X152500000Y-191500000D03*
X122500000Y-191500000D03*
X302500000Y-86500000D03*
X272500000Y-86500000D03*
X242500000Y-86500000D03*
X212500000Y-86500000D03*
X182500000Y-86500000D03*
X152500000Y-86500000D03*
X306500000Y-288500000D03*
X276500000Y-288500000D03*
X246500000Y-288500000D03*
X216500000Y-288500000D03*
X186500000Y-288500000D03*
X156500000Y-288500000D03*
X126500000Y-288500000D03*
X306500000Y-183500000D03*
X276500000Y-183500000D03*
X246500000Y-183500000D03*
X216500000Y-183500000D03*
X186500000Y-183500000D03*
X156500000Y-183500000D03*
X126500000Y-183500000D03*
X306500000Y-78500000D03*
X276500000Y-78500000D03*
X246500000Y-78500000D03*
X216500000Y-78500000D03*
X186500000Y-78500000D03*
X156500000Y-78500000D03*
X302500000Y-288500000D03*
X272500000Y-288500000D03*
X242500000Y-288500000D03*
X212500000Y-288500000D03*
X182500000Y-288500000D03*
X152500000Y-288500000D03*
X122500000Y-288500000D03*
X302500000Y-183500000D03*
X272500000Y-183500000D03*
X242500000Y-183500000D03*
X212500000Y-183500000D03*
X182500000Y-183500000D03*
X152500000Y-183500000D03*
X122500000Y-183500000D03*
X302500000Y-78500000D03*
X272500000Y-78500000D03*
X242500000Y-78500000D03*
X212500000Y-78500000D03*
X182500000Y-78500000D03*
X152500000Y-78500000D03*
X302500000Y-284500000D03*
X272500000Y-284500000D03*
X242500000Y-284500000D03*
X212500000Y-284500000D03*
X182500000Y-284500000D03*
X152500000Y-284500000D03*
X122500000Y-284500000D03*
X302500000Y-179500000D03*
X272500000Y-179500000D03*
X242500000Y-179500000D03*
X212500000Y-179500000D03*
X182500000Y-179500000D03*
X152500000Y-179500000D03*
X122500000Y-179500000D03*
X302500000Y-74500000D03*
X272500000Y-74500000D03*
X242500000Y-74500000D03*
X212500000Y-74500000D03*
X182500000Y-74500000D03*
X152500000Y-74500000D03*
X306500000Y-284500000D03*
X276500000Y-284500000D03*
X246500000Y-284500000D03*
X216500000Y-284500000D03*
X186500000Y-284500000D03*
X156500000Y-284500000D03*
X126500000Y-284500000D03*
X306500000Y-179500000D03*
X276500000Y-179500000D03*
X246500000Y-179500000D03*
X216500000Y-179500000D03*
X186500000Y-179500000D03*
X156500000Y-179500000D03*
X126500000Y-179500000D03*
X306500000Y-74500000D03*
X276500000Y-74500000D03*
X246500000Y-74500000D03*
X216500000Y-74500000D03*
X186500000Y-74500000D03*
X156500000Y-74500000D03*
X302500000Y-292500000D03*
X272500000Y-292500000D03*
X242500000Y-292500000D03*
X212500000Y-292500000D03*
X182500000Y-292500000D03*
X152500000Y-292500000D03*
X122500000Y-292500000D03*
X302500000Y-187500000D03*
X272500000Y-187500000D03*
X242500000Y-187500000D03*
X212500000Y-187500000D03*
X182500000Y-187500000D03*
X152500000Y-187500000D03*
X122500000Y-187500000D03*
X302500000Y-82500000D03*
X272500000Y-82500000D03*
X242500000Y-82500000D03*
X212500000Y-82500000D03*
X182500000Y-82500000D03*
X152500000Y-82500000D03*
X306500000Y-292500000D03*
X276500000Y-292500000D03*
X246500000Y-292500000D03*
X216500000Y-292500000D03*
X186500000Y-292500000D03*
X156500000Y-292500000D03*
X126500000Y-292500000D03*
X306500000Y-187500000D03*
X276500000Y-187500000D03*
X246500000Y-187500000D03*
X216500000Y-187500000D03*
X186500000Y-187500000D03*
X156500000Y-187500000D03*
X126500000Y-187500000D03*
X306500000Y-82500000D03*
X276500000Y-82500000D03*
X246500000Y-82500000D03*
X216500000Y-82500000D03*
X186500000Y-82500000D03*
X156500000Y-82500000D03*
X306500000Y-296500000D03*
X276500000Y-296500000D03*
X246500000Y-296500000D03*
X216500000Y-296500000D03*
X186500000Y-296500000D03*
X156500000Y-296500000D03*
X126500000Y-296500000D03*
X306500000Y-191500000D03*
X276500000Y-191500000D03*
X246500000Y-191500000D03*
X216500000Y-191500000D03*
X186500000Y-191500000D03*
X156500000Y-191500000D03*
X126500000Y-191500000D03*
X306500000Y-86500000D03*
X276500000Y-86500000D03*
X246500000Y-86500000D03*
X216500000Y-86500000D03*
X186500000Y-86500000D03*
X156500000Y-86500000D03*
X306500000Y-321500000D03*
X276500000Y-321500000D03*
X246500000Y-321500000D03*
X216500000Y-321500000D03*
X186500000Y-321500000D03*
X156500000Y-321500000D03*
X126500000Y-321500000D03*
X306500000Y-216500000D03*
X276500000Y-216500000D03*
X246500000Y-216500000D03*
X216500000Y-216500000D03*
X186500000Y-216500000D03*
X156500000Y-216500000D03*
X126500000Y-216500000D03*
X306500000Y-111500000D03*
X276500000Y-111500000D03*
X246500000Y-111500000D03*
X216500000Y-111500000D03*
X186500000Y-111500000D03*
X156500000Y-111500000D03*
X122500000Y-74500000D03*
X126500000Y-74500000D03*
X126500000Y-78500000D03*
X122500000Y-78500000D03*
X122500000Y-82500000D03*
X126500000Y-82500000D03*
X126500000Y-86500000D03*
X122500000Y-86500000D03*
X122500000Y-90500000D03*
X126500000Y-90500000D03*
X126500000Y-94500000D03*
X122500000Y-94500000D03*
X122500000Y-98500000D03*
X126500000Y-98500000D03*
X126500000Y-107500000D03*
X122000000Y-107500000D03*
X122000000Y-111500000D03*
X126500000Y-111500000D03*
X126500000Y-115500000D03*
X122000000Y-115500000D03*
X122000000Y-119500000D03*
X126500000Y-119500000D03*
X126500000Y-123500000D03*
X122500000Y-123500000D03*
X122500000Y-127500000D03*
X126500000Y-127500000D03*
X126500000Y-131500000D03*
X122500000Y-131500000D03*
X122500000Y-135500000D03*
X126500000Y-139500000D03*
X122500000Y-139500000D03*
X302250000Y-355470000D03*
X272250000Y-355470000D03*
X242250000Y-355470000D03*
X212250000Y-355470000D03*
X182250000Y-355470000D03*
X152250000Y-355470000D03*
X122250000Y-355470000D03*
X302250000Y-250470000D03*
X272250000Y-250470000D03*
X242250000Y-250470000D03*
X212250000Y-250470000D03*
X182250000Y-250470000D03*
X152250000Y-250470000D03*
X122250000Y-250470000D03*
X302250000Y-145470000D03*
X272250000Y-145470000D03*
X242250000Y-145470000D03*
X212250000Y-145470000D03*
X182250000Y-145470000D03*
X152250000Y-145470000D03*
X302250000Y-356590000D03*
X272250000Y-356590000D03*
X242250000Y-356590000D03*
X212250000Y-356590000D03*
X182250000Y-356590000D03*
X152250000Y-356590000D03*
X122250000Y-356590000D03*
X302250000Y-251590000D03*
X272250000Y-251590000D03*
X242250000Y-251590000D03*
X212250000Y-251590000D03*
X182250000Y-251590000D03*
X152250000Y-251590000D03*
X122250000Y-251590000D03*
X302250000Y-146590000D03*
X272250000Y-146590000D03*
X242250000Y-146590000D03*
X212250000Y-146590000D03*
X182250000Y-146590000D03*
X152250000Y-146590000D03*
X122250000Y-145470000D03*
X122250000Y-146590000D03*
X106500000Y-256500000D03*
X106500000Y-165500000D03*
X101500000Y-165500000D03*
X299500000Y-361500000D03*
X269500000Y-361500000D03*
X239500000Y-361500000D03*
X209500000Y-361500000D03*
X179500000Y-361500000D03*
X149500000Y-361500000D03*
X119500000Y-361500000D03*
X299500000Y-256500000D03*
X269500000Y-256500000D03*
X239500000Y-256500000D03*
X209500000Y-256500000D03*
X179500000Y-256500000D03*
X149500000Y-256500000D03*
X119500000Y-256500000D03*
X299500000Y-151500000D03*
X269500000Y-151500000D03*
X239500000Y-151500000D03*
X209500000Y-151500000D03*
X179500000Y-151500000D03*
X149500000Y-151500000D03*
X106500000Y-151500000D03*
X119500000Y-151500000D03*
X299500000Y-330700000D03*
X269500000Y-330700000D03*
X239500000Y-330700000D03*
X209500000Y-330700000D03*
X179500000Y-330700000D03*
X149500000Y-330700000D03*
X119500000Y-330700000D03*
X299500000Y-225700000D03*
X269500000Y-225700000D03*
X239500000Y-225700000D03*
X209500000Y-225700000D03*
X179500000Y-225700000D03*
X149500000Y-225700000D03*
X119500000Y-225700000D03*
X299500000Y-120700000D03*
X269500000Y-120700000D03*
X239500000Y-120700000D03*
X209500000Y-120700000D03*
X179500000Y-120700000D03*
X149500000Y-120700000D03*
X119500000Y-120700000D03*
X103000000Y-260000000D03*
X278500000Y-357000000D03*
X248500000Y-357000000D03*
X218500000Y-357000000D03*
X188500000Y-357000000D03*
X158500000Y-357000000D03*
X128500000Y-357000000D03*
X278500000Y-252000000D03*
X248500000Y-252000000D03*
X218500000Y-252000000D03*
X188500000Y-252000000D03*
X158500000Y-252000000D03*
X128500000Y-252000000D03*
X278500000Y-147000000D03*
X248500000Y-147000000D03*
X218500000Y-147000000D03*
X188500000Y-147000000D03*
X158500000Y-147000000D03*
X278500000Y-365000000D03*
X248500000Y-365000000D03*
X218500000Y-365000000D03*
X188500000Y-365000000D03*
X158500000Y-365000000D03*
X128500000Y-365000000D03*
X278500000Y-260000000D03*
X248500000Y-260000000D03*
X218500000Y-260000000D03*
X188500000Y-260000000D03*
X158500000Y-260000000D03*
X128500000Y-260000000D03*
X278500000Y-155000000D03*
X248500000Y-155000000D03*
X218500000Y-155000000D03*
X188500000Y-155000000D03*
X158500000Y-155000000D03*
X103000000Y-155000000D03*
X128500000Y-147000000D03*
X128500000Y-155000000D03*
X133500000Y-101100000D03*
X132500000Y-101100000D03*
X115500000Y-101100000D03*
X116500000Y-101100000D03*
X133500000Y-104700000D03*
X132500000Y-104700000D03*
X115500000Y-104700000D03*
X116500000Y-104700000D03*
X163500000Y-101100000D03*
X162500000Y-101100000D03*
X146500000Y-101100000D03*
X145500000Y-101100000D03*
X163500000Y-104700000D03*
X162500000Y-104700000D03*
X146500000Y-104700000D03*
X145500000Y-104700000D03*
X193500000Y-104700000D03*
X192500000Y-104700000D03*
X176500000Y-104700000D03*
X175500000Y-104700000D03*
X193500000Y-101100000D03*
X192500000Y-101100000D03*
X176500000Y-101100000D03*
X175500000Y-101100000D03*
X223500000Y-101100000D03*
X222500000Y-101100000D03*
X206500000Y-101100000D03*
X205500000Y-101100000D03*
X223500000Y-104700000D03*
X222500000Y-104700000D03*
X206500000Y-104700000D03*
X205500000Y-104700000D03*
X253500000Y-101100000D03*
X252500000Y-101100000D03*
X236500000Y-101100000D03*
X235500000Y-101100000D03*
X253500000Y-104700000D03*
X252500000Y-104700000D03*
X236500000Y-104700000D03*
X235500000Y-104700000D03*
X283500000Y-101100000D03*
X282500000Y-101100000D03*
X266500000Y-101100000D03*
X265500000Y-101100000D03*
X283500000Y-104700000D03*
X282500000Y-104700000D03*
X266500000Y-104700000D03*
X265500000Y-104700000D03*
X313500000Y-101100000D03*
X312500000Y-101100000D03*
X296500000Y-101100000D03*
X295500000Y-101100000D03*
X313500000Y-104700000D03*
X312500000Y-104700000D03*
X296500000Y-104700000D03*
X295500000Y-104700000D03*
X133500000Y-206100000D03*
X132500000Y-206100000D03*
X116500000Y-206100000D03*
X115500000Y-206100000D03*
X133500000Y-209700000D03*
X132500000Y-209700000D03*
X116500000Y-209700000D03*
X115500000Y-209700000D03*
X163500000Y-206100000D03*
X162500000Y-206100000D03*
X146500000Y-206100000D03*
X145500000Y-206100000D03*
X163500000Y-209700000D03*
X162500000Y-209700000D03*
X146500000Y-209700000D03*
X145500000Y-209700000D03*
X193500000Y-206100000D03*
X192500000Y-206100000D03*
X176500000Y-206100000D03*
X175500000Y-206100000D03*
X193500000Y-209700000D03*
X192500000Y-209700000D03*
X176500000Y-209700000D03*
X175500000Y-209700000D03*
X223500000Y-206100000D03*
X222500000Y-206100000D03*
X206500000Y-206100000D03*
X205500000Y-206100000D03*
X223500000Y-209700000D03*
X222500000Y-209700000D03*
X206500000Y-209700000D03*
X205500000Y-209700000D03*
X253500000Y-206100000D03*
X252500000Y-206100000D03*
X236500000Y-206100000D03*
X235500000Y-206100000D03*
X253500000Y-209700000D03*
X252500000Y-209700000D03*
X236500000Y-209700000D03*
X235500000Y-209700000D03*
X283500000Y-206100000D03*
X282500000Y-206100000D03*
X266500000Y-206100000D03*
X265500000Y-206100000D03*
X283500000Y-209700000D03*
X282500000Y-209700000D03*
X266500000Y-209700000D03*
X265500000Y-209700000D03*
X313500000Y-206100000D03*
X312500000Y-206100000D03*
X296500000Y-206100000D03*
X295500000Y-206100000D03*
X313500000Y-209700000D03*
X312500000Y-209700000D03*
X296500000Y-209700000D03*
X295500000Y-209700000D03*
X133500000Y-311100000D03*
X132500000Y-311100000D03*
X116500000Y-311100000D03*
X115500000Y-311100000D03*
X133500000Y-314700000D03*
X132500000Y-314700000D03*
X116500000Y-314700000D03*
X115500000Y-314700000D03*
X163500000Y-311100000D03*
X162500000Y-311100000D03*
X146500000Y-311100000D03*
X145500000Y-311100000D03*
X163500000Y-314700000D03*
X162500000Y-314700000D03*
X146500000Y-314700000D03*
X145500000Y-314700000D03*
X193500000Y-311100000D03*
X192500000Y-311100000D03*
X176500000Y-311100000D03*
X175500000Y-311100000D03*
X193500000Y-314700000D03*
X192500000Y-314700000D03*
X176500000Y-314700000D03*
X175500000Y-314700000D03*
X223500000Y-311100000D03*
X222500000Y-311100000D03*
X206500000Y-311100000D03*
X205500000Y-311100000D03*
X223500000Y-314700000D03*
X222500000Y-314700000D03*
X206500000Y-314700000D03*
X205500000Y-314700000D03*
X253500000Y-311100000D03*
X252500000Y-311100000D03*
X236500000Y-311100000D03*
X235500000Y-311100000D03*
X253500000Y-314700000D03*
X252500000Y-314700000D03*
X236500000Y-314700000D03*
X235500000Y-314700000D03*
X283500000Y-311100000D03*
X282500000Y-311100000D03*
X266500000Y-311100000D03*
X265500000Y-311100000D03*
X283500000Y-314700000D03*
X282500000Y-314700000D03*
X266500000Y-314700000D03*
X265500000Y-314700000D03*
X313500000Y-311100000D03*
X312500000Y-311100000D03*
X296500000Y-311100000D03*
X295500000Y-311100000D03*
X313500000Y-314700000D03*
X312500000Y-314700000D03*
X296500000Y-314700000D03*
X295500000Y-314700000D03*
D24*
X85500000Y-173500000D02*
X81000000Y-173500000D01*
X81000000Y-173500000D02*
X79500000Y-175000000D01*
X79500000Y-175000000D02*
X79500000Y-179000000D01*
X79500000Y-179000000D02*
X81500000Y-181000000D01*
X81500000Y-181000000D02*
X85500000Y-181000000D01*
X104000000Y-178500000D02*
X104000000Y-259000000D01*
X104000000Y-259000000D02*
X104000000Y-353904191D01*
X104000000Y-154000000D02*
X104000000Y-178500000D01*
X88200000Y-178460000D02*
X101960000Y-178460000D01*
X104000000Y-353904191D02*
X114095809Y-364000000D01*
X114095809Y-364000000D02*
X127075736Y-364000000D01*
X127075736Y-364000000D02*
X127500000Y-364000000D01*
X277500000Y-364000000D02*
X307000000Y-364000000D01*
X307500000Y-363500000D02*
X307000000Y-364000000D01*
X307500000Y-354000000D02*
X307500000Y-363500000D01*
X277500000Y-259000000D02*
X307000000Y-259000000D01*
X307500000Y-249000000D02*
X307500000Y-258500000D01*
X307500000Y-258500000D02*
X307000000Y-259000000D01*
X277500000Y-154000000D02*
X307000000Y-154000000D01*
X307500000Y-144000000D02*
X307500000Y-153500000D01*
X307500000Y-153500000D02*
X307000000Y-154000000D01*
X247500000Y-364000000D02*
X277500000Y-364000000D01*
X217500000Y-364000000D02*
X247500000Y-364000000D01*
X187500000Y-364000000D02*
X217500000Y-364000000D01*
X157500000Y-364000000D02*
X187500000Y-364000000D01*
X127500000Y-364000000D02*
X157500000Y-364000000D01*
X247500000Y-259000000D02*
X277500000Y-259000000D01*
X217500000Y-259000000D02*
X247500000Y-259000000D01*
X187500000Y-259000000D02*
X217500000Y-259000000D01*
X157500000Y-259000000D02*
X187500000Y-259000000D01*
X127500000Y-259000000D02*
X157500000Y-259000000D01*
X247500000Y-154000000D02*
X277500000Y-154000000D01*
X217500000Y-154000000D02*
X247500000Y-154000000D01*
X187500000Y-154000000D02*
X217500000Y-154000000D01*
X157500000Y-154000000D02*
X187500000Y-154000000D01*
X127500000Y-154000000D02*
X157500000Y-154000000D01*
X277500000Y-354000000D02*
X277500000Y-357000000D01*
X247500000Y-354000000D02*
X247500000Y-357000000D01*
X217500000Y-354000000D02*
X217500000Y-357000000D01*
X187500000Y-354000000D02*
X187500000Y-357000000D01*
X157500000Y-354000000D02*
X157500000Y-357000000D01*
X127500000Y-354000000D02*
X127500000Y-357000000D01*
X277500000Y-249000000D02*
X277500000Y-252000000D01*
X247500000Y-249000000D02*
X247500000Y-252000000D01*
X217500000Y-249000000D02*
X217500000Y-252000000D01*
X187500000Y-249000000D02*
X187500000Y-252000000D01*
X157500000Y-249000000D02*
X157500000Y-252000000D01*
X127500000Y-249000000D02*
X127500000Y-252000000D01*
X277500000Y-144000000D02*
X277500000Y-147000000D01*
X247500000Y-144000000D02*
X247500000Y-147000000D01*
X217500000Y-144000000D02*
X217500000Y-147000000D01*
X187500000Y-144000000D02*
X187500000Y-147000000D01*
X157500000Y-144000000D02*
X157500000Y-147000000D01*
X127500000Y-144000000D02*
X127500000Y-147000000D01*
X81500000Y-178460000D02*
X88200000Y-178460000D01*
X88200000Y-181000000D02*
X88200000Y-178460000D01*
X105000000Y-176000000D02*
X105000000Y-258000000D01*
X105000000Y-258000000D02*
X105000000Y-354267781D01*
X105000000Y-153000000D02*
X105000000Y-176000000D01*
X88200000Y-175920000D02*
X101920000Y-175920000D01*
X105000000Y-354267781D02*
X113732219Y-363000000D01*
X113732219Y-363000000D02*
X126075736Y-363000000D01*
X126075736Y-363000000D02*
X126500000Y-363000000D01*
X306000000Y-363000000D02*
X276500000Y-363000000D01*
X306500000Y-354000000D02*
X306500000Y-362500000D01*
X306500000Y-362500000D02*
X306000000Y-363000000D01*
X306000000Y-258000000D02*
X276500000Y-258000000D01*
X306500000Y-249000000D02*
X306500000Y-257500000D01*
X306500000Y-257500000D02*
X306000000Y-258000000D01*
X306000000Y-153000000D02*
X276500000Y-153000000D01*
X306500000Y-144000000D02*
X306500000Y-152500000D01*
X306500000Y-152500000D02*
X306000000Y-153000000D01*
X276500000Y-363000000D02*
X246500000Y-363000000D01*
X246500000Y-363000000D02*
X216500000Y-363000000D01*
X216500000Y-363000000D02*
X186500000Y-363000000D01*
X186500000Y-363000000D02*
X156500000Y-363000000D01*
X156500000Y-363000000D02*
X126500000Y-363000000D01*
X276500000Y-258000000D02*
X246500000Y-258000000D01*
X246500000Y-258000000D02*
X216500000Y-258000000D01*
X216500000Y-258000000D02*
X186500000Y-258000000D01*
X186500000Y-258000000D02*
X156500000Y-258000000D01*
X156500000Y-258000000D02*
X126500000Y-258000000D01*
X276500000Y-153000000D02*
X246500000Y-153000000D01*
X246500000Y-153000000D02*
X216500000Y-153000000D01*
X216500000Y-153000000D02*
X186500000Y-153000000D01*
X186500000Y-153000000D02*
X156500000Y-153000000D01*
X156500000Y-153000000D02*
X126500000Y-153000000D01*
X276500000Y-354000000D02*
X276500000Y-357000000D01*
X246500000Y-354000000D02*
X246500000Y-357000000D01*
X216500000Y-354000000D02*
X216500000Y-357000000D01*
X186500000Y-354000000D02*
X186500000Y-357000000D01*
X156500000Y-354000000D02*
X156500000Y-357000000D01*
X126500000Y-354000000D02*
X126500000Y-357000000D01*
X276500000Y-249000000D02*
X276500000Y-252000000D01*
X246500000Y-249000000D02*
X246500000Y-252000000D01*
X216500000Y-249000000D02*
X216500000Y-252000000D01*
X186500000Y-249000000D02*
X186500000Y-252000000D01*
X156500000Y-249000000D02*
X156500000Y-252000000D01*
X126500000Y-249000000D02*
X126500000Y-252000000D01*
X276500000Y-144000000D02*
X276500000Y-147000000D01*
X246500000Y-144000000D02*
X246500000Y-147000000D01*
X216500000Y-144000000D02*
X216500000Y-147000000D01*
X186500000Y-144000000D02*
X186500000Y-147000000D01*
X156500000Y-144000000D02*
X156500000Y-147000000D01*
X126500000Y-144000000D02*
X126500000Y-147000000D01*
X81500000Y-175920000D02*
X88200000Y-175920000D01*
X88200000Y-173500000D02*
X88200000Y-175920000D01*
D25*
X302500000Y-349500000D02*
X306500000Y-349500000D01*
X272500000Y-349500000D02*
X276500000Y-349500000D01*
X242500000Y-349500000D02*
X246500000Y-349500000D01*
X212500000Y-349500000D02*
X216500000Y-349500000D01*
X182500000Y-349500000D02*
X186500000Y-349500000D01*
X152500000Y-349500000D02*
X156500000Y-349500000D01*
X122500000Y-349500000D02*
X126500000Y-349500000D01*
X302500000Y-244500000D02*
X306500000Y-244500000D01*
X272500000Y-244500000D02*
X276500000Y-244500000D01*
X242500000Y-244500000D02*
X246500000Y-244500000D01*
X212500000Y-244500000D02*
X216500000Y-244500000D01*
X182500000Y-244500000D02*
X186500000Y-244500000D01*
X152500000Y-244500000D02*
X156500000Y-244500000D01*
X122500000Y-244500000D02*
X126500000Y-244500000D01*
X302500000Y-139500000D02*
X306500000Y-139500000D01*
X272500000Y-139500000D02*
X276500000Y-139500000D01*
X242500000Y-139500000D02*
X246500000Y-139500000D01*
X212500000Y-139500000D02*
X216500000Y-139500000D01*
X182500000Y-139500000D02*
X186500000Y-139500000D01*
X152500000Y-139500000D02*
X156500000Y-139500000D01*
X302500000Y-345500000D02*
X302500000Y-341500000D01*
X272500000Y-345500000D02*
X272500000Y-341500000D01*
X242500000Y-345500000D02*
X242500000Y-341500000D01*
X212500000Y-345500000D02*
X212500000Y-341500000D01*
X182500000Y-345500000D02*
X182500000Y-341500000D01*
X152500000Y-345500000D02*
X152500000Y-341500000D01*
X122500000Y-345500000D02*
X122500000Y-341500000D01*
X302500000Y-240500000D02*
X302500000Y-236500000D01*
X272500000Y-240500000D02*
X272500000Y-236500000D01*
X242500000Y-240500000D02*
X242500000Y-236500000D01*
X212500000Y-240500000D02*
X212500000Y-236500000D01*
X182500000Y-240500000D02*
X182500000Y-236500000D01*
X152500000Y-240500000D02*
X152500000Y-236500000D01*
X122500000Y-240500000D02*
X122500000Y-236500000D01*
X302500000Y-135500000D02*
X302500000Y-131500000D01*
X272500000Y-135500000D02*
X272500000Y-131500000D01*
X242500000Y-135500000D02*
X242500000Y-131500000D01*
X212500000Y-135500000D02*
X212500000Y-131500000D01*
X182500000Y-135500000D02*
X182500000Y-131500000D01*
X152500000Y-135500000D02*
X152500000Y-131500000D01*
X302500000Y-337500000D02*
X302500000Y-333500000D01*
X272500000Y-337500000D02*
X272500000Y-333500000D01*
X242500000Y-337500000D02*
X242500000Y-333500000D01*
X212500000Y-337500000D02*
X212500000Y-333500000D01*
X182500000Y-337500000D02*
X182500000Y-333500000D01*
X152500000Y-337500000D02*
X152500000Y-333500000D01*
X122500000Y-337500000D02*
X122500000Y-333500000D01*
X302500000Y-232500000D02*
X302500000Y-228500000D01*
X272500000Y-232500000D02*
X272500000Y-228500000D01*
X242500000Y-232500000D02*
X242500000Y-228500000D01*
X212500000Y-232500000D02*
X212500000Y-228500000D01*
X182500000Y-232500000D02*
X182500000Y-228500000D01*
X152500000Y-232500000D02*
X152500000Y-228500000D01*
X122500000Y-232500000D02*
X122500000Y-228500000D01*
X302500000Y-127500000D02*
X302500000Y-123500000D01*
X272500000Y-127500000D02*
X272500000Y-123500000D01*
X242500000Y-127500000D02*
X242500000Y-123500000D01*
X212500000Y-127500000D02*
X212500000Y-123500000D01*
X182500000Y-127500000D02*
X182500000Y-123500000D01*
X152500000Y-127500000D02*
X152500000Y-123500000D01*
X302000000Y-329500000D02*
X302000000Y-325500000D01*
X272000000Y-329500000D02*
X272000000Y-325500000D01*
X242000000Y-329500000D02*
X242000000Y-325500000D01*
X212000000Y-329500000D02*
X212000000Y-325500000D01*
X182000000Y-329500000D02*
X182000000Y-325500000D01*
X152000000Y-329500000D02*
X152000000Y-325500000D01*
X122000000Y-329500000D02*
X122000000Y-325500000D01*
X302000000Y-224500000D02*
X302000000Y-220500000D01*
X272000000Y-224500000D02*
X272000000Y-220500000D01*
X242000000Y-224500000D02*
X242000000Y-220500000D01*
X212000000Y-224500000D02*
X212000000Y-220500000D01*
X182000000Y-224500000D02*
X182000000Y-220500000D01*
X152000000Y-224500000D02*
X152000000Y-220500000D01*
X122000000Y-224500000D02*
X122000000Y-220500000D01*
X302000000Y-119500000D02*
X302000000Y-115500000D01*
X272000000Y-119500000D02*
X272000000Y-115500000D01*
X242000000Y-119500000D02*
X242000000Y-115500000D01*
X212000000Y-119500000D02*
X212000000Y-115500000D01*
X182000000Y-119500000D02*
X182000000Y-115500000D01*
X152000000Y-119500000D02*
X152000000Y-115500000D01*
X302500000Y-292500000D02*
X302500000Y-288500000D01*
X272500000Y-292500000D02*
X272500000Y-288500000D01*
X242500000Y-292500000D02*
X242500000Y-288500000D01*
X212500000Y-292500000D02*
X212500000Y-288500000D01*
X182500000Y-292500000D02*
X182500000Y-288500000D01*
X152500000Y-292500000D02*
X152500000Y-288500000D01*
X122500000Y-292500000D02*
X122500000Y-288500000D01*
X302500000Y-187500000D02*
X302500000Y-183500000D01*
X272500000Y-187500000D02*
X272500000Y-183500000D01*
X242500000Y-187500000D02*
X242500000Y-183500000D01*
X212500000Y-187500000D02*
X212500000Y-183500000D01*
X182500000Y-187500000D02*
X182500000Y-183500000D01*
X152500000Y-187500000D02*
X152500000Y-183500000D01*
X122500000Y-187500000D02*
X122500000Y-183500000D01*
X302500000Y-82500000D02*
X302500000Y-78500000D01*
X272500000Y-82500000D02*
X272500000Y-78500000D01*
X242500000Y-82500000D02*
X242500000Y-78500000D01*
X212500000Y-82500000D02*
X212500000Y-78500000D01*
X182500000Y-82500000D02*
X182500000Y-78500000D01*
X152500000Y-82500000D02*
X152500000Y-78500000D01*
X302000000Y-321500000D02*
X302000000Y-317500000D01*
X272000000Y-321500000D02*
X272000000Y-317500000D01*
X242000000Y-321500000D02*
X242000000Y-317500000D01*
X212000000Y-321500000D02*
X212000000Y-317500000D01*
X182000000Y-321500000D02*
X182000000Y-317500000D01*
X152000000Y-321500000D02*
X152000000Y-317500000D01*
X122000000Y-321500000D02*
X122000000Y-317500000D01*
X302000000Y-216500000D02*
X302000000Y-212500000D01*
X272000000Y-216500000D02*
X272000000Y-212500000D01*
X242000000Y-216500000D02*
X242000000Y-212500000D01*
X212000000Y-216500000D02*
X212000000Y-212500000D01*
X182000000Y-216500000D02*
X182000000Y-212500000D01*
X152000000Y-216500000D02*
X152000000Y-212500000D01*
X122000000Y-216500000D02*
X122000000Y-212500000D01*
X302000000Y-111500000D02*
X302000000Y-107500000D01*
X272000000Y-111500000D02*
X272000000Y-107500000D01*
X242000000Y-111500000D02*
X242000000Y-107500000D01*
X212000000Y-111500000D02*
X212000000Y-107500000D01*
X182000000Y-111500000D02*
X182000000Y-107500000D01*
X152000000Y-111500000D02*
X152000000Y-107500000D01*
X302500000Y-308500000D02*
X302500000Y-304500000D01*
X272500000Y-308500000D02*
X272500000Y-304500000D01*
X242500000Y-308500000D02*
X242500000Y-304500000D01*
X212500000Y-308500000D02*
X212500000Y-304500000D01*
X182500000Y-308500000D02*
X182500000Y-304500000D01*
X152500000Y-308500000D02*
X152500000Y-304500000D01*
X122500000Y-308500000D02*
X122500000Y-304500000D01*
X302500000Y-203500000D02*
X302500000Y-199500000D01*
X272500000Y-203500000D02*
X272500000Y-199500000D01*
X242500000Y-203500000D02*
X242500000Y-199500000D01*
X212500000Y-203500000D02*
X212500000Y-199500000D01*
X182500000Y-203500000D02*
X182500000Y-199500000D01*
X152500000Y-203500000D02*
X152500000Y-199500000D01*
X122500000Y-203500000D02*
X122500000Y-199500000D01*
X302500000Y-98500000D02*
X302500000Y-94500000D01*
X272500000Y-98500000D02*
X272500000Y-94500000D01*
X242500000Y-98500000D02*
X242500000Y-94500000D01*
X212500000Y-98500000D02*
X212500000Y-94500000D01*
X182500000Y-98500000D02*
X182500000Y-94500000D01*
X152500000Y-98500000D02*
X152500000Y-94500000D01*
X302500000Y-300500000D02*
X302500000Y-296500000D01*
X272500000Y-300500000D02*
X272500000Y-296500000D01*
X242500000Y-300500000D02*
X242500000Y-296500000D01*
X212500000Y-300500000D02*
X212500000Y-296500000D01*
X182500000Y-300500000D02*
X182500000Y-296500000D01*
X152500000Y-300500000D02*
X152500000Y-296500000D01*
X122500000Y-300500000D02*
X122500000Y-296500000D01*
X302500000Y-195500000D02*
X302500000Y-191500000D01*
X272500000Y-195500000D02*
X272500000Y-191500000D01*
X242500000Y-195500000D02*
X242500000Y-191500000D01*
X212500000Y-195500000D02*
X212500000Y-191500000D01*
X182500000Y-195500000D02*
X182500000Y-191500000D01*
X152500000Y-195500000D02*
X152500000Y-191500000D01*
X122500000Y-195500000D02*
X122500000Y-191500000D01*
X302500000Y-90500000D02*
X302500000Y-86500000D01*
X272500000Y-90500000D02*
X272500000Y-86500000D01*
X242500000Y-90500000D02*
X242500000Y-86500000D01*
X212500000Y-90500000D02*
X212500000Y-86500000D01*
X182500000Y-90500000D02*
X182500000Y-86500000D01*
X152500000Y-90500000D02*
X152500000Y-86500000D01*
X306500000Y-341500000D02*
X306500000Y-337500000D01*
X276500000Y-341500000D02*
X276500000Y-337500000D01*
X246500000Y-341500000D02*
X246500000Y-337500000D01*
X216500000Y-341500000D02*
X216500000Y-337500000D01*
X186500000Y-341500000D02*
X186500000Y-337500000D01*
X156500000Y-341500000D02*
X156500000Y-337500000D01*
X126500000Y-341500000D02*
X126500000Y-337500000D01*
X306500000Y-236500000D02*
X306500000Y-232500000D01*
X276500000Y-236500000D02*
X276500000Y-232500000D01*
X246500000Y-236500000D02*
X246500000Y-232500000D01*
X216500000Y-236500000D02*
X216500000Y-232500000D01*
X186500000Y-236500000D02*
X186500000Y-232500000D01*
X156500000Y-236500000D02*
X156500000Y-232500000D01*
X126500000Y-236500000D02*
X126500000Y-232500000D01*
X306500000Y-131500000D02*
X306500000Y-127500000D01*
X276500000Y-131500000D02*
X276500000Y-127500000D01*
X246500000Y-131500000D02*
X246500000Y-127500000D01*
X216500000Y-131500000D02*
X216500000Y-127500000D01*
X186500000Y-131500000D02*
X186500000Y-127500000D01*
X156500000Y-131500000D02*
X156500000Y-127500000D01*
X306500000Y-325500000D02*
X306500000Y-321500000D01*
X276500000Y-325500000D02*
X276500000Y-321500000D01*
X246500000Y-325500000D02*
X246500000Y-321500000D01*
X216500000Y-325500000D02*
X216500000Y-321500000D01*
X186500000Y-325500000D02*
X186500000Y-321500000D01*
X156500000Y-325500000D02*
X156500000Y-321500000D01*
X126500000Y-325500000D02*
X126500000Y-321500000D01*
X306500000Y-220500000D02*
X306500000Y-216500000D01*
X276500000Y-220500000D02*
X276500000Y-216500000D01*
X246500000Y-220500000D02*
X246500000Y-216500000D01*
X216500000Y-220500000D02*
X216500000Y-216500000D01*
X186500000Y-220500000D02*
X186500000Y-216500000D01*
X156500000Y-220500000D02*
X156500000Y-216500000D01*
X126500000Y-220500000D02*
X126500000Y-216500000D01*
X306500000Y-115500000D02*
X306500000Y-111500000D01*
X276500000Y-115500000D02*
X276500000Y-111500000D01*
X246500000Y-115500000D02*
X246500000Y-111500000D01*
X216500000Y-115500000D02*
X216500000Y-111500000D01*
X186500000Y-115500000D02*
X186500000Y-111500000D01*
X156500000Y-115500000D02*
X156500000Y-111500000D01*
X306500000Y-333500000D02*
X306500000Y-329500000D01*
X276500000Y-333500000D02*
X276500000Y-329500000D01*
X246500000Y-333500000D02*
X246500000Y-329500000D01*
X216500000Y-333500000D02*
X216500000Y-329500000D01*
X186500000Y-333500000D02*
X186500000Y-329500000D01*
X156500000Y-333500000D02*
X156500000Y-329500000D01*
X126500000Y-333500000D02*
X126500000Y-329500000D01*
X306500000Y-228500000D02*
X306500000Y-224500000D01*
X276500000Y-228500000D02*
X276500000Y-224500000D01*
X246500000Y-228500000D02*
X246500000Y-224500000D01*
X216500000Y-228500000D02*
X216500000Y-224500000D01*
X186500000Y-228500000D02*
X186500000Y-224500000D01*
X156500000Y-228500000D02*
X156500000Y-224500000D01*
X126500000Y-228500000D02*
X126500000Y-224500000D01*
X306500000Y-123500000D02*
X306500000Y-119500000D01*
X276500000Y-123500000D02*
X276500000Y-119500000D01*
X246500000Y-123500000D02*
X246500000Y-119500000D01*
X216500000Y-123500000D02*
X216500000Y-119500000D01*
X186500000Y-123500000D02*
X186500000Y-119500000D01*
X156500000Y-123500000D02*
X156500000Y-119500000D01*
X306500000Y-308500000D02*
X306500000Y-317500000D01*
X276500000Y-308500000D02*
X276500000Y-317500000D01*
X246500000Y-308500000D02*
X246500000Y-317500000D01*
X216500000Y-308500000D02*
X216500000Y-317500000D01*
X186500000Y-308500000D02*
X186500000Y-317500000D01*
X156500000Y-308500000D02*
X156500000Y-317500000D01*
X126500000Y-308500000D02*
X126500000Y-317500000D01*
X306500000Y-203500000D02*
X306500000Y-212500000D01*
X276500000Y-203500000D02*
X276500000Y-212500000D01*
X246500000Y-203500000D02*
X246500000Y-212500000D01*
X216500000Y-203500000D02*
X216500000Y-212500000D01*
X186500000Y-203500000D02*
X186500000Y-212500000D01*
X156500000Y-203500000D02*
X156500000Y-212500000D01*
X126500000Y-203500000D02*
X126500000Y-212500000D01*
X306500000Y-98500000D02*
X306500000Y-107500000D01*
X276500000Y-98500000D02*
X276500000Y-107500000D01*
X246500000Y-98500000D02*
X246500000Y-107500000D01*
X216500000Y-98500000D02*
X216500000Y-107500000D01*
X186500000Y-98500000D02*
X186500000Y-107500000D01*
X156500000Y-98500000D02*
X156500000Y-107500000D01*
X306500000Y-288500000D02*
X306500000Y-284500000D01*
X276500000Y-288500000D02*
X276500000Y-284500000D01*
X246500000Y-288500000D02*
X246500000Y-284500000D01*
X216500000Y-288500000D02*
X216500000Y-284500000D01*
X186500000Y-288500000D02*
X186500000Y-284500000D01*
X156500000Y-288500000D02*
X156500000Y-284500000D01*
X126500000Y-288500000D02*
X126500000Y-284500000D01*
X306500000Y-183500000D02*
X306500000Y-179500000D01*
X276500000Y-183500000D02*
X276500000Y-179500000D01*
X246500000Y-183500000D02*
X246500000Y-179500000D01*
X216500000Y-183500000D02*
X216500000Y-179500000D01*
X186500000Y-183500000D02*
X186500000Y-179500000D01*
X156500000Y-183500000D02*
X156500000Y-179500000D01*
X126500000Y-183500000D02*
X126500000Y-179500000D01*
X306500000Y-78500000D02*
X306500000Y-74500000D01*
X276500000Y-78500000D02*
X276500000Y-74500000D01*
X246500000Y-78500000D02*
X246500000Y-74500000D01*
X216500000Y-78500000D02*
X216500000Y-74500000D01*
X186500000Y-78500000D02*
X186500000Y-74500000D01*
X156500000Y-78500000D02*
X156500000Y-74500000D01*
X306500000Y-296500000D02*
X306500000Y-292500000D01*
X276500000Y-296500000D02*
X276500000Y-292500000D01*
X246500000Y-296500000D02*
X246500000Y-292500000D01*
X216500000Y-296500000D02*
X216500000Y-292500000D01*
X186500000Y-296500000D02*
X186500000Y-292500000D01*
X156500000Y-296500000D02*
X156500000Y-292500000D01*
X126500000Y-296500000D02*
X126500000Y-292500000D01*
X306500000Y-191500000D02*
X306500000Y-187500000D01*
X276500000Y-191500000D02*
X276500000Y-187500000D01*
X246500000Y-191500000D02*
X246500000Y-187500000D01*
X216500000Y-191500000D02*
X216500000Y-187500000D01*
X186500000Y-191500000D02*
X186500000Y-187500000D01*
X156500000Y-191500000D02*
X156500000Y-187500000D01*
X126500000Y-191500000D02*
X126500000Y-187500000D01*
X306500000Y-86500000D02*
X306500000Y-82500000D01*
X276500000Y-86500000D02*
X276500000Y-82500000D01*
X246500000Y-86500000D02*
X246500000Y-82500000D01*
X216500000Y-86500000D02*
X216500000Y-82500000D01*
X186500000Y-86500000D02*
X186500000Y-82500000D01*
X156500000Y-86500000D02*
X156500000Y-82500000D01*
X306500000Y-304500000D02*
X306500000Y-300500000D01*
X276500000Y-304500000D02*
X276500000Y-300500000D01*
X246500000Y-304500000D02*
X246500000Y-300500000D01*
X216500000Y-304500000D02*
X216500000Y-300500000D01*
X186500000Y-304500000D02*
X186500000Y-300500000D01*
X156500000Y-304500000D02*
X156500000Y-300500000D01*
X126500000Y-304500000D02*
X126500000Y-300500000D01*
X306500000Y-199500000D02*
X306500000Y-195500000D01*
X276500000Y-199500000D02*
X276500000Y-195500000D01*
X246500000Y-199500000D02*
X246500000Y-195500000D01*
X216500000Y-199500000D02*
X216500000Y-195500000D01*
X186500000Y-199500000D02*
X186500000Y-195500000D01*
X156500000Y-199500000D02*
X156500000Y-195500000D01*
X126500000Y-199500000D02*
X126500000Y-195500000D01*
X306500000Y-94500000D02*
X306500000Y-90500000D01*
X276500000Y-94500000D02*
X276500000Y-90500000D01*
X246500000Y-94500000D02*
X246500000Y-90500000D01*
X216500000Y-94500000D02*
X216500000Y-90500000D01*
X186500000Y-94500000D02*
X186500000Y-90500000D01*
X156500000Y-94500000D02*
X156500000Y-90500000D01*
X126500000Y-78500000D02*
X126500000Y-74500000D01*
X122500000Y-82500000D02*
X122500000Y-78500000D01*
X126500000Y-86500000D02*
X126500000Y-82500000D01*
X122500000Y-90500000D02*
X122500000Y-86500000D01*
X126500000Y-94500000D02*
X126500000Y-90500000D01*
X122500000Y-98500000D02*
X122500000Y-94500000D01*
X126500000Y-98500000D02*
X126500000Y-107500000D01*
X122000000Y-111500000D02*
X122000000Y-107500000D01*
X126500000Y-115500000D02*
X126500000Y-111500000D01*
X122000000Y-119500000D02*
X122000000Y-115500000D01*
X126500000Y-123500000D02*
X126500000Y-119500000D01*
X122500000Y-127500000D02*
X122500000Y-123500000D01*
X126500000Y-131500000D02*
X126500000Y-127500000D01*
X122500000Y-135500000D02*
X122500000Y-131500000D01*
X122500000Y-139500000D02*
X126500000Y-139500000D01*
X302250000Y-355470000D02*
X302250000Y-356590000D01*
X272250000Y-355470000D02*
X272250000Y-356590000D01*
X242250000Y-355470000D02*
X242250000Y-356590000D01*
X212250000Y-355470000D02*
X212250000Y-356590000D01*
X182250000Y-355470000D02*
X182250000Y-356590000D01*
X152250000Y-355470000D02*
X152250000Y-356590000D01*
X122250000Y-355470000D02*
X122250000Y-356590000D01*
X302250000Y-250470000D02*
X302250000Y-251590000D01*
X272250000Y-250470000D02*
X272250000Y-251590000D01*
X242250000Y-250470000D02*
X242250000Y-251590000D01*
X212250000Y-250470000D02*
X212250000Y-251590000D01*
X182250000Y-250470000D02*
X182250000Y-251590000D01*
X152250000Y-250470000D02*
X152250000Y-251590000D01*
X122250000Y-250470000D02*
X122250000Y-251590000D01*
X302250000Y-145470000D02*
X302250000Y-146590000D01*
X272250000Y-145470000D02*
X272250000Y-146590000D01*
X242250000Y-145470000D02*
X242250000Y-146590000D01*
X212250000Y-145470000D02*
X212250000Y-146590000D01*
X182250000Y-145470000D02*
X182250000Y-146590000D01*
X152250000Y-145470000D02*
X152250000Y-146590000D01*
X302250000Y-354000000D02*
X302250000Y-355470000D01*
X272250000Y-354000000D02*
X272250000Y-355470000D01*
X242250000Y-354000000D02*
X242250000Y-355470000D01*
X212250000Y-354000000D02*
X212250000Y-355470000D01*
X182250000Y-354000000D02*
X182250000Y-355470000D01*
X152250000Y-354000000D02*
X152250000Y-355470000D01*
X122250000Y-354000000D02*
X122250000Y-355470000D01*
X302250000Y-249000000D02*
X302250000Y-250470000D01*
X272250000Y-249000000D02*
X272250000Y-250470000D01*
X242250000Y-249000000D02*
X242250000Y-250470000D01*
X212250000Y-249000000D02*
X212250000Y-250470000D01*
X182250000Y-249000000D02*
X182250000Y-250470000D01*
X152250000Y-249000000D02*
X152250000Y-250470000D01*
X122250000Y-249000000D02*
X122250000Y-250470000D01*
X302250000Y-144000000D02*
X302250000Y-145470000D01*
X272250000Y-144000000D02*
X272250000Y-145470000D01*
X242250000Y-144000000D02*
X242250000Y-145470000D01*
X212250000Y-144000000D02*
X212250000Y-145470000D01*
X182250000Y-144000000D02*
X182250000Y-145470000D01*
X152250000Y-144000000D02*
X152250000Y-145470000D01*
X122250000Y-145470000D02*
X122250000Y-146590000D01*
X122250000Y-144000000D02*
X122250000Y-145470000D01*
X123161273Y-358790010D02*
X114790010Y-358790010D01*
X114790010Y-358790010D02*
X109000000Y-353000000D01*
X109000000Y-353000000D02*
X109000000Y-253790010D01*
X109000000Y-148790010D02*
X96209990Y-148790010D01*
X123161273Y-148790010D02*
X109000000Y-148790010D01*
X123161273Y-253790010D02*
X109000000Y-253790010D01*
X109000000Y-148790010D02*
X109000000Y-227000000D01*
X109000000Y-227000000D02*
X109000000Y-253790010D01*
X273161273Y-358790010D02*
X303161273Y-358790010D01*
X273161273Y-253790010D02*
X303161273Y-253790010D01*
X243161273Y-358790010D02*
X273161273Y-358790010D01*
X243161273Y-253790010D02*
X273161273Y-253790010D01*
X213161273Y-358790010D02*
X243161273Y-358790010D01*
X213161273Y-253790010D02*
X243161273Y-253790010D01*
X183161273Y-358790010D02*
X213161273Y-358790010D01*
X183161273Y-253790010D02*
X213161273Y-253790010D01*
X153161273Y-358790010D02*
X183161273Y-358790010D01*
X153161273Y-253790010D02*
X183161273Y-253790010D01*
X123161273Y-358790010D02*
X153161273Y-358790010D01*
X123161273Y-253790010D02*
X153161273Y-253790010D01*
X273161273Y-148790010D02*
X303161273Y-148790010D01*
X304750000Y-147201283D02*
X304750000Y-144000000D01*
X303161273Y-148790010D02*
X304750000Y-147201283D01*
X243161273Y-148790010D02*
X273161273Y-148790010D01*
X273161273Y-148790010D02*
X274750000Y-147201283D01*
X274750000Y-147201283D02*
X274750000Y-144000000D01*
X213161273Y-148790010D02*
X243161273Y-148790010D01*
X243161273Y-148790010D02*
X244750000Y-147201283D01*
X244750000Y-147201283D02*
X244750000Y-144000000D01*
X183161273Y-148790010D02*
X213161273Y-148790010D01*
X213161273Y-148790010D02*
X214750000Y-147201283D01*
X214750000Y-147201283D02*
X214750000Y-144000000D01*
X153161273Y-148790010D02*
X183161273Y-148790010D01*
X184750000Y-147201283D02*
X184750000Y-144000000D01*
X183161273Y-148790010D02*
X184750000Y-147201283D01*
X123161273Y-148790010D02*
X153161273Y-148790010D01*
X153161273Y-148790010D02*
X154750000Y-147201283D01*
X154750000Y-147201283D02*
X154750000Y-144000000D01*
X304750000Y-354000000D02*
X304750000Y-357201283D01*
X274750000Y-354000000D02*
X274750000Y-357201283D01*
X244750000Y-354000000D02*
X244750000Y-357201283D01*
X214750000Y-354000000D02*
X214750000Y-357201283D01*
X184750000Y-354000000D02*
X184750000Y-357201283D01*
X154750000Y-354000000D02*
X154750000Y-357201283D01*
X124750000Y-354000000D02*
X124750000Y-357201283D01*
X304750000Y-249000000D02*
X304750000Y-252201283D01*
X274750000Y-249000000D02*
X274750000Y-252201283D01*
X244750000Y-249000000D02*
X244750000Y-252201283D01*
X214750000Y-249000000D02*
X214750000Y-252201283D01*
X184750000Y-249000000D02*
X184750000Y-252201283D01*
X154750000Y-249000000D02*
X154750000Y-252201283D01*
X124750000Y-249000000D02*
X124750000Y-252201283D01*
X304750000Y-357201283D02*
X303161273Y-358790010D01*
X274750000Y-357201283D02*
X273161273Y-358790010D01*
X244750000Y-357201283D02*
X243161273Y-358790010D01*
X214750000Y-357201283D02*
X213161273Y-358790010D01*
X184750000Y-357201283D02*
X183161273Y-358790010D01*
X154750000Y-357201283D02*
X153161273Y-358790010D01*
X124750000Y-357201283D02*
X123161273Y-358790010D01*
X304750000Y-252201283D02*
X303161273Y-253790010D01*
X274750000Y-252201283D02*
X273161273Y-253790010D01*
X244750000Y-252201283D02*
X243161273Y-253790010D01*
X214750000Y-252201283D02*
X213161273Y-253790010D01*
X184750000Y-252201283D02*
X183161273Y-253790010D01*
X154750000Y-252201283D02*
X153161273Y-253790010D01*
X124750000Y-252201283D02*
X123161273Y-253790010D01*
X124750000Y-144000000D02*
X124750000Y-147201283D01*
X124750000Y-147201283D02*
X123161273Y-148790010D01*
D24*
X106500000Y-354000000D02*
X106500000Y-256500000D01*
X106500000Y-256500000D02*
X106500000Y-165500000D01*
X106500000Y-165500000D02*
X106500000Y-151500000D01*
X85525000Y-165525000D02*
X101475000Y-165525000D01*
X101475000Y-165525000D02*
X101500000Y-165500000D01*
X114000000Y-361500000D02*
X119500000Y-361500000D01*
X114000000Y-361500000D02*
X106500000Y-354000000D01*
X269500000Y-361500000D02*
X299500000Y-361500000D01*
X239500000Y-361500000D02*
X269500000Y-361500000D01*
X209500000Y-361500000D02*
X239500000Y-361500000D01*
X179500000Y-361500000D02*
X209500000Y-361500000D01*
X149500000Y-361500000D02*
X179500000Y-361500000D01*
X119500000Y-361500000D02*
X149500000Y-361500000D01*
X269500000Y-256500000D02*
X299500000Y-256500000D01*
X239500000Y-256500000D02*
X269500000Y-256500000D01*
X209500000Y-256500000D02*
X239500000Y-256500000D01*
X179500000Y-256500000D02*
X209500000Y-256500000D01*
X149500000Y-256500000D02*
X179500000Y-256500000D01*
X119500000Y-256500000D02*
X149500000Y-256500000D01*
X269500000Y-151500000D02*
X299500000Y-151500000D01*
X239500000Y-151500000D02*
X269500000Y-151500000D01*
X209500000Y-151500000D02*
X239500000Y-151500000D01*
X179500000Y-151500000D02*
X209500000Y-151500000D01*
X149500000Y-151500000D02*
X179500000Y-151500000D01*
X119500000Y-151500000D02*
X149500000Y-151500000D01*
X298000000Y-330700000D02*
X299500000Y-330700000D01*
X268000000Y-330700000D02*
X269500000Y-330700000D01*
X238000000Y-330700000D02*
X239500000Y-330700000D01*
X208000000Y-330700000D02*
X209500000Y-330700000D01*
X178000000Y-330700000D02*
X179500000Y-330700000D01*
X148000000Y-330700000D02*
X149500000Y-330700000D01*
X118000000Y-330700000D02*
X119500000Y-330700000D01*
X298000000Y-225700000D02*
X299500000Y-225700000D01*
X268000000Y-225700000D02*
X269500000Y-225700000D01*
X238000000Y-225700000D02*
X239500000Y-225700000D01*
X208000000Y-225700000D02*
X209500000Y-225700000D01*
X178000000Y-225700000D02*
X179500000Y-225700000D01*
X148000000Y-225700000D02*
X149500000Y-225700000D01*
X118000000Y-225700000D02*
X119500000Y-225700000D01*
X298000000Y-120700000D02*
X299500000Y-120700000D01*
X268000000Y-120700000D02*
X269500000Y-120700000D01*
X238000000Y-120700000D02*
X239500000Y-120700000D01*
X208000000Y-120700000D02*
X209500000Y-120700000D01*
X178000000Y-120700000D02*
X179500000Y-120700000D01*
X148000000Y-120700000D02*
X149500000Y-120700000D01*
X118000000Y-120700000D02*
X119500000Y-120700000D01*
X118000000Y-120700000D02*
X117492000Y-120700000D01*
X103000000Y-155000000D02*
X103000000Y-260000000D01*
X103000000Y-260000000D02*
X103000000Y-353540601D01*
X88700000Y-162350000D02*
X103000000Y-162350000D01*
X103000000Y-353540601D02*
X114459399Y-365000000D01*
X114459399Y-365000000D02*
X128075736Y-365000000D01*
X128075736Y-365000000D02*
X128500000Y-365000000D01*
X308000000Y-365000000D02*
X278500000Y-365000000D01*
X308000000Y-365000000D02*
X308500000Y-364500000D01*
X308500000Y-364500000D02*
X308500000Y-354000000D01*
X308000000Y-260000000D02*
X278500000Y-260000000D01*
X308500000Y-249000000D02*
X308500000Y-259500000D01*
X308500000Y-259500000D02*
X308000000Y-260000000D01*
X308000000Y-155000000D02*
X278500000Y-155000000D01*
X308500000Y-144000000D02*
X308500000Y-154500000D01*
X308500000Y-154500000D02*
X308000000Y-155000000D01*
X278500000Y-365000000D02*
X248500000Y-365000000D01*
X248500000Y-365000000D02*
X218500000Y-365000000D01*
X218500000Y-365000000D02*
X188500000Y-365000000D01*
X188500000Y-365000000D02*
X158500000Y-365000000D01*
X158500000Y-365000000D02*
X128500000Y-365000000D01*
X278500000Y-260000000D02*
X248500000Y-260000000D01*
X248500000Y-260000000D02*
X218500000Y-260000000D01*
X218500000Y-260000000D02*
X188500000Y-260000000D01*
X188500000Y-260000000D02*
X158500000Y-260000000D01*
X158500000Y-260000000D02*
X128500000Y-260000000D01*
X278500000Y-155000000D02*
X248500000Y-155000000D01*
X248500000Y-155000000D02*
X218500000Y-155000000D01*
X218500000Y-155000000D02*
X188500000Y-155000000D01*
X188500000Y-155000000D02*
X158500000Y-155000000D01*
X158500000Y-155000000D02*
X128500000Y-155000000D01*
X278500000Y-357000000D02*
X278500000Y-354000000D01*
X248500000Y-357000000D02*
X248500000Y-354000000D01*
X218500000Y-357000000D02*
X218500000Y-354000000D01*
X188500000Y-357000000D02*
X188500000Y-354000000D01*
X158500000Y-357000000D02*
X158500000Y-354000000D01*
X128500000Y-357000000D02*
X128500000Y-354000000D01*
X278500000Y-252000000D02*
X278500000Y-249000000D01*
X248500000Y-252000000D02*
X248500000Y-249000000D01*
X218500000Y-252000000D02*
X218500000Y-249000000D01*
X188500000Y-252000000D02*
X188500000Y-249000000D01*
X158500000Y-252000000D02*
X158500000Y-249000000D01*
X128500000Y-252000000D02*
X128500000Y-249000000D01*
X278500000Y-147000000D02*
X278500000Y-144000000D01*
X248500000Y-147000000D02*
X248500000Y-144000000D01*
X218500000Y-147000000D02*
X218500000Y-144000000D01*
X188500000Y-147000000D02*
X188500000Y-144000000D01*
X158500000Y-147000000D02*
X158500000Y-144000000D01*
X128500000Y-147000000D02*
X128500000Y-144000000D01*
D25*
X133500000Y-101100000D02*
X133500000Y-65500000D01*
X133500000Y-65500000D02*
X130000000Y-62000000D01*
X133500000Y-101100000D02*
X132500000Y-101100000D01*
X131000000Y-101100000D02*
X132500000Y-101100000D01*
X116500000Y-101100000D02*
X115500000Y-101100000D01*
X118000000Y-101100000D02*
X116500000Y-101100000D01*
X130000000Y-56300000D02*
X135700010Y-62000010D01*
X135700010Y-62000010D02*
X135700010Y-102499990D01*
X135700010Y-102499990D02*
X133799999Y-104400001D01*
X133500000Y-104700000D02*
X132500000Y-104700000D01*
X131000000Y-104700000D02*
X132500000Y-104700000D01*
X118000000Y-104700000D02*
X115500000Y-104700000D01*
X163500000Y-101100000D02*
X163500000Y-65500000D01*
X163500000Y-65500000D02*
X160000000Y-62000000D01*
X148000000Y-101100000D02*
X146500000Y-101100000D01*
X161000000Y-101100000D02*
X162500000Y-101100000D01*
X163500000Y-101100000D02*
X162500000Y-101100000D01*
X146500000Y-101100000D02*
X145500000Y-101100000D01*
X165700010Y-102499990D02*
X163799999Y-104400001D01*
X165700010Y-62000010D02*
X165700010Y-102499990D01*
X160000000Y-56300000D02*
X165700010Y-62000010D01*
X161000000Y-104700000D02*
X162500000Y-104700000D01*
X163500000Y-104700000D02*
X162500000Y-104700000D01*
X148000000Y-104700000D02*
X145500000Y-104700000D01*
D24*
X115500000Y-135500000D02*
X115500000Y-140496000D01*
X115500000Y-140496000D02*
X115496000Y-140500000D01*
X118600000Y-56300000D02*
X112249990Y-62650010D01*
X112249990Y-62650010D02*
X112249990Y-137253990D01*
X112249990Y-137253990D02*
X115496000Y-140500000D01*
X118996000Y-144000000D02*
X115496000Y-140500000D01*
X119500000Y-144000000D02*
X118996000Y-144000000D01*
X118800000Y-62000000D02*
X118800000Y-95926153D01*
X118800000Y-95926153D02*
X113500000Y-101226153D01*
X113500000Y-101226153D02*
X113500000Y-110704000D01*
X113500000Y-110704000D02*
X115500000Y-112704000D01*
X115500000Y-122250000D02*
X115500000Y-112704000D01*
X115500000Y-112704000D02*
X118000000Y-110204000D01*
X118508000Y-109700000D02*
X118000000Y-109700000D01*
X118000000Y-110204000D02*
X118000000Y-109700000D01*
X117492000Y-109700000D02*
X118000000Y-109700000D01*
X145500000Y-135500000D02*
X145500000Y-140496000D01*
X149500000Y-144000000D02*
X148996000Y-144000000D01*
X148996000Y-144000000D02*
X145496000Y-140500000D01*
X142249990Y-137253990D02*
X145496000Y-140500000D01*
X142249990Y-62650010D02*
X142249990Y-137253990D01*
X148600000Y-56300000D02*
X142249990Y-62650010D01*
X143500000Y-101226153D02*
X143500000Y-110704000D01*
X148800000Y-95926153D02*
X143500000Y-101226153D01*
X148800000Y-62000000D02*
X148800000Y-95926153D01*
X145500000Y-122250000D02*
X145500000Y-112704000D01*
X148000000Y-110204000D02*
X148000000Y-109700000D01*
X145500000Y-112704000D02*
X148000000Y-110204000D01*
X143500000Y-110704000D02*
X145500000Y-112704000D01*
X124500000Y-62000000D02*
X124500000Y-64651650D01*
X124500000Y-64651650D02*
X119500000Y-69651650D01*
X119500000Y-69651650D02*
X119500000Y-106000000D01*
X119500000Y-106000000D02*
X118004000Y-107496000D01*
X118004000Y-107496000D02*
X118000000Y-107496000D01*
X119087001Y-106408999D02*
X118000000Y-107496000D01*
X118000000Y-107496000D02*
X118000000Y-108000000D01*
X148000000Y-107496000D02*
X148000000Y-108000000D01*
X149500000Y-106000000D02*
X148004000Y-107496000D01*
X149500000Y-69651650D02*
X149500000Y-106000000D01*
X154500000Y-62000000D02*
X154500000Y-64651650D01*
X154500000Y-64651650D02*
X149500000Y-69651650D01*
X175500000Y-135500000D02*
X175500000Y-140496000D01*
X179500000Y-144000000D02*
X178996000Y-144000000D01*
X178996000Y-144000000D02*
X175496000Y-140500000D01*
X172249990Y-137253990D02*
X175496000Y-140500000D01*
X172249990Y-62650010D02*
X172249990Y-137253990D01*
X178600000Y-56300000D02*
X172249990Y-62650010D01*
D25*
X191000000Y-104700000D02*
X192500000Y-104700000D01*
X193500000Y-104700000D02*
X192500000Y-104700000D01*
X178000000Y-104700000D02*
X175500000Y-104700000D01*
X195700010Y-102499990D02*
X193799999Y-104400001D01*
X195700010Y-62000010D02*
X195700010Y-102499990D01*
X190000000Y-56300000D02*
X195700010Y-62000010D01*
D24*
X175500000Y-122250000D02*
X175500000Y-112704000D01*
X178000000Y-110204000D02*
X178000000Y-109700000D01*
X175500000Y-112704000D02*
X178000000Y-110204000D01*
X173500000Y-110704000D02*
X175500000Y-112704000D01*
X173500000Y-101226153D02*
X173500000Y-110704000D01*
X178800000Y-95926153D02*
X173500000Y-101226153D01*
X178800000Y-62000000D02*
X178800000Y-95926153D01*
X178000000Y-107496000D02*
X178000000Y-108000000D01*
X179500000Y-106000000D02*
X178004000Y-107496000D01*
X179500000Y-69651650D02*
X179500000Y-106000000D01*
X184500000Y-64651650D02*
X179500000Y-69651650D01*
X184500000Y-62000000D02*
X184500000Y-64651650D01*
D25*
X193500000Y-101100000D02*
X193500000Y-65500000D01*
X178000000Y-101100000D02*
X176500000Y-101100000D01*
X191000000Y-101100000D02*
X192500000Y-101100000D01*
X193500000Y-101100000D02*
X192500000Y-101100000D01*
X176500000Y-101100000D02*
X175500000Y-101100000D01*
X193500000Y-65500000D02*
X190000000Y-62000000D01*
D24*
X115500000Y-127500000D02*
X115500000Y-131500000D01*
X145500000Y-128750000D02*
X145500000Y-131500000D01*
X175500000Y-128750000D02*
X175500000Y-131500000D01*
X205500000Y-128750000D02*
X205500000Y-131500000D01*
D25*
X223500000Y-101100000D02*
X223500000Y-65500000D01*
X223500000Y-65500000D02*
X220000000Y-62000000D01*
X208000000Y-101100000D02*
X206500000Y-101100000D01*
X221000000Y-101100000D02*
X222500000Y-101100000D01*
X223500000Y-101100000D02*
X222500000Y-101100000D01*
X206500000Y-101100000D02*
X205500000Y-101100000D01*
D24*
X208000000Y-107496000D02*
X208000000Y-108000000D01*
X209500000Y-106000000D02*
X208004000Y-107496000D01*
X209500000Y-69651650D02*
X209500000Y-106000000D01*
X214500000Y-62000000D02*
X214500000Y-64651650D01*
X214500000Y-64651650D02*
X209500000Y-69651650D01*
X203500000Y-101226153D02*
X203500000Y-110704000D01*
X208800000Y-95926153D02*
X203500000Y-101226153D01*
X208800000Y-62000000D02*
X208800000Y-95926153D01*
X205500000Y-122250000D02*
X205500000Y-112704000D01*
X208000000Y-110204000D02*
X208000000Y-109700000D01*
X205500000Y-112704000D02*
X208000000Y-110204000D01*
X203500000Y-110704000D02*
X205500000Y-112704000D01*
D25*
X225700010Y-102499990D02*
X223799999Y-104400001D01*
X225700010Y-62000010D02*
X225700010Y-102499990D01*
X220000000Y-56300000D02*
X225700010Y-62000010D01*
X221000000Y-104700000D02*
X222500000Y-104700000D01*
X223500000Y-104700000D02*
X222500000Y-104700000D01*
X208000000Y-104700000D02*
X205500000Y-104700000D01*
D24*
X205500000Y-135500000D02*
X205500000Y-140496000D01*
X209500000Y-144000000D02*
X208996000Y-144000000D01*
X208996000Y-144000000D02*
X205496000Y-140500000D01*
X202249990Y-137253990D02*
X205496000Y-140500000D01*
X202249990Y-62650010D02*
X202249990Y-137253990D01*
X208600000Y-56300000D02*
X202249990Y-62650010D01*
X235500000Y-128750000D02*
X235500000Y-131500000D01*
X265500000Y-128750000D02*
X265500000Y-131500000D01*
X295500000Y-128750000D02*
X295500000Y-131500000D01*
D25*
X253500000Y-101100000D02*
X253500000Y-65500000D01*
X253500000Y-65500000D02*
X250000000Y-62000000D01*
X238000000Y-101100000D02*
X236500000Y-101100000D01*
X251000000Y-101100000D02*
X252500000Y-101100000D01*
X253500000Y-101100000D02*
X252500000Y-101100000D01*
X236500000Y-101100000D02*
X235500000Y-101100000D01*
D24*
X238000000Y-107496000D02*
X238000000Y-108000000D01*
X239500000Y-106000000D02*
X238004000Y-107496000D01*
X239500000Y-69651650D02*
X239500000Y-106000000D01*
X244500000Y-62000000D02*
X244500000Y-64651650D01*
X244500000Y-64651650D02*
X239500000Y-69651650D01*
X233500000Y-101226153D02*
X233500000Y-110704000D01*
X238800000Y-95926153D02*
X233500000Y-101226153D01*
X238800000Y-62000000D02*
X238800000Y-95926153D01*
X235500000Y-122250000D02*
X235500000Y-112704000D01*
X238000000Y-110204000D02*
X238000000Y-109700000D01*
X235500000Y-112704000D02*
X238000000Y-110204000D01*
X233500000Y-110704000D02*
X235500000Y-112704000D01*
D25*
X255700010Y-102499990D02*
X253799999Y-104400001D01*
X255700010Y-62000010D02*
X255700010Y-102499990D01*
X250000000Y-56300000D02*
X255700010Y-62000010D01*
X251000000Y-104700000D02*
X252500000Y-104700000D01*
X253500000Y-104700000D02*
X252500000Y-104700000D01*
X238000000Y-104700000D02*
X235500000Y-104700000D01*
D24*
X235500000Y-135500000D02*
X235500000Y-140496000D01*
X239500000Y-144000000D02*
X238996000Y-144000000D01*
X238996000Y-144000000D02*
X235496000Y-140500000D01*
X232249990Y-137253990D02*
X235496000Y-140500000D01*
X232249990Y-62650010D02*
X232249990Y-137253990D01*
X238600000Y-56300000D02*
X232249990Y-62650010D01*
D25*
X283500000Y-101100000D02*
X283500000Y-65500000D01*
X283500000Y-65500000D02*
X280000000Y-62000000D01*
X268000000Y-101100000D02*
X266500000Y-101100000D01*
X281000000Y-101100000D02*
X282500000Y-101100000D01*
X283500000Y-101100000D02*
X282500000Y-101100000D01*
X266500000Y-101100000D02*
X265500000Y-101100000D01*
D24*
X268000000Y-107496000D02*
X268000000Y-108000000D01*
X269500000Y-106000000D02*
X268004000Y-107496000D01*
X269500000Y-69651650D02*
X269500000Y-106000000D01*
X274500000Y-62000000D02*
X274500000Y-64651650D01*
X274500000Y-64651650D02*
X269500000Y-69651650D01*
X263500000Y-101226153D02*
X263500000Y-110704000D01*
X268800000Y-95926153D02*
X263500000Y-101226153D01*
X268800000Y-62000000D02*
X268800000Y-95926153D01*
X265500000Y-122250000D02*
X265500000Y-112704000D01*
X268000000Y-110204000D02*
X268000000Y-109700000D01*
X265500000Y-112704000D02*
X268000000Y-110204000D01*
X263500000Y-110704000D02*
X265500000Y-112704000D01*
D25*
X285700010Y-102499990D02*
X283799999Y-104400001D01*
X285700010Y-62000010D02*
X285700010Y-102499990D01*
X280000000Y-56300000D02*
X285700010Y-62000010D01*
X281000000Y-104700000D02*
X282500000Y-104700000D01*
X283500000Y-104700000D02*
X282500000Y-104700000D01*
X268000000Y-104700000D02*
X265500000Y-104700000D01*
D24*
X265500000Y-135500000D02*
X265500000Y-140496000D01*
X269500000Y-144000000D02*
X268996000Y-144000000D01*
X268996000Y-144000000D02*
X265496000Y-140500000D01*
X262249990Y-137253990D02*
X265496000Y-140500000D01*
X262249990Y-62650010D02*
X262249990Y-137253990D01*
X268600000Y-56300000D02*
X262249990Y-62650010D01*
D25*
X313500000Y-101100000D02*
X313500000Y-65500000D01*
X313500000Y-65500000D02*
X310000000Y-62000000D01*
X298000000Y-101100000D02*
X296500000Y-101100000D01*
X311000000Y-101100000D02*
X312500000Y-101100000D01*
X313500000Y-101100000D02*
X312500000Y-101100000D01*
X296500000Y-101100000D02*
X295500000Y-101100000D01*
D24*
X298000000Y-107496000D02*
X298000000Y-108000000D01*
X299500000Y-106000000D02*
X298004000Y-107496000D01*
X299500000Y-69651650D02*
X299500000Y-106000000D01*
X304500000Y-62000000D02*
X304500000Y-64651650D01*
X304500000Y-64651650D02*
X299500000Y-69651650D01*
X299500000Y-106000000D02*
X299500000Y-82500000D01*
X293500000Y-101226153D02*
X293500000Y-110704000D01*
X298800000Y-95926153D02*
X293500000Y-101226153D01*
X298800000Y-62000000D02*
X298800000Y-95926153D01*
X295500000Y-122250000D02*
X295500000Y-112704000D01*
X298000000Y-110204000D02*
X298000000Y-109700000D01*
X295500000Y-112704000D02*
X298000000Y-110204000D01*
X293500000Y-110704000D02*
X295500000Y-112704000D01*
D25*
X315700010Y-102499990D02*
X313799999Y-104400001D01*
X315700010Y-62000010D02*
X315700010Y-102499990D01*
X310000000Y-56300000D02*
X315700010Y-62000010D01*
X311000000Y-104700000D02*
X312500000Y-104700000D01*
X313500000Y-104700000D02*
X312500000Y-104700000D01*
X298000000Y-104700000D02*
X295500000Y-104700000D01*
D24*
X295500000Y-135500000D02*
X295500000Y-140496000D01*
X299500000Y-144000000D02*
X298996000Y-144000000D01*
X298996000Y-144000000D02*
X295496000Y-140500000D01*
X292249990Y-137253990D02*
X295496000Y-140500000D01*
X292249990Y-62650010D02*
X292249990Y-137253990D01*
X298600000Y-56300000D02*
X292249990Y-62650010D01*
D25*
X133500000Y-206100000D02*
X133500000Y-170500000D01*
X133500000Y-170500000D02*
X130000000Y-167000000D01*
X118000000Y-206100000D02*
X116500000Y-206100000D01*
X131000000Y-206100000D02*
X132500000Y-206100000D01*
X133500000Y-206100000D02*
X132500000Y-206100000D01*
X116500000Y-206100000D02*
X115500000Y-206100000D01*
D24*
X124500000Y-167000000D02*
X124500000Y-169651650D01*
X118000000Y-212496000D02*
X118000000Y-213000000D01*
X119500000Y-211000000D02*
X118004000Y-212496000D01*
X119500000Y-174651650D02*
X119500000Y-211000000D01*
X124500000Y-169651650D02*
X119500000Y-174651650D01*
X119500000Y-211000000D02*
X119500000Y-187500000D01*
X113500000Y-206226153D02*
X113500000Y-215704000D01*
X118800000Y-200926153D02*
X113500000Y-206226153D01*
X118800000Y-167000000D02*
X118800000Y-200926153D01*
X115500000Y-227250000D02*
X115500000Y-217704000D01*
X118000000Y-215204000D02*
X118000000Y-214700000D01*
X115500000Y-217704000D02*
X118000000Y-215204000D01*
X113500000Y-215704000D02*
X115500000Y-217704000D01*
D25*
X135700010Y-207499990D02*
X133799999Y-209400001D01*
X135700010Y-167000010D02*
X135700010Y-207499990D01*
X130000000Y-161300000D02*
X135700010Y-167000010D01*
X131000000Y-209700000D02*
X132500000Y-209700000D01*
X133500000Y-209700000D02*
X132500000Y-209700000D01*
X118000000Y-209700000D02*
X115500000Y-209700000D01*
D24*
X115500000Y-240500000D02*
X115500000Y-245496000D01*
X119500000Y-249000000D02*
X118996000Y-249000000D01*
X118996000Y-249000000D02*
X115496000Y-245500000D01*
X112249990Y-242253990D02*
X115496000Y-245500000D01*
X112249990Y-167650010D02*
X112249990Y-242253990D01*
X118600000Y-161300000D02*
X112249990Y-167650010D01*
D25*
X163500000Y-206100000D02*
X163500000Y-170500000D01*
X163500000Y-170500000D02*
X160000000Y-167000000D01*
X148000000Y-206100000D02*
X146500000Y-206100000D01*
X161000000Y-206100000D02*
X162500000Y-206100000D01*
X163500000Y-206100000D02*
X162500000Y-206100000D01*
X146500000Y-206100000D02*
X145500000Y-206100000D01*
D24*
X148000000Y-212496000D02*
X148000000Y-213000000D01*
X149500000Y-211000000D02*
X148004000Y-212496000D01*
X149500000Y-174651650D02*
X149500000Y-211000000D01*
X154500000Y-167000000D02*
X154500000Y-169651650D01*
X154500000Y-169651650D02*
X149500000Y-174651650D01*
X149500000Y-211000000D02*
X149500000Y-187500000D01*
X143500000Y-206226153D02*
X143500000Y-215704000D01*
X148800000Y-200926153D02*
X143500000Y-206226153D01*
X148800000Y-167000000D02*
X148800000Y-200926153D01*
X145500000Y-227250000D02*
X145500000Y-217704000D01*
X148000000Y-215204000D02*
X148000000Y-214700000D01*
X145500000Y-217704000D02*
X148000000Y-215204000D01*
X143500000Y-215704000D02*
X145500000Y-217704000D01*
D25*
X165700010Y-207499990D02*
X163799999Y-209400001D01*
X165700010Y-167000010D02*
X165700010Y-207499990D01*
X160000000Y-161300000D02*
X165700010Y-167000010D01*
X161000000Y-209700000D02*
X162500000Y-209700000D01*
X163500000Y-209700000D02*
X162500000Y-209700000D01*
X148000000Y-209700000D02*
X145500000Y-209700000D01*
D24*
X145500000Y-240500000D02*
X145500000Y-245496000D01*
X149500000Y-249000000D02*
X148996000Y-249000000D01*
X148996000Y-249000000D02*
X145496000Y-245500000D01*
X142249990Y-242253990D02*
X145496000Y-245500000D01*
X142249990Y-167650010D02*
X142249990Y-242253990D01*
X148600000Y-161300000D02*
X142249990Y-167650010D01*
D25*
X193500000Y-206100000D02*
X193500000Y-170500000D01*
X193500000Y-170500000D02*
X190000000Y-167000000D01*
X178000000Y-206100000D02*
X176500000Y-206100000D01*
X191000000Y-206100000D02*
X192500000Y-206100000D01*
X193500000Y-206100000D02*
X192500000Y-206100000D01*
X176500000Y-206100000D02*
X175500000Y-206100000D01*
D24*
X178000000Y-212496000D02*
X178000000Y-213000000D01*
X179500000Y-211000000D02*
X178004000Y-212496000D01*
X179500000Y-174651650D02*
X179500000Y-211000000D01*
X184500000Y-167000000D02*
X184500000Y-169651650D01*
X184500000Y-169651650D02*
X179500000Y-174651650D01*
X179500000Y-211000000D02*
X179500000Y-187500000D01*
X173500000Y-206226153D02*
X173500000Y-215704000D01*
X178800000Y-200926153D02*
X173500000Y-206226153D01*
X178800000Y-167000000D02*
X178800000Y-200926153D01*
X175500000Y-227250000D02*
X175500000Y-217704000D01*
X178000000Y-215204000D02*
X178000000Y-214700000D01*
X175500000Y-217704000D02*
X178000000Y-215204000D01*
X173500000Y-215704000D02*
X175500000Y-217704000D01*
D25*
X195700010Y-207499990D02*
X193799999Y-209400001D01*
X195700010Y-167000010D02*
X195700010Y-207499990D01*
X190000000Y-161300000D02*
X195700010Y-167000010D01*
X191000000Y-209700000D02*
X192500000Y-209700000D01*
X193500000Y-209700000D02*
X192500000Y-209700000D01*
X178000000Y-209700000D02*
X175500000Y-209700000D01*
D24*
X175500000Y-240500000D02*
X175500000Y-245496000D01*
X179500000Y-249000000D02*
X178996000Y-249000000D01*
X178996000Y-249000000D02*
X175496000Y-245500000D01*
X172249990Y-242253990D02*
X175496000Y-245500000D01*
X172249990Y-167650010D02*
X172249990Y-242253990D01*
X178600000Y-161300000D02*
X172249990Y-167650010D01*
D25*
X223500000Y-206100000D02*
X223500000Y-170500000D01*
X223500000Y-170500000D02*
X220000000Y-167000000D01*
X208000000Y-206100000D02*
X206500000Y-206100000D01*
X221000000Y-206100000D02*
X222500000Y-206100000D01*
X223500000Y-206100000D02*
X222500000Y-206100000D01*
X206500000Y-206100000D02*
X205500000Y-206100000D01*
D24*
X208000000Y-212496000D02*
X208000000Y-213000000D01*
X209500000Y-211000000D02*
X208004000Y-212496000D01*
X209500000Y-174651650D02*
X209500000Y-211000000D01*
X214500000Y-167000000D02*
X214500000Y-169651650D01*
X214500000Y-169651650D02*
X209500000Y-174651650D01*
X209500000Y-211000000D02*
X209500000Y-187500000D01*
X203500000Y-206226153D02*
X203500000Y-215704000D01*
X208800000Y-200926153D02*
X203500000Y-206226153D01*
X208800000Y-167000000D02*
X208800000Y-200926153D01*
X205500000Y-227250000D02*
X205500000Y-217704000D01*
X208000000Y-215204000D02*
X208000000Y-214700000D01*
X205500000Y-217704000D02*
X208000000Y-215204000D01*
X203500000Y-215704000D02*
X205500000Y-217704000D01*
D25*
X225700010Y-207499990D02*
X223799999Y-209400001D01*
X225700010Y-167000010D02*
X225700010Y-207499990D01*
X220000000Y-161300000D02*
X225700010Y-167000010D01*
X221000000Y-209700000D02*
X222500000Y-209700000D01*
X223500000Y-209700000D02*
X222500000Y-209700000D01*
X208000000Y-209700000D02*
X205500000Y-209700000D01*
D24*
X205500000Y-240500000D02*
X205500000Y-245496000D01*
X209500000Y-249000000D02*
X208996000Y-249000000D01*
X208996000Y-249000000D02*
X205496000Y-245500000D01*
X202249990Y-242253990D02*
X205496000Y-245500000D01*
X202249990Y-167650010D02*
X202249990Y-242253990D01*
X208600000Y-161300000D02*
X202249990Y-167650010D01*
D25*
X253500000Y-206100000D02*
X253500000Y-170500000D01*
X253500000Y-170500000D02*
X250000000Y-167000000D01*
X238000000Y-206100000D02*
X236500000Y-206100000D01*
X251000000Y-206100000D02*
X252500000Y-206100000D01*
X253500000Y-206100000D02*
X252500000Y-206100000D01*
X236500000Y-206100000D02*
X235500000Y-206100000D01*
D24*
X238000000Y-212496000D02*
X238000000Y-213000000D01*
X239500000Y-211000000D02*
X238004000Y-212496000D01*
X239500000Y-174651650D02*
X239500000Y-211000000D01*
X244500000Y-167000000D02*
X244500000Y-169651650D01*
X244500000Y-169651650D02*
X239500000Y-174651650D01*
X239500000Y-211000000D02*
X239500000Y-187500000D01*
X233500000Y-206226153D02*
X233500000Y-215704000D01*
X238800000Y-200926153D02*
X233500000Y-206226153D01*
X238800000Y-167000000D02*
X238800000Y-200926153D01*
X235500000Y-227250000D02*
X235500000Y-217704000D01*
X238000000Y-215204000D02*
X238000000Y-214700000D01*
X235500000Y-217704000D02*
X238000000Y-215204000D01*
X233500000Y-215704000D02*
X235500000Y-217704000D01*
D25*
X255700010Y-207499990D02*
X253799999Y-209400001D01*
X255700010Y-167000010D02*
X255700010Y-207499990D01*
X250000000Y-161300000D02*
X255700010Y-167000010D01*
X251000000Y-209700000D02*
X252500000Y-209700000D01*
X253500000Y-209700000D02*
X252500000Y-209700000D01*
X238000000Y-209700000D02*
X235500000Y-209700000D01*
D24*
X235500000Y-240500000D02*
X235500000Y-245496000D01*
X239500000Y-249000000D02*
X238996000Y-249000000D01*
X238996000Y-249000000D02*
X235496000Y-245500000D01*
X232249990Y-242253990D02*
X235496000Y-245500000D01*
X232249990Y-167650010D02*
X232249990Y-242253990D01*
X238600000Y-161300000D02*
X232249990Y-167650010D01*
D25*
X283500000Y-206100000D02*
X283500000Y-170500000D01*
X283500000Y-170500000D02*
X280000000Y-167000000D01*
X268000000Y-206100000D02*
X266500000Y-206100000D01*
X281000000Y-206100000D02*
X282500000Y-206100000D01*
X283500000Y-206100000D02*
X282500000Y-206100000D01*
X266500000Y-206100000D02*
X265500000Y-206100000D01*
D24*
X268000000Y-212496000D02*
X268000000Y-213000000D01*
X269500000Y-211000000D02*
X268004000Y-212496000D01*
X269500000Y-174651650D02*
X269500000Y-211000000D01*
X274500000Y-167000000D02*
X274500000Y-169651650D01*
X274500000Y-169651650D02*
X269500000Y-174651650D01*
X269500000Y-211000000D02*
X269500000Y-187500000D01*
X263500000Y-206226153D02*
X263500000Y-215704000D01*
X268800000Y-200926153D02*
X263500000Y-206226153D01*
X268800000Y-167000000D02*
X268800000Y-200926153D01*
X265500000Y-227250000D02*
X265500000Y-217704000D01*
X268000000Y-215204000D02*
X268000000Y-214700000D01*
X265500000Y-217704000D02*
X268000000Y-215204000D01*
X263500000Y-215704000D02*
X265500000Y-217704000D01*
D25*
X285700010Y-207499990D02*
X283799999Y-209400001D01*
X285700010Y-167000010D02*
X285700010Y-207499990D01*
X280000000Y-161300000D02*
X285700010Y-167000010D01*
X281000000Y-209700000D02*
X282500000Y-209700000D01*
X283500000Y-209700000D02*
X282500000Y-209700000D01*
X268000000Y-209700000D02*
X265500000Y-209700000D01*
D24*
X265500000Y-240500000D02*
X265500000Y-245496000D01*
X269500000Y-249000000D02*
X268996000Y-249000000D01*
X268996000Y-249000000D02*
X265496000Y-245500000D01*
X262249990Y-242253990D02*
X265496000Y-245500000D01*
X262249990Y-167650010D02*
X262249990Y-242253990D01*
X268600000Y-161300000D02*
X262249990Y-167650010D01*
D25*
X313500000Y-206100000D02*
X313500000Y-170500000D01*
X313500000Y-170500000D02*
X310000000Y-167000000D01*
X298000000Y-206100000D02*
X296500000Y-206100000D01*
X311000000Y-206100000D02*
X312500000Y-206100000D01*
X313500000Y-206100000D02*
X312500000Y-206100000D01*
X296500000Y-206100000D02*
X295500000Y-206100000D01*
D24*
X298000000Y-212496000D02*
X298000000Y-213000000D01*
X299500000Y-211000000D02*
X298004000Y-212496000D01*
X299500000Y-174651650D02*
X299500000Y-211000000D01*
X304500000Y-167000000D02*
X304500000Y-169651650D01*
X304500000Y-169651650D02*
X299500000Y-174651650D01*
X299500000Y-211000000D02*
X299500000Y-187500000D01*
X293500000Y-206226153D02*
X293500000Y-215704000D01*
X298800000Y-200926153D02*
X293500000Y-206226153D01*
X298800000Y-167000000D02*
X298800000Y-200926153D01*
X295500000Y-227250000D02*
X295500000Y-217704000D01*
X298000000Y-215204000D02*
X298000000Y-214700000D01*
X295500000Y-217704000D02*
X298000000Y-215204000D01*
X293500000Y-215704000D02*
X295500000Y-217704000D01*
D25*
X315700010Y-207499990D02*
X313799999Y-209400001D01*
X315700010Y-167000010D02*
X315700010Y-207499990D01*
X310000000Y-161300000D02*
X315700010Y-167000010D01*
X311000000Y-209700000D02*
X312500000Y-209700000D01*
X313500000Y-209700000D02*
X312500000Y-209700000D01*
X298000000Y-209700000D02*
X295500000Y-209700000D01*
D24*
X295500000Y-240500000D02*
X295500000Y-245496000D01*
X299500000Y-249000000D02*
X298996000Y-249000000D01*
X298996000Y-249000000D02*
X295496000Y-245500000D01*
X292249990Y-242253990D02*
X295496000Y-245500000D01*
X292249990Y-167650010D02*
X292249990Y-242253990D01*
X298600000Y-161300000D02*
X292249990Y-167650010D01*
D25*
X133500000Y-311100000D02*
X133500000Y-275500000D01*
X133500000Y-275500000D02*
X130000000Y-272000000D01*
X118000000Y-311100000D02*
X116500000Y-311100000D01*
X131000000Y-311100000D02*
X132500000Y-311100000D01*
X133500000Y-311100000D02*
X132500000Y-311100000D01*
X116500000Y-311100000D02*
X115500000Y-311100000D01*
D24*
X118000000Y-317496000D02*
X118000000Y-318000000D01*
X119500000Y-316000000D02*
X118004000Y-317496000D01*
X119500000Y-279651650D02*
X119500000Y-316000000D01*
X124500000Y-272000000D02*
X124500000Y-274651650D01*
X124500000Y-274651650D02*
X119500000Y-279651650D01*
X119500000Y-316000000D02*
X119500000Y-292500000D01*
X113500000Y-311226153D02*
X113500000Y-320704000D01*
X118800000Y-305926153D02*
X113500000Y-311226153D01*
X118800000Y-272000000D02*
X118800000Y-305926153D01*
X115500000Y-332250000D02*
X115500000Y-322704000D01*
X118000000Y-320204000D02*
X118000000Y-319700000D01*
X115500000Y-322704000D02*
X118000000Y-320204000D01*
X113500000Y-320704000D02*
X115500000Y-322704000D01*
D25*
X135700010Y-312499990D02*
X133799999Y-314400001D01*
X135700010Y-272000010D02*
X135700010Y-312499990D01*
X130000000Y-266300000D02*
X135700010Y-272000010D01*
X131000000Y-314700000D02*
X132500000Y-314700000D01*
X133500000Y-314700000D02*
X132500000Y-314700000D01*
X118000000Y-314700000D02*
X115500000Y-314700000D01*
D24*
X115500000Y-345500000D02*
X115500000Y-350496000D01*
X119500000Y-354000000D02*
X118996000Y-354000000D01*
X118996000Y-354000000D02*
X115496000Y-350500000D01*
X112249990Y-347253990D02*
X115496000Y-350500000D01*
X112249990Y-272650010D02*
X112249990Y-347253990D01*
X118600000Y-266300000D02*
X112249990Y-272650010D01*
D25*
X163500000Y-311100000D02*
X163500000Y-275500000D01*
X163500000Y-275500000D02*
X160000000Y-272000000D01*
X148000000Y-311100000D02*
X146500000Y-311100000D01*
X161000000Y-311100000D02*
X162500000Y-311100000D01*
X163500000Y-311100000D02*
X162500000Y-311100000D01*
X146500000Y-311100000D02*
X145500000Y-311100000D01*
D24*
X148000000Y-317496000D02*
X148000000Y-318000000D01*
X149500000Y-316000000D02*
X148004000Y-317496000D01*
X149500000Y-279651650D02*
X149500000Y-316000000D01*
X154500000Y-272000000D02*
X154500000Y-274651650D01*
X154500000Y-274651650D02*
X149500000Y-279651650D01*
X149500000Y-316000000D02*
X149500000Y-292500000D01*
X143500000Y-311226153D02*
X143500000Y-320704000D01*
X148800000Y-305926153D02*
X143500000Y-311226153D01*
X148800000Y-272000000D02*
X148800000Y-305926153D01*
X145500000Y-332250000D02*
X145500000Y-322704000D01*
X148000000Y-320204000D02*
X148000000Y-319700000D01*
X145500000Y-322704000D02*
X148000000Y-320204000D01*
X143500000Y-320704000D02*
X145500000Y-322704000D01*
D25*
X165700010Y-312499990D02*
X163799999Y-314400001D01*
X165700010Y-272000010D02*
X165700010Y-312499990D01*
X160000000Y-266300000D02*
X165700010Y-272000010D01*
X161000000Y-314700000D02*
X162500000Y-314700000D01*
X163500000Y-314700000D02*
X162500000Y-314700000D01*
X148000000Y-314700000D02*
X145500000Y-314700000D01*
D24*
X145500000Y-345500000D02*
X145500000Y-350496000D01*
X149500000Y-354000000D02*
X148996000Y-354000000D01*
X148996000Y-354000000D02*
X145496000Y-350500000D01*
X142249990Y-347253990D02*
X145496000Y-350500000D01*
X142249990Y-272650010D02*
X142249990Y-347253990D01*
X148600000Y-266300000D02*
X142249990Y-272650010D01*
D25*
X193500000Y-311100000D02*
X193500000Y-275500000D01*
X193500000Y-275500000D02*
X190000000Y-272000000D01*
X178000000Y-311100000D02*
X176500000Y-311100000D01*
X191000000Y-311100000D02*
X192500000Y-311100000D01*
X193500000Y-311100000D02*
X192500000Y-311100000D01*
X176500000Y-311100000D02*
X175500000Y-311100000D01*
D24*
X178000000Y-317496000D02*
X178000000Y-318000000D01*
X179500000Y-316000000D02*
X178004000Y-317496000D01*
X179500000Y-279651650D02*
X179500000Y-316000000D01*
X184500000Y-272000000D02*
X184500000Y-274651650D01*
X184500000Y-274651650D02*
X179500000Y-279651650D01*
X179500000Y-316000000D02*
X179500000Y-292500000D01*
X173500000Y-311226153D02*
X173500000Y-320704000D01*
X178800000Y-305926153D02*
X173500000Y-311226153D01*
X178800000Y-272000000D02*
X178800000Y-305926153D01*
X175500000Y-332250000D02*
X175500000Y-322704000D01*
X178000000Y-320204000D02*
X178000000Y-319700000D01*
X175500000Y-322704000D02*
X178000000Y-320204000D01*
X173500000Y-320704000D02*
X175500000Y-322704000D01*
D25*
X195700010Y-312499990D02*
X193799999Y-314400001D01*
X195700010Y-272000010D02*
X195700010Y-312499990D01*
X190000000Y-266300000D02*
X195700010Y-272000010D01*
X191000000Y-314700000D02*
X192500000Y-314700000D01*
X193500000Y-314700000D02*
X192500000Y-314700000D01*
X178000000Y-314700000D02*
X175500000Y-314700000D01*
D24*
X175500000Y-345500000D02*
X175500000Y-350496000D01*
X179500000Y-354000000D02*
X178996000Y-354000000D01*
X178996000Y-354000000D02*
X175496000Y-350500000D01*
X172249990Y-347253990D02*
X175496000Y-350500000D01*
X172249990Y-272650010D02*
X172249990Y-347253990D01*
X178600000Y-266300000D02*
X172249990Y-272650010D01*
D25*
X223500000Y-311100000D02*
X223500000Y-275500000D01*
X223500000Y-275500000D02*
X220000000Y-272000000D01*
X208000000Y-311100000D02*
X206500000Y-311100000D01*
X221000000Y-311100000D02*
X222500000Y-311100000D01*
X223500000Y-311100000D02*
X222500000Y-311100000D01*
X206500000Y-311100000D02*
X205500000Y-311100000D01*
D24*
X208000000Y-317496000D02*
X208000000Y-318000000D01*
X209500000Y-316000000D02*
X208004000Y-317496000D01*
X209500000Y-279651650D02*
X209500000Y-316000000D01*
X214500000Y-272000000D02*
X214500000Y-274651650D01*
X214500000Y-274651650D02*
X209500000Y-279651650D01*
X209500000Y-316000000D02*
X209500000Y-292500000D01*
X203500000Y-311226153D02*
X203500000Y-320704000D01*
X208800000Y-305926153D02*
X203500000Y-311226153D01*
X208800000Y-272000000D02*
X208800000Y-305926153D01*
X205500000Y-332250000D02*
X205500000Y-322704000D01*
X208000000Y-320204000D02*
X208000000Y-319700000D01*
X205500000Y-322704000D02*
X208000000Y-320204000D01*
X203500000Y-320704000D02*
X205500000Y-322704000D01*
D25*
X225700010Y-312499990D02*
X223799999Y-314400001D01*
X225700010Y-272000010D02*
X225700010Y-312499990D01*
X220000000Y-266300000D02*
X225700010Y-272000010D01*
X221000000Y-314700000D02*
X222500000Y-314700000D01*
X223500000Y-314700000D02*
X222500000Y-314700000D01*
X208000000Y-314700000D02*
X205500000Y-314700000D01*
D24*
X205500000Y-345500000D02*
X205500000Y-350496000D01*
X209500000Y-354000000D02*
X208996000Y-354000000D01*
X208996000Y-354000000D02*
X205496000Y-350500000D01*
X202249990Y-347253990D02*
X205496000Y-350500000D01*
X202249990Y-272650010D02*
X202249990Y-347253990D01*
X208600000Y-266300000D02*
X202249990Y-272650010D01*
D25*
X253500000Y-311100000D02*
X253500000Y-275500000D01*
X253500000Y-275500000D02*
X250000000Y-272000000D01*
X238000000Y-311100000D02*
X236500000Y-311100000D01*
X251000000Y-311100000D02*
X252500000Y-311100000D01*
X253500000Y-311100000D02*
X252500000Y-311100000D01*
X236500000Y-311100000D02*
X235500000Y-311100000D01*
D24*
X238000000Y-317496000D02*
X238000000Y-318000000D01*
X239500000Y-316000000D02*
X238004000Y-317496000D01*
X239500000Y-279651650D02*
X239500000Y-316000000D01*
X244500000Y-272000000D02*
X244500000Y-274651650D01*
X244500000Y-274651650D02*
X239500000Y-279651650D01*
X239500000Y-316000000D02*
X239500000Y-292500000D01*
X233500000Y-311226153D02*
X233500000Y-320704000D01*
X238800000Y-305926153D02*
X233500000Y-311226153D01*
X238800000Y-272000000D02*
X238800000Y-305926153D01*
X235500000Y-332250000D02*
X235500000Y-322704000D01*
X238000000Y-320204000D02*
X238000000Y-319700000D01*
X235500000Y-322704000D02*
X238000000Y-320204000D01*
X233500000Y-320704000D02*
X235500000Y-322704000D01*
D25*
X255700010Y-312499990D02*
X253799999Y-314400001D01*
X255700010Y-272000010D02*
X255700010Y-312499990D01*
X250000000Y-266300000D02*
X255700010Y-272000010D01*
X251000000Y-314700000D02*
X252500000Y-314700000D01*
X253500000Y-314700000D02*
X252500000Y-314700000D01*
X238000000Y-314700000D02*
X235500000Y-314700000D01*
D24*
X235500000Y-345500000D02*
X235500000Y-350496000D01*
X239500000Y-354000000D02*
X238996000Y-354000000D01*
X238996000Y-354000000D02*
X235496000Y-350500000D01*
X232249990Y-347253990D02*
X235496000Y-350500000D01*
X232249990Y-272650010D02*
X232249990Y-347253990D01*
X238600000Y-266300000D02*
X232249990Y-272650010D01*
D25*
X283500000Y-311100000D02*
X283500000Y-275500000D01*
X283500000Y-275500000D02*
X280000000Y-272000000D01*
X268000000Y-311100000D02*
X266500000Y-311100000D01*
X281000000Y-311100000D02*
X282500000Y-311100000D01*
X283500000Y-311100000D02*
X282500000Y-311100000D01*
X266500000Y-311100000D02*
X265500000Y-311100000D01*
D24*
X268000000Y-317496000D02*
X268000000Y-318000000D01*
X269500000Y-316000000D02*
X268004000Y-317496000D01*
X269500000Y-279651650D02*
X269500000Y-316000000D01*
X274500000Y-272000000D02*
X274500000Y-274651650D01*
X274500000Y-274651650D02*
X269500000Y-279651650D01*
X269500000Y-316000000D02*
X269500000Y-292500000D01*
X263500000Y-311226153D02*
X263500000Y-320704000D01*
X268800000Y-305926153D02*
X263500000Y-311226153D01*
X268800000Y-272000000D02*
X268800000Y-305926153D01*
X265500000Y-332250000D02*
X265500000Y-322704000D01*
X268000000Y-320204000D02*
X268000000Y-319700000D01*
X265500000Y-322704000D02*
X268000000Y-320204000D01*
X263500000Y-320704000D02*
X265500000Y-322704000D01*
D25*
X285700010Y-312499990D02*
X283799999Y-314400001D01*
X285700010Y-272000010D02*
X285700010Y-312499990D01*
X280000000Y-266300000D02*
X285700010Y-272000010D01*
X281000000Y-314700000D02*
X282500000Y-314700000D01*
X283500000Y-314700000D02*
X282500000Y-314700000D01*
X268000000Y-314700000D02*
X265500000Y-314700000D01*
D24*
X265500000Y-345500000D02*
X265500000Y-350496000D01*
X269500000Y-354000000D02*
X268996000Y-354000000D01*
X268996000Y-354000000D02*
X265496000Y-350500000D01*
X262249990Y-347253990D02*
X265496000Y-350500000D01*
X262249990Y-272650010D02*
X262249990Y-347253990D01*
X268600000Y-266300000D02*
X262249990Y-272650010D01*
D25*
X313500000Y-311100000D02*
X313500000Y-275500000D01*
X313500000Y-275500000D02*
X310000000Y-272000000D01*
X298000000Y-311100000D02*
X296500000Y-311100000D01*
X311000000Y-311100000D02*
X312500000Y-311100000D01*
X313500000Y-311100000D02*
X312500000Y-311100000D01*
X296500000Y-311100000D02*
X295500000Y-311100000D01*
D24*
X298000000Y-317496000D02*
X298000000Y-318000000D01*
X299500000Y-316000000D02*
X298004000Y-317496000D01*
X299500000Y-279651650D02*
X299500000Y-316000000D01*
X304500000Y-272000000D02*
X304500000Y-274651650D01*
X304500000Y-274651650D02*
X299500000Y-279651650D01*
X299500000Y-316000000D02*
X299500000Y-292500000D01*
X293500000Y-311226153D02*
X293500000Y-320704000D01*
X298800000Y-305926153D02*
X293500000Y-311226153D01*
X298800000Y-272000000D02*
X298800000Y-305926153D01*
X295500000Y-332250000D02*
X295500000Y-322704000D01*
X298000000Y-320204000D02*
X298000000Y-319700000D01*
X295500000Y-322704000D02*
X298000000Y-320204000D01*
X293500000Y-320704000D02*
X295500000Y-322704000D01*
D25*
X315700010Y-312499990D02*
X313799999Y-314400001D01*
X315700010Y-272000010D02*
X315700010Y-312499990D01*
X310000000Y-266300000D02*
X315700010Y-272000010D01*
X311000000Y-314700000D02*
X312500000Y-314700000D01*
X313500000Y-314700000D02*
X312500000Y-314700000D01*
X298000000Y-314700000D02*
X295500000Y-314700000D01*
D24*
X295500000Y-345500000D02*
X295500000Y-350496000D01*
X299500000Y-354000000D02*
X298996000Y-354000000D01*
X298996000Y-354000000D02*
X295496000Y-350500000D01*
X292249990Y-347253990D02*
X295496000Y-350500000D01*
X292249990Y-272650010D02*
X292249990Y-347253990D01*
X298600000Y-266300000D02*
X292249990Y-272650010D01*
X115500000Y-233750000D02*
X115500000Y-236500000D01*
X145500000Y-233750000D02*
X145500000Y-236500000D01*
X175500000Y-233750000D02*
X175500000Y-236500000D01*
X205500000Y-233750000D02*
X205500000Y-236500000D01*
X235500000Y-233750000D02*
X235500000Y-236500000D01*
X265500000Y-233750000D02*
X265500000Y-236500000D01*
X295500000Y-233750000D02*
X295500000Y-236500000D01*
X115500000Y-338750000D02*
X115500000Y-341500000D01*
X145500000Y-338750000D02*
X145500000Y-341500000D01*
X175500000Y-338750000D02*
X175500000Y-341500000D01*
X205500000Y-338750000D02*
X205500000Y-341500000D01*
X235500000Y-338750000D02*
X235500000Y-341500000D01*
X265500000Y-338750000D02*
X265500000Y-341500000D01*
X295500000Y-338750000D02*
X295500000Y-341500000D01*
D26*
G36*
X96873000Y-154873000D02*
X85127000Y-154873000D01*
X85127000Y-153784781D01*
X86194824Y-153784781D01*
X86400354Y-154142513D01*
X87326799Y-154515045D01*
X88325286Y-154504685D01*
X89199646Y-154142513D01*
X89405176Y-153784781D01*
X87800000Y-152179605D01*
X86194824Y-153784781D01*
X85127000Y-153784781D01*
X85127000Y-151526799D01*
X85284955Y-151526799D01*
X85295315Y-152525286D01*
X85657487Y-153399646D01*
X86015219Y-153605176D01*
X87620395Y-152000000D01*
X87979605Y-152000000D01*
X89584781Y-153605176D01*
X89942513Y-153399646D01*
X90315045Y-152473201D01*
X90304685Y-151474714D01*
X89942513Y-150600354D01*
X89584781Y-150394824D01*
X87979605Y-152000000D01*
X87620395Y-152000000D01*
X86015219Y-150394824D01*
X85657487Y-150600354D01*
X85284955Y-151526799D01*
X85127000Y-151526799D01*
X85127000Y-150215219D01*
X86194824Y-150215219D01*
X87800000Y-151820395D01*
X89405176Y-150215219D01*
X89199646Y-149857487D01*
X88273201Y-149484955D01*
X87274714Y-149495315D01*
X86400354Y-149857487D01*
X86194824Y-150215219D01*
X85127000Y-150215219D01*
X85127000Y-148084781D01*
X86194824Y-148084781D01*
X86400354Y-148442513D01*
X87326799Y-148815045D01*
X88325286Y-148804685D01*
X89199646Y-148442513D01*
X89405176Y-148084781D01*
X87800000Y-146479605D01*
X86194824Y-148084781D01*
X85127000Y-148084781D01*
X85127000Y-145826799D01*
X85284955Y-145826799D01*
X85295315Y-146825286D01*
X85657487Y-147699646D01*
X86015219Y-147905176D01*
X87620395Y-146300000D01*
X87979605Y-146300000D01*
X89584781Y-147905176D01*
X89942513Y-147699646D01*
X90315045Y-146773201D01*
X90304685Y-145774714D01*
X89942513Y-144900354D01*
X89584781Y-144694824D01*
X87979605Y-146300000D01*
X87620395Y-146300000D01*
X86015219Y-144694824D01*
X85657487Y-144900354D01*
X85284955Y-145826799D01*
X85127000Y-145826799D01*
X85127000Y-144515219D01*
X86194824Y-144515219D01*
X87800000Y-146120395D01*
X89405176Y-144515219D01*
X89199646Y-144157487D01*
X88273201Y-143784955D01*
X87274714Y-143795315D01*
X86400354Y-144157487D01*
X86194824Y-144515219D01*
X85127000Y-144515219D01*
X85127000Y-143627000D01*
X96873000Y-143627000D01*
X96873000Y-154873000D01*
X96873000Y-154873000D01*
G37*
X96873000Y-154873000D02*
X85127000Y-154873000D01*
X85127000Y-153784781D01*
X86194824Y-153784781D01*
X86400354Y-154142513D01*
X87326799Y-154515045D01*
X88325286Y-154504685D01*
X89199646Y-154142513D01*
X89405176Y-153784781D01*
X87800000Y-152179605D01*
X86194824Y-153784781D01*
X85127000Y-153784781D01*
X85127000Y-151526799D01*
X85284955Y-151526799D01*
X85295315Y-152525286D01*
X85657487Y-153399646D01*
X86015219Y-153605176D01*
X87620395Y-152000000D01*
X87979605Y-152000000D01*
X89584781Y-153605176D01*
X89942513Y-153399646D01*
X90315045Y-152473201D01*
X90304685Y-151474714D01*
X89942513Y-150600354D01*
X89584781Y-150394824D01*
X87979605Y-152000000D01*
X87620395Y-152000000D01*
X86015219Y-150394824D01*
X85657487Y-150600354D01*
X85284955Y-151526799D01*
X85127000Y-151526799D01*
X85127000Y-150215219D01*
X86194824Y-150215219D01*
X87800000Y-151820395D01*
X89405176Y-150215219D01*
X89199646Y-149857487D01*
X88273201Y-149484955D01*
X87274714Y-149495315D01*
X86400354Y-149857487D01*
X86194824Y-150215219D01*
X85127000Y-150215219D01*
X85127000Y-148084781D01*
X86194824Y-148084781D01*
X86400354Y-148442513D01*
X87326799Y-148815045D01*
X88325286Y-148804685D01*
X89199646Y-148442513D01*
X89405176Y-148084781D01*
X87800000Y-146479605D01*
X86194824Y-148084781D01*
X85127000Y-148084781D01*
X85127000Y-145826799D01*
X85284955Y-145826799D01*
X85295315Y-146825286D01*
X85657487Y-147699646D01*
X86015219Y-147905176D01*
X87620395Y-146300000D01*
X87979605Y-146300000D01*
X89584781Y-147905176D01*
X89942513Y-147699646D01*
X90315045Y-146773201D01*
X90304685Y-145774714D01*
X89942513Y-144900354D01*
X89584781Y-144694824D01*
X87979605Y-146300000D01*
X87620395Y-146300000D01*
X86015219Y-144694824D01*
X85657487Y-144900354D01*
X85284955Y-145826799D01*
X85127000Y-145826799D01*
X85127000Y-144515219D01*
X86194824Y-144515219D01*
X87800000Y-146120395D01*
X89405176Y-144515219D01*
X89199646Y-144157487D01*
X88273201Y-143784955D01*
X87274714Y-143795315D01*
X86400354Y-144157487D01*
X86194824Y-144515219D01*
X85127000Y-144515219D01*
X85127000Y-143627000D01*
X96873000Y-143627000D01*
X96873000Y-154873000D01*
G36*
X126950797Y-70678644D02*
X126950403Y-71130175D01*
X127122833Y-71547486D01*
X127441835Y-71867045D01*
X127858844Y-72040203D01*
X128310375Y-72040597D01*
X128373000Y-72014721D01*
X128373000Y-135602437D01*
X127956756Y-135429597D01*
X127505225Y-135429203D01*
X127087914Y-135601633D01*
X126768355Y-135920635D01*
X126595197Y-136337644D01*
X126594803Y-136789175D01*
X126767233Y-137206486D01*
X127086235Y-137526045D01*
X127503244Y-137699203D01*
X127954775Y-137699597D01*
X128372086Y-137527167D01*
X128373000Y-137526255D01*
X128373000Y-141373000D01*
X120627000Y-141373000D01*
X120627000Y-121591290D01*
X120709047Y-121509386D01*
X120926752Y-120985093D01*
X120927248Y-120417397D01*
X120710457Y-119892725D01*
X120627000Y-119809122D01*
X120627000Y-70627000D01*
X126972242Y-70627000D01*
X126950797Y-70678644D01*
X126950797Y-70678644D01*
G37*
X126950797Y-70678644D02*
X126950403Y-71130175D01*
X127122833Y-71547486D01*
X127441835Y-71867045D01*
X127858844Y-72040203D01*
X128310375Y-72040597D01*
X128373000Y-72014721D01*
X128373000Y-135602437D01*
X127956756Y-135429597D01*
X127505225Y-135429203D01*
X127087914Y-135601633D01*
X126768355Y-135920635D01*
X126595197Y-136337644D01*
X126594803Y-136789175D01*
X126767233Y-137206486D01*
X127086235Y-137526045D01*
X127503244Y-137699203D01*
X127954775Y-137699597D01*
X128372086Y-137527167D01*
X128373000Y-137526255D01*
X128373000Y-141373000D01*
X120627000Y-141373000D01*
X120627000Y-121591290D01*
X120709047Y-121509386D01*
X120926752Y-120985093D01*
X120927248Y-120417397D01*
X120710457Y-119892725D01*
X120627000Y-119809122D01*
X120627000Y-70627000D01*
X126972242Y-70627000D01*
X126950797Y-70678644D01*
G36*
X156950797Y-70678644D02*
X156950403Y-71130175D01*
X157122833Y-71547486D01*
X157441835Y-71867045D01*
X157858844Y-72040203D01*
X158310375Y-72040597D01*
X158373000Y-72014721D01*
X158373000Y-135602437D01*
X157956756Y-135429597D01*
X157505225Y-135429203D01*
X157087914Y-135601633D01*
X156768355Y-135920635D01*
X156595197Y-136337644D01*
X156594803Y-136789175D01*
X156767233Y-137206486D01*
X157086235Y-137526045D01*
X157503244Y-137699203D01*
X157954775Y-137699597D01*
X158372086Y-137527167D01*
X158373000Y-137526255D01*
X158373000Y-141373000D01*
X150627000Y-141373000D01*
X150627000Y-121591290D01*
X150709047Y-121509386D01*
X150926752Y-120985093D01*
X150927248Y-120417397D01*
X150710457Y-119892725D01*
X150627000Y-119809122D01*
X150627000Y-70627000D01*
X156972242Y-70627000D01*
X156950797Y-70678644D01*
X156950797Y-70678644D01*
G37*
X156950797Y-70678644D02*
X156950403Y-71130175D01*
X157122833Y-71547486D01*
X157441835Y-71867045D01*
X157858844Y-72040203D01*
X158310375Y-72040597D01*
X158373000Y-72014721D01*
X158373000Y-135602437D01*
X157956756Y-135429597D01*
X157505225Y-135429203D01*
X157087914Y-135601633D01*
X156768355Y-135920635D01*
X156595197Y-136337644D01*
X156594803Y-136789175D01*
X156767233Y-137206486D01*
X157086235Y-137526045D01*
X157503244Y-137699203D01*
X157954775Y-137699597D01*
X158372086Y-137527167D01*
X158373000Y-137526255D01*
X158373000Y-141373000D01*
X150627000Y-141373000D01*
X150627000Y-121591290D01*
X150709047Y-121509386D01*
X150926752Y-120985093D01*
X150927248Y-120417397D01*
X150710457Y-119892725D01*
X150627000Y-119809122D01*
X150627000Y-70627000D01*
X156972242Y-70627000D01*
X156950797Y-70678644D01*
G36*
X186950797Y-70678644D02*
X186950403Y-71130175D01*
X187122833Y-71547486D01*
X187441835Y-71867045D01*
X187858844Y-72040203D01*
X188310375Y-72040597D01*
X188373000Y-72014721D01*
X188373000Y-135602437D01*
X187956756Y-135429597D01*
X187505225Y-135429203D01*
X187087914Y-135601633D01*
X186768355Y-135920635D01*
X186595197Y-136337644D01*
X186594803Y-136789175D01*
X186767233Y-137206486D01*
X187086235Y-137526045D01*
X187503244Y-137699203D01*
X187954775Y-137699597D01*
X188372086Y-137527167D01*
X188373000Y-137526255D01*
X188373000Y-141373000D01*
X180627000Y-141373000D01*
X180627000Y-121591290D01*
X180709047Y-121509386D01*
X180926752Y-120985093D01*
X180927248Y-120417397D01*
X180710457Y-119892725D01*
X180627000Y-119809122D01*
X180627000Y-70627000D01*
X186972242Y-70627000D01*
X186950797Y-70678644D01*
X186950797Y-70678644D01*
G37*
X186950797Y-70678644D02*
X186950403Y-71130175D01*
X187122833Y-71547486D01*
X187441835Y-71867045D01*
X187858844Y-72040203D01*
X188310375Y-72040597D01*
X188373000Y-72014721D01*
X188373000Y-135602437D01*
X187956756Y-135429597D01*
X187505225Y-135429203D01*
X187087914Y-135601633D01*
X186768355Y-135920635D01*
X186595197Y-136337644D01*
X186594803Y-136789175D01*
X186767233Y-137206486D01*
X187086235Y-137526045D01*
X187503244Y-137699203D01*
X187954775Y-137699597D01*
X188372086Y-137527167D01*
X188373000Y-137526255D01*
X188373000Y-141373000D01*
X180627000Y-141373000D01*
X180627000Y-121591290D01*
X180709047Y-121509386D01*
X180926752Y-120985093D01*
X180927248Y-120417397D01*
X180710457Y-119892725D01*
X180627000Y-119809122D01*
X180627000Y-70627000D01*
X186972242Y-70627000D01*
X186950797Y-70678644D01*
G36*
X216950797Y-70678644D02*
X216950403Y-71130175D01*
X217122833Y-71547486D01*
X217441835Y-71867045D01*
X217858844Y-72040203D01*
X218310375Y-72040597D01*
X218373000Y-72014721D01*
X218373000Y-135602437D01*
X217956756Y-135429597D01*
X217505225Y-135429203D01*
X217087914Y-135601633D01*
X216768355Y-135920635D01*
X216595197Y-136337644D01*
X216594803Y-136789175D01*
X216767233Y-137206486D01*
X217086235Y-137526045D01*
X217503244Y-137699203D01*
X217954775Y-137699597D01*
X218372086Y-137527167D01*
X218373000Y-137526255D01*
X218373000Y-141373000D01*
X210627000Y-141373000D01*
X210627000Y-121591290D01*
X210709047Y-121509386D01*
X210926752Y-120985093D01*
X210927248Y-120417397D01*
X210710457Y-119892725D01*
X210627000Y-119809122D01*
X210627000Y-70627000D01*
X216972242Y-70627000D01*
X216950797Y-70678644D01*
X216950797Y-70678644D01*
G37*
X216950797Y-70678644D02*
X216950403Y-71130175D01*
X217122833Y-71547486D01*
X217441835Y-71867045D01*
X217858844Y-72040203D01*
X218310375Y-72040597D01*
X218373000Y-72014721D01*
X218373000Y-135602437D01*
X217956756Y-135429597D01*
X217505225Y-135429203D01*
X217087914Y-135601633D01*
X216768355Y-135920635D01*
X216595197Y-136337644D01*
X216594803Y-136789175D01*
X216767233Y-137206486D01*
X217086235Y-137526045D01*
X217503244Y-137699203D01*
X217954775Y-137699597D01*
X218372086Y-137527167D01*
X218373000Y-137526255D01*
X218373000Y-141373000D01*
X210627000Y-141373000D01*
X210627000Y-121591290D01*
X210709047Y-121509386D01*
X210926752Y-120985093D01*
X210927248Y-120417397D01*
X210710457Y-119892725D01*
X210627000Y-119809122D01*
X210627000Y-70627000D01*
X216972242Y-70627000D01*
X216950797Y-70678644D01*
G36*
X246950797Y-70678644D02*
X246950403Y-71130175D01*
X247122833Y-71547486D01*
X247441835Y-71867045D01*
X247858844Y-72040203D01*
X248310375Y-72040597D01*
X248373000Y-72014721D01*
X248373000Y-135602437D01*
X247956756Y-135429597D01*
X247505225Y-135429203D01*
X247087914Y-135601633D01*
X246768355Y-135920635D01*
X246595197Y-136337644D01*
X246594803Y-136789175D01*
X246767233Y-137206486D01*
X247086235Y-137526045D01*
X247503244Y-137699203D01*
X247954775Y-137699597D01*
X248372086Y-137527167D01*
X248373000Y-137526255D01*
X248373000Y-141373000D01*
X240627000Y-141373000D01*
X240627000Y-121591290D01*
X240709047Y-121509386D01*
X240926752Y-120985093D01*
X240927248Y-120417397D01*
X240710457Y-119892725D01*
X240627000Y-119809122D01*
X240627000Y-70627000D01*
X246972242Y-70627000D01*
X246950797Y-70678644D01*
X246950797Y-70678644D01*
G37*
X246950797Y-70678644D02*
X246950403Y-71130175D01*
X247122833Y-71547486D01*
X247441835Y-71867045D01*
X247858844Y-72040203D01*
X248310375Y-72040597D01*
X248373000Y-72014721D01*
X248373000Y-135602437D01*
X247956756Y-135429597D01*
X247505225Y-135429203D01*
X247087914Y-135601633D01*
X246768355Y-135920635D01*
X246595197Y-136337644D01*
X246594803Y-136789175D01*
X246767233Y-137206486D01*
X247086235Y-137526045D01*
X247503244Y-137699203D01*
X247954775Y-137699597D01*
X248372086Y-137527167D01*
X248373000Y-137526255D01*
X248373000Y-141373000D01*
X240627000Y-141373000D01*
X240627000Y-121591290D01*
X240709047Y-121509386D01*
X240926752Y-120985093D01*
X240927248Y-120417397D01*
X240710457Y-119892725D01*
X240627000Y-119809122D01*
X240627000Y-70627000D01*
X246972242Y-70627000D01*
X246950797Y-70678644D01*
G36*
X276950797Y-70678644D02*
X276950403Y-71130175D01*
X277122833Y-71547486D01*
X277441835Y-71867045D01*
X277858844Y-72040203D01*
X278310375Y-72040597D01*
X278373000Y-72014721D01*
X278373000Y-135602437D01*
X277956756Y-135429597D01*
X277505225Y-135429203D01*
X277087914Y-135601633D01*
X276768355Y-135920635D01*
X276595197Y-136337644D01*
X276594803Y-136789175D01*
X276767233Y-137206486D01*
X277086235Y-137526045D01*
X277503244Y-137699203D01*
X277954775Y-137699597D01*
X278372086Y-137527167D01*
X278373000Y-137526255D01*
X278373000Y-141373000D01*
X270627000Y-141373000D01*
X270627000Y-121591290D01*
X270709047Y-121509386D01*
X270926752Y-120985093D01*
X270927248Y-120417397D01*
X270710457Y-119892725D01*
X270627000Y-119809122D01*
X270627000Y-70627000D01*
X276972242Y-70627000D01*
X276950797Y-70678644D01*
X276950797Y-70678644D01*
G37*
X276950797Y-70678644D02*
X276950403Y-71130175D01*
X277122833Y-71547486D01*
X277441835Y-71867045D01*
X277858844Y-72040203D01*
X278310375Y-72040597D01*
X278373000Y-72014721D01*
X278373000Y-135602437D01*
X277956756Y-135429597D01*
X277505225Y-135429203D01*
X277087914Y-135601633D01*
X276768355Y-135920635D01*
X276595197Y-136337644D01*
X276594803Y-136789175D01*
X276767233Y-137206486D01*
X277086235Y-137526045D01*
X277503244Y-137699203D01*
X277954775Y-137699597D01*
X278372086Y-137527167D01*
X278373000Y-137526255D01*
X278373000Y-141373000D01*
X270627000Y-141373000D01*
X270627000Y-121591290D01*
X270709047Y-121509386D01*
X270926752Y-120985093D01*
X270927248Y-120417397D01*
X270710457Y-119892725D01*
X270627000Y-119809122D01*
X270627000Y-70627000D01*
X276972242Y-70627000D01*
X276950797Y-70678644D01*
G36*
X306950797Y-70678644D02*
X306950403Y-71130175D01*
X307122833Y-71547486D01*
X307441835Y-71867045D01*
X307858844Y-72040203D01*
X308310375Y-72040597D01*
X308373000Y-72014721D01*
X308373000Y-135602437D01*
X307956756Y-135429597D01*
X307505225Y-135429203D01*
X307087914Y-135601633D01*
X306768355Y-135920635D01*
X306595197Y-136337644D01*
X306594803Y-136789175D01*
X306767233Y-137206486D01*
X307086235Y-137526045D01*
X307503244Y-137699203D01*
X307954775Y-137699597D01*
X308372086Y-137527167D01*
X308373000Y-137526255D01*
X308373000Y-141373000D01*
X300627000Y-141373000D01*
X300627000Y-121591290D01*
X300709047Y-121509386D01*
X300926752Y-120985093D01*
X300927248Y-120417397D01*
X300710457Y-119892725D01*
X300627000Y-119809122D01*
X300627000Y-70627000D01*
X306972242Y-70627000D01*
X306950797Y-70678644D01*
X306950797Y-70678644D01*
G37*
X306950797Y-70678644D02*
X306950403Y-71130175D01*
X307122833Y-71547486D01*
X307441835Y-71867045D01*
X307858844Y-72040203D01*
X308310375Y-72040597D01*
X308373000Y-72014721D01*
X308373000Y-135602437D01*
X307956756Y-135429597D01*
X307505225Y-135429203D01*
X307087914Y-135601633D01*
X306768355Y-135920635D01*
X306595197Y-136337644D01*
X306594803Y-136789175D01*
X306767233Y-137206486D01*
X307086235Y-137526045D01*
X307503244Y-137699203D01*
X307954775Y-137699597D01*
X308372086Y-137527167D01*
X308373000Y-137526255D01*
X308373000Y-141373000D01*
X300627000Y-141373000D01*
X300627000Y-121591290D01*
X300709047Y-121509386D01*
X300926752Y-120985093D01*
X300927248Y-120417397D01*
X300710457Y-119892725D01*
X300627000Y-119809122D01*
X300627000Y-70627000D01*
X306972242Y-70627000D01*
X306950797Y-70678644D01*
G36*
X126950797Y-175678644D02*
X126950403Y-176130175D01*
X127122833Y-176547486D01*
X127441835Y-176867045D01*
X127858844Y-177040203D01*
X128310375Y-177040597D01*
X128373000Y-177014721D01*
X128373000Y-240602437D01*
X127956756Y-240429597D01*
X127505225Y-240429203D01*
X127087914Y-240601633D01*
X126768355Y-240920635D01*
X126595197Y-241337644D01*
X126594803Y-241789175D01*
X126767233Y-242206486D01*
X127086235Y-242526045D01*
X127503244Y-242699203D01*
X127954775Y-242699597D01*
X128372086Y-242527167D01*
X128373000Y-242526255D01*
X128373000Y-246373000D01*
X120627000Y-246373000D01*
X120627000Y-226591290D01*
X120709047Y-226509386D01*
X120926752Y-225985093D01*
X120927248Y-225417397D01*
X120710457Y-224892725D01*
X120627000Y-224809122D01*
X120627000Y-175627000D01*
X126972242Y-175627000D01*
X126950797Y-175678644D01*
X126950797Y-175678644D01*
G37*
X126950797Y-175678644D02*
X126950403Y-176130175D01*
X127122833Y-176547486D01*
X127441835Y-176867045D01*
X127858844Y-177040203D01*
X128310375Y-177040597D01*
X128373000Y-177014721D01*
X128373000Y-240602437D01*
X127956756Y-240429597D01*
X127505225Y-240429203D01*
X127087914Y-240601633D01*
X126768355Y-240920635D01*
X126595197Y-241337644D01*
X126594803Y-241789175D01*
X126767233Y-242206486D01*
X127086235Y-242526045D01*
X127503244Y-242699203D01*
X127954775Y-242699597D01*
X128372086Y-242527167D01*
X128373000Y-242526255D01*
X128373000Y-246373000D01*
X120627000Y-246373000D01*
X120627000Y-226591290D01*
X120709047Y-226509386D01*
X120926752Y-225985093D01*
X120927248Y-225417397D01*
X120710457Y-224892725D01*
X120627000Y-224809122D01*
X120627000Y-175627000D01*
X126972242Y-175627000D01*
X126950797Y-175678644D01*
G36*
X156950797Y-175678644D02*
X156950403Y-176130175D01*
X157122833Y-176547486D01*
X157441835Y-176867045D01*
X157858844Y-177040203D01*
X158310375Y-177040597D01*
X158373000Y-177014721D01*
X158373000Y-240602437D01*
X157956756Y-240429597D01*
X157505225Y-240429203D01*
X157087914Y-240601633D01*
X156768355Y-240920635D01*
X156595197Y-241337644D01*
X156594803Y-241789175D01*
X156767233Y-242206486D01*
X157086235Y-242526045D01*
X157503244Y-242699203D01*
X157954775Y-242699597D01*
X158372086Y-242527167D01*
X158373000Y-242526255D01*
X158373000Y-246373000D01*
X150627000Y-246373000D01*
X150627000Y-226591290D01*
X150709047Y-226509386D01*
X150926752Y-225985093D01*
X150927248Y-225417397D01*
X150710457Y-224892725D01*
X150627000Y-224809122D01*
X150627000Y-175627000D01*
X156972242Y-175627000D01*
X156950797Y-175678644D01*
X156950797Y-175678644D01*
G37*
X156950797Y-175678644D02*
X156950403Y-176130175D01*
X157122833Y-176547486D01*
X157441835Y-176867045D01*
X157858844Y-177040203D01*
X158310375Y-177040597D01*
X158373000Y-177014721D01*
X158373000Y-240602437D01*
X157956756Y-240429597D01*
X157505225Y-240429203D01*
X157087914Y-240601633D01*
X156768355Y-240920635D01*
X156595197Y-241337644D01*
X156594803Y-241789175D01*
X156767233Y-242206486D01*
X157086235Y-242526045D01*
X157503244Y-242699203D01*
X157954775Y-242699597D01*
X158372086Y-242527167D01*
X158373000Y-242526255D01*
X158373000Y-246373000D01*
X150627000Y-246373000D01*
X150627000Y-226591290D01*
X150709047Y-226509386D01*
X150926752Y-225985093D01*
X150927248Y-225417397D01*
X150710457Y-224892725D01*
X150627000Y-224809122D01*
X150627000Y-175627000D01*
X156972242Y-175627000D01*
X156950797Y-175678644D01*
G36*
X186950797Y-175678644D02*
X186950403Y-176130175D01*
X187122833Y-176547486D01*
X187441835Y-176867045D01*
X187858844Y-177040203D01*
X188310375Y-177040597D01*
X188373000Y-177014721D01*
X188373000Y-240602437D01*
X187956756Y-240429597D01*
X187505225Y-240429203D01*
X187087914Y-240601633D01*
X186768355Y-240920635D01*
X186595197Y-241337644D01*
X186594803Y-241789175D01*
X186767233Y-242206486D01*
X187086235Y-242526045D01*
X187503244Y-242699203D01*
X187954775Y-242699597D01*
X188372086Y-242527167D01*
X188373000Y-242526255D01*
X188373000Y-246373000D01*
X180627000Y-246373000D01*
X180627000Y-226591290D01*
X180709047Y-226509386D01*
X180926752Y-225985093D01*
X180927248Y-225417397D01*
X180710457Y-224892725D01*
X180627000Y-224809122D01*
X180627000Y-175627000D01*
X186972242Y-175627000D01*
X186950797Y-175678644D01*
X186950797Y-175678644D01*
G37*
X186950797Y-175678644D02*
X186950403Y-176130175D01*
X187122833Y-176547486D01*
X187441835Y-176867045D01*
X187858844Y-177040203D01*
X188310375Y-177040597D01*
X188373000Y-177014721D01*
X188373000Y-240602437D01*
X187956756Y-240429597D01*
X187505225Y-240429203D01*
X187087914Y-240601633D01*
X186768355Y-240920635D01*
X186595197Y-241337644D01*
X186594803Y-241789175D01*
X186767233Y-242206486D01*
X187086235Y-242526045D01*
X187503244Y-242699203D01*
X187954775Y-242699597D01*
X188372086Y-242527167D01*
X188373000Y-242526255D01*
X188373000Y-246373000D01*
X180627000Y-246373000D01*
X180627000Y-226591290D01*
X180709047Y-226509386D01*
X180926752Y-225985093D01*
X180927248Y-225417397D01*
X180710457Y-224892725D01*
X180627000Y-224809122D01*
X180627000Y-175627000D01*
X186972242Y-175627000D01*
X186950797Y-175678644D01*
G36*
X216950797Y-175678644D02*
X216950403Y-176130175D01*
X217122833Y-176547486D01*
X217441835Y-176867045D01*
X217858844Y-177040203D01*
X218310375Y-177040597D01*
X218373000Y-177014721D01*
X218373000Y-240602437D01*
X217956756Y-240429597D01*
X217505225Y-240429203D01*
X217087914Y-240601633D01*
X216768355Y-240920635D01*
X216595197Y-241337644D01*
X216594803Y-241789175D01*
X216767233Y-242206486D01*
X217086235Y-242526045D01*
X217503244Y-242699203D01*
X217954775Y-242699597D01*
X218372086Y-242527167D01*
X218373000Y-242526255D01*
X218373000Y-246373000D01*
X210627000Y-246373000D01*
X210627000Y-226591290D01*
X210709047Y-226509386D01*
X210926752Y-225985093D01*
X210927248Y-225417397D01*
X210710457Y-224892725D01*
X210627000Y-224809122D01*
X210627000Y-175627000D01*
X216972242Y-175627000D01*
X216950797Y-175678644D01*
X216950797Y-175678644D01*
G37*
X216950797Y-175678644D02*
X216950403Y-176130175D01*
X217122833Y-176547486D01*
X217441835Y-176867045D01*
X217858844Y-177040203D01*
X218310375Y-177040597D01*
X218373000Y-177014721D01*
X218373000Y-240602437D01*
X217956756Y-240429597D01*
X217505225Y-240429203D01*
X217087914Y-240601633D01*
X216768355Y-240920635D01*
X216595197Y-241337644D01*
X216594803Y-241789175D01*
X216767233Y-242206486D01*
X217086235Y-242526045D01*
X217503244Y-242699203D01*
X217954775Y-242699597D01*
X218372086Y-242527167D01*
X218373000Y-242526255D01*
X218373000Y-246373000D01*
X210627000Y-246373000D01*
X210627000Y-226591290D01*
X210709047Y-226509386D01*
X210926752Y-225985093D01*
X210927248Y-225417397D01*
X210710457Y-224892725D01*
X210627000Y-224809122D01*
X210627000Y-175627000D01*
X216972242Y-175627000D01*
X216950797Y-175678644D01*
G36*
X246950797Y-175678644D02*
X246950403Y-176130175D01*
X247122833Y-176547486D01*
X247441835Y-176867045D01*
X247858844Y-177040203D01*
X248310375Y-177040597D01*
X248373000Y-177014721D01*
X248373000Y-240602437D01*
X247956756Y-240429597D01*
X247505225Y-240429203D01*
X247087914Y-240601633D01*
X246768355Y-240920635D01*
X246595197Y-241337644D01*
X246594803Y-241789175D01*
X246767233Y-242206486D01*
X247086235Y-242526045D01*
X247503244Y-242699203D01*
X247954775Y-242699597D01*
X248372086Y-242527167D01*
X248373000Y-242526255D01*
X248373000Y-246373000D01*
X240627000Y-246373000D01*
X240627000Y-226591290D01*
X240709047Y-226509386D01*
X240926752Y-225985093D01*
X240927248Y-225417397D01*
X240710457Y-224892725D01*
X240627000Y-224809122D01*
X240627000Y-175627000D01*
X246972242Y-175627000D01*
X246950797Y-175678644D01*
X246950797Y-175678644D01*
G37*
X246950797Y-175678644D02*
X246950403Y-176130175D01*
X247122833Y-176547486D01*
X247441835Y-176867045D01*
X247858844Y-177040203D01*
X248310375Y-177040597D01*
X248373000Y-177014721D01*
X248373000Y-240602437D01*
X247956756Y-240429597D01*
X247505225Y-240429203D01*
X247087914Y-240601633D01*
X246768355Y-240920635D01*
X246595197Y-241337644D01*
X246594803Y-241789175D01*
X246767233Y-242206486D01*
X247086235Y-242526045D01*
X247503244Y-242699203D01*
X247954775Y-242699597D01*
X248372086Y-242527167D01*
X248373000Y-242526255D01*
X248373000Y-246373000D01*
X240627000Y-246373000D01*
X240627000Y-226591290D01*
X240709047Y-226509386D01*
X240926752Y-225985093D01*
X240927248Y-225417397D01*
X240710457Y-224892725D01*
X240627000Y-224809122D01*
X240627000Y-175627000D01*
X246972242Y-175627000D01*
X246950797Y-175678644D01*
G36*
X276950797Y-175678644D02*
X276950403Y-176130175D01*
X277122833Y-176547486D01*
X277441835Y-176867045D01*
X277858844Y-177040203D01*
X278310375Y-177040597D01*
X278373000Y-177014721D01*
X278373000Y-240602437D01*
X277956756Y-240429597D01*
X277505225Y-240429203D01*
X277087914Y-240601633D01*
X276768355Y-240920635D01*
X276595197Y-241337644D01*
X276594803Y-241789175D01*
X276767233Y-242206486D01*
X277086235Y-242526045D01*
X277503244Y-242699203D01*
X277954775Y-242699597D01*
X278372086Y-242527167D01*
X278373000Y-242526255D01*
X278373000Y-246373000D01*
X270627000Y-246373000D01*
X270627000Y-226591290D01*
X270709047Y-226509386D01*
X270926752Y-225985093D01*
X270927248Y-225417397D01*
X270710457Y-224892725D01*
X270627000Y-224809122D01*
X270627000Y-175627000D01*
X276972242Y-175627000D01*
X276950797Y-175678644D01*
X276950797Y-175678644D01*
G37*
X276950797Y-175678644D02*
X276950403Y-176130175D01*
X277122833Y-176547486D01*
X277441835Y-176867045D01*
X277858844Y-177040203D01*
X278310375Y-177040597D01*
X278373000Y-177014721D01*
X278373000Y-240602437D01*
X277956756Y-240429597D01*
X277505225Y-240429203D01*
X277087914Y-240601633D01*
X276768355Y-240920635D01*
X276595197Y-241337644D01*
X276594803Y-241789175D01*
X276767233Y-242206486D01*
X277086235Y-242526045D01*
X277503244Y-242699203D01*
X277954775Y-242699597D01*
X278372086Y-242527167D01*
X278373000Y-242526255D01*
X278373000Y-246373000D01*
X270627000Y-246373000D01*
X270627000Y-226591290D01*
X270709047Y-226509386D01*
X270926752Y-225985093D01*
X270927248Y-225417397D01*
X270710457Y-224892725D01*
X270627000Y-224809122D01*
X270627000Y-175627000D01*
X276972242Y-175627000D01*
X276950797Y-175678644D01*
G36*
X306950797Y-175678644D02*
X306950403Y-176130175D01*
X307122833Y-176547486D01*
X307441835Y-176867045D01*
X307858844Y-177040203D01*
X308310375Y-177040597D01*
X308373000Y-177014721D01*
X308373000Y-240602437D01*
X307956756Y-240429597D01*
X307505225Y-240429203D01*
X307087914Y-240601633D01*
X306768355Y-240920635D01*
X306595197Y-241337644D01*
X306594803Y-241789175D01*
X306767233Y-242206486D01*
X307086235Y-242526045D01*
X307503244Y-242699203D01*
X307954775Y-242699597D01*
X308372086Y-242527167D01*
X308373000Y-242526255D01*
X308373000Y-246373000D01*
X300627000Y-246373000D01*
X300627000Y-226591290D01*
X300709047Y-226509386D01*
X300926752Y-225985093D01*
X300927248Y-225417397D01*
X300710457Y-224892725D01*
X300627000Y-224809122D01*
X300627000Y-175627000D01*
X306972242Y-175627000D01*
X306950797Y-175678644D01*
X306950797Y-175678644D01*
G37*
X306950797Y-175678644D02*
X306950403Y-176130175D01*
X307122833Y-176547486D01*
X307441835Y-176867045D01*
X307858844Y-177040203D01*
X308310375Y-177040597D01*
X308373000Y-177014721D01*
X308373000Y-240602437D01*
X307956756Y-240429597D01*
X307505225Y-240429203D01*
X307087914Y-240601633D01*
X306768355Y-240920635D01*
X306595197Y-241337644D01*
X306594803Y-241789175D01*
X306767233Y-242206486D01*
X307086235Y-242526045D01*
X307503244Y-242699203D01*
X307954775Y-242699597D01*
X308372086Y-242527167D01*
X308373000Y-242526255D01*
X308373000Y-246373000D01*
X300627000Y-246373000D01*
X300627000Y-226591290D01*
X300709047Y-226509386D01*
X300926752Y-225985093D01*
X300927248Y-225417397D01*
X300710457Y-224892725D01*
X300627000Y-224809122D01*
X300627000Y-175627000D01*
X306972242Y-175627000D01*
X306950797Y-175678644D01*
G36*
X126950797Y-280678644D02*
X126950403Y-281130175D01*
X127122833Y-281547486D01*
X127441835Y-281867045D01*
X127858844Y-282040203D01*
X128310375Y-282040597D01*
X128373000Y-282014721D01*
X128373000Y-345602437D01*
X127956756Y-345429597D01*
X127505225Y-345429203D01*
X127087914Y-345601633D01*
X126768355Y-345920635D01*
X126595197Y-346337644D01*
X126594803Y-346789175D01*
X126767233Y-347206486D01*
X127086235Y-347526045D01*
X127503244Y-347699203D01*
X127954775Y-347699597D01*
X128372086Y-347527167D01*
X128373000Y-347526255D01*
X128373000Y-351373000D01*
X120627000Y-351373000D01*
X120627000Y-331591290D01*
X120709047Y-331509386D01*
X120926752Y-330985093D01*
X120927248Y-330417397D01*
X120710457Y-329892725D01*
X120627000Y-329809122D01*
X120627000Y-280627000D01*
X126972242Y-280627000D01*
X126950797Y-280678644D01*
X126950797Y-280678644D01*
G37*
X126950797Y-280678644D02*
X126950403Y-281130175D01*
X127122833Y-281547486D01*
X127441835Y-281867045D01*
X127858844Y-282040203D01*
X128310375Y-282040597D01*
X128373000Y-282014721D01*
X128373000Y-345602437D01*
X127956756Y-345429597D01*
X127505225Y-345429203D01*
X127087914Y-345601633D01*
X126768355Y-345920635D01*
X126595197Y-346337644D01*
X126594803Y-346789175D01*
X126767233Y-347206486D01*
X127086235Y-347526045D01*
X127503244Y-347699203D01*
X127954775Y-347699597D01*
X128372086Y-347527167D01*
X128373000Y-347526255D01*
X128373000Y-351373000D01*
X120627000Y-351373000D01*
X120627000Y-331591290D01*
X120709047Y-331509386D01*
X120926752Y-330985093D01*
X120927248Y-330417397D01*
X120710457Y-329892725D01*
X120627000Y-329809122D01*
X120627000Y-280627000D01*
X126972242Y-280627000D01*
X126950797Y-280678644D01*
G36*
X156950797Y-280678644D02*
X156950403Y-281130175D01*
X157122833Y-281547486D01*
X157441835Y-281867045D01*
X157858844Y-282040203D01*
X158310375Y-282040597D01*
X158373000Y-282014721D01*
X158373000Y-345602437D01*
X157956756Y-345429597D01*
X157505225Y-345429203D01*
X157087914Y-345601633D01*
X156768355Y-345920635D01*
X156595197Y-346337644D01*
X156594803Y-346789175D01*
X156767233Y-347206486D01*
X157086235Y-347526045D01*
X157503244Y-347699203D01*
X157954775Y-347699597D01*
X158372086Y-347527167D01*
X158373000Y-347526255D01*
X158373000Y-351373000D01*
X150627000Y-351373000D01*
X150627000Y-331591290D01*
X150709047Y-331509386D01*
X150926752Y-330985093D01*
X150927248Y-330417397D01*
X150710457Y-329892725D01*
X150627000Y-329809122D01*
X150627000Y-280627000D01*
X156972242Y-280627000D01*
X156950797Y-280678644D01*
X156950797Y-280678644D01*
G37*
X156950797Y-280678644D02*
X156950403Y-281130175D01*
X157122833Y-281547486D01*
X157441835Y-281867045D01*
X157858844Y-282040203D01*
X158310375Y-282040597D01*
X158373000Y-282014721D01*
X158373000Y-345602437D01*
X157956756Y-345429597D01*
X157505225Y-345429203D01*
X157087914Y-345601633D01*
X156768355Y-345920635D01*
X156595197Y-346337644D01*
X156594803Y-346789175D01*
X156767233Y-347206486D01*
X157086235Y-347526045D01*
X157503244Y-347699203D01*
X157954775Y-347699597D01*
X158372086Y-347527167D01*
X158373000Y-347526255D01*
X158373000Y-351373000D01*
X150627000Y-351373000D01*
X150627000Y-331591290D01*
X150709047Y-331509386D01*
X150926752Y-330985093D01*
X150927248Y-330417397D01*
X150710457Y-329892725D01*
X150627000Y-329809122D01*
X150627000Y-280627000D01*
X156972242Y-280627000D01*
X156950797Y-280678644D01*
G36*
X186950797Y-280678644D02*
X186950403Y-281130175D01*
X187122833Y-281547486D01*
X187441835Y-281867045D01*
X187858844Y-282040203D01*
X188310375Y-282040597D01*
X188373000Y-282014721D01*
X188373000Y-345602437D01*
X187956756Y-345429597D01*
X187505225Y-345429203D01*
X187087914Y-345601633D01*
X186768355Y-345920635D01*
X186595197Y-346337644D01*
X186594803Y-346789175D01*
X186767233Y-347206486D01*
X187086235Y-347526045D01*
X187503244Y-347699203D01*
X187954775Y-347699597D01*
X188372086Y-347527167D01*
X188373000Y-347526255D01*
X188373000Y-351373000D01*
X180627000Y-351373000D01*
X180627000Y-331591290D01*
X180709047Y-331509386D01*
X180926752Y-330985093D01*
X180927248Y-330417397D01*
X180710457Y-329892725D01*
X180627000Y-329809122D01*
X180627000Y-280627000D01*
X186972242Y-280627000D01*
X186950797Y-280678644D01*
X186950797Y-280678644D01*
G37*
X186950797Y-280678644D02*
X186950403Y-281130175D01*
X187122833Y-281547486D01*
X187441835Y-281867045D01*
X187858844Y-282040203D01*
X188310375Y-282040597D01*
X188373000Y-282014721D01*
X188373000Y-345602437D01*
X187956756Y-345429597D01*
X187505225Y-345429203D01*
X187087914Y-345601633D01*
X186768355Y-345920635D01*
X186595197Y-346337644D01*
X186594803Y-346789175D01*
X186767233Y-347206486D01*
X187086235Y-347526045D01*
X187503244Y-347699203D01*
X187954775Y-347699597D01*
X188372086Y-347527167D01*
X188373000Y-347526255D01*
X188373000Y-351373000D01*
X180627000Y-351373000D01*
X180627000Y-331591290D01*
X180709047Y-331509386D01*
X180926752Y-330985093D01*
X180927248Y-330417397D01*
X180710457Y-329892725D01*
X180627000Y-329809122D01*
X180627000Y-280627000D01*
X186972242Y-280627000D01*
X186950797Y-280678644D01*
G36*
X216950797Y-280678644D02*
X216950403Y-281130175D01*
X217122833Y-281547486D01*
X217441835Y-281867045D01*
X217858844Y-282040203D01*
X218310375Y-282040597D01*
X218373000Y-282014721D01*
X218373000Y-345602437D01*
X217956756Y-345429597D01*
X217505225Y-345429203D01*
X217087914Y-345601633D01*
X216768355Y-345920635D01*
X216595197Y-346337644D01*
X216594803Y-346789175D01*
X216767233Y-347206486D01*
X217086235Y-347526045D01*
X217503244Y-347699203D01*
X217954775Y-347699597D01*
X218372086Y-347527167D01*
X218373000Y-347526255D01*
X218373000Y-351373000D01*
X210627000Y-351373000D01*
X210627000Y-331591290D01*
X210709047Y-331509386D01*
X210926752Y-330985093D01*
X210927248Y-330417397D01*
X210710457Y-329892725D01*
X210627000Y-329809122D01*
X210627000Y-280627000D01*
X216972242Y-280627000D01*
X216950797Y-280678644D01*
X216950797Y-280678644D01*
G37*
X216950797Y-280678644D02*
X216950403Y-281130175D01*
X217122833Y-281547486D01*
X217441835Y-281867045D01*
X217858844Y-282040203D01*
X218310375Y-282040597D01*
X218373000Y-282014721D01*
X218373000Y-345602437D01*
X217956756Y-345429597D01*
X217505225Y-345429203D01*
X217087914Y-345601633D01*
X216768355Y-345920635D01*
X216595197Y-346337644D01*
X216594803Y-346789175D01*
X216767233Y-347206486D01*
X217086235Y-347526045D01*
X217503244Y-347699203D01*
X217954775Y-347699597D01*
X218372086Y-347527167D01*
X218373000Y-347526255D01*
X218373000Y-351373000D01*
X210627000Y-351373000D01*
X210627000Y-331591290D01*
X210709047Y-331509386D01*
X210926752Y-330985093D01*
X210927248Y-330417397D01*
X210710457Y-329892725D01*
X210627000Y-329809122D01*
X210627000Y-280627000D01*
X216972242Y-280627000D01*
X216950797Y-280678644D01*
G36*
X246950797Y-280678644D02*
X246950403Y-281130175D01*
X247122833Y-281547486D01*
X247441835Y-281867045D01*
X247858844Y-282040203D01*
X248310375Y-282040597D01*
X248373000Y-282014721D01*
X248373000Y-345602437D01*
X247956756Y-345429597D01*
X247505225Y-345429203D01*
X247087914Y-345601633D01*
X246768355Y-345920635D01*
X246595197Y-346337644D01*
X246594803Y-346789175D01*
X246767233Y-347206486D01*
X247086235Y-347526045D01*
X247503244Y-347699203D01*
X247954775Y-347699597D01*
X248372086Y-347527167D01*
X248373000Y-347526255D01*
X248373000Y-351373000D01*
X240627000Y-351373000D01*
X240627000Y-331591290D01*
X240709047Y-331509386D01*
X240926752Y-330985093D01*
X240927248Y-330417397D01*
X240710457Y-329892725D01*
X240627000Y-329809122D01*
X240627000Y-280627000D01*
X246972242Y-280627000D01*
X246950797Y-280678644D01*
X246950797Y-280678644D01*
G37*
X246950797Y-280678644D02*
X246950403Y-281130175D01*
X247122833Y-281547486D01*
X247441835Y-281867045D01*
X247858844Y-282040203D01*
X248310375Y-282040597D01*
X248373000Y-282014721D01*
X248373000Y-345602437D01*
X247956756Y-345429597D01*
X247505225Y-345429203D01*
X247087914Y-345601633D01*
X246768355Y-345920635D01*
X246595197Y-346337644D01*
X246594803Y-346789175D01*
X246767233Y-347206486D01*
X247086235Y-347526045D01*
X247503244Y-347699203D01*
X247954775Y-347699597D01*
X248372086Y-347527167D01*
X248373000Y-347526255D01*
X248373000Y-351373000D01*
X240627000Y-351373000D01*
X240627000Y-331591290D01*
X240709047Y-331509386D01*
X240926752Y-330985093D01*
X240927248Y-330417397D01*
X240710457Y-329892725D01*
X240627000Y-329809122D01*
X240627000Y-280627000D01*
X246972242Y-280627000D01*
X246950797Y-280678644D01*
G36*
X276950797Y-280678644D02*
X276950403Y-281130175D01*
X277122833Y-281547486D01*
X277441835Y-281867045D01*
X277858844Y-282040203D01*
X278310375Y-282040597D01*
X278373000Y-282014721D01*
X278373000Y-345602437D01*
X277956756Y-345429597D01*
X277505225Y-345429203D01*
X277087914Y-345601633D01*
X276768355Y-345920635D01*
X276595197Y-346337644D01*
X276594803Y-346789175D01*
X276767233Y-347206486D01*
X277086235Y-347526045D01*
X277503244Y-347699203D01*
X277954775Y-347699597D01*
X278372086Y-347527167D01*
X278373000Y-347526255D01*
X278373000Y-351373000D01*
X270627000Y-351373000D01*
X270627000Y-331591290D01*
X270709047Y-331509386D01*
X270926752Y-330985093D01*
X270927248Y-330417397D01*
X270710457Y-329892725D01*
X270627000Y-329809122D01*
X270627000Y-280627000D01*
X276972242Y-280627000D01*
X276950797Y-280678644D01*
X276950797Y-280678644D01*
G37*
X276950797Y-280678644D02*
X276950403Y-281130175D01*
X277122833Y-281547486D01*
X277441835Y-281867045D01*
X277858844Y-282040203D01*
X278310375Y-282040597D01*
X278373000Y-282014721D01*
X278373000Y-345602437D01*
X277956756Y-345429597D01*
X277505225Y-345429203D01*
X277087914Y-345601633D01*
X276768355Y-345920635D01*
X276595197Y-346337644D01*
X276594803Y-346789175D01*
X276767233Y-347206486D01*
X277086235Y-347526045D01*
X277503244Y-347699203D01*
X277954775Y-347699597D01*
X278372086Y-347527167D01*
X278373000Y-347526255D01*
X278373000Y-351373000D01*
X270627000Y-351373000D01*
X270627000Y-331591290D01*
X270709047Y-331509386D01*
X270926752Y-330985093D01*
X270927248Y-330417397D01*
X270710457Y-329892725D01*
X270627000Y-329809122D01*
X270627000Y-280627000D01*
X276972242Y-280627000D01*
X276950797Y-280678644D01*
G36*
X306950797Y-280678644D02*
X306950403Y-281130175D01*
X307122833Y-281547486D01*
X307441835Y-281867045D01*
X307858844Y-282040203D01*
X308310375Y-282040597D01*
X308373000Y-282014721D01*
X308373000Y-345602437D01*
X307956756Y-345429597D01*
X307505225Y-345429203D01*
X307087914Y-345601633D01*
X306768355Y-345920635D01*
X306595197Y-346337644D01*
X306594803Y-346789175D01*
X306767233Y-347206486D01*
X307086235Y-347526045D01*
X307503244Y-347699203D01*
X307954775Y-347699597D01*
X308372086Y-347527167D01*
X308373000Y-347526255D01*
X308373000Y-351373000D01*
X300627000Y-351373000D01*
X300627000Y-331591290D01*
X300709047Y-331509386D01*
X300926752Y-330985093D01*
X300927248Y-330417397D01*
X300710457Y-329892725D01*
X300627000Y-329809122D01*
X300627000Y-280627000D01*
X306972242Y-280627000D01*
X306950797Y-280678644D01*
X306950797Y-280678644D01*
G37*
X306950797Y-280678644D02*
X306950403Y-281130175D01*
X307122833Y-281547486D01*
X307441835Y-281867045D01*
X307858844Y-282040203D01*
X308310375Y-282040597D01*
X308373000Y-282014721D01*
X308373000Y-345602437D01*
X307956756Y-345429597D01*
X307505225Y-345429203D01*
X307087914Y-345601633D01*
X306768355Y-345920635D01*
X306595197Y-346337644D01*
X306594803Y-346789175D01*
X306767233Y-347206486D01*
X307086235Y-347526045D01*
X307503244Y-347699203D01*
X307954775Y-347699597D01*
X308372086Y-347527167D01*
X308373000Y-347526255D01*
X308373000Y-351373000D01*
X300627000Y-351373000D01*
X300627000Y-331591290D01*
X300709047Y-331509386D01*
X300926752Y-330985093D01*
X300927248Y-330417397D01*
X300710457Y-329892725D01*
X300627000Y-329809122D01*
X300627000Y-280627000D01*
X306972242Y-280627000D01*
X306950797Y-280678644D01*
M02*
