G04 #@! TF.FileFunction,Soldermask,Bot*
%FSLAX46Y46*%
G04 Gerber Fmt 4.6, Leading zero omitted, Abs format (unit mm)*
G04 Created by KiCad (PCBNEW 4.0.7) date Mon Feb 19 16:48:59 2018*
%MOMM*%
%LPD*%
G01*
G04 APERTURE LIST*
%ADD10C,0.100000*%
%ADD11C,5.400000*%
%ADD12C,2.900000*%
%ADD13C,2.000000*%
%ADD14R,2.000000X2.000000*%
%ADD15C,3.200000*%
%ADD16C,1.400000*%
%ADD17C,0.254000*%
G04 APERTURE END LIST*
D10*
D11*
X386080000Y-363855000D03*
X299720000Y-363855000D03*
X213360000Y-363855000D03*
X127000000Y-363855000D03*
X386080000Y-262255000D03*
X299720000Y-262255000D03*
X213360000Y-262255000D03*
X127000000Y-262255000D03*
X386080000Y-160655000D03*
X299720000Y-160655000D03*
X213360000Y-160655000D03*
X127000000Y-160655000D03*
X386080000Y-59055000D03*
X299720000Y-59055000D03*
X213360000Y-59055000D03*
D12*
X373380000Y-78740000D03*
D11*
X127000000Y-59055000D03*
D13*
X401320000Y-66040000D03*
X401320000Y-68580000D03*
D14*
X401320000Y-71120000D03*
D13*
X401320000Y-73660000D03*
X401320000Y-76200000D03*
X401320000Y-78740000D03*
X401320000Y-81280000D03*
X401320000Y-83820000D03*
X401320000Y-86360000D03*
X401320000Y-88900000D03*
X401320000Y-91440000D03*
X401320000Y-93980000D03*
D14*
X401320000Y-96520000D03*
D13*
X401320000Y-99060000D03*
X401320000Y-101600000D03*
X401320000Y-104140000D03*
X401320000Y-106680000D03*
X401320000Y-109220000D03*
X401320000Y-111760000D03*
X401320000Y-114300000D03*
X401320000Y-116840000D03*
X401320000Y-119380000D03*
D14*
X401320000Y-121920000D03*
D13*
X401320000Y-124460000D03*
X401320000Y-127000000D03*
X401320000Y-129540000D03*
X401320000Y-132080000D03*
X401320000Y-134620000D03*
X401320000Y-137160000D03*
X401320000Y-139700000D03*
X401320000Y-142240000D03*
D14*
X401320000Y-144780000D03*
D13*
X403860000Y-66040000D03*
X403860000Y-68580000D03*
D14*
X403860000Y-71120000D03*
D13*
X403860000Y-73660000D03*
X403860000Y-76200000D03*
X403860000Y-78740000D03*
X403860000Y-81280000D03*
X403860000Y-83820000D03*
X403860000Y-86360000D03*
X403860000Y-88900000D03*
X403860000Y-91440000D03*
X403860000Y-93980000D03*
D14*
X403860000Y-96520000D03*
D13*
X403860000Y-99060000D03*
X403860000Y-101600000D03*
X403860000Y-104140000D03*
X403860000Y-106680000D03*
X403860000Y-109220000D03*
X403860000Y-111760000D03*
X403860000Y-114300000D03*
X403860000Y-116840000D03*
X403860000Y-119380000D03*
D14*
X403860000Y-121920000D03*
D13*
X403860000Y-124460000D03*
X403860000Y-127000000D03*
X403860000Y-129540000D03*
X403860000Y-132080000D03*
X403860000Y-134620000D03*
X403860000Y-137160000D03*
X403860000Y-139700000D03*
X403860000Y-142240000D03*
D14*
X403860000Y-144780000D03*
D13*
X406400000Y-66040000D03*
X406400000Y-68580000D03*
D14*
X406400000Y-71120000D03*
D13*
X406400000Y-73660000D03*
X406400000Y-76200000D03*
X406400000Y-78740000D03*
X406400000Y-81280000D03*
X406400000Y-83820000D03*
X406400000Y-86360000D03*
X406400000Y-88900000D03*
X406400000Y-91440000D03*
X406400000Y-93980000D03*
D14*
X406400000Y-96520000D03*
D13*
X406400000Y-99060000D03*
X406400000Y-101600000D03*
X406400000Y-104140000D03*
X406400000Y-106680000D03*
X406400000Y-109220000D03*
X406400000Y-111760000D03*
D14*
X406400000Y-114300000D03*
D13*
X406400000Y-116840000D03*
X406400000Y-119380000D03*
D14*
X406400000Y-121920000D03*
D13*
X406400000Y-124460000D03*
X406400000Y-127000000D03*
X406400000Y-129540000D03*
X406400000Y-132080000D03*
X406400000Y-134620000D03*
X406400000Y-137160000D03*
X406400000Y-139700000D03*
X406400000Y-142240000D03*
D14*
X406400000Y-144780000D03*
D15*
X398780000Y-60960000D03*
X398780000Y-149860000D03*
D13*
X401320000Y-167640000D03*
X401320000Y-170180000D03*
D14*
X401320000Y-172720000D03*
D13*
X401320000Y-175260000D03*
X401320000Y-177800000D03*
X401320000Y-180340000D03*
X401320000Y-182880000D03*
X401320000Y-185420000D03*
X401320000Y-187960000D03*
X401320000Y-190500000D03*
X401320000Y-193040000D03*
X401320000Y-195580000D03*
D14*
X401320000Y-198120000D03*
D13*
X401320000Y-200660000D03*
X401320000Y-203200000D03*
X401320000Y-205740000D03*
X401320000Y-208280000D03*
X401320000Y-210820000D03*
X401320000Y-213360000D03*
X401320000Y-215900000D03*
X401320000Y-218440000D03*
X401320000Y-220980000D03*
D14*
X401320000Y-223520000D03*
D13*
X401320000Y-226060000D03*
X401320000Y-228600000D03*
X401320000Y-231140000D03*
X401320000Y-233680000D03*
X401320000Y-236220000D03*
X401320000Y-238760000D03*
X401320000Y-241300000D03*
X401320000Y-243840000D03*
D14*
X401320000Y-246380000D03*
D13*
X403860000Y-167640000D03*
X403860000Y-170180000D03*
D14*
X403860000Y-172720000D03*
D13*
X403860000Y-175260000D03*
X403860000Y-177800000D03*
X403860000Y-180340000D03*
X403860000Y-182880000D03*
X403860000Y-185420000D03*
X403860000Y-187960000D03*
X403860000Y-190500000D03*
X403860000Y-193040000D03*
X403860000Y-195580000D03*
D14*
X403860000Y-198120000D03*
D13*
X403860000Y-200660000D03*
X403860000Y-203200000D03*
X403860000Y-205740000D03*
X403860000Y-208280000D03*
X403860000Y-210820000D03*
X403860000Y-213360000D03*
X403860000Y-215900000D03*
X403860000Y-218440000D03*
X403860000Y-220980000D03*
D14*
X403860000Y-223520000D03*
D13*
X403860000Y-226060000D03*
X403860000Y-228600000D03*
X403860000Y-231140000D03*
X403860000Y-233680000D03*
X403860000Y-236220000D03*
X403860000Y-238760000D03*
X403860000Y-241300000D03*
X403860000Y-243840000D03*
D14*
X403860000Y-246380000D03*
D13*
X406400000Y-167640000D03*
X406400000Y-170180000D03*
D14*
X406400000Y-172720000D03*
D13*
X406400000Y-175260000D03*
X406400000Y-177800000D03*
X406400000Y-180340000D03*
X406400000Y-182880000D03*
X406400000Y-185420000D03*
X406400000Y-187960000D03*
X406400000Y-190500000D03*
X406400000Y-193040000D03*
X406400000Y-195580000D03*
D14*
X406400000Y-198120000D03*
D13*
X406400000Y-200660000D03*
X406400000Y-203200000D03*
X406400000Y-205740000D03*
X406400000Y-208280000D03*
X406400000Y-210820000D03*
X406400000Y-213360000D03*
D14*
X406400000Y-215900000D03*
D13*
X406400000Y-218440000D03*
X406400000Y-220980000D03*
D14*
X406400000Y-223520000D03*
D13*
X406400000Y-226060000D03*
X406400000Y-228600000D03*
X406400000Y-231140000D03*
X406400000Y-233680000D03*
X406400000Y-236220000D03*
X406400000Y-238760000D03*
X406400000Y-241300000D03*
X406400000Y-243840000D03*
D14*
X406400000Y-246380000D03*
D15*
X398780000Y-162560000D03*
X398780000Y-251460000D03*
D16*
X139700000Y-78740000D03*
X139700000Y-104140000D03*
X139700000Y-119380000D03*
X167640000Y-78740000D03*
X167640000Y-104140000D03*
X167640000Y-119380000D03*
X195580000Y-78740000D03*
X195580000Y-104140000D03*
X195580000Y-119380000D03*
X223520000Y-78740000D03*
X223520000Y-104140000D03*
X223520000Y-119380000D03*
X251460000Y-78740000D03*
X251460000Y-104140000D03*
X251460000Y-119380000D03*
X307340000Y-78740000D03*
X307340000Y-104140000D03*
X307340000Y-119380000D03*
X279400000Y-78740000D03*
X279400000Y-104140000D03*
X279400000Y-119380000D03*
X335280000Y-78740000D03*
X335280000Y-104140000D03*
X335280000Y-119380000D03*
X363220000Y-78740000D03*
X363220000Y-104140000D03*
X363220000Y-119380000D03*
X139700000Y-180340000D03*
X139700000Y-205740000D03*
X139700000Y-220980000D03*
X195580000Y-180340000D03*
X195580000Y-205740000D03*
X195580000Y-220980000D03*
X223520000Y-180340000D03*
X223520000Y-205740000D03*
X223520000Y-220980000D03*
X251460000Y-180340000D03*
X251460000Y-205740000D03*
X251460000Y-220980000D03*
X307340000Y-180340000D03*
X307340000Y-205740000D03*
X307340000Y-220980000D03*
X279400000Y-180340000D03*
X279400000Y-205740000D03*
X279400000Y-220980000D03*
X335280000Y-180340000D03*
X335280000Y-205740000D03*
X335280000Y-220980000D03*
X363220000Y-180340000D03*
X363220000Y-205740000D03*
X363220000Y-220980000D03*
X167640000Y-180340000D03*
X167640000Y-205740000D03*
X167640000Y-220980000D03*
X139700000Y-281940000D03*
X139700000Y-307340000D03*
X139700000Y-322580000D03*
X195580000Y-281940000D03*
X195580000Y-307340000D03*
X195580000Y-322580000D03*
X223520000Y-281940000D03*
X223520000Y-307340000D03*
X223520000Y-322580000D03*
X251460000Y-281940000D03*
X251460000Y-307340000D03*
X251460000Y-322580000D03*
X307340000Y-281940000D03*
X307340000Y-307340000D03*
X307340000Y-322580000D03*
X279400000Y-281940000D03*
X279400000Y-307340000D03*
X279400000Y-322580000D03*
X335280000Y-281940000D03*
X335280000Y-307340000D03*
X335280000Y-322580000D03*
X363220000Y-281940000D03*
X363220000Y-307340000D03*
X363220000Y-322580000D03*
X167640000Y-281940000D03*
X167640000Y-307340000D03*
X167640000Y-322580000D03*
X139700000Y-134620000D03*
X195580000Y-134620000D03*
X223520000Y-134620000D03*
X251460000Y-134620000D03*
X307340000Y-134620000D03*
X279400000Y-134620000D03*
X335280000Y-134620000D03*
X363220000Y-134620000D03*
X167640000Y-134620000D03*
X139700000Y-236220000D03*
X195580000Y-236220000D03*
X223520000Y-236220000D03*
X251460000Y-236220000D03*
X307340000Y-236220000D03*
X279400000Y-236220000D03*
X335280000Y-236220000D03*
X363220000Y-236220000D03*
X167640000Y-236220000D03*
X139700000Y-337820000D03*
X195580000Y-337820000D03*
X223520000Y-337820000D03*
X251460000Y-337820000D03*
X307340000Y-337820000D03*
X279400000Y-337820000D03*
X335280000Y-337820000D03*
X363220000Y-337820000D03*
X167640000Y-337820000D03*
D13*
X401320000Y-269240000D03*
X401320000Y-271780000D03*
D14*
X401320000Y-274320000D03*
D13*
X401320000Y-276860000D03*
X401320000Y-279400000D03*
X401320000Y-281940000D03*
X401320000Y-284480000D03*
X401320000Y-287020000D03*
X401320000Y-289560000D03*
X401320000Y-292100000D03*
X401320000Y-294640000D03*
X401320000Y-297180000D03*
D14*
X401320000Y-299720000D03*
D13*
X401320000Y-302260000D03*
X401320000Y-304800000D03*
X401320000Y-307340000D03*
X401320000Y-309880000D03*
X401320000Y-312420000D03*
X401320000Y-314960000D03*
X401320000Y-317500000D03*
X401320000Y-320040000D03*
X401320000Y-322580000D03*
D14*
X401320000Y-325120000D03*
D13*
X401320000Y-327660000D03*
X401320000Y-330200000D03*
X401320000Y-332740000D03*
X401320000Y-335280000D03*
X401320000Y-337820000D03*
X401320000Y-340360000D03*
X401320000Y-342900000D03*
X401320000Y-345440000D03*
D14*
X401320000Y-347980000D03*
D13*
X403860000Y-269240000D03*
X403860000Y-271780000D03*
D14*
X403860000Y-274320000D03*
D13*
X403860000Y-276860000D03*
X403860000Y-279400000D03*
X403860000Y-281940000D03*
X403860000Y-284480000D03*
X403860000Y-287020000D03*
X403860000Y-289560000D03*
X403860000Y-292100000D03*
X403860000Y-294640000D03*
X403860000Y-297180000D03*
D14*
X403860000Y-299720000D03*
D13*
X403860000Y-302260000D03*
X403860000Y-304800000D03*
X403860000Y-307340000D03*
X403860000Y-309880000D03*
X403860000Y-312420000D03*
X403860000Y-314960000D03*
X403860000Y-317500000D03*
X403860000Y-320040000D03*
X403860000Y-322580000D03*
D14*
X403860000Y-325120000D03*
D13*
X403860000Y-327660000D03*
X403860000Y-330200000D03*
X403860000Y-332740000D03*
X403860000Y-335280000D03*
X403860000Y-337820000D03*
X403860000Y-340360000D03*
X403860000Y-342900000D03*
X403860000Y-345440000D03*
D14*
X403860000Y-347980000D03*
D13*
X406400000Y-269240000D03*
X406400000Y-271780000D03*
D14*
X406400000Y-274320000D03*
D13*
X406400000Y-276860000D03*
X406400000Y-279400000D03*
X406400000Y-281940000D03*
X406400000Y-284480000D03*
X406400000Y-287020000D03*
X406400000Y-289560000D03*
X406400000Y-292100000D03*
X406400000Y-294640000D03*
X406400000Y-297180000D03*
D14*
X406400000Y-299720000D03*
D13*
X406400000Y-302260000D03*
X406400000Y-304800000D03*
X406400000Y-307340000D03*
X406400000Y-309880000D03*
X406400000Y-312420000D03*
X406400000Y-314960000D03*
D14*
X406400000Y-317500000D03*
D13*
X406400000Y-320040000D03*
X406400000Y-322580000D03*
D14*
X406400000Y-325120000D03*
D13*
X406400000Y-327660000D03*
X406400000Y-330200000D03*
X406400000Y-332740000D03*
X406400000Y-335280000D03*
X406400000Y-337820000D03*
X406400000Y-340360000D03*
X406400000Y-342900000D03*
X406400000Y-345440000D03*
D14*
X406400000Y-347980000D03*
D15*
X398780000Y-264160000D03*
X398780000Y-353060000D03*
D16*
X142930000Y-134264000D03*
X143286000Y-68605000D03*
X198810000Y-134264000D03*
X199166000Y-68605000D03*
X226750000Y-134264000D03*
X227106000Y-68605000D03*
X254690000Y-134264000D03*
X255046000Y-68605000D03*
X310570000Y-134264000D03*
X310926000Y-68605000D03*
X282630000Y-134264000D03*
X282986000Y-68605000D03*
X338510000Y-134264000D03*
X338866000Y-68605000D03*
X366450000Y-134264000D03*
X366806000Y-68605000D03*
X170870000Y-134264000D03*
X142930000Y-235864000D03*
X143286000Y-170205000D03*
X198810000Y-235864000D03*
X199166000Y-170205000D03*
X226750000Y-235864000D03*
X227106000Y-170205000D03*
X254690000Y-235864000D03*
X255046000Y-170205000D03*
X310570000Y-235864000D03*
X310926000Y-170205000D03*
X282630000Y-235864000D03*
X282986000Y-170205000D03*
X338510000Y-235864000D03*
X338866000Y-170205000D03*
X366450000Y-235864000D03*
X366806000Y-170205000D03*
X170870000Y-235864000D03*
X171226000Y-170205000D03*
X142930000Y-337464000D03*
X143286000Y-271805000D03*
X198810000Y-337464000D03*
X199166000Y-271805000D03*
X226750000Y-337464000D03*
X227106000Y-271805000D03*
X254690000Y-337464000D03*
X255046000Y-271805000D03*
X310570000Y-337464000D03*
X310926000Y-271805000D03*
X282630000Y-337464000D03*
X282986000Y-271805000D03*
X338510000Y-337464000D03*
X338866000Y-271805000D03*
X366450000Y-337464000D03*
X366806000Y-271805000D03*
X170870000Y-337464000D03*
X171226000Y-271805000D03*
X171226000Y-68605000D03*
D12*
X185420000Y-78740000D03*
X205740000Y-78740000D03*
X213360000Y-78740000D03*
X233680000Y-78740000D03*
X241300000Y-78740000D03*
X261620000Y-78740000D03*
X297180000Y-78740000D03*
X317500000Y-78740000D03*
X269240000Y-78740000D03*
X289560000Y-78740000D03*
X325120000Y-78740000D03*
X345440000Y-78740000D03*
X353060000Y-78740000D03*
X157480000Y-78740000D03*
X177800000Y-78740000D03*
X129540000Y-180340000D03*
X149860000Y-180340000D03*
X185420000Y-180340000D03*
X205740000Y-180340000D03*
X213360000Y-180340000D03*
X233680000Y-180340000D03*
X241300000Y-180340000D03*
X261620000Y-180340000D03*
X297180000Y-180340000D03*
X317500000Y-180340000D03*
X269240000Y-180340000D03*
X289560000Y-180340000D03*
X325120000Y-180340000D03*
X345440000Y-180340000D03*
X353060000Y-180340000D03*
X373380000Y-180340000D03*
X157480000Y-180340000D03*
X177800000Y-180340000D03*
X129540000Y-281940000D03*
X149860000Y-281940000D03*
X185420000Y-281940000D03*
X205740000Y-281940000D03*
X213360000Y-281940000D03*
X233680000Y-281940000D03*
X241300000Y-281940000D03*
X261620000Y-281940000D03*
X297180000Y-281940000D03*
X317500000Y-281940000D03*
X269240000Y-281940000D03*
X289560000Y-281940000D03*
X325120000Y-281940000D03*
X345440000Y-281940000D03*
X353060000Y-281940000D03*
X373380000Y-281940000D03*
X157480000Y-281940000D03*
X177800000Y-281940000D03*
X129540000Y-78740000D03*
X149860000Y-78740000D03*
D17*
G36*
X142748000Y-81788000D02*
X136652000Y-81788000D01*
X136652000Y-70612000D01*
X142748000Y-70612000D01*
X142748000Y-81788000D01*
X142748000Y-81788000D01*
G37*
X142748000Y-81788000D02*
X136652000Y-81788000D01*
X136652000Y-70612000D01*
X142748000Y-70612000D01*
X142748000Y-81788000D01*
G36*
X170688000Y-81788000D02*
X164592000Y-81788000D01*
X164592000Y-70612000D01*
X170688000Y-70612000D01*
X170688000Y-81788000D01*
X170688000Y-81788000D01*
G37*
X170688000Y-81788000D02*
X164592000Y-81788000D01*
X164592000Y-70612000D01*
X170688000Y-70612000D01*
X170688000Y-81788000D01*
G36*
X198628000Y-81788000D02*
X192532000Y-81788000D01*
X192532000Y-70612000D01*
X198628000Y-70612000D01*
X198628000Y-81788000D01*
X198628000Y-81788000D01*
G37*
X198628000Y-81788000D02*
X192532000Y-81788000D01*
X192532000Y-70612000D01*
X198628000Y-70612000D01*
X198628000Y-81788000D01*
G36*
X226568000Y-81788000D02*
X220472000Y-81788000D01*
X220472000Y-70612000D01*
X226568000Y-70612000D01*
X226568000Y-81788000D01*
X226568000Y-81788000D01*
G37*
X226568000Y-81788000D02*
X220472000Y-81788000D01*
X220472000Y-70612000D01*
X226568000Y-70612000D01*
X226568000Y-81788000D01*
G36*
X254508000Y-81788000D02*
X248412000Y-81788000D01*
X248412000Y-70612000D01*
X254508000Y-70612000D01*
X254508000Y-81788000D01*
X254508000Y-81788000D01*
G37*
X254508000Y-81788000D02*
X248412000Y-81788000D01*
X248412000Y-70612000D01*
X254508000Y-70612000D01*
X254508000Y-81788000D01*
G36*
X282448000Y-81788000D02*
X276352000Y-81788000D01*
X276352000Y-70612000D01*
X282448000Y-70612000D01*
X282448000Y-81788000D01*
X282448000Y-81788000D01*
G37*
X282448000Y-81788000D02*
X276352000Y-81788000D01*
X276352000Y-70612000D01*
X282448000Y-70612000D01*
X282448000Y-81788000D01*
G36*
X310388000Y-81788000D02*
X304292000Y-81788000D01*
X304292000Y-70612000D01*
X310388000Y-70612000D01*
X310388000Y-81788000D01*
X310388000Y-81788000D01*
G37*
X310388000Y-81788000D02*
X304292000Y-81788000D01*
X304292000Y-70612000D01*
X310388000Y-70612000D01*
X310388000Y-81788000D01*
G36*
X338328000Y-81788000D02*
X332232000Y-81788000D01*
X332232000Y-70612000D01*
X338328000Y-70612000D01*
X338328000Y-81788000D01*
X338328000Y-81788000D01*
G37*
X338328000Y-81788000D02*
X332232000Y-81788000D01*
X332232000Y-70612000D01*
X338328000Y-70612000D01*
X338328000Y-81788000D01*
G36*
X366268000Y-81788000D02*
X360172000Y-81788000D01*
X360172000Y-70612000D01*
X366268000Y-70612000D01*
X366268000Y-81788000D01*
X366268000Y-81788000D01*
G37*
X366268000Y-81788000D02*
X360172000Y-81788000D01*
X360172000Y-70612000D01*
X366268000Y-70612000D01*
X366268000Y-81788000D01*
G36*
X142748000Y-183388000D02*
X136652000Y-183388000D01*
X136652000Y-172212000D01*
X142748000Y-172212000D01*
X142748000Y-183388000D01*
X142748000Y-183388000D01*
G37*
X142748000Y-183388000D02*
X136652000Y-183388000D01*
X136652000Y-172212000D01*
X142748000Y-172212000D01*
X142748000Y-183388000D01*
G36*
X170688000Y-183388000D02*
X164592000Y-183388000D01*
X164592000Y-172212000D01*
X170688000Y-172212000D01*
X170688000Y-183388000D01*
X170688000Y-183388000D01*
G37*
X170688000Y-183388000D02*
X164592000Y-183388000D01*
X164592000Y-172212000D01*
X170688000Y-172212000D01*
X170688000Y-183388000D01*
G36*
X198628000Y-183388000D02*
X192532000Y-183388000D01*
X192532000Y-172212000D01*
X198628000Y-172212000D01*
X198628000Y-183388000D01*
X198628000Y-183388000D01*
G37*
X198628000Y-183388000D02*
X192532000Y-183388000D01*
X192532000Y-172212000D01*
X198628000Y-172212000D01*
X198628000Y-183388000D01*
G36*
X226568000Y-183388000D02*
X220472000Y-183388000D01*
X220472000Y-172212000D01*
X226568000Y-172212000D01*
X226568000Y-183388000D01*
X226568000Y-183388000D01*
G37*
X226568000Y-183388000D02*
X220472000Y-183388000D01*
X220472000Y-172212000D01*
X226568000Y-172212000D01*
X226568000Y-183388000D01*
G36*
X254508000Y-183388000D02*
X248412000Y-183388000D01*
X248412000Y-172212000D01*
X254508000Y-172212000D01*
X254508000Y-183388000D01*
X254508000Y-183388000D01*
G37*
X254508000Y-183388000D02*
X248412000Y-183388000D01*
X248412000Y-172212000D01*
X254508000Y-172212000D01*
X254508000Y-183388000D01*
G36*
X282448000Y-183388000D02*
X276352000Y-183388000D01*
X276352000Y-172212000D01*
X282448000Y-172212000D01*
X282448000Y-183388000D01*
X282448000Y-183388000D01*
G37*
X282448000Y-183388000D02*
X276352000Y-183388000D01*
X276352000Y-172212000D01*
X282448000Y-172212000D01*
X282448000Y-183388000D01*
G36*
X310388000Y-183388000D02*
X304292000Y-183388000D01*
X304292000Y-172212000D01*
X310388000Y-172212000D01*
X310388000Y-183388000D01*
X310388000Y-183388000D01*
G37*
X310388000Y-183388000D02*
X304292000Y-183388000D01*
X304292000Y-172212000D01*
X310388000Y-172212000D01*
X310388000Y-183388000D01*
G36*
X338328000Y-183388000D02*
X332232000Y-183388000D01*
X332232000Y-172212000D01*
X338328000Y-172212000D01*
X338328000Y-183388000D01*
X338328000Y-183388000D01*
G37*
X338328000Y-183388000D02*
X332232000Y-183388000D01*
X332232000Y-172212000D01*
X338328000Y-172212000D01*
X338328000Y-183388000D01*
G36*
X366268000Y-183388000D02*
X360172000Y-183388000D01*
X360172000Y-172212000D01*
X366268000Y-172212000D01*
X366268000Y-183388000D01*
X366268000Y-183388000D01*
G37*
X366268000Y-183388000D02*
X360172000Y-183388000D01*
X360172000Y-172212000D01*
X366268000Y-172212000D01*
X366268000Y-183388000D01*
G36*
X142748000Y-284988000D02*
X136652000Y-284988000D01*
X136652000Y-273812000D01*
X142748000Y-273812000D01*
X142748000Y-284988000D01*
X142748000Y-284988000D01*
G37*
X142748000Y-284988000D02*
X136652000Y-284988000D01*
X136652000Y-273812000D01*
X142748000Y-273812000D01*
X142748000Y-284988000D01*
G36*
X170688000Y-284988000D02*
X164592000Y-284988000D01*
X164592000Y-273812000D01*
X170688000Y-273812000D01*
X170688000Y-284988000D01*
X170688000Y-284988000D01*
G37*
X170688000Y-284988000D02*
X164592000Y-284988000D01*
X164592000Y-273812000D01*
X170688000Y-273812000D01*
X170688000Y-284988000D01*
G36*
X198628000Y-284988000D02*
X192532000Y-284988000D01*
X192532000Y-273812000D01*
X198628000Y-273812000D01*
X198628000Y-284988000D01*
X198628000Y-284988000D01*
G37*
X198628000Y-284988000D02*
X192532000Y-284988000D01*
X192532000Y-273812000D01*
X198628000Y-273812000D01*
X198628000Y-284988000D01*
G36*
X226568000Y-284988000D02*
X220472000Y-284988000D01*
X220472000Y-273812000D01*
X226568000Y-273812000D01*
X226568000Y-284988000D01*
X226568000Y-284988000D01*
G37*
X226568000Y-284988000D02*
X220472000Y-284988000D01*
X220472000Y-273812000D01*
X226568000Y-273812000D01*
X226568000Y-284988000D01*
G36*
X254508000Y-284988000D02*
X248412000Y-284988000D01*
X248412000Y-273812000D01*
X254508000Y-273812000D01*
X254508000Y-284988000D01*
X254508000Y-284988000D01*
G37*
X254508000Y-284988000D02*
X248412000Y-284988000D01*
X248412000Y-273812000D01*
X254508000Y-273812000D01*
X254508000Y-284988000D01*
G36*
X282448000Y-284988000D02*
X276352000Y-284988000D01*
X276352000Y-273812000D01*
X282448000Y-273812000D01*
X282448000Y-284988000D01*
X282448000Y-284988000D01*
G37*
X282448000Y-284988000D02*
X276352000Y-284988000D01*
X276352000Y-273812000D01*
X282448000Y-273812000D01*
X282448000Y-284988000D01*
G36*
X310388000Y-284988000D02*
X304292000Y-284988000D01*
X304292000Y-273812000D01*
X310388000Y-273812000D01*
X310388000Y-284988000D01*
X310388000Y-284988000D01*
G37*
X310388000Y-284988000D02*
X304292000Y-284988000D01*
X304292000Y-273812000D01*
X310388000Y-273812000D01*
X310388000Y-284988000D01*
G36*
X338328000Y-284988000D02*
X332232000Y-284988000D01*
X332232000Y-273812000D01*
X338328000Y-273812000D01*
X338328000Y-284988000D01*
X338328000Y-284988000D01*
G37*
X338328000Y-284988000D02*
X332232000Y-284988000D01*
X332232000Y-273812000D01*
X338328000Y-273812000D01*
X338328000Y-284988000D01*
G36*
X366268000Y-284988000D02*
X360172000Y-284988000D01*
X360172000Y-273812000D01*
X366268000Y-273812000D01*
X366268000Y-284988000D01*
X366268000Y-284988000D01*
G37*
X366268000Y-284988000D02*
X360172000Y-284988000D01*
X360172000Y-273812000D01*
X366268000Y-273812000D01*
X366268000Y-284988000D01*
M02*
