M48
;DRILL file {KiCad 4.0.7} date Mon Feb 19 16:48:56 2018
;FORMAT={-:-/ absolute / inch / decimal}
FMAT,2
INCH,TZ
T1C0.016
T2C0.039
T3C0.110
%
G90
G05
M72
T1
X5.1Y-3.8661
X5.1Y-3.9843
X5.1Y-7.8661
X5.1Y-7.9843
X5.1Y-11.8661
X5.1Y-11.9843
X5.15Y-3.8661
X5.15Y-3.9843
X5.15Y-7.8661
X5.15Y-7.9843
X5.15Y-11.8661
X5.15Y-11.9843
X5.2Y-4.2
X5.2Y-8.2
X5.2Y-12.2
X5.25Y-5.275
X5.25Y-9.275
X5.25Y-13.275
X5.4Y-2.8
X5.4Y-2.9
X5.4Y-3.
X5.4Y-3.1
X5.4Y-3.2
X5.4Y-6.8
X5.4Y-6.9
X5.4Y-7.
X5.4Y-7.1
X5.4Y-7.2
X5.4Y-10.8
X5.4Y-10.9
X5.4Y-11.
X5.4Y-11.1
X5.4Y-11.2
X5.475Y-3.275
X5.475Y-7.275
X5.475Y-11.275
X5.5Y-2.8
X5.5Y-2.9
X5.5Y-3.
X5.5Y-3.2
X5.5Y-6.8
X5.5Y-6.9
X5.5Y-7.
X5.5Y-7.2
X5.5Y-10.8
X5.5Y-10.9
X5.5Y-11.
X5.5Y-11.2
X5.6Y-2.8
X5.6Y-2.9
X5.6Y-3.
X5.6Y-3.1
X5.6Y-3.2
X5.6Y-6.8
X5.6Y-6.9
X5.6Y-7.
X5.6Y-7.1
X5.6Y-7.2
X5.6Y-10.8
X5.6Y-10.9
X5.6Y-11.
X5.6Y-11.1
X5.6Y-11.2
X5.625Y-5.675
X5.625Y-9.675
X5.625Y-13.675
X5.675Y-5.675
X5.675Y-9.675
X5.675Y-13.675
X5.7Y-5.7
X5.7Y-9.7
X5.7Y-13.7
X5.85Y-3.275
X5.85Y-3.8661
X5.85Y-3.9843
X5.85Y-5.75
X5.85Y-7.275
X5.85Y-7.8661
X5.85Y-7.9843
X5.85Y-9.75
X5.85Y-11.275
X5.85Y-11.8661
X5.85Y-11.9843
X5.85Y-13.75
X5.9Y-3.9843
X5.9Y-7.9843
X5.9Y-11.9843
X5.9024Y-3.8661
X5.9024Y-7.8661
X5.9024Y-11.8661
X6.2Y-3.8661
X6.2Y-3.9843
X6.2Y-7.8661
X6.2Y-7.9843
X6.2Y-11.8661
X6.2Y-11.9843
X6.25Y-3.8661
X6.25Y-3.9843
X6.25Y-7.8661
X6.25Y-7.9843
X6.25Y-11.8661
X6.25Y-11.9843
X6.3Y-4.2
X6.3Y-8.2
X6.3Y-12.2
X6.35Y-5.275
X6.35Y-9.275
X6.35Y-13.275
X6.5Y-2.8
X6.5Y-2.9
X6.5Y-3.
X6.5Y-3.1
X6.5Y-3.2
X6.5Y-6.8
X6.5Y-6.9
X6.5Y-7.
X6.5Y-7.1
X6.5Y-7.2
X6.5Y-10.8
X6.5Y-10.9
X6.5Y-11.
X6.5Y-11.1
X6.5Y-11.2
X6.575Y-3.275
X6.575Y-7.275
X6.575Y-11.275
X6.6Y-2.8
X6.6Y-2.9
X6.6Y-3.
X6.6Y-3.2
X6.6Y-6.8
X6.6Y-6.9
X6.6Y-7.
X6.6Y-7.2
X6.6Y-10.8
X6.6Y-10.9
X6.6Y-11.
X6.6Y-11.2
X6.7Y-2.8
X6.7Y-2.9
X6.7Y-3.
X6.7Y-3.1
X6.7Y-3.2
X6.7Y-6.8
X6.7Y-6.9
X6.7Y-7.
X6.7Y-7.1
X6.7Y-7.2
X6.7Y-10.8
X6.7Y-10.9
X6.7Y-11.
X6.7Y-11.1
X6.7Y-11.2
X6.725Y-5.675
X6.725Y-9.675
X6.725Y-13.675
X6.775Y-5.675
X6.775Y-9.675
X6.775Y-13.675
X6.8Y-5.7
X6.8Y-9.7
X6.8Y-13.7
X6.95Y-3.275
X6.95Y-3.8661
X6.95Y-3.9843
X6.95Y-5.75
X6.95Y-7.275
X6.95Y-7.8661
X6.95Y-7.9843
X6.95Y-9.75
X6.95Y-11.275
X6.95Y-11.8661
X6.95Y-11.9843
X6.95Y-13.75
X7.Y-3.8661
X7.Y-3.9843
X7.Y-7.8661
X7.Y-7.9843
X7.Y-11.8661
X7.Y-11.9843
X7.3Y-3.8661
X7.3Y-3.9843
X7.3Y-7.8661
X7.3Y-7.9843
X7.3Y-11.8661
X7.3Y-11.9843
X7.35Y-3.8661
X7.35Y-3.9843
X7.35Y-7.8661
X7.35Y-7.9843
X7.35Y-11.8661
X7.35Y-11.9843
X7.45Y-4.15
X7.45Y-5.275
X7.45Y-8.15
X7.45Y-9.275
X7.45Y-12.15
X7.45Y-13.275
X7.6Y-2.8
X7.6Y-2.9
X7.6Y-3.
X7.6Y-3.1
X7.6Y-3.2
X7.6Y-6.8
X7.6Y-6.9
X7.6Y-7.
X7.6Y-7.1
X7.6Y-7.2
X7.6Y-10.8
X7.6Y-10.9
X7.6Y-11.
X7.6Y-11.1
X7.6Y-11.2
X7.675Y-3.275
X7.675Y-7.275
X7.675Y-11.275
X7.7Y-2.8
X7.7Y-2.9
X7.7Y-3.
X7.7Y-3.2
X7.7Y-6.8
X7.7Y-6.9
X7.7Y-7.
X7.7Y-7.2
X7.7Y-10.8
X7.7Y-10.9
X7.7Y-11.
X7.7Y-11.2
X7.8Y-2.8
X7.8Y-2.9
X7.8Y-3.
X7.8Y-3.1
X7.8Y-3.2
X7.8Y-6.8
X7.8Y-6.9
X7.8Y-7.
X7.8Y-7.1
X7.8Y-7.2
X7.8Y-10.8
X7.8Y-10.9
X7.8Y-11.
X7.8Y-11.1
X7.8Y-11.2
X7.825Y-5.675
X7.825Y-9.675
X7.825Y-13.675
X7.875Y-5.675
X7.875Y-9.675
X7.875Y-13.675
X7.9Y-5.7
X7.9Y-9.7
X7.9Y-13.7
X8.05Y-3.275
X8.05Y-3.8661
X8.05Y-5.75
X8.05Y-7.275
X8.05Y-7.8661
X8.05Y-9.75
X8.05Y-11.275
X8.05Y-11.8661
X8.05Y-13.75
X8.0524Y-3.9843
X8.0524Y-7.9843
X8.0524Y-11.9843
X8.1Y-3.9843
X8.1Y-7.9843
X8.1Y-11.9843
X8.1024Y-3.8661
X8.1024Y-7.8661
X8.1024Y-11.8661
X8.4Y-3.8661
X8.4Y-3.9843
X8.4Y-7.8661
X8.4Y-7.9843
X8.4Y-11.8661
X8.4Y-11.9843
X8.45Y-3.8661
X8.45Y-3.9843
X8.45Y-7.8661
X8.45Y-7.9843
X8.45Y-11.8661
X8.45Y-11.9843
X8.55Y-4.35
X8.55Y-5.275
X8.55Y-8.35
X8.55Y-9.275
X8.55Y-12.35
X8.55Y-13.275
X8.7Y-2.8
X8.7Y-2.9
X8.7Y-3.
X8.7Y-3.1
X8.7Y-3.2
X8.7Y-6.8
X8.7Y-6.9
X8.7Y-7.
X8.7Y-7.1
X8.7Y-7.2
X8.7Y-10.8
X8.7Y-10.9
X8.7Y-11.
X8.7Y-11.1
X8.7Y-11.2
X8.775Y-3.275
X8.775Y-7.275
X8.775Y-11.275
X8.8Y-2.8
X8.8Y-2.9
X8.8Y-3.
X8.8Y-3.2
X8.8Y-6.8
X8.8Y-6.9
X8.8Y-7.
X8.8Y-7.2
X8.8Y-10.8
X8.8Y-10.9
X8.8Y-11.
X8.8Y-11.2
X8.9Y-2.8
X8.9Y-2.9
X8.9Y-3.
X8.9Y-3.1
X8.9Y-3.2
X8.9Y-6.8
X8.9Y-6.9
X8.9Y-7.
X8.9Y-7.1
X8.9Y-7.2
X8.9Y-10.8
X8.9Y-10.9
X8.9Y-11.
X8.9Y-11.1
X8.9Y-11.2
X8.925Y-5.675
X8.925Y-9.675
X8.925Y-13.675
X8.975Y-5.675
X8.975Y-9.675
X8.975Y-13.675
X9.Y-5.7
X9.Y-9.7
X9.Y-13.7
X9.15Y-3.275
X9.15Y-3.8661
X9.15Y-3.9843
X9.15Y-5.75
X9.15Y-7.275
X9.15Y-7.8661
X9.15Y-7.9843
X9.15Y-9.75
X9.15Y-11.275
X9.15Y-11.8661
X9.15Y-11.9843
X9.15Y-13.75
X9.2Y-3.9843
X9.2Y-7.9843
X9.2Y-11.9843
X9.2024Y-3.8661
X9.2024Y-7.8661
X9.2024Y-11.8661
X9.5Y-3.8661
X9.5Y-3.9843
X9.5Y-7.8661
X9.5Y-7.9843
X9.5Y-11.8661
X9.5Y-11.9843
X9.55Y-3.8661
X9.55Y-3.9843
X9.55Y-7.8661
X9.55Y-7.9843
X9.55Y-11.8661
X9.55Y-11.9843
X9.65Y-4.55
X9.65Y-5.275
X9.65Y-8.55
X9.65Y-9.275
X9.65Y-12.55
X9.65Y-13.275
X9.8Y-2.8
X9.8Y-2.9
X9.8Y-3.
X9.8Y-3.1
X9.8Y-3.2
X9.8Y-6.8
X9.8Y-6.9
X9.8Y-7.
X9.8Y-7.1
X9.8Y-7.2
X9.8Y-10.8
X9.8Y-10.9
X9.8Y-11.
X9.8Y-11.1
X9.8Y-11.2
X9.875Y-3.275
X9.875Y-7.275
X9.875Y-11.275
X9.9Y-2.8
X9.9Y-2.9
X9.9Y-3.
X9.9Y-3.2
X9.9Y-6.8
X9.9Y-6.9
X9.9Y-7.
X9.9Y-7.2
X9.9Y-10.8
X9.9Y-10.9
X9.9Y-11.
X9.9Y-11.2
X10.Y-2.8
X10.Y-2.9
X10.Y-3.
X10.Y-3.1
X10.Y-3.2
X10.Y-6.8
X10.Y-6.9
X10.Y-7.
X10.Y-7.1
X10.Y-7.2
X10.Y-10.8
X10.Y-10.9
X10.Y-11.
X10.Y-11.1
X10.Y-11.2
X10.025Y-5.675
X10.025Y-9.675
X10.025Y-13.675
X10.075Y-5.675
X10.075Y-9.675
X10.075Y-13.675
X10.1Y-5.7
X10.1Y-9.7
X10.1Y-13.7
X10.25Y-3.275
X10.25Y-3.8661
X10.25Y-3.9843
X10.25Y-5.75
X10.25Y-7.275
X10.25Y-7.8661
X10.25Y-7.9843
X10.25Y-9.75
X10.25Y-11.275
X10.25Y-11.8661
X10.25Y-11.9843
X10.25Y-13.75
X10.3Y-3.9843
X10.3Y-7.9843
X10.3Y-11.9843
X10.3024Y-3.8661
X10.3024Y-7.8661
X10.3024Y-11.8661
X10.6Y-3.8661
X10.6Y-3.9843
X10.6Y-7.8661
X10.6Y-7.9843
X10.6Y-11.8661
X10.6Y-11.9843
X10.65Y-3.8661
X10.65Y-3.9843
X10.65Y-7.8661
X10.65Y-7.9843
X10.65Y-11.8661
X10.65Y-11.9843
X10.75Y-4.75
X10.75Y-5.275
X10.75Y-8.75
X10.75Y-9.275
X10.75Y-12.75
X10.75Y-13.275
X10.9Y-2.8
X10.9Y-2.9
X10.9Y-3.
X10.9Y-3.1
X10.9Y-3.2
X10.9Y-6.8
X10.9Y-6.9
X10.9Y-7.
X10.9Y-7.1
X10.9Y-7.2
X10.9Y-10.8
X10.9Y-10.9
X10.9Y-11.
X10.9Y-11.1
X10.9Y-11.2
X10.975Y-3.275
X10.975Y-7.275
X10.975Y-11.275
X11.Y-2.8
X11.Y-2.9
X11.Y-3.
X11.Y-3.2
X11.Y-6.8
X11.Y-6.9
X11.Y-7.
X11.Y-7.2
X11.Y-10.8
X11.Y-10.9
X11.Y-11.
X11.Y-11.2
X11.1Y-2.8
X11.1Y-2.9
X11.1Y-3.
X11.1Y-3.1
X11.1Y-3.2
X11.1Y-6.8
X11.1Y-6.9
X11.1Y-7.
X11.1Y-7.1
X11.1Y-7.2
X11.1Y-10.8
X11.1Y-10.9
X11.1Y-11.
X11.1Y-11.1
X11.1Y-11.2
X11.125Y-5.675
X11.125Y-9.675
X11.125Y-13.675
X11.175Y-5.675
X11.175Y-9.675
X11.175Y-13.675
X11.2Y-5.7
X11.2Y-9.7
X11.2Y-13.7
X11.35Y-3.275
X11.35Y-3.8661
X11.35Y-3.9843
X11.35Y-5.75
X11.35Y-7.275
X11.35Y-7.8661
X11.35Y-7.9843
X11.35Y-9.75
X11.35Y-11.275
X11.35Y-11.8661
X11.35Y-11.9843
X11.35Y-13.75
X11.4Y-3.9843
X11.4Y-7.9843
X11.4Y-11.9843
X11.4024Y-3.8661
X11.4024Y-7.8661
X11.4024Y-11.8661
X11.7Y-3.8661
X11.7Y-3.9843
X11.7Y-7.8661
X11.7Y-7.9843
X11.7Y-11.8661
X11.7Y-11.9843
X11.75Y-3.8661
X11.75Y-3.9843
X11.75Y-7.8661
X11.75Y-7.9843
X11.75Y-11.8661
X11.75Y-11.9843
X11.85Y-4.95
X11.85Y-5.275
X11.85Y-8.95
X11.85Y-9.275
X11.85Y-12.95
X11.85Y-13.275
X12.Y-2.8
X12.Y-2.9
X12.Y-3.
X12.Y-3.1
X12.Y-3.2
X12.Y-6.8
X12.Y-6.9
X12.Y-7.
X12.Y-7.1
X12.Y-7.2
X12.Y-10.8
X12.Y-10.9
X12.Y-11.
X12.Y-11.1
X12.Y-11.2
X12.075Y-3.275
X12.075Y-7.275
X12.075Y-11.275
X12.1Y-2.8
X12.1Y-2.9
X12.1Y-3.
X12.1Y-3.2
X12.1Y-6.8
X12.1Y-6.9
X12.1Y-7.
X12.1Y-7.2
X12.1Y-10.8
X12.1Y-10.9
X12.1Y-11.
X12.1Y-11.2
X12.2Y-2.8
X12.2Y-2.9
X12.2Y-3.
X12.2Y-3.1
X12.2Y-3.2
X12.2Y-6.8
X12.2Y-6.9
X12.2Y-7.
X12.2Y-7.1
X12.2Y-7.2
X12.2Y-10.8
X12.2Y-10.9
X12.2Y-11.
X12.2Y-11.1
X12.2Y-11.2
X12.225Y-5.675
X12.225Y-9.675
X12.225Y-13.675
X12.275Y-5.675
X12.275Y-9.675
X12.275Y-13.675
X12.3Y-5.7
X12.3Y-9.7
X12.3Y-13.7
X12.45Y-3.275
X12.45Y-3.8661
X12.45Y-3.9843
X12.45Y-5.75
X12.45Y-7.275
X12.45Y-7.8661
X12.45Y-7.9843
X12.45Y-9.75
X12.45Y-11.275
X12.45Y-11.8661
X12.45Y-11.9843
X12.45Y-13.75
X12.5024Y-3.8661
X12.5024Y-3.9843
X12.5024Y-7.8661
X12.5024Y-7.9843
X12.5024Y-11.8661
X12.5024Y-11.9843
X12.8Y-3.8661
X12.8Y-3.9843
X12.8Y-7.8661
X12.8Y-7.9843
X12.8Y-11.8661
X12.8Y-11.9843
X12.85Y-3.8661
X12.85Y-3.9843
X12.85Y-7.8661
X12.85Y-7.9843
X12.85Y-11.8661
X12.85Y-11.9843
X12.95Y-5.1
X12.95Y-5.15
X12.95Y-9.1
X12.95Y-9.15
X12.95Y-13.1
X12.95Y-13.15
X13.1Y-2.8
X13.1Y-2.9
X13.1Y-3.
X13.1Y-3.1
X13.1Y-3.2
X13.1Y-6.8
X13.1Y-6.9
X13.1Y-7.
X13.1Y-7.1
X13.1Y-7.2
X13.1Y-10.8
X13.1Y-10.9
X13.1Y-11.
X13.1Y-11.1
X13.1Y-11.2
X13.175Y-3.275
X13.175Y-7.275
X13.175Y-11.275
X13.2Y-2.8
X13.2Y-2.9
X13.2Y-3.
X13.2Y-3.2
X13.2Y-6.8
X13.2Y-6.9
X13.2Y-7.
X13.2Y-7.2
X13.2Y-10.8
X13.2Y-10.9
X13.2Y-11.
X13.2Y-11.2
X13.3Y-2.8
X13.3Y-2.9
X13.3Y-3.
X13.3Y-3.1
X13.3Y-3.2
X13.3Y-6.8
X13.3Y-6.9
X13.3Y-7.
X13.3Y-7.1
X13.3Y-7.2
X13.3Y-10.8
X13.3Y-10.9
X13.3Y-11.
X13.3Y-11.1
X13.3Y-11.2
X13.325Y-5.675
X13.325Y-9.675
X13.325Y-13.675
X13.375Y-5.675
X13.375Y-9.675
X13.375Y-13.675
X13.4Y-5.7
X13.4Y-9.7
X13.4Y-13.7
X13.55Y-3.275
X13.55Y-3.8661
X13.55Y-3.9843
X13.55Y-5.75
X13.55Y-7.275
X13.55Y-7.8661
X13.55Y-7.9843
X13.55Y-9.75
X13.55Y-11.275
X13.55Y-11.8661
X13.55Y-11.9843
X13.55Y-13.75
X13.6Y-3.8661
X13.6Y-3.9843
X13.6Y-7.8661
X13.6Y-7.9843
X13.6Y-11.8661
X13.6Y-11.9843
X13.9Y-3.8661
X13.9Y-3.9843
X13.9Y-7.8661
X13.9Y-7.9843
X13.9Y-11.8661
X13.9Y-11.9843
X13.95Y-3.8661
X13.95Y-3.9843
X13.95Y-7.8661
X13.95Y-7.9843
X13.95Y-11.8661
X13.95Y-11.9843
X14.05Y-5.2
X14.05Y-5.25
X14.05Y-9.2
X14.05Y-9.25
X14.05Y-13.2
X14.05Y-13.25
X14.2Y-2.8
X14.2Y-2.9
X14.2Y-3.
X14.2Y-3.1
X14.2Y-3.2
X14.2Y-6.8
X14.2Y-6.9
X14.2Y-7.
X14.2Y-7.1
X14.2Y-7.2
X14.2Y-10.8
X14.2Y-10.9
X14.2Y-11.
X14.2Y-11.1
X14.2Y-11.2
X14.275Y-3.275
X14.275Y-7.275
X14.275Y-11.275
X14.3Y-2.8
X14.3Y-2.9
X14.3Y-3.
X14.3Y-3.2
X14.3Y-6.8
X14.3Y-6.9
X14.3Y-7.
X14.3Y-7.2
X14.3Y-10.8
X14.3Y-10.9
X14.3Y-11.
X14.3Y-11.2
X14.4Y-2.8
X14.4Y-2.9
X14.4Y-3.
X14.4Y-3.1
X14.4Y-3.2
X14.4Y-6.8
X14.4Y-6.9
X14.4Y-7.
X14.4Y-7.1
X14.4Y-7.2
X14.4Y-10.8
X14.4Y-10.9
X14.4Y-11.
X14.4Y-11.1
X14.4Y-11.2
X14.425Y-5.675
X14.425Y-9.675
X14.425Y-13.675
X14.475Y-5.675
X14.475Y-9.675
X14.475Y-13.675
X14.5Y-5.7
X14.5Y-9.7
X14.5Y-13.7
X14.65Y-3.275
X14.65Y-3.8661
X14.65Y-3.9843
X14.65Y-5.75
X14.65Y-7.275
X14.65Y-7.8661
X14.65Y-7.9843
X14.65Y-9.75
X14.65Y-11.275
X14.65Y-11.8661
X14.65Y-11.9843
X14.65Y-13.75
X14.7024Y-3.8661
X14.7024Y-3.9843
X14.7024Y-7.8661
X14.7024Y-7.9843
X14.7024Y-11.8661
X14.7024Y-11.9843
T2
X15.8Y-2.6
X15.8Y-2.7
X15.8Y-2.8
X15.8Y-2.9
X15.8Y-3.
X15.8Y-3.1
X15.8Y-3.2
X15.8Y-3.3
X15.8Y-3.4
X15.8Y-3.5
X15.8Y-3.6
X15.8Y-3.7
X15.8Y-3.8
X15.8Y-3.9
X15.8Y-4.
X15.8Y-4.1
X15.8Y-4.2
X15.8Y-4.3
X15.8Y-4.4
X15.8Y-4.5
X15.8Y-4.6
X15.8Y-4.7
X15.8Y-4.8
X15.8Y-4.9
X15.8Y-5.
X15.8Y-5.1
X15.8Y-5.2
X15.8Y-5.3
X15.8Y-5.4
X15.8Y-5.5
X15.8Y-5.6
X15.8Y-5.7
X15.8Y-6.6
X15.8Y-6.7
X15.8Y-6.8
X15.8Y-6.9
X15.8Y-7.
X15.8Y-7.1
X15.8Y-7.2
X15.8Y-7.3
X15.8Y-7.4
X15.8Y-7.5
X15.8Y-7.6
X15.8Y-7.7
X15.8Y-7.8
X15.8Y-7.9
X15.8Y-8.
X15.8Y-8.1
X15.8Y-8.2
X15.8Y-8.3
X15.8Y-8.4
X15.8Y-8.5
X15.8Y-8.6
X15.8Y-8.7
X15.8Y-8.8
X15.8Y-8.9
X15.8Y-9.
X15.8Y-9.1
X15.8Y-9.2
X15.8Y-9.3
X15.8Y-9.4
X15.8Y-9.5
X15.8Y-9.6
X15.8Y-9.7
X15.8Y-10.6
X15.8Y-10.7
X15.8Y-10.8
X15.8Y-10.9
X15.8Y-11.
X15.8Y-11.1
X15.8Y-11.2
X15.8Y-11.3
X15.8Y-11.4
X15.8Y-11.5
X15.8Y-11.6
X15.8Y-11.7
X15.8Y-11.8
X15.8Y-11.9
X15.8Y-12.
X15.8Y-12.1
X15.8Y-12.2
X15.8Y-12.3
X15.8Y-12.4
X15.8Y-12.5
X15.8Y-12.6
X15.8Y-12.7
X15.8Y-12.8
X15.8Y-12.9
X15.8Y-13.
X15.8Y-13.1
X15.8Y-13.2
X15.8Y-13.3
X15.8Y-13.4
X15.8Y-13.5
X15.8Y-13.6
X15.8Y-13.7
X15.9Y-2.6
X15.9Y-2.7
X15.9Y-2.8
X15.9Y-2.9
X15.9Y-3.
X15.9Y-3.1
X15.9Y-3.2
X15.9Y-3.3
X15.9Y-3.4
X15.9Y-3.5
X15.9Y-3.6
X15.9Y-3.7
X15.9Y-3.8
X15.9Y-3.9
X15.9Y-4.
X15.9Y-4.1
X15.9Y-4.2
X15.9Y-4.3
X15.9Y-4.4
X15.9Y-4.5
X15.9Y-4.6
X15.9Y-4.7
X15.9Y-4.8
X15.9Y-4.9
X15.9Y-5.
X15.9Y-5.1
X15.9Y-5.2
X15.9Y-5.3
X15.9Y-5.4
X15.9Y-5.5
X15.9Y-5.6
X15.9Y-5.7
X15.9Y-6.6
X15.9Y-6.7
X15.9Y-6.8
X15.9Y-6.9
X15.9Y-7.
X15.9Y-7.1
X15.9Y-7.2
X15.9Y-7.3
X15.9Y-7.4
X15.9Y-7.5
X15.9Y-7.6
X15.9Y-7.7
X15.9Y-7.8
X15.9Y-7.9
X15.9Y-8.
X15.9Y-8.1
X15.9Y-8.2
X15.9Y-8.3
X15.9Y-8.4
X15.9Y-8.5
X15.9Y-8.6
X15.9Y-8.7
X15.9Y-8.8
X15.9Y-8.9
X15.9Y-9.
X15.9Y-9.1
X15.9Y-9.2
X15.9Y-9.3
X15.9Y-9.4
X15.9Y-9.5
X15.9Y-9.6
X15.9Y-9.7
X15.9Y-10.6
X15.9Y-10.7
X15.9Y-10.8
X15.9Y-10.9
X15.9Y-11.
X15.9Y-11.1
X15.9Y-11.2
X15.9Y-11.3
X15.9Y-11.4
X15.9Y-11.5
X15.9Y-11.6
X15.9Y-11.7
X15.9Y-11.8
X15.9Y-11.9
X15.9Y-12.
X15.9Y-12.1
X15.9Y-12.2
X15.9Y-12.3
X15.9Y-12.4
X15.9Y-12.5
X15.9Y-12.6
X15.9Y-12.7
X15.9Y-12.8
X15.9Y-12.9
X15.9Y-13.
X15.9Y-13.1
X15.9Y-13.2
X15.9Y-13.3
X15.9Y-13.4
X15.9Y-13.5
X15.9Y-13.6
X15.9Y-13.7
X16.Y-2.6
X16.Y-2.7
X16.Y-2.8
X16.Y-2.9
X16.Y-3.
X16.Y-3.1
X16.Y-3.2
X16.Y-3.3
X16.Y-3.4
X16.Y-3.5
X16.Y-3.6
X16.Y-3.7
X16.Y-3.8
X16.Y-3.9
X16.Y-4.
X16.Y-4.1
X16.Y-4.2
X16.Y-4.3
X16.Y-4.4
X16.Y-4.5
X16.Y-4.6
X16.Y-4.7
X16.Y-4.8
X16.Y-4.9
X16.Y-5.
X16.Y-5.1
X16.Y-5.2
X16.Y-5.3
X16.Y-5.4
X16.Y-5.5
X16.Y-5.6
X16.Y-5.7
X16.Y-6.6
X16.Y-6.7
X16.Y-6.8
X16.Y-6.9
X16.Y-7.
X16.Y-7.1
X16.Y-7.2
X16.Y-7.3
X16.Y-7.4
X16.Y-7.5
X16.Y-7.6
X16.Y-7.7
X16.Y-7.8
X16.Y-7.9
X16.Y-8.
X16.Y-8.1
X16.Y-8.2
X16.Y-8.3
X16.Y-8.4
X16.Y-8.5
X16.Y-8.6
X16.Y-8.7
X16.Y-8.8
X16.Y-8.9
X16.Y-9.
X16.Y-9.1
X16.Y-9.2
X16.Y-9.3
X16.Y-9.4
X16.Y-9.5
X16.Y-9.6
X16.Y-9.7
X16.Y-10.6
X16.Y-10.7
X16.Y-10.8
X16.Y-10.9
X16.Y-11.
X16.Y-11.1
X16.Y-11.2
X16.Y-11.3
X16.Y-11.4
X16.Y-11.5
X16.Y-11.6
X16.Y-11.7
X16.Y-11.8
X16.Y-11.9
X16.Y-12.
X16.Y-12.1
X16.Y-12.2
X16.Y-12.3
X16.Y-12.4
X16.Y-12.5
X16.Y-12.6
X16.Y-12.7
X16.Y-12.8
X16.Y-12.9
X16.Y-13.
X16.Y-13.1
X16.Y-13.2
X16.Y-13.3
X16.Y-13.4
X16.Y-13.5
X16.Y-13.6
X16.Y-13.7
T3
X15.7Y-2.4
X15.7Y-5.9
X15.7Y-6.4
X15.7Y-9.9
X15.7Y-10.4
X15.7Y-13.9
T0
M30
