M48
;DRILL file {KiCad 4.0.7} date Wed Feb 28 11:26:21 2018
;FORMAT={-:-/ absolute / inch / decimal}
FMAT,2
INCH,TZ
T1C0.016
T2C0.039
%
G90
G05
M72
T1
X5.1Y-3.8661
X5.1Y-3.9843
X5.15Y-3.8661
X5.15Y-3.9843
X5.15Y-5.15
X5.25Y-4.35
X5.4Y-2.8
X5.4Y-2.9
X5.4Y-3.
X5.4Y-3.1
X5.4Y-3.2
X5.5Y-2.8
X5.5Y-2.9
X5.5Y-3.
X5.5Y-3.2
X5.564Y-3.252
X5.6Y-2.8
X5.6Y-2.9
X5.6Y-3.
X5.6Y-3.1
X5.6Y-3.2
X5.628Y-5.5
X5.636Y-3.24
X5.675Y-5.5
X5.675Y-5.7
X5.792Y-3.396
X5.8Y-5.85
X5.85Y-3.8661
X5.85Y-3.9843
X5.876Y-3.252
X5.876Y-3.252
X5.9Y-3.9843
X5.9024Y-3.8661
X6.2Y-3.8661
X6.2Y-3.9843
X6.25Y-3.8661
X6.25Y-3.9843
X6.25Y-5.35
X6.35Y-4.35
X6.5Y-2.8
X6.5Y-2.9
X6.5Y-3.
X6.5Y-3.1
X6.5Y-3.2
X6.6Y-2.8
X6.6Y-2.9
X6.6Y-3.
X6.6Y-3.2
X6.664Y-3.252
X6.7Y-2.8
X6.7Y-2.9
X6.7Y-3.
X6.7Y-3.1
X6.7Y-3.2
X6.736Y-3.24
X6.775Y-5.7
X6.8Y-5.3
X6.8Y-5.4
X6.892Y-3.396
X6.9Y-5.85
X6.95Y-3.8661
X6.95Y-3.9843
X6.976Y-3.252
X7.Y-3.8661
X7.Y-3.9843
X7.3Y-3.8661
X7.3Y-3.9843
X7.35Y-3.8661
X7.35Y-3.9843
X7.35Y-5.15
X7.45Y-5.
X7.6Y-2.8
X7.6Y-2.9
X7.6Y-3.
X7.6Y-3.1
X7.6Y-3.2
X7.7Y-2.8
X7.7Y-2.9
X7.7Y-3.
X7.7Y-3.2
X7.75Y-5.1
X7.764Y-3.252
X7.8Y-2.8
X7.8Y-2.9
X7.8Y-3.
X7.8Y-3.1
X7.8Y-3.2
X7.836Y-3.24
X7.875Y-5.7
X7.9Y-5.2
X7.992Y-3.396
X8.Y-5.85
X8.05Y-3.8661
X8.0524Y-3.9843
X8.076Y-3.252
X8.1Y-3.9843
X8.1024Y-3.8661
X8.4Y-3.8661
X8.4Y-3.9843
X8.45Y-3.8661
X8.45Y-3.9843
X8.55Y-4.85
X8.55Y-4.95
X8.7Y-2.8
X8.7Y-2.9
X8.7Y-3.
X8.7Y-3.1
X8.7Y-3.2
X8.8Y-2.8
X8.8Y-2.9
X8.8Y-3.
X8.8Y-3.2
X8.85Y-4.9
X8.864Y-3.252
X8.9Y-2.8
X8.9Y-2.9
X8.9Y-3.
X8.9Y-3.1
X8.9Y-3.2
X8.936Y-3.24
X8.975Y-5.7
X9.Y-5.
X9.092Y-3.396
X9.1Y-5.85
X9.15Y-3.8661
X9.15Y-3.9843
X9.176Y-3.252
X9.2Y-3.9843
X9.2024Y-3.8661
X9.5Y-3.8661
X9.5Y-3.9843
X9.55Y-3.8661
X9.55Y-3.9843
X9.65Y-4.65
X9.65Y-4.75
X9.8Y-2.8
X9.8Y-2.9
X9.8Y-3.
X9.8Y-3.1
X9.8Y-3.2
X9.9Y-2.8
X9.9Y-2.9
X9.9Y-3.
X9.9Y-3.2
X9.95Y-4.7
X9.964Y-3.252
X10.Y-2.8
X10.Y-2.9
X10.Y-3.
X10.Y-3.1
X10.Y-3.2
X10.036Y-3.24
X10.075Y-5.7
X10.1Y-4.8
X10.192Y-3.396
X10.2Y-5.85
X10.25Y-3.8661
X10.25Y-3.9843
X10.276Y-3.252
X10.3Y-3.9843
X10.3024Y-3.8661
X10.6Y-3.8661
X10.6Y-3.9843
X10.65Y-3.8661
X10.65Y-3.9843
X10.75Y-4.45
X10.75Y-4.55
X10.9Y-2.8
X10.9Y-2.9
X10.9Y-3.
X10.9Y-3.1
X10.9Y-3.2
X11.Y-2.8
X11.Y-2.9
X11.Y-3.
X11.Y-3.2
X11.05Y-4.5
X11.064Y-3.252
X11.1Y-2.8
X11.1Y-2.9
X11.1Y-3.
X11.1Y-3.1
X11.1Y-3.2
X11.136Y-3.24
X11.15Y-4.6
X11.175Y-5.7
X11.292Y-3.396
X11.3Y-5.85
X11.35Y-3.8661
X11.35Y-3.9843
X11.376Y-3.252
X11.4Y-3.9843
X11.4024Y-3.8661
X11.7Y-3.8661
X11.7Y-3.9843
X11.75Y-3.8661
X11.75Y-3.9843
X11.75Y-4.25
X11.75Y-4.35
X12.Y-2.8
X12.Y-2.9
X12.Y-3.
X12.Y-3.1
X12.Y-3.2
X12.1Y-2.8
X12.1Y-2.9
X12.1Y-3.
X12.1Y-3.2
X12.15Y-4.3
X12.164Y-3.252
X12.2Y-2.8
X12.2Y-2.9
X12.2Y-3.
X12.2Y-3.1
X12.2Y-3.2
X12.236Y-3.24
X12.25Y-4.4
X12.275Y-5.7
X12.392Y-3.396
X12.4Y-5.85
X12.45Y-3.8661
X12.45Y-3.9843
X12.476Y-3.252
X12.5024Y-3.8661
X12.5024Y-3.9843
X12.8Y-3.8661
X12.8Y-3.9843
X12.8Y-4.2
X12.85Y-3.8661
X12.85Y-3.9843
X12.85Y-4.075
X13.1Y-2.8
X13.1Y-2.9
X13.1Y-3.
X13.1Y-3.1
X13.1Y-3.2
X13.2Y-2.8
X13.2Y-2.9
X13.2Y-3.
X13.2Y-3.2
X13.25Y-4.1
X13.264Y-3.252
X13.3Y-2.8
X13.3Y-2.9
X13.3Y-3.
X13.3Y-3.1
X13.3Y-3.2
X13.336Y-3.24
X13.35Y-4.2
X13.375Y-5.7
X13.492Y-3.396
X13.5Y-5.85
X13.55Y-3.8661
X13.55Y-3.9843
X13.576Y-3.252
X13.6Y-3.8661
X13.6Y-3.9843
X13.775Y-3.95
X13.8Y-3.8
X13.9Y-3.8661
X13.9Y-3.9843
X13.95Y-3.8661
X13.95Y-3.9843
X14.2Y-2.8
X14.2Y-2.9
X14.2Y-3.
X14.2Y-3.1
X14.2Y-3.2
X14.3Y-2.8
X14.3Y-2.8
X14.3Y-2.9
X14.3Y-3.
X14.3Y-3.2
X14.35Y-3.925
X14.364Y-3.252
X14.4Y-2.8
X14.4Y-2.9
X14.4Y-3.
X14.4Y-3.1
X14.4Y-3.2
X14.436Y-3.24
X14.475Y-3.925
X14.475Y-5.7
X14.592Y-3.396
X14.6Y-5.85
X14.65Y-3.8661
X14.65Y-3.9843
X14.676Y-3.252
X14.676Y-3.252
X14.7024Y-3.8661
X14.7024Y-3.9843
T2
X15.7Y-2.7
X15.7Y-2.8
X15.7Y-2.9
X15.7Y-3.
X15.7Y-3.1
X15.7Y-3.2
X15.7Y-3.3
X15.7Y-3.4
X15.7Y-3.5
X15.7Y-3.6
X15.7Y-3.7
X15.7Y-3.8
X15.7Y-3.9
X15.7Y-4.
X15.7Y-4.1
X15.7Y-4.2
X15.7Y-4.3
X15.7Y-4.4
X15.7Y-4.5
X15.7Y-4.6
X15.7Y-4.7
X15.7Y-4.8
X15.7Y-4.9
X15.7Y-5.
X15.7Y-5.1
X15.7Y-5.2
X15.7Y-5.3
X15.7Y-5.4
X15.7Y-5.5
X15.7Y-5.6
X15.7Y-5.7
X15.7Y-5.8
X15.8Y-2.7
X15.8Y-2.8
X15.8Y-2.9
X15.8Y-3.
X15.8Y-3.1
X15.8Y-3.2
X15.8Y-3.3
X15.8Y-3.4
X15.8Y-3.5
X15.8Y-3.6
X15.8Y-3.7
X15.8Y-3.8
X15.8Y-3.9
X15.8Y-4.
X15.8Y-4.1
X15.8Y-4.2
X15.8Y-4.3
X15.8Y-4.4
X15.8Y-4.5
X15.8Y-4.6
X15.8Y-4.7
X15.8Y-4.8
X15.8Y-4.9
X15.8Y-5.
X15.8Y-5.1
X15.8Y-5.2
X15.8Y-5.3
X15.8Y-5.4
X15.8Y-5.5
X15.8Y-5.6
X15.9Y-2.7
X15.9Y-2.8
X15.9Y-2.9
X15.9Y-3.
X15.9Y-3.1
X15.9Y-3.2
X15.9Y-3.3
X15.9Y-3.4
X15.9Y-3.5
X15.9Y-3.6
X15.9Y-3.7
X15.9Y-3.8
X15.9Y-3.9
X15.9Y-4.
X15.9Y-4.1
X15.9Y-4.2
X15.9Y-4.3
X15.9Y-4.4
X15.9Y-4.5
X15.9Y-4.6
X15.9Y-4.7
X15.9Y-4.8
X15.9Y-4.9
X15.9Y-5.
X15.9Y-5.1
X15.9Y-5.2
X15.9Y-5.3
X15.9Y-5.4
X15.9Y-5.5
X15.9Y-5.6
X15.9Y-5.8
T0
M30
