G04 #@! TF.FileFunction,Copper,L2,Inr,Signal*
%FSLAX46Y46*%
G04 Gerber Fmt 4.6, Leading zero omitted, Abs format (unit mm)*
G04 Created by KiCad (PCBNEW 4.0.7) date Mon Feb 19 16:48:59 2018*
%MOMM*%
%LPD*%
G01*
G04 APERTURE LIST*
%ADD10C,0.100000*%
%ADD11C,1.600000*%
%ADD12R,1.600000X1.600000*%
%ADD13C,2.800000*%
%ADD14C,0.600000*%
%ADD15C,0.250000*%
G04 APERTURE END LIST*
D10*
D11*
X401320000Y-66040000D03*
X401320000Y-68580000D03*
D12*
X401320000Y-71120000D03*
D11*
X401320000Y-73660000D03*
X401320000Y-76200000D03*
X401320000Y-78740000D03*
X401320000Y-81280000D03*
X401320000Y-83820000D03*
X401320000Y-86360000D03*
X401320000Y-88900000D03*
X401320000Y-91440000D03*
X401320000Y-93980000D03*
D12*
X401320000Y-96520000D03*
D11*
X401320000Y-99060000D03*
X401320000Y-101600000D03*
X401320000Y-104140000D03*
X401320000Y-106680000D03*
X401320000Y-109220000D03*
X401320000Y-111760000D03*
X401320000Y-114300000D03*
X401320000Y-116840000D03*
X401320000Y-119380000D03*
D12*
X401320000Y-121920000D03*
D11*
X401320000Y-124460000D03*
X401320000Y-127000000D03*
X401320000Y-129540000D03*
X401320000Y-132080000D03*
X401320000Y-134620000D03*
X401320000Y-137160000D03*
X401320000Y-139700000D03*
X401320000Y-142240000D03*
D12*
X401320000Y-144780000D03*
D11*
X403860000Y-66040000D03*
X403860000Y-68580000D03*
D12*
X403860000Y-71120000D03*
D11*
X403860000Y-73660000D03*
X403860000Y-76200000D03*
X403860000Y-78740000D03*
X403860000Y-81280000D03*
X403860000Y-83820000D03*
X403860000Y-86360000D03*
X403860000Y-88900000D03*
X403860000Y-91440000D03*
X403860000Y-93980000D03*
D12*
X403860000Y-96520000D03*
D11*
X403860000Y-99060000D03*
X403860000Y-101600000D03*
X403860000Y-104140000D03*
X403860000Y-106680000D03*
X403860000Y-109220000D03*
X403860000Y-111760000D03*
X403860000Y-114300000D03*
X403860000Y-116840000D03*
X403860000Y-119380000D03*
D12*
X403860000Y-121920000D03*
D11*
X403860000Y-124460000D03*
X403860000Y-127000000D03*
X403860000Y-129540000D03*
X403860000Y-132080000D03*
X403860000Y-134620000D03*
X403860000Y-137160000D03*
X403860000Y-139700000D03*
X403860000Y-142240000D03*
D12*
X403860000Y-144780000D03*
D11*
X406400000Y-66040000D03*
X406400000Y-68580000D03*
D12*
X406400000Y-71120000D03*
D11*
X406400000Y-73660000D03*
X406400000Y-76200000D03*
X406400000Y-78740000D03*
X406400000Y-81280000D03*
X406400000Y-83820000D03*
X406400000Y-86360000D03*
X406400000Y-88900000D03*
X406400000Y-91440000D03*
X406400000Y-93980000D03*
D12*
X406400000Y-96520000D03*
D11*
X406400000Y-99060000D03*
X406400000Y-101600000D03*
X406400000Y-104140000D03*
X406400000Y-106680000D03*
X406400000Y-109220000D03*
X406400000Y-111760000D03*
D12*
X406400000Y-114300000D03*
D11*
X406400000Y-116840000D03*
X406400000Y-119380000D03*
D12*
X406400000Y-121920000D03*
D11*
X406400000Y-124460000D03*
X406400000Y-127000000D03*
X406400000Y-129540000D03*
X406400000Y-132080000D03*
X406400000Y-134620000D03*
X406400000Y-137160000D03*
X406400000Y-139700000D03*
X406400000Y-142240000D03*
D12*
X406400000Y-144780000D03*
D13*
X398780000Y-60960000D03*
X398780000Y-149860000D03*
D11*
X401320000Y-167640000D03*
X401320000Y-170180000D03*
D12*
X401320000Y-172720000D03*
D11*
X401320000Y-175260000D03*
X401320000Y-177800000D03*
X401320000Y-180340000D03*
X401320000Y-182880000D03*
X401320000Y-185420000D03*
X401320000Y-187960000D03*
X401320000Y-190500000D03*
X401320000Y-193040000D03*
X401320000Y-195580000D03*
D12*
X401320000Y-198120000D03*
D11*
X401320000Y-200660000D03*
X401320000Y-203200000D03*
X401320000Y-205740000D03*
X401320000Y-208280000D03*
X401320000Y-210820000D03*
X401320000Y-213360000D03*
X401320000Y-215900000D03*
X401320000Y-218440000D03*
X401320000Y-220980000D03*
D12*
X401320000Y-223520000D03*
D11*
X401320000Y-226060000D03*
X401320000Y-228600000D03*
X401320000Y-231140000D03*
X401320000Y-233680000D03*
X401320000Y-236220000D03*
X401320000Y-238760000D03*
X401320000Y-241300000D03*
X401320000Y-243840000D03*
D12*
X401320000Y-246380000D03*
D11*
X403860000Y-167640000D03*
X403860000Y-170180000D03*
D12*
X403860000Y-172720000D03*
D11*
X403860000Y-175260000D03*
X403860000Y-177800000D03*
X403860000Y-180340000D03*
X403860000Y-182880000D03*
X403860000Y-185420000D03*
X403860000Y-187960000D03*
X403860000Y-190500000D03*
X403860000Y-193040000D03*
X403860000Y-195580000D03*
D12*
X403860000Y-198120000D03*
D11*
X403860000Y-200660000D03*
X403860000Y-203200000D03*
X403860000Y-205740000D03*
X403860000Y-208280000D03*
X403860000Y-210820000D03*
X403860000Y-213360000D03*
X403860000Y-215900000D03*
X403860000Y-218440000D03*
X403860000Y-220980000D03*
D12*
X403860000Y-223520000D03*
D11*
X403860000Y-226060000D03*
X403860000Y-228600000D03*
X403860000Y-231140000D03*
X403860000Y-233680000D03*
X403860000Y-236220000D03*
X403860000Y-238760000D03*
X403860000Y-241300000D03*
X403860000Y-243840000D03*
D12*
X403860000Y-246380000D03*
D11*
X406400000Y-167640000D03*
X406400000Y-170180000D03*
D12*
X406400000Y-172720000D03*
D11*
X406400000Y-175260000D03*
X406400000Y-177800000D03*
X406400000Y-180340000D03*
X406400000Y-182880000D03*
X406400000Y-185420000D03*
X406400000Y-187960000D03*
X406400000Y-190500000D03*
X406400000Y-193040000D03*
X406400000Y-195580000D03*
D12*
X406400000Y-198120000D03*
D11*
X406400000Y-200660000D03*
X406400000Y-203200000D03*
X406400000Y-205740000D03*
X406400000Y-208280000D03*
X406400000Y-210820000D03*
X406400000Y-213360000D03*
D12*
X406400000Y-215900000D03*
D11*
X406400000Y-218440000D03*
X406400000Y-220980000D03*
D12*
X406400000Y-223520000D03*
D11*
X406400000Y-226060000D03*
X406400000Y-228600000D03*
X406400000Y-231140000D03*
X406400000Y-233680000D03*
X406400000Y-236220000D03*
X406400000Y-238760000D03*
X406400000Y-241300000D03*
X406400000Y-243840000D03*
D12*
X406400000Y-246380000D03*
D13*
X398780000Y-162560000D03*
X398780000Y-251460000D03*
D11*
X401320000Y-269240000D03*
X401320000Y-271780000D03*
D12*
X401320000Y-274320000D03*
D11*
X401320000Y-276860000D03*
X401320000Y-279400000D03*
X401320000Y-281940000D03*
X401320000Y-284480000D03*
X401320000Y-287020000D03*
X401320000Y-289560000D03*
X401320000Y-292100000D03*
X401320000Y-294640000D03*
X401320000Y-297180000D03*
D12*
X401320000Y-299720000D03*
D11*
X401320000Y-302260000D03*
X401320000Y-304800000D03*
X401320000Y-307340000D03*
X401320000Y-309880000D03*
X401320000Y-312420000D03*
X401320000Y-314960000D03*
X401320000Y-317500000D03*
X401320000Y-320040000D03*
X401320000Y-322580000D03*
D12*
X401320000Y-325120000D03*
D11*
X401320000Y-327660000D03*
X401320000Y-330200000D03*
X401320000Y-332740000D03*
X401320000Y-335280000D03*
X401320000Y-337820000D03*
X401320000Y-340360000D03*
X401320000Y-342900000D03*
X401320000Y-345440000D03*
D12*
X401320000Y-347980000D03*
D11*
X403860000Y-269240000D03*
X403860000Y-271780000D03*
D12*
X403860000Y-274320000D03*
D11*
X403860000Y-276860000D03*
X403860000Y-279400000D03*
X403860000Y-281940000D03*
X403860000Y-284480000D03*
X403860000Y-287020000D03*
X403860000Y-289560000D03*
X403860000Y-292100000D03*
X403860000Y-294640000D03*
X403860000Y-297180000D03*
D12*
X403860000Y-299720000D03*
D11*
X403860000Y-302260000D03*
X403860000Y-304800000D03*
X403860000Y-307340000D03*
X403860000Y-309880000D03*
X403860000Y-312420000D03*
X403860000Y-314960000D03*
X403860000Y-317500000D03*
X403860000Y-320040000D03*
X403860000Y-322580000D03*
D12*
X403860000Y-325120000D03*
D11*
X403860000Y-327660000D03*
X403860000Y-330200000D03*
X403860000Y-332740000D03*
X403860000Y-335280000D03*
X403860000Y-337820000D03*
X403860000Y-340360000D03*
X403860000Y-342900000D03*
X403860000Y-345440000D03*
D12*
X403860000Y-347980000D03*
D11*
X406400000Y-269240000D03*
X406400000Y-271780000D03*
D12*
X406400000Y-274320000D03*
D11*
X406400000Y-276860000D03*
X406400000Y-279400000D03*
X406400000Y-281940000D03*
X406400000Y-284480000D03*
X406400000Y-287020000D03*
X406400000Y-289560000D03*
X406400000Y-292100000D03*
X406400000Y-294640000D03*
X406400000Y-297180000D03*
D12*
X406400000Y-299720000D03*
D11*
X406400000Y-302260000D03*
X406400000Y-304800000D03*
X406400000Y-307340000D03*
X406400000Y-309880000D03*
X406400000Y-312420000D03*
X406400000Y-314960000D03*
D12*
X406400000Y-317500000D03*
D11*
X406400000Y-320040000D03*
X406400000Y-322580000D03*
D12*
X406400000Y-325120000D03*
D11*
X406400000Y-327660000D03*
X406400000Y-330200000D03*
X406400000Y-332740000D03*
X406400000Y-335280000D03*
X406400000Y-337820000D03*
X406400000Y-340360000D03*
X406400000Y-342900000D03*
X406400000Y-345440000D03*
D12*
X406400000Y-347980000D03*
D13*
X398780000Y-264160000D03*
X398780000Y-353060000D03*
D14*
X133350000Y-133985000D03*
X132080000Y-106680000D03*
X142875000Y-144145000D03*
X144145000Y-144145000D03*
X148590000Y-101200000D03*
X129540000Y-101200000D03*
X130810000Y-101200000D03*
X149860000Y-101200000D03*
X142240000Y-81280000D03*
X139700000Y-81280000D03*
X137160000Y-81280000D03*
X137160000Y-78740000D03*
X142240000Y-78740000D03*
X142240000Y-76200000D03*
X139700000Y-76200000D03*
X137160000Y-76200000D03*
X137160000Y-73660000D03*
X139700000Y-73660000D03*
X142240000Y-73660000D03*
X142240000Y-71120000D03*
X139700000Y-71120000D03*
X137160000Y-71120000D03*
X130810000Y-98200000D03*
X148590000Y-98200000D03*
X149919759Y-98200000D03*
X129540000Y-98200000D03*
X170815000Y-144145000D03*
X172085000Y-144145000D03*
X198755000Y-144145000D03*
X200025000Y-144145000D03*
X142875000Y-245745000D03*
X144145000Y-245745000D03*
X170815000Y-245745000D03*
X172085000Y-245745000D03*
X198755000Y-245745000D03*
X200025000Y-245745000D03*
X142875000Y-347345000D03*
X144145000Y-347345000D03*
X170815000Y-347345000D03*
X172085000Y-347345000D03*
X198755000Y-347345000D03*
X200025000Y-347345000D03*
X158750000Y-98200000D03*
X176530000Y-98200000D03*
X157480000Y-98200000D03*
X177800000Y-98200000D03*
X176530000Y-101200000D03*
X177800000Y-101200000D03*
X158750000Y-101200000D03*
X157480000Y-101200000D03*
X170180000Y-81280000D03*
X167640000Y-81280000D03*
X165100000Y-81280000D03*
X165100000Y-78740000D03*
X170180000Y-78740000D03*
X170180000Y-76200000D03*
X167640000Y-76200000D03*
X165100000Y-76200000D03*
X165100000Y-73660000D03*
X167640000Y-73660000D03*
X170180000Y-73660000D03*
X170180000Y-71120000D03*
X167640000Y-71120000D03*
X165100000Y-71120000D03*
X161290000Y-133985000D03*
X160020000Y-106680000D03*
X204470000Y-98200000D03*
X186690000Y-98200000D03*
X185420000Y-98200000D03*
X205799759Y-98200000D03*
X205740000Y-101200000D03*
X204529759Y-101200000D03*
X186690000Y-101200000D03*
X185420000Y-101200000D03*
X198120000Y-81280000D03*
X195580000Y-81280000D03*
X193040000Y-81280000D03*
X193040000Y-78740000D03*
X198120000Y-78740000D03*
X198120000Y-76200000D03*
X195580000Y-76200000D03*
X193040000Y-76200000D03*
X193040000Y-73660000D03*
X195580000Y-73660000D03*
X198120000Y-73660000D03*
X198120000Y-71120000D03*
X195580000Y-71120000D03*
X193040000Y-71120000D03*
X189230000Y-133985000D03*
X189230000Y-105410000D03*
X129540000Y-199800000D03*
X149919759Y-199800000D03*
X148590000Y-199800000D03*
X130810000Y-199800000D03*
X137160000Y-172720000D03*
X139700000Y-172720000D03*
X142240000Y-172720000D03*
X142240000Y-175260000D03*
X139700000Y-175260000D03*
X137160000Y-175260000D03*
X137160000Y-177800000D03*
X139700000Y-177800000D03*
X142240000Y-177800000D03*
X142240000Y-180340000D03*
X137160000Y-180340000D03*
X137160000Y-182880000D03*
X139700000Y-182880000D03*
X142240000Y-182880000D03*
X149860000Y-202800000D03*
X130810000Y-202800000D03*
X129540000Y-202800000D03*
X148590000Y-202800000D03*
X133350000Y-235585000D03*
X132080000Y-208280000D03*
X177800000Y-199800000D03*
X157480000Y-199800000D03*
X176530000Y-199800000D03*
X158750000Y-199800000D03*
X165100000Y-172720000D03*
X167640000Y-172720000D03*
X170180000Y-172720000D03*
X170180000Y-175260000D03*
X167640000Y-175260000D03*
X165100000Y-175260000D03*
X165100000Y-177800000D03*
X167640000Y-177800000D03*
X170180000Y-177800000D03*
X170180000Y-180340000D03*
X165100000Y-180340000D03*
X165100000Y-182880000D03*
X167640000Y-182880000D03*
X170180000Y-182880000D03*
X157480000Y-202800000D03*
X158750000Y-202800000D03*
X177800000Y-202800000D03*
X176530000Y-202800000D03*
X161290000Y-235585000D03*
X160020000Y-208280000D03*
X205799759Y-199800000D03*
X185420000Y-199800000D03*
X186690000Y-199800000D03*
X204470000Y-199800000D03*
X193040000Y-172720000D03*
X195580000Y-172720000D03*
X198120000Y-172720000D03*
X198120000Y-175260000D03*
X195580000Y-175260000D03*
X193040000Y-175260000D03*
X193040000Y-177800000D03*
X195580000Y-177800000D03*
X198120000Y-177800000D03*
X198120000Y-180340000D03*
X193040000Y-180340000D03*
X193040000Y-182880000D03*
X195580000Y-182880000D03*
X198120000Y-182880000D03*
X185420000Y-202800000D03*
X186690000Y-202800000D03*
X204529759Y-202800000D03*
X205740000Y-202800000D03*
X189230000Y-235585000D03*
X189230000Y-207010000D03*
X129540000Y-301400000D03*
X149919759Y-301400000D03*
X148590000Y-301400000D03*
X130810000Y-301400000D03*
X137160000Y-274320000D03*
X139700000Y-274320000D03*
X142240000Y-274320000D03*
X142240000Y-276860000D03*
X139700000Y-276860000D03*
X137160000Y-276860000D03*
X137160000Y-279400000D03*
X139700000Y-279400000D03*
X142240000Y-279400000D03*
X142240000Y-281940000D03*
X137160000Y-281940000D03*
X137160000Y-284480000D03*
X139700000Y-284480000D03*
X142240000Y-284480000D03*
X149860000Y-304400000D03*
X130810000Y-304400000D03*
X129540000Y-304400000D03*
X148590000Y-304400000D03*
X133350000Y-337185000D03*
X132080000Y-309880000D03*
X177800000Y-301400000D03*
X157480000Y-301400000D03*
X176530000Y-301400000D03*
X158750000Y-301400000D03*
X165100000Y-274320000D03*
X167640000Y-274320000D03*
X170180000Y-274320000D03*
X170180000Y-276860000D03*
X167640000Y-276860000D03*
X165100000Y-276860000D03*
X165100000Y-279400000D03*
X167640000Y-279400000D03*
X170180000Y-279400000D03*
X170180000Y-281940000D03*
X165100000Y-281940000D03*
X165100000Y-284480000D03*
X167640000Y-284480000D03*
X170180000Y-284480000D03*
X157480000Y-304400000D03*
X158750000Y-304400000D03*
X177800000Y-304400000D03*
X176530000Y-304400000D03*
X161290000Y-337185000D03*
X160020000Y-309880000D03*
X205799759Y-301400000D03*
X185420000Y-301400000D03*
X186690000Y-301400000D03*
X204470000Y-301400000D03*
X193040000Y-274320000D03*
X195580000Y-274320000D03*
X198120000Y-274320000D03*
X198120000Y-276860000D03*
X195580000Y-276860000D03*
X193040000Y-276860000D03*
X193040000Y-279400000D03*
X195580000Y-279400000D03*
X198120000Y-279400000D03*
X198120000Y-281940000D03*
X193040000Y-281940000D03*
X193040000Y-284480000D03*
X195580000Y-284480000D03*
X198120000Y-284480000D03*
X185420000Y-304400000D03*
X186690000Y-304400000D03*
X204529759Y-304400000D03*
X205740000Y-304400000D03*
X189230000Y-337185000D03*
X189230000Y-308610000D03*
X214630000Y-98200000D03*
X232410000Y-98200000D03*
X213360000Y-98200000D03*
X233739759Y-98200000D03*
X232410000Y-101200000D03*
X214630000Y-101200000D03*
X233680000Y-101200000D03*
X213360000Y-101200000D03*
X226060000Y-81280000D03*
X223520000Y-81280000D03*
X220980000Y-81280000D03*
X220980000Y-78740000D03*
X226060000Y-78740000D03*
X226060000Y-76200000D03*
X223520000Y-76200000D03*
X220980000Y-76200000D03*
X220980000Y-73660000D03*
X223520000Y-73660000D03*
X226060000Y-73660000D03*
X226060000Y-71120000D03*
X223520000Y-71120000D03*
X220980000Y-71120000D03*
X242570000Y-98200000D03*
X260350000Y-98200000D03*
X241300000Y-98200000D03*
X261679759Y-98200000D03*
X242570000Y-101200000D03*
X260350000Y-101200000D03*
X261620000Y-101200000D03*
X241300000Y-101200000D03*
X254000000Y-81280000D03*
X251460000Y-81280000D03*
X248920000Y-81280000D03*
X248920000Y-78740000D03*
X254000000Y-78740000D03*
X254000000Y-76200000D03*
X251460000Y-76200000D03*
X248920000Y-76200000D03*
X248920000Y-73660000D03*
X251460000Y-73660000D03*
X254000000Y-73660000D03*
X254000000Y-71120000D03*
X251460000Y-71120000D03*
X248920000Y-71120000D03*
X270510000Y-98200000D03*
X288290000Y-98200000D03*
X269240000Y-98200000D03*
X289619759Y-98200000D03*
X289560000Y-101200000D03*
X288290000Y-101200000D03*
X270510000Y-101200000D03*
X269240000Y-101200000D03*
X281940000Y-81280000D03*
X279400000Y-81280000D03*
X276860000Y-81280000D03*
X276860000Y-78740000D03*
X281940000Y-78740000D03*
X281940000Y-76200000D03*
X279400000Y-76200000D03*
X276860000Y-76200000D03*
X276860000Y-73660000D03*
X279400000Y-73660000D03*
X281940000Y-73660000D03*
X281940000Y-71120000D03*
X279400000Y-71120000D03*
X276860000Y-71120000D03*
X298450000Y-98200000D03*
X316230000Y-98200000D03*
X297180000Y-98200000D03*
X317559759Y-98200000D03*
X316230000Y-101200000D03*
X298450000Y-101200000D03*
X317559759Y-101200000D03*
X297180000Y-101200000D03*
X309880000Y-81280000D03*
X307340000Y-81280000D03*
X304800000Y-81280000D03*
X304800000Y-78740000D03*
X309880000Y-78740000D03*
X309880000Y-76200000D03*
X307340000Y-76200000D03*
X304800000Y-76200000D03*
X304800000Y-73660000D03*
X307340000Y-73660000D03*
X309880000Y-73660000D03*
X309880000Y-71120000D03*
X307340000Y-71120000D03*
X304800000Y-71120000D03*
X344170000Y-98200000D03*
X326390000Y-98200000D03*
X325120000Y-98200000D03*
X345440000Y-98200000D03*
X325120000Y-101200000D03*
X344170000Y-101200000D03*
X345440000Y-101200000D03*
X326390000Y-101200000D03*
X337820000Y-81280000D03*
X335280000Y-81280000D03*
X332740000Y-81280000D03*
X332740000Y-78740000D03*
X337820000Y-78740000D03*
X337820000Y-76200000D03*
X335280000Y-76200000D03*
X332740000Y-76200000D03*
X332740000Y-73660000D03*
X335280000Y-73660000D03*
X337820000Y-73660000D03*
X337820000Y-71120000D03*
X335280000Y-71120000D03*
X332740000Y-71120000D03*
X354330000Y-98200000D03*
X372110000Y-98200000D03*
X353060000Y-98200000D03*
X373439759Y-98200000D03*
X365760000Y-71120000D03*
X363220000Y-71120000D03*
X360680000Y-71120000D03*
X360680000Y-73660000D03*
X363220000Y-73660000D03*
X365760000Y-73660000D03*
X365760000Y-76200000D03*
X363220000Y-76200000D03*
X360680000Y-76200000D03*
X360680000Y-78740000D03*
X365760000Y-78740000D03*
X365760000Y-81280000D03*
X363220000Y-81280000D03*
X360680000Y-81280000D03*
X372110000Y-101200000D03*
X354330000Y-101200000D03*
X373439759Y-101200000D03*
X353060000Y-101200000D03*
X232410000Y-146050000D03*
X204470000Y-146050000D03*
X176530000Y-146050000D03*
X372110000Y-146050000D03*
X344170000Y-146050000D03*
X316230000Y-146050000D03*
X288290000Y-146050000D03*
X148590000Y-146050000D03*
X260350000Y-146050000D03*
X368300000Y-144780000D03*
X340360000Y-144780000D03*
X312420000Y-144780000D03*
X284480000Y-144780000D03*
X256540000Y-144780000D03*
X228600000Y-144780000D03*
X200660000Y-144780000D03*
X172720000Y-144780000D03*
X144780000Y-144780000D03*
X217170000Y-133985000D03*
X245110000Y-133985000D03*
X273050000Y-133985000D03*
X300990000Y-133985000D03*
X328930000Y-130810000D03*
X356870000Y-133350000D03*
X217170000Y-110490000D03*
X273050000Y-120650000D03*
X245110000Y-115570000D03*
X328930000Y-129540000D03*
X300990000Y-125730000D03*
X356870000Y-132080000D03*
X226695000Y-144145000D03*
X227965000Y-144145000D03*
X254635000Y-144145000D03*
X255905000Y-144145000D03*
X282575000Y-144145000D03*
X283845000Y-144145000D03*
X310515000Y-144145000D03*
X311785000Y-144145000D03*
X338455000Y-144145000D03*
X339725000Y-144145000D03*
X366395000Y-144145000D03*
X367665000Y-144145000D03*
X233739759Y-199800000D03*
X213360000Y-199800000D03*
X232410000Y-199800000D03*
X214630000Y-199800000D03*
X220980000Y-172720000D03*
X223520000Y-172720000D03*
X226060000Y-172720000D03*
X226060000Y-175260000D03*
X223520000Y-175260000D03*
X220980000Y-175260000D03*
X220980000Y-177800000D03*
X223520000Y-177800000D03*
X226060000Y-177800000D03*
X226060000Y-180340000D03*
X220980000Y-180340000D03*
X220980000Y-182880000D03*
X223520000Y-182880000D03*
X226060000Y-182880000D03*
X213360000Y-202800000D03*
X233680000Y-202800000D03*
X214630000Y-202800000D03*
X232410000Y-202800000D03*
X261679759Y-199800000D03*
X241300000Y-199800000D03*
X260350000Y-199800000D03*
X242570000Y-199800000D03*
X248920000Y-172720000D03*
X251460000Y-172720000D03*
X254000000Y-172720000D03*
X254000000Y-175260000D03*
X251460000Y-175260000D03*
X248920000Y-175260000D03*
X248920000Y-177800000D03*
X251460000Y-177800000D03*
X254000000Y-177800000D03*
X254000000Y-180340000D03*
X248920000Y-180340000D03*
X248920000Y-182880000D03*
X251460000Y-182880000D03*
X254000000Y-182880000D03*
X241300000Y-202800000D03*
X261620000Y-202800000D03*
X260350000Y-202800000D03*
X242570000Y-202800000D03*
X289619759Y-199800000D03*
X269240000Y-199800000D03*
X288290000Y-199800000D03*
X270510000Y-199800000D03*
X276860000Y-172720000D03*
X279400000Y-172720000D03*
X281940000Y-172720000D03*
X281940000Y-175260000D03*
X279400000Y-175260000D03*
X276860000Y-175260000D03*
X276860000Y-177800000D03*
X279400000Y-177800000D03*
X281940000Y-177800000D03*
X281940000Y-180340000D03*
X276860000Y-180340000D03*
X276860000Y-182880000D03*
X279400000Y-182880000D03*
X281940000Y-182880000D03*
X269240000Y-202800000D03*
X270510000Y-202800000D03*
X288290000Y-202800000D03*
X289560000Y-202800000D03*
X317559759Y-199800000D03*
X297180000Y-199800000D03*
X316230000Y-199800000D03*
X298450000Y-199800000D03*
X304800000Y-172720000D03*
X307340000Y-172720000D03*
X309880000Y-172720000D03*
X309880000Y-175260000D03*
X307340000Y-175260000D03*
X304800000Y-175260000D03*
X304800000Y-177800000D03*
X307340000Y-177800000D03*
X309880000Y-177800000D03*
X309880000Y-180340000D03*
X304800000Y-180340000D03*
X304800000Y-182880000D03*
X307340000Y-182880000D03*
X309880000Y-182880000D03*
X297180000Y-202800000D03*
X317559759Y-202800000D03*
X298450000Y-202800000D03*
X316230000Y-202800000D03*
X345440000Y-199800000D03*
X325120000Y-199800000D03*
X326390000Y-199800000D03*
X344170000Y-199800000D03*
X332740000Y-172720000D03*
X335280000Y-172720000D03*
X337820000Y-172720000D03*
X337820000Y-175260000D03*
X335280000Y-175260000D03*
X332740000Y-175260000D03*
X332740000Y-177800000D03*
X335280000Y-177800000D03*
X337820000Y-177800000D03*
X337820000Y-180340000D03*
X332740000Y-180340000D03*
X332740000Y-182880000D03*
X335280000Y-182880000D03*
X337820000Y-182880000D03*
X326390000Y-202800000D03*
X345440000Y-202800000D03*
X344170000Y-202800000D03*
X325120000Y-202800000D03*
X373439759Y-199800000D03*
X353060000Y-199800000D03*
X372110000Y-199800000D03*
X354330000Y-199800000D03*
X353060000Y-202800000D03*
X373439759Y-202800000D03*
X354330000Y-202800000D03*
X372110000Y-202800000D03*
X360680000Y-182880000D03*
X363220000Y-182880000D03*
X365760000Y-182880000D03*
X365760000Y-180340000D03*
X360680000Y-180340000D03*
X360680000Y-177800000D03*
X363220000Y-177800000D03*
X365760000Y-177800000D03*
X365760000Y-175260000D03*
X363220000Y-175260000D03*
X360680000Y-175260000D03*
X360680000Y-172720000D03*
X363220000Y-172720000D03*
X365760000Y-172720000D03*
X260350000Y-247650000D03*
X148590000Y-247650000D03*
X288290000Y-247650000D03*
X316230000Y-247650000D03*
X344170000Y-247650000D03*
X372110000Y-247650000D03*
X176530000Y-247650000D03*
X204470000Y-247650000D03*
X232410000Y-247650000D03*
X144780000Y-246380000D03*
X172720000Y-246380000D03*
X200660000Y-246380000D03*
X228600000Y-246380000D03*
X256540000Y-246380000D03*
X284480000Y-246380000D03*
X312420000Y-246380000D03*
X340360000Y-246380000D03*
X368300000Y-246380000D03*
X217170000Y-235585000D03*
X245110000Y-235585000D03*
X273050000Y-235585000D03*
X300990000Y-235585000D03*
X328930000Y-232410000D03*
X356870000Y-234950000D03*
X217170000Y-212090000D03*
X273050000Y-222250000D03*
X245110000Y-217170000D03*
X328930000Y-231140000D03*
X300990000Y-227330000D03*
X356870000Y-233680000D03*
X226695000Y-245745000D03*
X227965000Y-245745000D03*
X254635000Y-245745000D03*
X255905000Y-245745000D03*
X282575000Y-245745000D03*
X283845000Y-245745000D03*
X310515000Y-245745000D03*
X311785000Y-245745000D03*
X338455000Y-245745000D03*
X339725000Y-245745000D03*
X366395000Y-245745000D03*
X367665000Y-245745000D03*
X233739759Y-301400000D03*
X213360000Y-301400000D03*
X232410000Y-301400000D03*
X214630000Y-301400000D03*
X220980000Y-274320000D03*
X223520000Y-274320000D03*
X226060000Y-274320000D03*
X226060000Y-276860000D03*
X223520000Y-276860000D03*
X220980000Y-276860000D03*
X220980000Y-279400000D03*
X223520000Y-279400000D03*
X226060000Y-279400000D03*
X226060000Y-281940000D03*
X220980000Y-281940000D03*
X220980000Y-284480000D03*
X223520000Y-284480000D03*
X226060000Y-284480000D03*
X213360000Y-304400000D03*
X233680000Y-304400000D03*
X214630000Y-304400000D03*
X232410000Y-304400000D03*
X261679759Y-301400000D03*
X241300000Y-301400000D03*
X260350000Y-301400000D03*
X242570000Y-301400000D03*
X248920000Y-274320000D03*
X251460000Y-274320000D03*
X254000000Y-274320000D03*
X254000000Y-276860000D03*
X251460000Y-276860000D03*
X248920000Y-276860000D03*
X248920000Y-279400000D03*
X251460000Y-279400000D03*
X254000000Y-279400000D03*
X254000000Y-281940000D03*
X248920000Y-281940000D03*
X248920000Y-284480000D03*
X251460000Y-284480000D03*
X254000000Y-284480000D03*
X241300000Y-304400000D03*
X261620000Y-304400000D03*
X260350000Y-304400000D03*
X242570000Y-304400000D03*
X289619759Y-301400000D03*
X269240000Y-301400000D03*
X288290000Y-301400000D03*
X270510000Y-301400000D03*
X276860000Y-274320000D03*
X279400000Y-274320000D03*
X281940000Y-274320000D03*
X281940000Y-276860000D03*
X279400000Y-276860000D03*
X276860000Y-276860000D03*
X276860000Y-279400000D03*
X279400000Y-279400000D03*
X281940000Y-279400000D03*
X281940000Y-281940000D03*
X276860000Y-281940000D03*
X276860000Y-284480000D03*
X279400000Y-284480000D03*
X281940000Y-284480000D03*
X269240000Y-304400000D03*
X270510000Y-304400000D03*
X288290000Y-304400000D03*
X289560000Y-304400000D03*
X317559759Y-301400000D03*
X297180000Y-301400000D03*
X316230000Y-301400000D03*
X298450000Y-301400000D03*
X304800000Y-274320000D03*
X307340000Y-274320000D03*
X309880000Y-274320000D03*
X309880000Y-276860000D03*
X307340000Y-276860000D03*
X304800000Y-276860000D03*
X304800000Y-279400000D03*
X307340000Y-279400000D03*
X309880000Y-279400000D03*
X309880000Y-281940000D03*
X304800000Y-281940000D03*
X304800000Y-284480000D03*
X307340000Y-284480000D03*
X309880000Y-284480000D03*
X297180000Y-304400000D03*
X317559759Y-304400000D03*
X298450000Y-304400000D03*
X316230000Y-304400000D03*
X345440000Y-301400000D03*
X325120000Y-301400000D03*
X326390000Y-301400000D03*
X344170000Y-301400000D03*
X332740000Y-274320000D03*
X335280000Y-274320000D03*
X337820000Y-274320000D03*
X337820000Y-276860000D03*
X335280000Y-276860000D03*
X332740000Y-276860000D03*
X332740000Y-279400000D03*
X335280000Y-279400000D03*
X337820000Y-279400000D03*
X337820000Y-281940000D03*
X332740000Y-281940000D03*
X332740000Y-284480000D03*
X335280000Y-284480000D03*
X337820000Y-284480000D03*
X326390000Y-304400000D03*
X345440000Y-304400000D03*
X344170000Y-304400000D03*
X325120000Y-304400000D03*
X373439759Y-301400000D03*
X353060000Y-301400000D03*
X372110000Y-301400000D03*
X354330000Y-301400000D03*
X353060000Y-304400000D03*
X373439759Y-304400000D03*
X354330000Y-304400000D03*
X372110000Y-304400000D03*
X360680000Y-284480000D03*
X363220000Y-284480000D03*
X365760000Y-284480000D03*
X365760000Y-281940000D03*
X360680000Y-281940000D03*
X360680000Y-279400000D03*
X363220000Y-279400000D03*
X365760000Y-279400000D03*
X365760000Y-276860000D03*
X363220000Y-276860000D03*
X360680000Y-276860000D03*
X360680000Y-274320000D03*
X363220000Y-274320000D03*
X365760000Y-274320000D03*
X260350000Y-349250000D03*
X148590000Y-349250000D03*
X288290000Y-349250000D03*
X316230000Y-349250000D03*
X344170000Y-349250000D03*
X372110000Y-349250000D03*
X176530000Y-349250000D03*
X204470000Y-349250000D03*
X232410000Y-349250000D03*
X144780000Y-347980000D03*
X172720000Y-347980000D03*
X200660000Y-347980000D03*
X228600000Y-347980000D03*
X256540000Y-347980000D03*
X284480000Y-347980000D03*
X312420000Y-347980000D03*
X340360000Y-347980000D03*
X368300000Y-347980000D03*
X217170000Y-337185000D03*
X245110000Y-337185000D03*
X273050000Y-337185000D03*
X300990000Y-337185000D03*
X328930000Y-334010000D03*
X356870000Y-336550000D03*
X217170000Y-313690000D03*
X273050000Y-323850000D03*
X245110000Y-318770000D03*
X328930000Y-332740000D03*
X300990000Y-328930000D03*
X356870000Y-335280000D03*
X226695000Y-347345000D03*
X227965000Y-347345000D03*
X254635000Y-347345000D03*
X255905000Y-347345000D03*
X282575000Y-347345000D03*
X283845000Y-347345000D03*
X310515000Y-347345000D03*
X311785000Y-347345000D03*
X338455000Y-347345000D03*
X339725000Y-347345000D03*
X366395000Y-347345000D03*
X367665000Y-347345000D03*
X139065000Y-83185000D03*
X167005000Y-83185000D03*
X194945000Y-83185000D03*
X222885000Y-83185000D03*
X250825000Y-83185000D03*
X278765000Y-83185000D03*
X306705000Y-83185000D03*
X334645000Y-83185000D03*
X362585000Y-83185000D03*
X148590000Y-83185000D03*
X176530000Y-83185000D03*
X204470000Y-83185000D03*
X232410000Y-83185000D03*
X260350000Y-83185000D03*
X288290000Y-83185000D03*
X316230000Y-83185000D03*
X344170000Y-83185000D03*
X372110000Y-83185000D03*
X372110000Y-184785000D03*
X344170000Y-184785000D03*
X316230000Y-184785000D03*
X288290000Y-184785000D03*
X260350000Y-184785000D03*
X232410000Y-184785000D03*
X204470000Y-184785000D03*
X176530000Y-184785000D03*
X148590000Y-184785000D03*
X362585000Y-184785000D03*
X334645000Y-184785000D03*
X306705000Y-184785000D03*
X278765000Y-184785000D03*
X250825000Y-184785000D03*
X222885000Y-184785000D03*
X194945000Y-184785000D03*
X167005000Y-184785000D03*
X139065000Y-184785000D03*
X372110000Y-286385000D03*
X344170000Y-286385000D03*
X316230000Y-286385000D03*
X288290000Y-286385000D03*
X260350000Y-286385000D03*
X232410000Y-286385000D03*
X204470000Y-286385000D03*
X176530000Y-286385000D03*
X148590000Y-286385000D03*
X362585000Y-286385000D03*
X334645000Y-286385000D03*
X306705000Y-286385000D03*
X278765000Y-286385000D03*
X250825000Y-286385000D03*
X222885000Y-286385000D03*
X194945000Y-286385000D03*
X167005000Y-286385000D03*
X139065000Y-286385000D03*
D15*
X142240000Y-64770000D02*
X405130000Y-64770000D01*
X141605000Y-142875000D02*
X141605000Y-65405000D01*
X141605000Y-65405000D02*
X142240000Y-64770000D01*
X405130000Y-64770000D02*
X406400000Y-66040000D01*
X142875000Y-144145000D02*
X141605000Y-142875000D01*
X401320000Y-66040000D02*
X144780000Y-66040000D01*
X144145000Y-66675000D02*
X144145000Y-144145000D01*
X144780000Y-66040000D02*
X144145000Y-66675000D01*
X170180000Y-67310000D02*
X405130000Y-67310000D01*
X170815000Y-144145000D02*
X169545000Y-142875000D01*
X169545000Y-142875000D02*
X169545000Y-67945000D01*
X169545000Y-67945000D02*
X170180000Y-67310000D01*
X405130000Y-67310000D02*
X406400000Y-68580000D01*
X172085000Y-69215000D02*
X172085000Y-144145000D01*
X401320000Y-68580000D02*
X368300000Y-68580000D01*
X200660000Y-68580000D02*
X199932999Y-67852999D01*
X228600000Y-68580000D02*
X227872999Y-67852999D01*
X256540000Y-68580000D02*
X255812999Y-67852999D01*
X284480000Y-68580000D02*
X283752999Y-67852999D01*
X312420000Y-68580000D02*
X311692999Y-67852999D01*
X199932999Y-67852999D02*
X198212001Y-67852999D01*
X227872999Y-67852999D02*
X226152001Y-67852999D01*
X255812999Y-67852999D02*
X254092001Y-67852999D01*
X283752999Y-67852999D02*
X282032001Y-67852999D01*
X311692999Y-67852999D02*
X309972001Y-67852999D01*
X198212001Y-67852999D02*
X197485000Y-68580000D01*
X226152001Y-67852999D02*
X225425000Y-68580000D01*
X254092001Y-67852999D02*
X253365000Y-68580000D01*
X282032001Y-67852999D02*
X281305000Y-68580000D01*
X309972001Y-67852999D02*
X309245000Y-68580000D01*
X197485000Y-68580000D02*
X172720000Y-68580000D01*
X225425000Y-68580000D02*
X200660000Y-68580000D01*
X253365000Y-68580000D02*
X228600000Y-68580000D01*
X281305000Y-68580000D02*
X256540000Y-68580000D01*
X309245000Y-68580000D02*
X284480000Y-68580000D01*
X337185000Y-68580000D02*
X312420000Y-68580000D01*
X365125000Y-68580000D02*
X340360000Y-68580000D01*
X340360000Y-68580000D02*
X339632999Y-67852999D01*
X339632999Y-67852999D02*
X337912001Y-67852999D01*
X337912001Y-67852999D02*
X337185000Y-68580000D01*
X365852001Y-67852999D02*
X365125000Y-68580000D01*
X368300000Y-68580000D02*
X367572999Y-67852999D01*
X367572999Y-67852999D02*
X365852001Y-67852999D01*
X172085000Y-69215000D02*
X172720000Y-68580000D01*
X198755000Y-144145000D02*
X197485000Y-142875000D01*
X197485000Y-142875000D02*
X197485000Y-85725000D01*
X197485000Y-85725000D02*
X198120000Y-85090000D01*
X198120000Y-85090000D02*
X374650000Y-85090000D01*
X374650000Y-85090000D02*
X375920000Y-83820000D01*
X375920000Y-83820000D02*
X375920000Y-71120000D01*
X405130000Y-69850000D02*
X406400000Y-71120000D01*
X375920000Y-71120000D02*
X377190000Y-69850000D01*
X377190000Y-69850000D02*
X405130000Y-69850000D01*
X373380000Y-86360000D02*
X375920000Y-86360000D01*
X401320000Y-71120000D02*
X378460000Y-71120000D01*
X342900000Y-86360000D02*
X200660000Y-86360000D01*
X200025000Y-144145000D02*
X200025000Y-86995000D01*
X200025000Y-86995000D02*
X200660000Y-86360000D01*
X373380000Y-86360000D02*
X342900000Y-86360000D01*
X377190000Y-85090000D02*
X375920000Y-86360000D01*
X377190000Y-72390000D02*
X377190000Y-85090000D01*
X378460000Y-71120000D02*
X377190000Y-72390000D01*
X142875000Y-245745000D02*
X141605000Y-244475000D01*
X405130000Y-166370000D02*
X406400000Y-167640000D01*
X141605000Y-167005000D02*
X142240000Y-166370000D01*
X141605000Y-244475000D02*
X141605000Y-167005000D01*
X142240000Y-166370000D02*
X405130000Y-166370000D01*
X144780000Y-167640000D02*
X144145000Y-168275000D01*
X144145000Y-168275000D02*
X144145000Y-245745000D01*
X401320000Y-167640000D02*
X144780000Y-167640000D01*
X405130000Y-168910000D02*
X406400000Y-170180000D01*
X169545000Y-169545000D02*
X170180000Y-168910000D01*
X169545000Y-244475000D02*
X169545000Y-169545000D01*
X170815000Y-245745000D02*
X169545000Y-244475000D01*
X170180000Y-168910000D02*
X405130000Y-168910000D01*
X172085000Y-170815000D02*
X172720000Y-170180000D01*
X367572999Y-169452999D02*
X365852001Y-169452999D01*
X368300000Y-170180000D02*
X367572999Y-169452999D01*
X365852001Y-169452999D02*
X365125000Y-170180000D01*
X337912001Y-169452999D02*
X337185000Y-170180000D01*
X339632999Y-169452999D02*
X337912001Y-169452999D01*
X340360000Y-170180000D02*
X339632999Y-169452999D01*
X365125000Y-170180000D02*
X340360000Y-170180000D01*
X337185000Y-170180000D02*
X312420000Y-170180000D01*
X309245000Y-170180000D02*
X284480000Y-170180000D01*
X281305000Y-170180000D02*
X256540000Y-170180000D01*
X253365000Y-170180000D02*
X228600000Y-170180000D01*
X225425000Y-170180000D02*
X200660000Y-170180000D01*
X197485000Y-170180000D02*
X172720000Y-170180000D01*
X309972001Y-169452999D02*
X309245000Y-170180000D01*
X282032001Y-169452999D02*
X281305000Y-170180000D01*
X254092001Y-169452999D02*
X253365000Y-170180000D01*
X226152001Y-169452999D02*
X225425000Y-170180000D01*
X198212001Y-169452999D02*
X197485000Y-170180000D01*
X311692999Y-169452999D02*
X309972001Y-169452999D01*
X283752999Y-169452999D02*
X282032001Y-169452999D01*
X255812999Y-169452999D02*
X254092001Y-169452999D01*
X227872999Y-169452999D02*
X226152001Y-169452999D01*
X199932999Y-169452999D02*
X198212001Y-169452999D01*
X312420000Y-170180000D02*
X311692999Y-169452999D01*
X284480000Y-170180000D02*
X283752999Y-169452999D01*
X256540000Y-170180000D02*
X255812999Y-169452999D01*
X228600000Y-170180000D02*
X227872999Y-169452999D01*
X200660000Y-170180000D02*
X199932999Y-169452999D01*
X401320000Y-170180000D02*
X368300000Y-170180000D01*
X172085000Y-170815000D02*
X172085000Y-245745000D01*
X377190000Y-171450000D02*
X405130000Y-171450000D01*
X375920000Y-172720000D02*
X377190000Y-171450000D01*
X405130000Y-171450000D02*
X406400000Y-172720000D01*
X375920000Y-185420000D02*
X375920000Y-172720000D01*
X374650000Y-186690000D02*
X375920000Y-185420000D01*
X198120000Y-186690000D02*
X374650000Y-186690000D01*
X197485000Y-187325000D02*
X198120000Y-186690000D01*
X197485000Y-244475000D02*
X197485000Y-187325000D01*
X198755000Y-245745000D02*
X197485000Y-244475000D01*
X378460000Y-172720000D02*
X377190000Y-173990000D01*
X377190000Y-173990000D02*
X377190000Y-186690000D01*
X377190000Y-186690000D02*
X375920000Y-187960000D01*
X373380000Y-187960000D02*
X342900000Y-187960000D01*
X200025000Y-188595000D02*
X200660000Y-187960000D01*
X200025000Y-245745000D02*
X200025000Y-188595000D01*
X342900000Y-187960000D02*
X200660000Y-187960000D01*
X401320000Y-172720000D02*
X378460000Y-172720000D01*
X373380000Y-187960000D02*
X375920000Y-187960000D01*
X142875000Y-347345000D02*
X141605000Y-346075000D01*
X405130000Y-267970000D02*
X406400000Y-269240000D01*
X141605000Y-268605000D02*
X142240000Y-267970000D01*
X141605000Y-346075000D02*
X141605000Y-268605000D01*
X142240000Y-267970000D02*
X405130000Y-267970000D01*
X144780000Y-269240000D02*
X144145000Y-269875000D01*
X144145000Y-269875000D02*
X144145000Y-347345000D01*
X401320000Y-269240000D02*
X144780000Y-269240000D01*
X405130000Y-270510000D02*
X406400000Y-271780000D01*
X169545000Y-271145000D02*
X170180000Y-270510000D01*
X169545000Y-346075000D02*
X169545000Y-271145000D01*
X170815000Y-347345000D02*
X169545000Y-346075000D01*
X170180000Y-270510000D02*
X405130000Y-270510000D01*
X172085000Y-272415000D02*
X172720000Y-271780000D01*
X367572999Y-271052999D02*
X365852001Y-271052999D01*
X368300000Y-271780000D02*
X367572999Y-271052999D01*
X365852001Y-271052999D02*
X365125000Y-271780000D01*
X337912001Y-271052999D02*
X337185000Y-271780000D01*
X339632999Y-271052999D02*
X337912001Y-271052999D01*
X340360000Y-271780000D02*
X339632999Y-271052999D01*
X365125000Y-271780000D02*
X340360000Y-271780000D01*
X337185000Y-271780000D02*
X312420000Y-271780000D01*
X309245000Y-271780000D02*
X284480000Y-271780000D01*
X281305000Y-271780000D02*
X256540000Y-271780000D01*
X253365000Y-271780000D02*
X228600000Y-271780000D01*
X225425000Y-271780000D02*
X200660000Y-271780000D01*
X197485000Y-271780000D02*
X172720000Y-271780000D01*
X309972001Y-271052999D02*
X309245000Y-271780000D01*
X282032001Y-271052999D02*
X281305000Y-271780000D01*
X254092001Y-271052999D02*
X253365000Y-271780000D01*
X226152001Y-271052999D02*
X225425000Y-271780000D01*
X198212001Y-271052999D02*
X197485000Y-271780000D01*
X311692999Y-271052999D02*
X309972001Y-271052999D01*
X283752999Y-271052999D02*
X282032001Y-271052999D01*
X255812999Y-271052999D02*
X254092001Y-271052999D01*
X227872999Y-271052999D02*
X226152001Y-271052999D01*
X199932999Y-271052999D02*
X198212001Y-271052999D01*
X312420000Y-271780000D02*
X311692999Y-271052999D01*
X284480000Y-271780000D02*
X283752999Y-271052999D01*
X256540000Y-271780000D02*
X255812999Y-271052999D01*
X228600000Y-271780000D02*
X227872999Y-271052999D01*
X200660000Y-271780000D02*
X199932999Y-271052999D01*
X401320000Y-271780000D02*
X368300000Y-271780000D01*
X172085000Y-272415000D02*
X172085000Y-347345000D01*
X377190000Y-273050000D02*
X405130000Y-273050000D01*
X375920000Y-274320000D02*
X377190000Y-273050000D01*
X405130000Y-273050000D02*
X406400000Y-274320000D01*
X375920000Y-287020000D02*
X375920000Y-274320000D01*
X374650000Y-288290000D02*
X375920000Y-287020000D01*
X198120000Y-288290000D02*
X374650000Y-288290000D01*
X197485000Y-288925000D02*
X198120000Y-288290000D01*
X197485000Y-346075000D02*
X197485000Y-288925000D01*
X198755000Y-347345000D02*
X197485000Y-346075000D01*
X378460000Y-274320000D02*
X377190000Y-275590000D01*
X377190000Y-275590000D02*
X377190000Y-288290000D01*
X377190000Y-288290000D02*
X375920000Y-289560000D01*
X373380000Y-289560000D02*
X342900000Y-289560000D01*
X200025000Y-290195000D02*
X200660000Y-289560000D01*
X200025000Y-347345000D02*
X200025000Y-290195000D01*
X342900000Y-289560000D02*
X200660000Y-289560000D01*
X401320000Y-274320000D02*
X378460000Y-274320000D01*
X373380000Y-289560000D02*
X375920000Y-289560000D01*
X374650000Y-87630000D02*
X377190000Y-87630000D01*
X388620000Y-72390000D02*
X379730000Y-72390000D01*
X405130000Y-72390000D02*
X388620000Y-72390000D01*
X225425000Y-88265000D02*
X226060000Y-87630000D01*
X225425000Y-142875000D02*
X225425000Y-88265000D01*
X226060000Y-87630000D02*
X225997999Y-87692001D01*
X327660000Y-87630000D02*
X226060000Y-87630000D01*
X359410000Y-87630000D02*
X327660000Y-87630000D01*
X374650000Y-87630000D02*
X359410000Y-87630000D01*
X378460000Y-86360000D02*
X377190000Y-87630000D01*
X378460000Y-73660000D02*
X378460000Y-86360000D01*
X379730000Y-72390000D02*
X378460000Y-73660000D01*
X226695000Y-144145000D02*
X225425000Y-142875000D01*
X405130000Y-72390000D02*
X406400000Y-73660000D01*
X228600000Y-88900000D02*
X367030000Y-88900000D01*
X367030000Y-88900000D02*
X375920000Y-88900000D01*
X378460000Y-88900000D02*
X367030000Y-88900000D01*
X381000000Y-73660000D02*
X401320000Y-73660000D01*
X227965000Y-144145000D02*
X227965000Y-89535000D01*
X227965000Y-89535000D02*
X228600000Y-88900000D01*
X378460000Y-88900000D02*
X379730000Y-87630000D01*
X379730000Y-87630000D02*
X379730000Y-74930000D01*
X379730000Y-74930000D02*
X381000000Y-73660000D01*
X254000000Y-90170000D02*
X370840000Y-90170000D01*
X370840000Y-90170000D02*
X377190000Y-90170000D01*
X379730000Y-90170000D02*
X370840000Y-90170000D01*
X382270000Y-74930000D02*
X405130000Y-74930000D01*
X379730000Y-90170000D02*
X381000000Y-88900000D01*
X253365000Y-90805000D02*
X254000000Y-90170000D01*
X253365000Y-142875000D02*
X253365000Y-90805000D01*
X381000000Y-76200000D02*
X381000000Y-88900000D01*
X382270000Y-74930000D02*
X381000000Y-76200000D01*
X254635000Y-144145000D02*
X253365000Y-142875000D01*
X405130000Y-74930000D02*
X406400000Y-76200000D01*
X370840000Y-91440000D02*
X367030000Y-91440000D01*
X367030000Y-91440000D02*
X257810000Y-91440000D01*
X381000000Y-91440000D02*
X367030000Y-91440000D01*
X401320000Y-76200000D02*
X383540000Y-76200000D01*
X256540000Y-91440000D02*
X257810000Y-91440000D01*
X255905000Y-92075000D02*
X256540000Y-91440000D01*
X255905000Y-144145000D02*
X255905000Y-92075000D01*
X378460000Y-91440000D02*
X370840000Y-91440000D01*
X382270000Y-90170000D02*
X381000000Y-91440000D01*
X382270000Y-77470000D02*
X382270000Y-90170000D01*
X383540000Y-76200000D02*
X382270000Y-77470000D01*
X281940000Y-92710000D02*
X373380000Y-92710000D01*
X373380000Y-92710000D02*
X379730000Y-92710000D01*
X382270000Y-92710000D02*
X373380000Y-92710000D01*
X405130000Y-77470000D02*
X384810000Y-77470000D01*
X405130000Y-77470000D02*
X406400000Y-78740000D01*
X282575000Y-144145000D02*
X281305000Y-142875000D01*
X281305000Y-142875000D02*
X281305000Y-93345000D01*
X383540000Y-78740000D02*
X384810000Y-77470000D01*
X281305000Y-93345000D02*
X281940000Y-92710000D01*
X383540000Y-91440000D02*
X383540000Y-78740000D01*
X382270000Y-92710000D02*
X383540000Y-91440000D01*
X284480000Y-93980000D02*
X375920000Y-93980000D01*
X375920000Y-93980000D02*
X381000000Y-93980000D01*
X383540000Y-93980000D02*
X375920000Y-93980000D01*
X386080000Y-78740000D02*
X401320000Y-78740000D01*
X283845000Y-144145000D02*
X283845000Y-94615000D01*
X283845000Y-94615000D02*
X284480000Y-93980000D01*
X383540000Y-93980000D02*
X384810000Y-92710000D01*
X384810000Y-92710000D02*
X384810000Y-80010000D01*
X384810000Y-80010000D02*
X386080000Y-78740000D01*
X309880000Y-95250000D02*
X381000000Y-95250000D01*
X381000000Y-95250000D02*
X382270000Y-95250000D01*
X384810000Y-95250000D02*
X381000000Y-95250000D01*
X387350000Y-80010000D02*
X405130000Y-80010000D01*
X309245000Y-95885000D02*
X309880000Y-95250000D01*
X309245000Y-142875000D02*
X309245000Y-95885000D01*
X386080000Y-93980000D02*
X384810000Y-95250000D01*
X386080000Y-81280000D02*
X386080000Y-93980000D01*
X387350000Y-80010000D02*
X386080000Y-81280000D01*
X310515000Y-144145000D02*
X309245000Y-142875000D01*
X405130000Y-80010000D02*
X406400000Y-81280000D01*
X386080000Y-96520000D02*
X383540000Y-96520000D01*
X401320000Y-81280000D02*
X388620000Y-81280000D01*
X311785000Y-97155000D02*
X312420000Y-96520000D01*
X311785000Y-144145000D02*
X311785000Y-97155000D01*
X383540000Y-96520000D02*
X312420000Y-96520000D01*
X387350000Y-95250000D02*
X386080000Y-96520000D01*
X387350000Y-82550000D02*
X387350000Y-95250000D01*
X388620000Y-81280000D02*
X387350000Y-82550000D01*
X337820000Y-102870000D02*
X377190000Y-102870000D01*
X377190000Y-102870000D02*
X384810000Y-102870000D01*
X387350000Y-102870000D02*
X377190000Y-102870000D01*
X405130000Y-82550000D02*
X389890000Y-82550000D01*
X338455000Y-144145000D02*
X337185000Y-142875000D01*
X387350000Y-102870000D02*
X388620000Y-101600000D01*
X337185000Y-142875000D02*
X337185000Y-103505000D01*
X337185000Y-103505000D02*
X337820000Y-102870000D01*
X388620000Y-101600000D02*
X388620000Y-83820000D01*
X388620000Y-83820000D02*
X389890000Y-82550000D01*
X405130000Y-82550000D02*
X406400000Y-83820000D01*
X386080000Y-105410000D02*
X378460000Y-105410000D01*
X378460000Y-105410000D02*
X340360000Y-105410000D01*
X388620000Y-105410000D02*
X378460000Y-105410000D01*
X401320000Y-83820000D02*
X391160000Y-83820000D01*
X391160000Y-83820000D02*
X389890000Y-85090000D01*
X389890000Y-85090000D02*
X389890000Y-104140000D01*
X389890000Y-104140000D02*
X388620000Y-105410000D01*
X340360000Y-105410000D02*
X339725000Y-106045000D01*
X339725000Y-106045000D02*
X339725000Y-144145000D01*
X387350000Y-106680000D02*
X379730000Y-106680000D01*
X379730000Y-106680000D02*
X370840000Y-106680000D01*
X389890000Y-106680000D02*
X379730000Y-106680000D01*
X392430000Y-85090000D02*
X405130000Y-85090000D01*
X391160000Y-86360000D02*
X392430000Y-85090000D01*
X391160000Y-105410000D02*
X391160000Y-86360000D01*
X389890000Y-106680000D02*
X391160000Y-105410000D01*
X370840000Y-106680000D02*
X369570000Y-106680000D01*
X365125000Y-107315000D02*
X365760000Y-106680000D01*
X365760000Y-106680000D02*
X370840000Y-106680000D01*
X365125000Y-142875000D02*
X365125000Y-107315000D01*
X366395000Y-144145000D02*
X365125000Y-142875000D01*
X405130000Y-85090000D02*
X406400000Y-86360000D01*
X367665000Y-144145000D02*
X367665000Y-108585000D01*
X367665000Y-108585000D02*
X368300000Y-107950000D01*
X368300000Y-107950000D02*
X391160000Y-107950000D01*
X391160000Y-107950000D02*
X392430000Y-106680000D01*
X392430000Y-106680000D02*
X392430000Y-87630000D01*
X392430000Y-87630000D02*
X393700000Y-86360000D01*
X393700000Y-86360000D02*
X401320000Y-86360000D01*
X367665000Y-143600000D02*
X367665000Y-144145000D01*
X405130000Y-173990000D02*
X406400000Y-175260000D01*
X226695000Y-245745000D02*
X225425000Y-244475000D01*
X379730000Y-173990000D02*
X378460000Y-175260000D01*
X378460000Y-175260000D02*
X378460000Y-187960000D01*
X378460000Y-187960000D02*
X377190000Y-189230000D01*
X374650000Y-189230000D02*
X359410000Y-189230000D01*
X359410000Y-189230000D02*
X327660000Y-189230000D01*
X327660000Y-189230000D02*
X226060000Y-189230000D01*
X226060000Y-189230000D02*
X225997999Y-189292001D01*
X225425000Y-244475000D02*
X225425000Y-189865000D01*
X225425000Y-189865000D02*
X226060000Y-189230000D01*
X405130000Y-173990000D02*
X388620000Y-173990000D01*
X388620000Y-173990000D02*
X379730000Y-173990000D01*
X374650000Y-189230000D02*
X377190000Y-189230000D01*
X379730000Y-176530000D02*
X381000000Y-175260000D01*
X379730000Y-189230000D02*
X379730000Y-176530000D01*
X378460000Y-190500000D02*
X379730000Y-189230000D01*
X227965000Y-191135000D02*
X228600000Y-190500000D01*
X227965000Y-245745000D02*
X227965000Y-191135000D01*
X381000000Y-175260000D02*
X401320000Y-175260000D01*
X378460000Y-190500000D02*
X367030000Y-190500000D01*
X367030000Y-190500000D02*
X375920000Y-190500000D01*
X228600000Y-190500000D02*
X367030000Y-190500000D01*
X405130000Y-176530000D02*
X406400000Y-177800000D01*
X254635000Y-245745000D02*
X253365000Y-244475000D01*
X382270000Y-176530000D02*
X381000000Y-177800000D01*
X381000000Y-177800000D02*
X381000000Y-190500000D01*
X253365000Y-244475000D02*
X253365000Y-192405000D01*
X253365000Y-192405000D02*
X254000000Y-191770000D01*
X379730000Y-191770000D02*
X381000000Y-190500000D01*
X382270000Y-176530000D02*
X405130000Y-176530000D01*
X379730000Y-191770000D02*
X370840000Y-191770000D01*
X370840000Y-191770000D02*
X377190000Y-191770000D01*
X254000000Y-191770000D02*
X370840000Y-191770000D01*
X383540000Y-177800000D02*
X382270000Y-179070000D01*
X382270000Y-179070000D02*
X382270000Y-191770000D01*
X382270000Y-191770000D02*
X381000000Y-193040000D01*
X378460000Y-193040000D02*
X370840000Y-193040000D01*
X255905000Y-245745000D02*
X255905000Y-193675000D01*
X255905000Y-193675000D02*
X256540000Y-193040000D01*
X256540000Y-193040000D02*
X257810000Y-193040000D01*
X401320000Y-177800000D02*
X383540000Y-177800000D01*
X381000000Y-193040000D02*
X367030000Y-193040000D01*
X367030000Y-193040000D02*
X257810000Y-193040000D01*
X370840000Y-193040000D02*
X367030000Y-193040000D01*
X382270000Y-194310000D02*
X383540000Y-193040000D01*
X383540000Y-193040000D02*
X383540000Y-180340000D01*
X281305000Y-194945000D02*
X281940000Y-194310000D01*
X383540000Y-180340000D02*
X384810000Y-179070000D01*
X281305000Y-244475000D02*
X281305000Y-194945000D01*
X282575000Y-245745000D02*
X281305000Y-244475000D01*
X405130000Y-179070000D02*
X406400000Y-180340000D01*
X405130000Y-179070000D02*
X384810000Y-179070000D01*
X382270000Y-194310000D02*
X373380000Y-194310000D01*
X373380000Y-194310000D02*
X379730000Y-194310000D01*
X281940000Y-194310000D02*
X373380000Y-194310000D01*
X384810000Y-181610000D02*
X386080000Y-180340000D01*
X384810000Y-194310000D02*
X384810000Y-181610000D01*
X383540000Y-195580000D02*
X384810000Y-194310000D01*
X283845000Y-196215000D02*
X284480000Y-195580000D01*
X283845000Y-245745000D02*
X283845000Y-196215000D01*
X386080000Y-180340000D02*
X401320000Y-180340000D01*
X383540000Y-195580000D02*
X375920000Y-195580000D01*
X375920000Y-195580000D02*
X381000000Y-195580000D01*
X284480000Y-195580000D02*
X375920000Y-195580000D01*
X405130000Y-181610000D02*
X406400000Y-182880000D01*
X310515000Y-245745000D02*
X309245000Y-244475000D01*
X387350000Y-181610000D02*
X386080000Y-182880000D01*
X386080000Y-182880000D02*
X386080000Y-195580000D01*
X386080000Y-195580000D02*
X384810000Y-196850000D01*
X309245000Y-244475000D02*
X309245000Y-197485000D01*
X309245000Y-197485000D02*
X309880000Y-196850000D01*
X387350000Y-181610000D02*
X405130000Y-181610000D01*
X384810000Y-196850000D02*
X381000000Y-196850000D01*
X381000000Y-196850000D02*
X382270000Y-196850000D01*
X309880000Y-196850000D02*
X381000000Y-196850000D01*
X388620000Y-182880000D02*
X387350000Y-184150000D01*
X387350000Y-184150000D02*
X387350000Y-196850000D01*
X387350000Y-196850000D02*
X386080000Y-198120000D01*
X383540000Y-198120000D02*
X312420000Y-198120000D01*
X311785000Y-245745000D02*
X311785000Y-198755000D01*
X311785000Y-198755000D02*
X312420000Y-198120000D01*
X401320000Y-182880000D02*
X388620000Y-182880000D01*
X386080000Y-198120000D02*
X383540000Y-198120000D01*
X405130000Y-184150000D02*
X406400000Y-185420000D01*
X388620000Y-185420000D02*
X389890000Y-184150000D01*
X388620000Y-203200000D02*
X388620000Y-185420000D01*
X337185000Y-205105000D02*
X337820000Y-204470000D01*
X337185000Y-244475000D02*
X337185000Y-205105000D01*
X387350000Y-204470000D02*
X388620000Y-203200000D01*
X338455000Y-245745000D02*
X337185000Y-244475000D01*
X405130000Y-184150000D02*
X389890000Y-184150000D01*
X387350000Y-204470000D02*
X377190000Y-204470000D01*
X377190000Y-204470000D02*
X384810000Y-204470000D01*
X337820000Y-204470000D02*
X377190000Y-204470000D01*
X339725000Y-207645000D02*
X339725000Y-245745000D01*
X340360000Y-207010000D02*
X339725000Y-207645000D01*
X389890000Y-205740000D02*
X388620000Y-207010000D01*
X389890000Y-186690000D02*
X389890000Y-205740000D01*
X391160000Y-185420000D02*
X389890000Y-186690000D01*
X401320000Y-185420000D02*
X391160000Y-185420000D01*
X388620000Y-207010000D02*
X378460000Y-207010000D01*
X378460000Y-207010000D02*
X340360000Y-207010000D01*
X386080000Y-207010000D02*
X378460000Y-207010000D01*
X405130000Y-186690000D02*
X406400000Y-187960000D01*
X366395000Y-245745000D02*
X365125000Y-244475000D01*
X365125000Y-244475000D02*
X365125000Y-208915000D01*
X365760000Y-208280000D02*
X370840000Y-208280000D01*
X365125000Y-208915000D02*
X365760000Y-208280000D01*
X370840000Y-208280000D02*
X369570000Y-208280000D01*
X389890000Y-208280000D02*
X391160000Y-207010000D01*
X391160000Y-207010000D02*
X391160000Y-187960000D01*
X391160000Y-187960000D02*
X392430000Y-186690000D01*
X392430000Y-186690000D02*
X405130000Y-186690000D01*
X389890000Y-208280000D02*
X379730000Y-208280000D01*
X379730000Y-208280000D02*
X370840000Y-208280000D01*
X387350000Y-208280000D02*
X379730000Y-208280000D01*
X367665000Y-245200000D02*
X367665000Y-245745000D01*
X393700000Y-187960000D02*
X401320000Y-187960000D01*
X392430000Y-189230000D02*
X393700000Y-187960000D01*
X392430000Y-208280000D02*
X392430000Y-189230000D01*
X391160000Y-209550000D02*
X392430000Y-208280000D01*
X368300000Y-209550000D02*
X391160000Y-209550000D01*
X367665000Y-210185000D02*
X368300000Y-209550000D01*
X367665000Y-245745000D02*
X367665000Y-210185000D01*
X405130000Y-275590000D02*
X406400000Y-276860000D01*
X226695000Y-347345000D02*
X225425000Y-346075000D01*
X379730000Y-275590000D02*
X378460000Y-276860000D01*
X378460000Y-276860000D02*
X378460000Y-289560000D01*
X378460000Y-289560000D02*
X377190000Y-290830000D01*
X374650000Y-290830000D02*
X359410000Y-290830000D01*
X359410000Y-290830000D02*
X327660000Y-290830000D01*
X327660000Y-290830000D02*
X226060000Y-290830000D01*
X226060000Y-290830000D02*
X225997999Y-290892001D01*
X225425000Y-346075000D02*
X225425000Y-291465000D01*
X225425000Y-291465000D02*
X226060000Y-290830000D01*
X405130000Y-275590000D02*
X388620000Y-275590000D01*
X388620000Y-275590000D02*
X379730000Y-275590000D01*
X374650000Y-290830000D02*
X377190000Y-290830000D01*
X379730000Y-278130000D02*
X381000000Y-276860000D01*
X379730000Y-290830000D02*
X379730000Y-278130000D01*
X378460000Y-292100000D02*
X379730000Y-290830000D01*
X227965000Y-292735000D02*
X228600000Y-292100000D01*
X227965000Y-347345000D02*
X227965000Y-292735000D01*
X381000000Y-276860000D02*
X401320000Y-276860000D01*
X378460000Y-292100000D02*
X367030000Y-292100000D01*
X367030000Y-292100000D02*
X375920000Y-292100000D01*
X228600000Y-292100000D02*
X367030000Y-292100000D01*
X405130000Y-278130000D02*
X406400000Y-279400000D01*
X254635000Y-347345000D02*
X253365000Y-346075000D01*
X382270000Y-278130000D02*
X381000000Y-279400000D01*
X381000000Y-279400000D02*
X381000000Y-292100000D01*
X253365000Y-346075000D02*
X253365000Y-294005000D01*
X253365000Y-294005000D02*
X254000000Y-293370000D01*
X379730000Y-293370000D02*
X381000000Y-292100000D01*
X382270000Y-278130000D02*
X405130000Y-278130000D01*
X379730000Y-293370000D02*
X370840000Y-293370000D01*
X370840000Y-293370000D02*
X377190000Y-293370000D01*
X254000000Y-293370000D02*
X370840000Y-293370000D01*
X383540000Y-279400000D02*
X382270000Y-280670000D01*
X382270000Y-280670000D02*
X382270000Y-293370000D01*
X382270000Y-293370000D02*
X381000000Y-294640000D01*
X378460000Y-294640000D02*
X370840000Y-294640000D01*
X255905000Y-347345000D02*
X255905000Y-295275000D01*
X255905000Y-295275000D02*
X256540000Y-294640000D01*
X256540000Y-294640000D02*
X257810000Y-294640000D01*
X401320000Y-279400000D02*
X383540000Y-279400000D01*
X381000000Y-294640000D02*
X367030000Y-294640000D01*
X367030000Y-294640000D02*
X257810000Y-294640000D01*
X370840000Y-294640000D02*
X367030000Y-294640000D01*
X382270000Y-295910000D02*
X383540000Y-294640000D01*
X383540000Y-294640000D02*
X383540000Y-281940000D01*
X281305000Y-296545000D02*
X281940000Y-295910000D01*
X383540000Y-281940000D02*
X384810000Y-280670000D01*
X281305000Y-346075000D02*
X281305000Y-296545000D01*
X282575000Y-347345000D02*
X281305000Y-346075000D01*
X405130000Y-280670000D02*
X406400000Y-281940000D01*
X405130000Y-280670000D02*
X384810000Y-280670000D01*
X382270000Y-295910000D02*
X373380000Y-295910000D01*
X373380000Y-295910000D02*
X379730000Y-295910000D01*
X281940000Y-295910000D02*
X373380000Y-295910000D01*
X384810000Y-283210000D02*
X386080000Y-281940000D01*
X384810000Y-295910000D02*
X384810000Y-283210000D01*
X383540000Y-297180000D02*
X384810000Y-295910000D01*
X283845000Y-297815000D02*
X284480000Y-297180000D01*
X283845000Y-347345000D02*
X283845000Y-297815000D01*
X386080000Y-281940000D02*
X401320000Y-281940000D01*
X383540000Y-297180000D02*
X375920000Y-297180000D01*
X375920000Y-297180000D02*
X381000000Y-297180000D01*
X284480000Y-297180000D02*
X375920000Y-297180000D01*
X405130000Y-283210000D02*
X406400000Y-284480000D01*
X310515000Y-347345000D02*
X309245000Y-346075000D01*
X387350000Y-283210000D02*
X386080000Y-284480000D01*
X386080000Y-284480000D02*
X386080000Y-297180000D01*
X386080000Y-297180000D02*
X384810000Y-298450000D01*
X309245000Y-346075000D02*
X309245000Y-299085000D01*
X309245000Y-299085000D02*
X309880000Y-298450000D01*
X387350000Y-283210000D02*
X405130000Y-283210000D01*
X384810000Y-298450000D02*
X381000000Y-298450000D01*
X381000000Y-298450000D02*
X382270000Y-298450000D01*
X309880000Y-298450000D02*
X381000000Y-298450000D01*
X388620000Y-284480000D02*
X387350000Y-285750000D01*
X387350000Y-285750000D02*
X387350000Y-298450000D01*
X387350000Y-298450000D02*
X386080000Y-299720000D01*
X383540000Y-299720000D02*
X312420000Y-299720000D01*
X311785000Y-347345000D02*
X311785000Y-300355000D01*
X311785000Y-300355000D02*
X312420000Y-299720000D01*
X401320000Y-284480000D02*
X388620000Y-284480000D01*
X386080000Y-299720000D02*
X383540000Y-299720000D01*
X405130000Y-285750000D02*
X406400000Y-287020000D01*
X388620000Y-287020000D02*
X389890000Y-285750000D01*
X388620000Y-304800000D02*
X388620000Y-287020000D01*
X337185000Y-306705000D02*
X337820000Y-306070000D01*
X337185000Y-346075000D02*
X337185000Y-306705000D01*
X387350000Y-306070000D02*
X388620000Y-304800000D01*
X338455000Y-347345000D02*
X337185000Y-346075000D01*
X405130000Y-285750000D02*
X389890000Y-285750000D01*
X387350000Y-306070000D02*
X377190000Y-306070000D01*
X377190000Y-306070000D02*
X384810000Y-306070000D01*
X337820000Y-306070000D02*
X377190000Y-306070000D01*
X339725000Y-309245000D02*
X339725000Y-347345000D01*
X340360000Y-308610000D02*
X339725000Y-309245000D01*
X389890000Y-307340000D02*
X388620000Y-308610000D01*
X389890000Y-288290000D02*
X389890000Y-307340000D01*
X391160000Y-287020000D02*
X389890000Y-288290000D01*
X401320000Y-287020000D02*
X391160000Y-287020000D01*
X388620000Y-308610000D02*
X378460000Y-308610000D01*
X378460000Y-308610000D02*
X340360000Y-308610000D01*
X386080000Y-308610000D02*
X378460000Y-308610000D01*
X405130000Y-288290000D02*
X406400000Y-289560000D01*
X366395000Y-347345000D02*
X365125000Y-346075000D01*
X365125000Y-346075000D02*
X365125000Y-310515000D01*
X365760000Y-309880000D02*
X370840000Y-309880000D01*
X365125000Y-310515000D02*
X365760000Y-309880000D01*
X370840000Y-309880000D02*
X369570000Y-309880000D01*
X389890000Y-309880000D02*
X391160000Y-308610000D01*
X391160000Y-308610000D02*
X391160000Y-289560000D01*
X391160000Y-289560000D02*
X392430000Y-288290000D01*
X392430000Y-288290000D02*
X405130000Y-288290000D01*
X389890000Y-309880000D02*
X379730000Y-309880000D01*
X379730000Y-309880000D02*
X370840000Y-309880000D01*
X387350000Y-309880000D02*
X379730000Y-309880000D01*
X367665000Y-346800000D02*
X367665000Y-347345000D01*
X393700000Y-289560000D02*
X401320000Y-289560000D01*
X392430000Y-290830000D02*
X393700000Y-289560000D01*
X392430000Y-309880000D02*
X392430000Y-290830000D01*
X391160000Y-311150000D02*
X392430000Y-309880000D01*
X368300000Y-311150000D02*
X391160000Y-311150000D01*
X367665000Y-311785000D02*
X368300000Y-311150000D01*
X367665000Y-347345000D02*
X367665000Y-311785000D01*
M02*
