G04 #@! TF.FileFunction,Copper,L2,Inr,Signal*
%FSLAX46Y46*%
G04 Gerber Fmt 4.6, Leading zero omitted, Abs format (unit mm)*
G04 Created by KiCad (PCBNEW 4.0.7) date Mon Feb 26 15:05:32 2018*
%MOMM*%
%LPD*%
G01*
G04 APERTURE LIST*
%ADD10C,0.100000*%
%ADD11C,1.600000*%
%ADD12R,1.600000X1.600000*%
%ADD13C,0.600000*%
%ADD14C,0.250000*%
G04 APERTURE END LIST*
D10*
D11*
X401320000Y-68580000D03*
X401320000Y-71120000D03*
D12*
X401320000Y-73660000D03*
D11*
X401320000Y-76200000D03*
X401320000Y-78740000D03*
X401320000Y-81280000D03*
X401320000Y-83820000D03*
X401320000Y-86360000D03*
X401320000Y-88900000D03*
X401320000Y-91440000D03*
X401320000Y-93980000D03*
X401320000Y-96520000D03*
D12*
X401320000Y-99060000D03*
D11*
X401320000Y-101600000D03*
X401320000Y-104140000D03*
X401320000Y-106680000D03*
X401320000Y-109220000D03*
X401320000Y-111760000D03*
X401320000Y-114300000D03*
X401320000Y-116840000D03*
X401320000Y-119380000D03*
X401320000Y-121920000D03*
D12*
X401320000Y-124460000D03*
D11*
X401320000Y-127000000D03*
X401320000Y-129540000D03*
X401320000Y-132080000D03*
X401320000Y-134620000D03*
X401320000Y-137160000D03*
X401320000Y-139700000D03*
X401320000Y-142240000D03*
X401320000Y-144780000D03*
D12*
X401320000Y-147320000D03*
D11*
X403860000Y-68580000D03*
X403860000Y-71120000D03*
D12*
X403860000Y-73660000D03*
D11*
X403860000Y-76200000D03*
X403860000Y-78740000D03*
X403860000Y-81280000D03*
X403860000Y-83820000D03*
X403860000Y-86360000D03*
X403860000Y-88900000D03*
X403860000Y-91440000D03*
X403860000Y-93980000D03*
X403860000Y-96520000D03*
D12*
X403860000Y-99060000D03*
D11*
X403860000Y-101600000D03*
X403860000Y-104140000D03*
X403860000Y-106680000D03*
X403860000Y-109220000D03*
X403860000Y-111760000D03*
X403860000Y-114300000D03*
X403860000Y-116840000D03*
X403860000Y-119380000D03*
X403860000Y-121920000D03*
D12*
X403860000Y-124460000D03*
D11*
X403860000Y-127000000D03*
X403860000Y-129540000D03*
X403860000Y-132080000D03*
X403860000Y-134620000D03*
X403860000Y-137160000D03*
X403860000Y-139700000D03*
X403860000Y-142240000D03*
X406400000Y-68580000D03*
X406400000Y-71120000D03*
D12*
X406400000Y-73660000D03*
D11*
X406400000Y-76200000D03*
X406400000Y-78740000D03*
X406400000Y-81280000D03*
X406400000Y-83820000D03*
X406400000Y-86360000D03*
X406400000Y-88900000D03*
X406400000Y-91440000D03*
X406400000Y-93980000D03*
X406400000Y-96520000D03*
D12*
X406400000Y-99060000D03*
D11*
X406400000Y-101600000D03*
X406400000Y-104140000D03*
X406400000Y-106680000D03*
X406400000Y-109220000D03*
X406400000Y-111760000D03*
X406400000Y-114300000D03*
D12*
X406400000Y-116840000D03*
D11*
X406400000Y-119380000D03*
X406400000Y-121920000D03*
D12*
X406400000Y-124460000D03*
D11*
X406400000Y-127000000D03*
X406400000Y-129540000D03*
X406400000Y-132080000D03*
X406400000Y-134620000D03*
X406400000Y-137160000D03*
X406400000Y-139700000D03*
X406400000Y-142240000D03*
D12*
X406400000Y-147320000D03*
D13*
X130810000Y-130810000D03*
X133350000Y-110490000D03*
X142950000Y-139700000D03*
X144145000Y-139700000D03*
X148590000Y-101200000D03*
X129540000Y-101200000D03*
X130810000Y-101200000D03*
X149860000Y-101200000D03*
X130810000Y-98200000D03*
X148590000Y-98200000D03*
X149919759Y-98200000D03*
X129540000Y-98200000D03*
X172720000Y-134620000D03*
X172720000Y-137160000D03*
X196850000Y-129540000D03*
X200660000Y-132080000D03*
X158750000Y-98200000D03*
X176530000Y-98200000D03*
X157480000Y-98200000D03*
X177800000Y-98200000D03*
X176530000Y-101200000D03*
X177800000Y-101200000D03*
X157480000Y-101200000D03*
X158750000Y-101200000D03*
X158750000Y-135890000D03*
X161290000Y-110490000D03*
X204470000Y-98200000D03*
X186690000Y-98200000D03*
X185420000Y-98200000D03*
X205799759Y-98200000D03*
X205740000Y-101200000D03*
X204529759Y-101200000D03*
X186690000Y-101200000D03*
X185420000Y-101200000D03*
X186690000Y-130810000D03*
X189230000Y-127000000D03*
X167640000Y-73660000D03*
X195580000Y-73660000D03*
X223520000Y-73660000D03*
X251460000Y-73660000D03*
X279400000Y-73660000D03*
X307340000Y-73660000D03*
X170180000Y-71120000D03*
X198120000Y-71120000D03*
X226060000Y-71120000D03*
X254000000Y-71120000D03*
X281940000Y-71120000D03*
X309880000Y-71120000D03*
X167640000Y-71120000D03*
X195580000Y-71120000D03*
X223520000Y-71120000D03*
X251460000Y-71120000D03*
X279400000Y-71120000D03*
X307340000Y-71120000D03*
X165100000Y-71120000D03*
X193040000Y-71120000D03*
X220980000Y-71120000D03*
X248920000Y-71120000D03*
X276860000Y-71120000D03*
X304800000Y-71120000D03*
X170180000Y-73660000D03*
X198120000Y-73660000D03*
X226060000Y-73660000D03*
X254000000Y-73660000D03*
X281940000Y-73660000D03*
X309880000Y-73660000D03*
X165100000Y-73660000D03*
X193040000Y-73660000D03*
X220980000Y-73660000D03*
X248920000Y-73660000D03*
X276860000Y-73660000D03*
X304800000Y-73660000D03*
X170180000Y-76200000D03*
X198120000Y-76200000D03*
X226060000Y-76200000D03*
X254000000Y-76200000D03*
X281940000Y-76200000D03*
X309880000Y-76200000D03*
X167640000Y-76200000D03*
X195580000Y-76200000D03*
X223520000Y-76200000D03*
X251460000Y-76200000D03*
X279400000Y-76200000D03*
X307340000Y-76200000D03*
X165100000Y-76200000D03*
X193040000Y-76200000D03*
X220980000Y-76200000D03*
X248920000Y-76200000D03*
X276860000Y-76200000D03*
X304800000Y-76200000D03*
X170180000Y-78740000D03*
X198120000Y-78740000D03*
X226060000Y-78740000D03*
X254000000Y-78740000D03*
X281940000Y-78740000D03*
X309880000Y-78740000D03*
X165100000Y-78740000D03*
X193040000Y-78740000D03*
X220980000Y-78740000D03*
X248920000Y-78740000D03*
X276860000Y-78740000D03*
X304800000Y-78740000D03*
X170180000Y-81280000D03*
X198120000Y-81280000D03*
X226060000Y-81280000D03*
X254000000Y-81280000D03*
X281940000Y-81280000D03*
X309880000Y-81280000D03*
X167640000Y-81280000D03*
X195580000Y-81280000D03*
X223520000Y-81280000D03*
X251460000Y-81280000D03*
X279400000Y-81280000D03*
X307340000Y-81280000D03*
X165100000Y-81280000D03*
X193040000Y-81280000D03*
X220980000Y-81280000D03*
X248920000Y-81280000D03*
X276860000Y-81280000D03*
X304800000Y-81280000D03*
X139700000Y-73660000D03*
X142240000Y-71120000D03*
X139700000Y-71120000D03*
X137160000Y-71120000D03*
X142240000Y-73660000D03*
X137160000Y-73660000D03*
X142240000Y-76200000D03*
X139700000Y-76200000D03*
X137160000Y-76200000D03*
X142240000Y-78740000D03*
X137160000Y-78740000D03*
X142240000Y-81280000D03*
X139700000Y-81280000D03*
X137160000Y-81280000D03*
X335280000Y-73660000D03*
X337820000Y-71120000D03*
X335280000Y-71120000D03*
X332740000Y-71120000D03*
X337820000Y-73660000D03*
X332740000Y-73660000D03*
X337820000Y-76200000D03*
X335280000Y-76200000D03*
X332740000Y-76200000D03*
X337820000Y-78740000D03*
X332740000Y-78740000D03*
X337820000Y-81280000D03*
X335280000Y-81280000D03*
X332740000Y-81280000D03*
X363220000Y-76200000D03*
X363220000Y-73660000D03*
X363220000Y-71120000D03*
X360680000Y-71120000D03*
X360680000Y-73660000D03*
X360680000Y-76200000D03*
X360680000Y-78740000D03*
X360680000Y-81280000D03*
X363220000Y-81280000D03*
X365760000Y-81280000D03*
X365760000Y-78740000D03*
X365760000Y-76200000D03*
X365760000Y-73660000D03*
X365760000Y-71120000D03*
X363220000Y-71120000D03*
X214630000Y-98200000D03*
X232410000Y-98200000D03*
X213360000Y-98200000D03*
X233739759Y-98200000D03*
X232410000Y-101200000D03*
X214630000Y-101200000D03*
X233680000Y-101200000D03*
X213360000Y-101200000D03*
X242570000Y-98200000D03*
X260350000Y-98200000D03*
X241300000Y-98200000D03*
X261679759Y-98200000D03*
X242570000Y-101200000D03*
X260350000Y-101200000D03*
X261620000Y-101200000D03*
X241300000Y-101200000D03*
X270510000Y-98200000D03*
X288290000Y-98200000D03*
X269240000Y-98200000D03*
X289619759Y-98200000D03*
X289560000Y-101200000D03*
X288290000Y-101200000D03*
X270510000Y-101200000D03*
X269240000Y-101200000D03*
X298450000Y-98200000D03*
X316230000Y-98200000D03*
X297180000Y-98200000D03*
X317559759Y-98200000D03*
X316230000Y-101200000D03*
X317559759Y-101200000D03*
X298450000Y-101200000D03*
X297180000Y-101200000D03*
X344170000Y-98200000D03*
X326390000Y-98200000D03*
X325120000Y-98200000D03*
X345440000Y-98200000D03*
X345440000Y-101200000D03*
X325120000Y-101200000D03*
X344170000Y-101200000D03*
X326390000Y-101200000D03*
X354330000Y-98200000D03*
X373439759Y-98200000D03*
X353060000Y-98200000D03*
X372110000Y-98200000D03*
X353060000Y-101200000D03*
X354330000Y-101200000D03*
X373439759Y-101200000D03*
X372110000Y-101200000D03*
X231140000Y-147320000D03*
X175260000Y-147320000D03*
X203200000Y-147320000D03*
X259080000Y-147320000D03*
X287020000Y-147320000D03*
X314960000Y-147320000D03*
X342900000Y-147320000D03*
X370840000Y-147320000D03*
X147320000Y-147320000D03*
X339725000Y-144145000D03*
X144145000Y-144145000D03*
X172085000Y-144145000D03*
X200025000Y-144145000D03*
X227965000Y-144145000D03*
X255905000Y-144145000D03*
X283845000Y-144145000D03*
X311785000Y-144145000D03*
X367665000Y-144145000D03*
X217170000Y-125730000D03*
X245110000Y-120650000D03*
X273050000Y-115570000D03*
X298450000Y-110490000D03*
X325120000Y-106680000D03*
X349885000Y-100330000D03*
X217170000Y-123190000D03*
X273050000Y-113030000D03*
X245110000Y-118110000D03*
X326390000Y-102870000D03*
X298450000Y-107950000D03*
X350520000Y-96520000D03*
X224790000Y-124460000D03*
X228600000Y-127000000D03*
X252730000Y-119380000D03*
X256540000Y-121920000D03*
X280670000Y-114300000D03*
X283210000Y-116840000D03*
X308610000Y-109220000D03*
X311150000Y-111760000D03*
X336550000Y-104140000D03*
X339090000Y-106680000D03*
X364490000Y-99695000D03*
X367030000Y-99695000D03*
X139065000Y-83185000D03*
X167005000Y-83185000D03*
X194945000Y-83185000D03*
X222885000Y-83185000D03*
X250825000Y-83185000D03*
X278765000Y-83185000D03*
X306705000Y-83185000D03*
X334645000Y-83185000D03*
X362585000Y-83185000D03*
X148590000Y-83185000D03*
X176530000Y-83185000D03*
X204470000Y-83185000D03*
X232410000Y-83185000D03*
X260350000Y-83185000D03*
X288290000Y-83185000D03*
X316230000Y-83185000D03*
X344170000Y-83185000D03*
X372110000Y-83185000D03*
D14*
X402590000Y-138430000D02*
X144780000Y-138430000D01*
X144780000Y-138430000D02*
X144220000Y-138430000D01*
X144220000Y-138430000D02*
X142950000Y-139700000D01*
X403860000Y-139700000D02*
X402590000Y-138430000D01*
X402590000Y-140970000D02*
X145415000Y-140970000D01*
X145415000Y-140970000D02*
X144145000Y-139700000D01*
X403860000Y-142240000D02*
X402590000Y-140970000D01*
X173990000Y-133350000D02*
X402590000Y-133350000D01*
X172720000Y-134620000D02*
X173990000Y-133350000D01*
X403860000Y-134620000D02*
X402590000Y-133350000D01*
X402590000Y-135890000D02*
X173990000Y-135890000D01*
X173990000Y-135890000D02*
X172720000Y-137160000D01*
X403860000Y-137160000D02*
X402590000Y-135890000D01*
X402590000Y-128270000D02*
X198120000Y-128270000D01*
X198120000Y-128270000D02*
X196850000Y-129540000D01*
X403860000Y-129540000D02*
X402590000Y-128270000D01*
X402590000Y-130810000D02*
X201930000Y-130810000D01*
X201930000Y-130810000D02*
X200660000Y-132080000D01*
X403860000Y-132080000D02*
X402590000Y-130810000D01*
X226060000Y-123190000D02*
X224790000Y-124460000D01*
X402590000Y-123190000D02*
X226060000Y-123190000D01*
X403860000Y-124460000D02*
X402590000Y-123190000D01*
X402590000Y-125730000D02*
X229870000Y-125730000D01*
X229870000Y-125730000D02*
X228600000Y-127000000D01*
X403860000Y-127000000D02*
X402590000Y-125730000D01*
X259080000Y-118110000D02*
X254000000Y-118110000D01*
X254000000Y-118110000D02*
X252730000Y-119380000D01*
X402590000Y-118110000D02*
X259080000Y-118110000D01*
X402590000Y-118110000D02*
X403060001Y-118580001D01*
X403060001Y-118580001D02*
X403860000Y-119380000D01*
X275590000Y-120650000D02*
X257810000Y-120650000D01*
X257810000Y-120650000D02*
X256540000Y-121920000D01*
X275590000Y-120650000D02*
X273866962Y-120650000D01*
X402590000Y-120650000D02*
X275590000Y-120650000D01*
X403860000Y-121920000D02*
X402590000Y-120650000D01*
X281940000Y-113030000D02*
X280670000Y-114300000D01*
X402590000Y-113030000D02*
X281940000Y-113030000D01*
X403860000Y-114300000D02*
X402590000Y-113030000D01*
X402590000Y-115570000D02*
X284480000Y-115570000D01*
X284480000Y-115570000D02*
X283210000Y-116840000D01*
X402807999Y-115787999D02*
X402590000Y-115570000D01*
X403060001Y-116040001D02*
X402807999Y-115787999D01*
X403860000Y-116840000D02*
X403060001Y-116040001D01*
X309880000Y-107950000D02*
X308610000Y-109220000D01*
X402590000Y-107950000D02*
X309880000Y-107950000D01*
X403860000Y-109220000D02*
X402590000Y-107950000D01*
X402590000Y-110490000D02*
X312420000Y-110490000D01*
X312420000Y-110490000D02*
X311150000Y-111760000D01*
X403860000Y-111760000D02*
X402590000Y-110490000D01*
X402590000Y-102870000D02*
X337820000Y-102870000D01*
X337820000Y-102870000D02*
X336550000Y-104140000D01*
X403860000Y-104140000D02*
X402590000Y-102870000D01*
X402590000Y-105410000D02*
X340360000Y-105410000D01*
X340360000Y-105410000D02*
X339090000Y-106680000D01*
X403860000Y-106680000D02*
X402590000Y-105410000D01*
X364490000Y-97790000D02*
X364490000Y-99695000D01*
X365760000Y-96520000D02*
X364490000Y-97790000D01*
X375920000Y-97790000D02*
X374650000Y-96520000D01*
X374650000Y-96520000D02*
X365760000Y-96520000D01*
X403860000Y-99060000D02*
X402590000Y-97790000D01*
X402590000Y-97790000D02*
X375920000Y-97790000D01*
X368300000Y-100330000D02*
X367665000Y-100330000D01*
X367665000Y-100330000D02*
X367030000Y-99695000D01*
X402590000Y-100330000D02*
X368300000Y-100330000D01*
X403860000Y-101600000D02*
X402590000Y-100330000D01*
M02*
