G04 #@! TF.FileFunction,Copper,L4,Bot,Signal*
%FSLAX46Y46*%
G04 Gerber Fmt 4.6, Leading zero omitted, Abs format (unit mm)*
G04 Created by KiCad (PCBNEW 4.0.7) date Tue Feb 27 09:37:45 2018*
%MOMM*%
%LPD*%
G01*
G04 APERTURE LIST*
%ADD10C,0.100000*%
%ADD11C,1.600000*%
%ADD12R,1.600000X1.600000*%
%ADD13C,0.600000*%
%ADD14C,2.032000*%
%ADD15C,1.270000*%
%ADD16C,0.152400*%
%ADD17C,0.254000*%
G04 APERTURE END LIST*
D10*
D11*
X401320000Y-68580000D03*
X401320000Y-71120000D03*
D12*
X401320000Y-73660000D03*
D11*
X401320000Y-76200000D03*
X401320000Y-78740000D03*
X401320000Y-81280000D03*
X401320000Y-83820000D03*
X401320000Y-86360000D03*
X401320000Y-88900000D03*
X401320000Y-91440000D03*
X401320000Y-93980000D03*
X401320000Y-96520000D03*
D12*
X401320000Y-99060000D03*
D11*
X401320000Y-101600000D03*
X401320000Y-104140000D03*
X401320000Y-106680000D03*
X401320000Y-109220000D03*
X401320000Y-111760000D03*
X401320000Y-114300000D03*
X401320000Y-116840000D03*
X401320000Y-119380000D03*
X401320000Y-121920000D03*
D12*
X401320000Y-124460000D03*
D11*
X401320000Y-127000000D03*
X401320000Y-129540000D03*
X401320000Y-132080000D03*
X401320000Y-134620000D03*
X401320000Y-137160000D03*
X401320000Y-139700000D03*
X401320000Y-142240000D03*
X401320000Y-144780000D03*
D12*
X401320000Y-147320000D03*
D11*
X403860000Y-68580000D03*
X403860000Y-71120000D03*
D12*
X403860000Y-73660000D03*
D11*
X403860000Y-76200000D03*
X403860000Y-78740000D03*
X403860000Y-81280000D03*
X403860000Y-83820000D03*
X403860000Y-86360000D03*
X403860000Y-88900000D03*
X403860000Y-91440000D03*
X403860000Y-93980000D03*
X403860000Y-96520000D03*
D12*
X403860000Y-99060000D03*
D11*
X403860000Y-101600000D03*
X403860000Y-104140000D03*
X403860000Y-106680000D03*
X403860000Y-109220000D03*
X403860000Y-111760000D03*
X403860000Y-114300000D03*
X403860000Y-116840000D03*
X403860000Y-119380000D03*
X403860000Y-121920000D03*
D12*
X403860000Y-124460000D03*
D11*
X403860000Y-127000000D03*
X403860000Y-129540000D03*
X403860000Y-132080000D03*
X403860000Y-134620000D03*
X403860000Y-137160000D03*
X403860000Y-139700000D03*
X403860000Y-142240000D03*
X406400000Y-68580000D03*
X406400000Y-71120000D03*
D12*
X406400000Y-73660000D03*
D11*
X406400000Y-76200000D03*
X406400000Y-78740000D03*
X406400000Y-81280000D03*
X406400000Y-83820000D03*
X406400000Y-86360000D03*
X406400000Y-88900000D03*
X406400000Y-91440000D03*
X406400000Y-93980000D03*
X406400000Y-96520000D03*
D12*
X406400000Y-99060000D03*
D11*
X406400000Y-101600000D03*
X406400000Y-104140000D03*
X406400000Y-106680000D03*
X406400000Y-109220000D03*
X406400000Y-111760000D03*
X406400000Y-114300000D03*
D12*
X406400000Y-116840000D03*
D11*
X406400000Y-119380000D03*
X406400000Y-121920000D03*
D12*
X406400000Y-124460000D03*
D11*
X406400000Y-127000000D03*
X406400000Y-129540000D03*
X406400000Y-132080000D03*
X406400000Y-134620000D03*
X406400000Y-137160000D03*
X406400000Y-139700000D03*
X406400000Y-142240000D03*
D12*
X406400000Y-147320000D03*
D13*
X130810000Y-130810000D03*
X133350000Y-110490000D03*
X142950000Y-139700000D03*
X144145000Y-139700000D03*
X148590000Y-101200000D03*
X129540000Y-101200000D03*
X130810000Y-101200000D03*
X149860000Y-101200000D03*
X130810000Y-98200000D03*
X148590000Y-98200000D03*
X149919759Y-98200000D03*
X129540000Y-98200000D03*
X172720000Y-134620000D03*
X172720000Y-137160000D03*
X196850000Y-129540000D03*
X200660000Y-132080000D03*
X158750000Y-98200000D03*
X176530000Y-98200000D03*
X157480000Y-98200000D03*
X177800000Y-98200000D03*
X176530000Y-101200000D03*
X177800000Y-101200000D03*
X157480000Y-101200000D03*
X158750000Y-101200000D03*
X158750000Y-135890000D03*
X161290000Y-110490000D03*
X204470000Y-98200000D03*
X186690000Y-98200000D03*
X185420000Y-98200000D03*
X205799759Y-98200000D03*
X205740000Y-101200000D03*
X204529759Y-101200000D03*
X186690000Y-101200000D03*
X185420000Y-101200000D03*
X186690000Y-130810000D03*
X189230000Y-127000000D03*
X167640000Y-73660000D03*
X195580000Y-73660000D03*
X223520000Y-73660000D03*
X251460000Y-73660000D03*
X279400000Y-73660000D03*
X307340000Y-73660000D03*
X170180000Y-71120000D03*
X198120000Y-71120000D03*
X226060000Y-71120000D03*
X254000000Y-71120000D03*
X281940000Y-71120000D03*
X309880000Y-71120000D03*
X167640000Y-71120000D03*
X195580000Y-71120000D03*
X223520000Y-71120000D03*
X251460000Y-71120000D03*
X279400000Y-71120000D03*
X307340000Y-71120000D03*
X165100000Y-71120000D03*
X193040000Y-71120000D03*
X220980000Y-71120000D03*
X248920000Y-71120000D03*
X276860000Y-71120000D03*
X304800000Y-71120000D03*
X170180000Y-73660000D03*
X198120000Y-73660000D03*
X226060000Y-73660000D03*
X254000000Y-73660000D03*
X281940000Y-73660000D03*
X309880000Y-73660000D03*
X165100000Y-73660000D03*
X193040000Y-73660000D03*
X220980000Y-73660000D03*
X248920000Y-73660000D03*
X276860000Y-73660000D03*
X304800000Y-73660000D03*
X170180000Y-76200000D03*
X198120000Y-76200000D03*
X226060000Y-76200000D03*
X254000000Y-76200000D03*
X281940000Y-76200000D03*
X309880000Y-76200000D03*
X167640000Y-76200000D03*
X195580000Y-76200000D03*
X223520000Y-76200000D03*
X251460000Y-76200000D03*
X279400000Y-76200000D03*
X307340000Y-76200000D03*
X165100000Y-76200000D03*
X193040000Y-76200000D03*
X220980000Y-76200000D03*
X248920000Y-76200000D03*
X276860000Y-76200000D03*
X304800000Y-76200000D03*
X170180000Y-78740000D03*
X198120000Y-78740000D03*
X226060000Y-78740000D03*
X254000000Y-78740000D03*
X281940000Y-78740000D03*
X309880000Y-78740000D03*
X165100000Y-78740000D03*
X193040000Y-78740000D03*
X220980000Y-78740000D03*
X248920000Y-78740000D03*
X276860000Y-78740000D03*
X304800000Y-78740000D03*
X170180000Y-81280000D03*
X198120000Y-81280000D03*
X226060000Y-81280000D03*
X254000000Y-81280000D03*
X281940000Y-81280000D03*
X309880000Y-81280000D03*
X167640000Y-81280000D03*
X195580000Y-81280000D03*
X223520000Y-81280000D03*
X251460000Y-81280000D03*
X279400000Y-81280000D03*
X307340000Y-81280000D03*
X165100000Y-81280000D03*
X193040000Y-81280000D03*
X220980000Y-81280000D03*
X248920000Y-81280000D03*
X276860000Y-81280000D03*
X304800000Y-81280000D03*
X139700000Y-73660000D03*
X142240000Y-71120000D03*
X139700000Y-71120000D03*
X137160000Y-71120000D03*
X142240000Y-73660000D03*
X137160000Y-73660000D03*
X142240000Y-76200000D03*
X139700000Y-76200000D03*
X137160000Y-76200000D03*
X142240000Y-78740000D03*
X137160000Y-78740000D03*
X142240000Y-81280000D03*
X139700000Y-81280000D03*
X137160000Y-81280000D03*
X335280000Y-73660000D03*
X337820000Y-71120000D03*
X335280000Y-71120000D03*
X332740000Y-71120000D03*
X337820000Y-73660000D03*
X332740000Y-73660000D03*
X337820000Y-76200000D03*
X335280000Y-76200000D03*
X332740000Y-76200000D03*
X337820000Y-78740000D03*
X332740000Y-78740000D03*
X337820000Y-81280000D03*
X335280000Y-81280000D03*
X332740000Y-81280000D03*
X363220000Y-76200000D03*
X363220000Y-73660000D03*
X363220000Y-71120000D03*
X360680000Y-71120000D03*
X360680000Y-73660000D03*
X360680000Y-76200000D03*
X360680000Y-78740000D03*
X360680000Y-81280000D03*
X363220000Y-81280000D03*
X365760000Y-81280000D03*
X365760000Y-78740000D03*
X365760000Y-76200000D03*
X365760000Y-73660000D03*
X365760000Y-71120000D03*
X363220000Y-71120000D03*
X214630000Y-98200000D03*
X232410000Y-98200000D03*
X213360000Y-98200000D03*
X233739759Y-98200000D03*
X232410000Y-101200000D03*
X214630000Y-101200000D03*
X233680000Y-101200000D03*
X213360000Y-101200000D03*
X242570000Y-98200000D03*
X260350000Y-98200000D03*
X241300000Y-98200000D03*
X261679759Y-98200000D03*
X242570000Y-101200000D03*
X260350000Y-101200000D03*
X261620000Y-101200000D03*
X241300000Y-101200000D03*
X270510000Y-98200000D03*
X288290000Y-98200000D03*
X269240000Y-98200000D03*
X289619759Y-98200000D03*
X289560000Y-101200000D03*
X288290000Y-101200000D03*
X270510000Y-101200000D03*
X269240000Y-101200000D03*
X298450000Y-98200000D03*
X316230000Y-98200000D03*
X297180000Y-98200000D03*
X317559759Y-98200000D03*
X316230000Y-101200000D03*
X317559759Y-101200000D03*
X298450000Y-101200000D03*
X297180000Y-101200000D03*
X344170000Y-98200000D03*
X326390000Y-98200000D03*
X325120000Y-98200000D03*
X345440000Y-98200000D03*
X345440000Y-101200000D03*
X325120000Y-101200000D03*
X344170000Y-101200000D03*
X326390000Y-101200000D03*
X354330000Y-98200000D03*
X373439759Y-98200000D03*
X353060000Y-98200000D03*
X372110000Y-98200000D03*
X353060000Y-101200000D03*
X354330000Y-101200000D03*
X373439759Y-101200000D03*
X372110000Y-101200000D03*
X231140000Y-147320000D03*
X175260000Y-147320000D03*
X203200000Y-147320000D03*
X259080000Y-147320000D03*
X287020000Y-147320000D03*
X314960000Y-147320000D03*
X342900000Y-147320000D03*
X370840000Y-147320000D03*
X147320000Y-147320000D03*
X339725000Y-144145000D03*
X144145000Y-144145000D03*
X172085000Y-144145000D03*
X200025000Y-144145000D03*
X227965000Y-144145000D03*
X255905000Y-144145000D03*
X283845000Y-144145000D03*
X311785000Y-144145000D03*
X367665000Y-144145000D03*
X217170000Y-125730000D03*
X245110000Y-120650000D03*
X273050000Y-115570000D03*
X298450000Y-110490000D03*
X325120000Y-106680000D03*
X349885000Y-100330000D03*
X217170000Y-123190000D03*
X273050000Y-113030000D03*
X245110000Y-118110000D03*
X326390000Y-102870000D03*
X298450000Y-107950000D03*
X350520000Y-96520000D03*
X224790000Y-124460000D03*
X228600000Y-127000000D03*
X252730000Y-119380000D03*
X256540000Y-121920000D03*
X280670000Y-114300000D03*
X283210000Y-116840000D03*
X308610000Y-109220000D03*
X311150000Y-111760000D03*
X336550000Y-104140000D03*
X339090000Y-106680000D03*
X364490000Y-99695000D03*
X367030000Y-99695000D03*
X147116800Y-86258400D03*
X143154400Y-82296000D03*
X141325600Y-82600800D03*
X149250400Y-82600800D03*
X372770400Y-82600800D03*
X344830400Y-82600800D03*
X149250400Y-82600800D03*
X177190400Y-82600800D03*
X205130400Y-82600800D03*
X233070400Y-82600800D03*
X261010400Y-82600800D03*
X288950400Y-82600800D03*
X316890400Y-82600800D03*
X171094400Y-82296000D03*
X199034400Y-82296000D03*
X226974400Y-82296000D03*
X254914400Y-82296000D03*
X282854400Y-82296000D03*
X310794400Y-82296000D03*
X338734400Y-82296000D03*
X175056800Y-86258400D03*
X202996800Y-86258400D03*
X230936800Y-86258400D03*
X258876800Y-86258400D03*
X286816800Y-86258400D03*
X314756800Y-86258400D03*
X342696800Y-86258400D03*
X169265600Y-82600800D03*
X197205600Y-82600800D03*
X225145600Y-82600800D03*
X253085600Y-82600800D03*
X281025600Y-82600800D03*
X308965600Y-82600800D03*
X336905600Y-82600800D03*
X366674400Y-82296000D03*
X370636800Y-86258400D03*
X364845600Y-82600800D03*
X372770400Y-82600800D03*
D14*
X374650000Y-154940000D02*
X372110000Y-154940000D01*
X372110000Y-154940000D02*
X160020000Y-154940000D01*
X401320000Y-142240000D02*
X388620000Y-142240000D01*
X388620000Y-142240000D02*
X375920000Y-154940000D01*
X375920000Y-154940000D02*
X372110000Y-154940000D01*
X160020000Y-154940000D02*
X149860000Y-144780000D01*
X149860000Y-144780000D02*
X149860000Y-101200000D01*
X148590000Y-101200000D02*
X129540000Y-101200000D01*
X149860000Y-101200000D02*
X148590000Y-101200000D01*
X130810000Y-101200000D02*
X129540000Y-101200000D01*
X369570000Y-152400000D02*
X168910000Y-152400000D01*
X152400000Y-143510000D02*
X161290000Y-152400000D01*
X168910000Y-152400000D02*
X162560000Y-152400000D01*
X149919759Y-98200000D02*
X151540000Y-98200000D01*
X151540000Y-98200000D02*
X152400000Y-99060000D01*
X152400000Y-99060000D02*
X152400000Y-143510000D01*
X161290000Y-152400000D02*
X168910000Y-152400000D01*
X372110000Y-152400000D02*
X369570000Y-152400000D01*
X387350000Y-139700000D02*
X374650000Y-152400000D01*
X374650000Y-152400000D02*
X369570000Y-152400000D01*
X401320000Y-139700000D02*
X387350000Y-139700000D01*
X373380000Y-152400000D02*
X372110000Y-152400000D01*
X130810000Y-98200000D02*
X148590000Y-98200000D01*
X129540000Y-98200000D02*
X130810000Y-98200000D01*
X148590000Y-98200000D02*
X149919759Y-98200000D01*
X372640582Y-152400000D02*
X372110000Y-152400000D01*
X180340000Y-99060000D02*
X180340000Y-114300000D01*
X180340000Y-114300000D02*
X180340000Y-115570000D01*
X200642718Y-146050000D02*
X181610000Y-146050000D01*
X181610000Y-146050000D02*
X180340000Y-144780000D01*
X227330000Y-146050000D02*
X205757282Y-146050000D01*
X205757282Y-146050000D02*
X204441281Y-144733999D01*
X180340000Y-144780000D02*
X180340000Y-114300000D01*
X204441281Y-144733999D02*
X201958719Y-144733999D01*
X201958719Y-144733999D02*
X200642718Y-146050000D01*
X401320000Y-134620000D02*
X384810000Y-134620000D01*
X384810000Y-134620000D02*
X374823001Y-144606999D01*
X374823001Y-144606999D02*
X369725719Y-144606999D01*
X372283001Y-144606999D02*
X370840000Y-144606999D01*
X370840000Y-144606999D02*
X369725719Y-144606999D01*
X373206999Y-144606999D02*
X370840000Y-144606999D01*
X228195642Y-146050000D02*
X227330000Y-146050000D01*
X232381281Y-144733999D02*
X229898719Y-144733999D01*
X233697282Y-146050000D02*
X232381281Y-144733999D01*
X229898719Y-144733999D02*
X228582718Y-146050000D01*
X228582718Y-146050000D02*
X227330000Y-146050000D01*
X257838719Y-144733999D02*
X256522718Y-146050000D01*
X260321281Y-144733999D02*
X257838719Y-144733999D01*
X256522718Y-146050000D02*
X233697282Y-146050000D01*
X261637282Y-146050000D02*
X260321281Y-144733999D01*
X176530000Y-98200000D02*
X157480000Y-98200000D01*
X157480000Y-98200000D02*
X158750000Y-98200000D01*
X176530000Y-98200000D02*
X177859759Y-98200000D01*
X284462718Y-146050000D02*
X261637282Y-146050000D01*
X367895642Y-146050000D02*
X367030000Y-146050000D01*
X368282718Y-146050000D02*
X367030000Y-146050000D01*
X367030000Y-146050000D02*
X345457282Y-146050000D01*
X369725719Y-144606999D02*
X368282718Y-146050000D01*
X317517282Y-146050000D02*
X316201281Y-144733999D01*
X313718719Y-144733999D02*
X312402718Y-146050000D01*
X340342718Y-146050000D02*
X317517282Y-146050000D01*
X285778719Y-144733999D02*
X284462718Y-146050000D01*
X345457282Y-146050000D02*
X344141281Y-144733999D01*
X344141281Y-144733999D02*
X341658719Y-144733999D01*
X341658719Y-144733999D02*
X340342718Y-146050000D01*
X312402718Y-146050000D02*
X289577282Y-146050000D01*
X316201281Y-144733999D02*
X313718719Y-144733999D01*
X289577282Y-146050000D02*
X288261281Y-144733999D01*
X288261281Y-144733999D02*
X285778719Y-144733999D01*
X177859759Y-98200000D02*
X179480000Y-98200000D01*
X179480000Y-98200000D02*
X180340000Y-99060000D01*
X372081281Y-149906001D02*
X370840000Y-149906001D01*
X370840000Y-149906001D02*
X181656001Y-149906001D01*
X386080000Y-137160000D02*
X373333999Y-149906001D01*
X373333999Y-149906001D02*
X370840000Y-149906001D01*
X387350000Y-137160000D02*
X386080000Y-137160000D01*
X387350000Y-137160000D02*
X387350000Y-137177282D01*
X401320000Y-137160000D02*
X387350000Y-137160000D01*
X177800000Y-146050000D02*
X177800000Y-143510000D01*
X181656001Y-149906001D02*
X177800000Y-146050000D01*
X177800000Y-143510000D02*
X177800000Y-101200000D01*
X177800000Y-101200000D02*
X157480000Y-101200000D01*
X158750000Y-101200000D02*
X157480000Y-101200000D01*
X208280000Y-99060000D02*
X208280000Y-114300000D01*
X208280000Y-114300000D02*
X208280000Y-115570000D01*
X210820000Y-139700000D02*
X208280000Y-137160000D01*
X365760000Y-139700000D02*
X210820000Y-139700000D01*
X208280000Y-137160000D02*
X208280000Y-114300000D01*
X367030000Y-139700000D02*
X365760000Y-139700000D01*
X401320000Y-129540000D02*
X382270000Y-129540000D01*
X382270000Y-129540000D02*
X372110000Y-139700000D01*
X372110000Y-139700000D02*
X365760000Y-139700000D01*
X369570000Y-139700000D02*
X367030000Y-139700000D01*
X370840000Y-139700000D02*
X367030000Y-139700000D01*
X185420000Y-98200000D02*
X205972760Y-98200000D01*
X205972760Y-98200000D02*
X205799759Y-98200000D01*
X205799759Y-98200000D02*
X207420000Y-98200000D01*
X207420000Y-98200000D02*
X208280000Y-99060000D01*
X369570000Y-142240000D02*
X367030000Y-142240000D01*
X383540000Y-132080000D02*
X373380000Y-142240000D01*
X367030000Y-142240000D02*
X209550000Y-142240000D01*
X401320000Y-132080000D02*
X383540000Y-132080000D01*
X373380000Y-142240000D02*
X367030000Y-142240000D01*
X370840000Y-142240000D02*
X369570000Y-142240000D01*
X372110000Y-142240000D02*
X369570000Y-142240000D01*
X205740000Y-101200000D02*
X205740000Y-138430000D01*
X205740000Y-101200000D02*
X185420000Y-101200000D01*
X186690000Y-101200000D02*
X185420000Y-101200000D01*
X205740000Y-138430000D02*
X209550000Y-142240000D01*
X406400000Y-91440000D02*
X393700000Y-91440000D01*
X393700000Y-91440000D02*
X391160000Y-88900000D01*
X406400000Y-88900000D02*
X391160000Y-88900000D01*
D15*
X170180000Y-71120000D02*
X170180000Y-73660000D01*
X198120000Y-71120000D02*
X198120000Y-73660000D01*
X226060000Y-71120000D02*
X226060000Y-73660000D01*
X254000000Y-71120000D02*
X254000000Y-73660000D01*
X281940000Y-71120000D02*
X281940000Y-73660000D01*
X309880000Y-71120000D02*
X309880000Y-73660000D01*
X165100000Y-73660000D02*
X165100000Y-71120000D01*
X193040000Y-73660000D02*
X193040000Y-71120000D01*
X220980000Y-73660000D02*
X220980000Y-71120000D01*
X248920000Y-73660000D02*
X248920000Y-71120000D01*
X276860000Y-73660000D02*
X276860000Y-71120000D01*
X304800000Y-73660000D02*
X304800000Y-71120000D01*
X167640000Y-73660000D02*
X167640000Y-76200000D01*
X195580000Y-73660000D02*
X195580000Y-76200000D01*
X223520000Y-73660000D02*
X223520000Y-76200000D01*
X251460000Y-73660000D02*
X251460000Y-76200000D01*
X279400000Y-73660000D02*
X279400000Y-76200000D01*
X307340000Y-73660000D02*
X307340000Y-76200000D01*
X170180000Y-73660000D02*
X170180000Y-76200000D01*
X198120000Y-73660000D02*
X198120000Y-76200000D01*
X226060000Y-73660000D02*
X226060000Y-76200000D01*
X254000000Y-73660000D02*
X254000000Y-76200000D01*
X281940000Y-73660000D02*
X281940000Y-76200000D01*
X309880000Y-73660000D02*
X309880000Y-76200000D01*
X165100000Y-78740000D02*
X165100000Y-76200000D01*
X193040000Y-78740000D02*
X193040000Y-76200000D01*
X220980000Y-78740000D02*
X220980000Y-76200000D01*
X248920000Y-78740000D02*
X248920000Y-76200000D01*
X276860000Y-78740000D02*
X276860000Y-76200000D01*
X304800000Y-78740000D02*
X304800000Y-76200000D01*
X170180000Y-78740000D02*
X170180000Y-81280000D01*
X198120000Y-78740000D02*
X198120000Y-81280000D01*
X226060000Y-78740000D02*
X226060000Y-81280000D01*
X254000000Y-78740000D02*
X254000000Y-81280000D01*
X281940000Y-78740000D02*
X281940000Y-81280000D01*
X309880000Y-78740000D02*
X309880000Y-81280000D01*
X167640000Y-81280000D02*
X165100000Y-81280000D01*
X195580000Y-81280000D02*
X193040000Y-81280000D01*
X223520000Y-81280000D02*
X220980000Y-81280000D01*
X251460000Y-81280000D02*
X248920000Y-81280000D01*
X279400000Y-81280000D02*
X276860000Y-81280000D01*
X307340000Y-81280000D02*
X304800000Y-81280000D01*
X142240000Y-71120000D02*
X142240000Y-73660000D01*
X137160000Y-73660000D02*
X137160000Y-71120000D01*
X139700000Y-73660000D02*
X139700000Y-76200000D01*
X142240000Y-73660000D02*
X142240000Y-76200000D01*
X137160000Y-78740000D02*
X137160000Y-76200000D01*
X139700000Y-81280000D02*
X137160000Y-81280000D01*
D14*
X170180000Y-73660000D02*
X142240000Y-73660000D01*
X198120000Y-73660000D02*
X170180000Y-73660000D01*
X226060000Y-73660000D02*
X198120000Y-73660000D01*
X254000000Y-73660000D02*
X226060000Y-73660000D01*
X281940000Y-73660000D02*
X254000000Y-73660000D01*
X309880000Y-73660000D02*
X281940000Y-73660000D01*
X337820000Y-73660000D02*
X309880000Y-73660000D01*
D15*
X337820000Y-71120000D02*
X337820000Y-73660000D01*
X332740000Y-73660000D02*
X332740000Y-71120000D01*
X335280000Y-73660000D02*
X335280000Y-76200000D01*
X337820000Y-73660000D02*
X337820000Y-76200000D01*
X332740000Y-78740000D02*
X332740000Y-76200000D01*
X337820000Y-78740000D02*
X337820000Y-81280000D01*
X335280000Y-81280000D02*
X332740000Y-81280000D01*
D14*
X365760000Y-73660000D02*
X337820000Y-73660000D01*
X365760000Y-73660000D02*
X375628000Y-73660000D01*
D15*
X363220000Y-73660000D02*
X363220000Y-76200000D01*
X360680000Y-73660000D02*
X360680000Y-71120000D01*
X360680000Y-78740000D02*
X360680000Y-76200000D01*
X363220000Y-81280000D02*
X360680000Y-81280000D01*
X365760000Y-78740000D02*
X365760000Y-81280000D01*
X365760000Y-73660000D02*
X365760000Y-76200000D01*
X365760000Y-71120000D02*
X365760000Y-73660000D01*
D14*
X391160000Y-88900000D02*
X375628000Y-73660000D01*
X236220000Y-99060000D02*
X236220000Y-114300000D01*
X236220000Y-114300000D02*
X236220000Y-115570000D01*
X340360000Y-129540000D02*
X238760000Y-129540000D01*
X238760000Y-129540000D02*
X236220000Y-127000000D01*
X236220000Y-127000000D02*
X236220000Y-114300000D01*
X340360000Y-129540000D02*
X365760000Y-129540000D01*
X365760000Y-129540000D02*
X368300000Y-129540000D01*
X401320000Y-124460000D02*
X379730000Y-124460000D01*
X379730000Y-124460000D02*
X374650000Y-129540000D01*
X374650000Y-129540000D02*
X365760000Y-129540000D01*
X368300000Y-129540000D02*
X372110000Y-129540000D01*
X373380000Y-129540000D02*
X368300000Y-129540000D01*
X213360000Y-98200000D02*
X233739759Y-98200000D01*
X334010000Y-129540000D02*
X340360000Y-129540000D01*
X233739759Y-98200000D02*
X235360000Y-98200000D01*
X235360000Y-98200000D02*
X236220000Y-99060000D01*
X401320000Y-127000000D02*
X381000000Y-127000000D01*
X381000000Y-127000000D02*
X370840000Y-137160000D01*
X370840000Y-137160000D02*
X365760000Y-137160000D01*
X368300000Y-137160000D02*
X365760000Y-137160000D01*
X365760000Y-137160000D02*
X240030000Y-137160000D01*
X369570000Y-137160000D02*
X365760000Y-137160000D01*
X233680000Y-104140000D02*
X233680000Y-101200000D01*
X233680000Y-101200000D02*
X213360000Y-101200000D01*
X240030000Y-137160000D02*
X233680000Y-130810000D01*
X233680000Y-130810000D02*
X233680000Y-104140000D01*
X264160000Y-99060000D02*
X264160000Y-111760000D01*
X264160000Y-111760000D02*
X264160000Y-115570000D01*
X293370000Y-124460000D02*
X266700000Y-124460000D01*
X266700000Y-124460000D02*
X264160000Y-121920000D01*
X264160000Y-121920000D02*
X264160000Y-111760000D01*
X367030000Y-124460000D02*
X363220000Y-124460000D01*
X363220000Y-124460000D02*
X309880000Y-124460000D01*
X401320000Y-119380000D02*
X377190000Y-119380000D01*
X377190000Y-119380000D02*
X372110000Y-124460000D01*
X372110000Y-124460000D02*
X363220000Y-124460000D01*
X369570000Y-124460000D02*
X367030000Y-124460000D01*
X367030000Y-124460000D02*
X370840000Y-124460000D01*
X261679759Y-98200000D02*
X241300000Y-98200000D01*
X299720000Y-124460000D02*
X293370000Y-124460000D01*
X309880000Y-124460000D02*
X293370000Y-124460000D01*
X309880000Y-124460000D02*
X301855642Y-124460000D01*
X261679759Y-98200000D02*
X263300000Y-98200000D01*
X263300000Y-98200000D02*
X264160000Y-99060000D01*
X368300000Y-127000000D02*
X364490000Y-127000000D01*
X373380000Y-127000000D02*
X364490000Y-127000000D01*
X364490000Y-127000000D02*
X313690000Y-127000000D01*
X401320000Y-121920000D02*
X378460000Y-121920000D01*
X378460000Y-121920000D02*
X373380000Y-127000000D01*
X370840000Y-127000000D02*
X368300000Y-127000000D01*
X372110000Y-127000000D02*
X368300000Y-127000000D01*
X261620000Y-120650000D02*
X261620000Y-101200000D01*
X260350000Y-101200000D02*
X241300000Y-101200000D01*
X295910000Y-127000000D02*
X265430000Y-127000000D01*
X299720000Y-127000000D02*
X295910000Y-127000000D01*
X295910000Y-127000000D02*
X313690000Y-127000000D01*
X265430000Y-127000000D02*
X261620000Y-123190000D01*
X261620000Y-123190000D02*
X261620000Y-120650000D01*
X313690000Y-127000000D02*
X301855642Y-127000000D01*
X289619759Y-98200000D02*
X291240000Y-98200000D01*
X291240000Y-98200000D02*
X292100000Y-99060000D01*
X292100000Y-99060000D02*
X292100000Y-115570000D01*
X292100000Y-115570000D02*
X293370000Y-116840000D01*
X293370000Y-116840000D02*
X295910000Y-116840000D01*
X295910000Y-116840000D02*
X364490000Y-116840000D01*
X370840000Y-116840000D02*
X367030000Y-116840000D01*
X367030000Y-116840000D02*
X364490000Y-116840000D01*
X372110000Y-116840000D02*
X367030000Y-116840000D01*
X401320000Y-114300000D02*
X374650000Y-114300000D01*
X374650000Y-114300000D02*
X372110000Y-116840000D01*
X369570000Y-116840000D02*
X364490000Y-116840000D01*
X289619759Y-98200000D02*
X269240000Y-98200000D01*
X294640000Y-121920000D02*
X364490000Y-121920000D01*
X375920000Y-116840000D02*
X370840000Y-121920000D01*
X364490000Y-121920000D02*
X367030000Y-121920000D01*
X401320000Y-116840000D02*
X375920000Y-116840000D01*
X370840000Y-121920000D02*
X364490000Y-121920000D01*
X367030000Y-121920000D02*
X368300000Y-121920000D01*
X369570000Y-121920000D02*
X367030000Y-121920000D01*
X289560000Y-116840000D02*
X289560000Y-104140000D01*
X294640000Y-121920000D02*
X289560000Y-116840000D01*
X289560000Y-104140000D02*
X289560000Y-101200000D01*
X289560000Y-101200000D02*
X269240000Y-101200000D01*
X270510000Y-101200000D02*
X269240000Y-101200000D01*
X320040000Y-107950000D02*
X320040000Y-99060000D01*
X320040000Y-99060000D02*
X319180000Y-98200000D01*
X323850000Y-111760000D02*
X320040000Y-107950000D01*
X372110000Y-109220000D02*
X369570000Y-111760000D01*
X369570000Y-111760000D02*
X365760000Y-111760000D01*
X401320000Y-109220000D02*
X372110000Y-109220000D01*
X367030000Y-111760000D02*
X365760000Y-111760000D01*
X365760000Y-111760000D02*
X323850000Y-111760000D01*
X368300000Y-111760000D02*
X365760000Y-111760000D01*
X297180000Y-98200000D02*
X317559759Y-98200000D01*
X319180000Y-98200000D02*
X317732760Y-98200000D01*
X373380000Y-111760000D02*
X370840000Y-114300000D01*
X370840000Y-114300000D02*
X369570000Y-114300000D01*
X401320000Y-111760000D02*
X373380000Y-111760000D01*
X368300000Y-114300000D02*
X367030000Y-114300000D01*
X367030000Y-114300000D02*
X322580000Y-114300000D01*
X369570000Y-114300000D02*
X367030000Y-114300000D01*
X317500000Y-109220000D02*
X317559759Y-109160241D01*
X317559759Y-109160241D02*
X317559759Y-101200000D01*
X322580000Y-114300000D02*
X317500000Y-109220000D01*
X316230000Y-101200000D02*
X297180000Y-101200000D01*
X317559759Y-101200000D02*
X316230000Y-101200000D01*
X401320000Y-104140000D02*
X369570000Y-104140000D01*
X367030000Y-106680000D02*
X351790000Y-106680000D01*
X369570000Y-104140000D02*
X367030000Y-106680000D01*
X351790000Y-106680000D02*
X347980000Y-102870000D01*
X347980000Y-99060000D02*
X347120000Y-98200000D01*
X347980000Y-102870000D02*
X347980000Y-99060000D01*
X347120000Y-98200000D02*
X345672760Y-98200000D01*
X326390000Y-98200000D02*
X325120000Y-98200000D01*
X326390000Y-98200000D02*
X344170000Y-98200000D01*
X368300000Y-109220000D02*
X350520000Y-109220000D01*
X370840000Y-106680000D02*
X368300000Y-109220000D01*
X401320000Y-106680000D02*
X370840000Y-106680000D01*
X350520000Y-109220000D02*
X345672760Y-104372760D01*
X345672760Y-101892641D02*
X345672760Y-101200000D01*
X345672760Y-104372760D02*
X345672760Y-101892641D01*
X345499759Y-101200000D02*
X325120000Y-101200000D01*
X373439759Y-98200000D02*
X353060000Y-98200000D01*
X401320000Y-99060000D02*
X374299759Y-99060000D01*
X374299759Y-99060000D02*
X373439759Y-98200000D01*
X353060000Y-98200000D02*
X354330000Y-98200000D01*
X401320000Y-101600000D02*
X373839759Y-101600000D01*
X373839759Y-101600000D02*
X373439759Y-101200000D01*
X353060000Y-101200000D02*
X373439759Y-101200000D01*
D16*
X141325600Y-82600800D02*
X142140528Y-82600800D01*
X145288000Y-82600800D02*
X149250400Y-82600800D01*
X144068800Y-81381600D02*
X145288000Y-82600800D01*
X142140528Y-82600800D02*
X143359728Y-81381600D01*
X143359728Y-81381600D02*
X144068800Y-81381600D01*
X340868000Y-82600800D02*
X343814400Y-82600800D01*
X343814400Y-82600800D02*
X344830400Y-82600800D01*
X171299728Y-81381600D02*
X172008800Y-81381600D01*
X199239728Y-81381600D02*
X199948800Y-81381600D01*
X227179728Y-81381600D02*
X227888800Y-81381600D01*
X255119728Y-81381600D02*
X255828800Y-81381600D01*
X283059728Y-81381600D02*
X283768800Y-81381600D01*
X310999728Y-81381600D02*
X311708800Y-81381600D01*
X338939728Y-81381600D02*
X339648800Y-81381600D01*
X172008800Y-81381600D02*
X173228000Y-82600800D01*
X199948800Y-81381600D02*
X201168000Y-82600800D01*
X227888800Y-81381600D02*
X229108000Y-82600800D01*
X255828800Y-81381600D02*
X257048000Y-82600800D01*
X283768800Y-81381600D02*
X284988000Y-82600800D01*
X311708800Y-81381600D02*
X312928000Y-82600800D01*
X339648800Y-81381600D02*
X340868000Y-82600800D01*
X170080528Y-82600800D02*
X171299728Y-81381600D01*
X198020528Y-82600800D02*
X199239728Y-81381600D01*
X225960528Y-82600800D02*
X227179728Y-81381600D01*
X253900528Y-82600800D02*
X255119728Y-81381600D01*
X281840528Y-82600800D02*
X283059728Y-81381600D01*
X309780528Y-82600800D02*
X310999728Y-81381600D01*
X337720528Y-82600800D02*
X338939728Y-81381600D01*
X173228000Y-82600800D02*
X177190400Y-82600800D01*
X201168000Y-82600800D02*
X205130400Y-82600800D01*
X229108000Y-82600800D02*
X233070400Y-82600800D01*
X257048000Y-82600800D02*
X261010400Y-82600800D01*
X284988000Y-82600800D02*
X288950400Y-82600800D01*
X312928000Y-82600800D02*
X316890400Y-82600800D01*
X169265600Y-82600800D02*
X170080528Y-82600800D01*
X197205600Y-82600800D02*
X198020528Y-82600800D01*
X225145600Y-82600800D02*
X225960528Y-82600800D01*
X253085600Y-82600800D02*
X253900528Y-82600800D01*
X281025600Y-82600800D02*
X281840528Y-82600800D01*
X308965600Y-82600800D02*
X309780528Y-82600800D01*
X336905600Y-82600800D02*
X337720528Y-82600800D01*
X366879728Y-81381600D02*
X367588800Y-81381600D01*
X364845600Y-82600800D02*
X365660528Y-82600800D01*
X365660528Y-82600800D02*
X366879728Y-81381600D01*
X368808000Y-82600800D02*
X372770400Y-82600800D01*
X367588800Y-81381600D02*
X368808000Y-82600800D01*
D17*
G36*
X143383000Y-80670400D02*
X143359728Y-80670400D01*
X143132718Y-80715555D01*
X143087563Y-80724537D01*
X142856834Y-80878706D01*
X141891399Y-81844141D01*
X141855927Y-81808608D01*
X141512399Y-81665962D01*
X141140433Y-81665638D01*
X140796657Y-81807683D01*
X140533408Y-82070473D01*
X140390762Y-82414001D01*
X140390754Y-82423000D01*
X136017000Y-82423000D01*
X136017000Y-78964775D01*
X138564803Y-78964775D01*
X138737233Y-79382086D01*
X139056235Y-79701645D01*
X139473244Y-79874803D01*
X139924775Y-79875197D01*
X140342086Y-79702767D01*
X140661645Y-79383765D01*
X140834803Y-78966756D01*
X140835197Y-78515225D01*
X140662767Y-78097914D01*
X140343765Y-77778355D01*
X139926756Y-77605197D01*
X139475225Y-77604803D01*
X139057914Y-77777233D01*
X138738355Y-78096235D01*
X138565197Y-78513244D01*
X138564803Y-78964775D01*
X136017000Y-78964775D01*
X136017000Y-69977000D01*
X143383000Y-69977000D01*
X143383000Y-80670400D01*
X143383000Y-80670400D01*
G37*
X143383000Y-80670400D02*
X143359728Y-80670400D01*
X143132718Y-80715555D01*
X143087563Y-80724537D01*
X142856834Y-80878706D01*
X141891399Y-81844141D01*
X141855927Y-81808608D01*
X141512399Y-81665962D01*
X141140433Y-81665638D01*
X140796657Y-81807683D01*
X140533408Y-82070473D01*
X140390762Y-82414001D01*
X140390754Y-82423000D01*
X136017000Y-82423000D01*
X136017000Y-78964775D01*
X138564803Y-78964775D01*
X138737233Y-79382086D01*
X139056235Y-79701645D01*
X139473244Y-79874803D01*
X139924775Y-79875197D01*
X140342086Y-79702767D01*
X140661645Y-79383765D01*
X140834803Y-78966756D01*
X140835197Y-78515225D01*
X140662767Y-78097914D01*
X140343765Y-77778355D01*
X139926756Y-77605197D01*
X139475225Y-77604803D01*
X139057914Y-77777233D01*
X138738355Y-78096235D01*
X138565197Y-78513244D01*
X138564803Y-78964775D01*
X136017000Y-78964775D01*
X136017000Y-69977000D01*
X143383000Y-69977000D01*
X143383000Y-80670400D01*
G36*
X171323000Y-80670400D02*
X171299728Y-80670400D01*
X171072718Y-80715555D01*
X171027563Y-80724537D01*
X170796834Y-80878706D01*
X169831399Y-81844141D01*
X169795927Y-81808608D01*
X169452399Y-81665962D01*
X169080433Y-81665638D01*
X168736657Y-81807683D01*
X168473408Y-82070473D01*
X168330762Y-82414001D01*
X168330754Y-82423000D01*
X163957000Y-82423000D01*
X163957000Y-78964775D01*
X166504803Y-78964775D01*
X166677233Y-79382086D01*
X166996235Y-79701645D01*
X167413244Y-79874803D01*
X167864775Y-79875197D01*
X168282086Y-79702767D01*
X168601645Y-79383765D01*
X168774803Y-78966756D01*
X168775197Y-78515225D01*
X168602767Y-78097914D01*
X168283765Y-77778355D01*
X167866756Y-77605197D01*
X167415225Y-77604803D01*
X166997914Y-77777233D01*
X166678355Y-78096235D01*
X166505197Y-78513244D01*
X166504803Y-78964775D01*
X163957000Y-78964775D01*
X163957000Y-69977000D01*
X171323000Y-69977000D01*
X171323000Y-80670400D01*
X171323000Y-80670400D01*
G37*
X171323000Y-80670400D02*
X171299728Y-80670400D01*
X171072718Y-80715555D01*
X171027563Y-80724537D01*
X170796834Y-80878706D01*
X169831399Y-81844141D01*
X169795927Y-81808608D01*
X169452399Y-81665962D01*
X169080433Y-81665638D01*
X168736657Y-81807683D01*
X168473408Y-82070473D01*
X168330762Y-82414001D01*
X168330754Y-82423000D01*
X163957000Y-82423000D01*
X163957000Y-78964775D01*
X166504803Y-78964775D01*
X166677233Y-79382086D01*
X166996235Y-79701645D01*
X167413244Y-79874803D01*
X167864775Y-79875197D01*
X168282086Y-79702767D01*
X168601645Y-79383765D01*
X168774803Y-78966756D01*
X168775197Y-78515225D01*
X168602767Y-78097914D01*
X168283765Y-77778355D01*
X167866756Y-77605197D01*
X167415225Y-77604803D01*
X166997914Y-77777233D01*
X166678355Y-78096235D01*
X166505197Y-78513244D01*
X166504803Y-78964775D01*
X163957000Y-78964775D01*
X163957000Y-69977000D01*
X171323000Y-69977000D01*
X171323000Y-80670400D01*
G36*
X199263000Y-80670400D02*
X199239728Y-80670400D01*
X199012718Y-80715555D01*
X198967563Y-80724537D01*
X198736834Y-80878706D01*
X197771399Y-81844141D01*
X197735927Y-81808608D01*
X197392399Y-81665962D01*
X197020433Y-81665638D01*
X196676657Y-81807683D01*
X196413408Y-82070473D01*
X196270762Y-82414001D01*
X196270754Y-82423000D01*
X191897000Y-82423000D01*
X191897000Y-78964775D01*
X194444803Y-78964775D01*
X194617233Y-79382086D01*
X194936235Y-79701645D01*
X195353244Y-79874803D01*
X195804775Y-79875197D01*
X196222086Y-79702767D01*
X196541645Y-79383765D01*
X196714803Y-78966756D01*
X196715197Y-78515225D01*
X196542767Y-78097914D01*
X196223765Y-77778355D01*
X195806756Y-77605197D01*
X195355225Y-77604803D01*
X194937914Y-77777233D01*
X194618355Y-78096235D01*
X194445197Y-78513244D01*
X194444803Y-78964775D01*
X191897000Y-78964775D01*
X191897000Y-69977000D01*
X199263000Y-69977000D01*
X199263000Y-80670400D01*
X199263000Y-80670400D01*
G37*
X199263000Y-80670400D02*
X199239728Y-80670400D01*
X199012718Y-80715555D01*
X198967563Y-80724537D01*
X198736834Y-80878706D01*
X197771399Y-81844141D01*
X197735927Y-81808608D01*
X197392399Y-81665962D01*
X197020433Y-81665638D01*
X196676657Y-81807683D01*
X196413408Y-82070473D01*
X196270762Y-82414001D01*
X196270754Y-82423000D01*
X191897000Y-82423000D01*
X191897000Y-78964775D01*
X194444803Y-78964775D01*
X194617233Y-79382086D01*
X194936235Y-79701645D01*
X195353244Y-79874803D01*
X195804775Y-79875197D01*
X196222086Y-79702767D01*
X196541645Y-79383765D01*
X196714803Y-78966756D01*
X196715197Y-78515225D01*
X196542767Y-78097914D01*
X196223765Y-77778355D01*
X195806756Y-77605197D01*
X195355225Y-77604803D01*
X194937914Y-77777233D01*
X194618355Y-78096235D01*
X194445197Y-78513244D01*
X194444803Y-78964775D01*
X191897000Y-78964775D01*
X191897000Y-69977000D01*
X199263000Y-69977000D01*
X199263000Y-80670400D01*
G36*
X227203000Y-80670400D02*
X227179728Y-80670400D01*
X226952718Y-80715555D01*
X226907563Y-80724537D01*
X226676834Y-80878706D01*
X225711399Y-81844141D01*
X225675927Y-81808608D01*
X225332399Y-81665962D01*
X224960433Y-81665638D01*
X224616657Y-81807683D01*
X224353408Y-82070473D01*
X224210762Y-82414001D01*
X224210754Y-82423000D01*
X219837000Y-82423000D01*
X219837000Y-78964775D01*
X222384803Y-78964775D01*
X222557233Y-79382086D01*
X222876235Y-79701645D01*
X223293244Y-79874803D01*
X223744775Y-79875197D01*
X224162086Y-79702767D01*
X224481645Y-79383765D01*
X224654803Y-78966756D01*
X224655197Y-78515225D01*
X224482767Y-78097914D01*
X224163765Y-77778355D01*
X223746756Y-77605197D01*
X223295225Y-77604803D01*
X222877914Y-77777233D01*
X222558355Y-78096235D01*
X222385197Y-78513244D01*
X222384803Y-78964775D01*
X219837000Y-78964775D01*
X219837000Y-69977000D01*
X227203000Y-69977000D01*
X227203000Y-80670400D01*
X227203000Y-80670400D01*
G37*
X227203000Y-80670400D02*
X227179728Y-80670400D01*
X226952718Y-80715555D01*
X226907563Y-80724537D01*
X226676834Y-80878706D01*
X225711399Y-81844141D01*
X225675927Y-81808608D01*
X225332399Y-81665962D01*
X224960433Y-81665638D01*
X224616657Y-81807683D01*
X224353408Y-82070473D01*
X224210762Y-82414001D01*
X224210754Y-82423000D01*
X219837000Y-82423000D01*
X219837000Y-78964775D01*
X222384803Y-78964775D01*
X222557233Y-79382086D01*
X222876235Y-79701645D01*
X223293244Y-79874803D01*
X223744775Y-79875197D01*
X224162086Y-79702767D01*
X224481645Y-79383765D01*
X224654803Y-78966756D01*
X224655197Y-78515225D01*
X224482767Y-78097914D01*
X224163765Y-77778355D01*
X223746756Y-77605197D01*
X223295225Y-77604803D01*
X222877914Y-77777233D01*
X222558355Y-78096235D01*
X222385197Y-78513244D01*
X222384803Y-78964775D01*
X219837000Y-78964775D01*
X219837000Y-69977000D01*
X227203000Y-69977000D01*
X227203000Y-80670400D01*
G36*
X255143000Y-80670400D02*
X255119728Y-80670400D01*
X254892718Y-80715555D01*
X254847563Y-80724537D01*
X254616834Y-80878706D01*
X253651399Y-81844141D01*
X253615927Y-81808608D01*
X253272399Y-81665962D01*
X252900433Y-81665638D01*
X252556657Y-81807683D01*
X252293408Y-82070473D01*
X252150762Y-82414001D01*
X252150754Y-82423000D01*
X247777000Y-82423000D01*
X247777000Y-78964775D01*
X250324803Y-78964775D01*
X250497233Y-79382086D01*
X250816235Y-79701645D01*
X251233244Y-79874803D01*
X251684775Y-79875197D01*
X252102086Y-79702767D01*
X252421645Y-79383765D01*
X252594803Y-78966756D01*
X252595197Y-78515225D01*
X252422767Y-78097914D01*
X252103765Y-77778355D01*
X251686756Y-77605197D01*
X251235225Y-77604803D01*
X250817914Y-77777233D01*
X250498355Y-78096235D01*
X250325197Y-78513244D01*
X250324803Y-78964775D01*
X247777000Y-78964775D01*
X247777000Y-69977000D01*
X255143000Y-69977000D01*
X255143000Y-80670400D01*
X255143000Y-80670400D01*
G37*
X255143000Y-80670400D02*
X255119728Y-80670400D01*
X254892718Y-80715555D01*
X254847563Y-80724537D01*
X254616834Y-80878706D01*
X253651399Y-81844141D01*
X253615927Y-81808608D01*
X253272399Y-81665962D01*
X252900433Y-81665638D01*
X252556657Y-81807683D01*
X252293408Y-82070473D01*
X252150762Y-82414001D01*
X252150754Y-82423000D01*
X247777000Y-82423000D01*
X247777000Y-78964775D01*
X250324803Y-78964775D01*
X250497233Y-79382086D01*
X250816235Y-79701645D01*
X251233244Y-79874803D01*
X251684775Y-79875197D01*
X252102086Y-79702767D01*
X252421645Y-79383765D01*
X252594803Y-78966756D01*
X252595197Y-78515225D01*
X252422767Y-78097914D01*
X252103765Y-77778355D01*
X251686756Y-77605197D01*
X251235225Y-77604803D01*
X250817914Y-77777233D01*
X250498355Y-78096235D01*
X250325197Y-78513244D01*
X250324803Y-78964775D01*
X247777000Y-78964775D01*
X247777000Y-69977000D01*
X255143000Y-69977000D01*
X255143000Y-80670400D01*
G36*
X283083000Y-80670400D02*
X283059728Y-80670400D01*
X282832718Y-80715555D01*
X282787563Y-80724537D01*
X282556834Y-80878706D01*
X281591399Y-81844141D01*
X281555927Y-81808608D01*
X281212399Y-81665962D01*
X280840433Y-81665638D01*
X280496657Y-81807683D01*
X280233408Y-82070473D01*
X280090762Y-82414001D01*
X280090754Y-82423000D01*
X275717000Y-82423000D01*
X275717000Y-78964775D01*
X278264803Y-78964775D01*
X278437233Y-79382086D01*
X278756235Y-79701645D01*
X279173244Y-79874803D01*
X279624775Y-79875197D01*
X280042086Y-79702767D01*
X280361645Y-79383765D01*
X280534803Y-78966756D01*
X280535197Y-78515225D01*
X280362767Y-78097914D01*
X280043765Y-77778355D01*
X279626756Y-77605197D01*
X279175225Y-77604803D01*
X278757914Y-77777233D01*
X278438355Y-78096235D01*
X278265197Y-78513244D01*
X278264803Y-78964775D01*
X275717000Y-78964775D01*
X275717000Y-69977000D01*
X283083000Y-69977000D01*
X283083000Y-80670400D01*
X283083000Y-80670400D01*
G37*
X283083000Y-80670400D02*
X283059728Y-80670400D01*
X282832718Y-80715555D01*
X282787563Y-80724537D01*
X282556834Y-80878706D01*
X281591399Y-81844141D01*
X281555927Y-81808608D01*
X281212399Y-81665962D01*
X280840433Y-81665638D01*
X280496657Y-81807683D01*
X280233408Y-82070473D01*
X280090762Y-82414001D01*
X280090754Y-82423000D01*
X275717000Y-82423000D01*
X275717000Y-78964775D01*
X278264803Y-78964775D01*
X278437233Y-79382086D01*
X278756235Y-79701645D01*
X279173244Y-79874803D01*
X279624775Y-79875197D01*
X280042086Y-79702767D01*
X280361645Y-79383765D01*
X280534803Y-78966756D01*
X280535197Y-78515225D01*
X280362767Y-78097914D01*
X280043765Y-77778355D01*
X279626756Y-77605197D01*
X279175225Y-77604803D01*
X278757914Y-77777233D01*
X278438355Y-78096235D01*
X278265197Y-78513244D01*
X278264803Y-78964775D01*
X275717000Y-78964775D01*
X275717000Y-69977000D01*
X283083000Y-69977000D01*
X283083000Y-80670400D01*
G36*
X311023000Y-80670400D02*
X310999728Y-80670400D01*
X310772718Y-80715555D01*
X310727563Y-80724537D01*
X310496834Y-80878706D01*
X309531399Y-81844141D01*
X309495927Y-81808608D01*
X309152399Y-81665962D01*
X308780433Y-81665638D01*
X308436657Y-81807683D01*
X308173408Y-82070473D01*
X308030762Y-82414001D01*
X308030754Y-82423000D01*
X303657000Y-82423000D01*
X303657000Y-78964775D01*
X306204803Y-78964775D01*
X306377233Y-79382086D01*
X306696235Y-79701645D01*
X307113244Y-79874803D01*
X307564775Y-79875197D01*
X307982086Y-79702767D01*
X308301645Y-79383765D01*
X308474803Y-78966756D01*
X308475197Y-78515225D01*
X308302767Y-78097914D01*
X307983765Y-77778355D01*
X307566756Y-77605197D01*
X307115225Y-77604803D01*
X306697914Y-77777233D01*
X306378355Y-78096235D01*
X306205197Y-78513244D01*
X306204803Y-78964775D01*
X303657000Y-78964775D01*
X303657000Y-69977000D01*
X311023000Y-69977000D01*
X311023000Y-80670400D01*
X311023000Y-80670400D01*
G37*
X311023000Y-80670400D02*
X310999728Y-80670400D01*
X310772718Y-80715555D01*
X310727563Y-80724537D01*
X310496834Y-80878706D01*
X309531399Y-81844141D01*
X309495927Y-81808608D01*
X309152399Y-81665962D01*
X308780433Y-81665638D01*
X308436657Y-81807683D01*
X308173408Y-82070473D01*
X308030762Y-82414001D01*
X308030754Y-82423000D01*
X303657000Y-82423000D01*
X303657000Y-78964775D01*
X306204803Y-78964775D01*
X306377233Y-79382086D01*
X306696235Y-79701645D01*
X307113244Y-79874803D01*
X307564775Y-79875197D01*
X307982086Y-79702767D01*
X308301645Y-79383765D01*
X308474803Y-78966756D01*
X308475197Y-78515225D01*
X308302767Y-78097914D01*
X307983765Y-77778355D01*
X307566756Y-77605197D01*
X307115225Y-77604803D01*
X306697914Y-77777233D01*
X306378355Y-78096235D01*
X306205197Y-78513244D01*
X306204803Y-78964775D01*
X303657000Y-78964775D01*
X303657000Y-69977000D01*
X311023000Y-69977000D01*
X311023000Y-80670400D01*
G36*
X338963000Y-80670400D02*
X338939728Y-80670400D01*
X338712718Y-80715555D01*
X338667563Y-80724537D01*
X338436834Y-80878706D01*
X337471399Y-81844141D01*
X337435927Y-81808608D01*
X337092399Y-81665962D01*
X336720433Y-81665638D01*
X336376657Y-81807683D01*
X336113408Y-82070473D01*
X335970762Y-82414001D01*
X335970754Y-82423000D01*
X331597000Y-82423000D01*
X331597000Y-78964775D01*
X334144803Y-78964775D01*
X334317233Y-79382086D01*
X334636235Y-79701645D01*
X335053244Y-79874803D01*
X335504775Y-79875197D01*
X335922086Y-79702767D01*
X336241645Y-79383765D01*
X336414803Y-78966756D01*
X336415197Y-78515225D01*
X336242767Y-78097914D01*
X335923765Y-77778355D01*
X335506756Y-77605197D01*
X335055225Y-77604803D01*
X334637914Y-77777233D01*
X334318355Y-78096235D01*
X334145197Y-78513244D01*
X334144803Y-78964775D01*
X331597000Y-78964775D01*
X331597000Y-69977000D01*
X338963000Y-69977000D01*
X338963000Y-80670400D01*
X338963000Y-80670400D01*
G37*
X338963000Y-80670400D02*
X338939728Y-80670400D01*
X338712718Y-80715555D01*
X338667563Y-80724537D01*
X338436834Y-80878706D01*
X337471399Y-81844141D01*
X337435927Y-81808608D01*
X337092399Y-81665962D01*
X336720433Y-81665638D01*
X336376657Y-81807683D01*
X336113408Y-82070473D01*
X335970762Y-82414001D01*
X335970754Y-82423000D01*
X331597000Y-82423000D01*
X331597000Y-78964775D01*
X334144803Y-78964775D01*
X334317233Y-79382086D01*
X334636235Y-79701645D01*
X335053244Y-79874803D01*
X335504775Y-79875197D01*
X335922086Y-79702767D01*
X336241645Y-79383765D01*
X336414803Y-78966756D01*
X336415197Y-78515225D01*
X336242767Y-78097914D01*
X335923765Y-77778355D01*
X335506756Y-77605197D01*
X335055225Y-77604803D01*
X334637914Y-77777233D01*
X334318355Y-78096235D01*
X334145197Y-78513244D01*
X334144803Y-78964775D01*
X331597000Y-78964775D01*
X331597000Y-69977000D01*
X338963000Y-69977000D01*
X338963000Y-80670400D01*
G36*
X366903000Y-80670400D02*
X366879728Y-80670400D01*
X366652718Y-80715555D01*
X366607563Y-80724537D01*
X366376834Y-80878706D01*
X365411399Y-81844141D01*
X365375927Y-81808608D01*
X365032399Y-81665962D01*
X364660433Y-81665638D01*
X364316657Y-81807683D01*
X364053408Y-82070473D01*
X363910762Y-82414001D01*
X363910754Y-82423000D01*
X359537000Y-82423000D01*
X359537000Y-78964775D01*
X362084803Y-78964775D01*
X362257233Y-79382086D01*
X362576235Y-79701645D01*
X362993244Y-79874803D01*
X363444775Y-79875197D01*
X363862086Y-79702767D01*
X364181645Y-79383765D01*
X364354803Y-78966756D01*
X364355197Y-78515225D01*
X364182767Y-78097914D01*
X363863765Y-77778355D01*
X363446756Y-77605197D01*
X362995225Y-77604803D01*
X362577914Y-77777233D01*
X362258355Y-78096235D01*
X362085197Y-78513244D01*
X362084803Y-78964775D01*
X359537000Y-78964775D01*
X359537000Y-69977000D01*
X366903000Y-69977000D01*
X366903000Y-80670400D01*
X366903000Y-80670400D01*
G37*
X366903000Y-80670400D02*
X366879728Y-80670400D01*
X366652718Y-80715555D01*
X366607563Y-80724537D01*
X366376834Y-80878706D01*
X365411399Y-81844141D01*
X365375927Y-81808608D01*
X365032399Y-81665962D01*
X364660433Y-81665638D01*
X364316657Y-81807683D01*
X364053408Y-82070473D01*
X363910762Y-82414001D01*
X363910754Y-82423000D01*
X359537000Y-82423000D01*
X359537000Y-78964775D01*
X362084803Y-78964775D01*
X362257233Y-79382086D01*
X362576235Y-79701645D01*
X362993244Y-79874803D01*
X363444775Y-79875197D01*
X363862086Y-79702767D01*
X364181645Y-79383765D01*
X364354803Y-78966756D01*
X364355197Y-78515225D01*
X364182767Y-78097914D01*
X363863765Y-77778355D01*
X363446756Y-77605197D01*
X362995225Y-77604803D01*
X362577914Y-77777233D01*
X362258355Y-78096235D01*
X362085197Y-78513244D01*
X362084803Y-78964775D01*
X359537000Y-78964775D01*
X359537000Y-69977000D01*
X366903000Y-69977000D01*
X366903000Y-80670400D01*
G36*
X396745354Y-63093438D02*
X396744648Y-63903011D01*
X397053805Y-64651229D01*
X397625760Y-65224183D01*
X398373438Y-65534646D01*
X399183011Y-65535352D01*
X399931229Y-65226195D01*
X400504183Y-64654240D01*
X400814646Y-63906562D01*
X400815352Y-63096989D01*
X400509595Y-62357000D01*
X407547617Y-62357000D01*
X407760909Y-68115900D01*
X407617243Y-67768200D01*
X407213923Y-67364176D01*
X406686691Y-67145250D01*
X406115813Y-67144752D01*
X405588200Y-67362757D01*
X405184176Y-67766077D01*
X405130138Y-67896215D01*
X405077243Y-67768200D01*
X404673923Y-67364176D01*
X404146691Y-67145250D01*
X403575813Y-67144752D01*
X403048200Y-67362757D01*
X402644176Y-67766077D01*
X402590138Y-67896215D01*
X402537243Y-67768200D01*
X402133923Y-67364176D01*
X401606691Y-67145250D01*
X401035813Y-67144752D01*
X400508200Y-67362757D01*
X400104176Y-67766077D01*
X399885250Y-68293309D01*
X399884752Y-68864187D01*
X400102757Y-69391800D01*
X400506077Y-69795824D01*
X400636215Y-69849862D01*
X400508200Y-69902757D01*
X400104176Y-70306077D01*
X399885250Y-70833309D01*
X399884752Y-71404187D01*
X400102757Y-71931800D01*
X400404688Y-72234258D01*
X400284683Y-72256838D01*
X400068559Y-72395910D01*
X399923569Y-72608110D01*
X399872560Y-72860000D01*
X399872560Y-74460000D01*
X399916838Y-74695317D01*
X400055910Y-74911441D01*
X400268110Y-75056431D01*
X400406354Y-75084426D01*
X400104176Y-75386077D01*
X399885250Y-75913309D01*
X399884752Y-76484187D01*
X400102757Y-77011800D01*
X400506077Y-77415824D01*
X400636215Y-77469862D01*
X400508200Y-77522757D01*
X400104176Y-77926077D01*
X399885250Y-78453309D01*
X399884752Y-79024187D01*
X400102757Y-79551800D01*
X400506077Y-79955824D01*
X400636215Y-80009862D01*
X400508200Y-80062757D01*
X400104176Y-80466077D01*
X399885250Y-80993309D01*
X399884752Y-81564187D01*
X400102757Y-82091800D01*
X400506077Y-82495824D01*
X400636215Y-82549862D01*
X400508200Y-82602757D01*
X400104176Y-83006077D01*
X399885250Y-83533309D01*
X399884752Y-84104187D01*
X400102757Y-84631800D01*
X400506077Y-85035824D01*
X400636215Y-85089862D01*
X400508200Y-85142757D01*
X400104176Y-85546077D01*
X399885250Y-86073309D01*
X399884752Y-86644187D01*
X400102757Y-87171800D01*
X400506077Y-87575824D01*
X400620768Y-87623448D01*
X400565995Y-87646136D01*
X400491861Y-87892255D01*
X401320000Y-88720395D01*
X402148139Y-87892255D01*
X402074005Y-87646136D01*
X402015746Y-87625195D01*
X402131800Y-87577243D01*
X402535824Y-87173923D01*
X402589862Y-87043785D01*
X402642757Y-87171800D01*
X403046077Y-87575824D01*
X403160768Y-87623448D01*
X403105995Y-87646136D01*
X403031861Y-87892255D01*
X403860000Y-88720395D01*
X404688139Y-87892255D01*
X404614005Y-87646136D01*
X404555746Y-87625195D01*
X404671800Y-87577243D01*
X405075824Y-87173923D01*
X405129862Y-87043785D01*
X405182757Y-87171800D01*
X405586077Y-87575824D01*
X405700768Y-87623448D01*
X405645995Y-87646136D01*
X405571861Y-87892255D01*
X406400000Y-88720395D01*
X407228139Y-87892255D01*
X407154005Y-87646136D01*
X407095746Y-87625195D01*
X407211800Y-87577243D01*
X407615824Y-87173923D01*
X407834750Y-86646691D01*
X407835248Y-86075813D01*
X407617243Y-85548200D01*
X407213923Y-85144176D01*
X407083785Y-85090138D01*
X407211800Y-85037243D01*
X407615824Y-84633923D01*
X407834750Y-84106691D01*
X407835248Y-83535813D01*
X407617243Y-83008200D01*
X407213923Y-82604176D01*
X407083785Y-82550138D01*
X407211800Y-82497243D01*
X407615824Y-82093923D01*
X407834750Y-81566691D01*
X407835248Y-80995813D01*
X407617243Y-80468200D01*
X407213923Y-80064176D01*
X407083785Y-80010138D01*
X407211800Y-79957243D01*
X407615824Y-79553923D01*
X407834750Y-79026691D01*
X407835248Y-78455813D01*
X407617243Y-77928200D01*
X407213923Y-77524176D01*
X407083785Y-77470138D01*
X407211800Y-77417243D01*
X407615824Y-77013923D01*
X407834750Y-76486691D01*
X407835248Y-75915813D01*
X407617243Y-75388200D01*
X407315312Y-75085742D01*
X407435317Y-75063162D01*
X407651441Y-74924090D01*
X407796431Y-74711890D01*
X407847440Y-74460000D01*
X407847440Y-72860000D01*
X407803162Y-72624683D01*
X407664090Y-72408559D01*
X407451890Y-72263569D01*
X407313646Y-72235574D01*
X407615824Y-71933923D01*
X407834750Y-71406691D01*
X407835248Y-70835813D01*
X407617243Y-70308200D01*
X407213923Y-69904176D01*
X407083785Y-69850138D01*
X407211800Y-69797243D01*
X407615824Y-69393923D01*
X407792486Y-68968473D01*
X408230000Y-80781350D01*
X408230000Y-96393000D01*
X407835111Y-96393000D01*
X407835248Y-96235813D01*
X407617243Y-95708200D01*
X407213923Y-95304176D01*
X407083785Y-95250138D01*
X407211800Y-95197243D01*
X407615824Y-94793923D01*
X407834750Y-94266691D01*
X407835248Y-93695813D01*
X407617243Y-93168200D01*
X407213923Y-92764176D01*
X407099232Y-92716552D01*
X407154005Y-92693864D01*
X407228139Y-92447745D01*
X406400000Y-91619605D01*
X405571861Y-92447745D01*
X405645995Y-92693864D01*
X405704254Y-92714805D01*
X405588200Y-92762757D01*
X405184176Y-93166077D01*
X405130138Y-93296215D01*
X405077243Y-93168200D01*
X404673923Y-92764176D01*
X404559232Y-92716552D01*
X404614005Y-92693864D01*
X404688139Y-92447745D01*
X403860000Y-91619605D01*
X403031861Y-92447745D01*
X403105995Y-92693864D01*
X403164254Y-92714805D01*
X403048200Y-92762757D01*
X402644176Y-93166077D01*
X402590138Y-93296215D01*
X402537243Y-93168200D01*
X402133923Y-92764176D01*
X402019232Y-92716552D01*
X402074005Y-92693864D01*
X402148139Y-92447745D01*
X401320000Y-91619605D01*
X400491861Y-92447745D01*
X400565995Y-92693864D01*
X400624254Y-92714805D01*
X400508200Y-92762757D01*
X400104176Y-93166077D01*
X399885250Y-93693309D01*
X399884752Y-94264187D01*
X400102757Y-94791800D01*
X400506077Y-95195824D01*
X400636215Y-95249862D01*
X400508200Y-95302757D01*
X400104176Y-95706077D01*
X399885250Y-96233309D01*
X399885111Y-96393000D01*
X351455111Y-96393000D01*
X351455162Y-96334833D01*
X351313117Y-95991057D01*
X351050327Y-95727808D01*
X350706799Y-95585162D01*
X350334833Y-95584838D01*
X349991057Y-95726883D01*
X349727808Y-95989673D01*
X349585162Y-96333201D01*
X349585110Y-96393000D01*
X127127000Y-96393000D01*
X127127000Y-91223223D01*
X399873035Y-91223223D01*
X399900222Y-91793454D01*
X400066136Y-92194005D01*
X400312255Y-92268139D01*
X401140395Y-91440000D01*
X401499605Y-91440000D01*
X402327745Y-92268139D01*
X402573864Y-92194005D01*
X402588858Y-92152291D01*
X402606136Y-92194005D01*
X402852255Y-92268139D01*
X403680395Y-91440000D01*
X404039605Y-91440000D01*
X404867745Y-92268139D01*
X405113864Y-92194005D01*
X405128858Y-92152291D01*
X405146136Y-92194005D01*
X405392255Y-92268139D01*
X406220395Y-91440000D01*
X406579605Y-91440000D01*
X407407745Y-92268139D01*
X407653864Y-92194005D01*
X407846965Y-91656777D01*
X407819778Y-91086546D01*
X407653864Y-90685995D01*
X407407745Y-90611861D01*
X406579605Y-91440000D01*
X406220395Y-91440000D01*
X405392255Y-90611861D01*
X405146136Y-90685995D01*
X405131142Y-90727709D01*
X405113864Y-90685995D01*
X404867745Y-90611861D01*
X404039605Y-91440000D01*
X403680395Y-91440000D01*
X402852255Y-90611861D01*
X402606136Y-90685995D01*
X402591142Y-90727709D01*
X402573864Y-90685995D01*
X402327745Y-90611861D01*
X401499605Y-91440000D01*
X401140395Y-91440000D01*
X400312255Y-90611861D01*
X400066136Y-90685995D01*
X399873035Y-91223223D01*
X127127000Y-91223223D01*
X127127000Y-89907745D01*
X400491861Y-89907745D01*
X400565995Y-90153864D01*
X400607709Y-90168858D01*
X400565995Y-90186136D01*
X400491861Y-90432255D01*
X401320000Y-91260395D01*
X402148139Y-90432255D01*
X402074005Y-90186136D01*
X402032291Y-90171142D01*
X402074005Y-90153864D01*
X402148139Y-89907745D01*
X403031861Y-89907745D01*
X403105995Y-90153864D01*
X403147709Y-90168858D01*
X403105995Y-90186136D01*
X403031861Y-90432255D01*
X403860000Y-91260395D01*
X404688139Y-90432255D01*
X404614005Y-90186136D01*
X404572291Y-90171142D01*
X404614005Y-90153864D01*
X404688139Y-89907745D01*
X405571861Y-89907745D01*
X405645995Y-90153864D01*
X405687709Y-90168858D01*
X405645995Y-90186136D01*
X405571861Y-90432255D01*
X406400000Y-91260395D01*
X407228139Y-90432255D01*
X407154005Y-90186136D01*
X407112291Y-90171142D01*
X407154005Y-90153864D01*
X407228139Y-89907745D01*
X406400000Y-89079605D01*
X405571861Y-89907745D01*
X404688139Y-89907745D01*
X403860000Y-89079605D01*
X403031861Y-89907745D01*
X402148139Y-89907745D01*
X401320000Y-89079605D01*
X400491861Y-89907745D01*
X127127000Y-89907745D01*
X127127000Y-88683223D01*
X399873035Y-88683223D01*
X399900222Y-89253454D01*
X400066136Y-89654005D01*
X400312255Y-89728139D01*
X401140395Y-88900000D01*
X401499605Y-88900000D01*
X402327745Y-89728139D01*
X402573864Y-89654005D01*
X402588858Y-89612291D01*
X402606136Y-89654005D01*
X402852255Y-89728139D01*
X403680395Y-88900000D01*
X404039605Y-88900000D01*
X404867745Y-89728139D01*
X405113864Y-89654005D01*
X405128858Y-89612291D01*
X405146136Y-89654005D01*
X405392255Y-89728139D01*
X406220395Y-88900000D01*
X406579605Y-88900000D01*
X407407745Y-89728139D01*
X407653864Y-89654005D01*
X407846965Y-89116777D01*
X407819778Y-88546546D01*
X407653864Y-88145995D01*
X407407745Y-88071861D01*
X406579605Y-88900000D01*
X406220395Y-88900000D01*
X405392255Y-88071861D01*
X405146136Y-88145995D01*
X405131142Y-88187709D01*
X405113864Y-88145995D01*
X404867745Y-88071861D01*
X404039605Y-88900000D01*
X403680395Y-88900000D01*
X402852255Y-88071861D01*
X402606136Y-88145995D01*
X402591142Y-88187709D01*
X402573864Y-88145995D01*
X402327745Y-88071861D01*
X401499605Y-88900000D01*
X401140395Y-88900000D01*
X400312255Y-88071861D01*
X400066136Y-88145995D01*
X399873035Y-88683223D01*
X127127000Y-88683223D01*
X127127000Y-86443567D01*
X146181638Y-86443567D01*
X146323683Y-86787343D01*
X146586473Y-87050592D01*
X146930001Y-87193238D01*
X147301967Y-87193562D01*
X147645743Y-87051517D01*
X147908992Y-86788727D01*
X148051638Y-86445199D01*
X148051639Y-86443567D01*
X174121638Y-86443567D01*
X174263683Y-86787343D01*
X174526473Y-87050592D01*
X174870001Y-87193238D01*
X175241967Y-87193562D01*
X175585743Y-87051517D01*
X175848992Y-86788727D01*
X175991638Y-86445199D01*
X175991639Y-86443567D01*
X202061638Y-86443567D01*
X202203683Y-86787343D01*
X202466473Y-87050592D01*
X202810001Y-87193238D01*
X203181967Y-87193562D01*
X203525743Y-87051517D01*
X203788992Y-86788727D01*
X203931638Y-86445199D01*
X203931639Y-86443567D01*
X230001638Y-86443567D01*
X230143683Y-86787343D01*
X230406473Y-87050592D01*
X230750001Y-87193238D01*
X231121967Y-87193562D01*
X231465743Y-87051517D01*
X231728992Y-86788727D01*
X231871638Y-86445199D01*
X231871639Y-86443567D01*
X257941638Y-86443567D01*
X258083683Y-86787343D01*
X258346473Y-87050592D01*
X258690001Y-87193238D01*
X259061967Y-87193562D01*
X259405743Y-87051517D01*
X259668992Y-86788727D01*
X259811638Y-86445199D01*
X259811639Y-86443567D01*
X285881638Y-86443567D01*
X286023683Y-86787343D01*
X286286473Y-87050592D01*
X286630001Y-87193238D01*
X287001967Y-87193562D01*
X287345743Y-87051517D01*
X287608992Y-86788727D01*
X287751638Y-86445199D01*
X287751639Y-86443567D01*
X313821638Y-86443567D01*
X313963683Y-86787343D01*
X314226473Y-87050592D01*
X314570001Y-87193238D01*
X314941967Y-87193562D01*
X315285743Y-87051517D01*
X315548992Y-86788727D01*
X315691638Y-86445199D01*
X315691639Y-86443567D01*
X341761638Y-86443567D01*
X341903683Y-86787343D01*
X342166473Y-87050592D01*
X342510001Y-87193238D01*
X342881967Y-87193562D01*
X343225743Y-87051517D01*
X343488992Y-86788727D01*
X343631638Y-86445199D01*
X343631639Y-86443567D01*
X369701638Y-86443567D01*
X369843683Y-86787343D01*
X370106473Y-87050592D01*
X370450001Y-87193238D01*
X370821967Y-87193562D01*
X371165743Y-87051517D01*
X371428992Y-86788727D01*
X371571638Y-86445199D01*
X371571962Y-86073233D01*
X371429917Y-85729457D01*
X371167127Y-85466208D01*
X370823599Y-85323562D01*
X370451633Y-85323238D01*
X370107857Y-85465283D01*
X369844608Y-85728073D01*
X369701962Y-86071601D01*
X369701638Y-86443567D01*
X343631639Y-86443567D01*
X343631962Y-86073233D01*
X343489917Y-85729457D01*
X343227127Y-85466208D01*
X342883599Y-85323562D01*
X342511633Y-85323238D01*
X342167857Y-85465283D01*
X341904608Y-85728073D01*
X341761962Y-86071601D01*
X341761638Y-86443567D01*
X315691639Y-86443567D01*
X315691962Y-86073233D01*
X315549917Y-85729457D01*
X315287127Y-85466208D01*
X314943599Y-85323562D01*
X314571633Y-85323238D01*
X314227857Y-85465283D01*
X313964608Y-85728073D01*
X313821962Y-86071601D01*
X313821638Y-86443567D01*
X287751639Y-86443567D01*
X287751962Y-86073233D01*
X287609917Y-85729457D01*
X287347127Y-85466208D01*
X287003599Y-85323562D01*
X286631633Y-85323238D01*
X286287857Y-85465283D01*
X286024608Y-85728073D01*
X285881962Y-86071601D01*
X285881638Y-86443567D01*
X259811639Y-86443567D01*
X259811962Y-86073233D01*
X259669917Y-85729457D01*
X259407127Y-85466208D01*
X259063599Y-85323562D01*
X258691633Y-85323238D01*
X258347857Y-85465283D01*
X258084608Y-85728073D01*
X257941962Y-86071601D01*
X257941638Y-86443567D01*
X231871639Y-86443567D01*
X231871962Y-86073233D01*
X231729917Y-85729457D01*
X231467127Y-85466208D01*
X231123599Y-85323562D01*
X230751633Y-85323238D01*
X230407857Y-85465283D01*
X230144608Y-85728073D01*
X230001962Y-86071601D01*
X230001638Y-86443567D01*
X203931639Y-86443567D01*
X203931962Y-86073233D01*
X203789917Y-85729457D01*
X203527127Y-85466208D01*
X203183599Y-85323562D01*
X202811633Y-85323238D01*
X202467857Y-85465283D01*
X202204608Y-85728073D01*
X202061962Y-86071601D01*
X202061638Y-86443567D01*
X175991639Y-86443567D01*
X175991962Y-86073233D01*
X175849917Y-85729457D01*
X175587127Y-85466208D01*
X175243599Y-85323562D01*
X174871633Y-85323238D01*
X174527857Y-85465283D01*
X174264608Y-85728073D01*
X174121962Y-86071601D01*
X174121638Y-86443567D01*
X148051639Y-86443567D01*
X148051962Y-86073233D01*
X147909917Y-85729457D01*
X147647127Y-85466208D01*
X147303599Y-85323562D01*
X146931633Y-85323238D01*
X146587857Y-85465283D01*
X146324608Y-85728073D01*
X146181962Y-86071601D01*
X146181638Y-86443567D01*
X127127000Y-86443567D01*
X127127000Y-79113305D01*
X127654674Y-79113305D01*
X127941043Y-79806372D01*
X128470839Y-80337093D01*
X129163405Y-80624672D01*
X129913305Y-80625326D01*
X130606372Y-80338957D01*
X131137093Y-79809161D01*
X131424672Y-79116595D01*
X131425326Y-78366695D01*
X131138957Y-77673628D01*
X130609161Y-77142907D01*
X129916595Y-76855328D01*
X129166695Y-76854674D01*
X128473628Y-77141043D01*
X127942907Y-77670839D01*
X127655328Y-78363405D01*
X127654674Y-79113305D01*
X127127000Y-79113305D01*
X127127000Y-69850000D01*
X135763000Y-69850000D01*
X135763000Y-82550000D01*
X135771685Y-82596159D01*
X135798965Y-82638553D01*
X135840590Y-82666994D01*
X135890000Y-82677000D01*
X140390533Y-82677000D01*
X140390438Y-82785967D01*
X140532483Y-83129743D01*
X140795273Y-83392992D01*
X141138801Y-83535638D01*
X141510767Y-83535962D01*
X141854543Y-83393917D01*
X141936603Y-83312000D01*
X142140528Y-83312000D01*
X142412693Y-83257863D01*
X142643422Y-83103694D01*
X142648699Y-83098417D01*
X142967601Y-83230838D01*
X143339567Y-83231162D01*
X143683343Y-83089117D01*
X143946592Y-82826327D01*
X144089238Y-82482799D01*
X144089303Y-82407891D01*
X144785106Y-83103694D01*
X145015835Y-83257863D01*
X145060990Y-83266845D01*
X145288000Y-83312000D01*
X148639222Y-83312000D01*
X148720073Y-83392992D01*
X149063601Y-83535638D01*
X149435567Y-83535962D01*
X149779343Y-83393917D01*
X150042592Y-83131127D01*
X150185238Y-82787599D01*
X150185562Y-82415633D01*
X150043517Y-82071857D01*
X149780727Y-81808608D01*
X149437199Y-81665962D01*
X149065233Y-81665638D01*
X148721457Y-81807683D01*
X148639397Y-81889600D01*
X145582588Y-81889600D01*
X144571694Y-80878706D01*
X144340965Y-80724537D01*
X144068800Y-80670400D01*
X143637000Y-80670400D01*
X143637000Y-79113305D01*
X147974674Y-79113305D01*
X148261043Y-79806372D01*
X148790839Y-80337093D01*
X149483405Y-80624672D01*
X150233305Y-80625326D01*
X150926372Y-80338957D01*
X151457093Y-79809161D01*
X151744672Y-79116595D01*
X151744674Y-79113305D01*
X155594674Y-79113305D01*
X155881043Y-79806372D01*
X156410839Y-80337093D01*
X157103405Y-80624672D01*
X157853305Y-80625326D01*
X158546372Y-80338957D01*
X159077093Y-79809161D01*
X159364672Y-79116595D01*
X159365326Y-78366695D01*
X159078957Y-77673628D01*
X158549161Y-77142907D01*
X157856595Y-76855328D01*
X157106695Y-76854674D01*
X156413628Y-77141043D01*
X155882907Y-77670839D01*
X155595328Y-78363405D01*
X155594674Y-79113305D01*
X151744674Y-79113305D01*
X151745326Y-78366695D01*
X151458957Y-77673628D01*
X150929161Y-77142907D01*
X150236595Y-76855328D01*
X149486695Y-76854674D01*
X148793628Y-77141043D01*
X148262907Y-77670839D01*
X147975328Y-78363405D01*
X147974674Y-79113305D01*
X143637000Y-79113305D01*
X143637000Y-69850000D01*
X163703000Y-69850000D01*
X163703000Y-82550000D01*
X163711685Y-82596159D01*
X163738965Y-82638553D01*
X163780590Y-82666994D01*
X163830000Y-82677000D01*
X168330533Y-82677000D01*
X168330438Y-82785967D01*
X168472483Y-83129743D01*
X168735273Y-83392992D01*
X169078801Y-83535638D01*
X169450767Y-83535962D01*
X169794543Y-83393917D01*
X169876603Y-83312000D01*
X170080528Y-83312000D01*
X170352693Y-83257863D01*
X170583422Y-83103694D01*
X170588699Y-83098417D01*
X170907601Y-83230838D01*
X171279567Y-83231162D01*
X171623343Y-83089117D01*
X171886592Y-82826327D01*
X172029238Y-82482799D01*
X172029303Y-82407891D01*
X172725106Y-83103694D01*
X172955835Y-83257863D01*
X173000990Y-83266845D01*
X173228000Y-83312000D01*
X176579222Y-83312000D01*
X176660073Y-83392992D01*
X177003601Y-83535638D01*
X177375567Y-83535962D01*
X177719343Y-83393917D01*
X177982592Y-83131127D01*
X178125238Y-82787599D01*
X178125562Y-82415633D01*
X177983517Y-82071857D01*
X177720727Y-81808608D01*
X177377199Y-81665962D01*
X177005233Y-81665638D01*
X176661457Y-81807683D01*
X176579397Y-81889600D01*
X173522588Y-81889600D01*
X172511694Y-80878706D01*
X172280965Y-80724537D01*
X172008800Y-80670400D01*
X171577000Y-80670400D01*
X171577000Y-79113305D01*
X175914674Y-79113305D01*
X176201043Y-79806372D01*
X176730839Y-80337093D01*
X177423405Y-80624672D01*
X178173305Y-80625326D01*
X178866372Y-80338957D01*
X179397093Y-79809161D01*
X179684672Y-79116595D01*
X179684674Y-79113305D01*
X183534674Y-79113305D01*
X183821043Y-79806372D01*
X184350839Y-80337093D01*
X185043405Y-80624672D01*
X185793305Y-80625326D01*
X186486372Y-80338957D01*
X187017093Y-79809161D01*
X187304672Y-79116595D01*
X187305326Y-78366695D01*
X187018957Y-77673628D01*
X186489161Y-77142907D01*
X185796595Y-76855328D01*
X185046695Y-76854674D01*
X184353628Y-77141043D01*
X183822907Y-77670839D01*
X183535328Y-78363405D01*
X183534674Y-79113305D01*
X179684674Y-79113305D01*
X179685326Y-78366695D01*
X179398957Y-77673628D01*
X178869161Y-77142907D01*
X178176595Y-76855328D01*
X177426695Y-76854674D01*
X176733628Y-77141043D01*
X176202907Y-77670839D01*
X175915328Y-78363405D01*
X175914674Y-79113305D01*
X171577000Y-79113305D01*
X171577000Y-69850000D01*
X191643000Y-69850000D01*
X191643000Y-82550000D01*
X191651685Y-82596159D01*
X191678965Y-82638553D01*
X191720590Y-82666994D01*
X191770000Y-82677000D01*
X196270533Y-82677000D01*
X196270438Y-82785967D01*
X196412483Y-83129743D01*
X196675273Y-83392992D01*
X197018801Y-83535638D01*
X197390767Y-83535962D01*
X197734543Y-83393917D01*
X197816603Y-83312000D01*
X198020528Y-83312000D01*
X198292693Y-83257863D01*
X198523422Y-83103694D01*
X198528699Y-83098417D01*
X198847601Y-83230838D01*
X199219567Y-83231162D01*
X199563343Y-83089117D01*
X199826592Y-82826327D01*
X199969238Y-82482799D01*
X199969303Y-82407891D01*
X200665106Y-83103694D01*
X200895835Y-83257863D01*
X200940990Y-83266845D01*
X201168000Y-83312000D01*
X204519222Y-83312000D01*
X204600073Y-83392992D01*
X204943601Y-83535638D01*
X205315567Y-83535962D01*
X205659343Y-83393917D01*
X205922592Y-83131127D01*
X206065238Y-82787599D01*
X206065562Y-82415633D01*
X205923517Y-82071857D01*
X205660727Y-81808608D01*
X205317199Y-81665962D01*
X204945233Y-81665638D01*
X204601457Y-81807683D01*
X204519397Y-81889600D01*
X201462588Y-81889600D01*
X200451694Y-80878706D01*
X200220965Y-80724537D01*
X199948800Y-80670400D01*
X199517000Y-80670400D01*
X199517000Y-79113305D01*
X203854674Y-79113305D01*
X204141043Y-79806372D01*
X204670839Y-80337093D01*
X205363405Y-80624672D01*
X206113305Y-80625326D01*
X206806372Y-80338957D01*
X207337093Y-79809161D01*
X207624672Y-79116595D01*
X207624674Y-79113305D01*
X211474674Y-79113305D01*
X211761043Y-79806372D01*
X212290839Y-80337093D01*
X212983405Y-80624672D01*
X213733305Y-80625326D01*
X214426372Y-80338957D01*
X214957093Y-79809161D01*
X215244672Y-79116595D01*
X215245326Y-78366695D01*
X214958957Y-77673628D01*
X214429161Y-77142907D01*
X213736595Y-76855328D01*
X212986695Y-76854674D01*
X212293628Y-77141043D01*
X211762907Y-77670839D01*
X211475328Y-78363405D01*
X211474674Y-79113305D01*
X207624674Y-79113305D01*
X207625326Y-78366695D01*
X207338957Y-77673628D01*
X206809161Y-77142907D01*
X206116595Y-76855328D01*
X205366695Y-76854674D01*
X204673628Y-77141043D01*
X204142907Y-77670839D01*
X203855328Y-78363405D01*
X203854674Y-79113305D01*
X199517000Y-79113305D01*
X199517000Y-69850000D01*
X219583000Y-69850000D01*
X219583000Y-82550000D01*
X219591685Y-82596159D01*
X219618965Y-82638553D01*
X219660590Y-82666994D01*
X219710000Y-82677000D01*
X224210533Y-82677000D01*
X224210438Y-82785967D01*
X224352483Y-83129743D01*
X224615273Y-83392992D01*
X224958801Y-83535638D01*
X225330767Y-83535962D01*
X225674543Y-83393917D01*
X225756603Y-83312000D01*
X225960528Y-83312000D01*
X226232693Y-83257863D01*
X226463422Y-83103694D01*
X226468699Y-83098417D01*
X226787601Y-83230838D01*
X227159567Y-83231162D01*
X227503343Y-83089117D01*
X227766592Y-82826327D01*
X227909238Y-82482799D01*
X227909303Y-82407891D01*
X228605106Y-83103694D01*
X228835835Y-83257863D01*
X228880990Y-83266845D01*
X229108000Y-83312000D01*
X232459222Y-83312000D01*
X232540073Y-83392992D01*
X232883601Y-83535638D01*
X233255567Y-83535962D01*
X233599343Y-83393917D01*
X233862592Y-83131127D01*
X234005238Y-82787599D01*
X234005562Y-82415633D01*
X233863517Y-82071857D01*
X233600727Y-81808608D01*
X233257199Y-81665962D01*
X232885233Y-81665638D01*
X232541457Y-81807683D01*
X232459397Y-81889600D01*
X229402588Y-81889600D01*
X228391694Y-80878706D01*
X228160965Y-80724537D01*
X227888800Y-80670400D01*
X227457000Y-80670400D01*
X227457000Y-79113305D01*
X231794674Y-79113305D01*
X232081043Y-79806372D01*
X232610839Y-80337093D01*
X233303405Y-80624672D01*
X234053305Y-80625326D01*
X234746372Y-80338957D01*
X235277093Y-79809161D01*
X235564672Y-79116595D01*
X235564674Y-79113305D01*
X239414674Y-79113305D01*
X239701043Y-79806372D01*
X240230839Y-80337093D01*
X240923405Y-80624672D01*
X241673305Y-80625326D01*
X242366372Y-80338957D01*
X242897093Y-79809161D01*
X243184672Y-79116595D01*
X243185326Y-78366695D01*
X242898957Y-77673628D01*
X242369161Y-77142907D01*
X241676595Y-76855328D01*
X240926695Y-76854674D01*
X240233628Y-77141043D01*
X239702907Y-77670839D01*
X239415328Y-78363405D01*
X239414674Y-79113305D01*
X235564674Y-79113305D01*
X235565326Y-78366695D01*
X235278957Y-77673628D01*
X234749161Y-77142907D01*
X234056595Y-76855328D01*
X233306695Y-76854674D01*
X232613628Y-77141043D01*
X232082907Y-77670839D01*
X231795328Y-78363405D01*
X231794674Y-79113305D01*
X227457000Y-79113305D01*
X227457000Y-69850000D01*
X247523000Y-69850000D01*
X247523000Y-82550000D01*
X247531685Y-82596159D01*
X247558965Y-82638553D01*
X247600590Y-82666994D01*
X247650000Y-82677000D01*
X252150533Y-82677000D01*
X252150438Y-82785967D01*
X252292483Y-83129743D01*
X252555273Y-83392992D01*
X252898801Y-83535638D01*
X253270767Y-83535962D01*
X253614543Y-83393917D01*
X253696603Y-83312000D01*
X253900528Y-83312000D01*
X254172693Y-83257863D01*
X254403422Y-83103694D01*
X254408699Y-83098417D01*
X254727601Y-83230838D01*
X255099567Y-83231162D01*
X255443343Y-83089117D01*
X255706592Y-82826327D01*
X255849238Y-82482799D01*
X255849303Y-82407891D01*
X256545106Y-83103694D01*
X256775835Y-83257863D01*
X256820990Y-83266845D01*
X257048000Y-83312000D01*
X260399222Y-83312000D01*
X260480073Y-83392992D01*
X260823601Y-83535638D01*
X261195567Y-83535962D01*
X261539343Y-83393917D01*
X261802592Y-83131127D01*
X261945238Y-82787599D01*
X261945562Y-82415633D01*
X261803517Y-82071857D01*
X261540727Y-81808608D01*
X261197199Y-81665962D01*
X260825233Y-81665638D01*
X260481457Y-81807683D01*
X260399397Y-81889600D01*
X257342588Y-81889600D01*
X256331694Y-80878706D01*
X256100965Y-80724537D01*
X255828800Y-80670400D01*
X255397000Y-80670400D01*
X255397000Y-79113305D01*
X259734674Y-79113305D01*
X260021043Y-79806372D01*
X260550839Y-80337093D01*
X261243405Y-80624672D01*
X261993305Y-80625326D01*
X262686372Y-80338957D01*
X263217093Y-79809161D01*
X263504672Y-79116595D01*
X263504674Y-79113305D01*
X267354674Y-79113305D01*
X267641043Y-79806372D01*
X268170839Y-80337093D01*
X268863405Y-80624672D01*
X269613305Y-80625326D01*
X270306372Y-80338957D01*
X270837093Y-79809161D01*
X271124672Y-79116595D01*
X271125326Y-78366695D01*
X270838957Y-77673628D01*
X270309161Y-77142907D01*
X269616595Y-76855328D01*
X268866695Y-76854674D01*
X268173628Y-77141043D01*
X267642907Y-77670839D01*
X267355328Y-78363405D01*
X267354674Y-79113305D01*
X263504674Y-79113305D01*
X263505326Y-78366695D01*
X263218957Y-77673628D01*
X262689161Y-77142907D01*
X261996595Y-76855328D01*
X261246695Y-76854674D01*
X260553628Y-77141043D01*
X260022907Y-77670839D01*
X259735328Y-78363405D01*
X259734674Y-79113305D01*
X255397000Y-79113305D01*
X255397000Y-69850000D01*
X275463000Y-69850000D01*
X275463000Y-82550000D01*
X275471685Y-82596159D01*
X275498965Y-82638553D01*
X275540590Y-82666994D01*
X275590000Y-82677000D01*
X280090533Y-82677000D01*
X280090438Y-82785967D01*
X280232483Y-83129743D01*
X280495273Y-83392992D01*
X280838801Y-83535638D01*
X281210767Y-83535962D01*
X281554543Y-83393917D01*
X281636603Y-83312000D01*
X281840528Y-83312000D01*
X282112693Y-83257863D01*
X282343422Y-83103694D01*
X282348699Y-83098417D01*
X282667601Y-83230838D01*
X283039567Y-83231162D01*
X283383343Y-83089117D01*
X283646592Y-82826327D01*
X283789238Y-82482799D01*
X283789303Y-82407891D01*
X284485106Y-83103694D01*
X284715835Y-83257863D01*
X284760990Y-83266845D01*
X284988000Y-83312000D01*
X288339222Y-83312000D01*
X288420073Y-83392992D01*
X288763601Y-83535638D01*
X289135567Y-83535962D01*
X289479343Y-83393917D01*
X289742592Y-83131127D01*
X289885238Y-82787599D01*
X289885562Y-82415633D01*
X289743517Y-82071857D01*
X289480727Y-81808608D01*
X289137199Y-81665962D01*
X288765233Y-81665638D01*
X288421457Y-81807683D01*
X288339397Y-81889600D01*
X285282588Y-81889600D01*
X284271694Y-80878706D01*
X284040965Y-80724537D01*
X283768800Y-80670400D01*
X283337000Y-80670400D01*
X283337000Y-79113305D01*
X287674674Y-79113305D01*
X287961043Y-79806372D01*
X288490839Y-80337093D01*
X289183405Y-80624672D01*
X289933305Y-80625326D01*
X290626372Y-80338957D01*
X291157093Y-79809161D01*
X291444672Y-79116595D01*
X291444674Y-79113305D01*
X295294674Y-79113305D01*
X295581043Y-79806372D01*
X296110839Y-80337093D01*
X296803405Y-80624672D01*
X297553305Y-80625326D01*
X298246372Y-80338957D01*
X298777093Y-79809161D01*
X299064672Y-79116595D01*
X299065326Y-78366695D01*
X298778957Y-77673628D01*
X298249161Y-77142907D01*
X297556595Y-76855328D01*
X296806695Y-76854674D01*
X296113628Y-77141043D01*
X295582907Y-77670839D01*
X295295328Y-78363405D01*
X295294674Y-79113305D01*
X291444674Y-79113305D01*
X291445326Y-78366695D01*
X291158957Y-77673628D01*
X290629161Y-77142907D01*
X289936595Y-76855328D01*
X289186695Y-76854674D01*
X288493628Y-77141043D01*
X287962907Y-77670839D01*
X287675328Y-78363405D01*
X287674674Y-79113305D01*
X283337000Y-79113305D01*
X283337000Y-69850000D01*
X303403000Y-69850000D01*
X303403000Y-82550000D01*
X303411685Y-82596159D01*
X303438965Y-82638553D01*
X303480590Y-82666994D01*
X303530000Y-82677000D01*
X308030533Y-82677000D01*
X308030438Y-82785967D01*
X308172483Y-83129743D01*
X308435273Y-83392992D01*
X308778801Y-83535638D01*
X309150767Y-83535962D01*
X309494543Y-83393917D01*
X309576603Y-83312000D01*
X309780528Y-83312000D01*
X310052693Y-83257863D01*
X310283422Y-83103694D01*
X310288699Y-83098417D01*
X310607601Y-83230838D01*
X310979567Y-83231162D01*
X311323343Y-83089117D01*
X311586592Y-82826327D01*
X311729238Y-82482799D01*
X311729303Y-82407891D01*
X312425106Y-83103694D01*
X312655835Y-83257863D01*
X312700990Y-83266845D01*
X312928000Y-83312000D01*
X316279222Y-83312000D01*
X316360073Y-83392992D01*
X316703601Y-83535638D01*
X317075567Y-83535962D01*
X317419343Y-83393917D01*
X317682592Y-83131127D01*
X317825238Y-82787599D01*
X317825562Y-82415633D01*
X317683517Y-82071857D01*
X317420727Y-81808608D01*
X317077199Y-81665962D01*
X316705233Y-81665638D01*
X316361457Y-81807683D01*
X316279397Y-81889600D01*
X313222588Y-81889600D01*
X312211694Y-80878706D01*
X311980965Y-80724537D01*
X311708800Y-80670400D01*
X311277000Y-80670400D01*
X311277000Y-79113305D01*
X315614674Y-79113305D01*
X315901043Y-79806372D01*
X316430839Y-80337093D01*
X317123405Y-80624672D01*
X317873305Y-80625326D01*
X318566372Y-80338957D01*
X319097093Y-79809161D01*
X319384672Y-79116595D01*
X319384674Y-79113305D01*
X323234674Y-79113305D01*
X323521043Y-79806372D01*
X324050839Y-80337093D01*
X324743405Y-80624672D01*
X325493305Y-80625326D01*
X326186372Y-80338957D01*
X326717093Y-79809161D01*
X327004672Y-79116595D01*
X327005326Y-78366695D01*
X326718957Y-77673628D01*
X326189161Y-77142907D01*
X325496595Y-76855328D01*
X324746695Y-76854674D01*
X324053628Y-77141043D01*
X323522907Y-77670839D01*
X323235328Y-78363405D01*
X323234674Y-79113305D01*
X319384674Y-79113305D01*
X319385326Y-78366695D01*
X319098957Y-77673628D01*
X318569161Y-77142907D01*
X317876595Y-76855328D01*
X317126695Y-76854674D01*
X316433628Y-77141043D01*
X315902907Y-77670839D01*
X315615328Y-78363405D01*
X315614674Y-79113305D01*
X311277000Y-79113305D01*
X311277000Y-69850000D01*
X331343000Y-69850000D01*
X331343000Y-82550000D01*
X331351685Y-82596159D01*
X331378965Y-82638553D01*
X331420590Y-82666994D01*
X331470000Y-82677000D01*
X335970533Y-82677000D01*
X335970438Y-82785967D01*
X336112483Y-83129743D01*
X336375273Y-83392992D01*
X336718801Y-83535638D01*
X337090767Y-83535962D01*
X337434543Y-83393917D01*
X337516603Y-83312000D01*
X337720528Y-83312000D01*
X337992693Y-83257863D01*
X338223422Y-83103694D01*
X338228699Y-83098417D01*
X338547601Y-83230838D01*
X338919567Y-83231162D01*
X339263343Y-83089117D01*
X339526592Y-82826327D01*
X339669238Y-82482799D01*
X339669303Y-82407891D01*
X340365106Y-83103694D01*
X340595835Y-83257863D01*
X340640990Y-83266845D01*
X340868000Y-83312000D01*
X344219222Y-83312000D01*
X344300073Y-83392992D01*
X344643601Y-83535638D01*
X345015567Y-83535962D01*
X345359343Y-83393917D01*
X345622592Y-83131127D01*
X345765238Y-82787599D01*
X345765562Y-82415633D01*
X345623517Y-82071857D01*
X345360727Y-81808608D01*
X345017199Y-81665962D01*
X344645233Y-81665638D01*
X344301457Y-81807683D01*
X344219397Y-81889600D01*
X341162588Y-81889600D01*
X340151694Y-80878706D01*
X339920965Y-80724537D01*
X339648800Y-80670400D01*
X339217000Y-80670400D01*
X339217000Y-79113305D01*
X343554674Y-79113305D01*
X343841043Y-79806372D01*
X344370839Y-80337093D01*
X345063405Y-80624672D01*
X345813305Y-80625326D01*
X346506372Y-80338957D01*
X347037093Y-79809161D01*
X347324672Y-79116595D01*
X347324674Y-79113305D01*
X351174674Y-79113305D01*
X351461043Y-79806372D01*
X351990839Y-80337093D01*
X352683405Y-80624672D01*
X353433305Y-80625326D01*
X354126372Y-80338957D01*
X354657093Y-79809161D01*
X354944672Y-79116595D01*
X354945326Y-78366695D01*
X354658957Y-77673628D01*
X354129161Y-77142907D01*
X353436595Y-76855328D01*
X352686695Y-76854674D01*
X351993628Y-77141043D01*
X351462907Y-77670839D01*
X351175328Y-78363405D01*
X351174674Y-79113305D01*
X347324674Y-79113305D01*
X347325326Y-78366695D01*
X347038957Y-77673628D01*
X346509161Y-77142907D01*
X345816595Y-76855328D01*
X345066695Y-76854674D01*
X344373628Y-77141043D01*
X343842907Y-77670839D01*
X343555328Y-78363405D01*
X343554674Y-79113305D01*
X339217000Y-79113305D01*
X339217000Y-69850000D01*
X359283000Y-69850000D01*
X359283000Y-82550000D01*
X359291685Y-82596159D01*
X359318965Y-82638553D01*
X359360590Y-82666994D01*
X359410000Y-82677000D01*
X363910533Y-82677000D01*
X363910438Y-82785967D01*
X364052483Y-83129743D01*
X364315273Y-83392992D01*
X364658801Y-83535638D01*
X365030767Y-83535962D01*
X365374543Y-83393917D01*
X365456603Y-83312000D01*
X365660528Y-83312000D01*
X365932693Y-83257863D01*
X366163422Y-83103694D01*
X366168699Y-83098417D01*
X366487601Y-83230838D01*
X366859567Y-83231162D01*
X367203343Y-83089117D01*
X367466592Y-82826327D01*
X367609238Y-82482799D01*
X367609303Y-82407891D01*
X368305106Y-83103694D01*
X368535835Y-83257863D01*
X368580990Y-83266845D01*
X368808000Y-83312000D01*
X372159222Y-83312000D01*
X372240073Y-83392992D01*
X372583601Y-83535638D01*
X372955567Y-83535962D01*
X373299343Y-83393917D01*
X373562592Y-83131127D01*
X373705238Y-82787599D01*
X373705562Y-82415633D01*
X373563517Y-82071857D01*
X373300727Y-81808608D01*
X372957199Y-81665962D01*
X372585233Y-81665638D01*
X372241457Y-81807683D01*
X372159397Y-81889600D01*
X369102588Y-81889600D01*
X368091694Y-80878706D01*
X367860965Y-80724537D01*
X367588800Y-80670400D01*
X367157000Y-80670400D01*
X367157000Y-79113305D01*
X371494674Y-79113305D01*
X371781043Y-79806372D01*
X372310839Y-80337093D01*
X373003405Y-80624672D01*
X373753305Y-80625326D01*
X374446372Y-80338957D01*
X374977093Y-79809161D01*
X375264672Y-79116595D01*
X375265326Y-78366695D01*
X374978957Y-77673628D01*
X374449161Y-77142907D01*
X373756595Y-76855328D01*
X373006695Y-76854674D01*
X372313628Y-77141043D01*
X371782907Y-77670839D01*
X371495328Y-78363405D01*
X371494674Y-79113305D01*
X367157000Y-79113305D01*
X367157000Y-69850000D01*
X367148315Y-69803841D01*
X367121035Y-69761447D01*
X367079410Y-69733006D01*
X367058451Y-69728762D01*
X367448086Y-69567767D01*
X367767645Y-69248765D01*
X367940803Y-68831756D01*
X367941197Y-68380225D01*
X367768767Y-67962914D01*
X367449765Y-67643355D01*
X367032756Y-67470197D01*
X366581225Y-67469803D01*
X366163914Y-67642233D01*
X365844355Y-67961235D01*
X365671197Y-68378244D01*
X365670803Y-68829775D01*
X365843233Y-69247086D01*
X366162235Y-69566645D01*
X366538778Y-69723000D01*
X359410000Y-69723000D01*
X359363841Y-69731685D01*
X359321447Y-69758965D01*
X359293006Y-69800590D01*
X359283000Y-69850000D01*
X339217000Y-69850000D01*
X339208315Y-69803841D01*
X339181035Y-69761447D01*
X339139410Y-69733006D01*
X339118451Y-69728762D01*
X339508086Y-69567767D01*
X339827645Y-69248765D01*
X340000803Y-68831756D01*
X340001197Y-68380225D01*
X339828767Y-67962914D01*
X339509765Y-67643355D01*
X339092756Y-67470197D01*
X338641225Y-67469803D01*
X338223914Y-67642233D01*
X337904355Y-67961235D01*
X337731197Y-68378244D01*
X337730803Y-68829775D01*
X337903233Y-69247086D01*
X338222235Y-69566645D01*
X338598778Y-69723000D01*
X331470000Y-69723000D01*
X331423841Y-69731685D01*
X331381447Y-69758965D01*
X331353006Y-69800590D01*
X331343000Y-69850000D01*
X311277000Y-69850000D01*
X311268315Y-69803841D01*
X311241035Y-69761447D01*
X311199410Y-69733006D01*
X311178451Y-69728762D01*
X311568086Y-69567767D01*
X311887645Y-69248765D01*
X312060803Y-68831756D01*
X312061197Y-68380225D01*
X311888767Y-67962914D01*
X311569765Y-67643355D01*
X311152756Y-67470197D01*
X310701225Y-67469803D01*
X310283914Y-67642233D01*
X309964355Y-67961235D01*
X309791197Y-68378244D01*
X309790803Y-68829775D01*
X309963233Y-69247086D01*
X310282235Y-69566645D01*
X310658778Y-69723000D01*
X303530000Y-69723000D01*
X303483841Y-69731685D01*
X303441447Y-69758965D01*
X303413006Y-69800590D01*
X303403000Y-69850000D01*
X283337000Y-69850000D01*
X283328315Y-69803841D01*
X283301035Y-69761447D01*
X283259410Y-69733006D01*
X283238451Y-69728762D01*
X283628086Y-69567767D01*
X283947645Y-69248765D01*
X284120803Y-68831756D01*
X284121197Y-68380225D01*
X283948767Y-67962914D01*
X283629765Y-67643355D01*
X283212756Y-67470197D01*
X282761225Y-67469803D01*
X282343914Y-67642233D01*
X282024355Y-67961235D01*
X281851197Y-68378244D01*
X281850803Y-68829775D01*
X282023233Y-69247086D01*
X282342235Y-69566645D01*
X282718778Y-69723000D01*
X275590000Y-69723000D01*
X275543841Y-69731685D01*
X275501447Y-69758965D01*
X275473006Y-69800590D01*
X275463000Y-69850000D01*
X255397000Y-69850000D01*
X255388315Y-69803841D01*
X255361035Y-69761447D01*
X255319410Y-69733006D01*
X255298451Y-69728762D01*
X255688086Y-69567767D01*
X256007645Y-69248765D01*
X256180803Y-68831756D01*
X256181197Y-68380225D01*
X256008767Y-67962914D01*
X255689765Y-67643355D01*
X255272756Y-67470197D01*
X254821225Y-67469803D01*
X254403914Y-67642233D01*
X254084355Y-67961235D01*
X253911197Y-68378244D01*
X253910803Y-68829775D01*
X254083233Y-69247086D01*
X254402235Y-69566645D01*
X254778778Y-69723000D01*
X247650000Y-69723000D01*
X247603841Y-69731685D01*
X247561447Y-69758965D01*
X247533006Y-69800590D01*
X247523000Y-69850000D01*
X227457000Y-69850000D01*
X227448315Y-69803841D01*
X227421035Y-69761447D01*
X227379410Y-69733006D01*
X227358451Y-69728762D01*
X227748086Y-69567767D01*
X228067645Y-69248765D01*
X228240803Y-68831756D01*
X228241197Y-68380225D01*
X228068767Y-67962914D01*
X227749765Y-67643355D01*
X227332756Y-67470197D01*
X226881225Y-67469803D01*
X226463914Y-67642233D01*
X226144355Y-67961235D01*
X225971197Y-68378244D01*
X225970803Y-68829775D01*
X226143233Y-69247086D01*
X226462235Y-69566645D01*
X226838778Y-69723000D01*
X219710000Y-69723000D01*
X219663841Y-69731685D01*
X219621447Y-69758965D01*
X219593006Y-69800590D01*
X219583000Y-69850000D01*
X199517000Y-69850000D01*
X199508315Y-69803841D01*
X199481035Y-69761447D01*
X199439410Y-69733006D01*
X199418451Y-69728762D01*
X199808086Y-69567767D01*
X200127645Y-69248765D01*
X200300803Y-68831756D01*
X200301197Y-68380225D01*
X200128767Y-67962914D01*
X199809765Y-67643355D01*
X199392756Y-67470197D01*
X198941225Y-67469803D01*
X198523914Y-67642233D01*
X198204355Y-67961235D01*
X198031197Y-68378244D01*
X198030803Y-68829775D01*
X198203233Y-69247086D01*
X198522235Y-69566645D01*
X198898778Y-69723000D01*
X191770000Y-69723000D01*
X191723841Y-69731685D01*
X191681447Y-69758965D01*
X191653006Y-69800590D01*
X191643000Y-69850000D01*
X171577000Y-69850000D01*
X171568315Y-69803841D01*
X171541035Y-69761447D01*
X171499410Y-69733006D01*
X171478451Y-69728762D01*
X171868086Y-69567767D01*
X172187645Y-69248765D01*
X172360803Y-68831756D01*
X172361197Y-68380225D01*
X172188767Y-67962914D01*
X171869765Y-67643355D01*
X171452756Y-67470197D01*
X171001225Y-67469803D01*
X170583914Y-67642233D01*
X170264355Y-67961235D01*
X170091197Y-68378244D01*
X170090803Y-68829775D01*
X170263233Y-69247086D01*
X170582235Y-69566645D01*
X170958778Y-69723000D01*
X163830000Y-69723000D01*
X163783841Y-69731685D01*
X163741447Y-69758965D01*
X163713006Y-69800590D01*
X163703000Y-69850000D01*
X143637000Y-69850000D01*
X143628315Y-69803841D01*
X143601035Y-69761447D01*
X143559410Y-69733006D01*
X143538451Y-69728762D01*
X143928086Y-69567767D01*
X144247645Y-69248765D01*
X144420803Y-68831756D01*
X144421197Y-68380225D01*
X144248767Y-67962914D01*
X143929765Y-67643355D01*
X143512756Y-67470197D01*
X143061225Y-67469803D01*
X142643914Y-67642233D01*
X142324355Y-67961235D01*
X142151197Y-68378244D01*
X142150803Y-68829775D01*
X142323233Y-69247086D01*
X142642235Y-69566645D01*
X143018778Y-69723000D01*
X135890000Y-69723000D01*
X135843841Y-69731685D01*
X135801447Y-69758965D01*
X135773006Y-69800590D01*
X135763000Y-69850000D01*
X127127000Y-69850000D01*
X127127000Y-62357000D01*
X397051150Y-62357000D01*
X396745354Y-63093438D01*
X396745354Y-63093438D01*
G37*
X396745354Y-63093438D02*
X396744648Y-63903011D01*
X397053805Y-64651229D01*
X397625760Y-65224183D01*
X398373438Y-65534646D01*
X399183011Y-65535352D01*
X399931229Y-65226195D01*
X400504183Y-64654240D01*
X400814646Y-63906562D01*
X400815352Y-63096989D01*
X400509595Y-62357000D01*
X407547617Y-62357000D01*
X407760909Y-68115900D01*
X407617243Y-67768200D01*
X407213923Y-67364176D01*
X406686691Y-67145250D01*
X406115813Y-67144752D01*
X405588200Y-67362757D01*
X405184176Y-67766077D01*
X405130138Y-67896215D01*
X405077243Y-67768200D01*
X404673923Y-67364176D01*
X404146691Y-67145250D01*
X403575813Y-67144752D01*
X403048200Y-67362757D01*
X402644176Y-67766077D01*
X402590138Y-67896215D01*
X402537243Y-67768200D01*
X402133923Y-67364176D01*
X401606691Y-67145250D01*
X401035813Y-67144752D01*
X400508200Y-67362757D01*
X400104176Y-67766077D01*
X399885250Y-68293309D01*
X399884752Y-68864187D01*
X400102757Y-69391800D01*
X400506077Y-69795824D01*
X400636215Y-69849862D01*
X400508200Y-69902757D01*
X400104176Y-70306077D01*
X399885250Y-70833309D01*
X399884752Y-71404187D01*
X400102757Y-71931800D01*
X400404688Y-72234258D01*
X400284683Y-72256838D01*
X400068559Y-72395910D01*
X399923569Y-72608110D01*
X399872560Y-72860000D01*
X399872560Y-74460000D01*
X399916838Y-74695317D01*
X400055910Y-74911441D01*
X400268110Y-75056431D01*
X400406354Y-75084426D01*
X400104176Y-75386077D01*
X399885250Y-75913309D01*
X399884752Y-76484187D01*
X400102757Y-77011800D01*
X400506077Y-77415824D01*
X400636215Y-77469862D01*
X400508200Y-77522757D01*
X400104176Y-77926077D01*
X399885250Y-78453309D01*
X399884752Y-79024187D01*
X400102757Y-79551800D01*
X400506077Y-79955824D01*
X400636215Y-80009862D01*
X400508200Y-80062757D01*
X400104176Y-80466077D01*
X399885250Y-80993309D01*
X399884752Y-81564187D01*
X400102757Y-82091800D01*
X400506077Y-82495824D01*
X400636215Y-82549862D01*
X400508200Y-82602757D01*
X400104176Y-83006077D01*
X399885250Y-83533309D01*
X399884752Y-84104187D01*
X400102757Y-84631800D01*
X400506077Y-85035824D01*
X400636215Y-85089862D01*
X400508200Y-85142757D01*
X400104176Y-85546077D01*
X399885250Y-86073309D01*
X399884752Y-86644187D01*
X400102757Y-87171800D01*
X400506077Y-87575824D01*
X400620768Y-87623448D01*
X400565995Y-87646136D01*
X400491861Y-87892255D01*
X401320000Y-88720395D01*
X402148139Y-87892255D01*
X402074005Y-87646136D01*
X402015746Y-87625195D01*
X402131800Y-87577243D01*
X402535824Y-87173923D01*
X402589862Y-87043785D01*
X402642757Y-87171800D01*
X403046077Y-87575824D01*
X403160768Y-87623448D01*
X403105995Y-87646136D01*
X403031861Y-87892255D01*
X403860000Y-88720395D01*
X404688139Y-87892255D01*
X404614005Y-87646136D01*
X404555746Y-87625195D01*
X404671800Y-87577243D01*
X405075824Y-87173923D01*
X405129862Y-87043785D01*
X405182757Y-87171800D01*
X405586077Y-87575824D01*
X405700768Y-87623448D01*
X405645995Y-87646136D01*
X405571861Y-87892255D01*
X406400000Y-88720395D01*
X407228139Y-87892255D01*
X407154005Y-87646136D01*
X407095746Y-87625195D01*
X407211800Y-87577243D01*
X407615824Y-87173923D01*
X407834750Y-86646691D01*
X407835248Y-86075813D01*
X407617243Y-85548200D01*
X407213923Y-85144176D01*
X407083785Y-85090138D01*
X407211800Y-85037243D01*
X407615824Y-84633923D01*
X407834750Y-84106691D01*
X407835248Y-83535813D01*
X407617243Y-83008200D01*
X407213923Y-82604176D01*
X407083785Y-82550138D01*
X407211800Y-82497243D01*
X407615824Y-82093923D01*
X407834750Y-81566691D01*
X407835248Y-80995813D01*
X407617243Y-80468200D01*
X407213923Y-80064176D01*
X407083785Y-80010138D01*
X407211800Y-79957243D01*
X407615824Y-79553923D01*
X407834750Y-79026691D01*
X407835248Y-78455813D01*
X407617243Y-77928200D01*
X407213923Y-77524176D01*
X407083785Y-77470138D01*
X407211800Y-77417243D01*
X407615824Y-77013923D01*
X407834750Y-76486691D01*
X407835248Y-75915813D01*
X407617243Y-75388200D01*
X407315312Y-75085742D01*
X407435317Y-75063162D01*
X407651441Y-74924090D01*
X407796431Y-74711890D01*
X407847440Y-74460000D01*
X407847440Y-72860000D01*
X407803162Y-72624683D01*
X407664090Y-72408559D01*
X407451890Y-72263569D01*
X407313646Y-72235574D01*
X407615824Y-71933923D01*
X407834750Y-71406691D01*
X407835248Y-70835813D01*
X407617243Y-70308200D01*
X407213923Y-69904176D01*
X407083785Y-69850138D01*
X407211800Y-69797243D01*
X407615824Y-69393923D01*
X407792486Y-68968473D01*
X408230000Y-80781350D01*
X408230000Y-96393000D01*
X407835111Y-96393000D01*
X407835248Y-96235813D01*
X407617243Y-95708200D01*
X407213923Y-95304176D01*
X407083785Y-95250138D01*
X407211800Y-95197243D01*
X407615824Y-94793923D01*
X407834750Y-94266691D01*
X407835248Y-93695813D01*
X407617243Y-93168200D01*
X407213923Y-92764176D01*
X407099232Y-92716552D01*
X407154005Y-92693864D01*
X407228139Y-92447745D01*
X406400000Y-91619605D01*
X405571861Y-92447745D01*
X405645995Y-92693864D01*
X405704254Y-92714805D01*
X405588200Y-92762757D01*
X405184176Y-93166077D01*
X405130138Y-93296215D01*
X405077243Y-93168200D01*
X404673923Y-92764176D01*
X404559232Y-92716552D01*
X404614005Y-92693864D01*
X404688139Y-92447745D01*
X403860000Y-91619605D01*
X403031861Y-92447745D01*
X403105995Y-92693864D01*
X403164254Y-92714805D01*
X403048200Y-92762757D01*
X402644176Y-93166077D01*
X402590138Y-93296215D01*
X402537243Y-93168200D01*
X402133923Y-92764176D01*
X402019232Y-92716552D01*
X402074005Y-92693864D01*
X402148139Y-92447745D01*
X401320000Y-91619605D01*
X400491861Y-92447745D01*
X400565995Y-92693864D01*
X400624254Y-92714805D01*
X400508200Y-92762757D01*
X400104176Y-93166077D01*
X399885250Y-93693309D01*
X399884752Y-94264187D01*
X400102757Y-94791800D01*
X400506077Y-95195824D01*
X400636215Y-95249862D01*
X400508200Y-95302757D01*
X400104176Y-95706077D01*
X399885250Y-96233309D01*
X399885111Y-96393000D01*
X351455111Y-96393000D01*
X351455162Y-96334833D01*
X351313117Y-95991057D01*
X351050327Y-95727808D01*
X350706799Y-95585162D01*
X350334833Y-95584838D01*
X349991057Y-95726883D01*
X349727808Y-95989673D01*
X349585162Y-96333201D01*
X349585110Y-96393000D01*
X127127000Y-96393000D01*
X127127000Y-91223223D01*
X399873035Y-91223223D01*
X399900222Y-91793454D01*
X400066136Y-92194005D01*
X400312255Y-92268139D01*
X401140395Y-91440000D01*
X401499605Y-91440000D01*
X402327745Y-92268139D01*
X402573864Y-92194005D01*
X402588858Y-92152291D01*
X402606136Y-92194005D01*
X402852255Y-92268139D01*
X403680395Y-91440000D01*
X404039605Y-91440000D01*
X404867745Y-92268139D01*
X405113864Y-92194005D01*
X405128858Y-92152291D01*
X405146136Y-92194005D01*
X405392255Y-92268139D01*
X406220395Y-91440000D01*
X406579605Y-91440000D01*
X407407745Y-92268139D01*
X407653864Y-92194005D01*
X407846965Y-91656777D01*
X407819778Y-91086546D01*
X407653864Y-90685995D01*
X407407745Y-90611861D01*
X406579605Y-91440000D01*
X406220395Y-91440000D01*
X405392255Y-90611861D01*
X405146136Y-90685995D01*
X405131142Y-90727709D01*
X405113864Y-90685995D01*
X404867745Y-90611861D01*
X404039605Y-91440000D01*
X403680395Y-91440000D01*
X402852255Y-90611861D01*
X402606136Y-90685995D01*
X402591142Y-90727709D01*
X402573864Y-90685995D01*
X402327745Y-90611861D01*
X401499605Y-91440000D01*
X401140395Y-91440000D01*
X400312255Y-90611861D01*
X400066136Y-90685995D01*
X399873035Y-91223223D01*
X127127000Y-91223223D01*
X127127000Y-89907745D01*
X400491861Y-89907745D01*
X400565995Y-90153864D01*
X400607709Y-90168858D01*
X400565995Y-90186136D01*
X400491861Y-90432255D01*
X401320000Y-91260395D01*
X402148139Y-90432255D01*
X402074005Y-90186136D01*
X402032291Y-90171142D01*
X402074005Y-90153864D01*
X402148139Y-89907745D01*
X403031861Y-89907745D01*
X403105995Y-90153864D01*
X403147709Y-90168858D01*
X403105995Y-90186136D01*
X403031861Y-90432255D01*
X403860000Y-91260395D01*
X404688139Y-90432255D01*
X404614005Y-90186136D01*
X404572291Y-90171142D01*
X404614005Y-90153864D01*
X404688139Y-89907745D01*
X405571861Y-89907745D01*
X405645995Y-90153864D01*
X405687709Y-90168858D01*
X405645995Y-90186136D01*
X405571861Y-90432255D01*
X406400000Y-91260395D01*
X407228139Y-90432255D01*
X407154005Y-90186136D01*
X407112291Y-90171142D01*
X407154005Y-90153864D01*
X407228139Y-89907745D01*
X406400000Y-89079605D01*
X405571861Y-89907745D01*
X404688139Y-89907745D01*
X403860000Y-89079605D01*
X403031861Y-89907745D01*
X402148139Y-89907745D01*
X401320000Y-89079605D01*
X400491861Y-89907745D01*
X127127000Y-89907745D01*
X127127000Y-88683223D01*
X399873035Y-88683223D01*
X399900222Y-89253454D01*
X400066136Y-89654005D01*
X400312255Y-89728139D01*
X401140395Y-88900000D01*
X401499605Y-88900000D01*
X402327745Y-89728139D01*
X402573864Y-89654005D01*
X402588858Y-89612291D01*
X402606136Y-89654005D01*
X402852255Y-89728139D01*
X403680395Y-88900000D01*
X404039605Y-88900000D01*
X404867745Y-89728139D01*
X405113864Y-89654005D01*
X405128858Y-89612291D01*
X405146136Y-89654005D01*
X405392255Y-89728139D01*
X406220395Y-88900000D01*
X406579605Y-88900000D01*
X407407745Y-89728139D01*
X407653864Y-89654005D01*
X407846965Y-89116777D01*
X407819778Y-88546546D01*
X407653864Y-88145995D01*
X407407745Y-88071861D01*
X406579605Y-88900000D01*
X406220395Y-88900000D01*
X405392255Y-88071861D01*
X405146136Y-88145995D01*
X405131142Y-88187709D01*
X405113864Y-88145995D01*
X404867745Y-88071861D01*
X404039605Y-88900000D01*
X403680395Y-88900000D01*
X402852255Y-88071861D01*
X402606136Y-88145995D01*
X402591142Y-88187709D01*
X402573864Y-88145995D01*
X402327745Y-88071861D01*
X401499605Y-88900000D01*
X401140395Y-88900000D01*
X400312255Y-88071861D01*
X400066136Y-88145995D01*
X399873035Y-88683223D01*
X127127000Y-88683223D01*
X127127000Y-86443567D01*
X146181638Y-86443567D01*
X146323683Y-86787343D01*
X146586473Y-87050592D01*
X146930001Y-87193238D01*
X147301967Y-87193562D01*
X147645743Y-87051517D01*
X147908992Y-86788727D01*
X148051638Y-86445199D01*
X148051639Y-86443567D01*
X174121638Y-86443567D01*
X174263683Y-86787343D01*
X174526473Y-87050592D01*
X174870001Y-87193238D01*
X175241967Y-87193562D01*
X175585743Y-87051517D01*
X175848992Y-86788727D01*
X175991638Y-86445199D01*
X175991639Y-86443567D01*
X202061638Y-86443567D01*
X202203683Y-86787343D01*
X202466473Y-87050592D01*
X202810001Y-87193238D01*
X203181967Y-87193562D01*
X203525743Y-87051517D01*
X203788992Y-86788727D01*
X203931638Y-86445199D01*
X203931639Y-86443567D01*
X230001638Y-86443567D01*
X230143683Y-86787343D01*
X230406473Y-87050592D01*
X230750001Y-87193238D01*
X231121967Y-87193562D01*
X231465743Y-87051517D01*
X231728992Y-86788727D01*
X231871638Y-86445199D01*
X231871639Y-86443567D01*
X257941638Y-86443567D01*
X258083683Y-86787343D01*
X258346473Y-87050592D01*
X258690001Y-87193238D01*
X259061967Y-87193562D01*
X259405743Y-87051517D01*
X259668992Y-86788727D01*
X259811638Y-86445199D01*
X259811639Y-86443567D01*
X285881638Y-86443567D01*
X286023683Y-86787343D01*
X286286473Y-87050592D01*
X286630001Y-87193238D01*
X287001967Y-87193562D01*
X287345743Y-87051517D01*
X287608992Y-86788727D01*
X287751638Y-86445199D01*
X287751639Y-86443567D01*
X313821638Y-86443567D01*
X313963683Y-86787343D01*
X314226473Y-87050592D01*
X314570001Y-87193238D01*
X314941967Y-87193562D01*
X315285743Y-87051517D01*
X315548992Y-86788727D01*
X315691638Y-86445199D01*
X315691639Y-86443567D01*
X341761638Y-86443567D01*
X341903683Y-86787343D01*
X342166473Y-87050592D01*
X342510001Y-87193238D01*
X342881967Y-87193562D01*
X343225743Y-87051517D01*
X343488992Y-86788727D01*
X343631638Y-86445199D01*
X343631639Y-86443567D01*
X369701638Y-86443567D01*
X369843683Y-86787343D01*
X370106473Y-87050592D01*
X370450001Y-87193238D01*
X370821967Y-87193562D01*
X371165743Y-87051517D01*
X371428992Y-86788727D01*
X371571638Y-86445199D01*
X371571962Y-86073233D01*
X371429917Y-85729457D01*
X371167127Y-85466208D01*
X370823599Y-85323562D01*
X370451633Y-85323238D01*
X370107857Y-85465283D01*
X369844608Y-85728073D01*
X369701962Y-86071601D01*
X369701638Y-86443567D01*
X343631639Y-86443567D01*
X343631962Y-86073233D01*
X343489917Y-85729457D01*
X343227127Y-85466208D01*
X342883599Y-85323562D01*
X342511633Y-85323238D01*
X342167857Y-85465283D01*
X341904608Y-85728073D01*
X341761962Y-86071601D01*
X341761638Y-86443567D01*
X315691639Y-86443567D01*
X315691962Y-86073233D01*
X315549917Y-85729457D01*
X315287127Y-85466208D01*
X314943599Y-85323562D01*
X314571633Y-85323238D01*
X314227857Y-85465283D01*
X313964608Y-85728073D01*
X313821962Y-86071601D01*
X313821638Y-86443567D01*
X287751639Y-86443567D01*
X287751962Y-86073233D01*
X287609917Y-85729457D01*
X287347127Y-85466208D01*
X287003599Y-85323562D01*
X286631633Y-85323238D01*
X286287857Y-85465283D01*
X286024608Y-85728073D01*
X285881962Y-86071601D01*
X285881638Y-86443567D01*
X259811639Y-86443567D01*
X259811962Y-86073233D01*
X259669917Y-85729457D01*
X259407127Y-85466208D01*
X259063599Y-85323562D01*
X258691633Y-85323238D01*
X258347857Y-85465283D01*
X258084608Y-85728073D01*
X257941962Y-86071601D01*
X257941638Y-86443567D01*
X231871639Y-86443567D01*
X231871962Y-86073233D01*
X231729917Y-85729457D01*
X231467127Y-85466208D01*
X231123599Y-85323562D01*
X230751633Y-85323238D01*
X230407857Y-85465283D01*
X230144608Y-85728073D01*
X230001962Y-86071601D01*
X230001638Y-86443567D01*
X203931639Y-86443567D01*
X203931962Y-86073233D01*
X203789917Y-85729457D01*
X203527127Y-85466208D01*
X203183599Y-85323562D01*
X202811633Y-85323238D01*
X202467857Y-85465283D01*
X202204608Y-85728073D01*
X202061962Y-86071601D01*
X202061638Y-86443567D01*
X175991639Y-86443567D01*
X175991962Y-86073233D01*
X175849917Y-85729457D01*
X175587127Y-85466208D01*
X175243599Y-85323562D01*
X174871633Y-85323238D01*
X174527857Y-85465283D01*
X174264608Y-85728073D01*
X174121962Y-86071601D01*
X174121638Y-86443567D01*
X148051639Y-86443567D01*
X148051962Y-86073233D01*
X147909917Y-85729457D01*
X147647127Y-85466208D01*
X147303599Y-85323562D01*
X146931633Y-85323238D01*
X146587857Y-85465283D01*
X146324608Y-85728073D01*
X146181962Y-86071601D01*
X146181638Y-86443567D01*
X127127000Y-86443567D01*
X127127000Y-79113305D01*
X127654674Y-79113305D01*
X127941043Y-79806372D01*
X128470839Y-80337093D01*
X129163405Y-80624672D01*
X129913305Y-80625326D01*
X130606372Y-80338957D01*
X131137093Y-79809161D01*
X131424672Y-79116595D01*
X131425326Y-78366695D01*
X131138957Y-77673628D01*
X130609161Y-77142907D01*
X129916595Y-76855328D01*
X129166695Y-76854674D01*
X128473628Y-77141043D01*
X127942907Y-77670839D01*
X127655328Y-78363405D01*
X127654674Y-79113305D01*
X127127000Y-79113305D01*
X127127000Y-69850000D01*
X135763000Y-69850000D01*
X135763000Y-82550000D01*
X135771685Y-82596159D01*
X135798965Y-82638553D01*
X135840590Y-82666994D01*
X135890000Y-82677000D01*
X140390533Y-82677000D01*
X140390438Y-82785967D01*
X140532483Y-83129743D01*
X140795273Y-83392992D01*
X141138801Y-83535638D01*
X141510767Y-83535962D01*
X141854543Y-83393917D01*
X141936603Y-83312000D01*
X142140528Y-83312000D01*
X142412693Y-83257863D01*
X142643422Y-83103694D01*
X142648699Y-83098417D01*
X142967601Y-83230838D01*
X143339567Y-83231162D01*
X143683343Y-83089117D01*
X143946592Y-82826327D01*
X144089238Y-82482799D01*
X144089303Y-82407891D01*
X144785106Y-83103694D01*
X145015835Y-83257863D01*
X145060990Y-83266845D01*
X145288000Y-83312000D01*
X148639222Y-83312000D01*
X148720073Y-83392992D01*
X149063601Y-83535638D01*
X149435567Y-83535962D01*
X149779343Y-83393917D01*
X150042592Y-83131127D01*
X150185238Y-82787599D01*
X150185562Y-82415633D01*
X150043517Y-82071857D01*
X149780727Y-81808608D01*
X149437199Y-81665962D01*
X149065233Y-81665638D01*
X148721457Y-81807683D01*
X148639397Y-81889600D01*
X145582588Y-81889600D01*
X144571694Y-80878706D01*
X144340965Y-80724537D01*
X144068800Y-80670400D01*
X143637000Y-80670400D01*
X143637000Y-79113305D01*
X147974674Y-79113305D01*
X148261043Y-79806372D01*
X148790839Y-80337093D01*
X149483405Y-80624672D01*
X150233305Y-80625326D01*
X150926372Y-80338957D01*
X151457093Y-79809161D01*
X151744672Y-79116595D01*
X151744674Y-79113305D01*
X155594674Y-79113305D01*
X155881043Y-79806372D01*
X156410839Y-80337093D01*
X157103405Y-80624672D01*
X157853305Y-80625326D01*
X158546372Y-80338957D01*
X159077093Y-79809161D01*
X159364672Y-79116595D01*
X159365326Y-78366695D01*
X159078957Y-77673628D01*
X158549161Y-77142907D01*
X157856595Y-76855328D01*
X157106695Y-76854674D01*
X156413628Y-77141043D01*
X155882907Y-77670839D01*
X155595328Y-78363405D01*
X155594674Y-79113305D01*
X151744674Y-79113305D01*
X151745326Y-78366695D01*
X151458957Y-77673628D01*
X150929161Y-77142907D01*
X150236595Y-76855328D01*
X149486695Y-76854674D01*
X148793628Y-77141043D01*
X148262907Y-77670839D01*
X147975328Y-78363405D01*
X147974674Y-79113305D01*
X143637000Y-79113305D01*
X143637000Y-69850000D01*
X163703000Y-69850000D01*
X163703000Y-82550000D01*
X163711685Y-82596159D01*
X163738965Y-82638553D01*
X163780590Y-82666994D01*
X163830000Y-82677000D01*
X168330533Y-82677000D01*
X168330438Y-82785967D01*
X168472483Y-83129743D01*
X168735273Y-83392992D01*
X169078801Y-83535638D01*
X169450767Y-83535962D01*
X169794543Y-83393917D01*
X169876603Y-83312000D01*
X170080528Y-83312000D01*
X170352693Y-83257863D01*
X170583422Y-83103694D01*
X170588699Y-83098417D01*
X170907601Y-83230838D01*
X171279567Y-83231162D01*
X171623343Y-83089117D01*
X171886592Y-82826327D01*
X172029238Y-82482799D01*
X172029303Y-82407891D01*
X172725106Y-83103694D01*
X172955835Y-83257863D01*
X173000990Y-83266845D01*
X173228000Y-83312000D01*
X176579222Y-83312000D01*
X176660073Y-83392992D01*
X177003601Y-83535638D01*
X177375567Y-83535962D01*
X177719343Y-83393917D01*
X177982592Y-83131127D01*
X178125238Y-82787599D01*
X178125562Y-82415633D01*
X177983517Y-82071857D01*
X177720727Y-81808608D01*
X177377199Y-81665962D01*
X177005233Y-81665638D01*
X176661457Y-81807683D01*
X176579397Y-81889600D01*
X173522588Y-81889600D01*
X172511694Y-80878706D01*
X172280965Y-80724537D01*
X172008800Y-80670400D01*
X171577000Y-80670400D01*
X171577000Y-79113305D01*
X175914674Y-79113305D01*
X176201043Y-79806372D01*
X176730839Y-80337093D01*
X177423405Y-80624672D01*
X178173305Y-80625326D01*
X178866372Y-80338957D01*
X179397093Y-79809161D01*
X179684672Y-79116595D01*
X179684674Y-79113305D01*
X183534674Y-79113305D01*
X183821043Y-79806372D01*
X184350839Y-80337093D01*
X185043405Y-80624672D01*
X185793305Y-80625326D01*
X186486372Y-80338957D01*
X187017093Y-79809161D01*
X187304672Y-79116595D01*
X187305326Y-78366695D01*
X187018957Y-77673628D01*
X186489161Y-77142907D01*
X185796595Y-76855328D01*
X185046695Y-76854674D01*
X184353628Y-77141043D01*
X183822907Y-77670839D01*
X183535328Y-78363405D01*
X183534674Y-79113305D01*
X179684674Y-79113305D01*
X179685326Y-78366695D01*
X179398957Y-77673628D01*
X178869161Y-77142907D01*
X178176595Y-76855328D01*
X177426695Y-76854674D01*
X176733628Y-77141043D01*
X176202907Y-77670839D01*
X175915328Y-78363405D01*
X175914674Y-79113305D01*
X171577000Y-79113305D01*
X171577000Y-69850000D01*
X191643000Y-69850000D01*
X191643000Y-82550000D01*
X191651685Y-82596159D01*
X191678965Y-82638553D01*
X191720590Y-82666994D01*
X191770000Y-82677000D01*
X196270533Y-82677000D01*
X196270438Y-82785967D01*
X196412483Y-83129743D01*
X196675273Y-83392992D01*
X197018801Y-83535638D01*
X197390767Y-83535962D01*
X197734543Y-83393917D01*
X197816603Y-83312000D01*
X198020528Y-83312000D01*
X198292693Y-83257863D01*
X198523422Y-83103694D01*
X198528699Y-83098417D01*
X198847601Y-83230838D01*
X199219567Y-83231162D01*
X199563343Y-83089117D01*
X199826592Y-82826327D01*
X199969238Y-82482799D01*
X199969303Y-82407891D01*
X200665106Y-83103694D01*
X200895835Y-83257863D01*
X200940990Y-83266845D01*
X201168000Y-83312000D01*
X204519222Y-83312000D01*
X204600073Y-83392992D01*
X204943601Y-83535638D01*
X205315567Y-83535962D01*
X205659343Y-83393917D01*
X205922592Y-83131127D01*
X206065238Y-82787599D01*
X206065562Y-82415633D01*
X205923517Y-82071857D01*
X205660727Y-81808608D01*
X205317199Y-81665962D01*
X204945233Y-81665638D01*
X204601457Y-81807683D01*
X204519397Y-81889600D01*
X201462588Y-81889600D01*
X200451694Y-80878706D01*
X200220965Y-80724537D01*
X199948800Y-80670400D01*
X199517000Y-80670400D01*
X199517000Y-79113305D01*
X203854674Y-79113305D01*
X204141043Y-79806372D01*
X204670839Y-80337093D01*
X205363405Y-80624672D01*
X206113305Y-80625326D01*
X206806372Y-80338957D01*
X207337093Y-79809161D01*
X207624672Y-79116595D01*
X207624674Y-79113305D01*
X211474674Y-79113305D01*
X211761043Y-79806372D01*
X212290839Y-80337093D01*
X212983405Y-80624672D01*
X213733305Y-80625326D01*
X214426372Y-80338957D01*
X214957093Y-79809161D01*
X215244672Y-79116595D01*
X215245326Y-78366695D01*
X214958957Y-77673628D01*
X214429161Y-77142907D01*
X213736595Y-76855328D01*
X212986695Y-76854674D01*
X212293628Y-77141043D01*
X211762907Y-77670839D01*
X211475328Y-78363405D01*
X211474674Y-79113305D01*
X207624674Y-79113305D01*
X207625326Y-78366695D01*
X207338957Y-77673628D01*
X206809161Y-77142907D01*
X206116595Y-76855328D01*
X205366695Y-76854674D01*
X204673628Y-77141043D01*
X204142907Y-77670839D01*
X203855328Y-78363405D01*
X203854674Y-79113305D01*
X199517000Y-79113305D01*
X199517000Y-69850000D01*
X219583000Y-69850000D01*
X219583000Y-82550000D01*
X219591685Y-82596159D01*
X219618965Y-82638553D01*
X219660590Y-82666994D01*
X219710000Y-82677000D01*
X224210533Y-82677000D01*
X224210438Y-82785967D01*
X224352483Y-83129743D01*
X224615273Y-83392992D01*
X224958801Y-83535638D01*
X225330767Y-83535962D01*
X225674543Y-83393917D01*
X225756603Y-83312000D01*
X225960528Y-83312000D01*
X226232693Y-83257863D01*
X226463422Y-83103694D01*
X226468699Y-83098417D01*
X226787601Y-83230838D01*
X227159567Y-83231162D01*
X227503343Y-83089117D01*
X227766592Y-82826327D01*
X227909238Y-82482799D01*
X227909303Y-82407891D01*
X228605106Y-83103694D01*
X228835835Y-83257863D01*
X228880990Y-83266845D01*
X229108000Y-83312000D01*
X232459222Y-83312000D01*
X232540073Y-83392992D01*
X232883601Y-83535638D01*
X233255567Y-83535962D01*
X233599343Y-83393917D01*
X233862592Y-83131127D01*
X234005238Y-82787599D01*
X234005562Y-82415633D01*
X233863517Y-82071857D01*
X233600727Y-81808608D01*
X233257199Y-81665962D01*
X232885233Y-81665638D01*
X232541457Y-81807683D01*
X232459397Y-81889600D01*
X229402588Y-81889600D01*
X228391694Y-80878706D01*
X228160965Y-80724537D01*
X227888800Y-80670400D01*
X227457000Y-80670400D01*
X227457000Y-79113305D01*
X231794674Y-79113305D01*
X232081043Y-79806372D01*
X232610839Y-80337093D01*
X233303405Y-80624672D01*
X234053305Y-80625326D01*
X234746372Y-80338957D01*
X235277093Y-79809161D01*
X235564672Y-79116595D01*
X235564674Y-79113305D01*
X239414674Y-79113305D01*
X239701043Y-79806372D01*
X240230839Y-80337093D01*
X240923405Y-80624672D01*
X241673305Y-80625326D01*
X242366372Y-80338957D01*
X242897093Y-79809161D01*
X243184672Y-79116595D01*
X243185326Y-78366695D01*
X242898957Y-77673628D01*
X242369161Y-77142907D01*
X241676595Y-76855328D01*
X240926695Y-76854674D01*
X240233628Y-77141043D01*
X239702907Y-77670839D01*
X239415328Y-78363405D01*
X239414674Y-79113305D01*
X235564674Y-79113305D01*
X235565326Y-78366695D01*
X235278957Y-77673628D01*
X234749161Y-77142907D01*
X234056595Y-76855328D01*
X233306695Y-76854674D01*
X232613628Y-77141043D01*
X232082907Y-77670839D01*
X231795328Y-78363405D01*
X231794674Y-79113305D01*
X227457000Y-79113305D01*
X227457000Y-69850000D01*
X247523000Y-69850000D01*
X247523000Y-82550000D01*
X247531685Y-82596159D01*
X247558965Y-82638553D01*
X247600590Y-82666994D01*
X247650000Y-82677000D01*
X252150533Y-82677000D01*
X252150438Y-82785967D01*
X252292483Y-83129743D01*
X252555273Y-83392992D01*
X252898801Y-83535638D01*
X253270767Y-83535962D01*
X253614543Y-83393917D01*
X253696603Y-83312000D01*
X253900528Y-83312000D01*
X254172693Y-83257863D01*
X254403422Y-83103694D01*
X254408699Y-83098417D01*
X254727601Y-83230838D01*
X255099567Y-83231162D01*
X255443343Y-83089117D01*
X255706592Y-82826327D01*
X255849238Y-82482799D01*
X255849303Y-82407891D01*
X256545106Y-83103694D01*
X256775835Y-83257863D01*
X256820990Y-83266845D01*
X257048000Y-83312000D01*
X260399222Y-83312000D01*
X260480073Y-83392992D01*
X260823601Y-83535638D01*
X261195567Y-83535962D01*
X261539343Y-83393917D01*
X261802592Y-83131127D01*
X261945238Y-82787599D01*
X261945562Y-82415633D01*
X261803517Y-82071857D01*
X261540727Y-81808608D01*
X261197199Y-81665962D01*
X260825233Y-81665638D01*
X260481457Y-81807683D01*
X260399397Y-81889600D01*
X257342588Y-81889600D01*
X256331694Y-80878706D01*
X256100965Y-80724537D01*
X255828800Y-80670400D01*
X255397000Y-80670400D01*
X255397000Y-79113305D01*
X259734674Y-79113305D01*
X260021043Y-79806372D01*
X260550839Y-80337093D01*
X261243405Y-80624672D01*
X261993305Y-80625326D01*
X262686372Y-80338957D01*
X263217093Y-79809161D01*
X263504672Y-79116595D01*
X263504674Y-79113305D01*
X267354674Y-79113305D01*
X267641043Y-79806372D01*
X268170839Y-80337093D01*
X268863405Y-80624672D01*
X269613305Y-80625326D01*
X270306372Y-80338957D01*
X270837093Y-79809161D01*
X271124672Y-79116595D01*
X271125326Y-78366695D01*
X270838957Y-77673628D01*
X270309161Y-77142907D01*
X269616595Y-76855328D01*
X268866695Y-76854674D01*
X268173628Y-77141043D01*
X267642907Y-77670839D01*
X267355328Y-78363405D01*
X267354674Y-79113305D01*
X263504674Y-79113305D01*
X263505326Y-78366695D01*
X263218957Y-77673628D01*
X262689161Y-77142907D01*
X261996595Y-76855328D01*
X261246695Y-76854674D01*
X260553628Y-77141043D01*
X260022907Y-77670839D01*
X259735328Y-78363405D01*
X259734674Y-79113305D01*
X255397000Y-79113305D01*
X255397000Y-69850000D01*
X275463000Y-69850000D01*
X275463000Y-82550000D01*
X275471685Y-82596159D01*
X275498965Y-82638553D01*
X275540590Y-82666994D01*
X275590000Y-82677000D01*
X280090533Y-82677000D01*
X280090438Y-82785967D01*
X280232483Y-83129743D01*
X280495273Y-83392992D01*
X280838801Y-83535638D01*
X281210767Y-83535962D01*
X281554543Y-83393917D01*
X281636603Y-83312000D01*
X281840528Y-83312000D01*
X282112693Y-83257863D01*
X282343422Y-83103694D01*
X282348699Y-83098417D01*
X282667601Y-83230838D01*
X283039567Y-83231162D01*
X283383343Y-83089117D01*
X283646592Y-82826327D01*
X283789238Y-82482799D01*
X283789303Y-82407891D01*
X284485106Y-83103694D01*
X284715835Y-83257863D01*
X284760990Y-83266845D01*
X284988000Y-83312000D01*
X288339222Y-83312000D01*
X288420073Y-83392992D01*
X288763601Y-83535638D01*
X289135567Y-83535962D01*
X289479343Y-83393917D01*
X289742592Y-83131127D01*
X289885238Y-82787599D01*
X289885562Y-82415633D01*
X289743517Y-82071857D01*
X289480727Y-81808608D01*
X289137199Y-81665962D01*
X288765233Y-81665638D01*
X288421457Y-81807683D01*
X288339397Y-81889600D01*
X285282588Y-81889600D01*
X284271694Y-80878706D01*
X284040965Y-80724537D01*
X283768800Y-80670400D01*
X283337000Y-80670400D01*
X283337000Y-79113305D01*
X287674674Y-79113305D01*
X287961043Y-79806372D01*
X288490839Y-80337093D01*
X289183405Y-80624672D01*
X289933305Y-80625326D01*
X290626372Y-80338957D01*
X291157093Y-79809161D01*
X291444672Y-79116595D01*
X291444674Y-79113305D01*
X295294674Y-79113305D01*
X295581043Y-79806372D01*
X296110839Y-80337093D01*
X296803405Y-80624672D01*
X297553305Y-80625326D01*
X298246372Y-80338957D01*
X298777093Y-79809161D01*
X299064672Y-79116595D01*
X299065326Y-78366695D01*
X298778957Y-77673628D01*
X298249161Y-77142907D01*
X297556595Y-76855328D01*
X296806695Y-76854674D01*
X296113628Y-77141043D01*
X295582907Y-77670839D01*
X295295328Y-78363405D01*
X295294674Y-79113305D01*
X291444674Y-79113305D01*
X291445326Y-78366695D01*
X291158957Y-77673628D01*
X290629161Y-77142907D01*
X289936595Y-76855328D01*
X289186695Y-76854674D01*
X288493628Y-77141043D01*
X287962907Y-77670839D01*
X287675328Y-78363405D01*
X287674674Y-79113305D01*
X283337000Y-79113305D01*
X283337000Y-69850000D01*
X303403000Y-69850000D01*
X303403000Y-82550000D01*
X303411685Y-82596159D01*
X303438965Y-82638553D01*
X303480590Y-82666994D01*
X303530000Y-82677000D01*
X308030533Y-82677000D01*
X308030438Y-82785967D01*
X308172483Y-83129743D01*
X308435273Y-83392992D01*
X308778801Y-83535638D01*
X309150767Y-83535962D01*
X309494543Y-83393917D01*
X309576603Y-83312000D01*
X309780528Y-83312000D01*
X310052693Y-83257863D01*
X310283422Y-83103694D01*
X310288699Y-83098417D01*
X310607601Y-83230838D01*
X310979567Y-83231162D01*
X311323343Y-83089117D01*
X311586592Y-82826327D01*
X311729238Y-82482799D01*
X311729303Y-82407891D01*
X312425106Y-83103694D01*
X312655835Y-83257863D01*
X312700990Y-83266845D01*
X312928000Y-83312000D01*
X316279222Y-83312000D01*
X316360073Y-83392992D01*
X316703601Y-83535638D01*
X317075567Y-83535962D01*
X317419343Y-83393917D01*
X317682592Y-83131127D01*
X317825238Y-82787599D01*
X317825562Y-82415633D01*
X317683517Y-82071857D01*
X317420727Y-81808608D01*
X317077199Y-81665962D01*
X316705233Y-81665638D01*
X316361457Y-81807683D01*
X316279397Y-81889600D01*
X313222588Y-81889600D01*
X312211694Y-80878706D01*
X311980965Y-80724537D01*
X311708800Y-80670400D01*
X311277000Y-80670400D01*
X311277000Y-79113305D01*
X315614674Y-79113305D01*
X315901043Y-79806372D01*
X316430839Y-80337093D01*
X317123405Y-80624672D01*
X317873305Y-80625326D01*
X318566372Y-80338957D01*
X319097093Y-79809161D01*
X319384672Y-79116595D01*
X319384674Y-79113305D01*
X323234674Y-79113305D01*
X323521043Y-79806372D01*
X324050839Y-80337093D01*
X324743405Y-80624672D01*
X325493305Y-80625326D01*
X326186372Y-80338957D01*
X326717093Y-79809161D01*
X327004672Y-79116595D01*
X327005326Y-78366695D01*
X326718957Y-77673628D01*
X326189161Y-77142907D01*
X325496595Y-76855328D01*
X324746695Y-76854674D01*
X324053628Y-77141043D01*
X323522907Y-77670839D01*
X323235328Y-78363405D01*
X323234674Y-79113305D01*
X319384674Y-79113305D01*
X319385326Y-78366695D01*
X319098957Y-77673628D01*
X318569161Y-77142907D01*
X317876595Y-76855328D01*
X317126695Y-76854674D01*
X316433628Y-77141043D01*
X315902907Y-77670839D01*
X315615328Y-78363405D01*
X315614674Y-79113305D01*
X311277000Y-79113305D01*
X311277000Y-69850000D01*
X331343000Y-69850000D01*
X331343000Y-82550000D01*
X331351685Y-82596159D01*
X331378965Y-82638553D01*
X331420590Y-82666994D01*
X331470000Y-82677000D01*
X335970533Y-82677000D01*
X335970438Y-82785967D01*
X336112483Y-83129743D01*
X336375273Y-83392992D01*
X336718801Y-83535638D01*
X337090767Y-83535962D01*
X337434543Y-83393917D01*
X337516603Y-83312000D01*
X337720528Y-83312000D01*
X337992693Y-83257863D01*
X338223422Y-83103694D01*
X338228699Y-83098417D01*
X338547601Y-83230838D01*
X338919567Y-83231162D01*
X339263343Y-83089117D01*
X339526592Y-82826327D01*
X339669238Y-82482799D01*
X339669303Y-82407891D01*
X340365106Y-83103694D01*
X340595835Y-83257863D01*
X340640990Y-83266845D01*
X340868000Y-83312000D01*
X344219222Y-83312000D01*
X344300073Y-83392992D01*
X344643601Y-83535638D01*
X345015567Y-83535962D01*
X345359343Y-83393917D01*
X345622592Y-83131127D01*
X345765238Y-82787599D01*
X345765562Y-82415633D01*
X345623517Y-82071857D01*
X345360727Y-81808608D01*
X345017199Y-81665962D01*
X344645233Y-81665638D01*
X344301457Y-81807683D01*
X344219397Y-81889600D01*
X341162588Y-81889600D01*
X340151694Y-80878706D01*
X339920965Y-80724537D01*
X339648800Y-80670400D01*
X339217000Y-80670400D01*
X339217000Y-79113305D01*
X343554674Y-79113305D01*
X343841043Y-79806372D01*
X344370839Y-80337093D01*
X345063405Y-80624672D01*
X345813305Y-80625326D01*
X346506372Y-80338957D01*
X347037093Y-79809161D01*
X347324672Y-79116595D01*
X347324674Y-79113305D01*
X351174674Y-79113305D01*
X351461043Y-79806372D01*
X351990839Y-80337093D01*
X352683405Y-80624672D01*
X353433305Y-80625326D01*
X354126372Y-80338957D01*
X354657093Y-79809161D01*
X354944672Y-79116595D01*
X354945326Y-78366695D01*
X354658957Y-77673628D01*
X354129161Y-77142907D01*
X353436595Y-76855328D01*
X352686695Y-76854674D01*
X351993628Y-77141043D01*
X351462907Y-77670839D01*
X351175328Y-78363405D01*
X351174674Y-79113305D01*
X347324674Y-79113305D01*
X347325326Y-78366695D01*
X347038957Y-77673628D01*
X346509161Y-77142907D01*
X345816595Y-76855328D01*
X345066695Y-76854674D01*
X344373628Y-77141043D01*
X343842907Y-77670839D01*
X343555328Y-78363405D01*
X343554674Y-79113305D01*
X339217000Y-79113305D01*
X339217000Y-69850000D01*
X359283000Y-69850000D01*
X359283000Y-82550000D01*
X359291685Y-82596159D01*
X359318965Y-82638553D01*
X359360590Y-82666994D01*
X359410000Y-82677000D01*
X363910533Y-82677000D01*
X363910438Y-82785967D01*
X364052483Y-83129743D01*
X364315273Y-83392992D01*
X364658801Y-83535638D01*
X365030767Y-83535962D01*
X365374543Y-83393917D01*
X365456603Y-83312000D01*
X365660528Y-83312000D01*
X365932693Y-83257863D01*
X366163422Y-83103694D01*
X366168699Y-83098417D01*
X366487601Y-83230838D01*
X366859567Y-83231162D01*
X367203343Y-83089117D01*
X367466592Y-82826327D01*
X367609238Y-82482799D01*
X367609303Y-82407891D01*
X368305106Y-83103694D01*
X368535835Y-83257863D01*
X368580990Y-83266845D01*
X368808000Y-83312000D01*
X372159222Y-83312000D01*
X372240073Y-83392992D01*
X372583601Y-83535638D01*
X372955567Y-83535962D01*
X373299343Y-83393917D01*
X373562592Y-83131127D01*
X373705238Y-82787599D01*
X373705562Y-82415633D01*
X373563517Y-82071857D01*
X373300727Y-81808608D01*
X372957199Y-81665962D01*
X372585233Y-81665638D01*
X372241457Y-81807683D01*
X372159397Y-81889600D01*
X369102588Y-81889600D01*
X368091694Y-80878706D01*
X367860965Y-80724537D01*
X367588800Y-80670400D01*
X367157000Y-80670400D01*
X367157000Y-79113305D01*
X371494674Y-79113305D01*
X371781043Y-79806372D01*
X372310839Y-80337093D01*
X373003405Y-80624672D01*
X373753305Y-80625326D01*
X374446372Y-80338957D01*
X374977093Y-79809161D01*
X375264672Y-79116595D01*
X375265326Y-78366695D01*
X374978957Y-77673628D01*
X374449161Y-77142907D01*
X373756595Y-76855328D01*
X373006695Y-76854674D01*
X372313628Y-77141043D01*
X371782907Y-77670839D01*
X371495328Y-78363405D01*
X371494674Y-79113305D01*
X367157000Y-79113305D01*
X367157000Y-69850000D01*
X367148315Y-69803841D01*
X367121035Y-69761447D01*
X367079410Y-69733006D01*
X367058451Y-69728762D01*
X367448086Y-69567767D01*
X367767645Y-69248765D01*
X367940803Y-68831756D01*
X367941197Y-68380225D01*
X367768767Y-67962914D01*
X367449765Y-67643355D01*
X367032756Y-67470197D01*
X366581225Y-67469803D01*
X366163914Y-67642233D01*
X365844355Y-67961235D01*
X365671197Y-68378244D01*
X365670803Y-68829775D01*
X365843233Y-69247086D01*
X366162235Y-69566645D01*
X366538778Y-69723000D01*
X359410000Y-69723000D01*
X359363841Y-69731685D01*
X359321447Y-69758965D01*
X359293006Y-69800590D01*
X359283000Y-69850000D01*
X339217000Y-69850000D01*
X339208315Y-69803841D01*
X339181035Y-69761447D01*
X339139410Y-69733006D01*
X339118451Y-69728762D01*
X339508086Y-69567767D01*
X339827645Y-69248765D01*
X340000803Y-68831756D01*
X340001197Y-68380225D01*
X339828767Y-67962914D01*
X339509765Y-67643355D01*
X339092756Y-67470197D01*
X338641225Y-67469803D01*
X338223914Y-67642233D01*
X337904355Y-67961235D01*
X337731197Y-68378244D01*
X337730803Y-68829775D01*
X337903233Y-69247086D01*
X338222235Y-69566645D01*
X338598778Y-69723000D01*
X331470000Y-69723000D01*
X331423841Y-69731685D01*
X331381447Y-69758965D01*
X331353006Y-69800590D01*
X331343000Y-69850000D01*
X311277000Y-69850000D01*
X311268315Y-69803841D01*
X311241035Y-69761447D01*
X311199410Y-69733006D01*
X311178451Y-69728762D01*
X311568086Y-69567767D01*
X311887645Y-69248765D01*
X312060803Y-68831756D01*
X312061197Y-68380225D01*
X311888767Y-67962914D01*
X311569765Y-67643355D01*
X311152756Y-67470197D01*
X310701225Y-67469803D01*
X310283914Y-67642233D01*
X309964355Y-67961235D01*
X309791197Y-68378244D01*
X309790803Y-68829775D01*
X309963233Y-69247086D01*
X310282235Y-69566645D01*
X310658778Y-69723000D01*
X303530000Y-69723000D01*
X303483841Y-69731685D01*
X303441447Y-69758965D01*
X303413006Y-69800590D01*
X303403000Y-69850000D01*
X283337000Y-69850000D01*
X283328315Y-69803841D01*
X283301035Y-69761447D01*
X283259410Y-69733006D01*
X283238451Y-69728762D01*
X283628086Y-69567767D01*
X283947645Y-69248765D01*
X284120803Y-68831756D01*
X284121197Y-68380225D01*
X283948767Y-67962914D01*
X283629765Y-67643355D01*
X283212756Y-67470197D01*
X282761225Y-67469803D01*
X282343914Y-67642233D01*
X282024355Y-67961235D01*
X281851197Y-68378244D01*
X281850803Y-68829775D01*
X282023233Y-69247086D01*
X282342235Y-69566645D01*
X282718778Y-69723000D01*
X275590000Y-69723000D01*
X275543841Y-69731685D01*
X275501447Y-69758965D01*
X275473006Y-69800590D01*
X275463000Y-69850000D01*
X255397000Y-69850000D01*
X255388315Y-69803841D01*
X255361035Y-69761447D01*
X255319410Y-69733006D01*
X255298451Y-69728762D01*
X255688086Y-69567767D01*
X256007645Y-69248765D01*
X256180803Y-68831756D01*
X256181197Y-68380225D01*
X256008767Y-67962914D01*
X255689765Y-67643355D01*
X255272756Y-67470197D01*
X254821225Y-67469803D01*
X254403914Y-67642233D01*
X254084355Y-67961235D01*
X253911197Y-68378244D01*
X253910803Y-68829775D01*
X254083233Y-69247086D01*
X254402235Y-69566645D01*
X254778778Y-69723000D01*
X247650000Y-69723000D01*
X247603841Y-69731685D01*
X247561447Y-69758965D01*
X247533006Y-69800590D01*
X247523000Y-69850000D01*
X227457000Y-69850000D01*
X227448315Y-69803841D01*
X227421035Y-69761447D01*
X227379410Y-69733006D01*
X227358451Y-69728762D01*
X227748086Y-69567767D01*
X228067645Y-69248765D01*
X228240803Y-68831756D01*
X228241197Y-68380225D01*
X228068767Y-67962914D01*
X227749765Y-67643355D01*
X227332756Y-67470197D01*
X226881225Y-67469803D01*
X226463914Y-67642233D01*
X226144355Y-67961235D01*
X225971197Y-68378244D01*
X225970803Y-68829775D01*
X226143233Y-69247086D01*
X226462235Y-69566645D01*
X226838778Y-69723000D01*
X219710000Y-69723000D01*
X219663841Y-69731685D01*
X219621447Y-69758965D01*
X219593006Y-69800590D01*
X219583000Y-69850000D01*
X199517000Y-69850000D01*
X199508315Y-69803841D01*
X199481035Y-69761447D01*
X199439410Y-69733006D01*
X199418451Y-69728762D01*
X199808086Y-69567767D01*
X200127645Y-69248765D01*
X200300803Y-68831756D01*
X200301197Y-68380225D01*
X200128767Y-67962914D01*
X199809765Y-67643355D01*
X199392756Y-67470197D01*
X198941225Y-67469803D01*
X198523914Y-67642233D01*
X198204355Y-67961235D01*
X198031197Y-68378244D01*
X198030803Y-68829775D01*
X198203233Y-69247086D01*
X198522235Y-69566645D01*
X198898778Y-69723000D01*
X191770000Y-69723000D01*
X191723841Y-69731685D01*
X191681447Y-69758965D01*
X191653006Y-69800590D01*
X191643000Y-69850000D01*
X171577000Y-69850000D01*
X171568315Y-69803841D01*
X171541035Y-69761447D01*
X171499410Y-69733006D01*
X171478451Y-69728762D01*
X171868086Y-69567767D01*
X172187645Y-69248765D01*
X172360803Y-68831756D01*
X172361197Y-68380225D01*
X172188767Y-67962914D01*
X171869765Y-67643355D01*
X171452756Y-67470197D01*
X171001225Y-67469803D01*
X170583914Y-67642233D01*
X170264355Y-67961235D01*
X170091197Y-68378244D01*
X170090803Y-68829775D01*
X170263233Y-69247086D01*
X170582235Y-69566645D01*
X170958778Y-69723000D01*
X163830000Y-69723000D01*
X163783841Y-69731685D01*
X163741447Y-69758965D01*
X163713006Y-69800590D01*
X163703000Y-69850000D01*
X143637000Y-69850000D01*
X143628315Y-69803841D01*
X143601035Y-69761447D01*
X143559410Y-69733006D01*
X143538451Y-69728762D01*
X143928086Y-69567767D01*
X144247645Y-69248765D01*
X144420803Y-68831756D01*
X144421197Y-68380225D01*
X144248767Y-67962914D01*
X143929765Y-67643355D01*
X143512756Y-67470197D01*
X143061225Y-67469803D01*
X142643914Y-67642233D01*
X142324355Y-67961235D01*
X142151197Y-68378244D01*
X142150803Y-68829775D01*
X142323233Y-69247086D01*
X142642235Y-69566645D01*
X143018778Y-69723000D01*
X135890000Y-69723000D01*
X135843841Y-69731685D01*
X135801447Y-69758965D01*
X135773006Y-69800590D01*
X135763000Y-69850000D01*
X127127000Y-69850000D01*
X127127000Y-62357000D01*
X397051150Y-62357000D01*
X396745354Y-63093438D01*
G36*
X338963000Y-80670400D02*
X338939728Y-80670400D01*
X338712718Y-80715555D01*
X338667563Y-80724537D01*
X338436834Y-80878706D01*
X337471399Y-81844141D01*
X337435927Y-81808608D01*
X337092399Y-81665962D01*
X336720433Y-81665638D01*
X336376657Y-81807683D01*
X336113408Y-82070473D01*
X335970762Y-82414001D01*
X335970754Y-82423000D01*
X331597000Y-82423000D01*
X331597000Y-78964775D01*
X334144803Y-78964775D01*
X334317233Y-79382086D01*
X334636235Y-79701645D01*
X335053244Y-79874803D01*
X335504775Y-79875197D01*
X335922086Y-79702767D01*
X336241645Y-79383765D01*
X336414803Y-78966756D01*
X336415197Y-78515225D01*
X336242767Y-78097914D01*
X335923765Y-77778355D01*
X335506756Y-77605197D01*
X335055225Y-77604803D01*
X334637914Y-77777233D01*
X334318355Y-78096235D01*
X334145197Y-78513244D01*
X334144803Y-78964775D01*
X331597000Y-78964775D01*
X331597000Y-69977000D01*
X338963000Y-69977000D01*
X338963000Y-80670400D01*
X338963000Y-80670400D01*
G37*
X338963000Y-80670400D02*
X338939728Y-80670400D01*
X338712718Y-80715555D01*
X338667563Y-80724537D01*
X338436834Y-80878706D01*
X337471399Y-81844141D01*
X337435927Y-81808608D01*
X337092399Y-81665962D01*
X336720433Y-81665638D01*
X336376657Y-81807683D01*
X336113408Y-82070473D01*
X335970762Y-82414001D01*
X335970754Y-82423000D01*
X331597000Y-82423000D01*
X331597000Y-78964775D01*
X334144803Y-78964775D01*
X334317233Y-79382086D01*
X334636235Y-79701645D01*
X335053244Y-79874803D01*
X335504775Y-79875197D01*
X335922086Y-79702767D01*
X336241645Y-79383765D01*
X336414803Y-78966756D01*
X336415197Y-78515225D01*
X336242767Y-78097914D01*
X335923765Y-77778355D01*
X335506756Y-77605197D01*
X335055225Y-77604803D01*
X334637914Y-77777233D01*
X334318355Y-78096235D01*
X334145197Y-78513244D01*
X334144803Y-78964775D01*
X331597000Y-78964775D01*
X331597000Y-69977000D01*
X338963000Y-69977000D01*
X338963000Y-80670400D01*
G36*
X311023000Y-80670400D02*
X310999728Y-80670400D01*
X310772718Y-80715555D01*
X310727563Y-80724537D01*
X310496834Y-80878706D01*
X309531399Y-81844141D01*
X309495927Y-81808608D01*
X309152399Y-81665962D01*
X308780433Y-81665638D01*
X308436657Y-81807683D01*
X308173408Y-82070473D01*
X308030762Y-82414001D01*
X308030754Y-82423000D01*
X303657000Y-82423000D01*
X303657000Y-78964775D01*
X306204803Y-78964775D01*
X306377233Y-79382086D01*
X306696235Y-79701645D01*
X307113244Y-79874803D01*
X307564775Y-79875197D01*
X307982086Y-79702767D01*
X308301645Y-79383765D01*
X308474803Y-78966756D01*
X308475197Y-78515225D01*
X308302767Y-78097914D01*
X307983765Y-77778355D01*
X307566756Y-77605197D01*
X307115225Y-77604803D01*
X306697914Y-77777233D01*
X306378355Y-78096235D01*
X306205197Y-78513244D01*
X306204803Y-78964775D01*
X303657000Y-78964775D01*
X303657000Y-69977000D01*
X311023000Y-69977000D01*
X311023000Y-80670400D01*
X311023000Y-80670400D01*
G37*
X311023000Y-80670400D02*
X310999728Y-80670400D01*
X310772718Y-80715555D01*
X310727563Y-80724537D01*
X310496834Y-80878706D01*
X309531399Y-81844141D01*
X309495927Y-81808608D01*
X309152399Y-81665962D01*
X308780433Y-81665638D01*
X308436657Y-81807683D01*
X308173408Y-82070473D01*
X308030762Y-82414001D01*
X308030754Y-82423000D01*
X303657000Y-82423000D01*
X303657000Y-78964775D01*
X306204803Y-78964775D01*
X306377233Y-79382086D01*
X306696235Y-79701645D01*
X307113244Y-79874803D01*
X307564775Y-79875197D01*
X307982086Y-79702767D01*
X308301645Y-79383765D01*
X308474803Y-78966756D01*
X308475197Y-78515225D01*
X308302767Y-78097914D01*
X307983765Y-77778355D01*
X307566756Y-77605197D01*
X307115225Y-77604803D01*
X306697914Y-77777233D01*
X306378355Y-78096235D01*
X306205197Y-78513244D01*
X306204803Y-78964775D01*
X303657000Y-78964775D01*
X303657000Y-69977000D01*
X311023000Y-69977000D01*
X311023000Y-80670400D01*
G36*
X283083000Y-80670400D02*
X283059728Y-80670400D01*
X282832718Y-80715555D01*
X282787563Y-80724537D01*
X282556834Y-80878706D01*
X281591399Y-81844141D01*
X281555927Y-81808608D01*
X281212399Y-81665962D01*
X280840433Y-81665638D01*
X280496657Y-81807683D01*
X280233408Y-82070473D01*
X280090762Y-82414001D01*
X280090754Y-82423000D01*
X275717000Y-82423000D01*
X275717000Y-78964775D01*
X278264803Y-78964775D01*
X278437233Y-79382086D01*
X278756235Y-79701645D01*
X279173244Y-79874803D01*
X279624775Y-79875197D01*
X280042086Y-79702767D01*
X280361645Y-79383765D01*
X280534803Y-78966756D01*
X280535197Y-78515225D01*
X280362767Y-78097914D01*
X280043765Y-77778355D01*
X279626756Y-77605197D01*
X279175225Y-77604803D01*
X278757914Y-77777233D01*
X278438355Y-78096235D01*
X278265197Y-78513244D01*
X278264803Y-78964775D01*
X275717000Y-78964775D01*
X275717000Y-69977000D01*
X283083000Y-69977000D01*
X283083000Y-80670400D01*
X283083000Y-80670400D01*
G37*
X283083000Y-80670400D02*
X283059728Y-80670400D01*
X282832718Y-80715555D01*
X282787563Y-80724537D01*
X282556834Y-80878706D01*
X281591399Y-81844141D01*
X281555927Y-81808608D01*
X281212399Y-81665962D01*
X280840433Y-81665638D01*
X280496657Y-81807683D01*
X280233408Y-82070473D01*
X280090762Y-82414001D01*
X280090754Y-82423000D01*
X275717000Y-82423000D01*
X275717000Y-78964775D01*
X278264803Y-78964775D01*
X278437233Y-79382086D01*
X278756235Y-79701645D01*
X279173244Y-79874803D01*
X279624775Y-79875197D01*
X280042086Y-79702767D01*
X280361645Y-79383765D01*
X280534803Y-78966756D01*
X280535197Y-78515225D01*
X280362767Y-78097914D01*
X280043765Y-77778355D01*
X279626756Y-77605197D01*
X279175225Y-77604803D01*
X278757914Y-77777233D01*
X278438355Y-78096235D01*
X278265197Y-78513244D01*
X278264803Y-78964775D01*
X275717000Y-78964775D01*
X275717000Y-69977000D01*
X283083000Y-69977000D01*
X283083000Y-80670400D01*
G36*
X255143000Y-80670400D02*
X255119728Y-80670400D01*
X254892718Y-80715555D01*
X254847563Y-80724537D01*
X254616834Y-80878706D01*
X253651399Y-81844141D01*
X253615927Y-81808608D01*
X253272399Y-81665962D01*
X252900433Y-81665638D01*
X252556657Y-81807683D01*
X252293408Y-82070473D01*
X252150762Y-82414001D01*
X252150754Y-82423000D01*
X247777000Y-82423000D01*
X247777000Y-78964775D01*
X250324803Y-78964775D01*
X250497233Y-79382086D01*
X250816235Y-79701645D01*
X251233244Y-79874803D01*
X251684775Y-79875197D01*
X252102086Y-79702767D01*
X252421645Y-79383765D01*
X252594803Y-78966756D01*
X252595197Y-78515225D01*
X252422767Y-78097914D01*
X252103765Y-77778355D01*
X251686756Y-77605197D01*
X251235225Y-77604803D01*
X250817914Y-77777233D01*
X250498355Y-78096235D01*
X250325197Y-78513244D01*
X250324803Y-78964775D01*
X247777000Y-78964775D01*
X247777000Y-69977000D01*
X255143000Y-69977000D01*
X255143000Y-80670400D01*
X255143000Y-80670400D01*
G37*
X255143000Y-80670400D02*
X255119728Y-80670400D01*
X254892718Y-80715555D01*
X254847563Y-80724537D01*
X254616834Y-80878706D01*
X253651399Y-81844141D01*
X253615927Y-81808608D01*
X253272399Y-81665962D01*
X252900433Y-81665638D01*
X252556657Y-81807683D01*
X252293408Y-82070473D01*
X252150762Y-82414001D01*
X252150754Y-82423000D01*
X247777000Y-82423000D01*
X247777000Y-78964775D01*
X250324803Y-78964775D01*
X250497233Y-79382086D01*
X250816235Y-79701645D01*
X251233244Y-79874803D01*
X251684775Y-79875197D01*
X252102086Y-79702767D01*
X252421645Y-79383765D01*
X252594803Y-78966756D01*
X252595197Y-78515225D01*
X252422767Y-78097914D01*
X252103765Y-77778355D01*
X251686756Y-77605197D01*
X251235225Y-77604803D01*
X250817914Y-77777233D01*
X250498355Y-78096235D01*
X250325197Y-78513244D01*
X250324803Y-78964775D01*
X247777000Y-78964775D01*
X247777000Y-69977000D01*
X255143000Y-69977000D01*
X255143000Y-80670400D01*
G36*
X227203000Y-80670400D02*
X227179728Y-80670400D01*
X226952718Y-80715555D01*
X226907563Y-80724537D01*
X226676834Y-80878706D01*
X225711399Y-81844141D01*
X225675927Y-81808608D01*
X225332399Y-81665962D01*
X224960433Y-81665638D01*
X224616657Y-81807683D01*
X224353408Y-82070473D01*
X224210762Y-82414001D01*
X224210754Y-82423000D01*
X219837000Y-82423000D01*
X219837000Y-78964775D01*
X222384803Y-78964775D01*
X222557233Y-79382086D01*
X222876235Y-79701645D01*
X223293244Y-79874803D01*
X223744775Y-79875197D01*
X224162086Y-79702767D01*
X224481645Y-79383765D01*
X224654803Y-78966756D01*
X224655197Y-78515225D01*
X224482767Y-78097914D01*
X224163765Y-77778355D01*
X223746756Y-77605197D01*
X223295225Y-77604803D01*
X222877914Y-77777233D01*
X222558355Y-78096235D01*
X222385197Y-78513244D01*
X222384803Y-78964775D01*
X219837000Y-78964775D01*
X219837000Y-69977000D01*
X227203000Y-69977000D01*
X227203000Y-80670400D01*
X227203000Y-80670400D01*
G37*
X227203000Y-80670400D02*
X227179728Y-80670400D01*
X226952718Y-80715555D01*
X226907563Y-80724537D01*
X226676834Y-80878706D01*
X225711399Y-81844141D01*
X225675927Y-81808608D01*
X225332399Y-81665962D01*
X224960433Y-81665638D01*
X224616657Y-81807683D01*
X224353408Y-82070473D01*
X224210762Y-82414001D01*
X224210754Y-82423000D01*
X219837000Y-82423000D01*
X219837000Y-78964775D01*
X222384803Y-78964775D01*
X222557233Y-79382086D01*
X222876235Y-79701645D01*
X223293244Y-79874803D01*
X223744775Y-79875197D01*
X224162086Y-79702767D01*
X224481645Y-79383765D01*
X224654803Y-78966756D01*
X224655197Y-78515225D01*
X224482767Y-78097914D01*
X224163765Y-77778355D01*
X223746756Y-77605197D01*
X223295225Y-77604803D01*
X222877914Y-77777233D01*
X222558355Y-78096235D01*
X222385197Y-78513244D01*
X222384803Y-78964775D01*
X219837000Y-78964775D01*
X219837000Y-69977000D01*
X227203000Y-69977000D01*
X227203000Y-80670400D01*
G36*
X199263000Y-80670400D02*
X199239728Y-80670400D01*
X199012718Y-80715555D01*
X198967563Y-80724537D01*
X198736834Y-80878706D01*
X197771399Y-81844141D01*
X197735927Y-81808608D01*
X197392399Y-81665962D01*
X197020433Y-81665638D01*
X196676657Y-81807683D01*
X196413408Y-82070473D01*
X196270762Y-82414001D01*
X196270754Y-82423000D01*
X191897000Y-82423000D01*
X191897000Y-78964775D01*
X194444803Y-78964775D01*
X194617233Y-79382086D01*
X194936235Y-79701645D01*
X195353244Y-79874803D01*
X195804775Y-79875197D01*
X196222086Y-79702767D01*
X196541645Y-79383765D01*
X196714803Y-78966756D01*
X196715197Y-78515225D01*
X196542767Y-78097914D01*
X196223765Y-77778355D01*
X195806756Y-77605197D01*
X195355225Y-77604803D01*
X194937914Y-77777233D01*
X194618355Y-78096235D01*
X194445197Y-78513244D01*
X194444803Y-78964775D01*
X191897000Y-78964775D01*
X191897000Y-69977000D01*
X199263000Y-69977000D01*
X199263000Y-80670400D01*
X199263000Y-80670400D01*
G37*
X199263000Y-80670400D02*
X199239728Y-80670400D01*
X199012718Y-80715555D01*
X198967563Y-80724537D01*
X198736834Y-80878706D01*
X197771399Y-81844141D01*
X197735927Y-81808608D01*
X197392399Y-81665962D01*
X197020433Y-81665638D01*
X196676657Y-81807683D01*
X196413408Y-82070473D01*
X196270762Y-82414001D01*
X196270754Y-82423000D01*
X191897000Y-82423000D01*
X191897000Y-78964775D01*
X194444803Y-78964775D01*
X194617233Y-79382086D01*
X194936235Y-79701645D01*
X195353244Y-79874803D01*
X195804775Y-79875197D01*
X196222086Y-79702767D01*
X196541645Y-79383765D01*
X196714803Y-78966756D01*
X196715197Y-78515225D01*
X196542767Y-78097914D01*
X196223765Y-77778355D01*
X195806756Y-77605197D01*
X195355225Y-77604803D01*
X194937914Y-77777233D01*
X194618355Y-78096235D01*
X194445197Y-78513244D01*
X194444803Y-78964775D01*
X191897000Y-78964775D01*
X191897000Y-69977000D01*
X199263000Y-69977000D01*
X199263000Y-80670400D01*
G36*
X171323000Y-80670400D02*
X171299728Y-80670400D01*
X171072718Y-80715555D01*
X171027563Y-80724537D01*
X170796834Y-80878706D01*
X169831399Y-81844141D01*
X169795927Y-81808608D01*
X169452399Y-81665962D01*
X169080433Y-81665638D01*
X168736657Y-81807683D01*
X168473408Y-82070473D01*
X168330762Y-82414001D01*
X168330754Y-82423000D01*
X163957000Y-82423000D01*
X163957000Y-78964775D01*
X166504803Y-78964775D01*
X166677233Y-79382086D01*
X166996235Y-79701645D01*
X167413244Y-79874803D01*
X167864775Y-79875197D01*
X168282086Y-79702767D01*
X168601645Y-79383765D01*
X168774803Y-78966756D01*
X168775197Y-78515225D01*
X168602767Y-78097914D01*
X168283765Y-77778355D01*
X167866756Y-77605197D01*
X167415225Y-77604803D01*
X166997914Y-77777233D01*
X166678355Y-78096235D01*
X166505197Y-78513244D01*
X166504803Y-78964775D01*
X163957000Y-78964775D01*
X163957000Y-69977000D01*
X171323000Y-69977000D01*
X171323000Y-80670400D01*
X171323000Y-80670400D01*
G37*
X171323000Y-80670400D02*
X171299728Y-80670400D01*
X171072718Y-80715555D01*
X171027563Y-80724537D01*
X170796834Y-80878706D01*
X169831399Y-81844141D01*
X169795927Y-81808608D01*
X169452399Y-81665962D01*
X169080433Y-81665638D01*
X168736657Y-81807683D01*
X168473408Y-82070473D01*
X168330762Y-82414001D01*
X168330754Y-82423000D01*
X163957000Y-82423000D01*
X163957000Y-78964775D01*
X166504803Y-78964775D01*
X166677233Y-79382086D01*
X166996235Y-79701645D01*
X167413244Y-79874803D01*
X167864775Y-79875197D01*
X168282086Y-79702767D01*
X168601645Y-79383765D01*
X168774803Y-78966756D01*
X168775197Y-78515225D01*
X168602767Y-78097914D01*
X168283765Y-77778355D01*
X167866756Y-77605197D01*
X167415225Y-77604803D01*
X166997914Y-77777233D01*
X166678355Y-78096235D01*
X166505197Y-78513244D01*
X166504803Y-78964775D01*
X163957000Y-78964775D01*
X163957000Y-69977000D01*
X171323000Y-69977000D01*
X171323000Y-80670400D01*
G36*
X143383000Y-80670400D02*
X143359728Y-80670400D01*
X143132718Y-80715555D01*
X143087563Y-80724537D01*
X142856834Y-80878706D01*
X141891399Y-81844141D01*
X141855927Y-81808608D01*
X141512399Y-81665962D01*
X141140433Y-81665638D01*
X140796657Y-81807683D01*
X140533408Y-82070473D01*
X140390762Y-82414001D01*
X140390754Y-82423000D01*
X136017000Y-82423000D01*
X136017000Y-78964775D01*
X138564803Y-78964775D01*
X138737233Y-79382086D01*
X139056235Y-79701645D01*
X139473244Y-79874803D01*
X139924775Y-79875197D01*
X140342086Y-79702767D01*
X140661645Y-79383765D01*
X140834803Y-78966756D01*
X140835197Y-78515225D01*
X140662767Y-78097914D01*
X140343765Y-77778355D01*
X139926756Y-77605197D01*
X139475225Y-77604803D01*
X139057914Y-77777233D01*
X138738355Y-78096235D01*
X138565197Y-78513244D01*
X138564803Y-78964775D01*
X136017000Y-78964775D01*
X136017000Y-69977000D01*
X143383000Y-69977000D01*
X143383000Y-80670400D01*
X143383000Y-80670400D01*
G37*
X143383000Y-80670400D02*
X143359728Y-80670400D01*
X143132718Y-80715555D01*
X143087563Y-80724537D01*
X142856834Y-80878706D01*
X141891399Y-81844141D01*
X141855927Y-81808608D01*
X141512399Y-81665962D01*
X141140433Y-81665638D01*
X140796657Y-81807683D01*
X140533408Y-82070473D01*
X140390762Y-82414001D01*
X140390754Y-82423000D01*
X136017000Y-82423000D01*
X136017000Y-78964775D01*
X138564803Y-78964775D01*
X138737233Y-79382086D01*
X139056235Y-79701645D01*
X139473244Y-79874803D01*
X139924775Y-79875197D01*
X140342086Y-79702767D01*
X140661645Y-79383765D01*
X140834803Y-78966756D01*
X140835197Y-78515225D01*
X140662767Y-78097914D01*
X140343765Y-77778355D01*
X139926756Y-77605197D01*
X139475225Y-77604803D01*
X139057914Y-77777233D01*
X138738355Y-78096235D01*
X138565197Y-78513244D01*
X138564803Y-78964775D01*
X136017000Y-78964775D01*
X136017000Y-69977000D01*
X143383000Y-69977000D01*
X143383000Y-80670400D01*
G36*
X143383000Y-80670400D02*
X143359728Y-80670400D01*
X143132718Y-80715555D01*
X143087563Y-80724537D01*
X142856834Y-80878706D01*
X141891399Y-81844141D01*
X141855927Y-81808608D01*
X141512399Y-81665962D01*
X141140433Y-81665638D01*
X140796657Y-81807683D01*
X140533408Y-82070473D01*
X140390762Y-82414001D01*
X140390754Y-82423000D01*
X136017000Y-82423000D01*
X136017000Y-78964775D01*
X138564803Y-78964775D01*
X138737233Y-79382086D01*
X139056235Y-79701645D01*
X139473244Y-79874803D01*
X139924775Y-79875197D01*
X140342086Y-79702767D01*
X140661645Y-79383765D01*
X140834803Y-78966756D01*
X140835197Y-78515225D01*
X140662767Y-78097914D01*
X140343765Y-77778355D01*
X139926756Y-77605197D01*
X139475225Y-77604803D01*
X139057914Y-77777233D01*
X138738355Y-78096235D01*
X138565197Y-78513244D01*
X138564803Y-78964775D01*
X136017000Y-78964775D01*
X136017000Y-69977000D01*
X143383000Y-69977000D01*
X143383000Y-80670400D01*
X143383000Y-80670400D01*
G37*
X143383000Y-80670400D02*
X143359728Y-80670400D01*
X143132718Y-80715555D01*
X143087563Y-80724537D01*
X142856834Y-80878706D01*
X141891399Y-81844141D01*
X141855927Y-81808608D01*
X141512399Y-81665962D01*
X141140433Y-81665638D01*
X140796657Y-81807683D01*
X140533408Y-82070473D01*
X140390762Y-82414001D01*
X140390754Y-82423000D01*
X136017000Y-82423000D01*
X136017000Y-78964775D01*
X138564803Y-78964775D01*
X138737233Y-79382086D01*
X139056235Y-79701645D01*
X139473244Y-79874803D01*
X139924775Y-79875197D01*
X140342086Y-79702767D01*
X140661645Y-79383765D01*
X140834803Y-78966756D01*
X140835197Y-78515225D01*
X140662767Y-78097914D01*
X140343765Y-77778355D01*
X139926756Y-77605197D01*
X139475225Y-77604803D01*
X139057914Y-77777233D01*
X138738355Y-78096235D01*
X138565197Y-78513244D01*
X138564803Y-78964775D01*
X136017000Y-78964775D01*
X136017000Y-69977000D01*
X143383000Y-69977000D01*
X143383000Y-80670400D01*
G36*
X143383000Y-80670400D02*
X143359728Y-80670400D01*
X143132718Y-80715555D01*
X143087563Y-80724537D01*
X142856834Y-80878706D01*
X141891399Y-81844141D01*
X141855927Y-81808608D01*
X141512399Y-81665962D01*
X141140433Y-81665638D01*
X140796657Y-81807683D01*
X140533408Y-82070473D01*
X140390762Y-82414001D01*
X140390754Y-82423000D01*
X136017000Y-82423000D01*
X136017000Y-78964775D01*
X138564803Y-78964775D01*
X138737233Y-79382086D01*
X139056235Y-79701645D01*
X139473244Y-79874803D01*
X139924775Y-79875197D01*
X140342086Y-79702767D01*
X140661645Y-79383765D01*
X140834803Y-78966756D01*
X140835197Y-78515225D01*
X140662767Y-78097914D01*
X140343765Y-77778355D01*
X139926756Y-77605197D01*
X139475225Y-77604803D01*
X139057914Y-77777233D01*
X138738355Y-78096235D01*
X138565197Y-78513244D01*
X138564803Y-78964775D01*
X136017000Y-78964775D01*
X136017000Y-69977000D01*
X143383000Y-69977000D01*
X143383000Y-80670400D01*
X143383000Y-80670400D01*
G37*
X143383000Y-80670400D02*
X143359728Y-80670400D01*
X143132718Y-80715555D01*
X143087563Y-80724537D01*
X142856834Y-80878706D01*
X141891399Y-81844141D01*
X141855927Y-81808608D01*
X141512399Y-81665962D01*
X141140433Y-81665638D01*
X140796657Y-81807683D01*
X140533408Y-82070473D01*
X140390762Y-82414001D01*
X140390754Y-82423000D01*
X136017000Y-82423000D01*
X136017000Y-78964775D01*
X138564803Y-78964775D01*
X138737233Y-79382086D01*
X139056235Y-79701645D01*
X139473244Y-79874803D01*
X139924775Y-79875197D01*
X140342086Y-79702767D01*
X140661645Y-79383765D01*
X140834803Y-78966756D01*
X140835197Y-78515225D01*
X140662767Y-78097914D01*
X140343765Y-77778355D01*
X139926756Y-77605197D01*
X139475225Y-77604803D01*
X139057914Y-77777233D01*
X138738355Y-78096235D01*
X138565197Y-78513244D01*
X138564803Y-78964775D01*
X136017000Y-78964775D01*
X136017000Y-69977000D01*
X143383000Y-69977000D01*
X143383000Y-80670400D01*
M02*
