G04 #@! TF.FileFunction,Soldermask,Bot*
%FSLAX46Y46*%
G04 Gerber Fmt 4.6, Leading zero omitted, Abs format (unit mm)*
G04 Created by KiCad (PCBNEW 4.0.7) date Wed Feb 28 11:26:22 2018*
%MOMM*%
%LPD*%
G01*
G04 APERTURE LIST*
%ADD10C,0.100000*%
%ADD11C,1.400000*%
%ADD12C,5.400000*%
%ADD13C,2.900000*%
%ADD14C,2.000000*%
%ADD15R,2.000000X2.000000*%
%ADD16C,3.200000*%
%ADD17C,0.254000*%
G04 APERTURE END LIST*
D10*
D11*
X198755000Y-138430000D03*
D12*
X386080000Y-162560000D03*
X299720000Y-162560000D03*
X213360000Y-162560000D03*
X127000000Y-162560000D03*
X386080000Y-59055000D03*
X299720000Y-59055000D03*
X213360000Y-59055000D03*
D13*
X373380000Y-78740000D03*
D12*
X127000000Y-59055000D03*
D14*
X398780000Y-68580000D03*
X398780000Y-71120000D03*
D15*
X398780000Y-73660000D03*
D14*
X398780000Y-76200000D03*
X398780000Y-78740000D03*
X398780000Y-81280000D03*
X398780000Y-83820000D03*
X398780000Y-86360000D03*
X398780000Y-88900000D03*
X398780000Y-91440000D03*
X398780000Y-93980000D03*
X398780000Y-96520000D03*
D15*
X398780000Y-99060000D03*
D14*
X398780000Y-101600000D03*
X398780000Y-104140000D03*
X398780000Y-106680000D03*
X398780000Y-109220000D03*
X398780000Y-111760000D03*
X398780000Y-114300000D03*
X398780000Y-116840000D03*
X398780000Y-119380000D03*
X398780000Y-121920000D03*
D15*
X398780000Y-124460000D03*
D14*
X398780000Y-127000000D03*
X398780000Y-129540000D03*
X398780000Y-132080000D03*
X398780000Y-134620000D03*
X398780000Y-137160000D03*
X398780000Y-139700000D03*
X398780000Y-142240000D03*
X398780000Y-144780000D03*
D15*
X398780000Y-147320000D03*
D14*
X401320000Y-68580000D03*
X401320000Y-71120000D03*
D15*
X401320000Y-73660000D03*
D14*
X401320000Y-76200000D03*
X401320000Y-78740000D03*
X401320000Y-81280000D03*
X401320000Y-83820000D03*
X401320000Y-86360000D03*
X401320000Y-88900000D03*
X401320000Y-91440000D03*
X401320000Y-93980000D03*
X401320000Y-96520000D03*
D15*
X401320000Y-99060000D03*
D14*
X401320000Y-101600000D03*
X401320000Y-104140000D03*
X401320000Y-106680000D03*
X401320000Y-109220000D03*
X401320000Y-111760000D03*
X401320000Y-114300000D03*
X401320000Y-116840000D03*
X401320000Y-119380000D03*
X401320000Y-121920000D03*
D15*
X401320000Y-124460000D03*
D14*
X401320000Y-127000000D03*
X401320000Y-129540000D03*
X401320000Y-132080000D03*
X401320000Y-134620000D03*
X401320000Y-137160000D03*
X401320000Y-139700000D03*
X401320000Y-142240000D03*
D11*
X401320000Y-144780000D03*
X401320000Y-147320000D03*
D14*
X403860000Y-68580000D03*
X403860000Y-71120000D03*
D15*
X403860000Y-73660000D03*
D14*
X403860000Y-76200000D03*
X403860000Y-78740000D03*
X403860000Y-81280000D03*
X403860000Y-83820000D03*
X403860000Y-86360000D03*
X403860000Y-88900000D03*
X403860000Y-91440000D03*
X403860000Y-93980000D03*
X403860000Y-96520000D03*
D15*
X403860000Y-99060000D03*
D14*
X403860000Y-101600000D03*
X403860000Y-104140000D03*
X403860000Y-106680000D03*
X403860000Y-109220000D03*
X403860000Y-111760000D03*
X403860000Y-114300000D03*
D15*
X403860000Y-116840000D03*
D14*
X403860000Y-119380000D03*
X403860000Y-121920000D03*
D15*
X403860000Y-124460000D03*
D14*
X403860000Y-127000000D03*
X403860000Y-129540000D03*
X403860000Y-132080000D03*
X403860000Y-134620000D03*
X403860000Y-137160000D03*
X403860000Y-139700000D03*
X403860000Y-142240000D03*
D11*
X403860000Y-144780000D03*
D15*
X403860000Y-147320000D03*
D16*
X396240000Y-63500000D03*
X396240000Y-152400000D03*
D11*
X142930000Y-134264000D03*
X143286000Y-68605000D03*
X198810000Y-134264000D03*
X199166000Y-68605000D03*
X226750000Y-134264000D03*
X227106000Y-68605000D03*
X254690000Y-134264000D03*
X255046000Y-68605000D03*
X310570000Y-134264000D03*
X310926000Y-68605000D03*
X282630000Y-134264000D03*
X282986000Y-68605000D03*
X338510000Y-134264000D03*
X338866000Y-68605000D03*
X366450000Y-134264000D03*
X366806000Y-68605000D03*
X170870000Y-134264000D03*
X171226000Y-68605000D03*
D13*
X185420000Y-78740000D03*
X205740000Y-78740000D03*
X213360000Y-78740000D03*
X233680000Y-78740000D03*
X241300000Y-78740000D03*
X261620000Y-78740000D03*
X297180000Y-78740000D03*
X317500000Y-78740000D03*
X269240000Y-78740000D03*
X289560000Y-78740000D03*
X325120000Y-78740000D03*
X345440000Y-78740000D03*
X353060000Y-78740000D03*
X157480000Y-78740000D03*
X177800000Y-78740000D03*
X129540000Y-78740000D03*
X149860000Y-78740000D03*
D11*
X139700000Y-78740000D03*
X139700000Y-104140000D03*
X139700000Y-119380000D03*
X139700000Y-134620000D03*
X139700000Y-138430000D03*
X136525000Y-138430000D03*
X142875000Y-138430000D03*
X195580000Y-78740000D03*
X195580000Y-104140000D03*
X195580000Y-119380000D03*
X195580000Y-134620000D03*
X195580000Y-138430000D03*
X192405000Y-138430000D03*
X223520000Y-78740000D03*
X223520000Y-104140000D03*
X223520000Y-119380000D03*
X223520000Y-134620000D03*
X223520000Y-138430000D03*
X220345000Y-138430000D03*
X226695000Y-138430000D03*
X251460000Y-78740000D03*
X251460000Y-104140000D03*
X251460000Y-119380000D03*
X251460000Y-134620000D03*
X251460000Y-138430000D03*
X248285000Y-138430000D03*
X254635000Y-138430000D03*
X307340000Y-78740000D03*
X307340000Y-104140000D03*
X307340000Y-119380000D03*
X307340000Y-134620000D03*
X307340000Y-138430000D03*
X304165000Y-138430000D03*
X310515000Y-138430000D03*
X279400000Y-78740000D03*
X279400000Y-104140000D03*
X279400000Y-119380000D03*
X279400000Y-134620000D03*
X279400000Y-138430000D03*
X276225000Y-138430000D03*
X282575000Y-138430000D03*
X335280000Y-78740000D03*
X335280000Y-104140000D03*
X335280000Y-119380000D03*
X335280000Y-134620000D03*
X335280000Y-138430000D03*
X332105000Y-138430000D03*
X338455000Y-138430000D03*
X363220000Y-78740000D03*
X363220000Y-104140000D03*
X363220000Y-119380000D03*
X363220000Y-134620000D03*
X363220000Y-138430000D03*
X360045000Y-138430000D03*
X366395000Y-138430000D03*
X167640000Y-78740000D03*
X167640000Y-104140000D03*
X167640000Y-119380000D03*
X167640000Y-134620000D03*
X167640000Y-138430000D03*
X164465000Y-138430000D03*
X170815000Y-138430000D03*
X136525000Y-99695000D03*
X142875000Y-99695000D03*
X192405000Y-99695000D03*
X198755000Y-99695000D03*
X220345000Y-99695000D03*
X226695000Y-99695000D03*
X248285000Y-99695000D03*
X254635000Y-99695000D03*
X304165000Y-99695000D03*
X310515000Y-99695000D03*
X276225000Y-99695000D03*
X282575000Y-99695000D03*
X332105000Y-99695000D03*
X338455000Y-99695000D03*
X360045000Y-99695000D03*
X366395000Y-99695000D03*
X164465000Y-99695000D03*
X170815000Y-99695000D03*
D17*
G36*
X142748000Y-81788000D02*
X136652000Y-81788000D01*
X136652000Y-70612000D01*
X142748000Y-70612000D01*
X142748000Y-81788000D01*
X142748000Y-81788000D01*
G37*
X142748000Y-81788000D02*
X136652000Y-81788000D01*
X136652000Y-70612000D01*
X142748000Y-70612000D01*
X142748000Y-81788000D01*
G36*
X170688000Y-81788000D02*
X164592000Y-81788000D01*
X164592000Y-70612000D01*
X170688000Y-70612000D01*
X170688000Y-81788000D01*
X170688000Y-81788000D01*
G37*
X170688000Y-81788000D02*
X164592000Y-81788000D01*
X164592000Y-70612000D01*
X170688000Y-70612000D01*
X170688000Y-81788000D01*
G36*
X198628000Y-81788000D02*
X192532000Y-81788000D01*
X192532000Y-70612000D01*
X198628000Y-70612000D01*
X198628000Y-81788000D01*
X198628000Y-81788000D01*
G37*
X198628000Y-81788000D02*
X192532000Y-81788000D01*
X192532000Y-70612000D01*
X198628000Y-70612000D01*
X198628000Y-81788000D01*
G36*
X226568000Y-81788000D02*
X220472000Y-81788000D01*
X220472000Y-70612000D01*
X226568000Y-70612000D01*
X226568000Y-81788000D01*
X226568000Y-81788000D01*
G37*
X226568000Y-81788000D02*
X220472000Y-81788000D01*
X220472000Y-70612000D01*
X226568000Y-70612000D01*
X226568000Y-81788000D01*
G36*
X254508000Y-81788000D02*
X248412000Y-81788000D01*
X248412000Y-70612000D01*
X254508000Y-70612000D01*
X254508000Y-81788000D01*
X254508000Y-81788000D01*
G37*
X254508000Y-81788000D02*
X248412000Y-81788000D01*
X248412000Y-70612000D01*
X254508000Y-70612000D01*
X254508000Y-81788000D01*
G36*
X282448000Y-81788000D02*
X276352000Y-81788000D01*
X276352000Y-70612000D01*
X282448000Y-70612000D01*
X282448000Y-81788000D01*
X282448000Y-81788000D01*
G37*
X282448000Y-81788000D02*
X276352000Y-81788000D01*
X276352000Y-70612000D01*
X282448000Y-70612000D01*
X282448000Y-81788000D01*
G36*
X310388000Y-81788000D02*
X304292000Y-81788000D01*
X304292000Y-70612000D01*
X310388000Y-70612000D01*
X310388000Y-81788000D01*
X310388000Y-81788000D01*
G37*
X310388000Y-81788000D02*
X304292000Y-81788000D01*
X304292000Y-70612000D01*
X310388000Y-70612000D01*
X310388000Y-81788000D01*
G36*
X338328000Y-81788000D02*
X332232000Y-81788000D01*
X332232000Y-70612000D01*
X338328000Y-70612000D01*
X338328000Y-81788000D01*
X338328000Y-81788000D01*
G37*
X338328000Y-81788000D02*
X332232000Y-81788000D01*
X332232000Y-70612000D01*
X338328000Y-70612000D01*
X338328000Y-81788000D01*
G36*
X366268000Y-81788000D02*
X360172000Y-81788000D01*
X360172000Y-70612000D01*
X366268000Y-70612000D01*
X366268000Y-81788000D01*
X366268000Y-81788000D01*
G37*
X366268000Y-81788000D02*
X360172000Y-81788000D01*
X360172000Y-70612000D01*
X366268000Y-70612000D01*
X366268000Y-81788000D01*
M02*
