M48
;DRILL file {KiCad 4.0.7} date Mon Feb 26 15:05:35 2018
;FORMAT={-:-/ absolute / inch / decimal}
FMAT,2
INCH,TZ
T1C0.039
T2C0.098
T3C0.110
T4C0.197
%
G90
G05
M72
T1
X5.5Y-3.1
X5.5Y-4.1
X5.5Y-4.7
X5.5Y-5.3
X5.6272Y-5.286
X5.6412Y-2.701
X6.6Y-3.1
X6.6Y-4.1
X6.6Y-4.7
X6.6Y-5.3
X6.7272Y-5.286
X6.7412Y-2.701
X7.7Y-3.1
X7.7Y-4.1
X7.7Y-4.7
X7.7Y-5.3
X7.8272Y-5.286
X7.8412Y-2.701
X8.8Y-3.1
X8.8Y-4.1
X8.8Y-4.7
X8.8Y-5.3
X8.9272Y-5.286
X8.9412Y-2.701
X9.9Y-3.1
X9.9Y-4.1
X9.9Y-4.7
X9.9Y-5.3
X10.0272Y-5.286
X10.0412Y-2.701
X11.Y-3.1
X11.Y-4.1
X11.Y-4.7
X11.Y-5.3
X11.1272Y-5.286
X11.1412Y-2.701
X12.1Y-3.1
X12.1Y-4.1
X12.1Y-4.7
X12.1Y-5.3
X12.2272Y-5.286
X12.2412Y-2.701
X13.2Y-3.1
X13.2Y-4.1
X13.2Y-4.7
X13.2Y-5.3
X13.3272Y-5.286
X13.3412Y-2.701
X14.3Y-3.1
X14.3Y-4.1
X14.3Y-4.7
X14.3Y-5.3
X14.4272Y-5.286
X14.4412Y-2.701
X15.9Y-5.7
X15.9Y-5.8
X16.Y-5.7
T2
X5.1Y-3.1
X5.9Y-3.1
X6.2Y-3.1
X7.Y-3.1
X7.3Y-3.1
X8.1Y-3.1
X8.4Y-3.1
X9.2Y-3.1
X9.5Y-3.1
X10.3Y-3.1
X10.6Y-3.1
X11.4Y-3.1
X11.7Y-3.1
X12.5Y-3.1
X12.8Y-3.1
X13.6Y-3.1
X13.9Y-3.1
X14.7Y-3.1
T3
X15.7Y-2.5
X15.7Y-6.
T4
X5.Y-2.325
X5.Y-6.325
X8.4Y-2.325
X8.4Y-6.325
X11.8Y-2.325
X11.8Y-6.325
X15.2Y-2.325
X15.2Y-6.325
T0
M30
