M48
;DRILL file {KiCad 4.0.6} date Thu Aug 17 12:11:58 2017
;FORMAT={-:-/ absolute / inch / decimal}
FMAT,2
INCH,TZ
T1C0.016
T2C0.039
T3C0.050
T4C0.060
T5C0.071
%
G90
G05
M72
T1
X3.9961Y-6.5157
X4.0157Y-6.926
X4.0157Y-7.026
X4.0551Y-6.1024
X4.0551Y-10.2362
X4.0945Y-6.063
X4.0945Y-7.026
X4.0945Y-10.1969
X4.1339Y-6.0236
X4.1339Y-6.926
X4.1339Y-10.1575
X4.1929Y-5.9646
X4.1929Y-6.5157
X4.1929Y-10.0984
X4.5472Y-3.9803
X4.5472Y-4.122
X4.5472Y-8.1142
X4.5472Y-8.2559
X4.5472Y-12.248
X4.5472Y-12.3898
X4.5866Y-3.9803
X4.5866Y-4.122
X4.5866Y-8.1142
X4.5866Y-8.2559
X4.5866Y-12.248
X4.5866Y-12.3898
X4.7047Y-4.752
X4.7047Y-5.9646
X4.7047Y-8.8858
X4.7047Y-10.0984
X4.7047Y-13.0197
X4.7047Y-14.2323
X4.813Y-5.7272
X4.813Y-5.7713
X4.813Y-9.861
X4.813Y-9.9051
X4.813Y-13.9949
X4.813Y-14.039
X4.8228Y-2.9331
X4.8228Y-3.0906
X4.8228Y-3.248
X4.8228Y-3.4055
X4.8228Y-3.563
X4.8228Y-3.7205
X4.8228Y-3.878
X4.8228Y-4.2323
X4.8228Y-4.3898
X4.8228Y-4.5472
X4.8228Y-4.7047
X4.8228Y-4.8622
X4.8228Y-5.0197
X4.8228Y-5.1772
X4.8228Y-5.3346
X4.8228Y-5.4921
X4.8228Y-7.0669
X4.8228Y-7.2244
X4.8228Y-7.3819
X4.8228Y-7.5394
X4.8228Y-7.6969
X4.8228Y-7.8543
X4.8228Y-8.0118
X4.8228Y-8.3661
X4.8228Y-8.5236
X4.8228Y-8.6811
X4.8228Y-8.8386
X4.8228Y-8.9961
X4.8228Y-9.1535
X4.8228Y-9.311
X4.8228Y-9.4685
X4.8228Y-9.626
X4.8228Y-11.2008
X4.8228Y-11.3583
X4.8228Y-11.5157
X4.8228Y-11.6732
X4.8228Y-11.8307
X4.8228Y-11.9882
X4.8228Y-12.1457
X4.8228Y-12.5
X4.8228Y-12.6575
X4.8228Y-12.815
X4.8228Y-12.9724
X4.8228Y-13.1299
X4.8228Y-13.2874
X4.8228Y-13.4449
X4.8228Y-13.6024
X4.8228Y-13.7598
X4.9803Y-2.9331
X4.9803Y-3.0906
X4.9803Y-3.248
X4.9803Y-3.4055
X4.9803Y-3.563
X4.9803Y-3.7205
X4.9803Y-3.878
X4.9803Y-4.2323
X4.9803Y-4.3898
X4.9803Y-4.5472
X4.9803Y-4.7047
X4.9803Y-4.8622
X4.9803Y-5.0197
X4.9803Y-5.1772
X4.9803Y-5.4921
X4.9803Y-5.7874
X4.9803Y-6.0236
X4.9803Y-7.0669
X4.9803Y-7.2244
X4.9803Y-7.3819
X4.9803Y-7.5394
X4.9803Y-7.6969
X4.9803Y-7.8543
X4.9803Y-8.0118
X4.9803Y-8.3661
X4.9803Y-8.5236
X4.9803Y-8.6811
X4.9803Y-8.8386
X4.9803Y-8.9961
X4.9803Y-9.1535
X4.9803Y-9.311
X4.9803Y-9.626
X4.9803Y-9.9213
X4.9803Y-10.1575
X4.9803Y-11.2008
X4.9803Y-11.3583
X4.9803Y-11.5157
X4.9803Y-11.6732
X4.9803Y-11.8307
X4.9803Y-11.9882
X4.9803Y-12.1457
X4.9803Y-12.5
X4.9803Y-12.6575
X4.9803Y-12.815
X4.9803Y-12.9724
X4.9803Y-13.1299
X4.9803Y-13.2874
X4.9803Y-13.4449
X4.9803Y-13.7598
X4.9803Y-14.0551
X4.9803Y-14.2913
X5.0197Y-5.7874
X5.0197Y-6.063
X5.0197Y-9.9213
X5.0197Y-10.1969
X5.0197Y-14.0551
X5.0197Y-14.3307
X5.0591Y-5.7874
X5.0591Y-6.1024
X5.0591Y-9.9213
X5.0591Y-10.2362
X5.0591Y-14.0551
X5.0591Y-14.3701
X5.2165Y-3.9803
X5.2165Y-4.122
X5.2165Y-8.1142
X5.2165Y-8.2559
X5.2165Y-12.248
X5.2165Y-12.3898
X5.2559Y-3.9803
X5.2559Y-4.122
X5.2559Y-8.1142
X5.2559Y-8.2559
X5.2559Y-12.248
X5.2559Y-12.3898
X5.7283Y-3.9803
X5.7283Y-4.122
X5.7283Y-8.1142
X5.7283Y-8.2559
X5.7283Y-12.248
X5.7283Y-12.3898
X5.7677Y-3.9803
X5.7677Y-4.122
X5.7677Y-8.1142
X5.7677Y-8.2559
X5.7677Y-12.248
X5.7677Y-12.3898
X5.8858Y-4.752
X5.8858Y-5.9646
X5.8858Y-8.8858
X5.8858Y-10.0984
X5.8858Y-13.0197
X5.8858Y-14.2323
X5.9941Y-5.7272
X5.9941Y-5.7713
X5.9941Y-9.861
X5.9941Y-9.9051
X5.9941Y-13.9949
X5.9941Y-14.039
X6.0039Y-2.9331
X6.0039Y-3.0906
X6.0039Y-3.248
X6.0039Y-3.4055
X6.0039Y-3.563
X6.0039Y-3.7205
X6.0039Y-3.878
X6.0039Y-4.2323
X6.0039Y-4.3898
X6.0039Y-4.5472
X6.0039Y-4.7047
X6.0039Y-4.8622
X6.0039Y-5.0197
X6.0039Y-5.1772
X6.0039Y-5.3346
X6.0039Y-5.4921
X6.0039Y-7.0669
X6.0039Y-7.2244
X6.0039Y-7.3819
X6.0039Y-7.5394
X6.0039Y-7.6969
X6.0039Y-7.8543
X6.0039Y-8.0118
X6.0039Y-8.3661
X6.0039Y-8.5236
X6.0039Y-8.6811
X6.0039Y-8.8386
X6.0039Y-8.9961
X6.0039Y-9.1535
X6.0039Y-9.311
X6.0039Y-9.4685
X6.0039Y-9.626
X6.0039Y-11.2008
X6.0039Y-11.3583
X6.0039Y-11.5157
X6.0039Y-11.6732
X6.0039Y-11.8307
X6.0039Y-11.9882
X6.0039Y-12.1457
X6.0039Y-12.5
X6.0039Y-12.6575
X6.0039Y-12.815
X6.0039Y-12.9724
X6.0039Y-13.1299
X6.0039Y-13.2874
X6.0039Y-13.4449
X6.0039Y-13.6024
X6.0039Y-13.7598
X6.1614Y-2.9331
X6.1614Y-3.0906
X6.1614Y-3.248
X6.1614Y-3.4055
X6.1614Y-3.563
X6.1614Y-3.7205
X6.1614Y-3.878
X6.1614Y-4.2323
X6.1614Y-4.3898
X6.1614Y-4.5472
X6.1614Y-4.7047
X6.1614Y-4.8622
X6.1614Y-5.0197
X6.1614Y-5.1772
X6.1614Y-5.4921
X6.1614Y-5.7874
X6.1614Y-6.0236
X6.1614Y-7.0669
X6.1614Y-7.2244
X6.1614Y-7.3819
X6.1614Y-7.5394
X6.1614Y-7.6969
X6.1614Y-7.8543
X6.1614Y-8.0118
X6.1614Y-8.3661
X6.1614Y-8.5236
X6.1614Y-8.6811
X6.1614Y-8.8386
X6.1614Y-8.9961
X6.1614Y-9.1535
X6.1614Y-9.311
X6.1614Y-9.626
X6.1614Y-9.9213
X6.1614Y-10.1575
X6.1614Y-11.2008
X6.1614Y-11.3583
X6.1614Y-11.5157
X6.1614Y-11.6732
X6.1614Y-11.8307
X6.1614Y-11.9882
X6.1614Y-12.1457
X6.1614Y-12.5
X6.1614Y-12.6575
X6.1614Y-12.815
X6.1614Y-12.9724
X6.1614Y-13.1299
X6.1614Y-13.2874
X6.1614Y-13.4449
X6.1614Y-13.7598
X6.1614Y-14.0551
X6.1614Y-14.2913
X6.2008Y-5.7874
X6.2008Y-6.063
X6.2008Y-9.9213
X6.2008Y-10.1969
X6.2008Y-14.0551
X6.2008Y-14.3307
X6.2402Y-5.7874
X6.2402Y-6.1024
X6.2402Y-9.9213
X6.2402Y-10.2362
X6.2402Y-14.0551
X6.2402Y-14.3701
X6.3976Y-3.9803
X6.3976Y-4.122
X6.3976Y-8.1142
X6.3976Y-8.2559
X6.3976Y-12.248
X6.3976Y-12.3898
X6.437Y-3.9803
X6.437Y-4.122
X6.437Y-8.1142
X6.437Y-8.2559
X6.437Y-12.248
X6.437Y-12.3898
X6.9094Y-3.9803
X6.9094Y-4.122
X6.9094Y-8.1142
X6.9094Y-8.2559
X6.9094Y-12.248
X6.9094Y-12.3898
X6.9488Y-3.9803
X6.9488Y-4.122
X6.9488Y-8.1142
X6.9488Y-8.2559
X6.9488Y-12.248
X6.9488Y-12.3898
X7.0669Y-4.752
X7.0669Y-5.9646
X7.0669Y-8.8858
X7.0669Y-10.0984
X7.0669Y-13.0197
X7.0669Y-14.2323
X7.1752Y-5.7272
X7.1752Y-5.7713
X7.1752Y-9.861
X7.1752Y-9.9051
X7.1752Y-13.9949
X7.1752Y-14.039
X7.185Y-2.9331
X7.185Y-3.0906
X7.185Y-3.248
X7.185Y-3.4055
X7.185Y-3.563
X7.185Y-3.7205
X7.185Y-3.878
X7.185Y-4.2323
X7.185Y-4.3898
X7.185Y-4.5472
X7.185Y-4.7047
X7.185Y-4.8622
X7.185Y-5.0197
X7.185Y-5.1772
X7.185Y-5.3346
X7.185Y-5.4921
X7.185Y-7.0669
X7.185Y-7.2244
X7.185Y-7.3819
X7.185Y-7.5394
X7.185Y-7.6969
X7.185Y-7.8543
X7.185Y-8.0118
X7.185Y-8.3661
X7.185Y-8.5236
X7.185Y-8.6811
X7.185Y-8.8386
X7.185Y-8.9961
X7.185Y-9.1535
X7.185Y-9.311
X7.185Y-9.4685
X7.185Y-9.626
X7.185Y-11.2008
X7.185Y-11.3583
X7.185Y-11.5157
X7.185Y-11.6732
X7.185Y-11.8307
X7.185Y-11.9882
X7.185Y-12.1457
X7.185Y-12.5
X7.185Y-12.6575
X7.185Y-12.815
X7.185Y-12.9724
X7.185Y-13.1299
X7.185Y-13.2874
X7.185Y-13.4449
X7.185Y-13.6024
X7.185Y-13.7598
X7.3425Y-2.9331
X7.3425Y-3.0906
X7.3425Y-3.248
X7.3425Y-3.4055
X7.3425Y-3.563
X7.3425Y-3.7205
X7.3425Y-3.878
X7.3425Y-4.2323
X7.3425Y-4.3898
X7.3425Y-4.5472
X7.3425Y-4.7047
X7.3425Y-4.8622
X7.3425Y-5.0197
X7.3425Y-5.1772
X7.3425Y-5.4921
X7.3425Y-5.7874
X7.3425Y-6.0236
X7.3425Y-7.0669
X7.3425Y-7.2244
X7.3425Y-7.3819
X7.3425Y-7.5394
X7.3425Y-7.6969
X7.3425Y-7.8543
X7.3425Y-8.0118
X7.3425Y-8.3661
X7.3425Y-8.5236
X7.3425Y-8.6811
X7.3425Y-8.8386
X7.3425Y-8.9961
X7.3425Y-9.1535
X7.3425Y-9.311
X7.3425Y-9.626
X7.3425Y-9.9213
X7.3425Y-10.1575
X7.3425Y-11.2008
X7.3425Y-11.3583
X7.3425Y-11.5157
X7.3425Y-11.6732
X7.3425Y-11.8307
X7.3425Y-11.9882
X7.3425Y-12.1457
X7.3425Y-12.5
X7.3425Y-12.6575
X7.3425Y-12.815
X7.3425Y-12.9724
X7.3425Y-13.1299
X7.3425Y-13.2874
X7.3425Y-13.4449
X7.3425Y-13.7598
X7.3425Y-14.0551
X7.3425Y-14.2913
X7.3819Y-5.7874
X7.3819Y-6.063
X7.3819Y-9.9213
X7.3819Y-10.1969
X7.3819Y-14.0551
X7.3819Y-14.3307
X7.4213Y-5.7874
X7.4213Y-6.1024
X7.4213Y-9.9213
X7.4213Y-10.2362
X7.4213Y-14.0551
X7.4213Y-14.3701
X7.5787Y-3.9803
X7.5787Y-4.122
X7.5787Y-8.1142
X7.5787Y-8.2559
X7.5787Y-12.248
X7.5787Y-12.3898
X7.6181Y-3.9803
X7.6181Y-4.122
X7.6181Y-8.1142
X7.6181Y-8.2559
X7.6181Y-12.248
X7.6181Y-12.3898
X8.0906Y-3.9803
X8.0906Y-4.122
X8.0906Y-8.1142
X8.0906Y-8.2559
X8.0906Y-12.248
X8.0906Y-12.3898
X8.1299Y-3.9803
X8.1299Y-4.122
X8.1299Y-8.1142
X8.1299Y-8.2559
X8.1299Y-12.248
X8.1299Y-12.3898
X8.248Y-4.752
X8.248Y-5.9646
X8.248Y-8.8858
X8.248Y-10.0984
X8.248Y-13.0197
X8.248Y-14.2323
X8.3563Y-5.7272
X8.3563Y-5.7713
X8.3563Y-9.861
X8.3563Y-9.9051
X8.3563Y-13.9949
X8.3563Y-14.039
X8.3661Y-2.9331
X8.3661Y-3.0906
X8.3661Y-3.248
X8.3661Y-3.4055
X8.3661Y-3.563
X8.3661Y-3.7205
X8.3661Y-3.878
X8.3661Y-4.2323
X8.3661Y-4.3898
X8.3661Y-4.5472
X8.3661Y-4.7047
X8.3661Y-4.8622
X8.3661Y-5.0197
X8.3661Y-5.1772
X8.3661Y-5.3346
X8.3661Y-5.4921
X8.3661Y-7.0669
X8.3661Y-7.2244
X8.3661Y-7.3819
X8.3661Y-7.5394
X8.3661Y-7.6969
X8.3661Y-7.8543
X8.3661Y-8.0118
X8.3661Y-8.3661
X8.3661Y-8.5236
X8.3661Y-8.6811
X8.3661Y-8.8386
X8.3661Y-8.9961
X8.3661Y-9.1535
X8.3661Y-9.311
X8.3661Y-9.4685
X8.3661Y-9.626
X8.3661Y-11.2008
X8.3661Y-11.3583
X8.3661Y-11.5157
X8.3661Y-11.6732
X8.3661Y-11.8307
X8.3661Y-11.9882
X8.3661Y-12.1457
X8.3661Y-12.5
X8.3661Y-12.6575
X8.3661Y-12.815
X8.3661Y-12.9724
X8.3661Y-13.1299
X8.3661Y-13.2874
X8.3661Y-13.4449
X8.3661Y-13.6024
X8.3661Y-13.7598
X8.5236Y-2.9331
X8.5236Y-3.0906
X8.5236Y-3.248
X8.5236Y-3.4055
X8.5236Y-3.563
X8.5236Y-3.7205
X8.5236Y-3.878
X8.5236Y-4.2323
X8.5236Y-4.3898
X8.5236Y-4.5472
X8.5236Y-4.7047
X8.5236Y-4.8622
X8.5236Y-5.0197
X8.5236Y-5.1772
X8.5236Y-5.4921
X8.5236Y-5.7874
X8.5236Y-6.0236
X8.5236Y-7.0669
X8.5236Y-7.2244
X8.5236Y-7.3819
X8.5236Y-7.5394
X8.5236Y-7.6969
X8.5236Y-7.8543
X8.5236Y-8.0118
X8.5236Y-8.3661
X8.5236Y-8.5236
X8.5236Y-8.6811
X8.5236Y-8.8386
X8.5236Y-8.9961
X8.5236Y-9.1535
X8.5236Y-9.311
X8.5236Y-9.626
X8.5236Y-9.9213
X8.5236Y-10.1575
X8.5236Y-11.2008
X8.5236Y-11.3583
X8.5236Y-11.5157
X8.5236Y-11.6732
X8.5236Y-11.8307
X8.5236Y-11.9882
X8.5236Y-12.1457
X8.5236Y-12.5
X8.5236Y-12.6575
X8.5236Y-12.815
X8.5236Y-12.9724
X8.5236Y-13.1299
X8.5236Y-13.2874
X8.5236Y-13.4449
X8.5236Y-13.7598
X8.5236Y-14.0551
X8.5236Y-14.2913
X8.563Y-5.7874
X8.563Y-6.063
X8.563Y-9.9213
X8.563Y-10.1969
X8.563Y-14.0551
X8.563Y-14.3307
X8.6024Y-5.7874
X8.6024Y-6.1024
X8.6024Y-9.9213
X8.6024Y-10.2362
X8.6024Y-14.0551
X8.6024Y-14.3701
X8.7598Y-3.9803
X8.7598Y-4.122
X8.7598Y-8.1142
X8.7598Y-8.2559
X8.7598Y-12.248
X8.7598Y-12.3898
X8.7992Y-3.9803
X8.7992Y-4.122
X8.7992Y-8.1142
X8.7992Y-8.2559
X8.7992Y-12.248
X8.7992Y-12.3898
X9.2717Y-3.9803
X9.2717Y-4.122
X9.2717Y-8.1142
X9.2717Y-8.2559
X9.2717Y-12.248
X9.2717Y-12.3898
X9.311Y-3.9803
X9.311Y-4.122
X9.311Y-8.1142
X9.311Y-8.2559
X9.311Y-12.248
X9.311Y-12.3898
X9.4291Y-4.752
X9.4291Y-5.9646
X9.4291Y-8.8858
X9.4291Y-10.0984
X9.4291Y-13.0197
X9.4291Y-14.2323
X9.5374Y-5.7272
X9.5374Y-5.7713
X9.5374Y-9.861
X9.5374Y-9.9051
X9.5374Y-13.9949
X9.5374Y-14.039
X9.5472Y-2.9331
X9.5472Y-3.0906
X9.5472Y-3.248
X9.5472Y-3.4055
X9.5472Y-3.563
X9.5472Y-3.7205
X9.5472Y-3.878
X9.5472Y-4.2323
X9.5472Y-4.3898
X9.5472Y-4.5472
X9.5472Y-4.7047
X9.5472Y-4.8622
X9.5472Y-5.0197
X9.5472Y-5.1772
X9.5472Y-5.3346
X9.5472Y-5.4921
X9.5472Y-7.0669
X9.5472Y-7.2244
X9.5472Y-7.3819
X9.5472Y-7.5394
X9.5472Y-7.6969
X9.5472Y-7.8543
X9.5472Y-8.0118
X9.5472Y-8.3661
X9.5472Y-8.5236
X9.5472Y-8.6811
X9.5472Y-8.8386
X9.5472Y-8.9961
X9.5472Y-9.1535
X9.5472Y-9.311
X9.5472Y-9.4685
X9.5472Y-9.626
X9.5472Y-11.2008
X9.5472Y-11.3583
X9.5472Y-11.5157
X9.5472Y-11.6732
X9.5472Y-11.8307
X9.5472Y-11.9882
X9.5472Y-12.1457
X9.5472Y-12.5
X9.5472Y-12.6575
X9.5472Y-12.815
X9.5472Y-12.9724
X9.5472Y-13.1299
X9.5472Y-13.2874
X9.5472Y-13.4449
X9.5472Y-13.6024
X9.5472Y-13.7598
X9.7047Y-2.9331
X9.7047Y-3.0906
X9.7047Y-3.248
X9.7047Y-3.4055
X9.7047Y-3.563
X9.7047Y-3.7205
X9.7047Y-3.878
X9.7047Y-4.2323
X9.7047Y-4.3898
X9.7047Y-4.5472
X9.7047Y-4.7047
X9.7047Y-4.8622
X9.7047Y-5.0197
X9.7047Y-5.1772
X9.7047Y-5.4921
X9.7047Y-5.7874
X9.7047Y-6.0236
X9.7047Y-7.0669
X9.7047Y-7.2244
X9.7047Y-7.3819
X9.7047Y-7.5394
X9.7047Y-7.6969
X9.7047Y-7.8543
X9.7047Y-8.0118
X9.7047Y-8.3661
X9.7047Y-8.5236
X9.7047Y-8.6811
X9.7047Y-8.8386
X9.7047Y-8.9961
X9.7047Y-9.1535
X9.7047Y-9.311
X9.7047Y-9.626
X9.7047Y-9.9213
X9.7047Y-10.1575
X9.7047Y-11.2008
X9.7047Y-11.3583
X9.7047Y-11.5157
X9.7047Y-11.6732
X9.7047Y-11.8307
X9.7047Y-11.9882
X9.7047Y-12.1457
X9.7047Y-12.5
X9.7047Y-12.6575
X9.7047Y-12.815
X9.7047Y-12.9724
X9.7047Y-13.1299
X9.7047Y-13.2874
X9.7047Y-13.4449
X9.7047Y-13.7598
X9.7047Y-14.0551
X9.7047Y-14.2913
X9.7441Y-5.7874
X9.7441Y-6.063
X9.7441Y-9.9213
X9.7441Y-10.1969
X9.7441Y-14.0551
X9.7441Y-14.3307
X9.7835Y-5.7874
X9.7835Y-6.1024
X9.7835Y-9.9213
X9.7835Y-10.2362
X9.7835Y-14.0551
X9.7835Y-14.3701
X9.9409Y-3.9803
X9.9409Y-4.122
X9.9409Y-8.1142
X9.9409Y-8.2559
X9.9409Y-12.248
X9.9409Y-12.3898
X9.9803Y-3.9803
X9.9803Y-4.122
X9.9803Y-8.1142
X9.9803Y-8.2559
X9.9803Y-12.248
X9.9803Y-12.3898
X10.4528Y-3.9803
X10.4528Y-4.122
X10.4528Y-8.1142
X10.4528Y-8.2559
X10.4528Y-12.248
X10.4528Y-12.3898
X10.4921Y-3.9803
X10.4921Y-4.122
X10.4921Y-8.1142
X10.4921Y-8.2559
X10.4921Y-12.248
X10.4921Y-12.3898
X10.6102Y-4.752
X10.6102Y-5.9646
X10.6102Y-8.8858
X10.6102Y-10.0984
X10.6102Y-13.0197
X10.6102Y-14.2323
X10.7185Y-5.7272
X10.7185Y-5.7713
X10.7185Y-9.861
X10.7185Y-9.9051
X10.7185Y-13.9949
X10.7185Y-14.039
X10.7283Y-2.9331
X10.7283Y-3.0906
X10.7283Y-3.248
X10.7283Y-3.4055
X10.7283Y-3.563
X10.7283Y-3.7205
X10.7283Y-3.878
X10.7283Y-4.2323
X10.7283Y-4.3898
X10.7283Y-4.5472
X10.7283Y-4.7047
X10.7283Y-4.8622
X10.7283Y-5.0197
X10.7283Y-5.1772
X10.7283Y-5.3346
X10.7283Y-5.4921
X10.7283Y-7.0669
X10.7283Y-7.2244
X10.7283Y-7.3819
X10.7283Y-7.5394
X10.7283Y-7.6969
X10.7283Y-7.8543
X10.7283Y-8.0118
X10.7283Y-8.3661
X10.7283Y-8.5236
X10.7283Y-8.6811
X10.7283Y-8.8386
X10.7283Y-8.9961
X10.7283Y-9.1535
X10.7283Y-9.311
X10.7283Y-9.4685
X10.7283Y-9.626
X10.7283Y-11.2008
X10.7283Y-11.3583
X10.7283Y-11.5157
X10.7283Y-11.6732
X10.7283Y-11.8307
X10.7283Y-11.9882
X10.7283Y-12.1457
X10.7283Y-12.5
X10.7283Y-12.6575
X10.7283Y-12.815
X10.7283Y-12.9724
X10.7283Y-13.1299
X10.7283Y-13.2874
X10.7283Y-13.4449
X10.7283Y-13.6024
X10.7283Y-13.7598
X10.8858Y-2.9331
X10.8858Y-3.0906
X10.8858Y-3.248
X10.8858Y-3.4055
X10.8858Y-3.563
X10.8858Y-3.7205
X10.8858Y-3.878
X10.8858Y-4.2323
X10.8858Y-4.3898
X10.8858Y-4.5472
X10.8858Y-4.7047
X10.8858Y-4.8622
X10.8858Y-5.0197
X10.8858Y-5.1772
X10.8858Y-5.4921
X10.8858Y-5.7874
X10.8858Y-6.0236
X10.8858Y-7.0669
X10.8858Y-7.2244
X10.8858Y-7.3819
X10.8858Y-7.5394
X10.8858Y-7.6969
X10.8858Y-7.8543
X10.8858Y-8.0118
X10.8858Y-8.3661
X10.8858Y-8.5236
X10.8858Y-8.6811
X10.8858Y-8.8386
X10.8858Y-8.9961
X10.8858Y-9.1535
X10.8858Y-9.311
X10.8858Y-9.626
X10.8858Y-9.9213
X10.8858Y-10.1575
X10.8858Y-11.2008
X10.8858Y-11.3583
X10.8858Y-11.5157
X10.8858Y-11.6732
X10.8858Y-11.8307
X10.8858Y-11.9882
X10.8858Y-12.1457
X10.8858Y-12.5
X10.8858Y-12.6575
X10.8858Y-12.815
X10.8858Y-12.9724
X10.8858Y-13.1299
X10.8858Y-13.2874
X10.8858Y-13.4449
X10.8858Y-13.7598
X10.8858Y-14.0551
X10.8858Y-14.2913
X10.9252Y-5.7874
X10.9252Y-6.063
X10.9252Y-9.9213
X10.9252Y-10.1969
X10.9252Y-14.0551
X10.9252Y-14.3307
X10.9646Y-5.7874
X10.9646Y-6.1024
X10.9646Y-9.9213
X10.9646Y-10.2362
X10.9646Y-14.0551
X10.9646Y-14.3701
X11.122Y-3.9803
X11.122Y-4.122
X11.122Y-8.1142
X11.122Y-8.2559
X11.122Y-12.248
X11.122Y-12.3898
X11.1614Y-3.9803
X11.1614Y-4.122
X11.1614Y-8.1142
X11.1614Y-8.2559
X11.1614Y-12.248
X11.1614Y-12.3898
X11.6339Y-3.9803
X11.6339Y-4.122
X11.6339Y-8.1142
X11.6339Y-8.2559
X11.6339Y-12.248
X11.6339Y-12.3898
X11.6732Y-3.9803
X11.6732Y-4.122
X11.6732Y-8.1142
X11.6732Y-8.2559
X11.6732Y-12.248
X11.6732Y-12.3898
X11.7913Y-4.752
X11.7913Y-5.9646
X11.7913Y-8.8858
X11.7913Y-10.0984
X11.7913Y-13.0197
X11.7913Y-14.2323
X11.8996Y-5.7272
X11.8996Y-5.7713
X11.8996Y-9.861
X11.8996Y-9.9051
X11.8996Y-13.9949
X11.8996Y-14.039
X11.9094Y-2.9331
X11.9094Y-3.0906
X11.9094Y-3.248
X11.9094Y-3.4055
X11.9094Y-3.563
X11.9094Y-3.7205
X11.9094Y-3.878
X11.9094Y-4.2323
X11.9094Y-4.3898
X11.9094Y-4.5472
X11.9094Y-4.7047
X11.9094Y-4.8622
X11.9094Y-5.0197
X11.9094Y-5.1772
X11.9094Y-5.3346
X11.9094Y-5.4921
X11.9094Y-7.0669
X11.9094Y-7.2244
X11.9094Y-7.3819
X11.9094Y-7.5394
X11.9094Y-7.6969
X11.9094Y-7.8543
X11.9094Y-8.0118
X11.9094Y-8.3661
X11.9094Y-8.5236
X11.9094Y-8.6811
X11.9094Y-8.8386
X11.9094Y-8.9961
X11.9094Y-9.1535
X11.9094Y-9.311
X11.9094Y-9.4685
X11.9094Y-9.626
X11.9094Y-11.2008
X11.9094Y-11.3583
X11.9094Y-11.5157
X11.9094Y-11.6732
X11.9094Y-11.8307
X11.9094Y-11.9882
X11.9094Y-12.1457
X11.9094Y-12.5
X11.9094Y-12.6575
X11.9094Y-12.815
X11.9094Y-12.9724
X11.9094Y-13.1299
X11.9094Y-13.2874
X11.9094Y-13.4449
X11.9094Y-13.6024
X11.9094Y-13.7598
X12.0669Y-2.9331
X12.0669Y-3.0906
X12.0669Y-3.248
X12.0669Y-3.4055
X12.0669Y-3.563
X12.0669Y-3.7205
X12.0669Y-3.878
X12.0669Y-4.2323
X12.0669Y-4.3898
X12.0669Y-4.5472
X12.0669Y-4.7047
X12.0669Y-4.8622
X12.0669Y-5.0197
X12.0669Y-5.1772
X12.0669Y-5.4921
X12.0669Y-7.0669
X12.0669Y-7.2244
X12.0669Y-7.3819
X12.0669Y-7.5394
X12.0669Y-7.6969
X12.0669Y-7.8543
X12.0669Y-8.0118
X12.0669Y-8.3661
X12.0669Y-8.5236
X12.0669Y-8.6811
X12.0669Y-8.8386
X12.0669Y-8.9961
X12.0669Y-9.1535
X12.0669Y-9.311
X12.0669Y-9.626
X12.0669Y-11.2008
X12.0669Y-11.3583
X12.0669Y-11.5157
X12.0669Y-11.6732
X12.0669Y-11.8307
X12.0669Y-11.9882
X12.0669Y-12.1457
X12.0669Y-12.5
X12.0669Y-12.6575
X12.0669Y-12.815
X12.0669Y-12.9724
X12.0669Y-13.1299
X12.0669Y-13.2874
X12.0669Y-13.4449
X12.0669Y-13.7598
X12.3031Y-3.9803
X12.3031Y-4.122
X12.3031Y-8.1142
X12.3031Y-8.2559
X12.3031Y-12.248
X12.3031Y-12.3898
X12.3425Y-3.9803
X12.3425Y-4.122
X12.3425Y-8.1142
X12.3425Y-8.2559
X12.3425Y-12.248
X12.3425Y-12.3898
T2
X3.2087Y-6.926
X3.2087Y-7.026
X3.2087Y-7.126
X3.2087Y-7.226
T3
X3.3671Y-6.5167
T4
X3.2421Y-6.3917
X3.2421Y-6.6417
X3.4921Y-6.3917
X3.4921Y-6.6417
T5
X3.2402Y-5.7598
X3.2402Y-5.9843
X3.4567Y-5.7598
X3.4567Y-5.9843
X4.6693Y-2.2165
X4.6693Y-2.4409
X4.6693Y-6.3504
X4.6693Y-6.5748
X4.6693Y-10.4843
X4.6693Y-10.7087
X4.8937Y-2.2165
X4.8937Y-6.3504
X4.8937Y-6.5748
X4.8937Y-10.4843
X4.8937Y-10.7087
X4.9016Y-2.4409
X5.1181Y-2.2165
X5.1181Y-2.4409
X5.1181Y-6.3504
X5.1181Y-6.5748
X5.1181Y-10.4843
X5.1181Y-10.7087
X5.8504Y-2.2165
X5.8504Y-2.4409
X5.8504Y-6.3504
X5.8504Y-6.5748
X5.8504Y-10.4843
X5.8504Y-10.7087
X6.0748Y-2.2165
X6.0748Y-2.4409
X6.0748Y-6.3504
X6.0748Y-6.5748
X6.0748Y-10.4843
X6.0748Y-10.7087
X6.2992Y-2.2165
X6.2992Y-2.4409
X6.2992Y-6.3504
X6.2992Y-6.5748
X6.2992Y-10.4843
X6.2992Y-10.7087
X7.0315Y-2.2165
X7.0315Y-2.4409
X7.0315Y-6.3504
X7.0315Y-6.5748
X7.0315Y-10.4843
X7.0315Y-10.7087
X7.2559Y-2.2165
X7.2559Y-2.4409
X7.2559Y-6.3504
X7.2559Y-6.5748
X7.2559Y-10.4843
X7.2559Y-10.7087
X7.4803Y-2.2165
X7.4803Y-2.4409
X7.4803Y-6.3504
X7.4803Y-6.5748
X7.4803Y-10.4843
X7.4803Y-10.7087
X8.2126Y-2.2165
X8.2126Y-2.4409
X8.2126Y-6.3504
X8.2126Y-6.5748
X8.2126Y-10.4843
X8.2126Y-10.7087
X8.437Y-2.2165
X8.437Y-2.4409
X8.437Y-6.3504
X8.437Y-6.5748
X8.437Y-10.4843
X8.437Y-10.7087
X8.6614Y-2.2165
X8.6614Y-2.4409
X8.6614Y-6.3504
X8.6614Y-6.5748
X8.6614Y-10.4843
X8.6614Y-10.7087
X9.3937Y-2.2165
X9.3937Y-2.4409
X9.3937Y-6.3504
X9.3937Y-6.5748
X9.3937Y-10.4843
X9.3937Y-10.7087
X9.6181Y-2.2165
X9.6181Y-2.4409
X9.6181Y-6.3504
X9.6181Y-6.5748
X9.6181Y-10.4843
X9.6181Y-10.7087
X9.8425Y-2.2165
X9.8425Y-2.4409
X9.8425Y-6.3504
X9.8425Y-6.5748
X9.8425Y-10.4843
X9.8425Y-10.7087
X10.5748Y-2.2165
X10.5748Y-2.4409
X10.5748Y-6.3504
X10.5748Y-6.5748
X10.5748Y-10.4843
X10.5748Y-10.7087
X10.7992Y-2.2165
X10.7992Y-2.4409
X10.7992Y-6.3504
X10.7992Y-6.5748
X10.7992Y-10.4843
X10.7992Y-10.7087
X11.0236Y-2.2165
X11.0236Y-2.4409
X11.0236Y-6.3504
X11.0236Y-6.5748
X11.0236Y-10.4843
X11.0236Y-10.7087
X11.7559Y-2.2165
X11.7559Y-2.4409
X11.7559Y-6.3504
X11.7559Y-6.5748
X11.7559Y-10.4843
X11.7559Y-10.7087
X11.9803Y-2.2165
X11.9803Y-2.4409
X11.9803Y-6.3504
X11.9803Y-6.5748
X11.9803Y-10.4843
X11.9803Y-10.7087
X12.2047Y-2.2165
X12.2047Y-2.4409
X12.2047Y-6.3504
X12.2047Y-6.5748
X12.2047Y-10.4843
X12.2047Y-10.7087
T0
M30
